<svg xmlns="http://www.w3.org/2000/svg" xmlns:xlink="http://www.w3.org/1999/xlink" width="67" height="64" viewBox="0 0 67 64">
  <defs>
    <clipPath id="clip-path">
      <rect id="Rectangle_281" data-name="Rectangle 281" width="67" height="64" transform="translate(-0.04 -0.061)" fill="#525252"/>
    </clipPath>
  </defs>
  <g id="Person_Icon" data-name="Person Icon" transform="translate(0.04 0.061)" clip-path="url(#clip-path)">
    <path id="Path_735" data-name="Path 735" d="M25.912,34.074A17.037,17.037,0,1,0,9,17.036,16.969,16.969,0,0,0,25.912,34.074" transform="translate(7.138 0.11)" fill="#525252"/>
    <path id="Path_736" data-name="Path 736" d="M20.443,21.383A2.065,2.065,0,0,1,22.786,22.5l6.443,4.758h9.189L44.863,22.5a2.064,2.064,0,0,1,2.343-1.122c10.155,2.5,20.441,7.584,20.441,15.238v6.515a2,2,0,0,1-2,2H2a2.006,2.006,0,0,1-2-2V36.62c0-7.654,10.288-12.742,20.443-15.238" transform="translate(-0.774 18.856)" fill="#525252"/>
  </g>
</svg>
