<svg id="Apollo" xmlns="http://www.w3.org/2000/svg" width="214" height="52.752" viewBox="0 0 214 52.752">
  <path id="Path_1372" data-name="Path 1372" d="M92.937,57.4a3.8,3.8,0,1,0-3.8-3.8A3.813,3.813,0,0,0,92.937,57.4Z" transform="translate(84.844 -45.152)" fill="#555"/>
  <path id="Path_1373" data-name="Path 1373" d="M56.769,83.13c-8.4,0-14.5-5.886-14.5-14.018s6.1-13.964,14.5-13.964a15.117,15.117,0,0,1,10.488,3.907,14.343,14.343,0,0,1,0,20.116A14.922,14.922,0,0,1,56.769,83.13Zm0-21.936c-4.387,0-7.436,3.265-7.436,7.865s3.049,7.865,7.436,7.865c4.494,0,7.49-3.157,7.49-7.865s-3-7.865-7.49-7.865Z" transform="translate(38.3 -39.848)" fill="#555"/>
  <path id="Path_1374" data-name="Path 1374" d="M65.492,50.1H58.43V87.767h7.062Z" transform="translate(54.348 -44.859)" fill="#555"/>
  <path id="Path_1375" data-name="Path 1375" d="M70.807,50.1H63.745V87.767h7.062Z" transform="translate(59.626 -44.859)" fill="#555"/>
  <path id="Path_1376" data-name="Path 1376" d="M83.37,83.13c-8.4,0-14.5-5.886-14.5-14.018s6.1-13.964,14.5-13.964a15.108,15.108,0,0,1,10.486,3.907,14.338,14.338,0,0,1,0,20.116A15.007,15.007,0,0,1,83.37,83.13Zm0-21.936c-4.387,0-7.436,3.265-7.436,7.865s3.049,7.865,7.436,7.865c4.494,0,7.49-3.157,7.49-7.865s-3.049-7.865-7.49-7.865Z" transform="translate(64.718 -39.848)" fill="#555"/>
  <path id="Path_1377" data-name="Path 1377" d="M96.309,55.122H89.245v27.66h7.064Z" transform="translate(84.951 -39.875)" fill="#555"/>
  <path id="Path_1378" data-name="Path 1378" d="M109.112,83.13c-8.4,0-14.5-5.886-14.5-14.018s6.1-13.964,14.5-13.964A15.109,15.109,0,0,1,119.6,59.055a14.338,14.338,0,0,1,0,20.116A15.007,15.007,0,0,1,109.112,83.13Zm0-21.936c-4.387,0-7.436,3.265-7.436,7.865s3.049,7.865,7.436,7.865c4.494,0,7.49-3.157,7.49-7.865-.054-4.708-3.049-7.865-7.49-7.865Z" transform="translate(90.283 -39.848)" fill="#555"/>
  <path id="Path_1379" data-name="Path 1379" d="M26.461,92.706V55.042h7.062v1.979a15.823,15.823,0,0,1,7.49-1.82A15.108,15.108,0,0,1,51.5,59.108a14.338,14.338,0,0,1,0,20.116,14.914,14.914,0,0,1-10.486,3.958,15.8,15.8,0,0,1-7.49-1.82V92.706ZM40.959,61.3c-4.387,0-7.436,3.265-7.436,7.865s3.049,7.865,7.436,7.865c4.494,0,7.49-3.157,7.49-7.865S45.453,61.3,40.959,61.3Z" transform="translate(22.599 -39.954)" fill="#555"/>
  <path id="Path_1380" data-name="Path 1380" d="M87.383,72.012a2.686,2.686,0,0,1-1.658-.534A3.042,3.042,0,0,1,84.6,70.141a3.292,3.292,0,0,1-.159-1.766,2.984,2.984,0,0,1,.855-1.553,2.9,2.9,0,0,1,1.553-.8,3.34,3.34,0,0,1,1.766.159A2.774,2.774,0,0,1,89.952,67.3a3.053,3.053,0,0,1,.534,1.658,3,3,0,0,1-.909,2.141A3.22,3.22,0,0,1,87.383,72.012Z" transform="translate(80.126 -29.105)" fill="#555"/>
  <path id="Path_1381" data-name="Path 1381" d="M25.068,51.633H18.435l3.424,5.991Z" transform="translate(14.629 -43.34)" fill="#a8a8a8"/>
  <path id="Path_1382" data-name="Path 1382" d="M45.288,79.732,40.8,71.921,26.616,47.472,1.846,90.38H15.114a10.246,10.246,0,0,0,5.029-1.337,9.921,9.921,0,0,0,3.745-3.691l6.795-11.823L26.937,67,18.752,81.231a5.5,5.5,0,0,1-1.925,1.925,5.061,5.061,0,0,1-2.621.7H13.189L26.616,60.527,43.845,90.38h4.867V85.618l-3.424-5.886Z" transform="translate(-1.846 -47.472)" fill="#555"/>
</svg>
