<svg xmlns="http://www.w3.org/2000/svg" width="205.138" height="13.154" viewBox="0 0 205.138 13.154">
  <g id="Green_Landscape" data-name="Green Landscape" transform="translate(-3706.169 -550.636)">
    <path id="Path_870" data-name="Path 870" d="M4053.121,553.591v5.7c0,1.377-.015,2.755.009,4.132.007.429-.1.606-.558.574-.389-.027-.7.015-.692-.553.021-3.963.01-7.926.014-11.89,0-.21-.077-.492.262-.523a1.012,1.012,0,0,1,1.043.353c1.113,1.449,2.268,2.865,3.4,4.295q2.1,2.64,4.2,5.281c.152.19.273.429.551.494.246-.163.124-.411.124-.611.009-3.007,0-6.015.01-9.023,0-.381-.179-.825.561-.825s.636.421.636.868c0,3.738,0,7.477-.012,11.215,0,.3.215.737-.221.882a.99.99,0,0,1-1.149-.453c-2.044-2.612-4.115-5.2-6.181-7.8-.589-.74-1.185-1.474-1.777-2.21Z" transform="translate(-287.159 -0.299)" fill="#777373"/>
    <path id="Path_871" data-name="Path 871" d="M4350.744,561.375v-3.526c0-2.052.011-4.1-.009-6.156,0-.464.04-.69.617-.692.6,0,.6.266.6.708-.011,3.851,0,7.7-.016,11.554,0,.239.2.615-.2.709a.979.979,0,0,1-1.089-.411c-1.88-2.42-3.8-4.811-5.7-7.209a23.612,23.612,0,0,0-2.488-2.784V554.7q0,4.259,0,8.518c0,.4.144.811-.584.806-.669,0-.628-.321-.628-.77.008-3.823,0-7.646.016-11.469,0-.251-.231-.67.251-.744a.953.953,0,0,1,1.014.378c2.464,3.142,4.965,6.253,7.458,9.372C4350.168,561.019,4350.3,561.325,4350.744,561.375Z" transform="translate(-527.483 -0.302)" fill="#777373"/>
    <path id="Path_872" data-name="Path 872" d="M3971.717,557.559c0-1.938.012-3.876-.009-5.814,0-.464.04-.694.617-.685,2.507.036,5.015.022,7.523.009.422,0,.678.034.673.573,0,.507-.2.6-.65.6-2.085-.018-4.17.007-6.255-.018-.511-.006-.749.068-.719.667.055,1.121.045,2.247,0,3.369-.021.551.141.717.7.706,1.8-.035,3.606-.01,5.41-.016.374,0,.691-.067.686.523-.005.606-.354.509-.711.509-1.775,0-3.551.021-5.326-.013-.562-.011-.793.095-.765.72a32.067,32.067,0,0,1-.008,3.453c-.042.68.211.765.8.756,2.112-.034,4.226-.007,6.34-.018.426,0,.731-.028.716.589s-.315.58-.737.578c-2.509-.01-5.017-.025-7.524.01-.607.008-.816-.108-.8-.766.051-1.909.018-3.819.018-5.729Z" transform="translate(-220.546 -0.352)" fill="#777373"/>
    <path id="Path_873" data-name="Path 873" d="M4863.933,557.505c0-1.91.016-3.82-.01-5.73-.007-.509.069-.729.668-.72,2.479.038,4.959.025,7.439.008.468,0,.716.053.709.625s-.314.544-.7.542c-2.085-.006-4.171.012-6.256-.014-.493-.006-.69.082-.667.633.048,1.15.042,2.3,0,3.454-.018.53.152.664.668.655,1.775-.03,3.551-.021,5.325,0,.324,0,.793-.241.8.478.011.757-.48.534-.846.537-1.774.014-3.55.02-5.325,0-.46-.006-.639.1-.626.6.034,1.235.043,2.473-.009,3.707-.023.572.208.622.68.617,2.141-.021,4.283-.01,6.424-.009.379,0,.771-.112.749.549-.018.556-.227.621-.7.617-2.564-.021-5.128-.025-7.692,0-.515.006-.668-.117-.659-.645.032-1.965.013-3.932.013-5.9Z" transform="translate(-961.655 -0.348)" fill="#777373"/>
    <path id="Path_874" data-name="Path 874" d="M3895.51,564.059c-1.268,0-2.537-.019-3.8.009-.493.011-.691-.1-.685-.645q.075-5.9.087-11.793c0-.468.17-.547.586-.544,2.536.016,5.073.021,7.609,0,.483,0,.541.187.541.59s-.059.6-.542.59c-2.114-.027-4.228.006-6.341-.024-.541-.008-.737.116-.712.689.047,1.094.057,2.193,0,3.286-.036.672.224.783.824.769,1.747-.038,3.495-.014,5.242-.013.35,0,.707-.112.71.5,0,.584-.3.533-.681.531-1.8-.008-3.608.014-5.411-.015-.5-.008-.7.1-.682.643.032,1.206.018,2.416-.03,3.622-.02.517.123.669.651.662,2.2-.03,4.4-.013,6.595-.012.35,0,.734-.117.7.5-.025.5-.16.681-.686.666C3898.16,564.035,3896.835,564.059,3895.51,564.059Z" transform="translate(-153.544 -0.371)" fill="#777373"/>
    <path id="Path_875" data-name="Path 875" d="M3717.678,560.03a6.631,6.631,0,0,0,.011,1.178c.194,1.051-.353,1.588-1.221,2-3.342,1.576-7.662.768-9.492-2.6a6.542,6.542,0,0,1,5.561-9.674,6.654,6.654,0,0,1,4.6,1.262c.2.163.793.264.339.794-.345.4-.571.389-1.008.065-2.647-1.96-7.286-1.227-8.667,2.29a5.237,5.237,0,0,0,.808,5.546,5.5,5.5,0,0,0,5.284,1.934c.194-.025.392-.034.584-.068,1.7-.3,2.033-.687,2.033-2.38,0-.787.021-1.575-.007-2.361-.019-.522.3-.487.656-.508.39-.023.558.068.533.5C3717.65,558.68,3717.678,559.356,3717.678,560.03Z" transform="translate(0 -0.241)" fill="#777373"/>
    <path id="Path_876" data-name="Path 876" d="M4528.966,561.249a6.95,6.95,0,0,0,5.873,1.277,2.333,2.333,0,0,0,1.979-2.016,2.057,2.057,0,0,0-1.646-2.164c-1.052-.364-2.149-.592-3.22-.9a10.46,10.46,0,0,1-1.331-.495,2.821,2.821,0,0,1-1.839-2.683,3.008,3.008,0,0,1,1.608-2.862,7.137,7.137,0,0,1,6.707.158c.521.252.16.552.077.833-.122.417-.354.192-.569.084a6.652,6.652,0,0,0-4.658-.593,2.37,2.37,0,0,0-2,2.194c-.024.969.545,1.675,1.773,2.066,1.143.363,2.316.626,3.459.988,1.971.622,2.939,1.73,2.85,3.18a3.5,3.5,0,0,1-3.2,3.276,7.756,7.756,0,0,1-5.462-.822C4528.4,562.214,4528.408,562.209,4528.966,561.249Z" transform="translate(-683.127)" fill="#777373"/>
    <path id="Path_877" data-name="Path 877" d="M4614.3,552.491c-.417.812-.813.651-1.434.243a5.534,5.534,0,0,0-6.127-.124,5.127,5.127,0,0,0-2.477,5.718,4.959,4.959,0,0,0,3.839,4.138,5.369,5.369,0,0,0,5.083-.946c.491-.4.64-.093.915.165.472.443-.07.589-.259.729a6.766,6.766,0,0,1-7.08.759,6.046,6.046,0,0,1-3.786-5.783,6.32,6.32,0,0,1,3.83-6.107A6.891,6.891,0,0,1,4614.3,552.491Z" transform="translate(-744.909 -0.043)" fill="#777373"/>
    <path id="Path_878" data-name="Path 878" d="M4185.014,556.89c0,1.714.037,3.43-.019,5.142-.023.7.217.824.85.811,1.944-.039,3.891.027,5.834-.036.7-.023.586.388.656.773.105.585-.346.4-.6.4-2.424.014-4.848,0-7.272.019-.478,0-.62-.124-.611-.607.031-1.545.022-3.091.009-4.637q-.028-3.5-.09-6.991c-.01-.487.03-.759.657-.767.667-.008.55.374.551.752q0,2.571,0,5.141Z" transform="translate(-396.714 -0.299)" fill="#777373"/>
    <path id="Path_879" data-name="Path 879" d="M4444.853,551.337c-2.317-.631-4.706-.249-7.061-.344-.48-.019-.372.311-.373.569,0,1.967,0,3.935,0,5.9s.007,3.935-.005,5.9c0,.381.012.628.521.6,1.994-.093,3.992.09,5.991-.151a6.182,6.182,0,0,0,5.627-6.2A5.992,5.992,0,0,0,4444.853,551.337Zm3.5,6.692a5.179,5.179,0,0,1-5.008,4.767c-1.378.036-2.758-.016-4.138.019-.507.013-.593-.182-.587-.63.023-1.571.009-3.142.009-4.714s-.005-3.142.005-4.714c0-.241-.15-.621.332-.6,1.849.074,3.723-.239,5.547.2A5.168,5.168,0,0,1,4448.348,558.029Z" transform="translate(-607.392 -0.272)" fill="#777373"/>
    <path id="Path_880" data-name="Path 880" d="M3812.028,559.549l.286-.133a4.086,4.086,0,0,0,2.654-4.566,3.962,3.962,0,0,0-3.31-3.549c-2.1-.53-4.254-.208-6.383-.283-.434-.015-.306.323-.306.542-.006,3.958,0,7.916-.014,11.873,0,.443.128.578.569.56.4-.017.689.008.662-.555-.048-1.008.009-2.021-.023-3.03-.015-.472.125-.637.614-.626q1.815.04,3.631-.016a.861.861,0,0,1,.812.458c.686.993,1.441,1.941,2.079,2.963a1.372,1.372,0,0,0,1.812.7Zm-5.518-.789c-.4.015-.333-.292-.334-.533,0-.925,0-1.851,0-2.776s0-1.851,0-2.776c0-.262-.029-.516.368-.494,1.621.093,3.259-.209,4.866.175a2.856,2.856,0,0,1,2.361,2.943,2.93,2.93,0,0,1-2.306,3.255A23.464,23.464,0,0,1,3806.51,558.76Z" transform="translate(-82.052 -0.293)" fill="#777373"/>
    <path id="Path_881" data-name="Path 881" d="M4785.115,551.227c-1.8-.238-3.6-.061-5.4-.152-.524-.027-.667.121-.658.645.032,1.937.013,3.876.013,5.814,0,1.966.011,3.932-.009,5.9,0,.441.066.635.582.64.533.006.67-.15.648-.662-.041-.953.022-1.911-.025-2.864-.027-.573.176-.708.718-.7,1.294.029,2.593.041,3.887-.021a4.307,4.307,0,0,0,.24-8.6Zm.352,7.417a27.012,27.012,0,0,1-4.786.191c-.452.015-.4-.283-.4-.562V555.5q0-1.388,0-2.775c0-.219-.05-.483.3-.467,1.649.079,3.316-.212,4.948.174,1.61.381,2.365,1.48,2.341,3.294A2.943,2.943,0,0,1,4785.467,558.644Z" transform="translate(-891.18 -0.363)" fill="#777373"/>
    <path id="Path_882" data-name="Path 882" d="M4694.547,563.726c-1.858-4.054-3.724-8.1-5.565-12.166a.776.776,0,0,0-.839-.5.738.738,0,0,0-.815.515c-1.063,2.382-2.16,4.749-3.247,7.12q-1.208,2.632-2.416,5.255a1.1,1.1,0,0,0,1.624-.82c.229-.689.615-1.324.863-2.007a.871.871,0,0,1,1.012-.626c1.3.039,2.594.006,3.891.015.928.007,2.065-.284,2.724.145s.892,1.568,1.206,2.434c.285.784.711,1.152,1.621.885A1.29,1.29,0,0,0,4694.547,563.726Zm-3.705-4.208c-1.937-.016-3.874-.006-5.932-.006.38-.849.718-1.608,1.058-2.367q.925-2.072,1.855-4.142c.075-.166.084-.421.343-.416.214,0,.223.233.287.373q1.353,2.986,2.69,5.979C4691.281,559.247,4691.394,559.522,4690.842,559.518Z" transform="translate(-810.28 -0.355)" fill="#777373"/>
    <path id="Path_883" data-name="Path 883" d="M4251.351,551.641c-.186-.407-.35-.666-.9-.669-.568,0-.714.3-.892.692q-2.623,5.733-5.249,11.464a1.711,1.711,0,0,0-.292.778c.9.282,1.326-.131,1.6-.9.243-.684.61-1.324.868-2a.773.773,0,0,1,.864-.581c2.055.03,4.112.034,6.168,0a.836.836,0,0,1,.922.631c.254.652.622,1.264.838,1.927.269.823.71,1.233,1.682.911C4255.078,559.79,4253.208,555.718,4251.351,551.641Zm1.849,7.8c-.141-.007-.282,0-.423,0h-5.457a54.462,54.462,0,0,1,3.173-6.979,11.241,11.241,0,0,1,.943,1.958c.677,1.478,1.333,2.965,2,4.448C4253.556,559.133,4253.823,559.466,4253.2,559.437Z" transform="translate(-446.754 -0.279)" fill="#777373"/>
  </g>
</svg>
