<svg id="Phone_Icon" data-name="Phone Icon" xmlns="http://www.w3.org/2000/svg" width="18.454" height="18.454" viewBox="0 0 18.454 18.454">
  <path id="Phone" d="M17.429,12.815a11.659,11.659,0,0,1-3.661-.585,1.032,1.032,0,0,0-1.041.253l-2.254,2.261A15.484,15.484,0,0,1,3.716,7.992L5.971,5.731a1.032,1.032,0,0,0,.253-1.042,11.681,11.681,0,0,1-.585-3.664A1.022,1.022,0,0,0,4.613,0H1.025A1.022,1.022,0,0,0,0,1.025,17.427,17.427,0,0,0,17.429,18.454a1.022,1.022,0,0,0,1.025-1.025V13.84a1.022,1.022,0,0,0-1.025-1.025" fill="#a3a3a3"/>
</svg>
