<svg xmlns="http://www.w3.org/2000/svg" width="214" height="63.257" viewBox="0 0 214 63.257">
  <g id="Lusha" transform="translate(0 0)">
    <path id="Path_1366" data-name="Path 1366" d="M123.685,101.815h-8.122v41.444h24.008v-7.764H123.8v-33.68Z" transform="translate(-47.274 -90.273)" fill="#555"/>
    <path id="Path_1367" data-name="Path 1367" d="M145.993,122.552c0,5.134-2.747,7.283-6.447,7.283-3.464,0-5.853-2.031-5.853-6.089v-17.08h-7.644v18.155c0,7.881,4.9,12.181,11.227,12.181,3.942,0,7.045-1.433,8.836-4.18v3.344h7.644v-29.5h-7.644v15.886Z" transform="translate(-32.2 -83.299)" fill="#555"/>
    <path id="Path_1368" data-name="Path 1368" d="M147.55,115.53c0-1.553,1.553-2.389,3.464-2.389a4.934,4.934,0,0,1,4.778,2.986l6.45-3.583a12.079,12.079,0,0,0-11.227-6.211c-6.092,0-11.228,3.344-11.228,9.436,0,10.391,15.288,8,15.288,12.419,0,1.672-1.672,2.508-4.061,2.508a5.719,5.719,0,0,1-5.853-3.82l-6.569,3.7c2.15,4.539,6.45,7.047,12.422,7.047,6.33,0,11.944-3.105,11.944-9.436C162.839,117.2,147.55,119.949,147.55,115.53Z" transform="translate(-14.168 -83.802)" fill="#555"/>
    <path id="Path_1369" data-name="Path 1369" d="M166.244,112.8c-3.942,0-7.047,1.433-8.839,4.18V101.815h-7.642v41.444h7.642v-16c0-5.136,2.747-7.286,6.45-7.286,3.464,0,5.853,2.031,5.853,6.092v17.2h7.644V124.987C177.352,117.1,172.455,112.8,166.244,112.8Z" transform="translate(1.893 -90.273)" fill="#555"/>
    <path id="Path_1370" data-name="Path 1370" d="M186.361,107.172v3.464a11.706,11.706,0,0,0-9.672-4.3c-7.883,0-14.333,6.808-14.333,15.647s6.45,15.644,14.333,15.644a12.057,12.057,0,0,0,9.672-4.3v3.464h7.644V107.172Zm-8.239,23.169a8.361,8.361,0,1,1,8.239-8.478v.119a7.908,7.908,0,0,1-7.522,8.358.761.761,0,0,0-.717,0Z" transform="translate(19.995 -83.806)" fill="#555"/>
    <path id="Path_1371" data-name="Path 1371" d="M132.907,112.683a10.79,10.79,0,0,1-.478,3.344c12.422,7.286,5.972,30.933,4.18,36.9,0,.119-.358.119-.358-.119a15.093,15.093,0,0,0-1.672-7.525c0,.358.119.717.119,1.075a9.333,9.333,0,0,1-9.675,8.958,9.185,9.185,0,0,1-8.958-8.958,10.179,10.179,0,0,1,.358-2.747h-.239a4.419,4.419,0,0,0-2.867,0h-.239a10.181,10.181,0,0,1,.358,2.747,9.356,9.356,0,0,1-18.63,1.194,45.25,45.25,0,0,0-.836,12.661c0,.119,0,.119-.119.119s-.119,0-.119-.119c-4.18-7.167-8-22.094-5.255-33.083a23.256,23.256,0,0,1,13.736-16.244,15.291,15.291,0,0,1,16.719-13.736c8,1.075,14.094,7.764,13.975,15.527ZM100.182,138a9.309,9.309,0,0,1,11.942,3.461l.717-.119a5.587,5.587,0,0,1,2.03-.239,10.518,10.518,0,0,1,2.031.239l.717.239a9.222,9.222,0,0,1,7.883-4.417h1.075c-3.225-3.822-4.419-9.078-4.9-12.422C110.929,129.4,104.241,133.7,100.182,138Zm31.649,8.358a6.45,6.45,0,1,1-6.45-6.447,6.5,6.5,0,0,1,6.45,6.447Zm-21.141,0a6.449,6.449,0,1,1-6.45-6.447,6.578,6.578,0,0,1,6.45,6.447Z" transform="translate(-87.548 -97.08)" fill="#555"/>
  </g>
</svg>
