<svg xmlns="http://www.w3.org/2000/svg" xmlns:xlink="http://www.w3.org/1999/xlink" width="193.333" height="27.318" viewBox="0 0 193.333 27.318">
  <defs>
    <clipPath id="clip-path">
      <rect id="Rectangle_288" data-name="Rectangle 288" width="193.333" height="27.318" transform="translate(0 0)" fill="none"/>
    </clipPath>
  </defs>
  <g id="NOVELLO" clip-path="url(#clip-path)">
    <path id="Path_759" data-name="Path 759" d="M28.891,2.97c-.094-.742-.761-.735-1.287-.742C25.368,2.2,23.132,2.2,20.9,2.222c-.534,0-1.221-.051-1.39.622-.241.956.58,1.077,1.205,1.2a2.75,2.75,0,0,1,2.506,3.023c-.017,3.34-.005,6.681-.005,10.021l-.668.235c-1.929-2.4-4.129-4.654-5.982-7.1l-6.039-7.1a8.849,8.849,0,0,0-1.534-.566H.6a.884.884,0,0,0-.127.317c-.154.746.437.938.989,1.033C3.4,4.236,3.513,5.678,3.516,7.2c.012,5.258.05,10.516.03,15.774-.006,1.718-.1,3.467-2.448,3.69C.5,26.722-.094,27.1.013,27.7c.144.814.955.792,1.631.793,2.124,0,4.247.008,6.371-.011.746-.006,1.763.2,1.842-.872.058-.78-.787-1.016-1.469-1.06a2.436,2.436,0,0,1-2.543-2.569c-.07-5.183-.026-10.366-.026-16.2C6.763,8.868,7.275,9.415,7.739,10q3.86,4.86,7.714,9.726l7.59,9.3h1.942a1.148,1.148,0,0,0,.342-.474V26.418c-.005-.088-.009-.175-.008-.258,0-.322,0-.645.008-.967V13.42h.046q0-2.692-.006-5.384c0-1.865.014-3.657,2.477-4.013.525-.076,1.138-.326,1.046-1.053" transform="translate(0 -1.715)" fill="#5a5a5a"/>
    <path id="Path_760" data-name="Path 760" d="M156.666,0c-8.254.006-14.592,6.089-14.51,13.925.08,7.623,6.511,13.314,15.122,13.383,8.171.065,14.815-6.157,14.733-13.8C171.927,5.716,165.428-.006,156.666,0m6.705,21.385c-2.326,5.166-7.538,5.815-10.806,1.2-3.811-5.381-4.113-11.3-1.469-17.212,2.145-4.8,7.276-5.16,10.5-.989a17.005,17.005,0,0,1,3.035,10.454,15.7,15.7,0,0,1-1.258,6.545" transform="translate(-110.544 0)" fill="#5a5a5a"/>
    <path id="Path_761" data-name="Path 761" d="M299.929,2.237c-2.014-.016-4.027-.032-6.04-.012-.635.006-1.475-.117-1.553.817-.057.68.595.869,1.144.964,2.087.358,2.111,1.637,1.462,3.217-1.605,3.911-3.219,7.82-5.194,12.615-1.98-4.709-3.617-8.606-5.257-12.5-.628-1.491-1.435-3.029,1.17-3.432a.865.865,0,0,0,.813-.893.843.843,0,0,0-.922-.77c-3.8-.051-7.6-.1-11.4-.086a1.366,1.366,0,0,0-1.023.664c-.189.425.148.86.641.974,2.244.521,2.675,2.5,3.414,4.221,2.64,6.169,5.261,12.346,7.925,18.5.423.978.619,2.355,2.047,2.345,1.449-.01,1.553-1.408,1.969-2.393q3.982-9.424,7.931-18.862c.653-1.552,1.252-3.152,3.172-3.617.529-.128,1.147-.346,1.023-1.071s-.773-.678-1.32-.682" transform="translate(-212.351 -1.674)" fill="#5a5a5a"/>
    <path id="Path_762" data-name="Path 762" d="M426.859,21.177c-.569.683-.978,1.5-1.547,2.184a6.606,6.606,0,0,1-7.277,2.2c-2.723-.77-2.187-3.285-2.287-5.357-.043-.894-.037-1.793,0-2.687.047-1.074-.328-2.474,1.109-2.845,1.505-.389,3.151-.581,4.406.745a11.069,11.069,0,0,1,1.094,1.675c.355.55.649,1.285,1.49,1.009s.654-1.069.664-1.71c.025-1.566.033-3.132.009-4.7-.013-.846.471-2-.516-2.417-1.206-.507-1.291.857-1.77,1.516-1.321,1.813-5.088,2.5-6.143,1.12-.687-.9-.43-7.5.317-8.129,1.43-1.2,5.815-.53,7.449,1.166.541.561.961,1.237,1.482,1.82.4.451,1.141.733,1.437.21.815-1.441.213-3.061.246-4.6.022-1.02-.794-1.247-1.65-1.205l-18.466.215c-.524-.019-1.2-.074-1.321.674s.522.894,1.036,1.035c1.692.463,2.224,1.606,2.208,3.275-.052,5.486-.034,10.973-.024,16.459,0,1.479-.37,2.656-2.013,3.032-.647.148-1.547.3-1.385,1.131.2,1.023,1.215.73,1.968.731l18.136-.087c.985-.006,2.2.164,2.336-1.262.167-1.752,1.105-3.481.4-5.248-.251-.628-1-.409-1.388.051" transform="translate(-315.242 -0.905)" fill="#5a5a5a"/>
    <path id="Path_763" data-name="Path 763" d="M542.173,22c-1.587-.893-1.821,1.414-2.783,2.162a19.529,19.529,0,0,1-1.5,1.322,5.7,5.7,0,0,1-5.433.683c-1.91-.828-1.674-2.717-1.69-4.376-.032-3.128-.15-6.263,0-9.385.151-3.141-1.218-8.515,2.577-8.958.744-.087.422-1.352-.327-1.359H533q-5.7-.034-11.393.01a1.422,1.422,0,0,0-1.1.483c-.31.666.239,1.036.809,1.143,2.564.478,2.544,2.358,2.517,4.356l-.025,12.068c-.026,2.808.9,6.093-2.738,6.925a.68.68,0,0,0-.243,1.219.784.784,0,0,0,.465.113l18.762.049c1.976.088,2.04-1.347,2.13-2.7.086-1.287,1.2-3.067-.012-3.747" transform="translate(-404.693 -1.614)" fill="#5a5a5a"/>
    <path id="Path_764" data-name="Path 764" d="M650.723,21.872c-1.317-.745-1.692,1.656-2.722,2.4-.54.392-.987.922-1.551,1.268a5.322,5.322,0,0,1-5.428.469c-1.67-.867-1.43-2.634-1.434-4.192-.012-4.7.03-9.4-.018-14.1-.019-1.919.093-3.632,2.489-4.031.578-.1,1.1-.448.836-1.144-.244-.63-.895-.528-1.443-.526l-11.4.038h-.016a.66.66,0,0,0-.167,1.288c2.791.928,2.914,3.379,2.792,6.137l-.017,11.41c.062,2.607.225,5.177-2.714,6.086a.69.69,0,0,0-.131,1.271,2.132,2.132,0,0,0,1.117.128l17.11.016c1.44.064,2.874,0,2.829-1.909-.037-1.586,1.6-3.636-.131-4.614" transform="translate(-489.449 -1.567)" fill="#5a5a5a"/>
    <path id="Path_765" data-name="Path 765" d="M749.472.008c-8.1.022-14.388,5.955-14.457,13.648-.069,7.779,6.412,13.615,15.178,13.668,7.958.048,14.668-6.123,14.709-13.526.044-7.929-6.541-13.814-15.43-13.79m5.876,22.955c-2.342,3.284-6.047,3.621-8.947.828-4.445-4.28-5.442-14.278-1.937-19.426,2.519-3.7,7-3.769,9.875-.153,1.978,2.484,3.175,6.428,3.164,10.7-.115,2.654-.374,5.551-2.153,8.047" transform="translate(-571.57 -0.006)" fill="#5a5a5a"/>
  </g>
</svg>
