<svg xmlns="http://www.w3.org/2000/svg" xmlns:xlink="http://www.w3.org/1999/xlink" width="156.542" height="49.493" viewBox="0 0 156.542 49.493">
  <defs>
    <linearGradient id="linear-gradient" x1="0.5" y1="-0.869" x2="0.5" y2="0.741" gradientUnits="objectBoundingBox">
      <stop offset="0" stop-color="#fff"/>
      <stop offset="1" stop-color="#474747"/>
    </linearGradient>
    <linearGradient id="linear-gradient-2" x1="0.5" y1="-0.802" x2="0.5" y2="0.73" xlink:href="#linear-gradient"/>
    <linearGradient id="linear-gradient-3" x1="0.5" y1="-1.138" x2="0.5" y2="0.781" xlink:href="#linear-gradient"/>
    <linearGradient id="linear-gradient-4" x1="0.5" y1="-0.793" x2="0.5" y2="0.722" xlink:href="#linear-gradient"/>
    <linearGradient id="linear-gradient-5" x1="0.5" y1="-15.875" x2="0.5" y2="13.378" xlink:href="#linear-gradient"/>
    <linearGradient id="linear-gradient-6" x1="0.5" y1="-14.829" x2="0.5" y2="7.164" xlink:href="#linear-gradient"/>
    <linearGradient id="linear-gradient-7" x1="0.5" y1="-30.233" x2="0.5" y2="-3.356" xlink:href="#linear-gradient"/>
    <linearGradient id="linear-gradient-8" x1="0.5" y1="-16.114" x2="0.5" y2="12.061" xlink:href="#linear-gradient"/>
    <linearGradient id="linear-gradient-9" x1="0.5" y1="-17.503" x2="0.5" y2="11.078" xlink:href="#linear-gradient"/>
    <linearGradient id="linear-gradient-10" x1="0.5" y1="-17.877" x2="0.5" y2="9.222" xlink:href="#linear-gradient"/>
    <linearGradient id="linear-gradient-11" x1="0.5" y1="-19.669" x2="0.5" y2="7.544" xlink:href="#linear-gradient"/>
    <linearGradient id="linear-gradient-12" x1="0.5" y1="-21.704" x2="0.5" y2="6.082" xlink:href="#linear-gradient"/>
    <linearGradient id="linear-gradient-13" x1="0.5" y1="-24.595" x2="0.5" y2="3.28" xlink:href="#linear-gradient"/>
    <linearGradient id="linear-gradient-14" x1="0.5" y1="-30.113" x2="0.5" y2="1.755" xlink:href="#linear-gradient"/>
    <linearGradient id="linear-gradient-15" x1="0.5" y1="-27.064" x2="0.5" y2="-0.057" xlink:href="#linear-gradient"/>
    <linearGradient id="linear-gradient-16" x1="0.5" y1="-30.933" x2="0.5" y2="-1.599" xlink:href="#linear-gradient"/>
    <linearGradient id="linear-gradient-17" x1="0.5" y1="-28.411" x2="0.5" y2="-2.375" xlink:href="#linear-gradient"/>
    <linearGradient id="linear-gradient-28" x1="0.5" y1="-0.87" x2="0.5" y2="0.741" xlink:href="#linear-gradient"/>
  </defs>
  <g id="ICOD" transform="translate(-4046.484 -54.059)">
    <path id="I" d="M4048.906,59.843c-2.25,0-2.371.09-2.375,2.206l-.047,42.287c0,1.963.135,2.062,2.327,2.07,2.371.008,2.511-.084,2.51-2.06q-.013-21.144-.049-42.288C4051.268,59.936,4051.146,59.843,4048.906,59.843Z" transform="translate(0 -4.56)" fill="url(#linear-gradient)"/>
    <path id="C" d="M4128.233,59.606A20.149,20.149,0,0,1,4148.6,64.5c2.507,2.341,2.425,2.376,5,.24.808-.67.864-1.243.168-1.947a32.417,32.417,0,0,0-3.587-3.532c-5.746-4.215-12.194-5.578-19.305-5.008-12.1.971-22.673,11.234-22.1,23.909-.6,11.1,7.215,21.29,16.773,23.813a32.36,32.36,0,0,0,11.71.97,24.131,24.131,0,0,0,16.484-8.257c.265-.305.578-1.023.471-1.121a15.569,15.569,0,0,0-3.133-2.467c-.342-.181-1.358.545-1.851,1.059-5.29,5.51-11.927,6.92-19.105,5.746-11.567-1.891-18.446-12.7-15.618-24.279C4116.293,66.325,4121.141,61.645,4128.233,59.606Z" transform="translate(-49.084 -0.053)" fill="url(#linear-gradient-2)"/>
    <path id="stars" d="M4402.454,93.755a40.79,40.79,0,0,0-2.066-4.929,14.935,14.935,0,0,0-2.372-3.517L4398,85.3a18.847,18.847,0,0,0-13.9-6.519c-3.48-.159-6.648.871-9.813,2.055l.007-.006-.006,0v.009c-.44.336-.864.7-1.324,1-8.416,5.6-11.694,16.366-6.627,25.62a22.678,22.678,0,0,0,7.955,8.09c.42.158.845.3,1.258.477,3.363,1.427,6.828,2.289,10.494,1.561,2.123-.422,4.209-1.034,6.6-1.631l.1-.422,3.557-2.348-.007.008h.007v-.007l3.041-3.365,2.372-4.044h.006l0-.005h0l-.007.008c.133-.542.221-1.1.4-1.625A16.066,16.066,0,0,0,4402.454,93.755ZM4368.691,86.9c4.63-6.706,14.627-9.382,22.058-5.964a18.111,18.111,0,0,1,7.451,5.635,1.937,1.937,0,0,1,.115,2.43,19.5,19.5,0,0,1-7.965,7.8,10.865,10.865,0,0,1-4.058.831c-1.292.11-2.386-.094-1.811-2,.2-.675-.463-1.609-.732-2.425l-.807.017a11.776,11.776,0,0,0-.408,2.92c.105,1.026-.333,1.514-1.128,1.43-1.751-.185-3.665-.218-5.179-.976a18.508,18.508,0,0,1-7.695-7.818A2.16,2.16,0,0,1,4368.691,86.9Zm28.6,24.062a18.976,18.976,0,0,1-25.607,1.782c-8.011-6.637-8.42-17.71-4.253-23.768l1.841,4.644-1.251-.787-.367.256,2.2,3.617h-1.446c1.817,5.22,5.791,6.756,11,6.87l-1.717,2.2.174.341,3.583-1.1-2.035,2.387.177.373,2.842-1.111-1.494,2.433,2.477,2.954,2.561-2.971L4384.3,106.6l2.935,1.224.251-.328-2.017-2.465,3.541,1.089.173-.331-1.683-2.177c5.11-.159,9.108-1.634,10.935-6.786l-1.4-.143,2.17-3.558-.227-.235-1.309.623,1.782-4.666C4403.372,94.148,4403.494,104.138,4397.292,110.966Z" transform="translate(-250.255 -19.472)" fill="url(#linear-gradient-3)"/>
    <path id="Path_797" data-name="Path 797" d="M4363.267,54.06c-13.965.121-24.813,10.23-24.886,24.678a24.991,24.991,0,1,0,24.886-24.678Zm24.139,24.833c-.25,13.969-10.957,24.238-25.178,23.857a23.939,23.939,0,0,1-22.961-25.081c.4-11.674,10.724-24.1,25.877-23.094C4377.578,55.4,4387.654,66.522,4387.405,78.894Z" transform="translate(-230.11 0)" fill="url(#linear-gradient-4)"/>
    <g id="Stars-2" data-name="Stars" transform="translate(4110.584 55.506)">
      <path id="Path_798" data-name="Path 798" d="M4449.955,63.047l-.774.407a.037.037,0,0,1-.054-.039l.147-.863a.036.036,0,0,0-.01-.033l-.627-.611a.037.037,0,0,1,.021-.063l.865-.126a.038.038,0,0,0,.028-.02l.388-.785a.037.037,0,0,1,.066,0l.387.785a.039.039,0,0,0,.028.02l.866.126a.037.037,0,0,1,.021.063l-.626.611a.039.039,0,0,0-.011.033l.148.863a.037.037,0,0,1-.054.039l-.774-.407A.037.037,0,0,0,4449.955,63.047Z" transform="translate(-4427.605 -60.895)" fill="url(#linear-gradient-5)"/>
      <path id="Path_799" data-name="Path 799" d="M4448.293,110.384l-1.03.542a.049.049,0,0,1-.071-.052l.2-1.147a.048.048,0,0,0-.014-.044l-.833-.813a.049.049,0,0,1,.027-.084l1.152-.167a.048.048,0,0,0,.037-.027l.515-1.044a.049.049,0,0,1,.088,0l.515,1.044a.05.05,0,0,0,.038.027l1.151.167a.049.049,0,0,1,.027.084l-.833.813a.049.049,0,0,0-.015.044l.2,1.147a.049.049,0,0,1-.071.052l-1.03-.542A.05.05,0,0,0,4448.293,110.384Z" transform="translate(-4425.95 -97.652)" fill="url(#linear-gradient-6)"/>
      <path id="Path_800" data-name="Path 800" d="M4449.51,269.548l-.843.443a.04.04,0,0,1-.059-.043l.161-.939a.039.039,0,0,0-.012-.036l-.682-.665a.04.04,0,0,1,.022-.069l.943-.137a.04.04,0,0,0,.03-.022l.421-.854a.041.041,0,0,1,.073,0l.421.854a.039.039,0,0,0,.03.022l.943.137a.04.04,0,0,1,.022.069l-.682.665a.04.04,0,0,0-.011.036l.161.939a.04.04,0,0,1-.059.043l-.843-.443A.041.041,0,0,0,4449.51,269.548Z" transform="translate(-4427.161 -223.535)" fill="url(#linear-gradient-7)"/>
      <path id="Path_801" data-name="Path 801" d="M4498.313,73.489l-.8.423a.038.038,0,0,1-.056-.041l.154-.9a.039.039,0,0,0-.011-.034l-.651-.634a.039.039,0,0,1,.021-.066l.9-.131a.039.039,0,0,0,.029-.021l.4-.815a.039.039,0,0,1,.069,0l.4.815a.039.039,0,0,0,.029.021l.9.131a.039.039,0,0,1,.021.066l-.651.634a.036.036,0,0,0-.011.034l.153.9a.038.038,0,0,1-.056.041l-.8-.423A.038.038,0,0,0,4498.313,73.489Z" transform="translate(-4465.687 -69.061)" fill="url(#linear-gradient-8)"/>
      <path id="Path_802" data-name="Path 802" d="M4518.29,87.8l-.793.417a.038.038,0,0,1-.055-.04l.151-.883a.036.036,0,0,0-.011-.034l-.642-.625a.038.038,0,0,1,.021-.065l.886-.129a.039.039,0,0,0,.029-.021l.4-.8a.037.037,0,0,1,.067,0l.4.8a.038.038,0,0,0,.028.021l.886.129a.038.038,0,0,1,.021.065l-.642.625a.037.037,0,0,0-.011.034l.151.883a.038.038,0,0,1-.055.04l-.792-.417A.039.039,0,0,0,4518.29,87.8Z" transform="translate(-4481.45 -80.37)" fill="url(#linear-gradient-9)"/>
      <path id="Path_803" data-name="Path 803" d="M4534.711,104.187l-.048.9a.039.039,0,0,1-.063.027l-.687-.587a.037.037,0,0,0-.035-.008l-.873.233a.038.038,0,0,1-.045-.052l.346-.834a.038.038,0,0,0,0-.035l-.491-.758a.038.038,0,0,1,.035-.059l.9.072a.039.039,0,0,0,.033-.014l.569-.7a.038.038,0,0,1,.066.015l.21.879a.038.038,0,0,0,.024.027l.842.325a.038.038,0,0,1,.006.068l-.771.471A.039.039,0,0,0,4534.711,104.187Z" transform="translate(-4493.966 -93.581)" fill="url(#linear-gradient-10)"/>
      <path id="Path_804" data-name="Path 804" d="M4545.711,126.594l-.375.85a.039.039,0,0,1-.07,0l-.447-.815a.038.038,0,0,0-.03-.02l-.924-.094a.039.039,0,0,1-.025-.066l.637-.676a.039.039,0,0,0,.01-.035l-.2-.908a.04.04,0,0,1,.056-.044l.84.4a.04.04,0,0,0,.037,0l.8-.467a.039.039,0,0,1,.059.039l-.117.922a.04.04,0,0,0,.013.034l.692.619a.039.039,0,0,1-.019.068l-.913.173A.039.039,0,0,0,4545.711,126.594Z" transform="translate(-4502.656 -111.203)" fill="url(#linear-gradient-11)"/>
      <path id="Path_805" data-name="Path 805" d="M4551.5,147.347l-.517.721a.038.038,0,0,1-.067-.011l-.258-.849a.037.037,0,0,0-.024-.025l-.846-.269a.037.037,0,0,1-.01-.066l.728-.508a.037.037,0,0,0,.016-.031l-.006-.887a.038.038,0,0,1,.061-.03l.707.535a.038.038,0,0,0,.035.006l.842-.279a.037.037,0,0,1,.047.048l-.291.838a.037.037,0,0,0,.005.035l.526.715a.037.037,0,0,1-.031.06l-.887-.017A.038.038,0,0,0,4551.5,147.347Z" transform="translate(-4507.331 -127.5)" fill="url(#linear-gradient-12)"/>
      <path id="Path_806" data-name="Path 806" d="M4552.935,183.375l-.671.567a.037.037,0,0,1-.061-.027l-.042-.878a.038.038,0,0,0-.018-.03l-.747-.463a.037.037,0,0,1,.006-.066l.821-.312a.037.037,0,0,0,.023-.026l.209-.853a.037.037,0,0,1,.065-.014l.55.685a.037.037,0,0,0,.031.014l.876-.065a.037.037,0,0,1,.034.058l-.481.735a.037.037,0,0,0,0,.034l.333.813a.037.037,0,0,1-.044.05l-.848-.231A.038.038,0,0,0,4552.935,183.375Z" transform="translate(-4508.608 -155.783)" fill="url(#linear-gradient-13)"/>
      <path id="Path_807" data-name="Path 807" d="M4546.06,205.358l-.726.294a.033.033,0,0,1-.044-.039l.208-.755a.033.033,0,0,0-.007-.03l-.5-.6a.033.033,0,0,1,.024-.054l.782-.036a.035.035,0,0,0,.027-.015l.413-.664a.033.033,0,0,1,.06.006l.275.733a.033.033,0,0,0,.023.02l.76.188a.033.033,0,0,1,.013.058l-.612.489a.032.032,0,0,0-.012.028l.056.781a.033.033,0,0,1-.052.03l-.653-.431A.034.034,0,0,0,4546.06,205.358Z" transform="translate(-4503.563 -173.27)" fill="url(#linear-gradient-14)"/>
      <path id="Path_808" data-name="Path 808" d="M4534.471,225.794l-.894.13a.038.038,0,0,1-.039-.056l.44-.788a.04.04,0,0,0,0-.036l-.4-.81a.038.038,0,0,1,.042-.054l.886.175a.039.039,0,0,0,.035-.01l.646-.63a.038.038,0,0,1,.064.023l.107.9a.039.039,0,0,0,.021.029l.8.42a.038.038,0,0,1,0,.069l-.82.379a.04.04,0,0,0-.022.028l-.152.89a.038.038,0,0,1-.065.019l-.614-.663A.038.038,0,0,0,4534.471,225.794Z" transform="translate(-4494.54 -189.242)" fill="url(#linear-gradient-15)"/>
      <path id="Path_809" data-name="Path 809" d="M4518.343,244.047l-.856-.081a.037.037,0,0,1-.023-.061l.585-.631a.036.036,0,0,0,.008-.033l-.187-.839a.036.036,0,0,1,.051-.041l.781.362a.036.036,0,0,0,.034,0l.74-.438a.036.036,0,0,1,.055.036l-.1.854a.036.036,0,0,0,.012.032l.646.569a.036.036,0,0,1-.017.063l-.844.166a.036.036,0,0,0-.026.021l-.342.789a.037.037,0,0,1-.065,0l-.418-.751A.037.037,0,0,0,4518.343,244.047Z" transform="translate(-4481.864 -203.884)" fill="url(#linear-gradient-16)"/>
      <path id="Path_810" data-name="Path 810" d="M4498.482,257.19l-.877-.339a.04.04,0,0,1-.006-.071l.8-.49a.041.041,0,0,0,.019-.032l.052-.939a.04.04,0,0,1,.065-.028l.714.612a.04.04,0,0,0,.036.008l.908-.241a.04.04,0,0,1,.048.054l-.362.868a.041.041,0,0,0,0,.037l.51.79a.04.04,0,0,1-.036.061l-.937-.075a.04.04,0,0,0-.034.014l-.594.729a.04.04,0,0,1-.069-.016l-.218-.915A.038.038,0,0,0,4498.482,257.19Z" transform="translate(-4466.197 -214.136)" fill="url(#linear-gradient-17)"/>
      <path id="Path_811" data-name="Path 811" d="M4404.447,73.489l.8.423a.038.038,0,0,0,.056-.041l-.154-.9a.039.039,0,0,1,.012-.034l.65-.634a.038.038,0,0,0-.021-.066l-.9-.131a.039.039,0,0,1-.029-.021l-.4-.815a.038.038,0,0,0-.068,0l-.4.815a.039.039,0,0,1-.029.021l-.9.131a.038.038,0,0,0-.021.066l.65.634a.038.038,0,0,1,.011.034l-.153.9a.039.039,0,0,0,.056.041l.8-.423A.039.039,0,0,1,4404.447,73.489Z" transform="translate(-4391.662 -69.061)" fill="url(#linear-gradient-8)"/>
      <path id="Path_812" data-name="Path 812" d="M4384.618,87.8l.793.417a.038.038,0,0,0,.055-.04l-.152-.883a.039.039,0,0,1,.011-.034l.641-.625a.038.038,0,0,0-.021-.065l-.887-.129a.038.038,0,0,1-.028-.021l-.4-.8a.038.038,0,0,0-.068,0l-.4.8a.039.039,0,0,1-.029.021l-.886.129a.038.038,0,0,0-.021.065l.641.625a.038.038,0,0,1,.011.034l-.152.883a.038.038,0,0,0,.055.04l.793-.417A.038.038,0,0,1,4384.618,87.8Z" transform="translate(-4376.045 -80.37)" fill="url(#linear-gradient-9)"/>
      <path id="Path_813" data-name="Path 813" d="M4368.36,104.187l.049.9a.038.038,0,0,0,.063.027l.687-.587a.038.038,0,0,1,.035-.008l.872.233a.039.039,0,0,0,.046-.052l-.347-.834a.039.039,0,0,1,0-.035l.491-.758a.038.038,0,0,0-.035-.059l-.9.072a.039.039,0,0,1-.033-.014l-.569-.7a.038.038,0,0,0-.067.015l-.21.879a.038.038,0,0,1-.023.027l-.843.325a.038.038,0,0,0-.007.068l.771.471A.039.039,0,0,1,4368.36,104.187Z" transform="translate(-4363.693 -93.581)" fill="url(#linear-gradient-10)"/>
      <path id="Path_814" data-name="Path 814" d="M4356.826,126.594l.375.85a.039.039,0,0,0,.07,0l.447-.815a.038.038,0,0,1,.03-.02l.924-.094a.039.039,0,0,0,.024-.066l-.637-.676a.039.039,0,0,1-.01-.035l.2-.908a.039.039,0,0,0-.055-.044l-.84.4a.04.04,0,0,1-.037,0l-.8-.467a.039.039,0,0,0-.059.039l.117.922a.04.04,0,0,1-.013.034l-.692.619a.039.039,0,0,0,.019.068l.913.173A.039.039,0,0,1,4356.826,126.594Z" transform="translate(-4354.469 -111.203)" fill="url(#linear-gradient-11)"/>
      <path id="Path_815" data-name="Path 815" d="M4351.64,147.347l.517.721a.037.037,0,0,0,.066-.011l.258-.849a.038.038,0,0,1,.024-.025l.846-.269a.037.037,0,0,0,.01-.066l-.728-.508a.039.039,0,0,1-.016-.031l.006-.887a.038.038,0,0,0-.061-.03l-.708.535a.038.038,0,0,1-.035.006l-.842-.279a.037.037,0,0,0-.047.048l.291.838a.039.039,0,0,1-.005.035l-.526.715a.037.037,0,0,0,.03.06l.888-.017A.037.037,0,0,1,4351.64,147.347Z" transform="translate(-4350.395 -127.5)" fill="url(#linear-gradient-12)"/>
      <path id="Path_816" data-name="Path 816" d="M4350.4,183.375l.671.567a.037.037,0,0,0,.061-.027l.042-.878a.037.037,0,0,1,.018-.03l.747-.463a.037.037,0,0,0-.006-.066l-.822-.312a.037.037,0,0,1-.023-.026l-.209-.853a.038.038,0,0,0-.065-.014l-.55.685a.038.038,0,0,1-.032.014l-.876-.065a.038.038,0,0,0-.034.058l.482.735a.039.039,0,0,1,0,.034l-.332.813a.037.037,0,0,0,.044.05l.848-.231A.037.037,0,0,1,4350.4,183.375Z" transform="translate(-4349.315 -155.783)" fill="url(#linear-gradient-13)"/>
      <path id="Path_817" data-name="Path 817" d="M4358.185,205.358l.725.294a.033.033,0,0,0,.044-.039l-.208-.755a.034.034,0,0,1,.006-.03l.5-.6a.033.033,0,0,0-.023-.054l-.782-.036a.033.033,0,0,1-.026-.015l-.414-.664a.033.033,0,0,0-.059.006l-.275.733a.033.033,0,0,1-.023.02l-.76.188a.033.033,0,0,0-.012.058l.611.489a.033.033,0,0,1,.012.028l-.055.781a.033.033,0,0,0,.051.03l.653-.431A.033.033,0,0,1,4358.185,205.358Z" transform="translate(-4355.271 -173.27)" fill="url(#linear-gradient-14)"/>
      <path id="Path_818" data-name="Path 818" d="M4368.769,225.794l.894.13a.038.038,0,0,0,.039-.056l-.44-.788a.04.04,0,0,1,0-.036l.4-.81a.038.038,0,0,0-.042-.054l-.886.175a.039.039,0,0,1-.034-.01l-.646-.63a.038.038,0,0,0-.064.023l-.107.9a.038.038,0,0,1-.02.029l-.8.42a.038.038,0,0,0,0,.069l.82.379a.038.038,0,0,1,.021.028l.153.89a.038.038,0,0,0,.065.019l.614-.663A.038.038,0,0,1,4368.769,225.794Z" transform="translate(-4363.288 -189.242)" fill="url(#linear-gradient-15)"/>
      <path id="Path_819" data-name="Path 819" d="M4384.984,244.047l.856-.081a.037.037,0,0,0,.023-.061l-.585-.631a.036.036,0,0,1-.009-.033l.188-.839a.036.036,0,0,0-.051-.041l-.781.362a.037.037,0,0,1-.034,0l-.74-.438a.036.036,0,0,0-.055.036l.1.854a.036.036,0,0,1-.012.032l-.646.569a.037.037,0,0,0,.018.063l.844.166a.039.039,0,0,1,.027.021l.341.789a.036.036,0,0,0,.065,0l.419-.751A.037.037,0,0,1,4384.984,244.047Z" transform="translate(-4376.051 -203.884)" fill="url(#linear-gradient-16)"/>
      <path id="Path_820" data-name="Path 820" d="M4404.18,257.19l.877-.339a.04.04,0,0,0,.006-.071l-.8-.49a.038.038,0,0,1-.019-.032l-.052-.939a.04.04,0,0,0-.066-.028l-.713.612a.04.04,0,0,1-.036.008l-.909-.241a.04.04,0,0,0-.047.054l.361.868a.039.039,0,0,1,0,.037l-.51.79a.04.04,0,0,0,.037.061l.937-.075a.04.04,0,0,1,.034.014l.593.729a.04.04,0,0,0,.069-.016l.218-.915A.039.039,0,0,1,4404.18,257.19Z" transform="translate(-4391.054 -214.136)" fill="url(#linear-gradient-17)"/>
    </g>
    <path id="D" d="M4639.1,80.656c-.895-10.291-7.048-18.589-17.926-19.983-6.555-.84-13.254-.559-19.888-.78-1.128-.038-1.417.626-1.441,1.614v42.922c0,1.088-.279,2.048,1.227,2.017,6.643-.138,13.3-.056,19.928-.421,6.12-.336,10.816-3.405,14.26-8.47C4638.763,92.4,4639.618,86.646,4639.1,80.656Zm-7.005,12.339c-2.807,5.3-7.484,7.816-13.292,8.269-4.038.316-8.1.24-12.156.416-1.531.066-2.095-.474-2.076-2.028l-.005-33.019c-.018-1.537.522-2.142,2.066-2.046,4.378.271,8.823.1,13.127.8,8.592,1.4,13.806,7.688,14.306,16.332C4634.29,85.657,4633.961,89.468,4632.092,92.995Z" transform="translate(-436.212 -4.599)" fill="url(#linear-gradient-28)"/>
  </g>
</svg>
