<svg xmlns="http://www.w3.org/2000/svg" xmlns:xlink="http://www.w3.org/1999/xlink" width="189.771" height="71.879" viewBox="0 0 189.771 71.879">
  <defs>
    <clipPath id="clip-path">
      <rect id="Rectangle_292" data-name="Rectangle 292" width="189.771" height="71.879" fill="none"/>
    </clipPath>
  </defs>
  <g id="Tecnogen" clip-path="url(#clip-path)">
    <path id="Path_821" data-name="Path 821" d="M6.322,102.492V93.416H0v13.3a3.876,3.876,0,0,0,3.8,3.878H16.99v-6.341H8.082a1.76,1.76,0,0,1-1.76-1.761" transform="translate(0 -67.704)" fill="#777373"/>
    <rect id="Rectangle_289" data-name="Rectangle 289" width="17.03" height="6.743" transform="translate(0 15.115)" fill="#777373"/>
    <path id="Path_822" data-name="Path 822" d="M223.94,55.848c-2.5-.118-5.008-.02-7.781-.02v27.5h5.917V63.113c4.049-.4,4.72,1.775,4.69,4.71-.051,5.084-.014,10.352-.014,15.5h6.053c0-6.462.17-12.732-.05-18.8-.2-5.641-3.167-8.4-8.816-8.672" transform="translate(-156.663 -40.434)" fill="#777373"/>
    <path id="Path_823" data-name="Path 823" d="M645.363,64.519c-.2-5.641-3.167-8.4-8.816-8.672-2.5-.118-5.008-.02-7.781-.02v27.5h5.917c0-3.517,0-6.844,0-10.171s0-6.673,0-10.039c4.049-.4,4.72,1.775,4.69,4.709-.051,5.084-.014,10.352-.014,15.5h6.053c0-6.462.171-12.732-.05-18.8" transform="translate(-455.705 -40.433)" fill="#777373"/>
    <path id="Path_824" data-name="Path 824" d="M72.75,111.246H89.163v-6.53L78,104.632v-3.815l11.412-.1v-6.4H72.75Z" transform="translate(-52.726 -68.357)" fill="#777373"/>
    <rect id="Rectangle_290" data-name="Rectangle 290" width="16.731" height="6.743" transform="translate(20.017 15.115)" fill="#777373"/>
    <path id="Path_825" data-name="Path 825" d="M556.645,112.8h16.414v-6.53l-11.162-.084v-3.815l11.412-.1v-6.4H556.645Z" transform="translate(-403.434 -69.485)" fill="#777373"/>
    <rect id="Rectangle_291" data-name="Rectangle 291" width="16.731" height="6.743" transform="translate(153.204 15.544)" fill="#777373"/>
    <path id="Path_826" data-name="Path 826" d="M149.161,69.278a7.453,7.453,0,0,1,7.321-7.673h4.094v-6.2h-5.616c-6.464,0-11.7,6.214-11.7,13.872s5.241,13.872,11.7,13.872h5.645V77.091h-4.123a7.577,7.577,0,0,1-7.321-7.813" transform="translate(-103.826 -40.156)" fill="#777373"/>
    <path id="Path_827" data-name="Path 827" d="M314.647,116.706a7.667,7.667,0,0,1-5.378-2.191,34.267,34.267,0,0,0-2.733,5.659,13.8,13.8,0,0,0,21.276-6.958,15.17,15.17,0,0,0-5.574-2.926,7.7,7.7,0,0,1-7.591,6.416" transform="translate(-222.165 -79.934)" fill="#777373"/>
    <path id="Path_828" data-name="Path 828" d="M299.631,55.41a13.807,13.807,0,0,0-11.246,21.827l4.09-5.147a7.7,7.7,0,1,1,14.789-3.862,10.233,10.233,0,0,1,6.078,2.686,13.544,13.544,0,0,0,.113-1.682A13.823,13.823,0,0,0,299.631,55.41" transform="translate(-207.149 -40.159)" fill="#777373"/>
    <path id="Path_829" data-name="Path 829" d="M338.388,24.015a5.058,5.058,0,0,0,2.736,1.151c4.277,1.126,7.258,7.09,5.865,11.648-1.409,4.608-5.992,6.658-10.853,4.858-7.153-2.648-11.472-12.92-8.915-21.2,2.139-6.933,9.168-10.291,17.6-8.312.151,2.284-.234,4.61,0,8.186,3.223-4.134,6.24-7.319,8.846-10.66-2.6-3.157-5.488-6.033-8.494-9.686-.217,3.782.151,6.419,0,9.1-8.742,1.307-18.515.661-21.623,11.274-2.315,7.9,1.354,14.442,7.027,19.787,5.246,4.941,11.183,5.753,17.494,1.811.149.561.352.892.286,1.156-.476,1.96-1.016,3.906-1.528,5.857A27.223,27.223,0,0,1,325.119,69.1c-11.915,1.929-22.823-.341-31.245-9.336-3.4-3.628-3.771-10.1-2.871-15.13l.017-.083a21.721,21.721,0,0,1,.718-2.9c.005-.025.014-.047.022-.074a7.977,7.977,0,0,1,.506-1.338A34.262,34.262,0,0,1,295,34.581a.444.444,0,0,1-.039-.036c.168-.212.339-.416.515-.611a.12.12,0,0,1,.016-.019,8,8,0,0,1,1.715-1.64.315.315,0,0,1,.036-.028c.154-.124.311-.239.468-.352,2.854-2.037,6.27-2.54,10.253-1.541a.008.008,0,0,0,.005,0,15.17,15.17,0,0,1,5.574,2.926,45.68,45.68,0,0,1,3.619,2.942c.03.025.055.05.08.069a.551.551,0,0,1,.044.039.291.291,0,0,0,.033.028l.028.025.022.019.041.036,0,0c6.567,5.907,12.636,13.955,18.771,20.376.9-1.189,2.962-3.611,3.7-4.588l-3.077,1.525c-6.537-6.1-13.377-15.036-21.048-21.342-.1-.08-.325-.292-.608-.567l0,0c-.314-.3-.7-.685-1.062-1.057,0-.011,0-.019,0-.03a10.232,10.232,0,0,0-6.077-2.686c.008.044.014.088.019.132-.182-.052-.361-.1-.542-.149h-.005a13.8,13.8,0,0,0-12.909,2.81l0,0a16.226,16.226,0,0,0-1.288,1.219c-.022-.052-.044-.1-.061-.154a15.131,15.131,0,0,0-4.36,6.083c-.05.162-.1.328-.154.487l-.008.03c-.281.864-.564,1.66-.7,2.119-3.529,11.992,1.164,22.707,12.617,27.813,0,0,7.189,3.7,20.822,3.4,25.963-.57,30.97-26.651,34.589-47.848Zm12.281,7.509a.494.494,0,0,1-.911.052l-2.78-5.739a.5.5,0,0,1,.446-.713h5.491a.5.5,0,0,1,.468.661Z" transform="translate(-207.895)" fill="#555"/>
  </g>
</svg>
