<svg xmlns="http://www.w3.org/2000/svg" width="14.652" height="14.006" viewBox="0 0 14.652 14.006">
  <g id="LinkedIn_Icon" data-name="LinkedIn Icon" transform="translate(0)">
    <path id="LinkedIn" d="M3.324,14V4.555H.183V14ZM1.754,3.264A1.638,1.638,0,1,0,1.775,0a1.637,1.637,0,1,0-.041,3.265h.02ZM5.063,14H8.2V8.728a2.153,2.153,0,0,1,.1-.766A1.719,1.719,0,0,1,9.918,6.812c1.137,0,1.591.867,1.591,2.137V14H14.65V8.586c0-2.9-1.55-4.253-3.616-4.253A3.129,3.129,0,0,0,8.183,5.925H8.2V4.555H5.063c.041.887,0,9.45,0,9.45Z" transform="translate(0.002 0.001)" fill="#a3a3a3"/>
  </g>
</svg>
