<svg xmlns="http://www.w3.org/2000/svg" xmlns:xlink="http://www.w3.org/1999/xlink" width="134.898" height="69.486" viewBox="0 0 134.898 69.486">
  <defs>
    <clipPath id="clip-path">
      <rect id="Rectangle_296" data-name="Rectangle 296" width="134.898" height="69.486" fill="none"/>
    </clipPath>
  </defs>
  <g id="Group_233" data-name="Group 233" clip-path="url(#clip-path)">
    <path id="Path_852" data-name="Path 852" d="M293.535,245.8l-.9,2.7h-.3l-1.2-2.7h-2.1l2.4,4.5v3.3h1.991l.07-3.3,2.436-4.5Z" transform="translate(-216.493 -184.106)" fill="#4e4e4e"/>
    <path id="Path_853" data-name="Path 853" d="M247.254,248.8h-3v-3h-1.8v7.794h1.8v-3h3v3h1.8V245.8h-1.8Z" transform="translate(-181.604 -184.106)" fill="#4e4e4e"/>
    <path id="Path_854" data-name="Path 854" d="M363.993,245.8h-2.1v7.794h5.1v-1.8h-3Z" transform="translate(-271.064 -184.106)" fill="#4e4e4e"/>
    <path id="Path_855" data-name="Path 855" d="M255.357,129.944H240.069v3.9h5.4V147.93h4.5V133.841h5.4Z" transform="translate(-179.815 -97.33)" fill="#4e4e4e"/>
    <path id="Path_856" data-name="Path 856" d="M475.07,251.794v-1.2h2.4v-1.8h-2.4v-1.5h3v-1.5h-5.1v7.794h5.4v-1.8Z" transform="translate(-354.262 -184.106)" fill="#4e4e4e"/>
    <path id="Path_857" data-name="Path 857" d="M438.439,129.944l-2.7,6.595h-.6l-2.7-6.595H412.059v3.9h5.4V147.93h4.5V133.841h5.4v-3.6h.3l5.7,10.192-.037,7.494h4.234v-7.494l3.3-5.7,2.7-4.5v-.3Z" transform="translate(-308.638 -97.33)" fill="#656565"/>
    <rect id="Rectangle_294" data-name="Rectangle 294" width="4.497" height="17.986" transform="translate(96.826 32.614)" fill="#656565"/>
    <path id="Path_858" data-name="Path 858" d="M194.683,247.3h2.4v6.3h2.1v-6.3h2.4v-1.5h-6.895Z" transform="translate(-145.82 -184.106)" fill="#4e4e4e"/>
    <path id="Path_859" data-name="Path 859" d="M433.557,253.592h2.1v-3h2.4v-1.5h-2.4v-1.8h2.7v-1.5h-4.8Z" transform="translate(-324.74 -184.106)" fill="#4e4e4e"/>
    <rect id="Rectangle_295" data-name="Rectangle 295" width="2.099" height="7.794" transform="translate(101.023 61.692)" fill="#4e4e4e"/>
    <path id="Path_860" data-name="Path 860" d="M211.151,144.033h-7.195V129.944h-4.5V147.93h11.691Z" transform="translate(-149.398 -97.33)" fill="#4e4e4e"/>
    <path id="Path_861" data-name="Path 861" d="M86.936,144.033H79.742v-3.3h5.4v-3.9h-5.4v-3h6.895v-3.9H75.245V147.93H86.936Z" transform="translate(-56.359 -97.33)" fill="#4e4e4e"/>
    <path id="Path_862" data-name="Path 862" d="M136.2,129.945h-4.8l-6,17.986h4.314l1.382-3.6h5.237l1.11,3.6H142.2l-6-17.986M132,140.737l1.5-5.7h.6l1.2,5.7Z" transform="translate(-93.933 -97.33)" fill="#4e4e4e"/>
    <path id="Path_863" data-name="Path 863" d="M115.872,245.8h-2.1l-2.7,7.794h2.115l.33-1.5h2.651l.3,1.5h2.1Zm-1.8,4.5.749-2.4.749,2.4Z" transform="translate(-83.197 -184.106)" fill="#4e4e4e"/>
    <path id="Path_864" data-name="Path 864" d="M162.095,252.08l.049-6.281h-2.1v7.794h5.4v-1.5Z" transform="translate(-119.876 -184.106)" fill="#4e4e4e"/>
    <path id="Path_865" data-name="Path 865" d="M27.489,248.8h-2.7v-3h-2.1v7.794h2.1v-3h2.7v3h2.1V245.8h-2.1Z" transform="translate(-16.997 -184.106)" fill="#4e4e4e"/>
    <path id="Path_866" data-name="Path 866" d="M10.792,137.139H4.5v-7.195H0V147.93H4.5v-6.895h6.3v6.895h4.5V129.944h-4.5Z" transform="translate(0 -97.33)" fill="#4e4e4e"/>
    <path id="Path_867" data-name="Path 867" d="M72.857,253.592h5.1v-1.8h-3v-1.2h2.4v-1.8h-2.4v-1.5h3v-1.5h-5.1Z" transform="translate(-54.571 -184.106)" fill="#4e4e4e"/>
    <path id="Path_868" data-name="Path 868" d="M229.957,38.788c-3.714-9.59-14.968-11.708-17.818-11.456a29.115,29.115,0,0,0-5.638,1.114c-.355.1-.688.19-1,.269a15.936,15.936,0,0,1-4.491-.007l-.377-.051.027.379c.285,3.986,7.675,11.491,7.99,11.808l.047.039a17.641,17.641,0,0,0,9.926,3.37,15.775,15.775,0,0,0,11.283-5.159l.114-.139Zm-24.3-9.474c.313-.08.65-.173,1.009-.273a28.608,28.608,0,0,1,5.526-1.094c2.706-.239,13.244,1.74,17,10.615l-8.611-1.194c-.106-.031-10.655-3.057-12.831-3.99l-5.932-3.961a13.184,13.184,0,0,0,3.837-.1m3.413,11.075c-.419-.427-6.777-6.964-7.687-10.768l6.174,4.118c2.233.961,12.478,3.9,12.942,4.031l8.693,1.207c-1.447,1.577-9.051,8.854-20.121,1.412" transform="translate(-150.278 -20.457)" fill="#666"/>
    <path id="Path_869" data-name="Path 869" d="M287.723,17.625l.077-.085a10.063,10.063,0,0,0,2.217-7.6,11.253,11.253,0,0,0-3.041-5.955l-.029-.026c-.229-.169-5.647-4.143-8.19-3.956l-.242.018.067.233A10.165,10.165,0,0,1,279,3.091c-.022.2-.049.421-.078.655a18.583,18.583,0,0,0-.184,3.661c.1,1.822,2.477,8.731,8.872,10.192ZM279.1.7l3.047,3.379c.789,1.288,3.671,7.668,3.7,7.732l1.547,5.326c-5.949-1.555-8.168-8.025-8.267-9.755a18.251,18.251,0,0,1,.181-3.589c.03-.236.057-.457.079-.662A8.416,8.416,0,0,0,279.1.7m8.556,16.4L286.1,11.722c-.125-.28-2.924-6.477-3.737-7.8L279.192.407c2.485.224,7.2,3.635,7.505,3.86,5.717,6.3,1.824,11.772.962,12.831" transform="translate(-208.611 0)" fill="#666"/>
  </g>
</svg>
