<svg xmlns="http://www.w3.org/2000/svg" width="214" height="60.683" viewBox="0 0 214 60.683">
  <g id="Hubspot" transform="translate(0 0)">
    <path id="Path_1404" data-name="Path 1404" d="M23.177,4.976v17.11H7.458V4.976H0V45.82H7.46V29.265H23.175V45.82h7.462V4.976ZM54.513,32.618a6.173,6.173,0,0,1-12.345,0v-17.5H35.092v17.5a13.236,13.236,0,0,0,26.471,0v-17.5h-7.05Zm52.432-15.693c0-3.588,2.372-4.724,4.97-4.724,2.1,0,4.861,1.595,6.672,3.529l4.633-5.463a14.6,14.6,0,0,0-10.847-5.291c-7.678,0-13.23,4.5-13.23,11.95,0,13.829,16.9,9.44,16.9,17.181,0,2.386-2.318,4.494-4.97,4.494-4.185,0-5.542-2.045-7.464-4.209l-5.144,5.348a15.185,15.185,0,0,0,12.208,6.089c7.294,0,13.161-4.551,13.161-11.665,0-15.351-16.9-10.581-16.9-17.237M211.511,39.295c-4.181,0-5.37-1.809-5.37-4.579V22.451h6.5V16.237h-6.5v-8.2l-7.175,3.22V36.24c0,6.39,4.409,9.61,10.454,9.61a14.769,14.769,0,0,0,2.83-.226L214,39.18c-.789.055-1.7.109-2.489.109M81.449,15.327a10.871,10.871,0,0,0-8.318,3.337V5.22H66.045V30.139c0,9.327,6.743,15.719,14.322,15.719,8.407,0,15.8-6.5,15.8-15.263a15,15,0,0,0-14.72-15.263M81.4,38.725a8.042,8.042,0,1,1,8.043-8.043A8.041,8.041,0,0,1,81.4,38.725h0m77-8.5c0-8.774-7.379-15.263-15.8-15.263-7.577,0-14.322,6.39-14.322,15.719V55.613h7.086V42.151a10.876,10.876,0,0,0,8.314,3.337,15,15,0,0,0,14.722-15.265m-6.709-.089a8.042,8.042,0,0,1-16.084,0h0a8.042,8.042,0,1,1,16.084,0" transform="translate(0 5.07)" fill="#555"/>
    <path id="Path_1405" data-name="Path 1405" d="M111.938,19.688V12.567A5.486,5.486,0,0,0,115.1,7.625V7.462a5.483,5.483,0,0,0-5.483-5.483h-.164a5.483,5.483,0,0,0-5.483,5.483h0v.164a5.486,5.486,0,0,0,3.162,4.942v7.121a15.532,15.532,0,0,0-7.383,3.25L80.219,7.728a6.114,6.114,0,0,0,.22-1.538,6.178,6.178,0,1,0-6.19,6.166h0a6.1,6.1,0,0,0,3.042-.828l19.23,14.964a15.577,15.577,0,0,0,.238,17.544l-5.849,5.851a4.988,4.988,0,0,0-1.462-.238,5.073,5.073,0,1,0,5.077,5.077,4.989,4.989,0,0,0-.238-1.462l5.786-5.788a15.6,15.6,0,1,0,11.859-27.788m-2.4,23.419a8,8,0,1,1-.44-16c.147,0,.293,0,.44,0a8,8,0,0,1,.008,16" transform="translate(69.369 0)" fill="#a8a8a8"/>
  </g>
</svg>
