<svg xmlns="http://www.w3.org/2000/svg" xmlns:xlink="http://www.w3.org/1999/xlink" width="125.741" height="88.033" viewBox="0 0 125.741 88.033">
  <defs>
    <clipPath id="clip-path">
      <rect id="Rectangle_447" data-name="Rectangle 447" width="125.741" height="88.033" fill="none"/>
    </clipPath>
  </defs>
  <g id="Group_604" data-name="Group 604" clip-path="url(#clip-path)">
    <path id="Path_1406" data-name="Path 1406" d="M98.619,11.921a26.767,26.767,0,0,0-10.95,2.334A22.07,22.07,0,0,0,52.323,9.586l0,.026A24.417,24.417,0,0,0,10.489,34.1,21.267,21.267,0,0,0,20.976,73.7a20.787,20.787,0,0,0,4.316-.45,22.594,22.594,0,0,0,42,1.018,19.805,19.805,0,0,0,25.968-8.17,27.332,27.332,0,1,0,5.359-54.174" transform="translate(0 0)" fill="#a8a8a8" fill-rule="evenodd"/>
    <path id="Path_1407" data-name="Path 1407" d="M13.684,21.252l-.221-.071c-1.28-.416-2.384-.777-2.384-1.618V19.52c0-.721.647-1.252,1.644-1.252A7.44,7.44,0,0,1,16,19.1s.251.162.342-.08c.05-.13.481-1.284.526-1.414a.239.239,0,0,0-.126-.29,7.3,7.3,0,0,0-3.7-.992h-.258c-2.36,0-4.01,1.427-4.01,3.469v.045c0,2.152,1.821,2.854,3.521,3.339l.275.087c1.236.381,2.31.71,2.31,1.579v.045c0,.8-.7,1.395-1.817,1.395a6.074,6.074,0,0,1-3.322-.957c-.182-.106-.286-.182-.427-.266a.2.2,0,0,0-.338.115l-.509,1.414,0,0c-.08.206.028.249.054.286a8.056,8.056,0,0,0,.715.433A7.683,7.683,0,0,0,13,28.194c2.579,0,4.181-1.373,4.181-3.582V24.57c0-2.042-1.81-2.787-3.5-3.317" transform="translate(9.841 19.029)" fill="#fffffe"/>
    <path id="Path_1408" data-name="Path 1408" d="M30.374,19.523a4.583,4.583,0,0,0-.933-1.7,4.275,4.275,0,0,0-1.386-1.055,5.323,5.323,0,0,0-2.09-.422,5.739,5.739,0,0,0-2.406.466,4.819,4.819,0,0,0-1.678,1.28,5.327,5.327,0,0,0-.99,1.895,8.209,8.209,0,0,0-.318,2.323,7.808,7.808,0,0,0,.331,2.33A4.666,4.666,0,0,0,23.793,27.7a7.275,7.275,0,0,0,2.646.427,7.533,7.533,0,0,0,3.668-.73c.082-.045.158-.123.063-.349l-.476-1.334a.212.212,0,0,0-.275-.128,6.978,6.978,0,0,1-2.995.541,3.458,3.458,0,0,1-2.495-.86,3.445,3.445,0,0,1-.845-2.425l7.3,0a.214.214,0,0,0,.212-.188,7.791,7.791,0,0,0-.219-3.138ZM23.12,21.047h0a4.2,4.2,0,0,1,.591-1.717,2.322,2.322,0,0,1,2.083-1.059,2.259,2.259,0,0,1,2.042,1.059,3.543,3.543,0,0,1,.481,1.717Z" transform="translate(23.976 19.045)" fill="#fffffe"/>
    <path id="Path_1409" data-name="Path 1409" d="M21.353,17.34a4.96,4.96,0,0,0-3.346-1.007,12,12,0,0,0-1.955.18,7.038,7.038,0,0,0-2.246.823.228.228,0,0,0-.065.29l.518,1.386a.187.187,0,0,0,.24.119.929.929,0,0,0,.119-.061,7.386,7.386,0,0,1,3.174-.738,2.95,2.95,0,0,1,1.8.47c.4.305.6.767.6,1.737v.31c-.624-.091-1.2-.143-1.2-.143l-.009-.017c-.294-.022-.678-.032-1.137-.032a6.9,6.9,0,0,0-1.791.23,4.686,4.686,0,0,0-1.522.708,3.4,3.4,0,0,0-1.446,2.882,3.808,3.808,0,0,0,.333,1.663,2.986,2.986,0,0,0,.953,1.141,3.961,3.961,0,0,0,1.483.643,8.754,8.754,0,0,0,1.929.2A13.394,13.394,0,0,0,20,27.935q.919-.159,1.834-.357c.243-.056.511-.13.511-.13a.228.228,0,0,0,.167-.238l0-6.652a4.08,4.08,0,0,0-1.158-3.218m-3.129,8.9a3.261,3.261,0,0,1-2.135-.427l0,0a1.432,1.432,0,0,1-.42-.431,1.741,1.741,0,0,1-.219-.948,1.6,1.6,0,0,1,.652-1.41,3.3,3.3,0,0,1,2.116-.526,15.159,15.159,0,0,1,1.979.169v3.313a14.732,14.732,0,0,1-1.968.262" transform="translate(15.255 19.034)" fill="#fffffe"/>
    <path id="Path_1410" data-name="Path 1410" d="M51.418,25.865a.2.2,0,0,0-.275-.13,5.025,5.025,0,0,1-1,.286,7.687,7.687,0,0,1-1.178.084,3.264,3.264,0,0,1-2.46-.925,4.087,4.087,0,0,1-.927-2.943A4.552,4.552,0,0,1,46.4,19.4a2.816,2.816,0,0,1,2.388-1.055,7.216,7.216,0,0,1,2.278.327s.169.074.249-.149c.188-.522.329-.9.531-1.468a.192.192,0,0,0-.134-.253,8.3,8.3,0,0,0-1.436-.364,10.807,10.807,0,0,0-1.618-.108,5.838,5.838,0,0,0-2.4.461A4.978,4.978,0,0,0,44.53,18.05a5.346,5.346,0,0,0-1.048,1.871,7.415,7.415,0,0,0-.351,2.319,6.212,6.212,0,0,0,1.431,4.288,5.437,5.437,0,0,0,4.251,1.6,8.728,8.728,0,0,0,3.051-.546.2.2,0,0,0,.087-.256l-.531-1.459Z" transform="translate(50.265 19.032)" fill="#fffffe"/>
    <path id="Path_1411" data-name="Path 1411" d="M42.912,16.626l0-.03,0,.013v.017" transform="translate(50.01 19.34)" fill="#fffffe"/>
    <path id="Path_1412" data-name="Path 1412" d="M34.619,24.612v-.043c0-2.042-1.806-2.787-3.5-3.317l-.223-.071c-1.28-.416-2.384-.777-2.384-1.618v-.043c0-.721.647-1.252,1.646-1.252a7.463,7.463,0,0,1,3.276.836s.251.162.342-.08c.048-.13.481-1.284.522-1.414a.239.239,0,0,0-.126-.29,7.3,7.3,0,0,0-3.7-.992h-.258c-2.36,0-4.01,1.427-4.01,3.469v.045c0,2.152,1.821,2.854,3.521,3.339l.273.087c1.243.379,2.31.71,2.31,1.579v.043c0,.8-.7,1.4-1.817,1.4a6.09,6.09,0,0,1-3.322-.957c-.182-.106-.288-.178-.424-.266a.22.22,0,0,0-.34.115L25.9,26.591l0,0c-.078.206.028.249.054.286a7.785,7.785,0,0,0,.717.433,7.672,7.672,0,0,0,3.761.879c2.579,0,4.181-1.373,4.181-3.582" transform="translate(30.157 19.027)" fill="#fffffe"/>
    <path id="Path_1413" data-name="Path 1413" d="M44.279,19.935a5.18,5.18,0,0,0-.979-1.871,4.709,4.709,0,0,0-1.654-1.258,6.018,6.018,0,0,0-4.621,0,4.775,4.775,0,0,0-1.654,1.258,5.214,5.214,0,0,0-.979,1.871,8.633,8.633,0,0,0,0,4.63,5.213,5.213,0,0,0,.979,1.871,4.645,4.645,0,0,0,1.654,1.247,6.113,6.113,0,0,0,4.617,0A4.645,4.645,0,0,0,43.3,26.436a5.214,5.214,0,0,0,.979-1.871,8.633,8.633,0,0,0,0-4.63ZM42.127,22.25v0a5.356,5.356,0,0,1-.689,2.928,2.654,2.654,0,0,1-4.186,0,5.371,5.371,0,0,1-.68-2.93,5.318,5.318,0,0,1,.68-2.915,2.287,2.287,0,0,1,2.087-1.013,2.318,2.318,0,0,1,2.1,1.013,5.233,5.233,0,0,1,.689,2.912v0Z" transform="translate(39.712 19.048)" fill="#fffffe"/>
    <path id="Path_1414" data-name="Path 1414" d="M46.421,16.606A6.43,6.43,0,0,0,45.2,16.4a3.643,3.643,0,0,0-1.882.3,3.256,3.256,0,0,0-1.228.909l0-.888a.209.209,0,0,0-.208-.219H40.016a.211.211,0,0,0-.21.219v10.86a.224.224,0,0,0,.221.223h1.914a.224.224,0,0,0,.221-.223V22.13a6.4,6.4,0,0,1,.24-1.912,2.8,2.8,0,0,1,.637-1.074,2.22,2.22,0,0,1,.9-.539,3.578,3.578,0,0,1,.981-.139,4.111,4.111,0,0,1,.8.1c.141.017.219-.067.266-.195.123-.331.47-1.3.546-1.518a.192.192,0,0,0-.1-.24l-.006,0" transform="translate(46.39 19.097)" fill="#fffffe"/>
    <path id="Path_1415" data-name="Path 1415" d="M57.331,19.525l-.009,0a4.583,4.583,0,0,0-.933-1.7A4.275,4.275,0,0,0,55,16.764a5.323,5.323,0,0,0-2.09-.422,5.739,5.739,0,0,0-2.406.466,4.819,4.819,0,0,0-1.678,1.28,5.292,5.292,0,0,0-.99,1.895,8.209,8.209,0,0,0-.318,2.323,7.879,7.879,0,0,0,.329,2.33A4.686,4.686,0,0,0,50.744,27.7a7.3,7.3,0,0,0,2.648.427,7.533,7.533,0,0,0,3.668-.73c.08-.045.156-.123.063-.349l-.476-1.334a.212.212,0,0,0-.275-.128,6.987,6.987,0,0,1-2.995.541,3.451,3.451,0,0,1-2.495-.86,3.445,3.445,0,0,1-.845-2.425l7.3,0a.214.214,0,0,0,.212-.188,7.836,7.836,0,0,0-.219-3.138m-7.263,1.522h0a4.2,4.2,0,0,1,.591-1.717,2.319,2.319,0,0,1,2.083-1.059,2.259,2.259,0,0,1,2.042,1.059,3.543,3.543,0,0,1,.481,1.717Z" transform="translate(55.383 19.045)" fill="#fffffe"/>
    <path id="Path_1416" data-name="Path 1416" d="M20.68,14.29H18.746a.21.21,0,0,0-.208.221V30.065a.212.212,0,0,0,.208.223H20.68a.212.212,0,0,0,.208-.223V14.511a.21.21,0,0,0-.208-.221" transform="translate(21.604 16.653)" fill="#fffffe"/>
    <path id="Path_1417" data-name="Path 1417" d="M39.76,19.088H37.43a9.729,9.729,0,0,1,.385-1.644,2.1,2.1,0,0,1,.511-.777,1.489,1.489,0,0,1,.611-.381,2.568,2.568,0,0,1,.782-.113,2.991,2.991,0,0,1,.6.061c.227.048.314.074.375.091.236.074.269,0,.314-.113l.559-1.531a.193.193,0,0,0-.134-.253,6.234,6.234,0,0,0-.721-.171,5.612,5.612,0,0,0-.99-.076,4.179,4.179,0,0,0-3.088,1.107,6.037,6.037,0,0,0-1.464,3.307l-.089.494H33.424a.244.244,0,0,0-.245.212l-.273,1.516c-.019.145.043.236.238.234h1.611l-1.635,9.123a11.447,11.447,0,0,1-.437,1.8,3.678,3.678,0,0,1-.507,1.035,1.353,1.353,0,0,1-.667.515,2.716,2.716,0,0,1-.858.123,3.525,3.525,0,0,1-.585-.063,1.792,1.792,0,0,1-.394-.128.2.2,0,0,0-.264.117c-.061.154-.489,1.336-.539,1.481a.215.215,0,0,0,.113.29,5.263,5.263,0,0,0,.665.195,4.412,4.412,0,0,0,1.068.1,5.35,5.35,0,0,0,1.789-.277,3.351,3.351,0,0,0,1.347-.94,4.859,4.859,0,0,0,.948-1.631,14.132,14.132,0,0,0,.641-2.449l1.641-9.292h2.4a.242.242,0,0,0,.243-.212L40,19.322c.019-.145-.043-.234-.238-.234" transform="translate(33.625 16.526)" fill="#fffffe"/>
  </g>
</svg>
