<svg xmlns="http://www.w3.org/2000/svg" width="182.881" height="19.106" viewBox="0 0 182.881 19.106">
  <g id="DAAC_Hermes" data-name="DAAC Hermes" transform="translate(-2146.141 -118.459)">
    <path id="D" d="M2158.46,121.324a12.085,12.085,0,0,0-4.058-.736c-2.749-.119-5.507-.057-8.261-.07v18.13c3.148-.012,6.3.053,9.443-.057a7.33,7.33,0,0,0,7.12-5.994,18.311,18.311,0,0,0,.041-5.46A7.04,7.04,0,0,0,2158.46,121.324ZM2158,131.779a3.912,3.912,0,0,1-3.7,3.4c-1.039.11-2.1.042-3.143.077-.517.017-.514-.3-.513-.668q.006-2.518,0-5.036c0-1.626.019-3.253-.011-4.878-.01-.559.188-.737.729-.711.785.037,1.574-.01,2.36.021a4.189,4.189,0,0,1,4.342,3.748A14,14,0,0,1,2158,131.779Z" transform="translate(0 -1.68)" fill="#a8a8a8"/>
    <path id="AA" d="M2274.037,121.181a.977.977,0,0,0-.721-.488c-1.1-.054-2.206.009-3.308-.037a.807.807,0,0,0-.9.653q-2.332,6.31-4.686,12.611c-.517,1.387-1.051,2.768-1.661,4.372-.283-.692-.491-1.162-.671-1.642q-2.886-7.7-5.755-15.407a.767.767,0,0,0-.868-.583c-1.076.031-2.154.028-3.23,0a.76.76,0,0,0-.867.571q-3.092,8.337-6.22,16.66c-.1.255-.154.524-.26.889,1.485,0,2.847.021,4.207-.024.194-.007.459-.308.548-.53.3-.753.5-1.549.821-2.292a.987.987,0,0,1,.715-.5q2.677-.064,5.357,0a.992.992,0,0,1,.694.528c.324.743.534,1.535.832,2.291.082.206.311.495.482.5,1.206.045,2.416.043,3.623.01.213-.006.42-.232.515-.289a3.039,3.039,0,0,0,.826.3c1.076.03,2.155.041,3.229-.01a.923.923,0,0,0,.654-.484c.323-.772.531-1.593.853-2.366a.909.909,0,0,1,.649-.482q2.717-.059,5.436,0a.912.912,0,0,1,.664.467c.327.771.542,1.589.856,2.366.087.214.366.49.564.5,1.36.043,2.722.023,4.2.023-.122-.4-.185-.65-.276-.892Q2277.2,129.531,2274.037,121.181Zm-22.492,11.16,2.2-6.438.206-.034,2.2,6.471Zm17.775.012,2.21-6.475.2-.011,2.2,6.486Z" transform="translate(-80.785 -1.796)" fill="#a8a8a8"/>
    <path id="C" d="M2459.857,131.232a3.539,3.539,0,0,1-2.993,2.853,3.766,3.766,0,0,1-3.933-1.721c-1.541-2.261-1.48-6.938.164-9.138a3.89,3.89,0,0,1,6.122.125,9.855,9.855,0,0,1,.69,1.566h4.2a6.477,6.477,0,0,0-5.056-6.163,18.5,18.5,0,0,0-4.763-.243,7,7,0,0,0-6.4,4.927,14.613,14.613,0,0,0-.475,8.366,6.465,6.465,0,0,0,3.249,4.418,11.5,11.5,0,0,0,7.385,1.225,6.876,6.876,0,0,0,5.068-3.091,6.8,6.8,0,0,0,1.181-3.62h-4.291C2459.948,130.931,2459.9,131.081,2459.857,131.232Z" transform="translate(-246.144 0)" fill="#a8a8a8"/>
    <path id="H" d="M2617.171,127.557h-6.435v-6.726h-4.4v18.1h4.417v-.926c0-2.048.016-4.1-.01-6.143-.007-.546.157-.743.714-.72.944.038,1.89.01,2.835.01h2.882v7.793h4.443V120.835h-4.448Z" transform="translate(-376.472 -1.94)" fill="#555"/>
    <path id="e" d="M2714.986,145.7a12.826,12.826,0,0,0-1.966.006c-2.817.241-5.048,1.46-5.952,4.25-.9,2.759-.8,5.448,1.276,7.824,2.215,2.531,8.935,2.711,11.153-.057a20.764,20.764,0,0,0,1.267-1.993l-.228-.233c-1.021,0-2.044.029-3.063-.011-.6-.024-1.04.037-1.287.7a1.6,1.6,0,0,1-.743.666,2.809,2.809,0,0,1-3.064-.021,3.853,3.853,0,0,1-1.512-3.309h9.985A6.428,6.428,0,0,0,2714.986,145.7Zm1.63,5.745h-5.61a3.016,3.016,0,0,1,2.942-3.281C2715.708,148.138,2716.764,149.4,2716.616,151.442Z" transform="translate(-458.436 -22.254)" fill="#555"/>
    <path id="r" d="M2804.523,147.952v-1.393h-3.876v13.115h4.074c0-.414,0-.727,0-1.039.033-1.94-.028-3.888.126-5.819a3.663,3.663,0,0,1,4.463-3.5,4.019,4.019,0,0,0,.509,0v-3.161a16.147,16.147,0,0,0-2.841.438A15.173,15.173,0,0,0,2804.523,147.952Z" transform="translate(-535.431 -22.659)" fill="#555"/>
    <path id="m" d="M2883.135,154.811c-.024-1.68.034-3.371-.141-5.036-.186-1.767-.864-3.4-2.794-3.9a5.31,5.31,0,0,0-5.735,1.612c-.115.133-.254.245-.448.431a4.118,4.118,0,0,0-3.736-2.267,5.26,5.26,0,0,0-4.081,1.961l-.106-1.485h-3.809v13.1h4.15v-.912c0-2.154-.012-4.309.009-6.464a5.859,5.859,0,0,1,.2-1.553,2.162,2.162,0,0,1,2.771-1.519c1.051.414,1.128,1.4,1.162,2.308.065,1.758.025,3.52.027,5.281,0,.939,0,1.879,0,2.921,1.143,0,2.217-.05,3.283.017.762.048.916-.244.9-.94-.038-2.259-.012-4.519-.012-6.779a2.932,2.932,0,0,1,1.065-2.511,1.763,1.763,0,0,1,2.889.871,5.963,5.963,0,0,1,.211,1.63c.023,2.259.01,4.519.01,6.779v.933c1.222,0,2.347-.023,3.469.01.538.015.745-.142.728-.708C2883.114,157.334,2883.153,156.072,2883.135,154.811Z" transform="translate(-585.855 -22.232)" fill="#555"/>
    <path id="e-2" data-name="e" d="M3005.12,153.259a26.2,26.2,0,0,0-.463-3.216,5.51,5.51,0,0,0-3.482-4.091,9.032,9.032,0,0,0-7.19.386,6.092,6.092,0,0,0-1.763,1.417,7.394,7.394,0,0,0-1.555,5.91,5.806,5.806,0,0,0,4.314,5.425,9.649,9.649,0,0,0,6.567-.206,5.167,5.167,0,0,0,3.189-3.613c-1.2,0-2.273.029-3.345-.012a1.012,1.012,0,0,0-1.162.66,1.649,1.649,0,0,1-.725.687,2.8,2.8,0,0,1-3.2-.073,3.634,3.634,0,0,1-1.363-3.272Zm-7.1-5.324c1.722-.005,2.655,1.113,2.644,3.247H2995A3.047,3.047,0,0,1,2998.019,147.935Z" transform="translate(-690.832 -22.029)" fill="#555"/>
    <path id="s" d="M3089.828,151.46c-.6-.182-1.232-.255-1.848-.383-.973-.2-1.967-.345-2.912-.637a1.285,1.285,0,0,1-.645-1.94,2.443,2.443,0,0,1,2.3-.717,1.638,1.638,0,0,1,1.649,1.222c.044.174.269.427.417.431,1.12.036,2.241.02,3.358.02a3.875,3.875,0,0,0-2.95-3.719,11.692,11.692,0,0,0-6.227.045,3.768,3.768,0,0,0,.02,7.3c.526.158,1.074.24,1.613.354.922.2,1.853.36,2.764.6a1.381,1.381,0,0,1,1.145,1.557c-.058.843-.651,1.153-1.344,1.325-1.6.4-2.584-.2-3.334-1.992h-4.116a4.189,4.189,0,0,0,.032.575,4.506,4.506,0,0,0,2.745,3.318,10.808,10.808,0,0,0,5.031.607c2.448-.086,4.391-.933,5.225-3.458v-1.734A3.811,3.811,0,0,0,3089.828,151.46Z" transform="translate(-763.734 -21.988)" fill="#555"/>
  </g>
</svg>
