<svg xmlns="http://www.w3.org/2000/svg" width="214" height="64.168" viewBox="0 0 214 64.168">
  <g id="Linkedin" transform="translate(0)">
    <g id="Group_601" data-name="Group 601" transform="translate(23.447 0)">
      <path id="Path_1383" data-name="Path 1383" d="M154.046,9.925h-6.588V40h18.786v-6.08h-12.2Z" transform="translate(-147.458 -3.604)" fill="#555"/>
      <path id="Path_1384" data-name="Path 1384" d="M181.221,16.215a6.661,6.661,0,0,0-5.994,3.292h-.086V16.722h-6.078l0,20.377H175.4V27.02c0-2.658.508-5.235,3.8-5.235,3.254,0,3.3,3.041,3.3,5.407V37.1h6.329V25.924C188.82,20.438,187.639,16.215,181.221,16.215Z" transform="translate(-137.526 -0.715)" fill="#555"/>
      <path id="Path_1385" data-name="Path 1385" d="M165.648,9.618h0a3.671,3.671,0,1,0,3.673,3.671A3.689,3.689,0,0,0,165.646,9.618Z" transform="translate(-140.784 -3.745)" fill="#555"/>
      <rect id="Rectangle_446" data-name="Rectangle 446" width="6.329" height="20.383" transform="translate(21.699 16.006)" fill="#555"/>
      <path id="Path_1386" data-name="Path 1386" d="M206.06,19.6H198.3l-7.173,8.3V9.922H184.8V40h6.329V29.927h.083L197.93,40h7.955l-8.133-10.964Z" transform="translate(-130.293 -3.606)" fill="#555"/>
      <path id="Path_1387" data-name="Path 1387" d="M209.828,16.132c-6.331,0-11.4,4.223-11.4,10.765s5.068,10.768,11.4,10.768a11.151,11.151,0,0,0,8.655-4.057L214.05,30.36a5.407,5.407,0,0,1-4.516,2.492,4.745,4.745,0,0,1-4.77-3.969h14.69V26.9C219.454,20.352,215.745,16.132,209.828,16.132Zm3.293,8.446h-8.358a4.243,4.243,0,0,1,4.473-3.884h.092a3.814,3.814,0,0,1,3.8,3.8Z" transform="translate(-124.025 -0.751)" fill="#555"/>
      <path id="Path_1388" data-name="Path 1388" d="M230.021,9.921V21.67h-.083c-1.436-1.987-3.883-2.7-6.5-2.7-5.829,0-9.373,5.235-9.373,10.935,0,6.207,4.005,10.6,10.087,10.6a7.961,7.961,0,0,0,6.293-3.21h.086v2.7h5.827V9.921Zm-4.56,25c-3.165,0-5.064-2.115-5.064-5.194s1.9-5.192,5.064-5.192,5.068,2.108,5.068,5.192S228.626,34.924,225.46,34.924Z" transform="translate(-116.839 -3.606)" fill="#555"/>
      <path id="Path_1389" data-name="Path 1389" d="M273.225,5.6v0h-36.4a3.131,3.131,0,0,0-3.152,3.079V45.228a3.133,3.133,0,0,0,3.152,3.083h36.4a3.14,3.14,0,0,0,3.165-3.083V8.674A3.137,3.137,0,0,0,273.225,5.6Zm-26.883,36.4h-6.337V21.608h6.337Zm.508-26.843a3.691,3.691,0,0,1-3.673,3.673h0a3.673,3.673,0,1,1,3.673-3.674Zm23.221,26.843h-6.329V32.08c0-2.365-.042-5.407-3.292-5.407-3.3,0-3.8,2.575-3.8,5.235V41.991h-6.329V21.608h6.075v2.785h.085a6.672,6.672,0,0,1,6-3.293c6.414,0,7.6,4.22,7.6,9.71Z" transform="translate(-107.824 -5.595)" fill="#a8a8a8"/>
    </g>
    <g id="Sales_Navigator" data-name="Sales Navigator" transform="translate(0 51.454)">
      <path id="Path_1390" data-name="Path 1390" d="M197.892,53.025h-1.928l-6.27-9.751-.314.107v9.6l-1.426.089V41.086h1.972l6.234,9.587.27-.083V41.1h1.461Z" transform="translate(-105.395 -40.733)" fill="#555"/>
      <path id="Path_1391" data-name="Path 1391" d="M266.12,40.862a6.046,6.046,0,0,1,6.313,6.255c-.088,4.1-2.714,6.323-6.224,6.4a6.1,6.1,0,0,1-6.424-6.452A6.025,6.025,0,0,1,266.12,40.862Zm-.044,11.323a4.759,4.759,0,0,0,4.76-5.07,4.805,4.805,0,0,0-4.667-5.007,4.686,4.686,0,0,0-4.765,4.947C261.383,50.068,263.291,52.162,266.076,52.185Z" transform="translate(-72.373 -40.836)" fill="#555"/>
      <path id="Path_1392" data-name="Path 1392" d="M238.095,42.316l-.877,1.055c-2.368-1.667-4.951-1.629-6.608.006a5.692,5.692,0,0,0-.654,6.8,5.32,5.32,0,0,0,6.826,1.368c.015-.232.045-.5.047-.761.006-.892,0-1.784,0-2.769H234.2V46.741h4.027v5.674a7.674,7.674,0,0,1-8.386-.21,6.71,6.71,0,0,1-2.14-6.8,6.078,6.078,0,0,1,4.973-4.468A6.593,6.593,0,0,1,238.095,42.316Z" transform="translate(-87.213 -40.842)" fill="#555"/>
      <path id="Path_1393" data-name="Path 1393" d="M277.374,47.6l3.21,5.427h-1.721L275.826,47.7h-1.96v5.319l-1.486.07V41.082c1.992.016,4-.292,5.942.361a2.77,2.77,0,0,1,1.988,2.62,2.921,2.921,0,0,1-1.747,3.057C278.241,47.269,277.9,47.386,277.374,47.6ZM273.9,42.262V46.45a28.726,28.726,0,0,0,3.506-.266c1.077-.209,1.477-1.006,1.372-2.182a1.831,1.831,0,0,0-1.708-1.568C276.057,42.337,275.04,42.321,273.9,42.262Z" transform="translate(-66.583 -40.762)" fill="#555"/>
      <path id="Path_1394" data-name="Path 1394" d="M169.5,41.093v1.244h-5.92V46.2h5.6v1.245h-5.579v4.294h6.137v1.279h-7.614V41.093Z" transform="translate(-117.272 -40.73)" fill="#555"/>
      <path id="Path_1395" data-name="Path 1395" d="M244.356,41.079h1.4c1.674,3.938,3.346,7.872,5.068,11.926h-1.61l-1.239-2.854h-5.938l-1.232,2.884h-1.577Zm.829,1.976-.378.035L242.59,48.7h4.821Z" transform="translate(-81.822 -40.736)" fill="#555"/>
      <path id="Path_1396" data-name="Path 1396" d="M210.747,53.04h-1.639l-1.213-2.9h-5.948L200.731,53h-1.574l5.11-11.924h1.394C207.337,45.013,209.011,48.954,210.747,53.04Zm-3.411-4.3-2.246-5.674-.363,0-2.23,5.678Z" transform="translate(-100.244 -40.739)" fill="#555"/>
      <path id="Path_1397" data-name="Path 1397" d="M152.3,53.021h-1.6l-1.276-2.873H143.5l-1.215,2.86h-1.576l5.1-11.93h1.409Zm-3.392-4.261-2.3-5.829-.29,0-2.289,5.824Z" transform="translate(-127.111 -40.737)" fill="#555"/>
      <path id="Path_1398" data-name="Path 1398" d="M138.993,42.184l-.943.924a3.254,3.254,0,0,0-3.411-.889,1.9,1.9,0,0,0-1.449,1.626,1.711,1.711,0,0,0,1.1,2.028c.762.339,1.563.588,2.349.869,1.7.609,2.645,1.787,2.591,3.258a3.52,3.52,0,0,1-2.876,3.332,4.8,4.8,0,0,1-4.959-1.518l.8-.717a13.8,13.8,0,0,0,2.33,1.07,2.369,2.369,0,0,0,3.141-2.035,1.76,1.76,0,0,0-1.039-1.829c-.9-.391-1.846-.679-2.757-1.047a3.107,3.107,0,0,1-2.194-3.483,3.33,3.33,0,0,1,2.7-2.781A4.81,4.81,0,0,1,138.993,42.184Z" transform="translate(-131.395 -40.844)" fill="#555"/>
      <path id="Path_1399" data-name="Path 1399" d="M171.672,51.825l.969-.8-.026.238a15.115,15.115,0,0,0,2.881.953,2.191,2.191,0,0,0,2.511-2.274,1.955,1.955,0,0,0-1.371-1.814c-.739-.314-1.5-.569-2.258-.847-1.717-.628-2.42-1.593-2.369-3.257a3.139,3.139,0,0,1,2.552-2.97,4.847,4.847,0,0,1,4.775,1.082l-1.1.852a3.055,3.055,0,0,0-3.248-.768,1.966,1.966,0,0,0-1.46,1.638,1.761,1.761,0,0,0,1.114,2.028c.931.394,1.9.7,2.838,1.077a2.962,2.962,0,0,1,2.058,2.773,3.305,3.305,0,0,1-1.68,3.157,5.4,5.4,0,0,1-5.721-.511A4.9,4.9,0,0,1,171.672,51.825Z" transform="translate(-112.879 -40.844)" fill="#555"/>
      <path id="Path_1400" data-name="Path 1400" d="M219.253,41.092h1.542c-1.569,4.038-3.1,7.969-4.639,11.929h-1.436l-4.611-11.914h1.613l3.572,9.757.29.055C216.937,47.7,217.951,44.344,219.253,41.092Z" transform="translate(-95.21 -40.73)" fill="#555"/>
      <path id="Path_1401" data-name="Path 1401" d="M259.077,42.364h-3.81V52.989h-1.521V42.375h-3.8v-1.29h9.133Z" transform="translate(-76.897 -40.733)" fill="#555"/>
      <path id="Path_1402" data-name="Path 1402" d="M153.057,41.079h1.352V51.745h5.439v1.264h-6.791Z" transform="translate(-121.437 -40.736)" fill="#555"/>
      <path id="Path_1403" data-name="Path 1403" d="M221.715,41.081h1.366V53h-1.366Z" transform="translate(-89.874 -40.735)" fill="#555"/>
    </g>
  </g>
</svg>
