<svg xmlns="http://www.w3.org/2000/svg" xmlns:xlink="http://www.w3.org/1999/xlink" width="159.634" height="61.238" viewBox="0 0 159.634 61.238">
  <defs>
    <linearGradient id="linear-gradient" x1="-1.381" y1="0.478" x2="6.735" y2="0.572" gradientUnits="objectBoundingBox">
      <stop offset="0" stop-color="#fff"/>
      <stop offset="0.007" stop-color="#fbfbfb"/>
      <stop offset="0.147" stop-color="#bbb"/>
      <stop offset="0.274" stop-color="#888"/>
      <stop offset="0.384" stop-color="#646464"/>
      <stop offset="0.474" stop-color="#4e4e4e"/>
      <stop offset="0.531" stop-color="#464646"/>
      <stop offset="0.597" stop-color="#4a4a4a"/>
      <stop offset="0.667" stop-color="#565656"/>
      <stop offset="0.737" stop-color="#6b6b6b"/>
      <stop offset="0.808" stop-color="#888"/>
      <stop offset="0.879" stop-color="#adadad"/>
      <stop offset="0.951" stop-color="#dbdbdb"/>
      <stop offset="1" stop-color="#fff"/>
    </linearGradient>
    <linearGradient id="linear-gradient-2" x1="-5.452" y1="0.313" x2="1.473" y2="0.531" xlink:href="#linear-gradient"/>
    <linearGradient id="linear-gradient-3" x1="-1358.059" y1="-26.566" x2="309.513" y2="6.656" xlink:href="#linear-gradient"/>
    <linearGradient id="linear-gradient-4" x1="-4.645" y1="0.353" x2="2.576" y2="0.559" xlink:href="#linear-gradient"/>
    <linearGradient id="linear-gradient-5" x1="-2.627" y1="0.403" x2="4.147" y2="0.614" xlink:href="#linear-gradient"/>
    <linearGradient id="linear-gradient-6" x1="-3.931" y1="0.384" x2="3.772" y2="0.588" xlink:href="#linear-gradient"/>
    <linearGradient id="linear-gradient-7" x1="-1.273" y1="0.35" x2="4.946" y2="0.877" xlink:href="#linear-gradient"/>
    <linearGradient id="linear-gradient-8" x1="-2.171" y1="0.323" x2="5.809" y2="0.851" xlink:href="#linear-gradient"/>
    <linearGradient id="linear-gradient-9" x1="-2.588" y1="0.333" x2="7.048" y2="0.853" xlink:href="#linear-gradient"/>
    <linearGradient id="linear-gradient-10" x1="-6.823" y1="0.277" x2="11.479" y2="0.835" xlink:href="#linear-gradient"/>
    <linearGradient id="linear-gradient-11" x1="-11.378" y1="0.25" x2="15.165" y2="0.808" xlink:href="#linear-gradient"/>
    <linearGradient id="linear-gradient-12" x1="-9.232" y1="0.231" x2="10.928" y2="0.789" xlink:href="#linear-gradient"/>
    <linearGradient id="linear-gradient-13" x1="-9.452" y1="0.21" x2="9.421" y2="0.768" xlink:href="#linear-gradient"/>
    <linearGradient id="linear-gradient-14" x1="-10.829" y1="0.183" x2="8.803" y2="0.741" xlink:href="#linear-gradient"/>
    <linearGradient id="linear-gradient-15" x1="-21.598" y1="0.158" x2="14.462" y2="0.716" xlink:href="#linear-gradient"/>
    <linearGradient id="linear-gradient-16" x1="-12.723" y1="0.15" x2="7.76" y2="0.691" xlink:href="#linear-gradient"/>
    <linearGradient id="linear-gradient-17" x1="-13.452" y1="0.114" x2="6.708" y2="0.672" xlink:href="#linear-gradient"/>
    <linearGradient id="linear-gradient-18" x1="-14.518" y1="0.103" x2="5.966" y2="0.644" xlink:href="#linear-gradient"/>
  </defs>
  <g id="EKSON" transform="translate(-1488.155 -4221.868)">
    <path id="Path_884" data-name="Path 884" d="M2989.974,478.153h0l-25.014,30.839h8.241l-8.9,30.305c8.258-10.263,15.815-20.489,24.332-31.073l-6.647.068,7.985-30.139Z" transform="translate(-1476.149 3743.809)" fill="url(#linear-gradient)"/>
    <path id="Path_885" data-name="Path 885" d="M3539.088,552.513" transform="translate(-1892.965 3689.817)" fill="#fff"/>
    <path id="Path_886" data-name="Path 886" d="M3458.348,526.828c-1.147,4.743-2.253,9.312-3.44,14.219l-6.6-14.282h-7l-6.147,26.315h6.339l3.662-15.417.606-.6,6.809,15.951,6.417.067,6.393-26.315C3463.084,526.765,3460.214,526.828,3458.348,526.828Z" transform="translate(-1817.604 3708.489)" fill="url(#linear-gradient-2)"/>
    <path id="Path_887" data-name="Path 887" d="M3457.234,526.526c.081-.307-.292.291,0,0Z" transform="translate(-1833.524 3708.728)" fill="url(#linear-gradient-3)"/>
    <path id="Path_888" data-name="Path 888" d="M3354,532.672c3.534,15.248-18.284,28.367-27.428,14.262C3319.517,530.838,3346,515.334,3354,532.672ZM3343.233,531c-7.933-3.751-15.882,16.785-3.885,16.131,5.446-1.06,7.142-6.926,6.845-11.567A5.373,5.373,0,0,0,3343.233,531Z" transform="translate(-1737.997 3709.728)" fill="url(#linear-gradient-4)"/>
    <path id="Path_889" data-name="Path 889" d="M3161.515,526.489l-9.282.063-10.711,9.937c.963-3.286,1.639-6.6,2.284-9.987h-7.416l-5.78,27.159h6.573l2.326-8.6,2.1-1.843,6.869,10.386h7.547l-8.357-14.494C3152.075,535.149,3156.706,531.254,3161.515,526.489Z" transform="translate(-1596.749 3708.689)" fill="url(#linear-gradient-5)"/>
    <path id="Path_890" data-name="Path 890" d="M3237.634,530.98c3.049-1.565,6.242.249,8.849,1.194a3.451,3.451,0,0,0,4.673-3.435c-.377-4.089-7.349-3.924-11.308-3.912-7.151-1.119-16.845,8.935-9.384,14.24,2.156,2.192,14.219,2.979,10.4,6.524a5.9,5.9,0,0,1-3.2,1.523c-5.5.749-10.482-4-11.982-2.172L3224,550.282c10.077,6.612,33.5-.094,22.5-11.977-1.918-2.519-12.792-2.346-10.233-6.144A3.645,3.645,0,0,1,3237.634,530.98Z" transform="translate(-1664.47 3709.956)" fill="url(#linear-gradient-6)"/>
    <path id="Path_891" data-name="Path 891" d="M2997.553,644.615l-8.915,10.883h30.931l2.732-10.883Z" transform="translate(-1493.795 3623.027)" fill="url(#linear-gradient-7)"/>
    <path id="Path_892" data-name="Path 892" d="M3047.235,526.719l-4.026,10.858H3066.8l2.645-10.858Z" transform="translate(-1533.368 3708.522)" fill="url(#linear-gradient-8)"/>
    <path id="Path_893" data-name="Path 893" d="M3046.742,585.5l-7.8,11.027H3056.2l4.466-11.027Z" transform="translate(-1530.271 3665.897)" fill="url(#linear-gradient-9)"/>
    <path id="Path_894" data-name="Path 894" d="M3125.486,657.513h-2.568l-1.645-4.542a13.373,13.373,0,0,1-.546-2.123,7.091,7.091,0,0,1-.187,1.687l-1.283,4.978H3116.7l2.651-10.28h2.982l1.425,3.765a11.079,11.079,0,0,1,.575,1.973,15.432,15.432,0,0,1,.454-2.7l.784-3.042h2.568Z" transform="translate(-1586.66 3621.129)" fill="url(#linear-gradient-10)"/>
    <path id="Path_895" data-name="Path 895" d="M3164.39,649.7l-2.015,7.817h-2.989l2.015-7.817h-2.131l.635-2.463h7.252l-.635,2.463Z" transform="translate(-1617.532 3621.129)" fill="url(#linear-gradient-11)"/>
    <path id="Path_896" data-name="Path 896" d="M3189.954,655.058l-.633,2.455h-7.734l2.65-10.28h7.734l-.612,2.372h-4.639l-.385,1.491h3.751l-.588,2.282h-3.751l-.432,1.679Z" transform="translate(-1633.716 3621.129)" fill="url(#linear-gradient-12)"/>
    <path id="Path_897" data-name="Path 897" d="M3223.426,657.513h-3.5l-.488-3.931h-.995l-1.013,3.931h-3.156l2.65-10.28h5.369a3.335,3.335,0,0,1,2.546.832,2.223,2.223,0,0,1,.417,2.2,4.207,4.207,0,0,1-.766,1.57,4.375,4.375,0,0,1-1.771,1.2Zm-4.414-6.13h1.348a1.991,1.991,0,0,0,1.02-.248,1.143,1.143,0,0,0,.549-.731q.255-.987-.958-.987h-1.453Z" transform="translate(-1657.421 3621.129)" fill="url(#linear-gradient-13)"/>
    <path id="Path_898" data-name="Path 898" d="M3257.159,653.778l-.963,3.735H3253l2.65-10.28h4.391a5.7,5.7,0,0,1,2.4.377,2.094,2.094,0,0,1,1.058,1.152,2.8,2.8,0,0,1,.053,1.74,4.109,4.109,0,0,1-1.636,2.372,4.947,4.947,0,0,1-2.966.9Zm.524-2.207h1.054q1.393,0,1.658-1.024.248-.963-1.039-.964h-1.16Z" transform="translate(-1685.499 3621.129)" fill="url(#linear-gradient-14)"/>
    <path id="Path_899" data-name="Path 899" d="M3294.89,647.233l-2.65,10.28h-3.155l2.65-10.28Z" transform="translate(-1711.67 3621.129)" fill="url(#linear-gradient-15)"/>
    <path id="Path_900" data-name="Path 900" d="M3306.014,654.121l3.065-.527q.049,1.243,1.577,1.242,1.19,0,1.353-.632a.463.463,0,0,0-.142-.516,2.328,2.328,0,0,0-.9-.327q-2.571-.518-3.123-1.354a2.355,2.355,0,0,1-.261-1.966,4.222,4.222,0,0,1,1.726-2.418,5.754,5.754,0,0,1,3.423-.964q3.141,0,3.5,2.523l-2.817.791q-.14-1.032-1.383-1.032-1.032,0-1.2.64a.4.4,0,0,0,.119.444,2.238,2.238,0,0,0,.827.3,15.687,15.687,0,0,1,2.443.69,1.953,1.953,0,0,1,1.03,1.027,2.524,2.524,0,0,1,.077,1.715,4.2,4.2,0,0,1-1.917,2.529,6.49,6.49,0,0,1-3.571.968Q3306.088,657.254,3306.014,654.121Z" transform="translate(-1723.947 3621.546)" fill="url(#linear-gradient-16)"/>
    <path id="Path_901" data-name="Path 901" d="M3349.542,655.058l-.633,2.455h-7.734l2.65-10.28h7.734l-.611,2.372h-4.639l-.384,1.491h3.75l-.588,2.282h-3.75l-.433,1.679Z" transform="translate(-1749.444 3621.129)" fill="url(#linear-gradient-17)"/>
    <path id="Path_902" data-name="Path 902" d="M3372.793,654.121l3.065-.527q.049,1.243,1.578,1.242,1.189,0,1.353-.632a.463.463,0,0,0-.142-.516,2.323,2.323,0,0,0-.9-.327q-2.571-.518-3.123-1.354a2.353,2.353,0,0,1-.262-1.966,4.224,4.224,0,0,1,1.727-2.418,5.751,5.751,0,0,1,3.423-.964q3.139,0,3.5,2.523l-2.817.791q-.14-1.032-1.382-1.032-1.033,0-1.2.64a.4.4,0,0,0,.119.444,2.237,2.237,0,0,0,.826.3,15.647,15.647,0,0,1,2.443.69,1.953,1.953,0,0,1,1.03,1.027,2.525,2.525,0,0,1,.078,1.715,4.2,4.2,0,0,1-1.917,2.529,6.488,6.488,0,0,1-3.571.968Q3372.866,657.254,3372.793,654.121Z" transform="translate(-1772.373 3621.546)" fill="url(#linear-gradient-18)"/>
  </g>
</svg>
