<svg xmlns="http://www.w3.org/2000/svg" xmlns:xlink="http://www.w3.org/1999/xlink" width="276.426" height="87.447" viewBox="0 0 276.426 87.447">
  <defs>
    <clipPath id="clip-path">
      <rect id="Rectangle_287" data-name="Rectangle 287" width="276.426" height="87.447" fill="none"/>
    </clipPath>
  </defs>
  <g id="Anders_Capital" data-name="Anders Capital" clip-path="url(#clip-path)">
    <path id="Path_738" data-name="Path 738" d="M74.31,44.812c-3.628-.074-6.828-2.313-6.8-4.759.022-2.356,2.968-4.19,6.6-4.109,3.651.081,6.826,2.3,6.8,4.755-.028,2.368-2.947,4.189-6.594,4.114" transform="translate(-4.902 -2.61)" fill="#f05d5f"/>
    <path id="Path_739" data-name="Path 739" d="M46.523,50.658c-3.49-.038-5.431-1.475-5.387-3.988.047-2.7,3.067-4.887,6.685-4.847,3,.034,5.563,1.939,5.533,4.12-.035,2.5-3.3,4.753-6.83,4.714" transform="translate(-2.987 -3.037)" fill="#f05d5f"/>
    <path id="Path_740" data-name="Path 740" d="M21.757,48.552c-1.664-.035-3.624-.06-3.764-2.689-.132-2.5,3.254-5.192,6.553-5.1,1.942.056,3.838.526,3.838,3.039,0,2.3-3.23,4.647-6.627,4.747" transform="translate(-1.306 -2.96)" fill="#f05d5f"/>
    <path id="Path_741" data-name="Path 741" d="M6.736,40.892c-1.416-.08-2.823-.249-2.61-2.175.21-1.894,3.8-4.141,6.372-4.081,1.457.033,2.8.272,2.571,2.189-.237,1.986-3.7,4.166-6.333,4.068" transform="translate(-0.298 -2.515)" fill="#f05d5f"/>
    <path id="Path_742" data-name="Path 742" d="M36.831.5c.144.505-.656,1.175-1.784,1.5s-2.161.172-2.3-.334S33.4.49,34.526.169,36.687,0,36.831.5" transform="translate(-2.376 0)" fill="#f05d5f"/>
    <path id="Path_743" data-name="Path 743" d="M25.452,5.148c.229.65-.655,1.553-1.974,2.019s-2.575.314-2.8-.336.656-1.554,1.975-2.019,2.574-.314,2.8.336" transform="translate(-1.498 -0.33)" fill="#f05d5f"/>
    <path id="Path_744" data-name="Path 744" d="M16.018,11.309c.251.712-.718,1.7-2.165,2.213s-2.823.345-3.074-.368.719-1.7,2.165-2.213,2.822-.344,3.073.368" transform="translate(-0.78 -0.773)" fill="#f05d5f"/>
    <path id="Path_745" data-name="Path 745" d="M9.292,18.8c.335.806-.72,2.01-2.356,2.689s-3.233.578-3.568-.228.72-2.01,2.356-2.689S8.958,18,9.292,18.8" transform="translate(-0.24 -1.316)" fill="#f05d5f"/>
    <path id="Path_746" data-name="Path 746" d="M7.777,26.925c.51,1.031-.773,2.706-2.866,3.741S.708,31.7.2,30.674s.773-2.706,2.866-3.741,4.2-1.04,4.713-.008" transform="translate(-0.006 -1.899)" fill="#f05d5f"/>
    <path id="Path_747" data-name="Path 747" d="M6.231,83.562,3.5,91.819H0L8.918,65.571h4.089l8.958,26.248H18.342l-2.8-8.257Zm8.606-2.648-2.57-7.555c-.584-1.714-.974-3.272-1.363-4.791h-.078c-.39,1.558-.818,3.155-1.324,4.752l-2.57,7.593Z" transform="translate(0 -4.761)" fill="#494a4a"/>
    <path id="Path_748" data-name="Path 748" d="M27.842,91.819V65.571h3.7l8.412,13.28a74.348,74.348,0,0,1,4.712,8.528l.078-.039c-.312-3.5-.39-6.7-.39-10.787V65.571h3.193V91.819H44.12L35.786,78.5a83.472,83.472,0,0,1-4.907-8.763l-.117.039c.195,3.311.273,6.465.273,10.826V91.819Z" transform="translate(-2.022 -4.761)" fill="#494a4a"/>
    <path id="Path_749" data-name="Path 749" d="M55.473,65.907a48.512,48.512,0,0,1,7.2-.545c4.868,0,8.334,1.13,10.632,3.271,2.337,2.142,3.7,5.179,3.7,9.424,0,4.284-1.323,7.789-3.777,10.2-2.453,2.454-6.5,3.777-11.605,3.777a54.661,54.661,0,0,1-6.152-.312Zm3.388,23.21a21.393,21.393,0,0,0,3.427.195c7.244,0,11.177-4.05,11.177-11.138C73.5,71.982,70,68.049,62.833,68.049a19.251,19.251,0,0,0-3.972.351Z" transform="translate(-4.028 -4.746)" fill="#494a4a"/>
    <path id="Path_750" data-name="Path 750" d="M97.032,79.513h-10.2v9.463H98.2v2.843H83.441V65.572H97.616v2.842H86.829v8.3h10.2Z" transform="translate(-6.059 -4.761)" fill="#494a4a"/>
    <path id="Path_751" data-name="Path 751" d="M104.1,65.906a35.282,35.282,0,0,1,6.5-.544c3.622,0,5.958.661,7.594,2.141a6.536,6.536,0,0,1,2.063,4.985,6.892,6.892,0,0,1-4.946,6.7V79.3c2.025.7,3.233,2.57,3.856,5.3a41.71,41.71,0,0,0,2.024,7.2h-3.5a33.992,33.992,0,0,1-1.753-6.27c-.779-3.621-2.18-4.985-5.257-5.1h-3.193V91.8H104.1Zm3.388,11.956h3.466c3.622,0,5.92-1.986,5.92-4.985,0-3.388-2.453-4.868-6.036-4.907a13.938,13.938,0,0,0-3.349.312Z" transform="translate(-7.559 -4.746)" fill="#494a4a"/>
    <path id="Path_752" data-name="Path 752" d="M126.123,87.658a12,12,0,0,0,6.075,1.714c3.466,0,5.491-1.831,5.491-4.478,0-2.454-1.4-3.856-4.946-5.218-4.284-1.519-6.932-3.739-6.932-7.439,0-4.089,3.388-7.126,8.489-7.126a11.926,11.926,0,0,1,5.8,1.284l-.935,2.765a10.448,10.448,0,0,0-4.985-1.246c-3.583,0-4.946,2.142-4.946,3.933,0,2.454,1.6,3.66,5.218,5.063,4.439,1.714,6.7,3.855,6.7,7.711,0,4.05-3,7.555-9.19,7.555a13.563,13.563,0,0,1-6.7-1.675Z" transform="translate(-9.096 -4.728)" fill="#494a4a"/>
    <path id="Path_753" data-name="Path 753" d="M174.519,90.928a16.816,16.816,0,0,1-6.932,1.246c-7.4,0-12.968-4.673-12.968-13.28,0-8.217,5.569-13.786,13.708-13.786a14.067,14.067,0,0,1,6.231,1.169l-.818,2.765a12.353,12.353,0,0,0-5.3-1.09c-6.153,0-10.242,3.933-10.242,10.825,0,6.426,3.7,10.554,10.086,10.554a13.576,13.576,0,0,0,5.53-1.09Z" transform="translate(-11.227 -4.728)" fill="#494a4a"/>
    <path id="Path_754" data-name="Path 754" d="M184.912,83.562l-2.727,8.257h-3.5L187.6,65.571h4.089l8.958,26.248h-3.622l-2.8-8.257Zm8.606-2.648-2.57-7.555c-.584-1.714-.974-3.272-1.363-4.791h-.078c-.39,1.558-.818,3.155-1.324,4.752l-2.57,7.593Z" transform="translate(-12.974 -4.761)" fill="#494a4a"/>
    <path id="Path_755" data-name="Path 755" d="M206.523,65.868a39.251,39.251,0,0,1,6.5-.506c3.35,0,5.8.778,7.361,2.18a7.057,7.057,0,0,1,2.3,5.491,7.725,7.725,0,0,1-2.025,5.608c-1.792,1.909-4.712,2.881-8.023,2.881a11.66,11.66,0,0,1-2.726-.234V91.8h-3.388Zm3.388,12.656a11.361,11.361,0,0,0,2.8.273c4.09,0,6.582-1.986,6.582-5.608,0-3.466-2.453-5.141-6.192-5.141a14.217,14.217,0,0,0-3.193.273Z" transform="translate(-14.996 -4.746)" fill="#494a4a"/>
    <rect id="Rectangle_286" data-name="Rectangle 286" width="3.388" height="26.248" transform="translate(212.246 60.81)" fill="#494a4a"/>
    <path id="Path_756" data-name="Path 756" d="M243.65,68.453h-7.983V65.572H255.1v2.881h-8.023V91.819H243.65Z" transform="translate(-17.112 -4.761)" fill="#494a4a"/>
    <path id="Path_757" data-name="Path 757" d="M260.711,83.562l-2.727,8.257h-3.5L263.4,65.571h4.089l8.958,26.248h-3.622l-2.8-8.257Zm8.606-2.648-2.57-7.555c-.584-1.714-.974-3.272-1.363-4.791h-.078c-.389,1.558-.818,3.155-1.324,4.752l-2.57,7.593Z" transform="translate(-18.478 -4.761)" fill="#494a4a"/>
    <path id="Path_758" data-name="Path 758" d="M282.322,65.571h3.388v23.4h11.216v2.843h-14.6Z" transform="translate(-20.499 -4.761)" fill="#494a4a"/>
  </g>
</svg>
