<svg xmlns="http://www.w3.org/2000/svg" xmlns:xlink="http://www.w3.org/1999/xlink" width="160.167" height="47.172" viewBox="0 0 160.167 47.172">
  <defs>
    <clipPath id="clip-path">
      <rect id="Rectangle_293" data-name="Rectangle 293" width="160.167" height="47.172" fill="none"/>
    </clipPath>
  </defs>
  <g id="VIOINOX" clip-path="url(#clip-path)">
    <path id="Path_830" data-name="Path 830" d="M138.607,79.371,129.6,93.743c-.615,1.059-1.667,2.713-2.732,2.713l5.277,10.2,15.922-27.286Z" transform="translate(-100.312 -62.757)" fill="#929292"/>
    <path id="Path_831" data-name="Path 831" d="M288.608,82.207l-4.365,11.328c-1.372-3.755-3.275-8.313-4.4-11.329a.229.229,0,0,0-.218-.149h-2.066a.234.234,0,0,0-.219.317l4.707,12.536c.376.994.771,1.977,2.07,1.994,1.441.019,1.953-.951,2.38-2.135l4.67-12.394a.234.234,0,0,0-.219-.317h-2.12a.234.234,0,0,0-.219.15" transform="translate(-219.275 -64.881)" fill="#6c6c6c"/>
    <path id="Path_832" data-name="Path 832" d="M191.013,22.739c2.9-5.454,6.433-6.685,13.511-5.231-2.087,7.6-8.279,4.283-13.511,5.231" transform="translate(-151.03 -13.398)" fill="#929292"/>
    <path id="Path_833" data-name="Path 833" d="M361.646,81.456a.518.518,0,0,0-.522-.513h-1.9a.521.521,0,0,0-.522.518c-.017,3.7-.017,10.323-.019,14.023a.521.521,0,0,0,.522.521h1.916a.518.518,0,0,0,.522-.516Z" transform="translate(-283.606 -64)" fill="#6c6c6c"/>
    <path id="Path_834" data-name="Path 834" d="M491.574,81.456a.518.518,0,0,0-.522-.513h-1.9a.521.521,0,0,0-.522.518c-.017,3.7-.017,10.323-.019,14.023a.521.521,0,0,0,.522.521h1.916a.518.518,0,0,0,.522-.516Z" transform="translate(-386.337 -64)" fill="#909090"/>
    <path id="Path_835" data-name="Path 835" d="M540.387,81.456a.518.518,0,0,0-.522-.513h-1.9a.52.52,0,0,0-.521.518c-.012,2.587-.016,6.6-.017,10.053L531,82.336a3.271,3.271,0,0,0-2.678-1.393H527.09a.521.521,0,0,0-.522.518c-.017,3.7-.017,10.326-.019,14.025a.519.519,0,0,0,.52.519h1.918a.518.518,0,0,0,.522-.516V85.335c2.176,3.014,5.127,6.861,7.125,9.628a2.519,2.519,0,0,0,2.044,1.042h1.187a.519.519,0,0,0,.522-.516Z" transform="translate(-416.331 -64)" fill="#909090"/>
    <path id="Path_836" data-name="Path 836" d="M629.8,87.4c-.1-4.824-2.722-7.35-7.616-7.328-4.982.022-7.508,2.674-7.465,7.838.039,4.68,2.919,7.675,7.376,7.671,4.947,0,7.808-3.042,7.7-8.181m-2.744.674c-.369,2.759-1.247,5.208-4.8,5.242-3.024.029-5.06-2.279-4.814-5.683.209-2.891,1.176-5.3,4.793-5.279,3.152.017,4.906,2.024,4.825,5.72" transform="translate(-486.042 -63.308)" fill="#909090"/>
    <path id="Path_837" data-name="Path 837" d="M402.6,79.941c-4.99-.159-7.895,2.534-7.986,7.406-.094,5.01,2.625,8.011,7.349,8.115,4.785.105,7.744-2.815,7.795-7.693s-2.5-7.679-7.159-7.828M407,87.9c-.177,2.948-1.27,5.282-4.8,5.315-3.008.028-4.887-2.256-4.794-5.2.278-3.5,1.24-5.827,4.831-5.806,3.093.018,4.978,2.157,4.766,5.692" transform="translate(-312.01 -63.202)" fill="#6c6c6c"/>
    <path id="Path_838" data-name="Path 838" d="M26.556,33.7,22.513,25.37,22.5,25.35,13.092,5.993C10.109.51,4.856-.571,0,.239L14.651,29.993h0L18.545,37.9c3.176,6.441,6.527,8.155,13.288,6L26.556,33.7" transform="translate(0 0)" fill="#686868"/>
    <path id="Path_839" data-name="Path 839" d="M713.341,94.183l-4.929-6.755,4.776-6.869a.817.817,0,0,0,.152-.491h-2.881a.983.983,0,0,0-.809.42c-.928,1.327-1.986,2.845-3.08,4.415l-3.231-4.428a.991.991,0,0,0-.8-.407h-2.807a.747.747,0,0,0,.135.637c1.309,1.807,3.088,4.253,4.916,6.762l-4.775,6.861a.612.612,0,0,0,.467.985h1.833a1.185,1.185,0,0,0,.973-.508L706.625,90l3.526,4.836a1.175,1.175,0,0,0,.952.482h1.325a.967.967,0,0,0,.976-.781.471.471,0,0,0-.063-.35" transform="translate(-553.244 -63.308)" fill="#909090"/>
    <path id="Path_840" data-name="Path 840" d="M304.936,186.316v-2.809h2.389V183.1h-2.389v-2.464H308.1l.108-.721h-4.315v7.123h4.272l.108-.721Z" transform="translate(-240.281 -142.254)" fill="#878787"/>
    <path id="Path_841" data-name="Path 841" d="M335.725,190.285a1.594,1.594,0,0,1,.8-.194,1.235,1.235,0,0,1,.855.366,1.67,1.67,0,0,1,.393,1.259v3.368h-.914v-3.26a1.359,1.359,0,0,0-.188-.791.738.738,0,0,0-.646-.264,1.654,1.654,0,0,0-1.06.6v3.712h-.915v-3.379a1.43,1.43,0,0,0-.549-1.173l.549-.409.882.785a4.345,4.345,0,0,1,.791-.624" transform="translate(-263.694 -150.301)" fill="#878787"/>
    <path id="Path_842" data-name="Path 842" d="M364.048,194.116q0,.205.307.28a5.928,5.928,0,0,0,1.178.075,4.144,4.144,0,0,1,1.4.194.724.724,0,0,1,.527.731,1.846,1.846,0,0,1-.78,1.437,2.916,2.916,0,0,1-1.91.64,2.621,2.621,0,0,1-1.34-.306.966.966,0,0,1-.522-.877,1.265,1.265,0,0,1,.882-1.194.68.68,0,0,1-.5-.683q0-.5.775-1.092a1.433,1.433,0,0,1-.807-1.373,1.647,1.647,0,0,1,.6-1.4,2.164,2.164,0,0,1,1.34-.452,1.939,1.939,0,0,1,1.012.291l.947-.269.215.463-.667.333a1.635,1.635,0,0,1,.2.829,1.775,1.775,0,0,1-.189.834,1.42,1.42,0,0,1-.49.554,2.364,2.364,0,0,1-1.3.387,2.86,2.86,0,0,1-.3-.022,1.006,1.006,0,0,0-.382.237.527.527,0,0,0-.2.387m.893,2.862a2.366,2.366,0,0,0,1.517-.495,1.341,1.341,0,0,0,.624-.99,4.149,4.149,0,0,0-1.533-.226,9.512,9.512,0,0,1-1.361-.064,1.122,1.122,0,0,0-.473.85q0,.925,1.227.925m.823-6.117a.876.876,0,0,0-.732-.414.8.8,0,0,0-.694.377,1.689,1.689,0,0,0-.258.974,1.62,1.62,0,0,0,.29.989.85.85,0,0,0,.7.393q.99,0,.99-1.344a1.631,1.631,0,0,0-.3-.974" transform="translate(-286.944 -150.302)" fill="#878787"/>
    <path id="Path_843" data-name="Path 843" d="M393.959,181.446a.542.542,0,0,1,.156-.393.516.516,0,0,1,.387-.161.555.555,0,0,1,.4.161.521.521,0,0,1,.166.387.555.555,0,0,1-.166.4.528.528,0,0,1-.393.172.52.52,0,0,1-.387-.166.552.552,0,0,1-.161-.4m.107,1.5h.893v4.864h-.893Z" transform="translate(-311.495 -143.027)" fill="#878787"/>
    <path id="Path_844" data-name="Path 844" d="M410.159,190.285a1.594,1.594,0,0,1,.8-.194,1.239,1.239,0,0,1,.856.366,1.671,1.671,0,0,1,.393,1.259v3.368h-.915v-3.26a1.359,1.359,0,0,0-.188-.791.738.738,0,0,0-.645-.264,1.653,1.653,0,0,0-1.06.6v3.712h-.915v-3.379a1.427,1.427,0,0,0-.549-1.173l.549-.409.883.785a4.346,4.346,0,0,1,.791-.624" transform="translate(-322.547 -150.301)" fill="#878787"/>
    <path id="Path_845" data-name="Path 845" d="M438.194,192.438a2.271,2.271,0,0,0,.522,1.674,1.746,1.746,0,0,0,1.27.511,3.282,3.282,0,0,0,1.382-.291v.377a3.407,3.407,0,0,1-1.689.506,2.306,2.306,0,0,1-1.69-.635,2.466,2.466,0,0,1-.645-1.84,2.617,2.617,0,0,1,.715-1.926,2.346,2.346,0,0,1,1.727-.721,1.657,1.657,0,0,1,1.313.619,2.581,2.581,0,0,1,.528,1.727Zm1.043-1.84a1.647,1.647,0,0,0-.645.587,2.343,2.343,0,0,0-.355.931h2.518a1.863,1.863,0,0,0-.209-.775,1.233,1.233,0,0,0-.425-.473,1.685,1.685,0,0,0-.883-.269" transform="translate(-345.799 -150.302)" fill="#878787"/>
    <path id="Path_846" data-name="Path 846" d="M466.155,192.438a2.266,2.266,0,0,0,.523,1.674,1.745,1.745,0,0,0,1.269.511,3.282,3.282,0,0,0,1.382-.291v.377a3.4,3.4,0,0,1-1.689.506,2.305,2.305,0,0,1-1.689-.635,2.467,2.467,0,0,1-.646-1.84,2.613,2.613,0,0,1,.716-1.926,2.345,2.345,0,0,1,1.727-.721,1.657,1.657,0,0,1,1.313.619,2.586,2.586,0,0,1,.527,1.727Zm1.044-1.84a1.649,1.649,0,0,0-.646.587,2.342,2.342,0,0,0-.355.931h2.519a1.879,1.879,0,0,0-.21-.775,1.225,1.225,0,0,0-.425-.473,1.679,1.679,0,0,0-.882-.269" transform="translate(-367.907 -150.302)" fill="#878787"/>
    <path id="Path_847" data-name="Path 847" d="M496.131,194.76h-.9V189.9h.624l.247.9a2.309,2.309,0,0,1,.684-.71,2.23,2.23,0,0,1,.962-.409l.108.742a2.069,2.069,0,0,0-.9.248,3.435,3.435,0,0,0-.823.549Z" transform="translate(-391.565 -149.977)" fill="#878787"/>
    <path id="Path_848" data-name="Path 848" d="M515.478,181.446a.547.547,0,0,1,.156-.393.517.517,0,0,1,.387-.161.553.553,0,0,1,.4.161.522.522,0,0,1,.167.387.556.556,0,0,1-.167.4.527.527,0,0,1-.393.172.521.521,0,0,1-.387-.166.557.557,0,0,1-.161-.4m.108,1.5h.893v4.864h-.893Z" transform="translate(-407.578 -143.027)" fill="#878787"/>
    <path id="Path_849" data-name="Path 849" d="M531.683,190.285a1.594,1.594,0,0,1,.8-.194,1.238,1.238,0,0,1,.855.366,1.67,1.67,0,0,1,.393,1.259v3.368h-.915v-3.26a1.359,1.359,0,0,0-.188-.791.738.738,0,0,0-.645-.264,1.653,1.653,0,0,0-1.06.6v3.712h-.915v-3.379a1.427,1.427,0,0,0-.549-1.173l.549-.409.883.785a4.345,4.345,0,0,1,.791-.624" transform="translate(-418.634 -150.301)" fill="#878787"/>
    <path id="Path_850" data-name="Path 850" d="M560.008,194.116c0,.137.1.23.307.28a5.925,5.925,0,0,0,1.178.075,4.145,4.145,0,0,1,1.4.194.725.725,0,0,1,.527.731,1.844,1.844,0,0,1-.78,1.437,2.912,2.912,0,0,1-1.909.64,2.622,2.622,0,0,1-1.34-.306.966.966,0,0,1-.522-.877,1.266,1.266,0,0,1,.882-1.194.679.679,0,0,1-.494-.683q0-.5.775-1.092a1.433,1.433,0,0,1-.807-1.373,1.647,1.647,0,0,1,.6-1.4,2.164,2.164,0,0,1,1.34-.452,1.937,1.937,0,0,1,1.011.291l.948-.269.215.463-.667.333a1.635,1.635,0,0,1,.2.829,1.786,1.786,0,0,1-.187.834,1.424,1.424,0,0,1-.49.554,2.364,2.364,0,0,1-1.3.387,2.843,2.843,0,0,1-.3-.022,1,1,0,0,0-.382.237.526.526,0,0,0-.2.387m.893,2.862a2.369,2.369,0,0,0,1.517-.495,1.342,1.342,0,0,0,.624-.99,4.154,4.154,0,0,0-1.533-.226,9.5,9.5,0,0,1-1.361-.064,1.12,1.12,0,0,0-.474.85q0,.925,1.226.925m.823-6.117a.875.875,0,0,0-.732-.414.8.8,0,0,0-.693.377,1.683,1.683,0,0,0-.259.974,1.619,1.619,0,0,0,.29.989.851.851,0,0,0,.7.393q.99,0,.991-1.344a1.635,1.635,0,0,0-.3-.974" transform="translate(-441.885 -150.302)" fill="#878787"/>
  </g>
</svg>
