<svg xmlns="http://www.w3.org/2000/svg" xmlns:xlink="http://www.w3.org/1999/xlink" width="321.422" height="180.346" viewBox="0 0 321.422 180.346">
  <defs>
    <clipPath id="clip-path">
      <rect id="Rectangle_174" data-name="Rectangle 174" width="321.422" height="180.346" transform="translate(0 0.002)" fill="none"/>
    </clipPath>
  </defs>
  <g id="Illustration" transform="translate(0 -0.002)" clip-path="url(#clip-path)">
    <path id="Path_254" data-name="Path 254" d="M22.292,179.974s-22.513-17.581-6.815-59.609c9.255-24.777,40.474-20.973,38.895-65.474s27.2-63.9,78.781-43.7c37.227,14.576,93.048-51.376,139.2,31.532,17.8,31.976,48.945,27.833,57.238,86.311,2.267,15.984-1.133,32.719-17.928,50.94Z" transform="translate(-8.793 0.001)" fill="#e7f3fd"/>
    <path id="Path_255" data-name="Path 255" d="M1266.222,416.283l2.693-2a.742.742,0,0,1,.773-.061q.475.243.978.45a12.475,12.475,0,0,0,1.88.612.733.733,0,0,1,.561.607l.532,3.463a.72.72,0,0,0,.765.612l3.2-.211a.712.712,0,0,0,.662-.677l.137-3.223a.715.715,0,0,1,.537-.669,12.951,12.951,0,0,0,3.718-1.689.738.738,0,0,1,.9.072L1285,414.9a.745.745,0,0,0,.985.01l2.38-2.109a.655.655,0,0,0,.126-.142.715.715,0,0,0-.021-.832l-1.489-2.013-.364-.49a12.814,12.814,0,0,0,.807-1.622,13.008,13.008,0,0,0,.71-2.31.714.714,0,0,1,.593-.567l2.79-.425a.74.74,0,0,0,.627-.782l-.161-2.444-.048-.7a.75.75,0,0,0-.716-.7l-2.693-.116a.714.714,0,0,1-.667-.512,12.848,12.848,0,0,0-1.069-2.533,2.258,2.258,0,0,0-.11-.2.405.405,0,0,1-.035-.07.731.731,0,0,1,.132-.8l2.145-2.356a.539.539,0,0,0,.066-.084.743.743,0,0,0-.057-.9l-2.1-2.376a.74.74,0,0,0-.993-.1l-2.808,2.083a.715.715,0,0,1-.809.035,13.08,13.08,0,0,0-1.776-.894q-.5-.2-1-.365a.754.754,0,0,1-.515-.6l-.512-3.328a.719.719,0,0,0-.758-.609l-3.161.213a.752.752,0,0,0-.7.719l-.109,2.55a.738.738,0,0,1-.591.694,12.916,12.916,0,0,0-3.744,1.358.734.734,0,0,1-.857-.1l-2.123-1.934a.759.759,0,0,0-1.009-.008l-2.368,2.091a.725.725,0,0,0-.1.978l.086.118,1.731,2.339a.742.742,0,0,1,.027.846v0a12.859,12.859,0,0,0-1.05,2.02c-.157.382-.292.766-.412,1.155a.728.728,0,0,1-.587.514l-2.832.432a.753.753,0,0,0-.639.793l.21,3.148a.814.814,0,0,0,.063.251.749.749,0,0,0,.642.438l2.151.087a.749.749,0,0,1,.621.394.8.8,0,0,1,.07.195,12.875,12.875,0,0,0,1.967,4.695.724.724,0,0,1,.012.8.733.733,0,0,1-.076.1l-1.739,1.907a.737.737,0,0,0-.009.981l.048.056,2.044,2.317a.75.75,0,0,0,1.006.1m13.688-18.876a8.6,8.6,0,0,1,1.163,1.1,6.768,6.768,0,0,1,1.418,3.4c.008.114.013.227.018.34a6.994,6.994,0,0,1-13.8,2.033,4.564,4.564,0,0,1-.095-.672,7.956,7.956,0,0,1,.277-2.69,6.944,6.944,0,0,1,11.022-3.519" transform="translate(-1116.764 -342.363)" fill="#bfdbef"/>
    <path id="Path_256" data-name="Path 256" d="M1480.265,184.407l2.312-1.253a.583.583,0,0,1,.607.038q.342.241.71.458a9.782,9.782,0,0,0,1.393.683.575.575,0,0,1,.369.533l.031,2.749a.565.565,0,0,0,.526.56l2.506.189a.559.559,0,0,0,.589-.453l.462-2.489a.561.561,0,0,1,.491-.461,10.16,10.16,0,0,0,3.075-.9.579.579,0,0,1,.688.155L1495,185.4a.585.585,0,0,0,.764.116l2.082-1.376a.507.507,0,0,0,.113-.1.561.561,0,0,0,.075-.648l-.934-1.729-.229-.421a10.064,10.064,0,0,0,.806-1.171,10.206,10.206,0,0,0,.807-1.717.561.561,0,0,1,.523-.375l2.214-.023a.581.581,0,0,0,.573-.539l.145-1.916.04-.549a.589.589,0,0,0-.478-.624l-2.08-.388a.56.56,0,0,1-.462-.472,10.077,10.077,0,0,0-.551-2.086,1.8,1.8,0,0,0-.063-.17.31.31,0,0,1-.019-.058.574.574,0,0,1,.191-.607l1.927-1.594a.411.411,0,0,0,.06-.058.583.583,0,0,0,.055-.7l-1.369-2.077a.58.58,0,0,0-.76-.191l-2.411,1.308a.561.561,0,0,1-.633-.062,10.277,10.277,0,0,0-1.281-.89q-.364-.214-.737-.394a.592.592,0,0,1-.333-.526l-.031-2.642a.564.564,0,0,0-.522-.557l-2.48-.183a.59.59,0,0,0-.626.481l-.366,1.969a.579.579,0,0,1-.535.474,10.137,10.137,0,0,0-3.058.642.576.576,0,0,1-.655-.172l-1.436-1.737a.6.6,0,0,0-.783-.118l-2.07,1.363a.569.569,0,0,0-.187.749l.054.1,1.086,2.008a.582.582,0,0,1-.072.66v0a10.066,10.066,0,0,0-1.038,1.454c-.165.279-.311.563-.448.852a.571.571,0,0,1-.513.334l-2.248.023a.591.591,0,0,0-.584.545l-.184,2.469a.64.64,0,0,0,.021.2.588.588,0,0,0,.45.412l1.662.305a.588.588,0,0,1,.439.375.635.635,0,0,1,.033.159,10.1,10.1,0,0,0,1.01,3.864.569.569,0,0,1-.078.62.583.583,0,0,1-.07.069l-1.561,1.289a.578.578,0,0,0-.115.761l.031.049,1.332,2.026a.588.588,0,0,0,.771.19m12.717-13.154a6.771,6.771,0,0,1,.782.986,5.312,5.312,0,0,1,.726,2.8c-.006.09-.015.178-.023.266a5.488,5.488,0,0,1-10.948.056,3.582,3.582,0,0,1,0-.533,6.238,6.238,0,0,1,.512-2.059,5.449,5.449,0,0,1,8.951-1.517" transform="translate(-1309.333 -143.659)" fill="#bfdbef"/>
    <path id="Path_257" data-name="Path 257" d="M2389.272,1051.992l2.855-1.548a.72.72,0,0,1,.75.046q.423.3.876.565a12.067,12.067,0,0,0,1.72.843.711.711,0,0,1,.456.659l.038,3.394a.7.7,0,0,0,.65.691l3.094.233a.689.689,0,0,0,.728-.559l.57-3.073a.692.692,0,0,1,.606-.569,12.55,12.55,0,0,0,3.8-1.113.715.715,0,0,1,.85.191l1.209,1.468a.722.722,0,0,0,.943.144l2.57-1.7a.624.624,0,0,0,.14-.119.692.692,0,0,0,.093-.8l-1.154-2.134-.282-.52a12.432,12.432,0,0,0,.995-1.446,12.581,12.581,0,0,0,1-2.119.693.693,0,0,1,.647-.463l2.734-.028a.718.718,0,0,0,.708-.665l.179-2.366.05-.678a.727.727,0,0,0-.591-.771l-2.568-.479a.692.692,0,0,1-.57-.582,12.453,12.453,0,0,0-.68-2.575c-.022-.075-.05-.14-.078-.21a.364.364,0,0,1-.024-.072.708.708,0,0,1,.235-.75l2.379-1.968a.533.533,0,0,0,.075-.071.721.721,0,0,0,.067-.869l-1.69-2.565a.717.717,0,0,0-.938-.236l-2.978,1.616a.693.693,0,0,1-.781-.077,12.68,12.68,0,0,0-1.582-1.1q-.449-.264-.91-.486a.731.731,0,0,1-.412-.649l-.038-3.262a.7.7,0,0,0-.644-.687l-3.062-.227a.728.728,0,0,0-.773.594l-.452,2.431a.715.715,0,0,1-.661.585,12.521,12.521,0,0,0-3.776.792.711.711,0,0,1-.808-.212l-1.772-2.145a.736.736,0,0,0-.967-.145l-2.556,1.682a.7.7,0,0,0-.231.925l.066.125,1.341,2.479a.718.718,0,0,1-.089.815v0a12.465,12.465,0,0,0-1.282,1.795c-.2.345-.384.695-.553,1.052a.705.705,0,0,1-.634.413l-2.775.028a.729.729,0,0,0-.721.673l-.227,3.049a.792.792,0,0,0,.026.25.727.727,0,0,0,.556.508l2.052.377a.726.726,0,0,1,.542.463.786.786,0,0,1,.041.2,12.471,12.471,0,0,0,1.247,4.771.7.7,0,0,1-.1.765.721.721,0,0,1-.087.085l-1.928,1.592a.714.714,0,0,0-.142.94l.039.06,1.645,2.5a.726.726,0,0,0,.951.235m15.7-16.241a8.341,8.341,0,0,1,.965,1.218,6.558,6.558,0,0,1,.9,3.459c-.007.111-.018.22-.029.328a6.776,6.776,0,0,1-13.518.069,4.4,4.4,0,0,1,0-.658,7.7,7.7,0,0,1,.633-2.543,6.727,6.727,0,0,1,11.052-1.873" transform="translate(-2114.695 -908.433)" fill="#bfdbef"/>
    <path id="Path_258" data-name="Path 258" d="M2556.272,891.3l1.528-.828a.385.385,0,0,1,.4.025q.226.159.469.3a6.472,6.472,0,0,0,.92.451.38.38,0,0,1,.244.352l.021,1.816a.373.373,0,0,0,.348.37l1.656.125a.369.369,0,0,0,.389-.3l.3-1.644a.371.371,0,0,1,.324-.3,6.711,6.711,0,0,0,2.031-.6.382.382,0,0,1,.454.1l.647.785a.386.386,0,0,0,.5.077l1.375-.909a.334.334,0,0,0,.075-.064.37.37,0,0,0,.05-.428l-.617-1.142-.151-.278a6.651,6.651,0,0,0,.532-.774,6.737,6.737,0,0,0,.533-1.134.37.37,0,0,1,.346-.247l1.463-.015a.384.384,0,0,0,.378-.356l.1-1.266.026-.363a.389.389,0,0,0-.316-.412l-1.374-.256a.37.37,0,0,1-.3-.311,6.65,6.65,0,0,0-.364-1.378,1.132,1.132,0,0,0-.041-.113.179.179,0,0,1-.013-.038.378.378,0,0,1,.126-.4l1.273-1.053a.27.27,0,0,0,.04-.038.385.385,0,0,0,.036-.465l-.9-1.372a.383.383,0,0,0-.5-.126l-1.593.864a.371.371,0,0,1-.418-.041,6.772,6.772,0,0,0-.846-.588q-.24-.141-.487-.26a.39.39,0,0,1-.22-.347l-.02-1.745a.373.373,0,0,0-.345-.368l-1.638-.121a.389.389,0,0,0-.413.318l-.242,1.3a.383.383,0,0,1-.354.313,6.694,6.694,0,0,0-2.02.424.38.38,0,0,1-.433-.114l-.948-1.147a.394.394,0,0,0-.518-.078l-1.368.9a.376.376,0,0,0-.124.495l.035.067.718,1.326a.385.385,0,0,1-.048.436v0a6.661,6.661,0,0,0-.686.96c-.108.185-.205.372-.3.563a.376.376,0,0,1-.339.221l-1.485.015a.39.39,0,0,0-.386.36l-.122,1.631a.421.421,0,0,0,.014.133.388.388,0,0,0,.3.272l1.1.2a.388.388,0,0,1,.29.248.412.412,0,0,1,.022.105,6.671,6.671,0,0,0,.667,2.553.376.376,0,0,1-.052.409.428.428,0,0,1-.046.045l-1.031.852a.382.382,0,0,0-.076.5l.021.032.88,1.338a.389.389,0,0,0,.509.126m8.4-8.689a4.452,4.452,0,0,1,.516.651,3.508,3.508,0,0,1,.48,1.851c0,.059-.01.117-.016.176a3.625,3.625,0,0,1-7.232.037,2.346,2.346,0,0,1,0-.352,4.13,4.13,0,0,1,.339-1.361,3.6,3.6,0,0,1,5.913-1" transform="translate(-2264.802 -777.335)" fill="#aec3ff"/>
    <path id="Path_259" data-name="Path 259" d="M306.484,882.84l1.675-.908a.422.422,0,0,1,.44.027q.248.175.514.331a7.081,7.081,0,0,0,1.009.495.417.417,0,0,1,.267.386l.022,1.991a.409.409,0,0,0,.381.405l1.815.137a.4.4,0,0,0,.427-.328l.335-1.8a.406.406,0,0,1,.356-.333,7.367,7.367,0,0,0,2.227-.653.419.419,0,0,1,.5.112l.709.861a.424.424,0,0,0,.553.084l1.508-1a.37.37,0,0,0,.082-.07.407.407,0,0,0,.054-.47l-.677-1.252-.166-.3a7.272,7.272,0,0,0,.583-.848,7.384,7.384,0,0,0,.584-1.243.406.406,0,0,1,.379-.271l1.6-.016a.421.421,0,0,0,.415-.39l.105-1.388.029-.4a.426.426,0,0,0-.346-.452l-1.506-.281a.406.406,0,0,1-.335-.341,7.3,7.3,0,0,0-.4-1.511,1.27,1.27,0,0,0-.046-.123.229.229,0,0,1-.014-.042.416.416,0,0,1,.138-.44l1.4-1.154a.316.316,0,0,0,.044-.042.423.423,0,0,0,.039-.51l-.991-1.5a.421.421,0,0,0-.551-.138l-1.746.948a.406.406,0,0,1-.458-.045,7.421,7.421,0,0,0-.928-.645q-.263-.155-.534-.285a.428.428,0,0,1-.241-.381l-.022-1.914a.409.409,0,0,0-.378-.4l-1.8-.133a.427.427,0,0,0-.453.348l-.265,1.426a.419.419,0,0,1-.388.343,7.339,7.339,0,0,0-2.215.465.417.417,0,0,1-.474-.125L308.7,867.8a.431.431,0,0,0-.567-.085l-1.5.987a.412.412,0,0,0-.136.542l.039.074.787,1.454a.422.422,0,0,1-.052.478v0a7.3,7.3,0,0,0-.752,1.053c-.119.2-.225.408-.324.617a.413.413,0,0,1-.372.242l-1.628.017a.428.428,0,0,0-.423.395l-.133,1.788a.462.462,0,0,0,.015.146.426.426,0,0,0,.326.3l1.2.221a.425.425,0,0,1,.318.271.449.449,0,0,1,.024.115,7.316,7.316,0,0,0,.731,2.8.41.41,0,0,1-.108.5l-1.131.934a.419.419,0,0,0-.083.552l.023.035.965,1.467a.426.426,0,0,0,.558.138m9.211-9.527a4.9,4.9,0,0,1,.566.714,3.846,3.846,0,0,1,.526,2.029c0,.065-.011.129-.017.193a3.975,3.975,0,0,1-7.929.04,2.579,2.579,0,0,1,0-.386,4.522,4.522,0,0,1,.371-1.492,3.946,3.946,0,0,1,6.483-1.1" transform="translate(-269.292 -768.567)" fill="#bfdbef"/>
    <path id="Path_260" data-name="Path 260" d="M1595.739,390.15l4.3-3.081a1.173,1.173,0,0,1,1.222-.077q.744.4,1.532.736a19.692,19.692,0,0,0,2.952,1.016,1.157,1.157,0,0,1,.87.973l.749,5.482a1.137,1.137,0,0,0,1.191.986l5.052-.249a1.124,1.124,0,0,0,1.064-1.051l.3-5.085a1.128,1.128,0,0,1,.865-1.042,20.457,20.457,0,0,0,5.914-2.569,1.165,1.165,0,0,1,1.413.138l2.252,2.129a1.177,1.177,0,0,0,1.555.042l3.813-3.268a1.025,1.025,0,0,0,.2-.221,1.129,1.129,0,0,0-.012-1.314l-2.3-3.218-.562-.783a20.267,20.267,0,0,0,1.316-2.54,20.54,20.54,0,0,0,1.182-3.629,1.128,1.128,0,0,1,.952-.879l4.416-.6a1.169,1.169,0,0,0,1.01-1.219l-.189-3.862-.057-1.107a1.184,1.184,0,0,0-1.111-1.127l-4.25-.255a1.127,1.127,0,0,1-1.04-.826,20.305,20.305,0,0,0-1.622-4.027,3.584,3.584,0,0,0-.168-.324.618.618,0,0,1-.053-.111,1.154,1.154,0,0,1,.229-1.26l3.449-3.664a.861.861,0,0,0,.106-.13,1.174,1.174,0,0,0-.067-1.419l-3.252-3.806a1.168,1.168,0,0,0-1.566-.191l-4.489,3.215a1.129,1.129,0,0,1-1.279.033,20.654,20.654,0,0,0-2.781-1.458q-.78-.337-1.571-.6a1.19,1.19,0,0,1-.8-.967l-.721-5.268a1.136,1.136,0,0,0-1.181-.981l-5,.253a1.187,1.187,0,0,0-1.13,1.117l-.239,4.024a1.166,1.166,0,0,1-.951,1.081,20.4,20.4,0,0,0-5.947,2.045,1.159,1.159,0,0,1-1.35-.18l-3.3-3.11a1.2,1.2,0,0,0-1.593-.039l-3.794,3.238a1.145,1.145,0,0,0-.187,1.542l.132.189,2.671,3.738a1.171,1.171,0,0,1,.021,1.336l0,.005a20.3,20.3,0,0,0-1.71,3.162c-.258.6-.481,1.2-.682,1.813a1.149,1.149,0,0,1-.941.8l-4.483.607a1.189,1.189,0,0,0-1.03,1.235l.25,4.977a1.283,1.283,0,0,0,.092.4,1.184,1.184,0,0,0,1,.709l3.4.194a1.182,1.182,0,0,1,.97.639,1.265,1.265,0,0,1,.106.31,20.324,20.324,0,0,0,2.982,7.464,1.144,1.144,0,0,1,0,1.257,1.173,1.173,0,0,1-.123.154l-2.8,2.965a1.163,1.163,0,0,0-.039,1.549l.075.089,3.167,3.713a1.184,1.184,0,0,0,1.586.187m22.108-29.445a13.61,13.61,0,0,1,1.808,1.774,10.69,10.69,0,0,1,2.15,5.413c.01.181.015.359.02.537.162,10.852-12.546,15.768-19.74,7.437a11.083,11.083,0,0,1-2.109-4.59,7.212,7.212,0,0,1-.132-1.064,12.565,12.565,0,0,1,.508-4.241,10.965,10.965,0,0,1,17.5-5.266" transform="translate(-1405.766 -303.922)" fill="#bfdbef"/>
    <path id="Path_261" data-name="Path 261" d="M495.793,637.352c1.347-6.834,12.812-5.53,12.812-5.53s8.507,11.2,10.762,11.323-5.4-11-5.4-11c4.3-.722,15.713,3.815,15.713,3.815s.26,13.743,2.476,13.307-.851-12.157-.851-12.157c4.28.964,8.535,5.581,8.535,5.581,5.448,7.622-4.621,14.225-4.621,14.225a22.346,22.346,0,0,0,3.508,10h0a16.216,16.216,0,0,1,1.526,2.623l-1.143.08q-.172-.45-.372-.865a.007.007,0,0,0,0-.005l-.006-.012c-.091-.171-.221-.414-.382-.711h0c-.4-.659-.668-1.148-.843-1.5v0c-1.2-2.072-2.9-4.762-3.945-5.279a2.22,2.22,0,0,0,.208-.541l-.208.541c-1.663,4.329-11.4,5.712-16.923,4.976s-3.26-2.44-.5-5.14,8.954-2.473,10.7-3.578-.975-1.9-4.589-1.364-5.176,4.294-11.005,5.264-11.074-9.756-11.074-9.756c4.14.974,11.25-1.77,11.432-3.187s-10.568-.524-12.274-.826-4.875-3.45-3.528-10.284" transform="translate(-439.42 -560.259)" fill="#bfdbef"/>
    <path id="Path_262" data-name="Path 262" d="M1266.724,905.971l-6.064,72.1s-.635,4.371,2.616,4.379c5.346.013,26.606,0,26.606,0s-4.023-.91-3.974-2.957c.057-2.413,7.088-74.207,7.088-74.207Z" transform="translate(-1118.007 -802.879)" fill="#6cb8ea"/>
    <path id="Path_263" data-name="Path 263" d="M1305.306,970.887c-1.051,0-21.358.067-26.563,0-2.269-.028-2.667-2.017-2.685-3.3a6.44,6.44,0,0,1,.069-1.073l.157-1.874.4-4.776.355-4.22.456-5.423.384-4.577,4.309-51.234,26.271-.682s-2.961,30.045-5.055,51.916c-.234,2.437-.456,4.773-.662,6.954q-.1,1.045-.193,2.04c-.194,2.069-.372,3.969-.526,5.647-.082.884-.157,1.706-.224,2.459-.268,2.949-.424,4.833-.426,5.191a3.017,3.017,0,0,0,.051.584c.431,2.3,3.486,2.373,3.881,2.373" transform="translate(-1131.706 -792.622)" fill="#95c8f3"/>
    <path id="Path_264" data-name="Path 264" d="M750.659,564.475l14.771,59.332,2.023,8.126,6.88,27.635H902.143l-25.357-95.093Z" transform="translate(-665.743 -500.619)" fill="#95c8f3"/>
    <path id="Path_265" data-name="Path 265" d="M734.608,564.474l-2.047.682,23,96.475,2.722-2.064Z" transform="translate(-649.692 -500.618)" fill="#6cb8ea"/>
    <path id="Path_266" data-name="Path 266" d="M935.87,1407.164H1062.9l3.508-2.064H938.592Z" transform="translate(-830.003 -1246.151)" fill="#6cb8ea"/>
    <rect id="Rectangle_169" data-name="Rectangle 169" width="27.503" height="1.307" transform="translate(150.475 178.294)" fill="#95c8f3"/>
    <path id="Path_267" data-name="Path 267" d="M1307.627,1423.339l-.142,1-25.865,5.225.355-4.22.169-2Z" transform="translate(-1136.641 -1262.327)" fill="#bfdbef"/>
    <path id="Path_268" data-name="Path 268" d="M1305.312,1511.977c-1.051,0-21.358.067-26.563,0-2.269-.029-2.667-2.017-2.685-3.3l25.743-4.843c-.267,2.949-.424,4.833-.426,5.191a3.018,3.018,0,0,0,.051.584c.431,2.3,3.486,2.373,3.881,2.373" transform="translate(-1131.712 -1333.711)" fill="#bfdbef"/>
    <path id="Path_269" data-name="Path 269" d="M962.138,1169.187l-56.146,19.251-6.88-27.635Z" transform="translate(-797.403 -1029.488)" fill="#bfdbef"/>
    <path id="Path_270" data-name="Path 270" d="M750.657,564.474H876.785L897.094,640.9H769.69Z" transform="translate(-665.741 -500.618)" fill="#e7f3fd"/>
    <path id="Path_271" data-name="Path 271" d="M795.594,588.476l18.118,69.618H930.839l-18.318-68.817Z" transform="translate(-705.595 -521.905)" fill="#e7f3fd"/>
    <rect id="Rectangle_170" data-name="Rectangle 170" width="44.303" height="27.954" transform="translate(132.397 108.234)" fill="#e69644"/>
    <rect id="Rectangle_171" data-name="Rectangle 171" width="44.302" height="27.953" transform="translate(154.55 108.235)" fill="#f2a63f"/>
    <path id="Path_272" data-name="Path 272" d="M1192.755,960.9l-9.339,9.338h-12.787V956.769h22.125Z" transform="translate(-1038.205 -848.536)" fill="#d8873d"/>
    <path id="Path_273" data-name="Path 273" d="M1092.31,956.769l-9.96,9.612h22.165l9.946-9.612Z" transform="translate(-959.912 -848.536)" fill="#f2a63f"/>
    <path id="Path_274" data-name="Path 274" d="M1410.521,957.766l-44.3-.99v3.541h0v.579l8.237,9.032h36.065v-8.991l-.228-.268h.229Z" transform="translate(-1211.669 -848.542)" fill="#e69644"/>
    <path id="Path_275" data-name="Path 275" d="M1366.219,956.769l8.766,9.612H1418.7l-8.18-9.612Z" transform="translate(-1211.67 -848.536)" fill="#f2a63f"/>
    <path id="Path_276" data-name="Path 276" d="M589.527,899.183a3.087,3.087,0,0,0-3.443-3.357,4.407,4.407,0,0,1,1.725.925,4.436,4.436,0,0,0-5,.754c-2.6,2.158-.986,7.57-1.777,8.6s-3.875,1.233-3.5,4.556,9.784,7.484,9.18,10.234c0,0,3.687-5.419,1.051-7.893a4.886,4.886,0,0,1,1.416,2.649s.349-2.809-1.439-3.707a6.6,6.6,0,0,1-2.74-4.223c.137-.52,4.522-8.535,4.522-8.535" transform="translate(-512.177 -794.487)" fill="#123b8c"/>
    <path id="Path_277" data-name="Path 277" d="M619.975,1067.986s2.8,11.592,5.553,13.91c1.653,1.393,6.569,4.589,6.569,4.589l-2.045.742s-6.819-2.3-8.345-4.1S616,1072.342,616,1072.342Z" transform="translate(-546.318 -947.172)" fill="#ffb27d"/>
    <path id="Path_278" data-name="Path 278" d="M659.686,1233.509l-.659-1.631a4.626,4.626,0,0,0-4.289-2.893H642.591V1269.6h50.251v-32.908H664.406a5.09,5.09,0,0,1-4.72-3.184" transform="translate(-569.9 -1089.958)" fill="#f2a63f"/>
    <path id="Path_279" data-name="Path 279" d="M709.6,1389.1v-2.928l10.269-4.5v2.992l-7.171,2.949,7.171,2.949v3.034Z" transform="translate(-629.326 -1225.379)" fill="#fff"/>
    <path id="Path_280" data-name="Path 280" d="M821.022,1350.732h2.737l-9.4,19.647h-2.737Z" transform="translate(-719.811 -1197.933)" fill="#fff"/>
    <path id="Path_281" data-name="Path 281" d="M939.3,1386.177v2.928l-10.269,4.5v-2.991l7.171-2.949-7.171-2.949v-3.034Z" transform="translate(-823.937 -1225.379)" fill="#fff"/>
    <path id="Path_282" data-name="Path 282" d="M404.625,1162.109l.077.136c.613,1.066,2.02,3.677,3.569,6.535.733,1.356,1.5,2.768,2.228,4.1,1.254,2.292,2.4,4.333,3.061,5.412.677,1.1,1.175,1.867,1.377,2.176l0,0a.51.51,0,0,1,.066.318,16.639,16.639,0,0,0,.044,2.874,22.049,22.049,0,0,0,7.2,14.28l1.864.275s-2.638-9.773-3.415-15.3a10.621,10.621,0,0,1-.143-2.19,22.883,22.883,0,0,0-.6-5.979,134,134,0,0,0-3.812-13.841c-.087-.27-2.708-9.753-2.708-9.753-2.2,1.923-10.226,2.717-10.226,2.717s-1.361,3.308,1.413,8.242" transform="translate(-357.304 -1020.929)" fill="#123b8c"/>
    <path id="Path_283" data-name="Path 283" d="M563.887,1554.09h-7.78a4.271,4.271,0,0,1,.22-2.085c.389-.863.944-.891.071-2.244a4.739,4.739,0,0,0,3.208.568,9.535,9.535,0,0,0,1.349,2.053c.508.365,2.776.235,2.932,1.708" transform="translate(-493.161 -1374.447)" fill="#102e62"/>
    <path id="Path_284" data-name="Path 284" d="M418.321,1212.057l.077.136c.613,1.066,3.929,7.191,5.479,10.048a41.433,41.433,0,0,1-.547-14.772Z" transform="translate(-371 -1070.877)" fill="#102e62"/>
    <path id="Path_285" data-name="Path 285" d="M626.827,920.9a31.2,31.2,0,0,0-4.671,2.284c-2.108,2.338-1.507,5.389-.3,5.419.773.019.624,1.3.624,1.3l8.617-3.646s-1.038-6.05-4.269-5.362" transform="translate(-550.539 -816.678)" fill="#123b8c"/>
    <path id="Path_286" data-name="Path 286" d="M613.242,1052.6a11.039,11.039,0,0,1,1.148,4.746,8.246,8.246,0,0,1-5.682,3.128s3.526-7.876,4.534-7.874" transform="translate(-539.85 -933.523)" fill="#e69644"/>
    <path id="Path_287" data-name="Path 287" d="M318.835,1141.718l.026-1.455c-2.9.366-10-3.465-10-3.465s-3.033,2.017-3.448,7.778c-.2,2.812-1.485,14.7-1.627,18.255-.052,1.287-.069,2.205-.075,2.573a.006.006,0,0,1,0,0,.5.5,0,0,1-.123.3,16.64,16.64,0,0,0-1.571,2.408c-4.424,8.231-2.11,19.415-2.11,19.415l1.027-.261s3.741-11.594,6.185-16.609a10.482,10.482,0,0,1,1.107-1.9,22.873,22.873,0,0,0,2.844-5.294c1.806-4.314,7.76-21.752,7.76-21.752" transform="translate(-265.448 -1008.199)" fill="#123b8c"/>
    <path id="Path_288" data-name="Path 288" d="M298.012,1553.65h-7.78a4.272,4.272,0,0,1,.22-2.085c.389-.863,1-1.255.853-2.3a2.8,2.8,0,0,0,2.425.928,8.546,8.546,0,0,0,1.35,1.75c.509.365,2.776.235,2.932,1.708" transform="translate(-257.363 -1374.007)" fill="#102e62"/>
    <path id="Path_289" data-name="Path 289" d="M406.295,1027.571c-1.045.178.171,1.009-1.267,1.165a25.982,25.982,0,0,0-5.264.817,1.189,1.189,0,0,0-.758.614c-.479,1.442-3.517,3.92-3.517,3.92-13.547-.617-14.42-6.655-14.42-6.655,8.792-8.539,16.272-13.194,22.454-13.77a11,11,0,0,1,4.484.472c2.162.963,3.347,3.892,3.347,3.892s-1.089,8.867-5.06,9.544" transform="translate(-337.962 -898.953)" fill="#e69644"/>
    <path id="Path_290" data-name="Path 290" d="M551.25,1060.86a25.99,25.99,0,0,0-5.264.817,21.573,21.573,0,0,1,2.736-11.839s2.08,8.465,2.528,11.021" transform="translate(-484.184 -931.077)" fill="#d8873d"/>
    <path id="Path_291" data-name="Path 291" d="M559.469,1039.681s-5.144-.281-6.059,2.949,1.715,16.122,2.282,17.453c1.031,2.423,6.053,9.337,6.053,9.337l1.847-.562s-3.348-10.563-4.1-11.608c-1.174-1.641,1.513-16.163-.027-17.568" transform="translate(-490.638 -922.063)" fill="#ffb27d"/>
    <path id="Path_292" data-name="Path 292" d="M629.281,1295.883a2.907,2.907,0,0,0,.441,1.242c.346.423,1.353,1.446,1.371,2.045,0,0-.051.266-.267.217s-.966-.791-1.351-.738a7.458,7.458,0,0,0,.409,1.538,4.4,4.4,0,0,1-.081,2.063c-.122.292-1.623-1.566-2.24-2.4s-.01-4.2-.01-4.2Z" transform="translate(-556.327 -1149.089)" fill="#ffb27d"/>
    <path id="Path_293" data-name="Path 293" d="M545.942,1039.469c.013.076,4.868.893,7.9-.648,0,0,2.537-7.947-1.088-7.567s-5.772,1.522-5.863,3.258a33.4,33.4,0,0,1-.953,4.957" transform="translate(-484.184 -914.583)" fill="#e69644"/>
    <path id="Path_294" data-name="Path 294" d="M617.969,998.8c.387,1.211,1.676,4.663,3.463,3.335a4.411,4.411,0,0,1,.757-1.767c.566-.972,1.24-1.966,1.24-1.966l-2.912-2.551-.174-.152a7.42,7.42,0,0,1-2.166,2.459.581.581,0,0,0-.208.643" transform="translate(-548.039 -883.059)" fill="#ffb27d"/>
    <path id="Path_295" data-name="Path 295" d="M643.2,999.6s-.673.992-1.239,1.965c-1.81-1.116-1.812-3.356-1.672-4.517Z" transform="translate(-567.809 -884.254)" fill="#ed985f"/>
    <path id="Path_296" data-name="Path 296" d="M642.332,960.081s-4.394-2.445-2.83-5.158,2.052-4.856,4.924-3.409,2.815,2.793,2.513,3.826-3.424,5.308-4.607,4.742" transform="translate(-566.862 -843.461)" fill="#ffb27d"/>
    <path id="Path_297" data-name="Path 297" d="M644.061,950.875c-.2-1.2-.813-1.32-1.24-1.239A3.514,3.514,0,0,0,638.546,948a5.984,5.984,0,0,1-3.463,2.08s.51.949,2.611,1.536a3.591,3.591,0,0,0,2.073-.166,11.731,11.731,0,0,1-2.982,1.124c2.769.253,5.4-2.278,5.676-2.549a3.94,3.94,0,0,1,.218,1.814c-.182.816-.907,2.294-.464,2.485,0,0,2.148-1.643,1.846-3.45" transform="translate(-563.241 -840.58)" fill="#123b8c"/>
    <path id="Path_298" data-name="Path 298" d="M760.328,1230.919s-1.226.92-.3,1.521,2.574.764,2.581.369c.023-1.324-.638-2.266-2.279-1.89" transform="translate(-673.744 -1091.599)" fill="#ffb27d"/>
    <path id="Path_299" data-name="Path 299" d="M315.465,1588.41H.338a.339.339,0,0,1-.338-.338V1588a.339.339,0,0,1,.338-.338H315.465a.339.339,0,0,1,.338.338v.071a.339.339,0,0,1-.338.338" transform="translate(0 -1408.062)" fill="#2f50c2"/>
    <path id="Path_300" data-name="Path 300" d="M922,777.053c-.143-.589.115-1.051.661-1.052a1.284,1.284,0,0,1,1.164,1.049c.143.589-.112,1.051-.661,1.052A1.279,1.279,0,0,1,922,777.053m1.361,0c-.089-.368-.338-.647-.608-.646s-.381.271-.289.648.336.647.608.646.38-.273.289-.648" transform="translate(-817.666 -688.216)" fill="#f99746"/>
    <path id="Path_301" data-name="Path 301" d="M848.519,646.822l-.337.088-.182-.366.547-.175h.308l.5,2.045h-.446Z" transform="translate(-752.073 -573.248)" fill="#94b0ed"/>
    <path id="Path_302" data-name="Path 302" d="M866.435,647.212c-.143-.589.115-1.051.661-1.052a1.284,1.284,0,0,1,1.164,1.049c.143.589-.112,1.051-.661,1.052a1.279,1.279,0,0,1-1.164-1.049m1.361,0c-.089-.368-.339-.647-.608-.646s-.381.271-.289.648.336.647.608.646.38-.274.289-.648" transform="translate(-768.388 -573.063)" fill="#94b0ed"/>
    <path id="Path_303" data-name="Path 303" d="M1180.4,646.218l-.337.088-.182-.365.547-.175h.308l.5,2.046h-.446Z" transform="translate(-1046.414 -572.713)" fill="#94b0ed"/>
    <path id="Path_304" data-name="Path 304" d="M1198.32,646.609c-.143-.589.115-1.051.661-1.052a1.284,1.284,0,0,1,1.163,1.049c.143.589-.112,1.051-.661,1.052a1.278,1.278,0,0,1-1.164-1.049m1.361,0c-.089-.369-.339-.647-.608-.646s-.38.271-.289.648.336.647.608.646.38-.274.289-.648" transform="translate(-1062.73 -572.529)" fill="#94b0ed"/>
    <path id="Path_305" data-name="Path 305" d="M1222.434,646.568c-.143-.589.115-1.051.661-1.052a1.284,1.284,0,0,1,1.163,1.049c.143.589-.112,1.051-.661,1.052a1.279,1.279,0,0,1-1.164-1.049m1.361,0c-.089-.369-.339-.647-.609-.646s-.381.271-.289.648.336.647.609.646.38-.274.289-.648" transform="translate(-1084.116 -572.492)" fill="#94b0ed"/>
    <path id="Path_306" data-name="Path 306" d="M1345.768,646.609c-.143-.589.115-1.051.661-1.052a1.284,1.284,0,0,1,1.164,1.049c.142.589-.112,1.051-.661,1.052a1.278,1.278,0,0,1-1.164-1.049m1.361,0c-.089-.369-.339-.647-.608-.646s-.38.271-.289.648.336.647.609.646.38-.274.289-.648" transform="translate(-1193.498 -572.529)" fill="#94b0ed"/>
    <path id="Path_307" data-name="Path 307" d="M1369.882,646.568c-.143-.589.115-1.051.661-1.052a1.284,1.284,0,0,1,1.164,1.049c.143.589-.112,1.051-.661,1.052a1.279,1.279,0,0,1-1.164-1.049m1.361,0c-.089-.369-.339-.647-.608-.646s-.381.271-.289.648.336.647.608.646.38-.274.289-.648" transform="translate(-1214.884 -572.492)" fill="#94b0ed"/>
    <path id="Path_308" data-name="Path 308" d="M1394,646.527c-.143-.589.115-1.051.661-1.052a1.284,1.284,0,0,1,1.163,1.049c.143.589-.112,1.051-.661,1.052a1.279,1.279,0,0,1-1.164-1.049m1.361,0c-.089-.368-.339-.647-.609-.646s-.38.271-.289.648.336.647.608.646.38-.273.289-.648" transform="translate(-1236.271 -572.456)" fill="#94b0ed"/>
    <path id="Path_309" data-name="Path 309" d="M1561.65,646.118c-.143-.589.115-1.051.661-1.052a1.284,1.284,0,0,1,1.164,1.049c.143.589-.112,1.051-.661,1.052a1.278,1.278,0,0,1-1.164-1.049m1.361,0c-.089-.368-.339-.647-.608-.646s-.38.271-.289.648.335.647.608.646.38-.274.289-.648" transform="translate(-1384.959 -572.093)" fill="#94b0ed"/>
    <path id="Path_310" data-name="Path 310" d="M1584.728,646.079c-.143-.589.115-1.051.661-1.052a1.284,1.284,0,0,1,1.164,1.049c.143.589-.112,1.051-.661,1.052a1.279,1.279,0,0,1-1.164-1.049m1.361,0c-.089-.369-.338-.647-.608-.646s-.38.271-.289.648.335.647.608.646.38-.274.289-.648" transform="translate(-1405.427 -572.058)" fill="#94b0ed"/>
    <path id="Path_311" data-name="Path 311" d="M1609.829,646.037c-.143-.589.115-1.051.661-1.052a1.284,1.284,0,0,1,1.164,1.049c.142.589-.113,1.051-.661,1.052a1.278,1.278,0,0,1-1.163-1.049m1.361,0c-.089-.368-.339-.647-.609-.646s-.381.271-.289.648.336.647.609.646.38-.274.289-.648" transform="translate(-1427.688 -572.021)" fill="#94b0ed"/>
    <path id="Path_312" data-name="Path 312" d="M1650.826,645.968c-.143-.589.115-1.051.661-1.052a1.284,1.284,0,0,1,1.163,1.049c.143.589-.112,1.051-.661,1.052a1.278,1.278,0,0,1-1.164-1.049m1.361,0c-.089-.369-.339-.647-.608-.646s-.381.271-.289.648.336.647.608.646.38-.273.289-.648" transform="translate(-1464.047 -571.96)" fill="#94b0ed"/>
    <path id="Path_313" data-name="Path 313" d="M1673.024,645.509l-.337.088-.182-.365.547-.175h.308l.5,2.045h-.446Z" transform="translate(-1483.308 -572.084)" fill="#94b0ed"/>
    <path id="Path_314" data-name="Path 314" d="M1690.94,645.9c-.143-.589.115-1.051.661-1.052a1.284,1.284,0,0,1,1.164,1.049c.143.589-.112,1.051-.661,1.052a1.278,1.278,0,0,1-1.164-1.049m1.361,0c-.089-.368-.339-.647-.608-.646s-.381.271-.289.648.336.647.608.646.38-.273.289-.648" transform="translate(-1499.623 -571.9)" fill="#94b0ed"/>
    <path id="Path_315" data-name="Path 315" d="M1731.125,645.792c-.143-.589.115-1.051.661-1.052a1.284,1.284,0,0,1,1.164,1.049c.143.589-.112,1.051-.661,1.052a1.278,1.278,0,0,1-1.164-1.049m1.361,0c-.089-.369-.339-.647-.608-.646s-.381.271-.289.648.336.647.608.646.38-.274.289-.648" transform="translate(-1535.263 -571.804)" fill="#94b0ed"/>
    <path id="Path_316" data-name="Path 316" d="M1035.682,686.025c-.142-.589.115-1.051.661-1.052a1.284,1.284,0,0,1,1.163,1.049c.143.589-.112,1.051-.661,1.052a1.279,1.279,0,0,1-1.164-1.049m1.361,0c-.089-.368-.339-.647-.608-.646s-.381.271-.289.648.335.647.608.646.38-.273.289-.648" transform="translate(-918.49 -607.486)" fill="#94b0ed"/>
    <path id="Path_317" data-name="Path 317" d="M1059.8,685.985c-.143-.589.115-1.051.661-1.052a1.284,1.284,0,0,1,1.164,1.049c.142.589-.112,1.051-.661,1.052a1.279,1.279,0,0,1-1.164-1.049m1.361,0c-.089-.368-.339-.647-.609-.646s-.38.271-.289.648.336.647.608.646.38-.274.289-.648" transform="translate(-939.878 -607.45)" fill="#94b0ed"/>
    <path id="Path_318" data-name="Path 318" d="M1660.289,685.05c-.143-.589.115-1.051.661-1.052a1.284,1.284,0,0,1,1.164,1.049c.143.589-.112,1.051-.661,1.052a1.278,1.278,0,0,1-1.163-1.049m1.361,0c-.089-.369-.339-.647-.608-.646s-.381.271-.289.648.336.647.608.646.38-.274.289-.648" transform="translate(-1472.44 -606.621)" fill="#94b0ed"/>
    <path id="Path_319" data-name="Path 319" d="M1682.487,684.591l-.337.088-.182-.365.547-.175h.308l.5,2.045h-.446Z" transform="translate(-1491.701 -606.745)" fill="#94b0ed"/>
    <path id="Path_320" data-name="Path 320" d="M1700.4,684.982c-.143-.589.115-1.051.661-1.052a1.284,1.284,0,0,1,1.164,1.049c.143.589-.112,1.051-.661,1.052a1.278,1.278,0,0,1-1.163-1.049m1.361,0c-.089-.368-.338-.647-.608-.646s-.381.271-.289.648.336.647.609.646.38-.273.289-.648" transform="translate(-1508.016 -606.561)" fill="#94b0ed"/>
    <path id="Path_321" data-name="Path 321" d="M1788.82,684.793c-.143-.589.115-1.051.661-1.052a1.284,1.284,0,0,1,1.164,1.049c.142.589-.113,1.051-.661,1.052a1.278,1.278,0,0,1-1.164-1.049m1.361,0c-.089-.369-.339-.647-.608-.646s-.38.271-.289.648.336.647.608.646.38-.274.289-.648" transform="translate(-1586.431 -606.393)" fill="#94b0ed"/>
    <path id="Path_322" data-name="Path 322" d="M1811.019,684.334l-.337.088-.182-.366.547-.175h.308l.5,2.045h-.446Z" transform="translate(-1605.692 -606.517)" fill="#94b0ed"/>
    <path id="Path_323" data-name="Path 323" d="M1015.4,897.027c-.143-.589.115-1.051.661-1.052a1.284,1.284,0,0,1,1.164,1.049c.143.589-.113,1.051-.661,1.052a1.279,1.279,0,0,1-1.164-1.049m1.361,0c-.089-.369-.339-.647-.608-.646s-.38.271-.289.648.336.646.608.646.38-.273.289-.648" transform="translate(-900.497 -794.619)" fill="#94b0ed"/>
    <path id="Path_324" data-name="Path 324" d="M1039.51,896.987c-.143-.589.115-1.051.661-1.052a1.284,1.284,0,0,1,1.164,1.049c.143.589-.112,1.051-.661,1.052a1.278,1.278,0,0,1-1.164-1.049m1.361,0c-.089-.369-.339-.647-.609-.646s-.381.271-.289.648.336.647.609.646.38-.273.289-.648" transform="translate(-921.884 -794.583)" fill="#94b0ed"/>
    <path id="Path_325" data-name="Path 325" d="M1061.709,896.529l-.337.088-.182-.365.547-.175h.308l.5,2.045h-.446Z" transform="translate(-941.146 -794.708)" fill="#94b0ed"/>
    <path id="Path_326" data-name="Path 326" d="M1103.74,896.879c-.142-.589.115-1.051.661-1.052a1.284,1.284,0,0,1,1.164,1.049c.143.589-.112,1.051-.661,1.052a1.279,1.279,0,0,1-1.164-1.049m1.361,0c-.089-.369-.339-.647-.609-.646s-.38.271-.289.648.336.647.608.646.38-.273.289-.648" transform="translate(-978.849 -794.488)" fill="#94b0ed"/>
    <path id="Path_327" data-name="Path 327" d="M1127.855,896.838c-.142-.589.115-1.051.661-1.052a1.284,1.284,0,0,1,1.163,1.049c.143.589-.112,1.051-.661,1.052a1.279,1.279,0,0,1-1.164-1.049m1.361,0c-.089-.369-.339-.647-.608-.646s-.38.271-.289.648.336.647.608.646.38-.273.289-.648" transform="translate(-1000.236 -794.451)" fill="#94b0ed"/>
    <path id="Path_328" data-name="Path 328" d="M1151.972,896.8c-.143-.589.115-1.051.661-1.052a1.284,1.284,0,0,1,1.164,1.049c.143.589-.112,1.051-.661,1.052a1.278,1.278,0,0,1-1.163-1.049m1.361,0c-.089-.368-.339-.647-.608-.646s-.38.271-.289.648.336.647.608.646.38-.274.289-.648" transform="translate(-1021.624 -794.416)" fill="#94b0ed"/>
    <path id="Path_329" data-name="Path 329" d="M1453.03,897.027c-.143-.589.115-1.051.661-1.052a1.284,1.284,0,0,1,1.164,1.049c.142.589-.113,1.051-.661,1.052a1.278,1.278,0,0,1-1.164-1.049m1.361,0c-.089-.369-.339-.647-.608-.646s-.381.271-.289.648.336.646.608.646.38-.273.289-.648" transform="translate(-1288.626 -794.619)" fill="#94b0ed"/>
    <path id="Path_330" data-name="Path 330" d="M1477.144,896.987c-.143-.589.115-1.051.661-1.052a1.284,1.284,0,0,1,1.164,1.049c.143.589-.112,1.051-.661,1.052a1.278,1.278,0,0,1-1.164-1.049m1.361,0c-.089-.369-.339-.647-.609-.646s-.38.271-.289.648.335.647.608.646.38-.273.289-.648" transform="translate(-1310.012 -794.583)" fill="#94b0ed"/>
    <path id="Path_331" data-name="Path 331" d="M1499.343,896.529l-.337.088-.182-.365.547-.175h.308l.5,2.045h-.446Z" transform="translate(-1329.274 -794.708)" fill="#94b0ed"/>
    <path id="Path_332" data-name="Path 332" d="M1614.7,897.027c-.143-.589.115-1.051.661-1.052a1.284,1.284,0,0,1,1.164,1.049c.142.589-.113,1.051-.661,1.052a1.278,1.278,0,0,1-1.163-1.049m1.361,0c-.089-.369-.339-.647-.609-.646s-.381.271-.289.648.336.646.609.646.38-.273.289-.648" transform="translate(-1432.012 -794.619)" fill="#94b0ed"/>
    <path id="Path_333" data-name="Path 333" d="M1638.82,896.987c-.143-.589.115-1.051.661-1.052a1.284,1.284,0,0,1,1.164,1.049c.143.589-.112,1.051-.661,1.052a1.278,1.278,0,0,1-1.163-1.049m1.361,0c-.089-.369-.338-.647-.608-.646s-.381.271-.289.648.336.647.608.646.38-.273.289-.648" transform="translate(-1453.399 -794.583)" fill="#94b0ed"/>
    <path id="Path_334" data-name="Path 334" d="M1661.017,896.529l-.337.088-.182-.365.547-.175h.308l.5,2.045h-.446Z" transform="translate(-1472.66 -794.708)" fill="#94b0ed"/>
    <path id="Path_335" data-name="Path 335" d="M1541.374,896.879c-.143-.589.115-1.051.661-1.052a1.284,1.284,0,0,1,1.164,1.049c.143.589-.112,1.051-.661,1.052a1.279,1.279,0,0,1-1.164-1.049m1.361,0c-.089-.369-.339-.647-.608-.646s-.38.271-.289.648.335.647.608.646.38-.273.289-.648" transform="translate(-1366.977 -794.488)" fill="#94b0ed"/>
    <path id="Path_336" data-name="Path 336" d="M1565.49,896.838c-.143-.589.115-1.051.661-1.052a1.284,1.284,0,0,1,1.164,1.049c.143.589-.113,1.051-.661,1.052a1.278,1.278,0,0,1-1.164-1.049m1.361,0c-.089-.369-.338-.647-.608-.646s-.381.271-.289.648.336.647.608.646.38-.273.289-.648" transform="translate(-1388.365 -794.451)" fill="#94b0ed"/>
    <path id="Path_337" data-name="Path 337" d="M1589.605,896.8c-.143-.589.115-1.051.661-1.052a1.284,1.284,0,0,1,1.164,1.049c.142.589-.112,1.051-.661,1.052a1.278,1.278,0,0,1-1.164-1.049m1.361,0c-.089-.368-.339-.647-.609-.646s-.38.271-.289.648.336.647.608.646.38-.274.289-.648" transform="translate(-1409.752 -794.416)" fill="#94b0ed"/>
    <path id="Path_338" data-name="Path 338" d="M1234.444,896.392c-.143-.589.115-1.051.661-1.052a1.284,1.284,0,0,1,1.164,1.049c.143.589-.112,1.051-.661,1.052a1.279,1.279,0,0,1-1.164-1.049m1.361,0c-.089-.369-.339-.647-.608-.646s-.381.271-.289.648.336.647.608.646.38-.273.289-.648" transform="translate(-1094.768 -794.056)" fill="#94b0ed"/>
    <path id="Path_339" data-name="Path 339" d="M1256.644,895.933l-.337.088-.182-.365.547-.175h.308l.5,2.045h-.446Z" transform="translate(-1114.029 -794.18)" fill="#94b0ed"/>
    <path id="Path_340" data-name="Path 340" d="M1274.559,896.324c-.143-.589.115-1.051.661-1.052a1.284,1.284,0,0,1,1.164,1.049c.143.589-.112,1.051-.661,1.052a1.278,1.278,0,0,1-1.164-1.049m1.361,0c-.089-.369-.339-.647-.609-.646s-.38.271-.289.648.336.647.609.646.38-.273.289-.648" transform="translate(-1130.345 -793.995)" fill="#94b0ed"/>
    <path id="Path_341" data-name="Path 341" d="M1751.536,895.823c-.143-.589.115-1.051.661-1.052a1.284,1.284,0,0,1,1.164,1.049c.143.589-.112,1.051-.661,1.052a1.278,1.278,0,0,1-1.163-1.049m1.361,0c-.089-.369-.339-.647-.608-.646s-.381.271-.289.648.336.646.608.646.38-.274.289-.648" transform="translate(-1553.364 -793.551)" fill="#94b0ed"/>
    <path id="Path_342" data-name="Path 342" d="M1773.734,895.365l-.337.088-.182-.365.547-.175h.308l.5,2.046h-.446Z" transform="translate(-1572.626 -793.676)" fill="#94b0ed"/>
    <path id="Path_343" data-name="Path 343" d="M1791.65,895.756c-.143-.589.115-1.051.661-1.052a1.284,1.284,0,0,1,1.164,1.049c.143.589-.112,1.051-.661,1.052a1.278,1.278,0,0,1-1.164-1.049m1.361,0c-.089-.369-.339-.647-.608-.646s-.38.271-.289.648.335.647.608.646.38-.274.289-.648" transform="translate(-1588.941 -793.492)" fill="#94b0ed"/>
    <path id="Path_344" data-name="Path 344" d="M868.976,731.3l-.337.088-.182-.365.547-.175h.308l.5,2.045h-.446Z" transform="translate(-770.215 -648.173)" fill="#94b0ed"/>
    <path id="Path_345" data-name="Path 345" d="M886.891,731.694c-.143-.589.115-1.051.661-1.052a1.284,1.284,0,0,1,1.164,1.049c.143.589-.112,1.051-.661,1.052a1.278,1.278,0,0,1-1.164-1.049m1.361,0c-.089-.368-.339-.647-.609-.646s-.381.271-.289.648.336.647.608.646.38-.273.289-.648" transform="translate(-786.529 -647.989)" fill="#94b0ed"/>
    <path id="Path_346" data-name="Path 346" d="M1023.467,731.464c-.143-.589.115-1.051.661-1.052a1.284,1.284,0,0,1,1.164,1.049c.143.589-.112,1.051-.661,1.052a1.278,1.278,0,0,1-1.164-1.049m1.361,0c-.089-.368-.339-.647-.608-.646s-.381.271-.289.648.336.647.608.646.38-.273.289-.648" transform="translate(-907.656 -647.785)" fill="#94b0ed"/>
    <path id="Path_347" data-name="Path 347" d="M1047.582,731.423c-.143-.589.115-1.051.661-1.052a1.284,1.284,0,0,1,1.164,1.049c.143.589-.112,1.051-.661,1.052a1.279,1.279,0,0,1-1.164-1.049m1.361,0c-.089-.368-.339-.647-.608-.646s-.38.271-.289.648.336.647.608.646.38-.274.289-.648" transform="translate(-929.044 -647.748)" fill="#94b0ed"/>
    <path id="Path_348" data-name="Path 348" d="M1071.7,731.383c-.142-.589.115-1.051.661-1.052a1.284,1.284,0,0,1,1.163,1.049c.143.589-.112,1.051-.661,1.052a1.279,1.279,0,0,1-1.164-1.049m1.361,0c-.089-.369-.339-.647-.609-.646s-.38.271-.289.648.336.647.608.646.38-.274.289-.648" transform="translate(-950.431 -647.713)" fill="#94b0ed"/>
    <path id="Path_349" data-name="Path 349" d="M1093.9,730.924l-.337.088-.182-.365.547-.175h.308l.5,2.045h-.446Z" transform="translate(-969.693 -647.837)" fill="#94b0ed"/>
    <path id="Path_350" data-name="Path 350" d="M1110.025,730.9l-.337.088-.182-.365.548-.175h.308l.5,2.045h-.446Z" transform="translate(-983.997 -647.814)" fill="#94b0ed"/>
    <path id="Path_351" data-name="Path 351" d="M1127.941,731.288c-.143-.589.115-1.051.661-1.052a1.284,1.284,0,0,1,1.164,1.049c.143.589-.112,1.051-.661,1.052a1.278,1.278,0,0,1-1.164-1.049m1.361,0c-.089-.369-.339-.647-.608-.646s-.381.271-.289.648.336.647.609.646.38-.273.289-.648" transform="translate(-1000.312 -647.629)" fill="#94b0ed"/>
    <path id="Path_352" data-name="Path 352" d="M1751.58,730.274c-.143-.589.115-1.051.661-1.052a1.284,1.284,0,0,1,1.164,1.049c.143.589-.112,1.051-.661,1.052a1.278,1.278,0,0,1-1.164-1.049m1.361,0c-.089-.369-.339-.647-.609-.646s-.38.271-.289.648.336.647.608.646.38-.274.289-.648" transform="translate(-1553.404 -646.729)" fill="#f99746"/>
    <path id="Path_353" data-name="Path 353" d="M1775.7,730.233c-.143-.589.115-1.051.661-1.052a1.284,1.284,0,0,1,1.164,1.049c.142.589-.112,1.051-.661,1.052a1.278,1.278,0,0,1-1.164-1.049m1.361,0c-.089-.368-.339-.647-.608-.646s-.38.271-.289.648.336.647.608.646.38-.273.289-.648" transform="translate(-1574.792 -646.693)" fill="#f99746"/>
    <path id="Path_354" data-name="Path 354" d="M1799.812,730.192c-.143-.589.115-1.051.661-1.052a1.284,1.284,0,0,1,1.164,1.049c.143.589-.112,1.051-.661,1.052a1.278,1.278,0,0,1-1.164-1.049m1.361,0c-.089-.369-.339-.647-.609-.646s-.38.271-.289.648.336.647.608.646.38-.273.289-.648" transform="translate(-1596.18 -646.656)" fill="#94b0ed"/>
    <path id="Path_355" data-name="Path 355" d="M1822.011,729.734l-.337.088-.182-.366.547-.175h.308l.5,2.045h-.446Z" transform="translate(-1615.441 -646.781)" fill="#94b0ed"/>
    <path id="Path_356" data-name="Path 356" d="M879.969,776.7l-.337.088-.182-.365.547-.175h.308l.5,2.046h-.446Z" transform="translate(-779.965 -688.437)" fill="#94b0ed"/>
    <path id="Path_357" data-name="Path 357" d="M897.883,777.094c-.143-.589.115-1.051.661-1.052a1.284,1.284,0,0,1,1.164,1.049c.143.589-.112,1.051-.661,1.052a1.279,1.279,0,0,1-1.164-1.049m1.361,0c-.089-.369-.339-.647-.608-.646s-.381.271-.289.648.336.647.608.646.38-.274.289-.648" transform="translate(-796.279 -688.253)" fill="#94b0ed"/>
    <path id="Path_358" data-name="Path 358" d="M1010.344,776.9c-.143-.589.115-1.051.661-1.052a1.284,1.284,0,0,1,1.164,1.049c.143.589-.112,1.051-.661,1.052a1.279,1.279,0,0,1-1.164-1.049m1.361,0c-.089-.369-.339-.647-.608-.646s-.381.271-.289.648.336.647.608.646.38-.274.289-.648" transform="translate(-896.018 -688.084)" fill="#94b0ed"/>
    <path id="Path_359" data-name="Path 359" d="M1034.46,776.863c-.142-.589.115-1.051.661-1.052a1.284,1.284,0,0,1,1.163,1.049c.143.589-.112,1.051-.661,1.052a1.279,1.279,0,0,1-1.164-1.049m1.361,0c-.089-.368-.339-.647-.608-.646s-.38.271-.289.648.336.647.608.646.38-.274.289-.648" transform="translate(-917.406 -688.048)" fill="#94b0ed"/>
    <path id="Path_360" data-name="Path 360" d="M943,864.75c-.143-.589.115-1.051.661-1.052a1.284,1.284,0,0,1,1.164,1.049c.143.589-.112,1.051-.661,1.052A1.279,1.279,0,0,1,943,864.75m1.361,0c-.089-.369-.339-.647-.608-.646s-.38.271-.289.648.336.647.608.646.38-.273.289-.648" transform="translate(-836.293 -765.993)" fill="#f99746"/>
    <path id="Path_361" data-name="Path 361" d="M965.2,864.292l-.337.088-.182-.365.547-.175h.308l.5,2.045h-.446Z" transform="translate(-855.555 -766.117)" fill="#f99746"/>
    <path id="Path_362" data-name="Path 362" d="M889.977,819l-.337.088-.183-.365.548-.175h.308l.5,2.045h-.446Z" transform="translate(-788.841 -725.95)" fill="#94b0ed"/>
    <path id="Path_363" data-name="Path 363" d="M907.893,819.392c-.143-.589.115-1.051.661-1.052a1.284,1.284,0,0,1,1.164,1.049c.143.589-.112,1.051-.661,1.052a1.278,1.278,0,0,1-1.164-1.049m1.361,0c-.089-.368-.339-.647-.608-.646s-.381.271-.289.648.336.647.608.646.38-.273.289-.648" transform="translate(-805.156 -725.766)" fill="#94b0ed"/>
    <path id="Path_364" data-name="Path 364" d="M932.008,819.351c-.143-.589.115-1.051.661-1.052a1.284,1.284,0,0,1,1.164,1.049c.143.589-.112,1.051-.661,1.052a1.279,1.279,0,0,1-1.164-1.049m1.361,0c-.089-.369-.339-.647-.608-.646s-.381.271-.289.648.336.647.608.646.38-.274.289-.648" transform="translate(-826.544 -725.73)" fill="#94b0ed"/>
    <path id="Path_365" data-name="Path 365" d="M954.208,818.892l-.337.088-.182-.365.547-.175h.308l.5,2.045h-.446Z" transform="translate(-845.806 -725.854)" fill="#94b0ed"/>
    <path id="Path_366" data-name="Path 366" d="M972.123,819.283c-.143-.589.115-1.051.661-1.052a1.284,1.284,0,0,1,1.164,1.049c.143.589-.112,1.051-.661,1.052a1.279,1.279,0,0,1-1.164-1.049m1.361,0c-.089-.369-.339-.647-.608-.646s-.381.271-.289.648.336.647.608.646.38-.273.289-.648" transform="translate(-862.121 -725.669)" fill="#94b0ed"/>
    <path id="Path_367" data-name="Path 367" d="M996.239,819.242c-.143-.589.115-1.051.661-1.052a1.284,1.284,0,0,1,1.164,1.049c.143.589-.112,1.051-.661,1.052a1.279,1.279,0,0,1-1.164-1.049m1.361,0c-.089-.369-.339-.647-.609-.646s-.381.271-.289.648.336.647.609.646.38-.273.289-.648" transform="translate(-883.508 -725.633)" fill="#94b0ed"/>
    <path id="Path_368" data-name="Path 368" d="M1020.354,819.2c-.143-.589.115-1.051.661-1.052a1.284,1.284,0,0,1,1.163,1.049c.143.589-.112,1.051-.661,1.052a1.278,1.278,0,0,1-1.164-1.049m1.361,0c-.089-.368-.339-.647-.608-.646s-.38.271-.289.648.336.647.608.646.38-.273.289-.648" transform="translate(-904.895 -725.598)" fill="#94b0ed"/>
    <path id="Path_369" data-name="Path 369" d="M1044.469,819.161c-.143-.589.115-1.051.661-1.052a1.284,1.284,0,0,1,1.164,1.049c.143.589-.112,1.051-.661,1.052a1.279,1.279,0,0,1-1.164-1.049m1.361,0c-.089-.369-.339-.647-.609-.646s-.38.271-.289.648.336.647.609.646.38-.274.289-.648" transform="translate(-926.283 -725.561)" fill="#94b0ed"/>
    <path id="Path_370" data-name="Path 370" d="M1068.584,819.121c-.143-.589.115-1.051.661-1.052a1.284,1.284,0,0,1,1.164,1.049c.143.589-.112,1.051-.661,1.052a1.278,1.278,0,0,1-1.163-1.049m1.361,0c-.089-.368-.339-.647-.608-.646s-.38.271-.289.648.336.647.608.646.38-.274.289-.648" transform="translate(-947.67 -725.526)" fill="#94b0ed"/>
    <path id="Path_371" data-name="Path 371" d="M1092.7,819.08c-.143-.589.115-1.051.661-1.052a1.284,1.284,0,0,1,1.164,1.049c.142.589-.112,1.051-.661,1.052a1.279,1.279,0,0,1-1.164-1.049m1.361,0c-.089-.369-.339-.647-.608-.646s-.38.271-.289.648.336.647.608.646.38-.273.289-.648" transform="translate(-969.058 -725.489)" fill="#94b0ed"/>
    <path id="Path_372" data-name="Path 372" d="M1114.9,818.622l-.337.088-.182-.366.547-.175h.308l.5,2.045h-.446Z" transform="translate(-988.32 -725.614)" fill="#94b0ed"/>
    <path id="Path_373" data-name="Path 373" d="M1131.028,818.594l-.337.088-.182-.365.547-.175h.308l.5,2.045h-.446Z" transform="translate(-1002.624 -725.589)" fill="#94b0ed"/>
    <path id="Path_374" data-name="Path 374" d="M1148.944,818.985c-.143-.589.115-1.051.661-1.052a1.284,1.284,0,0,1,1.163,1.049c.143.589-.112,1.051-.661,1.052a1.279,1.279,0,0,1-1.164-1.049m1.361,0c-.089-.369-.339-.647-.609-.646s-.38.271-.289.648.336.647.608.646.38-.274.289-.648" transform="translate(-1018.939 -725.405)" fill="#94b0ed"/>
    <path id="Path_375" data-name="Path 375" d="M900.97,864.4l-.337.088-.182-.365.548-.175h.308l.5,2.045h-.446Z" transform="translate(-798.59 -766.214)" fill="#94b0ed"/>
    <path id="Path_376" data-name="Path 376" d="M918.886,864.791c-.143-.589.115-1.051.661-1.052a1.284,1.284,0,0,1,1.164,1.049c.143.589-.112,1.051-.661,1.052a1.278,1.278,0,0,1-1.164-1.049m1.361,0c-.089-.369-.339-.647-.608-.646s-.381.271-.289.648.336.647.608.646.38-.273.289-.648" transform="translate(-814.906 -766.029)" fill="#94b0ed"/>
    <path id="Path_377" data-name="Path 377" d="M983.116,864.683c-.143-.589.115-1.051.661-1.052a1.284,1.284,0,0,1,1.164,1.049c.143.589-.112,1.051-.661,1.052a1.279,1.279,0,0,1-1.164-1.049m1.361,0c-.089-.369-.339-.647-.608-.646s-.381.271-.289.648.336.647.608.646.38-.274.289-.648" transform="translate(-871.87 -765.934)" fill="#94b0ed"/>
    <path id="Path_378" data-name="Path 378" d="M1007.231,864.642c-.143-.589.115-1.051.661-1.052a1.284,1.284,0,0,1,1.164,1.049c.143.589-.112,1.051-.661,1.052a1.279,1.279,0,0,1-1.164-1.049m1.361,0c-.089-.369-.338-.647-.608-.646s-.381.271-.289.648.336.647.608.646.38-.273.289-.648" transform="translate(-893.257 -765.897)" fill="#94b0ed"/>
    <path id="Path_379" data-name="Path 379" d="M964.326,965.414c-.143-.589.115-1.051.661-1.052a1.284,1.284,0,0,1,1.164,1.049c.143.589-.112,1.051-.661,1.052a1.278,1.278,0,0,1-1.164-1.049m1.361,0c-.089-.368-.338-.647-.608-.646s-.381.271-.289.648.336.647.608.646.38-.274.289-.648" transform="translate(-855.205 -855.27)" fill="#94b0ed"/>
    <path id="Path_380" data-name="Path 380" d="M986.526,964.956l-.337.088-.182-.365.547-.175h.308l.5,2.045h-.446Z" transform="translate(-874.468 -855.394)" fill="#94b0ed"/>
    <path id="Path_381" data-name="Path 381" d="M922.295,965.064l-.337.088-.182-.365.548-.175h.308l.5,2.045h-.446Z" transform="translate(-817.503 -855.49)" fill="#94b0ed"/>
    <path id="Path_382" data-name="Path 382" d="M940.21,965.454c-.143-.589.115-1.051.661-1.052a1.284,1.284,0,0,1,1.164,1.049c.143.589-.112,1.051-.661,1.052a1.279,1.279,0,0,1-1.164-1.049m1.361,0c-.089-.369-.339-.647-.608-.646s-.381.271-.289.648.336.646.608.646.38-.273.289-.648" transform="translate(-833.818 -855.305)" fill="#94b0ed"/>
    <path id="Path_383" data-name="Path 383" d="M1004.441,965.347c-.143-.589.115-1.051.661-1.052a1.284,1.284,0,0,1,1.164,1.049c.143.589-.112,1.051-.661,1.052a1.279,1.279,0,0,1-1.164-1.049m1.361,0c-.089-.369-.339-.647-.608-.646s-.381.271-.289.648.336.647.608.646.38-.274.289-.648" transform="translate(-890.783 -855.21)" fill="#f99746"/>
    <path id="Path_384" data-name="Path 384" d="M1028.556,965.306c-.143-.589.115-1.051.661-1.052a1.284,1.284,0,0,1,1.164,1.049c.143.589-.112,1.051-.661,1.052a1.279,1.279,0,0,1-1.164-1.049m1.361,0c-.089-.369-.339-.647-.608-.646s-.381.271-.289.648.336.647.608.646.38-.274.289-.648" transform="translate(-912.169 -855.174)" fill="#f99746"/>
    <path id="Path_385" data-name="Path 385" d="M934.529,997.794c-.143-.589.115-1.051.661-1.052a1.284,1.284,0,0,1,1.164,1.049c.142.589-.112,1.051-.661,1.052a1.278,1.278,0,0,1-1.164-1.049m1.361,0c-.089-.369-.339-.647-.608-.646s-.381.271-.289.648.336.647.608.646.38-.273.289-.648" transform="translate(-828.779 -883.987)" fill="#94b0ed"/>
    <path id="Path_386" data-name="Path 386" d="M956.728,997.336l-.337.088-.182-.365.547-.175h.308l.5,2.046h-.446Z" transform="translate(-848.041 -884.111)" fill="#94b0ed"/>
    <path id="Path_387" data-name="Path 387" d="M974.644,997.727c-.143-.589.115-1.051.661-1.052a1.284,1.284,0,0,1,1.164,1.049c.143.589-.112,1.051-.661,1.052a1.279,1.279,0,0,1-1.164-1.049m1.361,0c-.089-.369-.339-.647-.608-.646s-.38.271-.289.648.336.647.608.646.38-.273.289-.648" transform="translate(-864.356 -883.927)" fill="#94b0ed"/>
    <path id="Path_388" data-name="Path 388" d="M998.759,997.687c-.143-.589.115-1.051.661-1.052a1.284,1.284,0,0,1,1.164,1.049c.143.589-.112,1.051-.661,1.052a1.278,1.278,0,0,1-1.164-1.049m1.361,0c-.089-.369-.339-.647-.608-.646s-.381.271-.289.648.336.647.608.646.38-.273.289-.648" transform="translate(-885.743 -883.892)" fill="#94b0ed"/>
    <path id="Path_389" data-name="Path 389" d="M1031.347,864.6c-.143-.589.115-1.051.661-1.052a1.284,1.284,0,0,1,1.164,1.049c.143.589-.112,1.051-.661,1.052a1.278,1.278,0,0,1-1.164-1.049m1.361,0c-.089-.368-.339-.647-.608-.646s-.381.271-.289.648.336.647.608.646.38-.274.289-.648" transform="translate(-914.645 -765.862)" fill="#94b0ed"/>
    <path id="Path_390" data-name="Path 390" d="M1055.462,864.561c-.143-.589.115-1.051.661-1.052a1.284,1.284,0,0,1,1.163,1.049c.143.589-.112,1.051-.661,1.052a1.279,1.279,0,0,1-1.164-1.049m1.361,0c-.089-.368-.339-.647-.608-.646s-.38.271-.289.648.336.646.608.646.38-.274.289-.648" transform="translate(-936.032 -765.825)" fill="#94b0ed"/>
    <path id="Path_391" data-name="Path 391" d="M994.953,1082.544c-.142-.589.115-1.051.661-1.052a1.284,1.284,0,0,1,1.164,1.049c.143.589-.112,1.051-.661,1.052a1.278,1.278,0,0,1-1.164-1.049m1.361,0c-.089-.369-.338-.647-.608-.646s-.38.271-.289.648.336.647.608.646.38-.274.289-.648" transform="translate(-882.368 -959.15)" fill="#f99746"/>
    <path id="Path_392" data-name="Path 392" d="M1017.152,1082.085l-.337.088-.182-.365.547-.175h.308l.5,2.045h-.446Z" transform="translate(-901.63 -959.274)" fill="#f99746"/>
    <path id="Path_393" data-name="Path 393" d="M941.93,1036.793l-.337.088-.182-.365.548-.175h.308l.5,2.045h-.446Z" transform="translate(-834.916 -919.106)" fill="#94b0ed"/>
    <path id="Path_394" data-name="Path 394" d="M959.845,1037.185c-.143-.589.115-1.051.661-1.052a1.284,1.284,0,0,1,1.164,1.049c.142.589-.113,1.051-.661,1.052a1.279,1.279,0,0,1-1.164-1.049m1.361,0c-.089-.369-.339-.647-.609-.646s-.38.271-.289.648.335.646.608.646.38-.273.289-.648" transform="translate(-851.231 -918.922)" fill="#94b0ed"/>
    <path id="Path_395" data-name="Path 395" d="M983.96,1037.145c-.143-.589.115-1.051.661-1.052a1.284,1.284,0,0,1,1.164,1.049c.143.589-.112,1.051-.661,1.052a1.278,1.278,0,0,1-1.164-1.049m1.361,0c-.089-.368-.339-.647-.608-.646s-.381.271-.289.648.336.646.608.646.38-.273.289-.648" transform="translate(-872.619 -918.886)" fill="#94b0ed"/>
    <path id="Path_396" data-name="Path 396" d="M1006.16,1036.686l-.337.088-.182-.365.547-.175h.308l.5,2.045h-.446Z" transform="translate(-891.881 -919.01)" fill="#94b0ed"/>
    <path id="Path_397" data-name="Path 397" d="M952.922,1082.193l-.337.088-.182-.365.547-.175h.308l.5,2.045h-.446Z" transform="translate(-844.666 -959.369)" fill="#94b0ed"/>
    <path id="Path_398" data-name="Path 398" d="M970.838,1082.584c-.143-.589.115-1.051.661-1.052a1.284,1.284,0,0,1,1.164,1.049c.143.589-.112,1.051-.661,1.052a1.278,1.278,0,0,1-1.164-1.049m1.361,0c-.089-.368-.339-.647-.608-.646s-.381.271-.289.648.336.646.608.646.38-.273.289-.648" transform="translate(-860.981 -959.185)" fill="#94b0ed"/>
    <path id="Path_399" data-name="Path 399" d="M1035.068,1082.476c-.143-.589.115-1.051.661-1.052a1.284,1.284,0,0,1,1.164,1.049c.142.589-.112,1.051-.661,1.052a1.279,1.279,0,0,1-1.164-1.049m1.361,0c-.089-.369-.339-.647-.609-.646s-.38.271-.289.648.336.647.608.646.38-.273.289-.648" transform="translate(-917.945 -959.089)" fill="#94b0ed"/>
    <path id="Path_400" data-name="Path 400" d="M1059.183,1082.436c-.143-.589.115-1.051.661-1.052a1.283,1.283,0,0,1,1.163,1.049c.143.589-.112,1.051-.661,1.052a1.278,1.278,0,0,1-1.164-1.049m1.361,0c-.089-.368-.338-.647-.608-.646s-.381.271-.289.648.336.646.608.646.38-.274.289-.648" transform="translate(-939.332 -959.054)" fill="#94b0ed"/>
    <path id="Path_401" data-name="Path 401" d="M1004.253,1114.6c-.143-.589.115-1.051.661-1.052a1.284,1.284,0,0,1,1.164,1.049c.143.589-.112,1.051-.661,1.052a1.278,1.278,0,0,1-1.164-1.049m1.361,0c-.089-.368-.339-.647-.608-.646s-.381.271-.289.648.336.647.608.646.38-.274.289-.648" transform="translate(-890.615 -987.578)" fill="#f99746"/>
    <path id="Path_402" data-name="Path 402" d="M1026.451,1114.139l-.337.088-.182-.365.547-.175h.308l.5,2.045h-.446Z" transform="translate(-909.876 -987.702)" fill="#f99746"/>
    <path id="Path_403" data-name="Path 403" d="M980.136,1114.638c-.143-.589.115-1.051.661-1.052a1.284,1.284,0,0,1,1.164,1.049c.142.589-.112,1.051-.661,1.052a1.278,1.278,0,0,1-1.164-1.049m1.361,0c-.089-.369-.339-.647-.608-.646s-.381.271-.289.648.336.647.608.646.38-.274.289-.648" transform="translate(-869.227 -987.613)" fill="#94b0ed"/>
    <path id="Path_404" data-name="Path 404" d="M1044.368,1114.53c-.143-.589.115-1.051.661-1.052a1.284,1.284,0,0,1,1.164,1.049c.143.589-.112,1.051-.661,1.052a1.278,1.278,0,0,1-1.163-1.049m1.361,0c-.089-.369-.339-.647-.608-.646s-.381.271-.289.648.336.647.608.646.38-.274.289-.648" transform="translate(-926.193 -987.518)" fill="#94b0ed"/>
    <path id="Path_405" data-name="Path 405" d="M1068.482,1114.489c-.142-.589.115-1.051.661-1.052a1.283,1.283,0,0,1,1.163,1.049c.143.589-.112,1.051-.661,1.052a1.278,1.278,0,0,1-1.164-1.049m1.361,0c-.089-.368-.339-.647-.608-.646s-.38.271-.289.648.336.646.608.646.38-.274.289-.648" transform="translate(-947.579 -987.481)" fill="#94b0ed"/>
    <path id="Path_406" data-name="Path 406" d="M1083.3,1082.4c-.143-.589.115-1.051.661-1.052a1.284,1.284,0,0,1,1.164,1.049c.143.589-.112,1.051-.661,1.052a1.278,1.278,0,0,1-1.164-1.049m1.361,0c-.089-.369-.339-.647-.608-.646s-.38.271-.289.648.336.647.608.646.38-.273.289-.648" transform="translate(-960.72 -959.018)" fill="#94b0ed"/>
    <path id="Path_407" data-name="Path 407" d="M1107.414,1082.355c-.143-.589.115-1.051.661-1.052a1.284,1.284,0,0,1,1.164,1.049c.143.589-.112,1.051-.661,1.052a1.278,1.278,0,0,1-1.164-1.049m1.361,0c-.089-.368-.339-.647-.609-.646s-.38.271-.289.648.335.647.608.646.38-.273.289-.648" transform="translate(-982.107 -958.982)" fill="#94b0ed"/>
    <path id="Path_408" data-name="Path 408" d="M1744.658,775.282l-.337.088-.182-.365.547-.175h.308l.5,2.045h-.446Z" transform="translate(-1546.839 -687.177)" fill="#94b0ed"/>
    <path id="Path_409" data-name="Path 409" d="M1762.574,775.673c-.143-.589.115-1.051.661-1.052a1.284,1.284,0,0,1,1.164,1.049c.142.589-.113,1.051-.661,1.052a1.279,1.279,0,0,1-1.164-1.049m1.361,0c-.089-.369-.338-.647-.608-.646s-.381.271-.289.648.336.647.608.646.38-.273.289-.648" transform="translate(-1563.154 -686.992)" fill="#94b0ed"/>
    <path id="Path_410" data-name="Path 410" d="M1786.689,775.632c-.143-.589.115-1.051.661-1.052a1.284,1.284,0,0,1,1.163,1.049c.143.589-.112,1.051-.661,1.052a1.278,1.278,0,0,1-1.164-1.049m1.361,0c-.089-.368-.339-.647-.609-.646s-.38.271-.289.648.336.647.608.646.38-.273.289-.648" transform="translate(-1584.541 -686.956)" fill="#94b0ed"/>
    <path id="Path_411" data-name="Path 411" d="M1810.8,775.592c-.143-.589.115-1.051.661-1.052a1.284,1.284,0,0,1,1.164,1.049c.143.589-.112,1.051-.661,1.052a1.278,1.278,0,0,1-1.164-1.049m1.361,0c-.089-.369-.339-.647-.608-.646s-.381.271-.289.648.336.647.608.646.38-.273.289-.648" transform="translate(-1605.929 -686.921)" fill="#94b0ed"/>
    <path id="Path_412" data-name="Path 412" d="M1833,775.133l-.337.088-.182-.365.547-.175h.308l.5,2.045h-.446Z" transform="translate(-1625.191 -687.045)" fill="#94b0ed"/>
    <path id="Path_413" data-name="Path 413" d="M1722.459,819.039c-.143-.589.115-1.051.661-1.052a1.284,1.284,0,0,1,1.164,1.049c.142.589-.112,1.051-.661,1.052a1.279,1.279,0,0,1-1.164-1.049m1.361,0c-.089-.369-.338-.647-.608-.646s-.381.271-.289.648.336.647.608.646.38-.273.289-.648" transform="translate(-1527.577 -725.453)" fill="#94b0ed"/>
    <path id="Path_414" data-name="Path 414" d="M1744.658,818.581l-.337.088-.182-.365.547-.175h.308l.5,2.045h-.446Z" transform="translate(-1546.839 -725.577)" fill="#94b0ed"/>
    <path id="Path_415" data-name="Path 415" d="M1762.574,818.972c-.143-.589.115-1.051.661-1.052a1.284,1.284,0,0,1,1.164,1.049c.142.589-.113,1.051-.661,1.052a1.279,1.279,0,0,1-1.164-1.049m1.361,0c-.089-.369-.338-.647-.608-.646s-.381.271-.289.648.336.647.608.646.38-.274.289-.648" transform="translate(-1563.154 -725.393)" fill="#f99746"/>
    <path id="Path_416" data-name="Path 416" d="M1786.689,818.931c-.143-.589.115-1.051.661-1.052a1.284,1.284,0,0,1,1.163,1.049c.143.589-.112,1.051-.661,1.052a1.278,1.278,0,0,1-1.164-1.049m1.361,0c-.089-.368-.339-.647-.609-.646s-.38.271-.289.648.336.647.608.646.38-.273.289-.648" transform="translate(-1584.541 -725.357)" fill="#f99746"/>
    <path id="Path_417" data-name="Path 417" d="M1810.8,818.891c-.143-.589.115-1.051.661-1.052a1.284,1.284,0,0,1,1.164,1.049c.143.589-.112,1.051-.661,1.052a1.278,1.278,0,0,1-1.164-1.049m1.361,0c-.089-.369-.339-.647-.608-.646s-.381.271-.289.648.336.647.608.646.38-.274.289-.648" transform="translate(-1605.929 -725.322)" fill="#f99746"/>
    <path id="Path_418" data-name="Path 418" d="M1833,818.432l-.337.088-.182-.365.547-.175h.308l.5,2.045h-.446Z" transform="translate(-1625.191 -725.446)" fill="#f99746"/>
    <path id="Path_419" data-name="Path 419" d="M1828.1,1068.613l-.337.088-.182-.365.548-.175h.308l.5,2.045h-.446Z" transform="translate(-1620.842 -947.326)" fill="#94b0ed"/>
    <path id="Path_420" data-name="Path 420" d="M1846.016,1069c-.143-.589.115-1.051.661-1.052a1.284,1.284,0,0,1,1.164,1.049c.143.589-.112,1.051-.661,1.052a1.279,1.279,0,0,1-1.164-1.049m1.361,0c-.089-.369-.339-.647-.609-.646s-.38.271-.289.648.336.646.609.646.38-.273.289-.648" transform="translate(-1637.157 -947.142)" fill="#94b0ed"/>
    <path id="Path_421" data-name="Path 421" d="M1870.132,1068.963c-.143-.589.115-1.051.661-1.052a1.284,1.284,0,0,1,1.163,1.049c.143.589-.112,1.051-.661,1.052a1.278,1.278,0,0,1-1.164-1.049m1.361,0c-.089-.368-.339-.647-.608-.646s-.38.271-.289.648.336.647.608.646.38-.273.289-.648" transform="translate(-1658.545 -947.105)" fill="#94b0ed"/>
    <path id="Path_422" data-name="Path 422" d="M1804.407,1098.044l-.337.088-.182-.365.547-.175h.308l.5,2.045h-.446Z" transform="translate(-1599.829 -973.428)" fill="#94b0ed"/>
    <path id="Path_423" data-name="Path 423" d="M1822.324,1098.436c-.143-.589.115-1.051.661-1.052a1.284,1.284,0,0,1,1.164,1.049c.142.589-.112,1.051-.661,1.052a1.278,1.278,0,0,1-1.163-1.049m1.361,0c-.089-.368-.339-.647-.609-.646s-.38.271-.289.648.336.646.609.646.38-.273.289-.648" transform="translate(-1616.145 -973.244)" fill="#94b0ed"/>
    <path id="Path_424" data-name="Path 424" d="M1846.439,1098.4c-.143-.589.115-1.051.661-1.052a1.284,1.284,0,0,1,1.164,1.049c.143.589-.112,1.051-.661,1.052a1.278,1.278,0,0,1-1.164-1.049m1.361,0c-.089-.368-.338-.647-.608-.646s-.381.271-.289.648.336.646.608.646.38-.274.289-.648" transform="translate(-1637.532 -973.209)" fill="#94b0ed"/>
    <path id="Path_425" data-name="Path 425" d="M1894.248,1068.923c-.143-.589.115-1.051.661-1.052a1.284,1.284,0,0,1,1.164,1.049c.142.589-.112,1.051-.661,1.052a1.278,1.278,0,0,1-1.163-1.049m1.361,0c-.089-.368-.339-.647-.608-.646s-.381.271-.289.648.336.646.609.646.38-.274.289-.648" transform="translate(-1679.932 -947.07)" fill="#94b0ed"/>
    <path id="Path_426" data-name="Path 426" d="M1916.446,1068.464l-.337.088-.182-.365.547-.175h.308l.5,2.045h-.446Z" transform="translate(-1699.194 -947.194)" fill="#94b0ed"/>
    <path id="Path_427" data-name="Path 427" d="M2197.074,868.256a5.6,5.6,0,0,1,4.865,2.254c1.522,2.077.468,4.526,4.272,6.413s3.258,4.267,2.5,7.252-3.951,6.594-7.755,6.418-10.31-8.008-10.076-10.635,1.365-2.94.468-4.677c-1.4-2.72,1.2-6.6,5.729-7.026" transform="translate(-1943.036 -770.021)" fill="#123b8c"/>
    <path id="Path_428" data-name="Path 428" d="M2222.563,952.078a.206.206,0,0,0,.027-.044c-.421-.151-.458-.766-.067-3.327l-.2.009-3.4.163s-.079,1.049-.222,2.028c-.029.195-.06.386-.093.567-2.556,2.544,2.945,3.7,3.954.6" transform="translate(-1967.042 -841.386)" fill="#ffb27d"/>
    <path id="Path_429" data-name="Path 429" d="M2197.459,1557.034h7.337a4.029,4.029,0,0,0-.208-1.967c-.367-.814-.939-1.316-.991-1.94a2.2,2.2,0,0,1-2.1.646,8.043,8.043,0,0,1-1.273,1.65c-.479.344-2.617.222-2.765,1.61" transform="translate(-1948.878 -1377.433)" fill="#143d7a"/>
    <path id="Path_430" data-name="Path 430" d="M2188.414,1161.523a9.816,9.816,0,0,0-1.044,4.572.039.039,0,0,0,0,.007,3.7,3.7,0,0,0,.082.441c2.408,9.627-1.005,22.164-1.005,22.164a14.227,14.227,0,0,1-1.554.267c-1.156.1-1.325-.241-1.325-.241s-1.148-10.223-4.866-29.766a54.309,54.309,0,0,1-.941-6.893c-.058-.751-.115-1.587-.177-2.567-.169-2.634.23-7.066,2.208-8.231.9-.532,2.123-.385,3.769.91.13.1.253.225.4.329,10.11,7.277,6.544,13.861,4.455,19.008" transform="translate(-1931.221 -1011.915)" fill="#123b8c"/>
    <path id="Path_431" data-name="Path 431" d="M2234.46,1249.264c-.113-.4-3.75-13.1-3.811-14.066-.132-2.075,4.674,3.656,4.855,9.494a9.816,9.816,0,0,0-1.044,4.572" transform="translate(-1978.311 -1095.084)" fill="#233862"/>
    <path id="Path_432" data-name="Path 432" d="M2436.083,1398.854l-3.054-6.672a4.029,4.029,0,0,0-1.7,1.007c-.587.673-1.013.553-2.351-.376a7.357,7.357,0,0,1,.883,2.26c.246.03,1.645,1.384,3.078,1.757.572.149,1.821,2.466,3.145,2.023" transform="translate(-2154.207 -1234.694)" fill="#143d7a"/>
    <path id="Path_433" data-name="Path 433" d="M2206.779,1156.154s6.575,22.856,8.984,24.328,14.32,4.4,17.837,5.1a6.786,6.786,0,0,0-.058-1.912,8.438,8.438,0,0,0-.4-.981s-6.255-6.257-12.367-7.134c-1.28-.184.514-20.17-8.168-20.953-7.93-.716-5.824,1.552-5.824,1.552" transform="translate(-1956.919 -1023.866)" fill="#123b8c"/>
    <path id="Path_434" data-name="Path 434" d="M2110.569,824.892s.147-.733.313-1.292a4.022,4.022,0,0,0-.79-2.072c-.353-.2-1.273.894-1.012,1.735.134.432.353,1.836.353,1.836Z" transform="translate(-1870.455 -728.572)" fill="#ffb27d"/>
    <path id="Path_435" data-name="Path 435" d="M2388.077,849.17c.045.093.107.259.163.415,0-.043,0-.085,0-.126a4.84,4.84,0,0,1,1.64-2.107c.477-.106,1.15,1.478.554,2.353-.306.45-1.23,2.052-1.23,2.052l-1.023-.618a1.432,1.432,0,0,0-.283-.781,5.5,5.5,0,0,1-.194-1.367s.2-.164.371.178" transform="translate(-2117.604 -751.492)" fill="#ffb27d"/>
    <path id="Path_436" data-name="Path 436" d="M2224.913,948.954s-.079,1.049-.222,2.028c1.854.223,3.08-1.316,3.619-2.19Z" transform="translate(-1973.03 -841.46)" fill="#ed975d"/>
    <path id="Path_437" data-name="Path 437" d="M2217.955,884.394a10.661,10.661,0,0,0,1.761-2.887c.331-.987.373-4.822-3.483-4.842a5.188,5.188,0,0,0-2.247.488c-.9.432-2.263,1.451-1.428,4.927l.179,1.159Z" transform="translate(-1962.038 -777.492)" fill="#123b8c"/>
    <path id="Path_438" data-name="Path 438" d="M2211.413,896.141s4.733.784,5.176-2.171,1.352-4.844-1.651-5.47-3.761.414-4.149,1.364-.6,6,.624,6.277" transform="translate(-1960.433 -787.821)" fill="#ffb27d"/>
    <path id="Path_439" data-name="Path 439" d="M2226.624,882.842s1.258,3.68,3.175,4.49a3.97,3.97,0,0,0,2.862.4,5.709,5.709,0,0,1-1.351-3.611s-3.461-2.788-4.687-1.283" transform="translate(-1974.744 -782.576)" fill="#123b8c"/>
    <path id="Path_440" data-name="Path 440" d="M2212.009,883.941a3.563,3.563,0,0,0-1.647,1.166,6.026,6.026,0,0,0-.916,2.313s-.628-2.5.67-3.672c1.377-1.24,1.893.194,1.893.194" transform="translate(-1959.374 -783.326)" fill="#123b8c"/>
    <path id="Path_441" data-name="Path 441" d="M2142.358,853s-1.04,8.49-3.232,10.52c-1.522,1.408-6.906,3.681-8.193,5.774a6.794,6.794,0,0,0-.489,2.01,35.432,35.432,0,0,0,1.461,15.123c.094.28.19.559.293.839a1.419,1.419,0,0,1-.843,1.837,24.176,24.176,0,0,1-3.965,1.037c-.312.055-.634.1-.961.144a15.7,15.7,0,0,1-9.126-1.27,2.068,2.068,0,0,1-1.131-1.961c.093-1.676.932-3.333,1.31-7.361.286-3.056-1.8-7.366-1.687-8.993.043-.643.362-3.5.038-3.94-2.148-2.95-5.761-5.776-6.316-8.47-.641-3.105-.226-9.3-.226-9.3a3.55,3.55,0,0,1,1-.253,1.48,1.48,0,0,1,1.038.56s1.612,6.037,1.693,6.443c.428,2.166,4.547,5.3,5.794,5.933a9.8,9.8,0,0,0,3.317,1.141s-1.016,1.755.487,2c1.809.293,3.205-1.786,3.205-1.786a8.1,8.1,0,0,0,3.078.017c1.641-.241,7.483-2.216,8.327-3.715.615-1.09,3.859-7.136,3.859-7.136a.845.845,0,0,1,.785.077.886.886,0,0,1,.48.736" transform="translate(-1870.567 -752.719)" fill="#5a9af7"/>
    <path id="Path_442" data-name="Path 442" d="M2217.9,941.68s-.2.408-.475.416a3.219,3.219,0,0,1-1.011-.129,3.927,3.927,0,0,1-.162-.5,4.6,4.6,0,0,1,1.648.21" transform="translate(-1965.545 -834.965)" fill="#fff"/>
    <path id="Path_443" data-name="Path 443" d="M2276.131,1063.336s-4.063-.7-4.333-3.589c-.287-3.081,2.868-11.541,2.868-11.541l0,.006a35.427,35.427,0,0,0,1.462,15.123" transform="translate(-2014.792 -929.63)" fill="#568ed1"/>
    <path id="Path_444" data-name="Path 444" d="M2070.5,506.29l-.424-1.553a4.234,4.234,0,0,0-3.588-3.091l-11.042-1.3-.828,7.007-3.533,29.913,45.678,5.4,3.533-29.913-25.849-3.053a4.659,4.659,0,0,1-3.948-3.4" transform="translate(-1819.062 -443.741)" fill="#f2a63f"/>
    <path id="Path_445" data-name="Path 445" d="M2127.1,661.73l.314-2.661,9.817-2.986-.321,2.719-6.835,1.911,6.2,3.451-.326,2.758Z" transform="translate(-1886.479 -581.864)" fill="#fff"/>
    <path id="Path_446" data-name="Path 446" d="M2222.22,638.081l2.488.294-10.653,16.849-2.488-.294Z" transform="translate(-1961.39 -565.898)" fill="#fff"/>
    <path id="Path_447" data-name="Path 447" d="M2332.429,675.088l-.314,2.661-9.817,2.986.321-2.719,6.835-1.911-6.2-3.451.326-2.758Z" transform="translate(-2059.595 -594.115)" fill="#fff"/>
    <path id="Path_448" data-name="Path 448" d="M2386.533,859.741a8.637,8.637,0,0,0-.252-1.4c-.117-.219.175-.283.425.22s.746.351.995.849.029.629-.278.6a4.406,4.406,0,0,1-.889-.272" transform="translate(-2116.317 -761.1)" fill="#ffb27d"/>
    <path id="Path_449" data-name="Path 449" d="M2121.266,829.521s.67-.724.667-1.048.468-1.127.336-1.273-.365.088-.49.307-.637.206-.754.805a1.981,1.981,0,0,0,.24,1.209" transform="translate(-1881.07 -733.583)" fill="#ffb27d"/>
    <path id="Path_450" data-name="Path 450" d="M1185.855,710.988l17.346,7.6v-6.76l-9.037-3.716,9.037-3.716v-6.7l-17.346,7.6Z" transform="translate(-1051.709 -618.769)" fill="#2c3a64"/>
    <path id="Path_451" data-name="Path 451" d="M1362.653,656.309l-14.988,31.329H1354l14.988-31.329Z" transform="translate(-1195.214 -582.064)" fill="#2c3a64"/>
    <path id="Path_452" data-name="Path 452" d="M1546.416,697.7v6.76l9.037,3.716-9.037,3.716v6.7l17.346-7.6v-5.695Z" transform="translate(-1371.482 -618.769)" fill="#102e62"/>
    <rect id="Rectangle_172" data-name="Rectangle 172" width="6.335" height="1.789" transform="translate(152.45 103.785)" fill="#102e62"/>
    <rect id="Rectangle_173" data-name="Rectangle 173" width="2.959" height="1.789" transform="translate(170.814 72.456)" fill="#2c3a64"/>
    <path id="Path_453" data-name="Path 453" d="M1185.855,695.175l17.346,7.6v-6.76l-9.037-3.716,9.037-3.717v-6.7l-17.346,7.6Z" transform="translate(-1051.709 -604.745)" fill="#102e62"/>
    <path id="Path_454" data-name="Path 454" d="M1362.653,640.495l-14.988,31.329H1354l14.988-31.329Z" transform="translate(-1195.214 -568.039)" fill="#233862"/>
    <path id="Path_455" data-name="Path 455" d="M1546.416,681.882v6.76l9.037,3.716-9.037,3.716v6.7l17.346-7.6v-5.695Z" transform="translate(-1371.482 -604.744)" fill="#233862"/>
    <path id="Path_456" data-name="Path 456" d="M897.168,640.043h-1.056l-8.646-32.99-11.114-42.41H752.23l18.8,75.4-1.342.014L750.662,563.62l126.564-.11.111.422,11.11,42.638Z" transform="translate(-665.745 -499.763)" fill="#95c8f3"/>
    <path id="Path_457" data-name="Path 457" d="M1969.91,978.366l-1.02.137-8.875-33.863.981-.483Z" transform="translate(-1738.295 -837.349)" fill="#aec3ff"/>
    <path id="Path_458" data-name="Path 458" d="M919.663,672.718a.822.822,0,0,0-.147.879.006.006,0,0,0,0,0,5.465,5.465,0,0,0,1.727,1.895c.1.084.2.16.277.231l.062.056.048.043c.759.7.473.86,1.837,2.28,1.555,1.618,2.626,1.647,2.93,1.5.258-.126-.266-.984-.846-1.948l-.085-.141c-.077-.128-.154-.258-.231-.387-.68-1.161-.505-1.705-.344-3.433.131-1.4,2.184-7.843,2.184-7.843l-2.98-.513s-.9,5.127-1.886,5.917c-.529.421-1.121.426-1.629.738-.036.022-.071.044-.106.067a3.908,3.908,0,0,0-.815.655" transform="translate(-815.441 -590.075)" fill="#ffb27d"/>
    <path id="Path_459" data-name="Path 459" d="M919.663,724.893a.822.822,0,0,0-.147.879.007.007,0,0,0,0,0,6.327,6.327,0,0,0,1.73,1.888c.1.085.194.164.274.237l.062.056.048.043c.759.7.473.86,1.837,2.28,1.555,1.618,2.626,1.647,2.93,1.5.258-.126-.266-.984-.846-1.948a6.625,6.625,0,0,1-2.772-2.042c-.936-1.195-1.561-2.73-2.2-3.619-.036.022-.071.044-.106.067a3.907,3.907,0,0,0-.815.655" transform="translate(-815.441 -642.25)" fill="#102e62"/>
    <path id="Path_460" data-name="Path 460" d="M1115.055,663.747c.184.92,1.5.766,2.96.408s1.117.068,3.2-.163,2.717-1.008,2.78-1.318c.057-.275-.973-.372-2.078-.5l-.418-.05c-1.248-.157-2.161-.962-3.294-1.623-1.073-.626-2.675-3.178-2.675-3.178l-2.859.227s1.5,2.279,2.081,3.27a3.454,3.454,0,0,1,.281,1.949,3.678,3.678,0,0,0,.022.978" transform="translate(-986.805 -582.964)" fill="#ffb27d"/>
    <path id="Path_461" data-name="Path 461" d="M1136.359,702.183c1.465-.358,1.117.068,3.2-.163s2.716-1.008,2.78-1.318c.057-.275-.973-.372-2.078-.5l-.01.021a5.878,5.878,0,0,1-2.986.928c-1.414.034-2.913-.371-3.889-.355a3.663,3.663,0,0,0,.022.978c.184.92,1.5.766,2.96.408" transform="translate(-1005.147 -620.992)" fill="#102e62"/>
    <path id="Path_462" data-name="Path 462" d="M959.974,516.548l-2.673,7.192-3.49,9.391a5.655,5.655,0,0,1-1.854-.169,8.036,8.036,0,0,1-1.793-.873s.969-10.083,2.776-15.872a10.309,10.309,0,0,1,1.555-3.364c2.8-3.311,5.477,3.694,5.477,3.694" transform="translate(-842.681 -454.048)" fill="#102e62"/>
    <path id="Path_463" data-name="Path 463" d="M810.162,440.246c-1.751-.565-6.745.16-11.763,1.142l-1.05-1.733-10.837-.846s-3.576,7.93-1.618,12.983a1.833,1.833,0,0,0,1.834,1.235h.158l8.544,0c5.389,0,11.405-3.7,12.184-3.86,1.274-.255,1.783,2.293,3.057,4.968s11.974,11.847,11.974,11.847a9.419,9.419,0,0,0,2.324-.238,2.289,2.289,0,0,0,1-.63s-11.857-23.59-15.806-24.864" transform="translate(-695.586 -389.169)" fill="#233862"/>
    <path id="Path_464" data-name="Path 464" d="M759.435,153.309a11.425,11.425,0,0,0-3.942.032c-4.123.406-5.509,5.006-4.885,8.574.576,3.293-1.095,4.2-3.03,6.806-3.882,5.216-1.345,9.613,1.718,10.747,1.838.68,4.389-1.036,4.389-1.036a118.469,118.469,0,0,0,11.285-8.176c5.441-2.129-1.666-15.951-5.536-16.947" transform="translate(-661.263 -135.811)" fill="#102e62"/>
    <path id="Path_465" data-name="Path 465" d="M829.646,248.321c.108.382-1.7,1.083-3.072.825-1.295-.242-2.747-1.758-2.448-1.9.5-.236.829-.821.558-3.988l.246.028,4.144.473s.013,1.291.109,2.5a8.18,8.18,0,0,0,.462,2.062" transform="translate(-730.865 -215.738)" fill="#ffb27d"/>
    <path id="Path_466" data-name="Path 466" d="M835.694,243.977s.012,1.291.109,2.5c-2.287.123-3.664-1.86-4.253-2.973Z" transform="translate(-737.484 -215.957)" fill="#ed975d"/>
    <path id="Path_467" data-name="Path 467" d="M828.849,186.857s-5.392.532-5.671-2.831-1.163-5.559,2.267-6.041,4.207.746,4.573,1.846.226,6.8-1.169,7.026" transform="translate(-729.782 -157.754)" fill="#ffb27d"/>
    <path id="Path_468" data-name="Path 468" d="M815.729,169.962s-.679,4.108-3.75,5.083c-2.24.711-3.255.242-3.255.242a9.131,9.131,0,0,0,1.462-3.418,1.643,1.643,0,0,1,1.1-1.254c1.592-.524,3.521-1.956,4.446-.653" transform="translate(-717.24 -150.261)" fill="#102e62"/>
    <path id="Path_469" data-name="Path 469" d="M861.662,174.5a3.567,3.567,0,0,1,1.916,1.537,6.88,6.88,0,0,1,.965,3.322s.944-3.8-.432-5.216a1.432,1.432,0,0,0-2.449.357" transform="translate(-764.189 -153.923)" fill="#2b478b"/>
    <path id="Path_470" data-name="Path 470" d="M783.523,288.3c.1.408.179.784.245,1.131.11.559.185,1.041.238,1.467.165,1.326.115,2.112.226,2.971a7.411,7.411,0,0,0,.4,1.618c.223.616,6.082,1.165,9.416.944a4.571,4.571,0,0,0,2.151-.465c1.189-1.033,1.071,1.239,1.234-9.63.079-5.3-4.5-10.023-4.5-10.023s-.366,2.265-4.905-.431c-.161-.094-1.949,2.553-3.67,5.813-1.9,3.6-1.376,4.363-.841,6.605" transform="translate(-694.45 -244.666)" fill="#e69644"/>
    <path id="Path_471" data-name="Path 471" d="M957.3,557.085l-3.49,9.391a5.65,5.65,0,0,1-1.854-.169,8.04,8.04,0,0,1-1.793-.873s.969-10.084,2.776-15.872Z" transform="translate(-842.68 -487.393)" fill="#233862"/>
    <path id="Path_472" data-name="Path 472" d="M870.643,279.7s4.671.792,5.219,2.8,4.338,13.258,4.338,13.258-2.936,1-4.033-.1-3.817-10.177-3.817-10.177Z" transform="translate(-772.154 -248.055)" fill="#e69644"/>
    <path id="Path_473" data-name="Path 473" d="M1038.969,394.787l1.107-.439a2.641,2.641,0,0,1,1.025-.035c.36.113,1.259.1,1.263.249s-1.026.606-1.026.606l-.032-.012c.391.886,2.347,1.392,2.442,1.717.114.394-.8.6-1.291.72a2.736,2.736,0,0,1-2.309-.521c-.438-.462-1.178-1.1-1.178-1.1Z" transform="translate(-921.439 -349.668)" fill="#ffb27d"/>
    <path id="Path_474" data-name="Path 474" d="M864.75,238.857a.927.927,0,0,0,.823.553c.6,0,.758-.089.871-.216a1.867,1.867,0,0,0,.225-.37,5.068,5.068,0,0,0-1.919.033" transform="translate(-766.928 -211.737)" fill="#fff"/>
    <path id="Path_475" data-name="Path 475" d="M908.96,374.439l11.308.863a3.524,3.524,0,0,1-.492,2.34s-10.2,1.994-12.864.976-2.362-5.822-2.362-5.822Z" transform="translate(-802.216 -330.623)" fill="#f99746"/>
    <path id="Path_476" data-name="Path 476" d="M791.684,406.254c.165,1.326.115,2.112.226,2.972,4.241.014,9.911-3.275,9.911-3.275Z" transform="translate(-702.127 -360.026)" fill="#d8873d"/>
    <path id="Path_477" data-name="Path 477" d="M800.435,338.789s-6.607-.2-7.721-3.952c-1.224-4.126-2.594,1.7-2.594,1.7l.729,3.716H798.1Z" transform="translate(-700.741 -295.647)" fill="#d8873d"/>
    <path id="Path_478" data-name="Path 478" d="M910.454,272.048l-.357-.884a2.508,2.508,0,0,0-2.325-1.569h-6.586v22.022h27.246V273.774H913.013a2.76,2.76,0,0,1-2.559-1.726" transform="translate(-799.241 -239.096)" fill="#f2a63f"/>
    <path id="Path_479" data-name="Path 479" d="M937.515,356.412v-1.587l5.568-2.439v1.622l-3.888,1.6,3.888,1.6v1.645Z" transform="translate(-831.462 -312.521)" fill="#fff"/>
    <path id="Path_480" data-name="Path 480" d="M997.929,335.606h1.484l-5.1,10.652h-1.484Z" transform="translate(-880.522 -297.64)" fill="#fff"/>
    <path id="Path_481" data-name="Path 481" d="M1062.058,354.824v1.587l-5.568,2.439v-1.622l3.888-1.6-3.888-1.6v-1.645Z" transform="translate(-936.978 -312.521)" fill="#fff"/>
    <path id="Path_482" data-name="Path 482" d="M881.295,371.12l.478-.75a3.848,3.848,0,0,0,.909-.5c.631-.443.548-1.107.863-1.037l0,1.459-.034,0c1.354.362,2.937-.031,2.969.306.087.927-.63,1.345-1.231,1.635a2.18,2.18,0,0,1-1.814.3c-.607-.189-1.563-.381-1.563-.381Z" transform="translate(-781.601 -327.107)" fill="#ffb27d"/>
    <path id="Path_483" data-name="Path 483" d="M769.754,275.9s-4.289.281-5.361,1.954-2.4,10.165-1.844,13.082,14.292-.558,14.292-.558l-.438-2.531s-7.926.046-8.378-.986c-.6-1.373,1.729-10.961,1.729-10.961" transform="translate(-676.171 -244.691)" fill="#e69644"/>
    <path id="Path_484" data-name="Path 484" d="M1010.28,300.021a1.6,1.6,0,0,0,1.619,1.039c.607-.122,1.4-1.429.7-1.717a1.973,1.973,0,0,0-2.322.678" transform="translate(-895.994 -265.352)" fill="#ffb27d"/>
  </g>
</svg>
