<svg xmlns="http://www.w3.org/2000/svg" xmlns:xlink="http://www.w3.org/1999/xlink" width="276.752" height="186.31" viewBox="0 0 276.752 186.31">
  <defs>
    <clipPath id="clip-path">
      <rect id="Rectangle_206" data-name="Rectangle 206" width="276.752" height="186.31" fill="none"/>
    </clipPath>
    <clipPath id="clip-path-3">
      <rect id="Rectangle_191" data-name="Rectangle 191" width="56.704" height="34.658" fill="none"/>
    </clipPath>
    <clipPath id="clip-path-4">
      <rect id="Rectangle_192" data-name="Rectangle 192" width="16.757" height="8.761" fill="none"/>
    </clipPath>
    <clipPath id="clip-path-5">
      <rect id="Rectangle_193" data-name="Rectangle 193" width="27.997" height="27.997" fill="none"/>
    </clipPath>
    <clipPath id="clip-path-6">
      <rect id="Rectangle_194" data-name="Rectangle 194" width="14.203" height="7.426" fill="none"/>
    </clipPath>
    <clipPath id="clip-path-7">
      <rect id="Rectangle_195" data-name="Rectangle 195" width="23.731" height="23.731" fill="none"/>
    </clipPath>
    <clipPath id="clip-path-8">
      <path id="Path_593" data-name="Path 593" d="M1333.264,2039.37a10.28,10.28,0,0,0,10.279,10.28,9.989,9.989,0,0,0,10.28-10.28,10.28,10.28,0,1,0-20.559,0" transform="translate(-1333.264 -2029.09)" fill="none"/>
    </clipPath>
    <linearGradient id="linear-gradient" x1="-3.043" y1="1.718" x2="-3.041" y2="1.718" gradientUnits="objectBoundingBox">
      <stop offset="0" stop-color="#e1473d"/>
      <stop offset="1" stop-color="#e9605a"/>
    </linearGradient>
    <clipPath id="clip-path-10">
      <rect id="Rectangle_198" data-name="Rectangle 198" width="10.068" height="5.264" fill="none"/>
    </clipPath>
    <clipPath id="clip-path-11">
      <rect id="Rectangle_199" data-name="Rectangle 199" width="16.822" height="16.822" fill="none"/>
    </clipPath>
    <clipPath id="clip-path-12">
      <rect id="Rectangle_200" data-name="Rectangle 200" width="9.144" height="4.781" fill="none"/>
    </clipPath>
    <clipPath id="clip-path-13">
      <rect id="Rectangle_201" data-name="Rectangle 201" width="15.279" height="15.279" fill="none"/>
    </clipPath>
    <clipPath id="clip-path-14">
      <rect id="Rectangle_203" data-name="Rectangle 203" width="24.28" height="47.42" fill="none"/>
    </clipPath>
    <clipPath id="clip-path-15">
      <rect id="Rectangle_204" data-name="Rectangle 204" width="3.627" height="16.553" fill="none"/>
    </clipPath>
  </defs>
  <g id="Illustration" clip-path="url(#clip-path)">
    <g id="Group_121" data-name="Group 121" transform="translate(0 0)">
      <g id="Group_120" data-name="Group 120" clip-path="url(#clip-path)">
        <path id="Path_556" data-name="Path 556" d="M287.314,529.789s30.894-9.892,17.181-46.605c-8.085-21.644-32.134-28.689-30.755-67.562s-24.319-56.881-69.376-39.236c-61.741,21.911-88.35-27-134.593,37.126-15.549,27.932,20.741,38.736-32.121,66.2-12.388,17.242,6.113,34.163,20.784,50.079Z" transform="translate(-31.253 -343.965)" fill="#e7f3fd"/>
        <path id="Path_557" data-name="Path 557" d="M770.292,1136.981a3.056,3.056,0,0,0,3.048,3.045H938.167a3.056,3.056,0,0,0,3.048-3.045l1.372-94.722a5.308,5.308,0,0,0-5.59-4.7l-161.088-4.168a7.681,7.681,0,0,0-7.882,7.856Z" transform="translate(-714.769 -961.733)" fill="#063992"/>
        <path id="Path_558" data-name="Path 558" d="M813.26,1182.538a2.892,2.892,0,0,0,2.884,2.884H974.152a2.892,2.892,0,0,0,2.884-2.884l1.294-85.989a7.1,7.1,0,0,0-7.439-6.925L816.5,1085.482a5.4,5.4,0,0,0-5.538,5.524Z" transform="translate(-754.729 -1010.211)" fill="#67b8ee"/>
        <path id="Path_559" data-name="Path 559" d="M3175.648,1791.115h-.006a.423.423,0,0,1-.417-.429l.1-6.974a.422.422,0,0,1,.422-.416h.006a.422.422,0,0,1,.416.429l-.1,6.974a.423.423,0,0,1-.422.416" transform="translate(-2955.049 -1659.639)" fill="#fff"/>
        <g id="Group_107" data-name="Group 107" transform="translate(164.961 79.729)" opacity="0.78">
          <g id="Group_106" data-name="Group 106">
            <g id="Group_105" data-name="Group 105" clip-path="url(#clip-path-3)">
              <path id="Path_560" data-name="Path 560" d="M2434.832,1184.46h-.006a.422.422,0,0,1-.416-.429l.392-26.709a5.016,5.016,0,0,0-1.431-3.756,7.057,7.057,0,0,0-4.67-1.594l-49.346-1.323a.422.422,0,0,1-.411-.434.405.405,0,0,1,.434-.411l49.316,1.323a7.76,7.76,0,0,1,5.262,1.828,5.835,5.835,0,0,1,1.692,4.371l-.392,26.718a.422.422,0,0,1-.422.416" transform="translate(-2378.942 -1149.802)" fill="#fff"/>
            </g>
          </g>
        </g>
        <path id="Path_561" data-name="Path 561" d="M608.259,2572.919H801.8a.393.393,0,0,0,.392-.392v-7.539a.393.393,0,0,0-.392-.392H608.259a.393.393,0,0,0-.392.392v7.539a.393.393,0,0,0,.392.392" transform="translate(-565.716 -2386.762)" fill="#063992"/>
        <path id="Path_562" data-name="Path 562" d="M1447.364,20.266A20.262,20.262,0,1,1,1427.1,0a20.262,20.262,0,0,1,20.262,20.262" transform="translate(-1309.287 -0.004)" fill="#3868ad"/>
        <path id="Path_563" data-name="Path 563" d="M1455.733,29.307a19.588,19.588,0,1,1-19.588-19.588,19.588,19.588,0,0,1,19.588,19.588" transform="translate(-1318.329 -9.045)" fill="#062d66"/>
        <path id="Path_564" data-name="Path 564" d="M1435.859,245.316h-.011a.207.207,0,0,1-.2-.217,18.4,18.4,0,0,1,.266-2.3.207.207,0,1,1,.407.074,18.073,18.073,0,0,0-.26,2.245.207.207,0,0,1-.206.2" transform="translate(-1336.101 -225.806)" fill="#91b3fa"/>
        <path id="Path_565" data-name="Path 565" d="M1463.331,38.813a.207.207,0,0,1-.185-.3,18.213,18.213,0,0,1,16.337-10.059,18.434,18.434,0,0,1,3.3.3.207.207,0,1,1-.074.407,18.041,18.041,0,0,0-3.225-.29,17.8,17.8,0,0,0-15.968,9.831.207.207,0,0,1-.185.114" transform="translate(-1361.668 -26.481)" fill="#91b3fa"/>
        <path id="Path_566" data-name="Path 566" d="M1499.266,75.85a16.579,16.579,0,1,1-16.579-16.579,16.579,16.579,0,0,1,16.579,16.579" transform="translate(-1364.445 -55.161)" fill="#3868ad"/>
        <path id="Path_567" data-name="Path 567" d="M1634.13,137.2c0,2.9-2.354,6.04-5.259,6.04s-5.259-3.135-5.259-6.04a5.267,5.267,0,0,1,10.517,0" transform="translate(-1511.028 -123.066)" fill="#d2ebff"/>
        <path id="Path_568" data-name="Path 568" d="M1556.479,324.616h12.837a3.107,3.107,0,0,0,2.96-2.16l.691-2.159a3.1,3.1,0,0,0-1.875-3.862c-5.224-1.91-10.626-1.665-16.16.176a3.094,3.094,0,0,0-1.983,3.751l.532,1.961a3.107,3.107,0,0,0,3,2.294" transform="translate(-1445.162 -293.261)" fill="#d2ebff"/>
        <path id="Path_569" data-name="Path 569" d="M2215.388,229.231a15.4,15.4,0,1,1-15.4-15.4,15.4,15.4,0,0,1,15.4,15.4" transform="translate(-2033.112 -199.008)" fill="#3868ad"/>
        <path id="Path_570" data-name="Path 570" d="M2221.748,236.1a14.884,14.884,0,1,1-14.884-14.884,14.884,14.884,0,0,1,14.884,14.884" transform="translate(-2039.984 -205.878)" fill="#062d66"/>
        <path id="Path_571" data-name="Path 571" d="M2206.647,400.23h-.009a.157.157,0,0,1-.149-.165,13.961,13.961,0,0,1,.2-1.746.157.157,0,1,1,.309.056,13.742,13.742,0,0,0-.2,1.706.157.157,0,0,1-.157.149" transform="translate(-2053.487 -370.579)" fill="#91b3fa"/>
        <path id="Path_572" data-name="Path 572" d="M2227.521,243.323a.157.157,0,0,1-.14-.228,13.838,13.838,0,0,1,12.414-7.643,14,14,0,0,1,2.507.226.157.157,0,1,1-.056.309,13.709,13.709,0,0,0-2.45-.22,13.525,13.525,0,0,0-12.133,7.47.157.157,0,0,1-.141.086" transform="translate(-2072.914 -219.126)" fill="#91b3fa"/>
        <path id="Path_573" data-name="Path 573" d="M2254.826,271.464a12.6,12.6,0,1,1-12.6-12.6,12.6,12.6,0,0,1,12.6,12.6" transform="translate(-2075.024 -240.917)" fill="#3868ad"/>
        <path id="Path_574" data-name="Path 574" d="M2357.3,318.08c0,2.207-1.789,4.589-4,4.589s-4-2.382-4-4.589a4,4,0,0,1,7.991,0" transform="translate(-2186.403 -292.514)" fill="#d2ebff"/>
        <path id="Path_575" data-name="Path 575" d="M2298.3,460.485h9.754a2.361,2.361,0,0,0,2.249-1.642l.525-1.64a2.359,2.359,0,0,0-1.425-2.935,18.18,18.18,0,0,0-12.279.134,2.351,2.351,0,0,0-1.507,2.85l.4,1.49a2.361,2.361,0,0,0,2.279,1.743" transform="translate(-2136.355 -421.833)" fill="#d2ebff"/>
        <path id="Path_576" data-name="Path 576" d="M856.064,398.36a15.4,15.4,0,1,1-15.4-15.4,15.4,15.4,0,0,1,15.4,15.4" transform="translate(-768.046 -356.409)" fill="#3868ad"/>
        <path id="Path_577" data-name="Path 577" d="M862.424,405.23a14.884,14.884,0,1,1-14.884-14.884,14.884,14.884,0,0,1,14.884,14.884" transform="translate(-774.918 -363.279)" fill="#062d66"/>
        <path id="Path_578" data-name="Path 578" d="M847.322,569.359h-.008a.157.157,0,0,1-.149-.165,13.983,13.983,0,0,1,.2-1.745.157.157,0,1,1,.309.056,13.674,13.674,0,0,0-.2,1.706.157.157,0,0,1-.157.149" transform="translate(-788.421 -527.98)" fill="#91b3fa"/>
        <path id="Path_579" data-name="Path 579" d="M868.2,412.451a.156.156,0,0,1-.071-.017.157.157,0,0,1-.07-.211,13.839,13.839,0,0,1,12.413-7.643,14,14,0,0,1,2.507.226.157.157,0,1,1-.056.309,13.7,13.7,0,0,0-2.45-.221,13.526,13.526,0,0,0-12.133,7.47.157.157,0,0,1-.14.086" transform="translate(-807.847 -376.526)" fill="#91b3fa"/>
        <path id="Path_580" data-name="Path 580" d="M895.5,440.593A12.6,12.6,0,1,1,882.9,428a12.6,12.6,0,0,1,12.6,12.6" transform="translate(-809.957 -398.318)" fill="#3868ad"/>
        <path id="Path_581" data-name="Path 581" d="M997.975,487.209c0,2.207-1.789,4.589-4,4.589s-4-2.382-4-4.589a4,4,0,0,1,7.991,0" transform="translate(-921.336 -449.915)" fill="#d2ebff"/>
        <path id="Path_582" data-name="Path 582" d="M938.973,629.613h9.754a2.361,2.361,0,0,0,2.249-1.641l.525-1.641a2.359,2.359,0,0,0-1.425-2.935,18.18,18.18,0,0,0-12.279.134,2.351,2.351,0,0,0-1.507,2.85l.4,1.49a2.361,2.361,0,0,0,2.279,1.743" transform="translate(-871.288 -579.234)" fill="#d2ebff"/>
        <path id="Path_583" data-name="Path 583" d="M1705.2,2172.259a17.109,17.109,0,1,1-34.217,0,17.421,17.421,0,0,1,17.108-17.108,17.109,17.109,0,0,1,17.109,17.108" transform="translate(-1555.114 -2005.709)" fill="#ffb93e"/>
        <path id="Path_584" data-name="Path 584" d="M1712.267,2179.895a16.54,16.54,0,1,1-16.54-16.54,16.539,16.539,0,0,1,16.54,16.54" transform="translate(-1562.75 -2013.344)" fill="#ffa412"/>
        <g id="Group_110" data-name="Group 110" transform="translate(119.157 151.101)" opacity="0.78">
          <g id="Group_109" data-name="Group 109">
            <g id="Group_108" data-name="Group 108" clip-path="url(#clip-path-4)">
              <path id="Path_585" data-name="Path 585" d="M1718.584,2187.832a.178.178,0,0,1-.082-.02.182.182,0,0,1-.08-.244,15.385,15.385,0,0,1,13.8-8.5,15.616,15.616,0,0,1,2.787.25.182.182,0,1,1-.065.358,15.23,15.23,0,0,0-2.722-.245,15.023,15.023,0,0,0-13.476,8.3.182.182,0,0,1-.163.1" transform="translate(-1718.402 -2179.071)" fill="#fff"/>
            </g>
          </g>
        </g>
        <g id="Group_113" data-name="Group 113" transform="translate(119.34 152.912)" opacity="0.78">
          <g id="Group_112" data-name="Group 112">
            <g id="Group_111" data-name="Group 111" clip-path="url(#clip-path-5)">
              <path id="Path_586" data-name="Path 586" d="M1749.025,2219.193a14,14,0,1,1-14-14,14,14,0,0,1,14,14" transform="translate(-1721.028 -2205.194)" fill="#fff"/>
            </g>
          </g>
        </g>
        <path id="Path_587" data-name="Path 587" d="M1838.78,2284.51v-1.523a12.416,12.416,0,0,1-4.273-.927.881.881,0,0,1-.487-1.041l.387-1.419a.888.888,0,0,1,1.205-.581,10.312,10.312,0,0,0,3.946.831c1.529,0,2.67-.519,2.67-1.581,0-.959-.881-1.529-3.006-2.1-3.032-.83-5.21-2.151-5.21-4.821,0-2.411,1.763-4.251,4.821-4.743v-1.523a.887.887,0,0,1,.887-.887h.895a.887.887,0,0,1,.887.887v1.368a11.312,11.312,0,0,1,3.387.608.883.883,0,0,1,.552,1.066l-.356,1.312a.885.885,0,0,1-1.168.6,9.24,9.24,0,0,0-3.322-.6c-1.814,0-2.333.751-2.333,1.426,0,.829,1.089,1.4,3.447,2.125,3.37,1.011,4.769,2.411,4.769,4.925,0,2.307-1.711,4.38-5.028,4.9v1.7a.887.887,0,0,1-.887.887h-.895a.887.887,0,0,1-.888-.887" transform="translate(-1706.816 -2107.192)" fill="#ffa412"/>
        <path id="Path_588" data-name="Path 588" d="M2322.982,1762.991a14.5,14.5,0,0,1-14.5,14.5,14.207,14.207,0,0,1-14.5-14.5,14.5,14.5,0,0,1,29,0" transform="translate(-2134.91 -1627.246)" fill="#ffb93e"/>
        <path id="Path_589" data-name="Path 589" d="M2328.97,1769.464a14.019,14.019,0,1,1-14.019-14.019,14.019,14.019,0,0,1,14.019,14.019" transform="translate(-2141.381 -1633.719)" fill="#ffa412"/>
        <g id="Group_116" data-name="Group 116" transform="translate(161.856 122.65)" opacity="0.78">
          <g id="Group_115" data-name="Group 115">
            <g id="Group_114" data-name="Group 114" clip-path="url(#clip-path-6)">
              <path id="Path_590" data-name="Path 590" d="M2334.324,1776.191a.154.154,0,0,1-.137-.224,13.04,13.04,0,0,1,11.7-7.2,13.214,13.214,0,0,1,2.362.213.154.154,0,1,1-.055.3,12.9,12.9,0,0,0-2.307-.207,12.735,12.735,0,0,0-11.423,7.033.154.154,0,0,1-.138.085" transform="translate(-2334.17 -1768.765)" fill="#fff"/>
            </g>
          </g>
        </g>
        <g id="Group_119" data-name="Group 119" transform="translate(162.011 124.185)" opacity="0.78">
          <g id="Group_118" data-name="Group 118">
            <g id="Group_117" data-name="Group 117" clip-path="url(#clip-path-7)">
              <path id="Path_591" data-name="Path 591" d="M2360.127,1802.773a11.866,11.866,0,1,1-11.866-11.865,11.866,11.866,0,0,1,11.866,11.865" transform="translate(-2336.396 -1790.908)" fill="#fff"/>
            </g>
          </g>
        </g>
        <path id="Path_592" data-name="Path 592" d="M2436.206,1858.139v-1.291a10.531,10.531,0,0,1-3.622-.786.747.747,0,0,1-.413-.882l.328-1.2a.753.753,0,0,1,1.022-.493,8.738,8.738,0,0,0,3.344.7c1.3,0,2.263-.439,2.263-1.34,0-.813-.747-1.3-2.548-1.779-2.57-.7-4.416-1.823-4.416-4.086,0-2.043,1.494-3.6,4.086-4.02v-1.291a.752.752,0,0,1,.752-.752h.759a.752.752,0,0,1,.752.752v1.159a9.6,9.6,0,0,1,2.871.516.749.749,0,0,1,.468.9l-.3,1.112a.75.75,0,0,1-.99.506,7.835,7.835,0,0,0-2.816-.511c-1.538,0-1.977.637-1.977,1.208,0,.7.923,1.186,2.922,1.8,2.856.857,4.042,2.043,4.042,4.174,0,1.955-1.45,3.713-4.262,4.152v1.445a.752.752,0,0,1-.752.752h-.759a.752.752,0,0,1-.752-.752" transform="translate(-2263.494 -1713.267)" fill="#ffa412"/>
      </g>
    </g>
    <g id="Group_123" data-name="Group 123" transform="translate(92.451 140.701)">
      <g id="Group_122" data-name="Group 122" clip-path="url(#clip-path-8)">
        <rect id="Rectangle_197" data-name="Rectangle 197" width="28.995" height="28.995" transform="translate(-10.167 11.8) rotate(-49.254)" fill="url(#linear-gradient)"/>
      </g>
    </g>
    <g id="Group_143" data-name="Group 143" transform="translate(0 0)">
      <g id="Group_142" data-name="Group 142" clip-path="url(#clip-path)">
        <path id="Path_594" data-name="Path 594" d="M1358.069,2043.958a9.938,9.938,0,1,1-9.938-9.938,9.938,9.938,0,0,1,9.938,9.938" transform="translate(-1245.401 -1892.977)" fill="#ffa412"/>
        <g id="Group_126" data-name="Group 126" transform="translate(94.427 141.698)" opacity="0.78">
          <g id="Group_125" data-name="Group 125">
            <g id="Group_124" data-name="Group 124" clip-path="url(#clip-path-10)">
              <path id="Path_595" data-name="Path 595" d="M1361.865,2048.727a.111.111,0,0,1-.049-.011.109.109,0,0,1-.048-.147,9.244,9.244,0,0,1,8.292-5.105,9.375,9.375,0,0,1,1.675.151.109.109,0,1,1-.039.215,9.13,9.13,0,0,0-1.635-.147,9.027,9.027,0,0,0-8.1,4.985.109.109,0,0,1-.1.06" transform="translate(-1361.755 -2043.463)" fill="#fff"/>
            </g>
          </g>
        </g>
        <g id="Group_129" data-name="Group 129" transform="translate(94.536 142.786)" opacity="0.78">
          <g id="Group_128" data-name="Group 128">
            <g id="Group_127" data-name="Group 127" clip-path="url(#clip-path-11)">
              <path id="Path_596" data-name="Path 596" d="M1380.154,2067.57a8.411,8.411,0,1,1-8.411-8.411,8.411,8.411,0,0,1,8.411,8.411" transform="translate(-1363.332 -2059.159)" fill="#fff"/>
            </g>
          </g>
        </g>
        <path id="Path_597" data-name="Path 597" d="M1434.085,2106.817v-.915a7.463,7.463,0,0,1-2.568-.557.529.529,0,0,1-.292-.625l.232-.852a.534.534,0,0,1,.724-.349,6.2,6.2,0,0,0,2.37.5c.919,0,1.6-.312,1.6-.95,0-.576-.53-.919-1.807-1.261-1.822-.5-3.13-1.293-3.13-2.9,0-1.448,1.059-2.554,2.9-2.85v-.915a.533.533,0,0,1,.533-.533h.538a.533.533,0,0,1,.533.533v.822a6.79,6.79,0,0,1,2.035.365.53.53,0,0,1,.332.64l-.214.788a.532.532,0,0,1-.7.359,5.552,5.552,0,0,0-2-.362c-1.09,0-1.4.452-1.4.856,0,.5.654.841,2.071,1.277,2.025.608,2.865,1.448,2.865,2.959,0,1.386-1.028,2.632-3.021,2.944v1.024a.533.533,0,0,1-.533.533h-.538a.533.533,0,0,1-.533-.533" transform="translate(-1331.963 -1949.367)" fill="#ffa412"/>
        <path id="Path_598" data-name="Path 598" d="M2290.652,2259.015a9.337,9.337,0,1,1-9.337-9.337,9.337,9.337,0,0,1,9.337,9.337" transform="translate(-2114.435 -2093.681)" fill="#ffb93e"/>
        <path id="Path_599" data-name="Path 599" d="M2294.508,2265.748a9.026,9.026,0,1,1-9.026-9.026,9.026,9.026,0,0,1,9.026,9.026" transform="translate(-2118.601 -2100.237)" fill="#ffa412"/>
        <g id="Group_132" data-name="Group 132" transform="translate(159.338 156.902)" opacity="0.78">
          <g id="Group_131" data-name="Group 131">
            <g id="Group_130" data-name="Group 130" clip-path="url(#clip-path-12)">
              <path id="Path_600" data-name="Path 600" d="M2297.955,2267.512a.1.1,0,0,1-.045-.01.1.1,0,0,1-.044-.134,8.4,8.4,0,0,1,7.531-4.637,8.5,8.5,0,0,1,1.521.137.1.1,0,0,1-.036.2,8.287,8.287,0,0,0-1.485-.134,8.2,8.2,0,0,0-7.354,4.528.1.1,0,0,1-.089.054" transform="translate(-2297.856 -2262.731)" fill="#fff"/>
            </g>
          </g>
        </g>
        <g id="Group_135" data-name="Group 135" transform="translate(159.438 157.891)" opacity="0.78">
          <g id="Group_134" data-name="Group 134">
            <g id="Group_133" data-name="Group 133" clip-path="url(#clip-path-13)">
              <path id="Path_601" data-name="Path 601" d="M2314.568,2284.628a7.64,7.64,0,1,1-7.64-7.64,7.64,7.64,0,0,1,7.64,7.64" transform="translate(-2299.289 -2276.988)" fill="#fff"/>
            </g>
          </g>
        </g>
        <path id="Path_602" data-name="Path 602" d="M2363.551,2320.274v-.831a6.774,6.774,0,0,1-2.332-.506.481.481,0,0,1-.266-.568l.211-.774a.485.485,0,0,1,.658-.317,5.625,5.625,0,0,0,2.153.453c.835,0,1.457-.283,1.457-.863,0-.523-.481-.834-1.641-1.146-1.655-.452-2.843-1.174-2.843-2.631,0-1.316.962-2.32,2.631-2.589v-.831a.484.484,0,0,1,.484-.484h.488a.484.484,0,0,1,.484.484v.746a6.174,6.174,0,0,1,1.848.332.482.482,0,0,1,.3.582l-.195.716a.483.483,0,0,1-.637.326,5.039,5.039,0,0,0-1.813-.329c-.99,0-1.273.41-1.273.778,0,.453.594.764,1.881,1.16,1.839.552,2.6,1.315,2.6,2.687,0,1.259-.933,2.391-2.744,2.673v.93a.484.484,0,0,1-.484.484h-.488a.484.484,0,0,1-.484-.484" transform="translate(-2197.223 -2149.064)" fill="#ffa412"/>
        <path id="Path_603" data-name="Path 603" d="M876.362,805.256H821.546c-10.731-21.969-21.462-44.172-32.194-66.141h119.2c-10.731,21.969-21.462,44.172-32.194,66.141" transform="translate(-734.617 -687.864)" fill="#ffa412"/>
        <rect id="Rectangle_202" data-name="Rectangle 202" width="126.673" height="5.142" rx="2.571" transform="translate(50.883 48.681)" fill="#f4d7ae"/>
        <path id="Path_604" data-name="Path 604" d="M1302.544,1718.658H1255.6c-1.361-8.18-2.721-17.061-4.082-25.708h55.108c-1.361,8.647-2.721,17.529-4.082,25.708" transform="translate(-1164.735 -1575.557)" fill="#ffa412"/>
        <path id="Path_605" data-name="Path 605" d="M1336.558,2029.5c0,.951-.6,1.8-1.294,1.8h-47.55c-.692,0-1.171-.851-1.171-1.8v-1.059c0-.952.479-1.812,1.171-1.812h47.55c.692,0,1.294.861,1.294,1.812Z" transform="translate(-1197.331 -1886.094)" fill="#f4d7ae"/>
        <g id="Group_138" data-name="Group 138" transform="translate(60.482 58.556)" opacity="0.78">
          <g id="Group_137" data-name="Group 137">
            <g id="Group_136" data-name="Group 136" clip-path="url(#clip-path-14)">
              <path id="Path_606" data-name="Path 606" d="M896.14,891.877a.39.39,0,0,1-.37-.214l-23.5-46.641a.39.39,0,1,1,.7-.351l23.5,46.641a.39.39,0,0,1-.326.565" transform="translate(-872.228 -844.457)" fill="#fff"/>
            </g>
          </g>
        </g>
        <g id="Group_141" data-name="Group 141" transform="translate(89.654 120.022)" opacity="0.78">
          <g id="Group_140" data-name="Group 140">
            <g id="Group_139" data-name="Group 139" clip-path="url(#clip-path-15)">
              <path id="Path_607" data-name="Path 607" d="M1296.189,1747.431a.39.39,0,0,1-.4-.32l-2.847-15.772a.39.39,0,1,1,.767-.139l2.847,15.772a.39.39,0,0,1-.314.453.412.412,0,0,1-.048.006" transform="translate(-1292.931 -1730.879)" fill="#fff"/>
            </g>
          </g>
        </g>
        <path id="Path_608" data-name="Path 608" d="M2892.6,1169.238s-4.964,16.866,11.7,25.427l4.157-2.11s-12.922-9.561-14.034-21.256a1.1,1.1,0,0,1,.757-1.154l3.711-2.012c.6-.189.943-1.37,1.255-1.919l.752-4.2Z" transform="translate(-2691.374 -1081.439)" fill="#ffb27d"/>
        <path id="Path_609" data-name="Path 609" d="M2608.5,590.271a24.851,24.851,0,1,1-24.851-24.851,24.851,24.851,0,0,1,24.851,24.851" transform="translate(-2381.362 -526.213)" fill="#3868ad"/>
        <path id="Path_610" data-name="Path 610" d="M2618.759,601.361a24.024,24.024,0,1,1-24.024-24.025,24.024,24.024,0,0,1,24.024,24.025" transform="translate(-2392.452 -537.303)" fill="#062d66"/>
        <path id="Path_611" data-name="Path 611" d="M2594.384,866.287h-.013a.254.254,0,0,1-.24-.267,22.515,22.515,0,0,1,.326-2.817.254.254,0,1,1,.5.09,22.1,22.1,0,0,0-.319,2.754.254.254,0,0,1-.253.241" transform="translate(-2414.248 -803.152)" fill="#d2ebff"/>
        <path id="Path_612" data-name="Path 612" d="M2628.077,613.018a.249.249,0,0,1-.114-.027.253.253,0,0,1-.112-.341,22.337,22.337,0,0,1,20.037-12.337,22.592,22.592,0,0,1,4.046.364.254.254,0,1,1-.091.5,22.128,22.128,0,0,0-3.955-.356,21.834,21.834,0,0,0-19.584,12.058.253.253,0,0,1-.227.14" transform="translate(-2445.605 -558.686)" fill="#d2ebff"/>
        <path id="Path_613" data-name="Path 613" d="M2672.15,658.443a20.334,20.334,0,1,1-20.334-20.334,20.334,20.334,0,0,1,20.334,20.334" transform="translate(-2449.01 -593.862)" fill="#3868ad"/>
        <path id="Path_614" data-name="Path 614" d="M2837.557,733.686c0,3.562-2.887,7.407-6.449,7.407s-6.45-3.845-6.45-7.407a6.46,6.46,0,0,1,12.9,0" transform="translate(-2628.79 -677.144)" fill="#d2ebff"/>
        <path id="Path_615" data-name="Path 615" d="M2742.321,963.546h15.744a3.811,3.811,0,0,0,3.63-2.65l.847-2.648a3.807,3.807,0,0,0-2.3-4.737c-6.407-2.343-13.033-2.042-19.82.216a3.8,3.8,0,0,0-2.432,4.6l.652,2.4a3.811,3.811,0,0,0,3.678,2.813" transform="translate(-2548.008 -885.883)" fill="#d2ebff"/>
        <path id="Path_616" data-name="Path 616" d="M3108.843,2120.949s8.768,19.11,13.369,27.026c0,0,.914,4.981,0,6.547l-.779.346,3.634-.108s.323-6.7.071-7.073a.926.926,0,0,0-.757-.35s-1.558-12.345-6.071-14.98l-4.373-15.064Z" transform="translate(-2893.269 -1970.476)" fill="#ffb27d"/>
        <path id="Path_617" data-name="Path 617" d="M3268.022,2558.552c-.005.087,2.838.048,4.382.02a1.229,1.229,0,0,0,1.178-.969l1.167-6.127a1.1,1.1,0,0,0-.837-1.28l-.651-.149a3.487,3.487,0,0,0-.636,2.474c.292,1.2.552,4.306-.186,4.668a10.777,10.777,0,0,1-2.864.426s-1.5.149-1.552.938" transform="translate(-3041.41 -2373.221)" fill="#f4932a"/>
        <path id="Path_618" data-name="Path 618" d="M2986.809,2631.442a.321.321,0,0,0,.162.6c2.584-.026,8.376-.108,8.89-.322.665-.277-.242-2.664-1.2-3.472l-5.268,1.719Z" transform="translate(-2779.546 -2446)" fill="#f4932a"/>
        <path id="Path_619" data-name="Path 619" d="M2965.408,2152.445s5.667,27.411,7.27,32.758l-3.792,2.379s1.9-.323,3.309-.425a4.829,4.829,0,0,0,2.705-1.719l-.454-.725s-1.421-27.262-1.075-30.357Z" transform="translate(-2759.781 -2003.19)" fill="#ffb27d"/>
        <path id="Path_620" data-name="Path 620" d="M2676.922,1121.845s-.781,14.259,12.2,21.545l-3.125,7.128s-11.738-7.1-11.32-26.459a2.3,2.3,0,0,0-.551-1.558l-2.5-2.9a4.485,4.485,0,0,1-.954-4.016l.329-1.314a.682.682,0,0,1,1-.424l.261.152a4.586,4.586,0,0,1,1.883,2.093l1.254,1.979c.346.773,2.155,1.419,3.021,1.689a.287.287,0,0,1,.117.478Z" transform="translate(-2485.36 -1036.527)" fill="#ffb27d"/>
        <path id="Path_621" data-name="Path 621" d="M2889.957,1525.363c2.172.6,9.53,2.538,14.123,2.459l-2.82,15.915.225,2.6-9.2-.041a71.3,71.3,0,0,0-4.631-9.009c-.59-.865-.151-1.9.183-2.891l-.459-.306a1.251,1.251,0,0,1-.5-1.429l2.239-6.851a.684.684,0,0,1,.831-.443" transform="translate(-2686.646 -1419.568)" fill="#f4932a"/>
        <path id="Path_622" data-name="Path 622" d="M2946.042,1803.653l.181,1.573s-2.6,7.782,1.3,25.958c0,0,8.442,2.391,15.381-3.331,0,0-1.957-17.156-2.492-17.955-2.663-3.98-4.436-4.846-4.436-4.846l-.08-1.718s-7.421,1.342-9.852.318" transform="translate(-2741.136 -1678.288)" fill="#063992"/>
        <path id="Path_623" data-name="Path 623" d="M3006.906,1465.1c-.032-.043,1.919-5.893,1.919-5.893l2.8.254,1.092,6.637s-4.382.884-5.808-1" transform="translate(-2798.4 -1358.025)" fill="#ffb27d"/>
        <path id="Path_624" data-name="Path 624" d="M2999.42,1322.319c-.186.116-5.975,2.508-4.731,8.517a1.128,1.128,0,0,0,.642.8,9.808,9.808,0,0,0,4.865.805c3.032-.308,5.019-5.6,4.935-7.139s-3.863-4.138-5.71-2.987" transform="translate(-2786.868 -1230.361)" fill="#ffb27d"/>
        <path id="Path_625" data-name="Path 625" d="M2992.937,1279.971c-.192.025-4.22,1.428-2.222,4.347s2.747,4.637,1.8,5.919c-.861,1.168-2.768.5-2.6,2.932a1.363,1.363,0,0,1-.581,1.232c-1.8,1.216-6.18,4.96-1.837,10.3a1.359,1.359,0,0,1,.153,1.521c-1.272,2.282-3.944,8.966,5.73,12.674,9.559,3.664,13.011-2.585,13.975-5.083a1.333,1.333,0,0,1,1.319-.844c1.051.05,2.539-.125,2.47-1.529a3.506,3.506,0,0,0-1.2-2.229,1.332,1.332,0,0,1,.256-2.1,2.609,2.609,0,0,0,1.289-1.62c.579-2.147-.577-8.565-6.73-9.653a1.453,1.453,0,0,1-1.125-1.088c0-.008,0-.015,0-.023a1.33,1.33,0,0,1,.494-1.308,3.453,3.453,0,0,0,1.219-4.5,5.042,5.042,0,0,0-3.941-2.982,1.34,1.34,0,0,1-1.1-1.6c.436-2.053.056-5.341-7.366-4.368" transform="translate(-2778.607 -1191.052)" fill="#062d66"/>
        <path id="Path_626" data-name="Path 626" d="M275.859,2678.051H.3a.3.3,0,0,1-.3-.3v-.063a.3.3,0,0,1,.3-.3H275.859a.3.3,0,0,1,.3.3v.062a.3.3,0,0,1-.3.3" transform="translate(0 -2491.741)" fill="#2f50c2"/>
      </g>
    </g>
  </g>
</svg>
