<svg xmlns="http://www.w3.org/2000/svg" xmlns:xlink="http://www.w3.org/1999/xlink" width="438" height="437.899" viewBox="0 0 438 437.899">
  <defs>
    <clipPath id="clip-path">
      <rect id="Rectangle_941" data-name="Rectangle 941" width="438" height="437.899" fill="none"/>
    </clipPath>
    <clipPath id="clip-path-2">
      <rect id="Rectangle_923" data-name="Rectangle 923" width="405.441" height="7.947" fill="none"/>
    </clipPath>
    <clipPath id="clip-path-3">
      <rect id="Rectangle_924" data-name="Rectangle 924" width="9.472" height="9.472" fill="none"/>
    </clipPath>
    <clipPath id="clip-path-4">
      <rect id="Rectangle_925" data-name="Rectangle 925" width="382.496" height="197.205" fill="none"/>
    </clipPath>
    <clipPath id="clip-path-5">
      <rect id="Rectangle_926" data-name="Rectangle 926" width="119.716" height="10.277" fill="none"/>
    </clipPath>
    <clipPath id="clip-path-6">
      <rect id="Rectangle_927" data-name="Rectangle 927" width="159.347" height="9.633" fill="none"/>
    </clipPath>
    <clipPath id="clip-path-7">
      <rect id="Rectangle_928" data-name="Rectangle 928" width="174.656" height="35.398" fill="none"/>
    </clipPath>
    <clipPath id="clip-path-8">
      <rect id="Rectangle_929" data-name="Rectangle 929" width="145.101" height="9.634" fill="none"/>
    </clipPath>
    <clipPath id="clip-path-9">
      <rect id="Rectangle_930" data-name="Rectangle 930" width="174.656" height="38.761" fill="none"/>
    </clipPath>
    <clipPath id="clip-path-10">
      <rect id="Rectangle_931" data-name="Rectangle 931" width="175.72" height="9.632" fill="none"/>
    </clipPath>
    <clipPath id="clip-path-11">
      <rect id="Rectangle_932" data-name="Rectangle 932" width="174.656" height="33.682" fill="none"/>
    </clipPath>
    <clipPath id="clip-path-12">
      <rect id="Rectangle_933" data-name="Rectangle 933" width="62.736" height="6.532" fill="none"/>
    </clipPath>
    <clipPath id="clip-path-13">
      <rect id="Rectangle_934" data-name="Rectangle 934" width="49.884" height="49.947" fill="none"/>
    </clipPath>
    <clipPath id="clip-path-14">
      <rect id="Rectangle_935" data-name="Rectangle 935" width="49.882" height="49.947" fill="none"/>
    </clipPath>
    <clipPath id="clip-path-16">
      <rect id="Rectangle_937" data-name="Rectangle 937" width="39.311" height="65.342" fill="none"/>
    </clipPath>
    <clipPath id="clip-path-17">
      <rect id="Rectangle_940" data-name="Rectangle 940" width="6.813" height="10.003" fill="none"/>
    </clipPath>
  </defs>
  <g id="Group_1024" data-name="Group 1024" clip-path="url(#clip-path)">
    <path id="Path_2428" data-name="Path 2428" d="M19.66,296.255C63.78,399.38,180.243,443.676,271.495,436.123c24.914-2.062,75.043-6.211,114.186-43.227,75.169-71.084,63.591-219.673-8.367-307.153C368.048,74.479,303.9-1,203.949.009,130.768.749,79.4,42.089,73.156,47.24A201.479,201.479,0,0,0,32.18,93.732C-4.671,151.362-7.91,231.811,19.66,296.255" transform="translate(-1.4 -0.001)" fill="#e7f3fd"/>
    <path id="Path_2429" data-name="Path 2429" d="M169.457,173.765a.639.639,0,0,0,.393-.133.653.653,0,0,0,.127-.915c-.529-.7-1.078-1.4-1.63-2.075a.654.654,0,1,0-1.012.827c.542.664,1.081,1.351,1.6,2.037a.653.653,0,0,0,.522.258" transform="translate(-28.038 131.219)" fill="#bfdbef"/>
    <path id="Path_2430" data-name="Path 2430" d="M172.115,212.673a.654.654,0,0,0,.641-.527c.345-1.733.765-3.476,1.246-5.176a.654.654,0,1,0-1.258-.357c-.49,1.735-.919,3.51-1.271,5.278a.655.655,0,0,0,.515.768.621.621,0,0,0,.127.014m4.167-13.461a.654.654,0,0,0,.6-.4c.692-1.621,1.458-3.239,2.282-4.811a.654.654,0,0,0-1.159-.607c-.837,1.6-1.62,3.252-2.326,4.9a.656.656,0,0,0,.6.912m6.827-12.328a.652.652,0,0,0,.538-.281c1.011-1.455,2.089-2.885,3.2-4.252a.654.654,0,0,0-1.012-.828c-1.136,1.393-2.236,2.852-3.266,4.335a.654.654,0,0,0,.165.91.641.641,0,0,0,.372.117m103.672-10.652a.653.653,0,0,0,.45-1.129c-1.308-1.235-2.683-2.436-4.087-3.57a.654.654,0,0,0-.821,1.018c1.377,1.112,2.728,2.292,4.009,3.5a.651.651,0,0,0,.45.179m-94.494-.037a.65.65,0,0,0,.45-.181c1.281-1.214,2.628-2.393,4-3.5a.654.654,0,1,0-.823-1.018c-1.4,1.133-2.774,2.335-4.08,3.572a.655.655,0,0,0,.45,1.129M275.6,167.65a.654.654,0,0,0,.345-1.211c-1.538-.949-3.128-1.848-4.724-2.671a.654.654,0,1,0-.6,1.161c1.568.809,3.128,1.69,4.638,2.623a.65.65,0,0,0,.342.1m-72.144-.035a.645.645,0,0,0,.343-.1c1.5-.922,3.06-1.8,4.638-2.609a.654.654,0,1,0-.6-1.165c-1.607.823-3.2,1.719-4.728,2.66a.654.654,0,0,0,.343,1.211m59.463-6.11a.654.654,0,0,0,.223-1.269c-1.7-.616-3.434-1.172-5.17-1.651a.655.655,0,1,0-.349,1.262c1.7.471,3.409,1.014,5.073,1.618a.66.66,0,0,0,.223.041m-46.77,0a.648.648,0,0,0,.221-.039c1.662-.6,3.368-1.142,5.075-1.611a.654.654,0,0,0-.347-1.26c-1.738.478-3.478,1.03-5.172,1.641a.654.654,0,0,0,.223,1.269m13.67-3.406a.858.858,0,0,0,.094-.005c1.747-.251,3.529-.435,5.3-.549a.654.654,0,0,0,.611-.7.663.663,0,0,0-.694-.611c-1.8.115-3.618.3-5.4.559a.654.654,0,0,0,.092,1.3m19.43-.011a.654.654,0,0,0,.092-1.3c-1.786-.255-3.6-.441-5.4-.554a.663.663,0,0,0-.694.612.653.653,0,0,0,.612.692c1.763.111,3.545.294,5.3.543a.557.557,0,0,0,.094.007" transform="translate(-152.93 120.307)" fill="#bfdbef"/>
    <path id="Path_2431" data-name="Path 2431" d="M237.55,196.2a.653.653,0,0,0,.653-.634c.027-.858.069-1.728.127-2.586a.652.652,0,0,0-.607-.7.667.667,0,0,0-.7.607c-.06.874-.1,1.761-.129,2.636a.654.654,0,0,0,.634.674Z" transform="translate(-219.651 148.07)" fill="#bfdbef"/>
    <path id="Path_2432" data-name="Path 2432" d="M228.481,224.143a.654.654,0,0,0,.469-1.11c-.6-.62-1.2-1.257-1.768-1.892a.654.654,0,1,0-.974.874c.582.648,1.189,1.3,1.8,1.929a.656.656,0,0,0,.469.2" transform="translate(-191.239 170.125)" fill="#bfdbef"/>
    <path id="Path_2433" data-name="Path 2433" d="M203.336,260.581l.591,0a.654.654,0,0,0-.005-1.308h-.007l-.579,0c-1.545,0-3.112-.053-4.657-.159a.665.665,0,0,0-.7.607.653.653,0,0,0,.607.7c1.575.108,3.172.163,4.747.163m9.155-.611a.765.765,0,0,0,.088-.005c1.754-.237,3.524-.543,5.261-.912a.654.654,0,0,0-.273-1.28c-1.7.363-3.439.664-5.163.894a.654.654,0,0,0,.087,1.3m-22.375-.676a.654.654,0,0,0,.126-1.3c-1.708-.335-3.423-.743-5.1-1.209a.653.653,0,1,0-.35,1.258c1.7.476,3.453.892,5.2,1.236a.777.777,0,0,0,.127.011m35.865-2.535a.649.649,0,0,0,.214-.035c1.678-.582,3.351-1.237,4.972-1.944a.654.654,0,0,0-.522-1.2c-1.591.694-3.232,1.336-4.88,1.908a.654.654,0,0,0,.216,1.271m-49.13-1.512a.654.654,0,0,0,.255-1.257c-1.6-.671-3.195-1.414-4.749-2.214a.655.655,0,0,0-.6,1.165c1.584.812,3.213,1.572,4.841,2.255a.633.633,0,0,0,.251.051m61.7-4.33a.652.652,0,0,0,.333-.092c1.522-.9,3.03-1.882,4.48-2.9a.654.654,0,1,0-.752-1.069c-1.423,1-2.9,1.959-4.4,2.848a.654.654,0,0,0,.335,1.216m-73.882-2.3a.654.654,0,0,0,.368-1.195c-1.437-.979-2.855-2.029-4.215-3.114a.654.654,0,0,0-.816,1.021c1.384,1.106,2.829,2.175,4.294,3.174a.653.653,0,0,0,.368.113m85.018-5.954a.657.657,0,0,0,.441-.17c1.306-1.191,2.586-2.453,3.8-3.749a.654.654,0,0,0-.954-.9c-1.193,1.271-2.448,2.508-3.729,3.678a.653.653,0,0,0,.441,1.136m9.243-10.332a.654.654,0,0,0,.529-.271c.82-1.126,1.618-2.3,2.374-3.478.2-.317.4-.637.6-.956a.654.654,0,0,0-1.113-.687c-.193.313-.391.627-.589.938-.742,1.159-1.526,2.308-2.331,3.414a.654.654,0,0,0,.145.913.644.644,0,0,0,.384.126m7-11.971a.653.653,0,0,0,.595-.382c.738-1.613,1.421-3.275,2.032-4.938a.654.654,0,0,0-1.228-.451c-.6,1.634-1.269,3.264-1.993,4.846a.655.655,0,0,0,.595.926m4.459-13.13a.655.655,0,0,0,.637-.508c.4-1.726.729-3.492.991-5.248a.654.654,0,0,0-1.294-.193c-.257,1.722-.584,3.455-.972,5.149a.653.653,0,0,0,.49.784.7.7,0,0,0,.147.016" transform="translate(-116.814 154.569)" fill="#bfdbef"/>
    <path id="Path_2434" data-name="Path 2434" d="M159.992,198.318a.653.653,0,0,0,.653-.639c.019-.871.023-1.759.009-2.639a.664.664,0,0,0-.664-.644.654.654,0,0,0-.644.664c.014.864.011,1.735-.007,2.59a.653.653,0,0,0,.639.669Z" transform="translate(-4.699 149.696)" fill="#bfdbef"/>
    <path id="Path_2435" data-name="Path 2435" d="M274.463,210.981a.824.824,0,0,1-.347.892l-8.4,5.5a43.714,43.714,0,0,1-2.034,14.019l6.473,7.663a.825.825,0,0,1,.08.954l-6.162,10.344a.826.826,0,0,1-.876.386l-9.82-2.043a43.764,43.764,0,0,1-11.358,8.466l-.841,10a.826.826,0,0,1-.62.731l-11.67,2.958a.824.824,0,0,1-.892-.347l-5.5-8.4a43.71,43.71,0,0,1-14.019-2.034l-7.663,6.473a.824.824,0,0,1-.954.08l-10.344-6.162a.824.824,0,0,1-.386-.876l2.043-9.82a43.765,43.765,0,0,1-8.466-11.358l-10-.841a.822.822,0,0,1-.729-.62l-2.958-11.67a.824.824,0,0,1,.347-.892l8.394-5.5a43.711,43.711,0,0,1,2.036-14.019l-6.475-7.663a.824.824,0,0,1-.078-.954L179.4,185.91a.824.824,0,0,1,.876-.386l9.82,2.043a43.766,43.766,0,0,1,11.358-8.466l.841-10a.823.823,0,0,1,.618-.731l11.672-2.958a.824.824,0,0,1,.892.347l5.5,8.394A43.716,43.716,0,0,1,235,176.187l7.663-6.475a.824.824,0,0,1,.954-.078l10.344,6.162a.824.824,0,0,1,.386.876l-2.044,9.82a43.734,43.734,0,0,1,8.468,11.358l10,.841a.824.824,0,0,1,.731.62Z" transform="translate(-135.616 127.356)" fill="#bfdbef"/>
    <path id="Path_2436" data-name="Path 2436" d="M203.869,211.933h.012a11.681,11.681,0,1,0-.012,0m0-21.382a9.71,9.71,0,0,1,.011,19.419h-.011a9.71,9.71,0,0,1-.007-19.419Z" transform="translate(-117.745 145.228)" fill="#fff"/>
    <path id="Path_2437" data-name="Path 2437" d="M212.843,238.3a30.068,30.068,0,0,0,28.526-20.465l-1.859-.627A28.11,28.11,0,0,1,207.5,235.821l-.062-.011-.065-.014a28.088,28.088,0,0,1-21.687-20.626,28.353,28.353,0,0,1-.871-6.951,28.081,28.081,0,0,1,52.794-13.27l1.728-.929a30.039,30.039,0,1,0-26.489,44.28" transform="translate(-127.02 137.26)" fill="#fff"/>
    <path id="Path_2438" data-name="Path 2438" d="M20.759,21.045a.772.772,0,0,0,.616-1.237c-.625-.827-1.273-1.65-1.928-2.45a.772.772,0,0,0-1.195.977c.641.784,1.278,1.593,1.89,2.4a.77.77,0,0,0,.616.306" transform="translate(384.468 13.149)" fill="#bfdbef"/>
    <path id="Path_2439" data-name="Path 2439" d="M23.9,66.968a.773.773,0,0,0,.758-.621c.407-2.046.9-4.1,1.469-6.11a.772.772,0,0,0-1.485-.421c-.579,2.048-1.083,4.144-1.5,6.231a.772.772,0,0,0,.607.908.722.722,0,0,0,.15.014M28.814,51.08a.77.77,0,0,0,.71-.469c.818-1.913,1.724-3.825,2.694-5.68a.772.772,0,0,0-1.368-.715c-.988,1.89-1.912,3.837-2.745,5.79a.772.772,0,0,0,.71,1.074m8.059-14.552a.772.772,0,0,0,.635-.331c1.193-1.719,2.466-3.407,3.783-5.02a.772.772,0,0,0-1.2-.977c-1.342,1.644-2.639,3.365-3.855,5.115a.772.772,0,0,0,.195,1.074.762.762,0,0,0,.439.138M159.242,23.955a.773.773,0,0,0,.531-1.333c-1.544-1.459-3.167-2.876-4.825-4.215a.772.772,0,0,0-.968,1.2c1.625,1.312,3.218,2.7,4.733,4.135a.765.765,0,0,0,.529.211M47.705,23.911a.768.768,0,0,0,.531-.212c1.513-1.434,3.1-2.825,4.726-4.135a.772.772,0,0,0-.97-1.2c-1.655,1.336-3.276,2.754-4.818,4.216a.773.773,0,0,0,.531,1.333m98.341-10.086a.772.772,0,0,0,.407-1.428c-1.814-1.12-3.691-2.181-5.577-3.152a.771.771,0,1,0-.706,1.372c1.85.954,3.691,1.995,5.473,3.094a.764.764,0,0,0,.4.115m-85.154-.041a.769.769,0,0,0,.4-.115c1.77-1.089,3.613-2.126,5.475-3.08a.772.772,0,1,0-.7-1.374c-1.9.972-3.776,2.028-5.581,3.14a.772.772,0,0,0,.407,1.428m70.186-7.213a.772.772,0,0,0,.264-1.5c-2-.726-4.055-1.382-6.1-1.949a.772.772,0,0,0-.411,1.489c2.011.556,4.025,1.2,5.988,1.91a.762.762,0,0,0,.264.048m-55.206,0a.757.757,0,0,0,.262-.046c1.963-.706,3.977-1.347,5.99-1.9a.772.772,0,1,0-.409-1.489c-2.051.565-4.1,1.216-6.1,1.938a.772.772,0,0,0,.262,1.5M92.008,2.55a.786.786,0,0,0,.112-.007c2.062-.3,4.165-.513,6.252-.648a.772.772,0,0,0,.72-.82.783.783,0,0,0-.82-.72C96.147.491,94,.713,91.9,1.014a.772.772,0,0,0,.108,1.536m22.935-.012A.772.772,0,0,0,115.051,1c-2.106-.3-4.25-.52-6.374-.653a.781.781,0,0,0-.818.722.771.771,0,0,0,.722.818c2.082.131,4.184.347,6.252.643a.762.762,0,0,0,.11.007" transform="translate(237.056 0.268)" fill="#bfdbef"/>
    <path id="Path_2440" data-name="Path 2440" d="M101.133,47.529a.774.774,0,0,0,.772-.749c.03-1.012.081-2.039.15-3.052a.77.77,0,0,0-.717-.823.786.786,0,0,0-.823.717c-.071,1.032-.122,2.08-.154,3.112a.774.774,0,0,0,.749.795Z" transform="translate(158.299 33.039)" fill="#bfdbef"/>
    <path id="Path_2441" data-name="Path 2441" d="M90.427,80.508a.772.772,0,0,0,.554-1.31c-.712-.733-1.414-1.483-2.087-2.234A.772.772,0,1,0,87.745,78c.687.765,1.4,1.531,2.128,2.278a.771.771,0,0,0,.554.234" transform="translate(191.837 59.071)" fill="#bfdbef"/>
    <path id="Path_2442" data-name="Path 2442" d="M60.748,123.518l.7,0a.772.772,0,0,0-.009-1.544h-.007l-.683,0c-1.823,0-3.673-.062-5.5-.188a.784.784,0,0,0-.823.717.774.774,0,0,0,.717.825c1.86.126,3.745.191,5.6.191m10.806-.722a.667.667,0,0,0,.1-.007c2.073-.278,4.161-.639,6.211-1.074a.773.773,0,0,0-.322-1.512c-2.011.428-4.061.784-6.094,1.057a.772.772,0,0,0,.1,1.536M45.143,122a.772.772,0,0,0,.149-1.529c-2.018-.4-4.041-.878-6.018-1.428a.772.772,0,0,0-.414,1.487c2.014.561,4.078,1.051,6.135,1.457a.847.847,0,0,0,.149.014m42.333-2.991a.748.748,0,0,0,.253-.044c1.981-.687,3.956-1.459,5.869-2.294a.772.772,0,0,0-.618-1.414c-1.876.818-3.814,1.575-5.758,2.252a.772.772,0,0,0,.253,1.5m-57.989-1.784a.773.773,0,0,0,.3-1.485c-1.885-.791-3.77-1.669-5.606-2.613a.772.772,0,0,0-.7,1.374c1.869.959,3.791,1.857,5.712,2.662a.749.749,0,0,0,.3.062m72.829-5.112a.759.759,0,0,0,.393-.11c1.8-1.067,3.576-2.22,5.289-3.425a.772.772,0,0,0-.889-1.262c-1.68,1.182-3.427,2.313-5.188,3.361a.772.772,0,0,0,.395,1.436M15.108,109.4a.772.772,0,0,0,.435-1.411c-1.7-1.156-3.37-2.393-4.974-3.675a.772.772,0,0,0-.965,1.205c1.634,1.306,3.34,2.567,5.069,3.745a.772.772,0,0,0,.434.135m100.352-7.029a.765.765,0,0,0,.52-.2c1.542-1.405,3.052-2.894,4.487-4.423a.772.772,0,1,0-1.126-1.057c-1.409,1.5-2.891,2.961-4.4,4.34a.772.772,0,0,0,.52,1.342m10.909-12.2a.767.767,0,0,0,.625-.319c.968-1.329,1.912-2.712,2.8-4.1q.361-.563.71-1.129a.772.772,0,0,0-1.313-.811q-.342.555-.7,1.108c-.876,1.368-1.8,2.722-2.751,4.03a.771.771,0,0,0,.623,1.225m8.263-14.129a.772.772,0,0,0,.7-.451c.871-1.9,1.678-3.864,2.4-5.831a.772.772,0,0,0-1.45-.531c-.706,1.928-1.5,3.852-2.352,5.719a.773.773,0,0,0,.7,1.094m5.264-15.5a.774.774,0,0,0,.752-.6c.467-2.037.86-4.122,1.17-6.193a.772.772,0,0,0-1.528-.228c-.3,2.034-.689,4.078-1.147,6.077a.771.771,0,0,0,.579.926.735.735,0,0,0,.173.019" transform="translate(279.685 40.71)" fill="#bfdbef"/>
    <path id="Path_2443" data-name="Path 2443" d="M9.588,50.026a.772.772,0,0,0,.772-.754c.023-1.028.027-2.076.009-3.115a.783.783,0,0,0-.782-.761.774.774,0,0,0-.761.784c.016,1.02.012,2.048-.009,3.057a.771.771,0,0,0,.754.789Z" transform="translate(412.017 34.957)" fill="#bfdbef"/>
    <path id="Path_2444" data-name="Path 2444" d="M144.7,64.973a.972.972,0,0,1-.411,1.053l-9.907,6.5a51.658,51.658,0,0,1-2.4,16.546l7.641,9.045a.974.974,0,0,1,.092,1.126l-7.271,12.21a.974.974,0,0,1-1.034.455l-11.592-2.413a51.634,51.634,0,0,1-13.406,9.994l-.995,11.806a.967.967,0,0,1-.729.862l-13.776,3.491a.97.97,0,0,1-1.051-.409l-6.5-9.909a51.553,51.553,0,0,1-16.546-2.4l-9.045,7.641a.974.974,0,0,1-1.128.094L44.44,123.386a.974.974,0,0,1-.457-1.034l2.411-11.592A51.591,51.591,0,0,1,36.4,97.354L24.6,96.363a.976.976,0,0,1-.862-.731L20.241,81.855a.98.98,0,0,1,.411-1.053l9.909-6.494a51.615,51.615,0,0,1,2.4-16.548l-7.643-9.043a.98.98,0,0,1-.094-1.128L32.5,35.379a.977.977,0,0,1,1.034-.455l11.594,2.413a51.546,51.546,0,0,1,13.406-9.994l.989-11.806a.98.98,0,0,1,.733-.862l13.776-3.491a.971.971,0,0,1,1.051.409l6.5,9.909a51.62,51.62,0,0,1,16.548,2.4l9.043-7.641a.974.974,0,0,1,1.128-.094l12.208,7.273a.971.971,0,0,1,.455,1.034l-2.411,11.592a51.646,51.646,0,0,1,9.994,13.406l11.806.993a.974.974,0,0,1,.862.729Z" transform="translate(257.489 8.589)" fill="#bfdbef"/>
    <path id="Path_2445" data-name="Path 2445" d="M61.38,66.1h.012a13.792,13.792,0,1,0-.012,0m0-25.237a11.461,11.461,0,0,1,.011,22.922H61.38a11.461,11.461,0,0,1-.011-22.922Z" transform="translate(278.582 29.684)" fill="#fff"/>
    <path id="Path_2446" data-name="Path 2446" d="M71.971,97.216a35.482,35.482,0,0,0,33.67-24.156l-2.193-.74A33.174,33.174,0,0,1,65.66,94.292c-.025-.005-.05-.011-.074-.014l-.078-.016A33.133,33.133,0,1,1,101.2,46.047l2.039-1.1A35.457,35.457,0,1,0,71.971,97.216" transform="translate(267.636 20.279)" fill="#fff"/>
    <path id="Path_2447" data-name="Path 2447" d="M183.307,182.945l7.707,69.115H101.6l11.647-69.115Z" transform="translate(67.143 140.878)" fill="#3868ad"/>
    <path id="Path_2448" data-name="Path 2448" d="M428.685,76.612V266.747a28.844,28.844,0,0,1-28.1,28.834c-69.446,1.791-312.335,6.133-378.443,5.158A21.221,21.221,0,0,1,1.249,280.121C-.026,235.949-2.1,129.734,5.564,80.423A21.842,21.842,0,0,1,26.447,61.937c58.187-1.862,315.665-7.772,381.743-6.289a20.966,20.966,0,0,1,20.5,20.965" transform="translate(9.315 42.67)" fill="#3868ad"/>
    <path id="Path_2449" data-name="Path 2449" d="M408.966,72.474v180.64A16.709,16.709,0,0,1,392.5,269.821L23.864,274.377a16.263,16.263,0,0,1-16.506-16.2L6.74,79.151A11.9,11.9,0,0,1,18.346,67.215L395.765,59.59a12.889,12.889,0,0,1,13.2,12.884" transform="translate(17.104 45.884)" fill="#ffa412"/>
    <g id="Group_978" data-name="Group 978" transform="translate(21.157 319.735)" opacity="0.65">
      <g id="Group_977" data-name="Group 977">
        <g id="Group_976" data-name="Group 976" clip-path="url(#clip-path-2)">
          <path id="Path_2450" data-name="Path 2450" d="M6.967,188.583h.011l404.382-6.891a.53.53,0,0,0,.522-.536.536.536,0,0,0-.538-.52L6.96,187.526a.528.528,0,0,0,.007,1.057" transform="translate(-6.439 -180.636)" fill="#fff"/>
        </g>
      </g>
    </g>
    <g id="Group_981" data-name="Group 981" transform="translate(215.154 326.625)" opacity="0.65">
      <g id="Group_980" data-name="Group 980">
        <g id="Group_979" data-name="Group 979" clip-path="url(#clip-path-3)">
          <path id="Path_2451" data-name="Path 2451" d="M125.283,194a4.736,4.736,0,1,0-4.735-4.735A4.74,4.74,0,0,0,125.283,194m0-8.415a3.679,3.679,0,1,1-3.68,3.68,3.685,3.685,0,0,1,3.68-3.68" transform="translate(-120.548 -184.529)" fill="#fff"/>
        </g>
      </g>
    </g>
    <path id="Path_2452" data-name="Path 2452" d="M91.524,238.41H222.38c3.556,0,6.225-2.531,5.538-5.25l-1.68-6.639c-.5-2-2.7-3.464-5.312-3.545l-126.15-3.937c-2.728-.085-5.14,1.363-5.735,3.437l-3.027,10.578c-.786,2.747,1.9,5.356,5.508,5.356" transform="translate(57.964 168.669)" fill="#3868ad"/>
    <path id="Path_2453" data-name="Path 2453" d="M134.5,222.829a.528.528,0,0,0,.007-1.057l-5.406-.08a.541.541,0,0,0-.536.52.529.529,0,0,0,.52.536l5.406.08Z" transform="translate(75.4 170.716)" fill="#fff"/>
    <path id="Path_2454" data-name="Path 2454" d="M151.849,232.717a.473.473,0,0,0,.085-.007.528.528,0,0,0,.437-.6l-.772-4.831a5.49,5.49,0,0,0-5.349-4.632l-57.336-.837a.544.544,0,0,0-.536.52.529.529,0,0,0,.52.536l57.336.837a4.434,4.434,0,0,1,4.322,3.742l.772,4.83a.528.528,0,0,0,.52.444" transform="translate(129.188 170.803)" fill="#fff"/>
    <g id="Group_984" data-name="Group 984" transform="translate(33.277 117.095)" opacity="0.78">
      <g id="Group_983" data-name="Group 983">
        <g id="Group_982" data-name="Group 982" clip-path="url(#clip-path-4)">
          <path id="Path_2455" data-name="Path 2455" d="M30.351,70.491l352.292-4.337a10.14,10.14,0,0,1,10.144,10.153l2.266,164.063a10.21,10.21,0,0,1-9.73,10.442L31.032,263.347a17.576,17.576,0,0,1-13.093-5.213,18.657,18.657,0,0,1-5.383-13.38V89.094c0-10.188,7.838-18.481,17.794-18.6" transform="translate(-12.556 -66.153)" fill="#fff"/>
        </g>
      </g>
    </g>
    <path id="Path_2456" data-name="Path 2456" d="M201.9,63.563H21.8c-4.91,0-8.866,4.969-8.776,11.026l2.533,172.349c.119,8.11,5.528,14.58,12.1,14.479l174.432-2.7c4.806-.074,8.67-4.9,8.668-10.835l-.083-173.5c0-5.978-3.933-10.822-8.779-10.822" transform="translate(204.191 48.947)" fill="#5a9af7"/>
    <path id="Path_2457" data-name="Path 2457" d="M196.193,66.434H23.259c-4.715,0-8.512,4.761-8.427,10.567l2.432,165.182c.115,7.774,5.308,13.975,11.622,13.877l167.5-2.588c4.616-.071,8.325-4.7,8.325-10.383l-.083-166.283c0-5.73-3.774-10.373-8.429-10.373" transform="translate(207.045 51.158)" fill="#95c8f3"/>
    <path id="Path_2458" data-name="Path 2458" d="M24.254,84.473h.053L138.513,83.2a5.617,5.617,0,0,0,5.643-5.484V73.239a4.271,4.271,0,0,0-1.345-3.11,4.62,4.62,0,0,0-3.207-1.271H23.481a4.4,4.4,0,0,0-3.223,1.389,4.033,4.033,0,0,0-1.082,3.073l.549,7.107a4.482,4.482,0,0,0,4.53,4.046M139.6,70.442a3.037,3.037,0,0,1,2.112.832,2.7,2.7,0,0,1,.857,1.965v4.478a4.031,4.031,0,0,1-4.076,3.9L24.29,82.889h-.035A2.9,2.9,0,0,1,21.3,80.3L20.757,73.2a2.452,2.452,0,0,1,.664-1.873,2.8,2.8,0,0,1,2.06-.883Z" transform="translate(259.923 53.025)" fill="#fff"/>
    <g id="Group_987" data-name="Group 987" transform="translate(281.359 124.821)" opacity="0.85">
      <g id="Group_986" data-name="Group 986">
        <g id="Group_985" data-name="Group 985" clip-path="url(#clip-path-5)">
          <path id="Path_2459" data-name="Path 2459" d="M25.073,80.795l110.79-.933c2.611-.021,4.714-1.554,4.714-3.436v-3.28c0-1.451-1.632-2.629-3.648-2.629H24.278c-1.986,0-3.554,1.216-3.407,2.643l.531,5.206c.142,1.381,1.749,2.444,3.671,2.428" transform="translate(-20.86 -70.518)" fill="#fff"/>
        </g>
      </g>
    </g>
    <g id="Group_990" data-name="Group 990" transform="translate(245.767 144.69)" opacity="0.59">
      <g id="Group_989" data-name="Group 989">
        <g id="Group_988" data-name="Group 988" clip-path="url(#clip-path-6)">
          <path id="Path_2460" data-name="Path 2460" d="M20.449,91.376H176.057a1.971,1.971,0,0,0,1.869-2.06V83.8a1.969,1.969,0,0,0-1.885-2.06L20.433,83.26a1.973,1.973,0,0,0-1.853,2.06v4a1.972,1.972,0,0,0,1.869,2.06" transform="translate(-18.58 -81.743)" fill="#fff"/>
        </g>
      </g>
    </g>
    <g id="Group_993" data-name="Group 993" transform="translate(229.792 156.459)" opacity="0.4">
      <g id="Group_992" data-name="Group 992">
        <g id="Group_991" data-name="Group 991" clip-path="url(#clip-path-7)">
          <path id="Path_2461" data-name="Path 2461" d="M24.483,123.789,188.355,121.6a5.326,5.326,0,0,0,5.255-5.326v-22.5a5.386,5.386,0,0,0-5.443-5.386L24.771,90.14a5.878,5.878,0,0,0-5.816,5.878v22.315a5.456,5.456,0,0,0,5.528,5.455" transform="translate(-18.953 -88.393)" fill="#fff"/>
        </g>
      </g>
    </g>
    <g id="Group_996" data-name="Group 996" transform="translate(260.078 198.974)" opacity="0.59">
      <g id="Group_995" data-name="Group 995">
        <g id="Group_994" data-name="Group 994" clip-path="url(#clip-path-8)">
          <path id="Path_2462" data-name="Path 2462" d="M20.245,122.045h141.7a1.908,1.908,0,0,0,1.7-2.06v-5.512a1.9,1.9,0,0,0-1.717-2.06l-141.7,1.517a1.911,1.911,0,0,0-1.689,2.06v4a1.908,1.908,0,0,0,1.7,2.06" transform="translate(-18.542 -112.41)" fill="#fff"/>
        </g>
      </g>
    </g>
    <g id="Group_999" data-name="Group 999" transform="translate(229.858 210.743)" opacity="0.4">
      <g id="Group_998" data-name="Group 998">
        <g id="Group_997" data-name="Group 997" clip-path="url(#clip-path-9)">
          <path id="Path_2463" data-name="Path 2463" d="M24.446,157.82l163.872-2.393a5.606,5.606,0,0,0,5.255-5.832V124.957a5.651,5.651,0,0,0-5.443-5.9l-163.4,1.913a6.184,6.184,0,0,0-5.816,6.438v24.434a5.724,5.724,0,0,0,5.528,5.974" transform="translate(-18.916 -119.059)" fill="#fff"/>
        </g>
      </g>
    </g>
    <g id="Group_1002" data-name="Group 1002" transform="translate(229.127 257.548)" opacity="0.59">
      <g id="Group_1001" data-name="Group 1001">
        <g id="Group_1000" data-name="Group 1000" clip-path="url(#clip-path-10)">
          <path id="Path_2464" data-name="Path 2464" d="M20.792,155.136h171.6a2.062,2.062,0,0,0,2.062-2.06v-5.512a2.061,2.061,0,0,0-2.08-2.06l-171.6,1.517a2.061,2.061,0,0,0-2.044,2.06v4a2.062,2.062,0,0,0,2.062,2.06" transform="translate(-18.73 -145.503)" fill="#fff"/>
        </g>
      </g>
    </g>
    <g id="Group_1005" data-name="Group 1005" transform="translate(229.525 269.317)" opacity="0.4">
      <g id="Group_1004" data-name="Group 1004">
        <g id="Group_1003" data-name="Group 1003" clip-path="url(#clip-path-11)">
          <path id="Path_2465" data-name="Path 2465" d="M24.632,185.833l163.872-2.08a5.2,5.2,0,0,0,5.257-5.068V157.276a5.265,5.265,0,0,0-5.445-5.124l-163.4,1.662a5.738,5.738,0,0,0-5.815,5.6v21.234a5.331,5.331,0,0,0,5.526,5.19" transform="translate(-19.104 -152.152)" fill="#fff"/>
        </g>
      </g>
    </g>
    <path id="Path_2466" data-name="Path 2466" d="M321.462,37.227h-176.5c-4.811,0-8.689,4.912-8.6,10.9l2.483,170.38c.117,8.018,5.416,14.415,16.265,14.314l164.314-2.567a10.823,10.823,0,0,0,10.716-10.266q.011-.273.011-.547l-.081-171.515c0-5.91-3.855-10.7-8.6-10.7" transform="translate(-133.507 28.667)" fill="#5a9af7"/>
    <path id="Path_2467" data-name="Path 2467" d="M316.5,39.834H147.013c-4.622,0-8.344,4.668-8.261,10.355l2.384,161.886c.113,7.62,5.2,13.7,11.39,13.6l164.151-2.536c4.524-.071,8.16-4.608,8.158-10.176L324.757,50c0-5.615-3.7-10.165-8.261-10.165" transform="translate(-132.433 30.674)" fill="#95c8f3"/>
    <path id="Path_2468" data-name="Path 2468" d="M150.162,65.037H300.213a6.218,6.218,0,0,0,6.216-6.218V56.142a6.525,6.525,0,0,0-6.523-6.526H151.265a6.367,6.367,0,0,0-6.367,6.367v3.79a5.264,5.264,0,0,0,5.264,5.264" transform="translate(-124.907 38.207)" fill="#5a9af7"/>
    <g id="Group_1008" data-name="Group 1008" transform="translate(31.303 92.105)" opacity="0.27">
      <g id="Group_1007" data-name="Group 1007">
        <g id="Group_1006" data-name="Group 1006" clip-path="url(#clip-path-12)">
          <path id="Path_2469" data-name="Path 2469" d="M196.089,58.483h59.2c.975.366,1.767-.51,1.767-1.59v-2.9a1.869,1.869,0,0,0-1.767-1.956h-59.2a1.869,1.869,0,0,0-1.767,1.956v2.9c0,1.08.791,1.956,1.767,1.59" transform="translate(-194.322 -52.034)" fill="#fff"/>
        </g>
      </g>
    </g>
    <path id="Path_2470" data-name="Path 2470" d="M145.332,126.5a7.362,7.362,0,0,0,7.346,7.362l103.1.212a4.935,4.935,0,0,0,4.878-4.99V74.311a4.934,4.934,0,0,0-4.954-4.992L150.136,71a4.938,4.938,0,0,0-4.8,4.99Z" transform="translate(-79.905 53.379)" fill="#5a9af7"/>
    <g id="Group_1011" data-name="Group 1011" transform="translate(75.532 197.36)" opacity="0.27">
      <g id="Group_1010" data-name="Group 1010">
        <g id="Group_1009" data-name="Group 1009" clip-path="url(#clip-path-13)">
          <path id="Path_2471" data-name="Path 2471" d="M179.688,161.446l44.113-.366a2.7,2.7,0,0,0,2.678-2.722l-.368-44.182a2.7,2.7,0,0,0-2.652-2.676l-43.563.827a3.366,3.366,0,0,0-3.3,3.395l.37,43.05a2.7,2.7,0,0,0,2.722,2.676" transform="translate(-176.596 -111.499)" fill="#fff"/>
        </g>
      </g>
    </g>
    <g id="Group_1014" data-name="Group 1014" transform="translate(131.641 197.36)" opacity="0.27">
      <g id="Group_1013" data-name="Group 1013">
        <g id="Group_1012" data-name="Group 1012" clip-path="url(#clip-path-14)">
          <path id="Path_2472" data-name="Path 2472" d="M147.989,161.446l44.113-.366a2.7,2.7,0,0,0,2.678-2.722l-.368-44.182a2.7,2.7,0,0,0-2.652-2.676l-43.563.827a3.366,3.366,0,0,0-3.3,3.395l.37,43.05a2.7,2.7,0,0,0,2.722,2.676" transform="translate(-144.897 -111.499)" fill="#fff"/>
        </g>
      </g>
    </g>
    <g id="Group_1017" data-name="Group 1017" transform="translate(19.993 198.404)" opacity="0.27">
      <g id="Group_1016" data-name="Group 1016">
        <g id="Group_1015" data-name="Group 1015" clip-path="url(#clip-path-14)">
          <path id="Path_2473" data-name="Path 2473" d="M211.065,162.036l44.113-.366a2.7,2.7,0,0,0,2.678-2.722l-.368-44.182a2.7,2.7,0,0,0-2.652-2.676l-43.563.827a3.366,3.366,0,0,0-3.3,3.395l.37,43.05a2.7,2.7,0,0,0,2.722,2.676" transform="translate(-207.973 -112.089)" fill="#fff"/>
        </g>
      </g>
    </g>
    <g id="Group_1020" data-name="Group 1020" transform="translate(19.993 124.575)" opacity="0.27">
      <g id="Group_1019" data-name="Group 1019">
        <g id="Group_1018" data-name="Group 1018" clip-path="url(#clip-path-16)">
          <path id="Path_2474" data-name="Path 2474" d="M217.654,135.721h31.895a3.721,3.721,0,0,0,3.708-3.733V73.711a3.093,3.093,0,0,0-3.013-3.149l-32.751-.184a3.722,3.722,0,0,0-3.547,3.73v57.881a3.72,3.72,0,0,0,3.708,3.733" transform="translate(-213.946 -70.38)" fill="#fff"/>
        </g>
      </g>
    </g>
    <path id="Path_2475" data-name="Path 2475" d="M168.08,52.251a5.187,5.187,0,1,0-5.185-5.188,5.193,5.193,0,0,0,5.185,5.188m0-9.318a4.13,4.13,0,1,1-4.128,4.13,4.134,4.134,0,0,1,4.128-4.13" transform="translate(-23.601 32.248)" fill="#fff"/>
    <path id="Path_2476" data-name="Path 2476" d="M158.973,52.465a5.187,5.187,0,1,0-5.186-5.188,5.193,5.193,0,0,0,5.186,5.188m0-9.318a4.13,4.13,0,1,1-4.13,4.13,4.136,4.136,0,0,1,4.13-4.13" transform="translate(1.629 32.412)" fill="#fff"/>
    <path id="Path_2477" data-name="Path 2477" d="M150.22,52.465a5.187,5.187,0,1,0-5.186-5.188,5.193,5.193,0,0,0,5.186,5.188m0-9.318a4.13,4.13,0,1,1-4.13,4.13,4.134,4.134,0,0,1,4.13-4.13" transform="translate(25.875 32.412)" fill="#fff"/>
    <path id="Path_2478" data-name="Path 2478" d="M184.674,104.552A12.428,12.428,0,1,1,197.1,92.117v.014a12.435,12.435,0,0,1-12.422,12.421m0-24.122a11.695,11.695,0,1,0,11.688,11.7v-.014A11.7,11.7,0,0,0,184.674,80.43" transform="translate(-63.968 61.37)" fill="#fff"/>
    <path id="Path_2479" data-name="Path 2479" d="M177.733,95.752a.643.643,0,0,1-.643-.627L176.8,84.155a1.035,1.035,0,0,1,1.474-.966l10.838,5.069a1.036,1.036,0,0,1,.05,1.851l-9.567,5.1a.644.644,0,0,1-.605-1.136l9.125-4.864-10.017-4.685.283,10.567a.643.643,0,0,1-.627.66h-.018" transform="translate(-60.459 63.983)" fill="#fff"/>
    <path id="Path_2480" data-name="Path 2480" d="M176.281,55.074c-16.793-25.638-51.224-34.978-72.53-31.091l-4.275,9.972c21.733,3.482,37.012,7.408,48.411,26.278a2.908,2.908,0,0,0,2.975,1.366l24.391-4.183a1.532,1.532,0,0,0,1.027-2.344" transform="translate(85.392 17.816)" fill="#123b8c"/>
    <path id="Path_2481" data-name="Path 2481" d="M167.452,15.628,138.145,28.637a2.656,2.656,0,0,0-.2,4.758l25.68,14.028a1.342,1.342,0,0,0,1.876-1.05l3.922-29.659a1.209,1.209,0,0,0-1.975-1.085" transform="translate(26.831 11.815)" fill="#123b8c"/>
    <rect id="Rectangle_938" data-name="Rectangle 938" width="5.199" height="56.219" transform="translate(331.053 369.131)" fill="#123b8c"/>
    <path id="Path_2482" data-name="Path 2482" d="M91.621,242.387H46.09V240a1,1,0,0,1,1-1h43.45a1.08,1.08,0,0,1,1.08,1.082Z" transform="translate(264.797 184.046)" fill="#123b8c"/>
    <rect id="Rectangle_939" data-name="Rectangle 939" width="60.84" height="17.256" rx="3.357" transform="translate(304.188 355.743)" fill="#f2a63f"/>
    <path id="Path_2483" data-name="Path 2483" d="M84.074,235.806s-14.844,10.7-12.266,17.888c0,0,16.242-7.008,18.2-12.527s-.331-7.958-.331-7.958Z" transform="translate(220.623 179.584)" fill="#123b8c"/>
    <path id="Path_2484" data-name="Path 2484" d="M79.173,229.61l2.427,7.017a2.44,2.44,0,0,1-.947,2.864,6.363,6.363,0,0,1-2.009.777,2.838,2.838,0,0,1-3.142-1.427l-2.9-5.466Z" transform="translate(227.756 176.813)" fill="#ffb27d"/>
    <path id="Path_2485" data-name="Path 2485" d="M104.386,193.927s-30.491,5.284-43.57,17.366,12,50.624,12,50.624,4.11-.025,9.091-4.294c0,0-14.874-28.986-2.055-37.438,14.41-9.5,31.017-11.643,31.017-11.643l-6.192-13.683Z" transform="translate(226.165 149.335)" fill="#123b8c"/>
    <path id="Path_2486" data-name="Path 2486" d="M75.624,246.145c3.266-1.512,12.509-7.981,14.067-8.266s4.261,1.545,4.261,1.545a4.215,4.215,0,0,1-.046,3.245c-2.168,2.625-6.986,7.629-13.463,9.495-4.763,1.372-8.094.092-10.171-1.4a13.779,13.779,0,0,1,5.353-4.615" transform="translate(219.386 183.157)" fill="#123b8c"/>
    <path id="Path_2487" data-name="Path 2487" d="M81.573,250.067c6.477-1.866,11.293-6.87,13.463-9.495a13.126,13.126,0,0,1-3.912,5.292c-5.808,5.218-16.9,7.1-19.258,6.737-1.892-.29-1.713-2.036-.464-3.938,2.075,1.5,5.408,2.775,10.171,1.4" transform="translate(218.256 185.254)" fill="#123b8c"/>
    <path id="Path_2488" data-name="Path 2488" d="M77.444,237.3c-.037.9-1.874,3.984-2.949,5.715a2.8,2.8,0,0,1-2.374,1.328,7.2,7.2,0,0,1-1.961-.235,1.817,1.817,0,0,1-1.221-2.262l2.1-7.171Z" transform="translate(238.664 180.714)" fill="#ffb27d"/>
    <path id="Path_2489" data-name="Path 2489" d="M94.8,188.757s6.772,18.106,0,23.613-22.926,11.705-26.533,22.673-9.734,32.28-17.927,39.828c0,0-5.758-.558-7.914-2.852,0,0,4.668-31.818,7.746-39.982,2.666-7.071,6.593-17.276,14.121-22.979,2.154-1.634,1.779-4.22.779-6.732l-1.818-4.576Z" transform="translate(265.103 145.354)" fill="#123b8c"/>
    <path id="Path_2490" data-name="Path 2490" d="M70.248,188.646c11.353.685,7.817-17.454,7.611-18.175l17.231,12.171s-.912,9.7-15.238,14.789a17.8,17.8,0,0,1-9.866.713,15.68,15.68,0,0,0,.262-9.5" transform="translate(219.03 131.272)" fill="#f2a63f"/>
    <path id="Path_2491" data-name="Path 2491" d="M91.039,178.224c4.23-2.944,9.024,0,9.024,0,5.657,3.7,9.841,5.273,12.93,5.459a15.687,15.687,0,0,1-.264,9.5c-6.337-1.363-10.87-5.949-12.84-8.3a2.05,2.05,0,0,0-2.834-.31c-.88.7-1.736,1.648-1.581,2.652.306,1.977-1.988,2.605-2.161,1.889s.784-4.969.784-4.969-4.588,4.615-6.379,6.388-4.043,0-4.043,0,3.133-9.362,7.363-12.305" transform="translate(176.285 136.235)" fill="#ffb27d"/>
    <path id="Path_2492" data-name="Path 2492" d="M92,154.983s-16.518-6.613-47.257,18.764c0,0-2.568,5.315.234,10.045s29.489,27.781,33.158,40.564c0,0,15.9,5.167,32.344-7.086,0,0-1.451-35.575-18.479-62.288" transform="translate(250.215 118.748)" fill="#f2a63f"/>
    <path id="Path_2493" data-name="Path 2493" d="M78.518,151.311l8.132,9.857a3.239,3.239,0,0,1,.427,3.48c-1.129,2.3-3.807,5.654-9.746,5.19a4.992,4.992,0,0,1-4.1-2.8l-5.685-11.753Z" transform="translate(231.047 116.518)" fill="#ffb27d"/>
    <path id="Path_2494" data-name="Path 2494" d="M52.977,196.863c1.917-7.809-17.506-25.22-17.506-25.22l4.717-17s41.94,27.919,31.252,50.372A16.347,16.347,0,0,1,65.514,212c-3.377-9.091-8.758-13.259-12.537-15.136" transform="translate(302.031 119.085)" fill="#f2a63f"/>
    <path id="Path_2495" data-name="Path 2495" d="M64.513,189.225a.459.459,0,0,0,.444-.349c1.961-7.985-16.842-24.952-17.644-25.671a.459.459,0,1,0-.612.683c.191.172,19.2,17.315,17.366,24.768a.461.461,0,0,0,.336.556.452.452,0,0,0,.11.012" transform="translate(290.507 125.587)" fill="#d8873d"/>
    <path id="Path_2496" data-name="Path 2496" d="M59.191,178.277s23.028,8.941,28.648,2.216a3.768,3.768,0,0,0,.77-1.544c3.777,1.876,9.16,6.045,12.537,15.134-12.112,7.74-32.813-4.3-38.41-7.856a4.184,4.184,0,0,0-3.094-.568c-2.159.448-5.889,1.106-7.9.8-2.944-.453-7.17,9.926-11.939,6.726,0,0,4.084-18.044,19.387-14.906" transform="translate(266.398 137.001)" fill="#ffb27d"/>
    <path id="Path_2497" data-name="Path 2497" d="M72.027,147.908s1.195,10.64,3.515,15.249,3.029,8.061,8.71,5.986S92.8,161.994,92.6,156.19c0,0-.253-8.98-2.7-11.311s-17.872,3.029-17.872,3.029" transform="translate(217.901 111.113)" fill="#ffb27d"/>
    <path id="Path_2498" data-name="Path 2498" d="M93.578,157.287l-.653.375s-.485-7.064-3.407-6.673-13.38,3.871-17.311,1.712c-3.791-2.08-4.436-7.217-2.5-9.87a.4.4,0,0,1,.536-.09l.45.283a.4.4,0,0,0,.609-.439.4.4,0,0,1,.573-.458c1.189.637,3.793,1.289,8.76-.467,7.048-2.492,12.744-2.338,15.384,2.005a.405.405,0,0,0,.708-.025c.3-.558.981-1.126,2.473-.859,2.6.464,4.076,4.691,2.05,10.038a.4.4,0,0,0,.34.552c.956.053,2.611.533.752,3.514-1.9,3.05-3.62,3.825-4.322,4.022a.4.4,0,0,1-.474-.209l-2.005-4.041a.407.407,0,0,0-.565-.172Z" transform="translate(213.316 107.834)" fill="#123b8c"/>
    <path id="Path_2499" data-name="Path 2499" d="M72.225,152.96s-1.715-6.248,1.6-6.126,2.241,6.817.4,8.148Z" transform="translate(234.978 113.069)" fill="#ffb27d"/>
    <path id="Path_2500" data-name="Path 2500" d="M119.6,189.981c-.037,0-.074,0-.112,0l-48.315-.051a2.163,2.163,0,0,1,.005-4.326l48.315.053a2.163,2.163,0,0,1,.106,4.322" transform="translate(194.193 142.926)" fill="#123b8c"/>
    <path id="Path_2501" data-name="Path 2501" d="M88.125,163.294h40.237a7.669,7.669,0,0,1,6.937,4.4l18.6,39.444h-50a4.661,4.661,0,0,1-4.335-2.949l-14.424-36.5a3.213,3.213,0,0,1,2.988-4.4" transform="translate(133.806 125.746)" fill="#123b8c"/>
    <g id="Group_1023" data-name="Group 1023" transform="translate(243.855 305.233)" opacity="0.27">
      <g id="Group_1022" data-name="Group 1022">
        <g id="Group_1021" data-name="Group 1021" clip-path="url(#clip-path-17)">
          <path id="Path_2502" data-name="Path 2502" d="M112.258,176.473c.873,2.708.228,5.34-1.439,5.877s-3.724-1.225-4.6-3.935-.227-5.338,1.439-5.875,3.724,1.225,4.6,3.933" transform="translate(-105.835 -172.442)" fill="#fff"/>
        </g>
      </g>
    </g>
    <path id="Path_2503" data-name="Path 2503" d="M95.209,290.024a2.071,2.071,0,0,1-.8-.161,1.942,1.942,0,0,1-1.062-2.582l42.58-95.833a2.057,2.057,0,0,1,2.667-1.028A1.943,1.943,0,0,1,139.657,193L97.075,288.835a2.032,2.032,0,0,1-1.866,1.189" transform="translate(133.245 146.51)" fill="#95c8f3"/>
    <path id="Path_2504" data-name="Path 2504" d="M134.75,290.025a2.032,2.032,0,0,1-1.866-1.189L90.3,193a1.943,1.943,0,0,1,1.064-2.583,2.055,2.055,0,0,1,2.667,1.028l42.58,95.833a1.942,1.942,0,0,1-1.062,2.583,2.075,2.075,0,0,1-.8.161" transform="translate(141.675 146.51)" fill="#95c8f3"/>
    <path id="Path_2505" data-name="Path 2505" d="M20.743,290.024a2.071,2.071,0,0,1-.8-.161,1.942,1.942,0,0,1-1.062-2.582l42.58-95.833a2.057,2.057,0,0,1,2.667-1.028A1.943,1.943,0,0,1,65.191,193L22.609,288.835a2.032,2.032,0,0,1-1.866,1.189" transform="translate(339.52 146.51)" fill="#95c8f3"/>
    <path id="Path_2506" data-name="Path 2506" d="M60.285,290.025a2.032,2.032,0,0,1-1.866-1.189L15.837,193A1.943,1.943,0,0,1,16.9,190.42a2.055,2.055,0,0,1,2.667,1.028l42.58,95.833a1.942,1.942,0,0,1-1.062,2.583,2.074,2.074,0,0,1-.8.161" transform="translate(347.947 146.51)" fill="#95c8f3"/>
    <path id="Path_2507" data-name="Path 2507" d="M211.777,190.37a2.335,2.335,0,0,0-.4-1.772,1.843,1.843,0,0,0-1.478-.781H16.18a2.159,2.159,0,0,0-1.857,1.138,2.726,2.726,0,0,0-.143,2.365l2.1,5.087a2.938,2.938,0,0,0,2.667,1.912H208.566a2.309,2.309,0,0,0,2.186-2.02Z" transform="translate(201.45 144.63)" fill="#95c8f3"/>
  </g>
</svg>
