<svg xmlns="http://www.w3.org/2000/svg" xmlns:xlink="http://www.w3.org/1999/xlink" width="610.64" height="391.522" viewBox="0 0 610.64 391.522">
  <defs>
    <clipPath id="clip-path">
      <rect id="Rectangle_4792" data-name="Rectangle 4792" width="610.64" height="391.522" fill="none"/>
    </clipPath>
    <clipPath id="clip-path-2">
      <rect id="Rectangle_4791" data-name="Rectangle 4791" width="610.638" height="391.523" fill="none"/>
    </clipPath>
    <clipPath id="clip-path-3">
      <rect id="Rectangle_4777" data-name="Rectangle 4777" width="607.718" height="157.674" fill="none"/>
    </clipPath>
    <clipPath id="clip-path-4">
      <rect id="Rectangle_4778" data-name="Rectangle 4778" width="207.83" height="131.894" fill="none"/>
    </clipPath>
    <clipPath id="clip-path-5">
      <rect id="Rectangle_4779" data-name="Rectangle 4779" width="250.402" height="131.893" fill="none"/>
    </clipPath>
    <clipPath id="clip-path-6">
      <rect id="Rectangle_4780" data-name="Rectangle 4780" width="104.369" height="131.894" fill="none"/>
    </clipPath>
    <clipPath id="clip-path-7">
      <rect id="Rectangle_4782" data-name="Rectangle 4782" width="5.832" height="132.06" fill="none"/>
    </clipPath>
    <clipPath id="clip-path-8">
      <rect id="Rectangle_4784" data-name="Rectangle 4784" width="5.829" height="132.06" fill="none"/>
    </clipPath>
  </defs>
  <g id="Group_2159" data-name="Group 2159" clip-path="url(#clip-path)">
    <g id="Group_2158" data-name="Group 2158" transform="translate(0 0)">
      <g id="Group_2157" data-name="Group 2157" clip-path="url(#clip-path-2)">
        <path id="Path_11059" data-name="Path 11059" d="M651.159,250.309q-.259-5.57-1.013-11.288a132.337,132.337,0,0,0-10.156-36.006q-1.466-3.334-3.153-6.683c-.179-.356-.361-.711-.543-1.065-.161-.312-.323-.623-.487-.935-.323-.625-.657-1.247-1-1.873-.171-.311-.339-.625-.511-.937-.343-.623-.693-1.249-1.052-1.872-.11-.193-.22-.384-.33-.574-.068-.123-.139-.242-.209-.365-.181-.314-.363-.626-.55-.937q-.629-1.073-1.287-2.146c-.292-.48-.587-.956-.886-1.433q-.673-1.074-1.37-2.146c-.238-.368-.475-.733-.718-1.1-.074-.11-.148-.224-.222-.336-.159-.238-.321-.475-.48-.715q-.481-.716-.973-1.433t-1-1.435q-.5-.716-1.018-1.435c-.173-.238-.346-.478-.518-.718q-.784-1.073-1.592-2.151t-1.641-2.153l-.372-.475c-.626-.8-1.258-1.6-1.9-2.393q-1.783-2.2-3.576-4.37-1.588-1.924-3.187-3.834-1.52-1.82-3.045-3.628-2.745-3.263-5.489-6.512l-.1-.114q-2.449-2.91-4.875-5.826-1.2-1.439-2.386-2.888-.531-.643-1.056-1.287-.333-.41-.666-.818c-.07-.085-.141-.173-.209-.258l-.031-.038c-.135-.168-.271-.332-.4-.505-.225-.268-.461-.553-.686-.839q-.424-.524-.845-1.051-3.589-4.483-7.043-9.093c-.29-.388-.576-.776-.864-1.164-.341-.462-.679-.928-1.016-1.394-.107-.144-.211-.287-.316-.431-.238-.33-.478-.66-.713-.991-.034-.046-.069-.093-.1-.138-.261-.364-.52-.728-.77-1.1-.172-.216-.325-.447-.489-.67-.024-.034-.046-.069-.072-.1q-1.07-1.53-2.121-3.081-.35-.515-.7-1.036c-.029-.043-.053-.083-.083-.124l-.331-.5c-.036-.051-.07-.1-.1-.155-.26-.392-.52-.789-.778-1.184-.283-.433-.563-.87-.841-1.305q-1.4-2.173-2.745-4.4-1.066-1.769-2.121-3.545-.646-1.089-1.285-2.184-2.5-4.258-4.958-8.548-2.112-3.676-4.218-7.357-2.761-4.813-5.561-9.606c-.07-.117-.139-.233-.209-.352-.081-.139-.164-.278-.247-.417q-.407-.7-.818-1.388c-.28-.475-.565-.951-.845-1.426-.042-.067-.085-.137-.126-.209a.124.124,0,0,1-.02-.034v0c-4.337-7.261-8.846-14.414-13.753-21.316-12.443-17.493-31.407-29.819-50.906-38.562q-6.936-3.111-14.1-5.523a160.913,160.913,0,0,0-119.481,6.754c-85.531,40.06-109.829,39.262-123.9,40.345-5.758.442-11.817.839-18.058,1.3h0s0,0,0,0c-11.988.881-24.63,1.993-37.035,4.106h0c-3.559.608-7.1,1.294-10.593,2.087Q158.492,64.293,152.86,66q-2.233.683-4.426,1.439-1.947.666-3.859,1.4-.272.1-.545.209c-.471.182-.942.37-1.411.558s-.919.372-1.377.567l-.294.121c-.236.1-.473.2-.711.305-.453.193-.9.392-1.352.594-.343.152-.686.307-1.025.464q-.477.218-.951.446-1.634.77-3.235,1.6-2.879,1.5-5.626,3.187c-.027.015-.056.033-.083.051-.2.121-.4.247-.6.372-.072.045-.146.09-.215.137a76.308,76.308,0,0,0-11.481,8.85q-1.756,1.648-3.406,3.426-1.006,1.08-1.964,2.207-1.981,2.327-3.711,4.83-.568.824-1.112,1.664c-.188.289-.372.583-.556.877q-1.17,1.873-2.218,3.823a73.413,73.413,0,0,0-3.568,7.689c-.119.3-.238.6-.352.908-.067.171-.13.343-.2.513q-.68,1.813-1.272,3.664c-.009.025-.015.049-.022.074-.058.182-.117.363-.173.545-.049.155-.1.307-.144.462-.06.19-.116.384-.175.574-.114.386-.229.773-.339,1.161-.049.175-.1.352-.148.527q-.451,1.628-.841,3.274c-.063.265-.126.532-.186.8q-.181.8-.35,1.6c-.056.267-.112.534-.166.8q-.29,1.45-.538,2.908c-.061.361-.121.725-.177,1.085-.016.094-.031.188-.045.285-.043.265-.083.531-.121.8-.029.2-.056.388-.083.583-.038.272-.076.54-.112.812-.02.15-.04.3-.058.453q-.067.515-.128,1.029c-.049.4-.094.8-.137,1.209-.049.458-.1.913-.139,1.37a147.434,147.434,0,0,0-.325,21.67c.394,7.388,1.218,14.768,2.224,22.1.011.1.027.2.04.294.509,3.7,1.063,7.393,1.63,11.064.231,1.5.446,3,.621,4.489.032.249.061.5.088.749s.051.5.076.744.051.5.074.747.045.5.061.747.04.5.056.749a50.661,50.661,0,0,1,.105,5.314c0,.215-.016.435-.025.655-.011.249-.027.5-.043.744s-.036.5-.056.745-.045.5-.069.746a.1.1,0,0,0,0,.025q-.078.737-.182,1.475c-.045.3-.09.594-.137.89q-.185,1.2-.421,2.379c-.022.114-.043.226-.07.338a.789.789,0,0,1-.022.108c-.036.184-.072.366-.112.547q-.394,1.863-.886,3.7c-.065.242-.128.484-.2.727-.072.258-.141.516-.217.773-.148.518-.3,1.029-.455,1.543q-.643,2.116-1.372,4.2c-.054.155-.108.307-.164.462-.536,1.52-1.1,3.034-1.675,4.543q-.5,1.3-1.009,2.595-.7,1.782-1.417,3.563c-.17.426-.338.854-.511,1.283q-.411,1.026-.814,2.052c-.128.321-.253.639-.379.957-.664,1.693-1.318,3.393-1.942,5.1-.13.345-.253.695-.379,1.043s-.249.7-.37,1.049c-.105.3-.209.6-.312.9-.032.09-.063.18-.092.271-.105.307-.209.617-.309.926-.114.343-.227.691-.334,1.038l-.007.018c-.112.352-.224.7-.332,1.058-.078.258-.157.516-.233.774q-.165.548-.318,1.1c-.105.368-.206.738-.3,1.106-.049.184-.1.368-.146.554-.083.3-.159.612-.236.919-.036.139-.07.276-.1.413-.126.5-.242,1.007-.354,1.513-.049.222-.1.444-.144.664A129.764,129.764,0,0,0,79.228,286.7a131.433,131.433,0,0,0,2.222,22.291,103.289,103.289,0,0,0,3.124,12.351q.246.757.5,1.507c.087.251.173.5.26.747s.177.5.267.747c.159.442.325.881.491,1.321.074.19.146.381.222.569.083.213.168.426.251.639.054.135.11.267.164.4.615,1.509,1.269,2.992,1.971,4.436.081.175.164.345.251.518.112.229.226.46.343.686q.754,1.49,1.574,2.917a.255.255,0,0,0,.031.054c.117.2.236.406.352.608.377.641.76,1.269,1.157,1.89l.012.019a27.14,27.14,0,0,0,23.47,13.239l2.19-.008A364.007,364.007,0,0,1,255.838,378.51q2.506,1.014,5.034,1.956,6.621,2.472,13.456,4.387a183.29,183.29,0,0,0,94.65.892,172.081,172.081,0,0,0,19.407-6.257c25.132-9.8,44.726-16.515,60.2-21.15a193.3,193.3,0,0,1,54.75-8.119l105.152-.386a22.372,22.372,0,0,0,19.222-11.055l.017-.031c.148-.255.3-.513.447-.776.126-.217.251-.44.379-.664.022-.04.047-.08.07-.123.143-.256.292-.516.44-.778,0-.007.007-.016.011-.022.168-.3.336-.6.5-.906.085-.15.17-.3.253-.457,0,0,0-.007,0-.009q.384-.7.771-1.415c.251-.469.5-.944.756-1.421.007-.014.016-.027.022-.039.26-.5.518-.993.781-1.5.2-.377.392-.76.589-1.146q.461-.911.922-1.85.158-.316.316-.639.3-.622.61-1.26.323-.666.641-1.35c.074-.157.15-.314.222-.471.1-.2.193-.41.287-.617.078-.168.155-.334.231-.5q.491-1.063.976-2.155c.121-.278.244-.554.365-.834l0,0c.009-.02.018-.043.029-.065q.222-.512.446-1.03a.3.3,0,0,0,.022-.058c.332-.76.655-1.53.978-2.308.105-.256.211-.511.316-.769,0-.018.013-.034.018-.049q.222-.541.44-1.085c.146-.363.289-.726.435-1.094s.29-.735.431-1.105c.1-.253.2-.507.292-.764.031-.081.063-.159.092-.24.081-.209.159-.419.238-.632.217-.578.431-1.159.644-1.744.139-.381.273-.763.412-1.148.034-.1.068-.2.1-.294s.072-.2.105-.3c.047-.128.092-.255.135-.386.13-.372.26-.749.388-1.126.16-.471.318-.946.478-1.419l.251-.767q.225-.692.446-1.392c.229-.724.455-1.455.677-2.188.148-.494.294-.985.437-1.478.07-.249.144-.5.215-.745s.142-.5.211-.749.141-.5.208-.749c.025-.088.047-.173.074-.263q.222-.814.44-1.637.434-1.644.839-3.321c.132-.56.265-1.119.395-1.682q.265-1.174.522-2.359t.489-2.381v-.007q.077-.4.155-.8c.051-.265.1-.534.152-.8q.128-.706.256-1.415.377-2.129.693-4.294.145-.986.278-1.98.393-2.98.67-6.03.094-1.009.171-2.032c.029-.4.06-.809.085-1.216q.047-.7.087-1.41c.018-.292.034-.585.049-.879.021-.435.043-.868.059-1.305.022-.489.04-.98.054-1.469s.029-.986.038-1.48c0-.332.012-.659.016-.991,0-.036,0-.074,0-.112q.047-3.932-.137-7.951" transform="translate(-53.109 0.001)" fill="#e7f3fd"/>
        <g id="Group_2141" data-name="Group 2141" transform="translate(0 100.7)" opacity="0.56">
          <g id="Group_2140" data-name="Group 2140">
            <g id="Group_2139" data-name="Group 2139" clip-path="url(#clip-path-3)">
              <path id="Path_11060" data-name="Path 11060" d="M607.717,463.288H0c.115-.372.235-.745.358-1.112q.162-.5.331-.992c.031-.1.065-.195.1-.291.111-.325.221-.646.334-.968.129-.375.264-.75.4-1.124s.267-.747.406-1.117c.668-1.828,1.369-3.649,2.08-5.463.134-.341.269-.682.406-1.026q.432-1.1.872-2.2c.185-.459.365-.917.548-1.374q.764-1.91,1.518-3.817.544-1.387,1.081-2.78c.617-1.617,1.22-3.238,1.794-4.867.06-.166.118-.329.175-.495q.778-2.238,1.47-4.5c.168-.55.329-1.1.488-1.653.082-.276.156-.552.233-.829.074-.259.142-.519.212-.778q.526-1.964.949-3.959c.043-.194.082-.389.12-.586a.763.763,0,0,0,.024-.116c.029-.12.051-.24.074-.362q.253-1.265.452-2.549c.05-.317.1-.634.147-.954.074-.529.139-1.054.194-1.581a.1.1,0,0,1,0-.026c.026-.267.05-.533.074-.8s.043-.531.06-.8.034-.531.046-.8c.01-.235.021-.471.026-.7a54.212,54.212,0,0,0-.113-5.694c-.017-.269-.036-.535-.06-.8s-.041-.533-.065-.8-.05-.533-.079-.8-.053-.533-.082-.8-.06-.536-.094-.8c-.187-1.6-.418-3.2-.665-4.809-.608-3.933-1.2-7.885-1.747-11.853-.014-.106-.031-.209-.043-.315-1.079-7.856-1.961-15.762-2.383-23.678A158.01,158.01,0,0,1,9.989,341.1c.046-.49.1-.978.149-1.468.046-.433.094-.863.147-1.295q.065-.552.137-1.1c.019-.163.041-.324.062-.485.039-.291.079-.579.12-.87.029-.209.058-.415.089-.625.041-.283.084-.569.129-.853.014-.1.031-.2.048-.305.06-.387.125-.776.19-1.162q.267-1.56.577-3.116c.058-.288.118-.574.178-.86q.18-.861.375-1.718c.065-.286.132-.572.2-.855q.418-1.762.9-3.508c.053-.187.106-.377.158-.564.118-.416.24-.831.363-1.244.063-.2.123-.411.187-.615.05-.166.1-.329.154-.495.06-.194.123-.389.185-.584.007-.026.014-.053.024-.079q.638-1.982,1.362-3.926c.07-.182.137-.367.209-.55.123-.327.25-.649.377-.973a78.522,78.522,0,0,1,3.822-8.238H519.856q.685,1.171,1.377,2.34,1.131,1.9,2.273,3.8,1.445,2.389,2.941,4.716c.3.466.6.934.9,1.4.276.423.555.848.833,1.269.036.055.072.11.111.166l.355.536c.032.043.058.086.089.132q.371.558.747,1.11,1.124,1.665,2.273,3.3c.031.041.058.084.089.125.283.406.572.815.862,1.218.151.214.3.427.457.641.039.055.082.115.125.173.252.356.509.709.764,1.062.113.154.223.307.339.461.36.5.723,1,1.088,1.494.308.416.615.831.925,1.247q3.694,4.951,7.546,9.742.45.566.906,1.127c.118.149.238.3.358.444.257.322.516.639.778.958.019.027.039.05.06.077.072.091.149.185.224.276q.357.436.713.877c.375.459.752.92,1.132,1.379q1.272,1.553,2.556,3.094,2.595,3.132,5.223,6.241l.1.123q2.937,3.484,5.881,6.976,1.633,1.939,3.262,3.887,1.712,2.047,3.414,4.108,1.924,2.328,3.832,4.682c.69.853,1.367,1.71,2.037,2.563.135.171.267.341.4.509q.894,1.153,1.759,2.306t1.706,2.3c.185.257.37.514.555.769q.551.771,1.09,1.537t1.069,1.538q.526.768,1.043,1.535c.17.257.343.512.514.767.08.12.159.242.238.36.26.391.514.783.769,1.177q.746,1.15,1.468,2.3c.32.512.637,1.021.949,1.535q.7,1.15,1.379,2.3c.2.334.394.668.589,1,.075.132.152.26.224.392.118.2.235.408.353.615q.577,1,1.127,2.006c.185.334.365.671.548,1,.363.67.721,1.336,1.067,2.006q.263.5.521,1,.292.569.581,1.141,1.809,3.589,3.378,7.159a141.783,141.783,0,0,1,10.88,38.575q.818,6.122,1.086,12.093" transform="translate(0 -305.614)" fill="#fff"/>
            </g>
          </g>
        </g>
        <g id="Group_2144" data-name="Group 2144" transform="translate(4.411 114.386)" opacity="0.15">
          <g id="Group_2143" data-name="Group 2143">
            <g id="Group_2142" data-name="Group 2142" clip-path="url(#clip-path-4)">
              <path id="Path_11061" data-name="Path 11061" d="M221.216,350.033V476.161a2.892,2.892,0,0,1-2.883,2.883H13.386q.432-1.1.872-2.2c.185-.459.365-.918.548-1.374q.764-1.91,1.518-3.817.544-1.388,1.081-2.78c.617-1.617,1.22-3.238,1.794-4.867.06-.166.118-.329.175-.495q.778-2.238,1.47-4.5c.168-.55.329-1.1.488-1.653.082-.276.156-.553.233-.829.074-.259.142-.519.212-.778q.526-1.964.949-3.959c.043-.194.082-.389.12-.586a.856.856,0,0,0,.024-.116c.029-.12.05-.24.074-.362q.253-1.265.452-2.549c.05-.317.1-.634.147-.954.074-.529.139-1.054.194-1.581a.1.1,0,0,1,0-.027c.026-.267.05-.533.074-.8s.043-.531.06-.8.034-.531.046-.8c.01-.235.021-.471.026-.7a54.214,54.214,0,0,0-.113-5.694c-.017-.269-.036-.536-.06-.8s-.041-.533-.065-.8-.05-.533-.079-.8-.053-.533-.082-.8-.06-.536-.094-.8c-.187-1.6-.418-3.2-.665-4.809-.608-3.933-1.2-7.885-1.747-11.853-.014-.106-.031-.209-.043-.315-1.079-7.856-1.961-15.762-2.383-23.677a158.01,158.01,0,0,1,.348-23.217,103.078,103.078,0,0,1,4.372-21.8h195a2.891,2.891,0,0,1,2.883,2.883" transform="translate(-13.386 -347.15)" fill="#d7f0ff"/>
            </g>
          </g>
        </g>
        <g id="Group_2147" data-name="Group 2147" transform="translate(230.946 114.387)" opacity="0.15">
          <g id="Group_2146" data-name="Group 2146">
            <g id="Group_2145" data-name="Group 2145" clip-path="url(#clip-path-5)">
              <path id="Path_11062" data-name="Path 11062" d="M947.343,479.045H704.849a3.966,3.966,0,0,1-3.954-3.954V351.106a3.966,3.966,0,0,1,3.954-3.954H947.343a3.966,3.966,0,0,1,3.954,3.954V475.091a3.966,3.966,0,0,1-3.954,3.954" transform="translate(-700.895 -347.152)" fill="#d7f0ff"/>
            </g>
          </g>
        </g>
        <g id="Group_2150" data-name="Group 2150" transform="translate(502.261 114.386)" opacity="0.15">
          <g id="Group_2149" data-name="Group 2149">
            <g id="Group_2148" data-name="Group 2148" clip-path="url(#clip-path-6)">
              <path id="Path_11063" data-name="Path 11063" d="M1628.681,479.044H1527.193a2.891,2.891,0,0,1-2.883-2.883V350.033a2.892,2.892,0,0,1,2.883-2.883h23.147l.355.536c.032.043.058.087.089.132q.371.559.747,1.11,1.124,1.665,2.272,3.3c.031.041.058.084.089.125.283.406.572.815.862,1.218.151.214.3.427.457.642.039.055.082.115.125.173.252.356.509.709.764,1.062.113.154.224.307.339.461.36.5.723,1,1.088,1.494q.461.623.925,1.247,3.694,4.951,7.546,9.742.45.565.906,1.127c.118.149.238.3.358.444.257.322.516.639.778.959.019.026.038.05.06.077.072.091.149.185.224.276q.357.436.714.877c.375.459.752.92,1.131,1.379q1.273,1.553,2.556,3.094,2.595,3.132,5.223,6.241l.1.123q2.937,3.484,5.881,6.977,1.632,1.938,3.262,3.887,1.711,2.047,3.414,4.108,1.924,2.328,3.832,4.682c.689.853,1.367,1.71,2.037,2.563l.4.509q.894,1.153,1.759,2.306t1.706,2.3c.185.257.37.514.555.769q.551.772,1.09,1.538t1.069,1.537q.526.768,1.043,1.535c.171.257.344.512.514.766.079.12.158.242.238.36.26.392.514.783.769,1.177q.746,1.15,1.468,2.3c.32.512.637,1.021.949,1.535q.7,1.15,1.379,2.3c.2.334.394.668.589,1,.075.132.151.259.224.391.117.2.235.409.353.615.384.668.759,1.338,1.127,2.006.185.334.365.67.547,1,.363.67.721,1.336,1.067,2.006q.263.5.521,1c.195.38.39.759.582,1.141q1.809,3.589,3.377,7.159a141.76,141.76,0,0,1,10.88,38.575" transform="translate(-1524.31 -347.15)" fill="#d7f0ff"/>
            </g>
          </g>
        </g>
        <g id="Group_2153" data-name="Group 2153" transform="translate(39.455 114.386)" opacity="0.56">
          <g id="Group_2152" data-name="Group 2152">
            <g id="Group_2151" data-name="Group 2151" clip-path="url(#clip-path-7)">
              <rect id="Rectangle_4781" data-name="Rectangle 4781" width="5.832" height="132.06" transform="translate(0 0)" fill="#fff"/>
            </g>
          </g>
        </g>
        <g id="Group_2156" data-name="Group 2156" transform="translate(348.588 114.386)" opacity="0.56">
          <g id="Group_2155" data-name="Group 2155">
            <g id="Group_2154" data-name="Group 2154" clip-path="url(#clip-path-8)">
              <rect id="Rectangle_4783" data-name="Rectangle 4783" width="5.831" height="132.06" transform="translate(-0.001 0)" fill="#fff"/>
            </g>
          </g>
        </g>
        <path id="Path_11064" data-name="Path 11064" d="M1782.4,509.169l-.942-.727c.4-.526.806-1.054,1.2-1.587l.956.709c-.4.54-.8,1.073-1.214,1.6" transform="translate(-1194.469 -339.846)" fill="#88c9f7" fill-rule="evenodd"/>
        <path id="Path_11065" data-name="Path 11065" d="M1775.613,517.743l-.915-.761q.634-.765,1.255-1.542l.931.743q-.628.784-1.271,1.56" transform="translate(-1189.934 -345.601)" fill="#88c9f7" fill-rule="evenodd"/>
        <path id="Path_11066" data-name="Path 11066" d="M1768.517,526.026l-.878-.8q.666-.731,1.314-1.484l.9.779q-.658.763-1.337,1.508" transform="translate(-1185.201 -351.166)" fill="#88c9f7" fill-rule="evenodd"/>
        <path id="Path_11067" data-name="Path 11067" d="M1800.951,482.085l-1.015-.622.517-.849.5-.857,1.028.6-.511.868Z" transform="translate(-1206.857 -321.676)" fill="#88c9f7" fill-rule="evenodd"/>
        <path id="Path_11068" data-name="Path 11068" d="M1795.1,491.318l-.991-.659c.186-.276.367-.553.546-.831s.364-.554.539-.835l1,.64c-.178.283-.364.563-.546.844s-.365.564-.553.841" transform="translate(-1202.947 -327.869)" fill="#88c9f7" fill-rule="evenodd"/>
        <path id="Path_11069" data-name="Path 11069" d="M1788.941,500.306l-.968-.694c.384-.541.769-1.08,1.142-1.628l.981.675c-.378.554-.767,1.1-1.155,1.647" transform="translate(-1198.835 -333.898)" fill="#88c9f7" fill-rule="evenodd"/>
        <path id="Path_11070" data-name="Path 11070" d="M1816.285,453.087l-1.085-.49.406-.905.385-.913,1.1.461-.392.928Z" transform="translate(-1217.091 -302.247)" fill="#88c9f7" fill-rule="evenodd"/>
        <path id="Path_11071" data-name="Path 11071" d="M1811.6,462.951l-1.062-.538c.292-.594.6-1.181.874-1.782l1.075.513c-.281.609-.591,1.206-.887,1.808" transform="translate(-1213.963 -308.852)" fill="#88c9f7" fill-rule="evenodd"/>
        <path id="Path_11072" data-name="Path 11072" d="M1806.492,472.576l-1.038-.583c.166-.287.323-.578.48-.869l.474-.874,1.051.558-.479.886c-.161.294-.32.589-.488.88" transform="translate(-1210.556 -315.303)" fill="#88c9f7" fill-rule="evenodd"/>
        <path id="Path_11073" data-name="Path 11073" d="M1827.327,422.272l-1.151-.305.24-.959c.077-.32.166-.638.23-.96l1.161.263c-.066.331-.156.655-.235.982Z" transform="translate(-1224.45 -281.642)" fill="#88c9f7" fill-rule="evenodd"/>
        <path id="Path_11074" data-name="Path 11074" d="M1824.218,432.719l-1.13-.374c.11-.311.2-.628.3-.943l.293-.944,1.142.337-.3.964c-.1.321-.2.644-.307.961" transform="translate(-1222.379 -288.622)" fill="#88c9f7" fill-rule="evenodd"/>
        <path id="Path_11075" data-name="Path 11075" d="M1820.533,442.949l-1.108-.435c.25-.612.469-1.235.7-1.854l1.121.4c-.234.63-.457,1.264-.711,1.887" transform="translate(-1219.924 -295.462)" fill="#88c9f7" fill-rule="evenodd"/>
        <path id="Path_11076" data-name="Path 11076" d="M1832.3,390.092l-1.19-.047.035-.983,0-.984,1.19-.01,0,1.012Z" transform="translate(-1227.761 -260.199)" fill="#88c9f7" fill-rule="evenodd"/>
        <path id="Path_11077" data-name="Path 11077" d="M1831.445,400.9l-1.182-.141.11-.98c.04-.326.053-.654.081-.981l1.187.09c-.029.336-.042.673-.083,1.008Z" transform="translate(-1227.19 -267.396)" fill="#88c9f7" fill-rule="evenodd"/>
        <path id="Path_11078" data-name="Path 11078" d="M1829.77,411.593l-1.169-.227.178-.971c.029-.162.061-.323.086-.486l.072-.488,1.177.181-.074.5c-.026.167-.059.332-.089.5Z" transform="translate(-1226.076 -274.516)" fill="#88c9f7" fill-rule="evenodd"/>
        <path id="Path_11079" data-name="Path 11079" d="M1828.2,357.368l-1.158.279-.11-.478-.132-.473-.266-.944,1.141-.342.275.976.136.488Z" transform="translate(-1224.689 -238.302)" fill="#88c9f7" fill-rule="evenodd"/>
        <path id="Path_11080" data-name="Path 11080" d="M1830.593,368.115l-1.179.166c-.074-.651-.212-1.291-.324-1.935l1.169-.229c.116.665.258,1.327.334,2" transform="translate(-1226.404 -245.481)" fill="#88c9f7" fill-rule="evenodd"/>
        <path id="Path_11081" data-name="Path 11081" d="M1831.97,379.008l-1.19.057-.022-.491-.011-.245-.021-.245-.088-.978,1.185-.118.091,1.009.021.252.012.253Z" transform="translate(-1227.442 -252.77)" fill="#88c9f7" fill-rule="evenodd"/>
        <path id="Path_11082" data-name="Path 11082" d="M1815.047,327.225l-1.03.6-.245-.426c-.081-.142-.161-.284-.253-.421l-.531-.826,1-.65.547.852c.094.14.178.287.261.434Z" transform="translate(-1215.607 -218.248)" fill="#88c9f7" fill-rule="evenodd"/>
        <path id="Path_11083" data-name="Path 11083" d="M1820.363,336.813l-1.081.5-.2-.448c-.068-.148-.147-.292-.22-.438l-.448-.874,1.053-.555.461.9c.076.152.157.3.227.453Z" transform="translate(-1219.245 -224.615)" fill="#88c9f7" fill-rule="evenodd"/>
        <path id="Path_11084" data-name="Path 11084" d="M1824.755,346.838l-1.124.392-.157-.465-.178-.457-.358-.914,1.1-.453.37.944.185.471Z" transform="translate(-1222.278 -231.284)" fill="#88c9f7" fill-rule="evenodd"/>
        <path id="Path_11085" data-name="Path 11085" d="M1794.55,301.681l-.853.831-.341-.357-.355-.342-.711-.685.82-.863.728.7.364.35Z" transform="translate(-1201.729 -201.327)" fill="#88c9f7" fill-rule="evenodd"/>
        <path id="Path_11086" data-name="Path 11086" d="M1802.045,309.613l-.913.765c-.433-.495-.856-1-1.3-1.485l.879-.8c.452.5.886,1.015,1.331,1.522" transform="translate(-1206.789 -206.575)" fill="#88c9f7" fill-rule="evenodd"/>
        <path id="Path_11087" data-name="Path 11087" d="M1808.866,318.1l-.972.688-.572-.8c-.092-.135-.2-.263-.3-.392l-.3-.386.939-.732.313.4c.1.132.21.263.306.4Z" transform="translate(-1211.405 -212.199)" fill="#88c9f7" fill-rule="evenodd"/>
        <path id="Path_11088" data-name="Path 11088" d="M1769.242,281.052l-.677.98c-.268-.187-.535-.374-.812-.545s-.548-.356-.828-.522l.617-1.018c.292.172.573.361.859.541s.564.372.843.565" transform="translate(-1184.722 -187.703)" fill="#88c9f7" fill-rule="evenodd"/>
        <path id="Path_11089" data-name="Path 11089" d="M1778.06,287.381l-.739.934c-.252-.213-.518-.407-.783-.6l-.792-.594.709-.956.807.6c.269.2.54.4.8.617" transform="translate(-1190.637 -191.87)" fill="#88c9f7" fill-rule="evenodd"/>
        <path id="Path_11090" data-name="Path 11090" d="M1786.485,294.231l-.794.888-.741-.655-.371-.327-.383-.313.762-.914.391.319.378.334Z" transform="translate(-1196.304 -196.396)" fill="#88c9f7" fill-rule="evenodd"/>
        <path id="Path_11091" data-name="Path 11091" d="M1739.5,268.494l-.3,1.152-.472-.125-.477-.106c-.318-.07-.634-.147-.956-.2l.224-1.17c.334.057.664.135.994.209l.5.111Z" transform="translate(-1164.854 -179.724)" fill="#88c9f7" fill-rule="evenodd"/>
        <path id="Path_11092" data-name="Path 11092" d="M1749.864,271.447l-.437,1.107c-.3-.118-.6-.242-.913-.344s-.612-.221-.924-.314l.362-1.134c.325.1.642.218.962.327s.635.236.951.358" transform="translate(-1171.757 -181.546)" fill="#88c9f7" fill-rule="evenodd"/>
        <path id="Path_11093" data-name="Path 11093" d="M1759.774,275.641l-.565,1.049c-.57-.316-1.158-.595-1.747-.874l.495-1.083c.613.289,1.224.58,1.817.907" transform="translate(-1178.378 -184.209)" fill="#88c9f7" fill-rule="evenodd"/>
        <path id="Path_11094" data-name="Path 11094" d="M1706.977,266.535l.078,1.188-.98.079c-.327.024-.653.067-.979.1l-.134-1.183c.336-.034.67-.077,1.007-.1Z" transform="translate(-1143.176 -178.711)" fill="#88c9f7" fill-rule="evenodd"/>
        <path id="Path_11095" data-name="Path 11095" d="M1717.978,266.3l-.035,1.19c-.654-.014-1.307-.023-1.962,0l-.03-1.19c.674-.022,1.351-.014,2.026,0" transform="translate(-1150.545 -178.544)" fill="#88c9f7" fill-rule="evenodd"/>
        <path id="Path_11096" data-name="Path 11096" d="M1728.779,266.8l-.163,1.179c-.322-.052-.646-.08-.97-.118-.162-.017-.324-.037-.487-.052l-.488-.037.091-1.187.506.038c.168.015.336.036.5.054.336.039.673.068,1.008.122" transform="translate(-1157.732 -178.748)" fill="#88c9f7" fill-rule="evenodd"/>
        <path id="Path_11097" data-name="Path 11097" d="M1674.695,272.376l.319,1.147c-.635.181-1.272.36-1.9.559l-.349-1.138c.641-.2,1.288-.384,1.934-.568" transform="translate(-1121.585 -182.628)" fill="#88c9f7" fill-rule="evenodd"/>
        <path id="Path_11098" data-name="Path 11098" d="M1685.286,269.717l.255,1.163c-.643.147-1.286.292-1.925.457l-.293-1.154c.651-.169,1.307-.317,1.963-.467" transform="translate(-1128.667 -180.845)" fill="#88c9f7" fill-rule="evenodd"/>
        <path id="Path_11099" data-name="Path 11099" d="M1696,267.731l.175,1.178-.975.156c-.324.052-.647.117-.971.176l-.221-1.17c.331-.059.661-.126.993-.179Z" transform="translate(-1135.834 -179.513)" fill="#88c9f7" fill-rule="evenodd"/>
        <path id="Path_11100" data-name="Path 11100" d="M1643.764,283.132l.445,1.105c-.616.25-1.231.5-1.844.758l-.459-1.1c.617-.26,1.238-.512,1.859-.764" transform="translate(-1100.896 -189.84)" fill="#88c9f7" fill-rule="evenodd"/>
        <path id="Path_11101" data-name="Path 11101" d="M1653.929,279.19l.412,1.118c-.623.227-1.242.467-1.862.7l-.431-1.109c.626-.24,1.251-.482,1.881-.712" transform="translate(-1107.697 -187.196)" fill="#88c9f7" fill-rule="evenodd"/>
        <path id="Path_11102" data-name="Path 11102" d="M1664.187,275.59l.372,1.132c-.316.1-.629.209-.942.315s-.628.211-.939.325l-.4-1.123c.315-.114.634-.219.951-.329s.635-.217.955-.319" transform="translate(-1114.559 -184.783)" fill="#88c9f7" fill-rule="evenodd"/>
        <path id="Path_11103" data-name="Path 11103" d="M1613.769,296.284l.5,1.08-1.814.845-.5-1.078Z" transform="translate(-1080.813 -198.658)" fill="#88c9f7" fill-rule="evenodd"/>
        <path id="Path_11104" data-name="Path 11104" d="M1623.685,291.749l.486,1.086-1.819.825-.5-1.082Z" transform="translate(-1087.454 -195.617)" fill="#88c9f7" fill-rule="evenodd"/>
        <path id="Path_11105" data-name="Path 11105" d="M1633.633,287.366l.469,1.094c-.611.261-1.221.529-1.831.8l-.479-1.089q.918-.4,1.841-.8" transform="translate(-1094.116 -192.678)" fill="#88c9f7" fill-rule="evenodd"/>
        <path id="Path_11106" data-name="Path 11106" d="M1584.154,310.3l.511,1.075-1.812.86-.509-1.076Z" transform="translate(-1060.961 -208.056)" fill="#88c9f7" fill-rule="evenodd"/>
        <rect id="Rectangle_4785" data-name="Rectangle 4785" width="2.004" height="1.19" transform="translate(524.628 101.561) rotate(-25.458)" fill="#88c9f7"/>
        <rect id="Rectangle_4786" data-name="Rectangle 4786" width="2.004" height="1.191" transform="translate(527.864 100.019) rotate(-25.288)" fill="#88c9f7"/>
        <path id="Path_11107" data-name="Path 11107" d="M1554.429,324.1l.487,1.086-1.837.815-.479-1.091Z" transform="translate(-1041.018 -217.308)" fill="#88c9f7" fill-rule="evenodd"/>
        <path id="Path_11108" data-name="Path 11108" d="M1564.364,319.589l.5,1.081-1.827.835-.493-1.084Z" transform="translate(-1047.685 -214.284)" fill="#88c9f7" fill-rule="evenodd"/>
        <path id="Path_11109" data-name="Path 11109" d="M1574.223,315l.506,1.077-1.817.851-.5-1.079Z" transform="translate(-1054.3 -211.206)" fill="#88c9f7" fill-rule="evenodd"/>
        <path id="Path_11110" data-name="Path 11110" d="M1524.189,336.723l.427,1.112c-.625.244-1.257.474-1.886.711l-.411-1.117c.625-.235,1.25-.463,1.87-.705" transform="translate(-1020.714 -225.772)" fill="#88c9f7" fill-rule="evenodd"/>
        <path id="Path_11111" data-name="Path 11111" d="M1534.333,332.711l.451,1.1q-.931.382-1.869.751l-.438-1.107q.933-.366,1.856-.746" transform="translate(-1027.525 -223.082)" fill="#88c9f7" fill-rule="evenodd"/>
        <path id="Path_11112" data-name="Path 11112" d="M1544.365,328.513l.471,1.094c-.618.263-1.233.528-1.852.786l-.461-1.1c.615-.256,1.228-.52,1.842-.781" transform="translate(-1034.261 -220.267)" fill="#88c9f7" fill-rule="evenodd"/>
        <path id="Path_11113" data-name="Path 11113" d="M1493.148,347.151l.327,1.145c-.651.18-1.3.365-1.949.532l-.3-1.152c.645-.165,1.284-.348,1.925-.526" transform="translate(-999.864 -232.764)" fill="#88c9f7" fill-rule="evenodd"/>
        <path id="Path_11114" data-name="Path 11114" d="M1503.583,343.991l.365,1.133c-.639.21-1.284.4-1.927.6l-.343-1.14c.636-.2,1.274-.388,1.905-.6" transform="translate(-1006.874 -230.645)" fill="#88c9f7" fill-rule="evenodd"/>
        <path id="Path_11115" data-name="Path 11115" d="M1513.882,340.521l.4,1.123c-.635.221-1.268.447-1.905.657l-.38-1.128c.632-.209,1.259-.433,1.888-.652" transform="translate(-1013.791 -228.319)" fill="#88c9f7" fill-rule="evenodd"/>
        <path id="Path_11116" data-name="Path 11116" d="M1461.235,354.173l.178,1.177-1,.147c-.333.047-.67.086-1,.129l-.144-1.182c.328-.043.659-.08.988-.127Z" transform="translate(-978.435 -237.473)" fill="#88c9f7" fill-rule="evenodd"/>
        <path id="Path_11117" data-name="Path 11117" d="M1471.945,352.3l.233,1.167c-.33.071-.662.128-.994.191s-.662.128-.995.181l-.2-1.173c.328-.052.654-.119.981-.178s.654-.118.978-.187" transform="translate(-985.625 -236.213)" fill="#88c9f7" fill-rule="evenodd"/>
        <path id="Path_11118" data-name="Path 11118" d="M1482.54,349.946l.283,1.157-.982.237-.988.221-.254-1.163.972-.217Z" transform="translate(-992.74 -234.638)" fill="#88c9f7" fill-rule="evenodd"/>
        <path id="Path_11119" data-name="Path 11119" d="M1428.651,356.351l-.017,1.19c-.677,0-1.354-.037-2.03-.061l.058-1.19c.663.023,1.325.059,1.989.06" transform="translate(-956.538 -238.893)" fill="#88c9f7" fill-rule="evenodd"/>
        <path id="Path_11120" data-name="Path 11120" d="M1439.593,356.315l.052,1.189c-.675.023-1.351.054-2.027.055l-.016-1.19c.664,0,1.327-.03,1.99-.054" transform="translate(-963.912 -238.909)" fill="#88c9f7" fill-rule="evenodd"/>
        <path id="Path_11121" data-name="Path 11121" d="M1450.379,355.534l.118,1.185c-.336.037-.673.066-1.009.092l-1.011.08-.082-1.188.992-.078c.331-.025.663-.054.992-.091" transform="translate(-971.149 -238.385)" fill="#88c9f7" fill-rule="evenodd"/>
        <path id="Path_11122" data-name="Path 11122" d="M1396,352.073l-.242,1.165c-.332-.063-.661-.14-.992-.217l-.991-.229.286-1.156.968.225c.322.075.646.15.971.212" transform="translate(-934.529 -235.771)" fill="#88c9f7" fill-rule="evenodd"/>
        <path id="Path_11123" data-name="Path 11123" d="M1406.775,354.179l-.167,1.179-1.005-.146-1-.173.209-1.172.979.169Z" transform="translate(-941.786 -237.267)" fill="#88c9f7" fill-rule="evenodd"/>
        <path id="Path_11124" data-name="Path 11124" d="M1417.623,355.6l-.09,1.187-1.012-.091-.506-.045-.5-.059.132-1.183.495.058.495.044Z" transform="translate(-949.099 -238.304)" fill="#88c9f7" fill-rule="evenodd"/>
        <path id="Path_11125" data-name="Path 11125" d="M1364.811,341.693l-.459,1.1c-.628-.253-1.242-.535-1.86-.813l.5-1.082c.605.272,1.209.549,1.823.8" transform="translate(-913.549 -228.57)" fill="#88c9f7" fill-rule="evenodd"/>
        <path id="Path_11126" data-name="Path 11126" d="M1374.968,345.788l-.39,1.125-.959-.337-.948-.362.429-1.111.929.355Z" transform="translate(-920.375 -231.391)" fill="#88c9f7" fill-rule="evenodd"/>
        <path id="Path_11127" data-name="Path 11127" d="M1385.329,349.246l-.317,1.147-.977-.283-.486-.142-.485-.156.359-1.135.474.151.476.14Z" transform="translate(-927.344 -233.788)" fill="#88c9f7" fill-rule="evenodd"/>
        <path id="Path_11128" data-name="Path 11128" d="M1335.99,326l-.639,1.006c-.288-.176-.568-.363-.849-.549l-.845-.559.666-.987.83.549c.277.184.554.367.838.54" transform="translate(-894.216 -217.854)" fill="#88c9f7" fill-rule="evenodd"/>
        <path id="Path_11129" data-name="Path 11129" d="M1345.283,331.747l-.582,1.038c-.3-.16-.589-.333-.88-.5l-.874-.513.615-1.02.858.5c.287.168.571.338.864.495" transform="translate(-900.445 -221.765)" fill="#88c9f7" fill-rule="evenodd"/>
        <path id="Path_11130" data-name="Path 11130" d="M1354.853,336.969l-.525,1.069-.455-.221-.451-.232-.9-.467.557-1.052.885.457.441.229Z" transform="translate(-906.866 -225.332)" fill="#88c9f7" fill-rule="evenodd"/>
        <path id="Path_11131" data-name="Path 11131" d="M1309.881,306.2l-.769.908c-.513-.437-1.029-.87-1.528-1.323l.789-.891c.492.446,1,.874,1.508,1.305" transform="translate(-876.734 -204.434)" fill="#88c9f7" fill-rule="evenodd"/>
        <path id="Path_11132" data-name="Path 11132" d="M1318.274,313.172l-.729.94c-.266-.208-.537-.409-.8-.622l-.784-.637.753-.923.773.628c.257.211.524.409.786.614" transform="translate(-882.352 -209.149)" fill="#88c9f7" fill-rule="evenodd"/>
        <path id="Path_11133" data-name="Path 11133" d="M1326.934,319.759l-.687.973-.416-.29-.408-.3-.814-.6.713-.955.8.59.4.3Z" transform="translate(-888.15 -213.613)" fill="#88c9f7" fill-rule="evenodd"/>
        <path id="Path_11134" data-name="Path 11134" d="M1286.337,283.447l-.862.82c-.461-.489-.93-.973-1.377-1.474l.877-.8c.444.5.907.974,1.362,1.459" transform="translate(-860.987 -189.073)" fill="#88c9f7" fill-rule="evenodd"/>
        <path id="Path_11135" data-name="Path 11135" d="M1293.907,291.294l-.835.848c-.243-.233-.479-.471-.715-.712l-.708-.719.851-.832.7.711c.233.238.467.474.707.7" transform="translate(-866.049 -194.363)" fill="#88c9f7" fill-rule="evenodd"/>
        <path id="Path_11136" data-name="Path 11136" d="M1301.707,298.861l-.8.877c-.491-.46-.986-.915-1.474-1.379l.821-.861c.483.458.972.908,1.457,1.362" transform="translate(-871.267 -199.473)" fill="#88c9f7" fill-rule="evenodd"/>
        <path id="Path_11137" data-name="Path 11137" d="M1265.039,258.589l-.93.745c-.42-.524-.83-1.056-1.246-1.583l.94-.732c.411.523.82,1.051,1.235,1.57" transform="translate(-846.75 -172.331)" fill="#88c9f7" fill-rule="evenodd"/>
        <path id="Path_11138" data-name="Path 11138" d="M1271.9,267.055l-.909.768c-.433-.514-.869-1.024-1.289-1.549l.922-.755c.415.521.848,1.026,1.276,1.535" transform="translate(-851.338 -178.031)" fill="#88c9f7" fill-rule="evenodd"/>
        <path id="Path_11139" data-name="Path 11139" d="M1278.958,275.318l-.889.794-1.329-1.516.9-.779Z" transform="translate(-856.054 -183.593)" fill="#88c9f7" fill-rule="evenodd"/>
        <path id="Path_11140" data-name="Path 11140" d="M1245.645,232.225l-.978.68-1.137-1.661.985-.669Z" transform="translate(-833.787 -154.6)" fill="#88c9f7" fill-rule="evenodd"/>
        <path id="Path_11141" data-name="Path 11141" d="M1251.917,241.137l-.962.7c-.2-.271-.4-.541-.592-.814l-.581-.822.971-.689.577.816c.192.272.393.538.588.808" transform="translate(-837.977 -160.593)" fill="#88c9f7" fill-rule="evenodd"/>
        <path id="Path_11142" data-name="Path 11142" d="M1258.34,249.9l-.948.722c-.4-.536-.813-1.069-1.212-1.609l.957-.709c.4.536.8,1.064,1.2,1.6" transform="translate(-842.268 -166.485)" fill="#88c9f7" fill-rule="evenodd"/>
        <path id="Path_11143" data-name="Path 11143" d="M1233.718,239.217l-3.4-5.077,1.229-2.147a12.865,12.865,0,0,1,2.612,1.011c.04.234-.2,3.232-.239,3.756l-.206,2.457" transform="translate(-824.931 -155.551)" fill="#4979b8"/>
        <path id="Path_11144" data-name="Path 11144" d="M1190.048,176.327a.452.452,0,0,1,.492-.035l25.979,14.486a.449.449,0,0,1-.095.825l-5.312,1.522a1.353,1.353,0,0,0-.9.833l-2.838,7.757a.45.45,0,0,1-.425.3.456.456,0,0,1-.421-.3l-1.8-5.084a.441.441,0,0,0-.3-.282.447.447,0,0,0-.4.077l-7.3,5.69a.452.452,0,0,1-.346.09l-.078-.02a.452.452,0,0,1-.29-.318l-6.136-25.072a.449.449,0,0,1,.164-.465" transform="translate(-797.808 -118.165)" fill="#67b8ee"/>
        <path id="Path_11145" data-name="Path 11145" d="M1190.632,176.255l20.392,17.126a1.351,1.351,0,0,0-.44.591l-2.838,7.756a.448.448,0,0,1-.425.3.456.456,0,0,1-.421-.3l-1.8-5.084-.059-.092v-.02l-14.618-20.19a.445.445,0,0,1,.212-.083" transform="translate(-798.176 -118.179)" fill="#458fd8"/>
        <path id="Path_11146" data-name="Path 11146" d="M1123.737,488.86a.977.977,0,0,1-.976-.977v-6.889a.976.976,0,0,1,1.952,0v6.889a.979.979,0,0,1-.977.977" transform="translate(-752.811 -321.852)" fill="#479bff"/>
        <path id="Path_11147" data-name="Path 11147" d="M1120.173,492.423h-6.89a.976.976,0,1,1,0-1.952h6.89a.976.976,0,0,1,0,1.952" transform="translate(-745.801 -328.86)" fill="#479bff"/>
        <path id="Path_11148" data-name="Path 11148" d="M1837.821,876.518a.977.977,0,0,1-.975-.977v-6.889a.976.976,0,0,1,1.952,0v6.889a.979.979,0,0,1-.977.977" transform="translate(-1231.604 -581.777)" fill="#479bff"/>
        <path id="Path_11149" data-name="Path 11149" d="M1834.258,880.081h-6.891a.976.976,0,1,1,0-1.952h6.891a.976.976,0,0,1,0,1.952" transform="translate(-1224.594 -588.785)" fill="#479bff"/>
        <path id="Path_11150" data-name="Path 11150" d="M510.851,280.634a1.363,1.363,0,0,1-1.926-.026l-6.708-6.883a1.362,1.362,0,0,1,1.951-1.9l6.707,6.883a1.365,1.365,0,0,1-.025,1.927" transform="translate(-336.478 -181.982)" fill="#479bff"/>
        <path id="Path_11151" data-name="Path 11151" d="M510.761,274.009l-6.884,6.709a1.362,1.362,0,1,1-1.9-1.95l6.884-6.709a1.362,1.362,0,0,1,1.9,1.95" transform="translate(-336.299 -182.156)" fill="#479bff"/>
        <path id="Path_11152" data-name="Path 11152" d="M75.808,737.878l-1.086.49-.818-1.836,1.09-.481Z" transform="translate(-49.553 -493.521)" fill="#88c9f7" fill-rule="evenodd"/>
        <path id="Path_11153" data-name="Path 11153" d="M80.3,747.805l-1.081.5-.838-1.825,1.083-.5Z" transform="translate(-52.558 -500.183)" fill="#88c9f7" fill-rule="evenodd"/>
        <path id="Path_11154" data-name="Path 11154" d="M84.89,757.656l-1.076.508-.854-1.815,1.078-.505Z" transform="translate(-55.624 -506.793)" fill="#88c9f7" fill-rule="evenodd"/>
        <path id="Path_11155" data-name="Path 11155" d="M63.29,707.662l-1.111.429c-.245-.624-.477-1.256-.714-1.884l1.117-.413c.236.624.465,1.248.708,1.869" transform="translate(-41.212 -473.234)" fill="#88c9f7" fill-rule="evenodd"/>
        <path id="Path_11156" data-name="Path 11156" d="M67.258,717.8l-1.1.453q-.384-.93-.755-1.867l1.106-.44q.368.932.75,1.854" transform="translate(-43.852 -480.04)" fill="#88c9f7" fill-rule="evenodd"/>
        <path id="Path_11157" data-name="Path 11157" d="M71.421,727.822l-1.093.473c-.264-.617-.53-1.232-.789-1.85l1.1-.463c.257.615.522,1.227.785,1.84" transform="translate(-46.626 -486.77)" fill="#88c9f7" fill-rule="evenodd"/>
        <path id="Path_11158" data-name="Path 11158" d="M53.1,676.638l-1.144.329c-.181-.65-.367-1.3-.536-1.948l1.151-.3c.166.644.351,1.283.529,1.924" transform="translate(-34.478 -452.395)" fill="#88c9f7" fill-rule="evenodd"/>
        <path id="Path_11159" data-name="Path 11159" d="M56.162,687.068l-1.133.367c-.211-.639-.406-1.283-.605-1.925l1.139-.346c.2.636.39,1.273.6,1.9" transform="translate(-36.491 -459.402)" fill="#88c9f7" fill-rule="evenodd"/>
        <path id="Path_11160" data-name="Path 11160" d="M59.561,697.361l-1.122.4c-.222-.634-.449-1.267-.661-1.9l1.128-.382c.21.631.435,1.258.655,1.887" transform="translate(-38.74 -466.315)" fill="#88c9f7" fill-rule="evenodd"/>
        <path id="Path_11161" data-name="Path 11161" d="M46.479,644.737l-1.177.18-.149-1c-.047-.334-.087-.67-.13-1.005l1.182-.146c.043.328.081.659.128.988Z" transform="translate(-30.189 -430.973)" fill="#88c9f7" fill-rule="evenodd"/>
        <path id="Path_11162" data-name="Path 11162" d="M48.2,655.444l-1.166.235c-.072-.329-.129-.661-.193-.993s-.129-.661-.183-.995l1.173-.206c.052.328.12.654.18.981s.12.654.189.978" transform="translate(-31.284 -438.161)" fill="#88c9f7" fill-rule="evenodd"/>
        <path id="Path_11163" data-name="Path 11163" d="M50.417,666.035l-1.156.285-.238-.982-.222-.987,1.162-.257.219.972Z" transform="translate(-32.721 -445.274)" fill="#88c9f7" fill-rule="evenodd"/>
        <path id="Path_11164" data-name="Path 11164" d="M44.66,612.161l-1.191-.015c0-.677.035-1.354.057-2.03l1.19.056c-.022.663-.056,1.325-.056,1.989" transform="translate(-29.146 -409.082)" fill="#88c9f7" fill-rule="evenodd"/>
        <path id="Path_11165" data-name="Path 11165" d="M44.721,623.1l-1.189.054c-.024-.675-.056-1.351-.058-2.027l1.191-.018c0,.665.033,1.327.057,1.99" transform="translate(-29.149 -416.452)" fill="#88c9f7" fill-rule="evenodd"/>
        <path id="Path_11166" data-name="Path 11166" d="M45.291,633.884,44.106,634c-.038-.336-.067-.673-.094-1.009l-.082-1.01,1.188-.084.08.992c.026.331.055.663.093.991" transform="translate(-29.455 -423.689)" fill="#88c9f7" fill-rule="evenodd"/>
        <path id="Path_11167" data-name="Path 11167" d="M48.164,579.506,47,579.267c.063-.332.139-.661.215-.992l.228-.991,1.157.283-.223.969c-.074.322-.149.646-.211.971" transform="translate(-31.512 -387.068)" fill="#88c9f7" fill-rule="evenodd"/>
        <path id="Path_11168" data-name="Path 11168" d="M46.3,590.28l-1.179-.165.145-1.005.171-1,1.173.207-.167.98Z" transform="translate(-30.255 -394.327)" fill="#88c9f7" fill-rule="evenodd"/>
        <path id="Path_11169" data-name="Path 11169" d="M45.127,601.131l-1.187-.088.089-1.012.045-.506.058-.5,1.184.13-.057.495-.043.495Z" transform="translate(-29.462 -401.643)" fill="#88c9f7" fill-rule="evenodd"/>
        <path id="Path_11170" data-name="Path 11170" d="M57.891,548.294l-1.1-.457c.252-.628.533-1.243.81-1.861l1.083.494c-.271.606-.547,1.21-.794,1.825" transform="translate(-38.079 -366.076)" fill="#88c9f7" fill-rule="evenodd"/>
        <path id="Path_11171" data-name="Path 11171" d="M53.987,558.458l-1.126-.388.336-.959.36-.949,1.111.428-.353.929Z" transform="translate(-35.444 -372.906)" fill="#88c9f7" fill-rule="evenodd"/>
        <path id="Path_11172" data-name="Path 11172" d="M50.74,568.825l-1.148-.315.281-.977.142-.487.155-.485,1.135.357-.151.474-.139.477Z" transform="translate(-33.251 -379.879)" fill="#88c9f7" fill-rule="evenodd"/>
        <path id="Path_11173" data-name="Path 11173" d="M73.122,519.444l-1.007-.637c.176-.289.362-.569.548-.85l.558-.846.989.664-.548.831c-.183.277-.366.555-.538.839" transform="translate(-48.353 -346.722)" fill="#88c9f7" fill-rule="evenodd"/>
        <path id="Path_11174" data-name="Path 11174" d="M67.512,528.749l-1.039-.58c.16-.3.332-.59.5-.882l.512-.874,1.021.613-.5.859c-.168.287-.337.572-.494.865" transform="translate(-44.57 -352.959)" fill="#88c9f7" fill-rule="evenodd"/>
        <path id="Path_11175" data-name="Path 11175" d="M62.44,538.327l-1.07-.523.22-.455.232-.451.465-.9,1.053.555-.456.885-.229.441Z" transform="translate(-41.149 -359.385)" fill="#88c9f7" fill-rule="evenodd"/>
        <path id="Path_11176" data-name="Path 11176" d="M92.632,493.3l-.91-.767c.436-.514.868-1.03,1.32-1.53l.892.787c-.446.493-.872,1-1.3,1.51" transform="translate(-61.5 -329.216)" fill="#88c9f7" fill-rule="evenodd"/>
        <path id="Path_11177" data-name="Path 11177" d="M85.743,501.7l-.941-.728c.207-.266.408-.538.621-.8l.636-.786.924.752-.626.774c-.211.257-.408.525-.613.787" transform="translate(-56.86 -334.841)" fill="#88c9f7" fill-rule="evenodd"/>
        <path id="Path_11178" data-name="Path 11178" d="M79.251,510.378l-.974-.685.289-.416.3-.409.6-.815.956.71-.589.8-.294.4Z" transform="translate(-52.485 -340.648)" fill="#88c9f7" fill-rule="evenodd"/>
        <path id="Path_11179" data-name="Path 11179" d="M115.212,469.714l-.821-.861c.488-.462.971-.932,1.471-1.379l.807.875c-.5.445-.973.909-1.456,1.365" transform="translate(-76.699 -313.441)" fill="#88c9f7" fill-rule="evenodd"/>
        <path id="Path_11180" data-name="Path 11180" d="M107.412,477.3l-.85-.834c.232-.244.471-.48.711-.717l.717-.709.834.849-.71.7c-.237.233-.473.467-.7.708" transform="translate(-71.45 -318.512)" fill="#88c9f7" fill-rule="evenodd"/>
        <path id="Path_11181" data-name="Path 11181" d="M99.9,485.112l-.879-.8c.459-.491.914-.988,1.376-1.477l.863.82c-.457.484-.906.974-1.36,1.46" transform="translate(-66.396 -323.739)" fill="#88c9f7" fill-rule="evenodd"/>
        <path id="Path_11182" data-name="Path 11182" d="M139.958,448.372l-.746-.929c.523-.421,1.054-.832,1.581-1.248l.733.938c-.523.412-1.049.822-1.568,1.238" transform="translate(-93.342 -299.173)" fill="#88c9f7" fill-rule="evenodd"/>
        <path id="Path_11183" data-name="Path 11183" d="M131.527,455.25l-.77-.907c.514-.433,1.023-.871,1.547-1.292l.757.92c-.52.416-1.024.85-1.533,1.279" transform="translate(-87.673 -303.77)" fill="#88c9f7" fill-rule="evenodd"/>
        <path id="Path_11184" data-name="Path 11184" d="M123.3,462.321l-.8-.888,1.514-1.331.781.9Z" transform="translate(-82.136 -308.498)" fill="#88c9f7" fill-rule="evenodd"/>
        <path id="Path_11185" data-name="Path 11185" d="M166.257,428.929l-.681-.977,1.659-1.139.671.984Z" transform="translate(-111.018 -286.177)" fill="#88c9f7" fill-rule="evenodd"/>
        <path id="Path_11186" data-name="Path 11186" d="M157.366,435.216l-.7-.961c.271-.2.54-.4.813-.594l.821-.583.69.97-.815.578c-.272.193-.538.394-.807.59" transform="translate(-105.043 -290.379)" fill="#88c9f7" fill-rule="evenodd"/>
        <path id="Path_11187" data-name="Path 11187" d="M148.633,441.656l-.723-.947c.535-.4,1.067-.815,1.606-1.215l.711.956c-.536.4-1.063.8-1.594,1.206" transform="translate(-99.174 -294.681)" fill="#88c9f7" fill-rule="evenodd"/>
        <path id="Path_11188" data-name="Path 11188" d="M176.795,424.619l5.046-3.441-.337-2.451a12.864,12.864,0,0,0-2.8-.038c-.124.2-1.025,3.071-1.182,3.574l-.726,2.356" transform="translate(-118.541 -280.676)" fill="#f4932a"/>
        <path id="Path_11189" data-name="Path 11189" d="M190.538,383.359a.453.453,0,0,0-.443-.216l-29.51,3.734a.449.449,0,0,0-.22.8l4.359,3.4a1.352,1.352,0,0,1,.52,1.107l-.264,8.256a.449.449,0,0,0,.284.433.457.457,0,0,0,.5-.121l3.571-4.043a.441.441,0,0,1,.381-.151.446.446,0,0,1,.345.222l4.643,8a.452.452,0,0,0,.288.213l.079.011a.451.451,0,0,0,.387-.186l15.057-20.966a.449.449,0,0,0,.021-.492" transform="translate(-107.408 -256.894)" fill="#ffaa45"/>
        <path id="Path_11190" data-name="Path 11190" d="M200.113,383.321,174.8,391.59a1.351,1.351,0,0,1,.187.712l-.264,8.255a.449.449,0,0,0,.284.433.456.456,0,0,0,.5-.121l3.57-4.043.089-.063.008-.018,21.1-13.269a.443.443,0,0,0-.166-.156" transform="translate(-117.152 -257.016)" fill="#f4932a"/>
        <path id="Path_11191" data-name="Path 11191" d="M876.828,238.467a.977.977,0,0,1-.975-.977V230.6a.976.976,0,0,1,1.952,0v6.889a.978.978,0,0,1-.977.977" transform="translate(-587.259 -153.964)" fill="#062d66"/>
        <path id="Path_11192" data-name="Path 11192" d="M873.265,242.029h-6.89a.976.976,0,1,1,0-1.952h6.89a.976.976,0,0,1,0,1.952" transform="translate(-580.249 -160.971)" fill="#062d66"/>
        <path id="Path_11193" data-name="Path 11193" d="M1737.976,984.007l-10.494-8.627,4.96-5.4,10.673,9.56-5.005,4.982Z" transform="translate(-1158.276 -650.371)" fill="#ffb27d"/>
        <path id="Path_11194" data-name="Path 11194" d="M1757.211,992.859l-4.331-1.38a1.272,1.272,0,0,0-1.561.769c-.6,1.616-2.021,4.416-4.8,4.935a1.231,1.231,0,0,0-.978,1.051l-1.914,13.921a1.263,1.263,0,0,0,.532,1.211l.006,0a1.264,1.264,0,0,0,1.757-.319l12.432-17.932a1.263,1.263,0,0,0-.321-1.759l-.486-.336a1.253,1.253,0,0,0-.335-.164" transform="translate(-1169.092 -664.748)" fill="#261a5b"/>
        <path id="Path_11195" data-name="Path 11195" d="M1662.789,744.067s-7.285,46.33-6.434,48.264l22.623,26.838-7.792,10.455L1644.758,804.6c-10.8-8.855-1.108-61.006-1.108-61.006Z" transform="translate(-1099.385 -498.578)" fill="#062d66"/>
        <path id="Path_11196" data-name="Path 11196" d="M1680.76,1059.064l1.03-13.546,7.27.957-1.692,14.228-6.954-1.234Z" transform="translate(-1126.717 -701.019)" fill="#ffb27d"/>
        <path id="Path_11197" data-name="Path 11197" d="M1660.451,1084.473l-1.356-4.325a1.263,1.263,0,0,0-1.523-.848c-1.662.438-4.77.886-6.8-1.085a1.251,1.251,0,0,0-1.443-.2l-12.48,6.425a1.267,1.267,0,0,0,.588,2.393l21.813-.128a1.267,1.267,0,0,0,1.259-1.276l0-.586a1.269,1.269,0,0,0-.058-.37" transform="translate(-1097.049 -722.712)" fill="#261a5b"/>
        <path id="Path_11198" data-name="Path 11198" d="M1689.829,741.186a48.794,48.794,0,0,1,6.643,27.713l-8.624,77.216-11.3-1.075.13-106.924Z" transform="translate(-1124.121 -494.906)" fill="#063992"/>
        <path id="Path_11199" data-name="Path 11199" d="M1667.982,573.915s.522,3.53,1.54,7.431,3.466,16.893,2.927,20.3l-27.319-1.056s-.563-14.124.151-17.637a51.582,51.582,0,0,0,.875-8.916Z" transform="translate(-1102.918 -384.809)" fill="#062d66"/>
        <path id="Path_11200" data-name="Path 11200" d="M1669.857,608.595l.453,8.261c.153,2.5,1.779,3.748,4.242,3.576,2.1-.147,4-1.368,4.117-3.473l-1.253-12.317Z" transform="translate(-1119.639 -405.412)" fill="#ffb27d"/>
        <path id="Path_11201" data-name="Path 11201" d="M1670.044,620.876l7.782-6.778-8.155.106Z" transform="translate(-1119.514 -411.752)" fill="#e8945b"/>
        <path id="Path_11202" data-name="Path 11202" d="M1661.546,580.2h0c-3.889.012-7.1-3.05-7.216-6.225l-.229-7.494c-.147-3.979,2.392-7.357,6.365-7.634,4.067-.283,8.806,2.735,9.089,6.8l.118,6.029c.092,4.662-4,7.645-8.128,8.521" transform="translate(-1109.07 -374.692)" fill="#ffb27d"/>
        <path id="Path_11203" data-name="Path 11203" d="M1668.036,595.816h0l-.75-.045a.4.4,0,0,1-.3-.168.626.626,0,0,1-.1-.508l.3-1.368a.062.062,0,0,1,.075-.048.063.063,0,0,1,.048.075l-.3,1.367a.507.507,0,0,0,.08.4.276.276,0,0,0,.2.118l.75.045a.063.063,0,0,1,0,.126" transform="translate(-1117.634 -398.061)" fill="#090329"/>
        <path id="Path_11204" data-name="Path 11204" d="M1678.562,582.645s-1.772-.163-1.8.557c0,0,0,.49,1.543.6s1.951,0,2.1-.455-1.009-.693-1.842-.705" transform="translate(-1124.27 -390.652)" fill="#090329"/>
        <path id="Path_11205" data-name="Path 11205" d="M1656.252,583.01s1.466-.136,1.578.542c0,0,.065.46-1.218.552s-1.7-.076-1.816-.448c-.134-.422.758-.642,1.455-.646" transform="translate(-1109.531 -390.9)" fill="#090329"/>
        <path id="Path_11206" data-name="Path 11206" d="M1667.17,608.2a2.388,2.388,0,0,1-1.6-.659.12.12,0,1,1,.159-.18,2.1,2.1,0,0,0,1.681.584,1.6,1.6,0,0,0,1.379-.926.121.121,0,0,1,.152-.075.12.12,0,0,1,.075.153,1.787,1.787,0,0,1-1.577,1.087,2.147,2.147,0,0,1-.271.017" transform="translate(-1116.738 -406.95)" fill="#090329"/>
        <path id="Path_11207" data-name="Path 11207" d="M1696.227,578.339s-3.614-4.624-3.1-10.314c0,0,6.972.816,6.027,1.844s-2.663,6.5-2.663,6.5Z" transform="translate(-1135.208 -380.86)" fill="#062d66"/>
        <path id="Path_11208" data-name="Path 11208" d="M1664.466,559.833s-4.606-2.214-15.793-3.09c0,0,.233-7.739,9.152-8.549,9.636-.876,14.462,5.76,12.179,13.14l-4.189,1.1-1.043-7.159Z" transform="translate(-1105.434 -367.511)" fill="#062d66"/>
        <path id="Path_11209" data-name="Path 11209" d="M1699.243,591.054a2.04,2.04,0,1,1-2.177-1.893,2.04,2.04,0,0,1,2.177,1.893" transform="translate(-1136.609 -395.028)" fill="#ffb27d"/>
        <path id="Path_11210" data-name="Path 11210" d="M1654.75,591.054a2.04,2.04,0,1,1-2.177-1.893,2.04,2.04,0,0,1,2.177,1.893" transform="translate(-1106.776 -395.028)" fill="#ffb27d"/>
        <path id="Path_11211" data-name="Path 11211" d="M1658.621,590.506a.758.758,0,1,1-.809-.7.758.758,0,0,1,.809.7" transform="translate(-1111.09 -395.461)" fill="#090329"/>
        <path id="Path_11212" data-name="Path 11212" d="M1677.282,589.974a.758.758,0,1,1-.808-.7.758.758,0,0,1,.808.7" transform="translate(-1123.602 -395.104)" fill="#090329"/>
        <path id="Path_11213" data-name="Path 11213" d="M1550.359,694.63l-1.76,2.338a2.431,2.431,0,0,1-.777-.154c-.326-.09-.646-.188-.718-.206q-.724-.177-1.443-.36c-.487-.122-.969-.247-1.455-.371q-.6-.157-1.209-.317-1.617-.432-3.232-.883a17.642,17.642,0,0,0-2.927-.655,2.038,2.038,0,0,1-.421-.081c-.066-.023-.129-.057-.195-.077a.363.363,0,0,1-.161-.07.264.264,0,0,1-.065-.22.327.327,0,0,1,.24-.344,5.415,5.415,0,0,1,1.889-.184c.333.009.664.029,1,.034.122,0,.285.007.448,0h0a1,1,0,0,0,.573-.131c.229-.131-.725-.358-1.712-.555-.512-.1-1.035-.2-1.4-.27-.539-.1-1.368-.131-1.907-.229-.369-.068-.58-.068-.686-.451-.166-.586.176-.759.786-.772l.349,0,4.811-.059-5.013-2.412c-.394-.209-.63-.383-.483-.8.177-.5.6-.376,1.078-.156a22.976,22.976,0,0,0,4.834,1.533c.374-.054-2.077-1.726-3.3-2.543a.756.756,0,0,1-.183-1.083c.238-.317,1.015.082,1.348.3l7.688,4.209-.723-2.385,2.22,1.338a20.508,20.508,0,0,1,2.442,4.789c.294,1.008.07,1.234.07,1.234" transform="translate(-1028.812 -459.311)" fill="#ffb27d"/>
        <path id="Path_11214" data-name="Path 11214" d="M1642.273,660.949s-2.218,14.278-6.4,25.7a5.783,5.783,0,0,1-7.233,3.535c-2.706-.89-2.8-4.265-2.325-7.075l4.361-21.751Z" transform="translate(-1090.299 -443.166)" fill="#458fd8"/>
        <path id="Path_11215" data-name="Path 11215" d="M1598.181,707.352l-24.938-5.238-.617,6.314,20.328,9.366Z" transform="translate(-1054.446 -470.766)" fill="#458fd8"/>
        <path id="Path_11216" data-name="Path 11216" d="M1660.71,640.381s2.211-.107,9.157,4.225l-4.577,30.345-21.82-.365-3.383-25.592a4.164,4.164,0,0,1,1.708-4.538l5.21-2.871,3.687-1.937h2.488l3.26-.318Z" transform="translate(-1099.582 -428.671)" fill="#479bff"/>
        <path id="Path_11217" data-name="Path 11217" d="M1714.928,664.595c0,10.919-1.389,20.007-4.474,20.007-5.587,0-5.587-8.852-5.587-19.771s2.5-12.22,5.587-12.22,4.474,1.066,4.474,11.985" transform="translate(-1143.113 -437.574)" fill="#458fd8"/>
        <path id="Path_11218" data-name="Path 11218" d="M1633.79,699.6s.654-.868-3.679-5.741c-.28-.315-.656-1.391-.941-1.08a.917.917,0,0,0-.168.982l1.035,2.274-6.626-2.553c-.29-.138-.956-.375-1.114-.095a.612.612,0,0,0,.264.849c1.071.525,3.22,1.6,2.925,1.688a18.791,18.791,0,0,1-4.045-.712c-.409-.126-.762-.18-.85.24-.074.354.135.468.473.593l4.286,1.4-4.137.6c-.488.076-.745.25-.549.7.127.295.3.273.6.288.444.021,1.112-.044,1.556-.02.887.049,2.847.129,2.589.328-.1.139-.563.184-.809.214-.267.032-.535.051-.8.079a4.4,4.4,0,0,0-1.5.35.267.267,0,0,0-.157.3.213.213,0,0,0,.077.171.312.312,0,0,0,.137.039c.055.009.108.03.163.04a1.658,1.658,0,0,0,.349.021,14.114,14.114,0,0,1,2.419.211q1.345.191,2.691.361,1.106.14,2.212.268.6.069,1.2.133a6.89,6.89,0,0,0,1.24.129Z" transform="translate(-1086.596 -464.473)" fill="#ffb27d"/>
        <path id="Path_11219" data-name="Path 11219" d="M1681.2,707.352l-24.938-5.238-.617,6.314,20.983,9.294Z" transform="translate(-1110.107 -470.766)" fill="#458fd8"/>
        <path id="Path_11220" data-name="Path 11220" d="M1670.738,639l5.357,1.847a12.051,12.051,0,0,1-10.48,4.876c-6.135-.512-6.448-3.958-6.448-3.958l4.412-2.337Z" transform="translate(-1112.471 -428.446)" fill="#ffb27d"/>
        <path id="Path_11221" data-name="Path 11221" d="M1545.479,684.774l-1.269,1.758-2.467,3.418-.224.313a.781.781,0,0,1-1.024.177l-2.367-1.427-4.634-2.8h0l-1.137-.686-2.861-1.726-3.821-2.3a.64.64,0,0,1-.227-.929l3.962-5.491a.782.782,0,0,1,1.024-.174l9.117,5.5,2.22,1.339,3.484,2.1a.639.639,0,0,1,.227.929" transform="translate(-1022.733 -452.447)" fill="#090329"/>
        <path id="Path_11222" data-name="Path 11222" d="M1564.122,690.969l-2.221-1.338-.581.112a1.135,1.135,0,0,0-.866.873c-.11.509,1.242.115,1.758.172.693.075,1.326.134,1.909.18" transform="translate(-1046.279 -462.398)" fill="#ffb27d"/>
        <path id="Path_11223" data-name="Path 11223" d="M1345.546,1042.075l-1.032-13.555-7.274.958,1.693,14.237,6.959-1.234Z" transform="translate(-896.619 -689.622)" fill="#ffb27d"/>
        <path id="Path_11224" data-name="Path 11224" d="M1419.357,1045.537l-1.031-13.555-7.275.958,1.693,14.237,6.959-1.234Z" transform="translate(-946.109 -691.943)" fill="#ffb27d"/>
        <path id="Path_11225" data-name="Path 11225" d="M1407.539,1075.417l1.447-5.436a1.251,1.251,0,0,1,1.541-1.045c1.654.581,4.754,1.2,6.823-1.256a1.061,1.061,0,0,1,1.448-.228l12.352,8.317a1.69,1.69,0,0,1,.663,1.444,1.457,1.457,0,0,1-1.3,1.567l-21.821-.524a1.468,1.468,0,0,1-1.233-1.631l.016-.741a1.967,1.967,0,0,1,.066-.466" transform="translate(-943.699 -715.597)" fill="#0b0635"/>
        <path id="Path_11226" data-name="Path 11226" d="M1408.115,629.256l6.352,25.156a6.247,6.247,0,0,0,6.279,4.662,5.879,5.879,0,0,0,5.683-6.725l-4.825-25.485Z" transform="translate(-944.14 -420.312)" fill="#ffb27d"/>
        <path id="Path_11227" data-name="Path 11227" d="M1403.166,599.11l4.079,11.857,17.425-6.323-6.557-11.8c-1.655-3.164-5.006-4.688-9.279-4.568l.589.341a8.133,8.133,0,0,0-6.257,10.5" transform="translate(-940.556 -394.431)" fill="#063992"/>
        <path id="Path_11228" data-name="Path 11228" d="M1429.684,660.22c10.4-6.37,24.938-13.634,24.938-13.634l5.44,5.133-22.614,19.193a6.626,6.626,0,1,1-7.764-10.691" transform="translate(-956.481 -433.535)" fill="#ffb27d"/>
        <path id="Path_11229" data-name="Path 11229" d="M1413.6,524.44a2.7,2.7,0,0,0,2.576,2.8,2.672,2.672,0,0,0,2.707-2.653,2.7,2.7,0,0,0-2.578-2.8,2.671,2.671,0,0,0-2.705,2.653" transform="translate(-947.817 -349.857)" fill="#ffb27d"/>
        <path id="Path_11230" data-name="Path 11230" d="M1387.013,548.1l.453,9.041c.158,3.054-1.89,4.416-5.265,4.511-2.881.081-6.1-1.007-6.111-3.7l.061-13.71Z" transform="translate(-922.668 -364.909)" fill="#ffb27d"/>
        <path id="Path_11231" data-name="Path 11231" d="M1376.534,567.047l10.81-7.676c.155-2.6-11-1.846-11-1.846l-.042,9.034Z" transform="translate(-922.808 -373.751)" fill="#e8945b"/>
        <path id="Path_11232" data-name="Path 11232" d="M1382.775,491.034l.12,8.835,0,.279c.035,4.356-2.282,8.5-7.442,8.707-6.192-.175-12.894-4.57-13.05-10.963l-.116-4.5-.067-2.6c.125-5.3,5.021-9.507,10.138-9.8.281-.016.566-.021.848-.012a10.011,10.011,0,0,1,9.565,10.06" transform="translate(-913.371 -322.49)" fill="#ffb27d"/>
        <path id="Path_11233" data-name="Path 11233" d="M1385.991,514.575s2.788-.536,2.892.275c0,0,.055.551-1.622.834s-3,.374-3.206-.128,1.029-.883,1.936-.982" transform="translate(-927.993 -344.905)" fill="#090329"/>
        <path id="Path_11234" data-name="Path 11234" d="M1412.782,514.241s2.269.093,2.19.906c0,0,.1.55-1.388.461-1.7-.1-2.347-.271-2.437-.807s.729-.666,1.635-.561" transform="translate(-946.169 -344.775)" fill="#090329"/>
        <path id="Path_11235" data-name="Path 11235" d="M1414.82,524.212a.851.851,0,1,0,.837-.865.851.851,0,0,0-.837.865" transform="translate(-948.636 -350.903)" fill="#090329"/>
        <path id="Path_11236" data-name="Path 11236" d="M1390.694,525.514a.852.852,0,1,0,.908-.789.851.851,0,0,0-.908.789" transform="translate(-932.458 -351.826)" fill="#090329"/>
        <path id="Path_11237" data-name="Path 11237" d="M1409.076,533.516a.12.12,0,0,1-.057-.226l.72-.387a.226.226,0,0,0,.036-.284l-.849-1.527a.12.12,0,1,1,.21-.117l.846,1.521a.465.465,0,0,1-.095.6.1.1,0,0,1-.021.015l-.733.393a.12.12,0,0,1-.057.014m.732-.513h0Z" transform="translate(-944.673 -355.977)" fill="#090329"/>
        <path id="Path_11238" data-name="Path 11238" d="M1333.018,1075.4v-2.374c0-2.736,2.749-7.7,2.749-9.522,0-1.486,5.041.432,6.91,1.194a1.224,1.224,0,0,1,.761.906,8.914,8.914,0,0,0,2.54,4.686,6.477,6.477,0,0,1,1.827,3.761,1.247,1.247,0,0,1-1.3,1.348Z" transform="translate(-893.788 -712.712)" fill="#0b0635"/>
        <path id="Path_11239" data-name="Path 11239" d="M1372.117,475.325c-.441-.5-3.967-1.754-4.358-1.848a15.52,15.52,0,0,0-5.277-.346c-3.377.359-6.919,1.7-7.572,5.422-.376,2.148-.74,4.4-.914,5.993a.665.665,0,0,1-.234.433c-.553.473-1.236,2.077,1.131,7.211.275.6-1.031,1.38-1.593,1.042-1.8-1.081-4.564-4.1-5.721-12.552-1.324-9.664,3.77-10.959,5.271-11.132a.671.671,0,0,0,.546-.4c.523-1.243,2.678-5.164,9.219-5.729a11.21,11.21,0,0,1,9.173,3.2,7.311,7.311,0,0,1,1.888,3.55c.352,1.84-.6,3.649-1.3,5.306.039-.056-.182-.068-.253-.147" transform="translate(-903.405 -310.688)" fill="#062d66"/>
        <path id="Path_11240" data-name="Path 11240" d="M1404,750.489s4.48,8.029,5.477,43.492c1,35.585-.459,57.3-.459,57.3l-15.866.015-6.9-98.7,4.286-3.448Z" transform="translate(-929.482 -502.305)" fill="#f4932a"/>
        <path id="Path_11241" data-name="Path 11241" d="M1327.142,751.479s-2.621,2.92-2.293,19.861c.4,20.9,1.442,77.615,1.442,77.615l15.582.955,12.242-98.431-12.622-2.734Z" transform="translate(-888.292 -502.034)" fill="#ffaa45"/>
        <path id="Path_11242" data-name="Path 11242" d="M1357.955,527.825a1.991,1.991,0,0,0,1.9,2.065,1.969,1.969,0,0,0,2-1.956,1.99,1.99,0,0,0-1.9-2.065,1.969,1.969,0,0,0-1.994,1.956" transform="translate(-910.508 -352.594)" fill="#ffb27d"/>
        <path id="Path_11243" data-name="Path 11243" d="M1399.7,547.952a1.368,1.368,0,0,1-1.15-.477,2.637,2.637,0,0,1-.13-2.1.119.119,0,0,1,.152-.076l.006,0a.116.116,0,0,1,.054-.008.12.12,0,0,1,.105.088,3.93,3.93,0,0,0,3.982.49.12.12,0,0,1,.163.155,3.518,3.518,0,0,1-3,1.917c-.062,0-.122.006-.18.006m-1.092-2.357a2.232,2.232,0,0,0,.132,1.734,1.233,1.233,0,0,0,1.124.378,3.317,3.317,0,0,0,2.629-1.473,4.248,4.248,0,0,1-3.709-.5,1.653,1.653,0,0,1-.175-.135" transform="translate(-937.527 -365.62)" fill="#090329"/>
        <path id="Path_11244" data-name="Path 11244" d="M1353.539,588.272l-22.856-.007c-3.37,0-.574,2.55-.927,5.9l-6.517,54.006,41.37.268-4.508-54.16a6.588,6.588,0,0,0-6.561-6.009" transform="translate(-887.23 -394.431)" fill="#063992"/>
        <path id="Path_11245" data-name="Path 11245" d="M1366.232,616.124a21.308,21.308,0,0,1,.389-3.655,16.511,16.511,0,0,1,2.335-3.654s.261-.171.454.305c.3.739-1.138,1.752-.571,2.75s-2.608,4.253-2.608,4.253" transform="translate(-916.058 -408.19)" fill="#ffb27d"/>
        <path id="Path_11246" data-name="Path 11246" d="M1367.565,617.952s-5.137-2.242-5.27-4.213c0,0,2.029-4.649,2.447-6.135.46-1.631,3.9-6.038,5.157-6.346,3.33-.82,3.342-.628,3.455.164s-2.265.86-2.845,1.444a11.793,11.793,0,0,0-.911,2.149,3.246,3.246,0,0,1,2.55-1.459c1.258.092,2.39.057,2.652.661.47,1.091-2.459.825-2.708,1.514-.09.248-.841,1.718-.841,1.718.491-.23.985-.9,1.483-1.022.64-.159,3.062-.145,3.081.464.033.949-2.157.859-2.592,1.462-.173.24-.693,1.442-.693,1.442a5.8,5.8,0,0,1,1.436-.6c.506-.043,2.457.283,2.314.68-.375,1.038-2.082.385-3.1,1.532-.846.952-2.042,3.7-3.39,4.3a5.713,5.713,0,0,0-2.223,2.245" transform="translate(-913.418 -402.788)" fill="#ffb27d"/>
        <path id="Path_11247" data-name="Path 11247" d="M1514.828,622.229a34.976,34.976,0,0,1-2.424,4.411c-1,1.339-2.784,5.388.637,7.2s10.431-3.014,10.431-3.014a5.049,5.049,0,0,0,1.5-4.818c1.095-.98.415-3.353.415-3.353l1.181-2.245c-2.533-1.25-2.31,1.408-5.195,3.781-.7.573-2.62.994-3.544,1.363l0,0a18.868,18.868,0,0,1-2.375.767.014.014,0,0,0,0-.009,23.151,23.151,0,0,0,.157-3.491c-.114-1.161-.787-.585-.787-.585" transform="translate(-1013.152 -415.768)" fill="#ffb27d"/>
        <path id="Path_11248" data-name="Path 11248" d="M1381.882,491.139c.1.324-1.425,1.416-8.1,1.416s-9.758,3.829-11.055,4.508-1.915-3.4,0-5.435,7.295-5.064,10.1-4.694,7.694-.177,9.049,4.2" transform="translate(-912.896 -326.468)" fill="#062d66"/>
        <path id="Path_11249" data-name="Path 11249" d="M1366.685,579.525l5.806,2.971v3.038l-10.33-3Z" transform="translate(-913.328 -388.571)" fill="#063992"/>
        <path id="Path_11250" data-name="Path 11250" d="M1398.357,579.525l-6.141,3.268v3.342l10.926-3.3Z" transform="translate(-933.48 -388.571)" fill="#063992"/>
        <path id="Path_11251" data-name="Path 11251" d="M1308.489,628.863l-2.333,18.85c0,2.72-.4,8.682,1.788,10.247l1.926,1.314c3.177-4.012,4.178-2.714,5.281-5.961l3.381-23.425-9.7-3.548Z" transform="translate(-875.758 -419.961)" fill="#ffb27d"/>
        <path id="Path_11252" data-name="Path 11252" d="M1312.613,592.6l-5.31,11.517,16.756,5.742,2.995-9.9a8.134,8.134,0,0,0-14.44-7.364" transform="translate(-876.546 -394.763)" fill="#063992"/>
        <path id="Path_11253" data-name="Path 11253" d="M1308.327,661.336c5.729-7.835,17.095-21.119,17.095-21.119l5.914,3.353-14.148,23.353a5.21,5.21,0,0,1-7.961,1.656,5.329,5.329,0,0,1-.9-7.243" transform="translate(-876.545 -429.265)" fill="#ffb27d"/>
        <path id="Path_11254" data-name="Path 11254" d="M631.281,553.029s-12.081-5.094-17.3,2.091c-3.79,5.214-4.01,14.911,2.844,18.586,6.529,3.5,7.164-19.019,7.164-19.019Z" transform="translate(-409.907 -369.631)" fill="#062d66"/>
        <path id="Path_11255" data-name="Path 11255" d="M634.464,615.76l-1.409,7.2c-.49,2.531-2.311,3.581-4.8,3.08-2.122-.428-3.9-1.926-3.734-4.086l2.763-11.226Z" transform="translate(-418.736 -409.493)" fill="#ffb27d"/>
        <path id="Path_11256" data-name="Path 11256" d="M638.9,625.355l-5.974-8.959,7.178,3.224-1.075,5.1Z" transform="translate(-424.377 -413.293)" fill="#e8945b"/>
        <path id="Path_11257" data-name="Path 11257" d="M631.347,583.229h0c4.29.566,8.245-2.108,8.8-5.341l1.262-7.635a7.837,7.837,0,0,0-6.548-8.791c-4.45-.87-9.534,1.613-10.393,5.734l-.943,6.152c-.729,4.759,2.731,8.886,7.821,9.881" transform="translate(-418.009 -376.344)" fill="#ffb27d"/>
        <path id="Path_11258" data-name="Path 11258" d="M624.153,573.744,619.894,579l-4.9-7.492Z" transform="translate(-412.356 -383.196)" fill="#062d66"/>
        <path id="Path_11259" data-name="Path 11259" d="M619.671,588.4a2.016,2.016,0,1,0,2.376-1.578,2.016,2.016,0,0,0-2.376,1.578" transform="translate(-415.462 -393.436)" fill="#ffb27d"/>
        <path id="Path_11260" data-name="Path 11260" d="M658.921,602.843h-.04l-.646-.048a.061.061,0,0,1-.056-.065.063.063,0,0,1,.065-.056l.646.048a.38.38,0,0,0,.295-.1.39.39,0,0,0,.128-.285l.023-1.657a.061.061,0,0,1,.061-.059.06.06,0,0,1,.06.061l-.023,1.657a.515.515,0,0,1-.513.508" transform="translate(-441.309 -402.713)" fill="#090516"/>
        <path id="Path_11261" data-name="Path 11261" d="M646.113,586.379s1.874-.085,1.862.7c0,0-.022.531-1.656.572s-2.052-.1-2.182-.6,1.1-.7,1.976-.67" transform="translate(-431.887 -393.164)" fill="#090516"/>
        <path id="Path_11262" data-name="Path 11262" d="M668.587,588.055s-1.515-.337-1.723.382c0,0-.13.488,1.2.753s1.786.137,1.959-.25c.194-.439-.71-.791-1.437-.886" transform="translate(-447.13 -394.237)" fill="#090516"/>
        <path id="Path_11263" data-name="Path 11263" d="M669.546,595.325a.784.784,0,1,0,.825-.768.8.8,0,0,0-.825.768" transform="translate(-448.93 -398.649)" fill="#090516"/>
        <path id="Path_11264" data-name="Path 11264" d="M648.275,593.359a.785.785,0,1,0,.825-.768.8.8,0,0,0-.825.768" transform="translate(-434.667 -397.331)" fill="#090516"/>
        <path id="Path_11265" data-name="Path 11265" d="M650.943,614.451h0c-1.456,0-2.341-2.175-2.378-2.267a.06.06,0,0,1,.076-.08l3.891,1.355a.061.061,0,0,1,.025.1,2.256,2.256,0,0,1-1.614.895m-2.211-2.187c.213.466,1.031,2.066,2.211,2.066a2.079,2.079,0,0,0,1.462-.787Z" transform="translate(-434.86 -410.413)" fill="#090516"/>
        <path id="Path_11266" data-name="Path 11266" d="M639.771,555.565s5.964,1.851,3.653,9.78a.274.274,0,0,1-.336.186l-2.92-.822a.272.272,0,0,1-.2-.26l-.017-2.276a.272.272,0,0,0-.514-.121l-1.171,2.305a.272.272,0,0,1-.277.146l-12.766-1.665a.271.271,0,0,1-.233-.226l-.98-6.013a.272.272,0,0,1,.213-.31l5.881-1.225a.272.272,0,0,1,.07-.005Z" transform="translate(-418.397 -372.166)" fill="#062d66"/>
        <path id="Path_11267" data-name="Path 11267" d="M749.95,771.932l6.276,1.912s4.183,3.477,3.727,5.571a6.956,6.956,0,0,1-3.195,3.945,1.034,1.034,0,0,1-1.523-.664,9.518,9.518,0,0,0-1.683-3.9s-5.379-.287-7.061-2.515c-.856-1.133-.781-6.516-.781-6.516Z" transform="translate(-499.997 -516.129)" fill="#ffb27d"/>
        <path id="Path_11268" data-name="Path 11268" d="M593.242,1045.272l-.233-15.809-8.024-.427.221,16.98,7.739.05Z" transform="translate(-392.232 -689.968)" fill="#f8bd8c"/>
        <path id="Path_11269" data-name="Path 11269" d="M576.665,1077.449l1.632-4.229a1.263,1.263,0,0,1,1.574-.749c1.63.544,4.7,1.192,6.852-.645a1.252,1.252,0,0,1,1.453-.107l12.04,7.216a1.267,1.267,0,0,1-.74,2.351l-21.759-1.533a1.267,1.267,0,0,1-1.175-1.354l.042-.585a1.27,1.27,0,0,1,.082-.366" transform="translate(-386.569 -718.465)" fill="#062d66"/>
        <path id="Path_11270" data-name="Path 11270" d="M681.624,1050.584l-2.113-15.669-8.018.531,2.241,16.833,7.69-.872Z" transform="translate(-450.236 -693.91)" fill="#f8bd8c"/>
        <path id="Path_11271" data-name="Path 11271" d="M670.6,1082.91l1.117-4.393a1.263,1.263,0,0,1,1.474-.93c1.684.346,4.811.623,6.726-1.456a1.251,1.251,0,0,1,1.43-.279l12.813,5.732a1.267,1.267,0,0,1-.455,2.422l-21.786,1.067a1.266,1.266,0,0,1-1.328-1.2l-.028-.586a1.259,1.259,0,0,1,.037-.373" transform="translate(-449.612 -721.283)" fill="#062d66"/>
        <path id="Path_11272" data-name="Path 11272" d="M645.3,536.92a4.524,4.524,0,1,1-3.974-5.013,4.524,4.524,0,0,1,3.974,5.013" transform="translate(-426.623 -356.623)" fill="#062d66"/>
        <path id="Path_11273" data-name="Path 11273" d="M653.691,689.46l7.942-2.424,1.05,10.936a3.726,3.726,0,0,1-3.275,4.015l-.071.011a4.155,4.155,0,0,1-4.714-3.333Z" transform="translate(-438.299 -460.657)" fill="#ffb27d"/>
        <path id="Path_11274" data-name="Path 11274" d="M688.943,725.977,661.3,701.542s-2.68,2.868-4.1,4.244a3.46,3.46,0,0,0,.088,5.046l28.883,19.127,1.49-3.981Z" transform="translate(-439.951 -470.383)" fill="#ffb27d"/>
        <path id="Path_11275" data-name="Path 11275" d="M622.827,784.05l8.75,55.4h17.366c-1-8.178-6.187-49.476-8.4-62.7-5.889-35.133-9.642-43.577-9.642-43.577l-13.073-2.349-1.444,2.108,11.306.353Z" transform="translate(-413.284 -490.021)" fill="#063992"/>
        <path id="Path_11276" data-name="Path 11276" d="M586.26,736.909l-5.048-.157s-8.613,9.19-9.064,26.19c-.3,11.34-.92,63.95-.6,80.481H589.4l3.3-55.4,4.861-50.758Z" transform="translate(-383.162 -493.992)" fill="#063992"/>
        <path id="Path_11277" data-name="Path 11277" d="M601.157,646.756l-12.433,1.739a2.566,2.566,0,0,0-2.172,2.99l4.307,25.323H610.87l5.219-24.324a3.815,3.815,0,0,0-3.342-4.465Z" transform="translate(-393.256 -433.649)" fill="#062d66"/>
        <path id="Path_11278" data-name="Path 11278" d="M537.1,667.686l3.606,8.9s-11.97,3.513-14.423,5.062a17.95,17.95,0,0,0-2.184,1.722,6.246,6.246,0,0,1-1.774,1.29,1.2,1.2,0,0,1-1.466-.463,6.67,6.67,0,0,1-1.343-4.865c.29-1.979,2.454-3.044,3.919-4.28Z" transform="translate(-348.298 -447.683)" fill="#ffb27d"/>
        <path id="Path_11279" data-name="Path 11279" d="M569.179,652.653a6.452,6.452,0,0,1,8.5,2.117c1.994,3.041,2.871,7.427-.228,9.33-2.219,1.363-12.491,4.7-12.491,4.7l-4.512-12.494Z" transform="translate(-375.782 -437.067)" fill="#062d66"/>
        <path id="Path_11280" data-name="Path 11280" d="M542.4,718.334,529.33,701.041a4.693,4.693,0,0,0-6.293-.606c-1.932,1.472-1.539,4.272.206,5.914L538.5,720.928Z" transform="translate(-349.835 -469.014)" fill="#ffb27d"/>
        <path id="Path_11281" data-name="Path 11281" d="M619,636.294a1.857,1.857,0,1,1-1.857-1.857A1.857,1.857,0,0,1,619,636.294" transform="translate(-412.549 -425.389)" fill="#479bff"/>
        <path id="Path_11282" data-name="Path 11282" d="M614.13,642.845s.12,1.962-1.4,2.563a7.322,7.322,0,0,1-2.4.6,4.679,4.679,0,0,1,.8-2.879c.881-.916,3-.284,3-.284" transform="translate(-409.222 -430.885)" fill="#479bff"/>
        <path id="Path_11283" data-name="Path 11283" d="M648.772,655.523a4.75,4.75,0,0,1,9.285-1.994,71.33,71.33,0,0,1,1.058,8.634l-9.776,2.984Z" transform="translate(-434.945 -435.749)" fill="#062d66"/>
        <path id="Path_11284" data-name="Path 11284" d="M584.369,755.44l-3.585-3.585a1.255,1.255,0,0,1,0-1.775l9.016-9.016a1.255,1.255,0,0,1,1.775,0l3.585,3.585a1.256,1.256,0,0,1,0,1.775l-9.016,9.016a1.255,1.255,0,0,1-1.775,0" transform="translate(-389.169 -496.637)" fill="#479bff"/>
        <path id="Path_11285" data-name="Path 11285" d="M587.309,751.34l-5.066-2.975.692-.957a.809.809,0,0,0-.127-1.1,1.2,1.2,0,0,0-1.31-.167l-5.662,2.782-4,3.169c2.6,2.478,4.523,2.669,5.694,2.38.122.051.244.106.37.153l4.345,1.618a.964.964,0,0,0,1.161-.216c.188-.235.3-.632-.509-1.108l.811.476a1,1,0,0,0,1.219-.242c.245-.306.076-.766-.391-1.107l.63.3a1.01,1.01,0,0,0,1.3-.321.754.754,0,0,0-.345-1.031l-.9-.523,1.1.365a1.084,1.084,0,0,0,1.368-.4.821.821,0,0,0-.387-1.09" transform="translate(-383.412 -500.207)" fill="#ffb27d"/>
        <path id="Path_11286" data-name="Path 11286" d="M618.542,636.162s-2.526.476-3.256.663c0,0,2.253,5.5,9.572,4.974,8.3-.594,3.406-5.808,3.406-5.808l-3.165-.551Z" transform="translate(-412.549 -426.062)" fill="#479bff"/>
        <path id="Path_11287" data-name="Path 11287" d="M333.24,1056.524l2.991-16.549,9.131,1.2-2.125,17.872L334.5,1057.5l.434-.51Z" transform="translate(-223.437 -697.303)" fill="#ffb27d"/>
        <path id="Path_11288" data-name="Path 11288" d="M455.779,1018.474l-9.556-13.838,7.319-5.59,11.1,14.164-7.283,5.065-.052-.668Z" transform="translate(-299.192 -669.859)" fill="#ffb27d"/>
        <path id="Path_11289" data-name="Path 11289" d="M472.02,1034.816l-5.04-2.648a1.586,1.586,0,0,0-2.107.594c-1.092,1.863-3.461,5.016-7.011,5.057a1.572,1.572,0,0,0-1.461,1.1l-5.415,16.779a1.591,1.591,0,0,0,2.644,1.61l19.3-19.445a1.591,1.591,0,0,0-.009-2.251l-.524-.519a1.6,1.6,0,0,0-.38-.278" transform="translate(-302.334 -691.944)" fill="#063992"/>
        <path id="Path_11290" data-name="Path 11290" d="M348.112,778.1a123.131,123.131,0,0,0,3.75,45.65l27.439,45.2,16.474-13.864-25-41.667-3.7-35.319Z" transform="translate(-232.969 -521.715)" fill="#062d66"/>
        <path id="Path_11291" data-name="Path 11291" d="M365.553,778.1s.278,9.629-4.371,24.646-18.032,72.678-18.032,72.678l-19.427-1.151L341.676,778.1Z" transform="translate(-217.056 -521.715)" fill="#063992"/>
        <path id="Path_11292" data-name="Path 11292" d="M334.377,602.682s-6.835.431-11.394,21.852l14.975,5.07Z" transform="translate(-216.56 -404.098)" fill="#ffaa45"/>
        <path id="Path_11293" data-name="Path 11293" d="M364.257,590.682l-12.135,3.954-2.674,57.8,34.348.358,2.332-23.259-3.326-34.9-13.142-3.954Z" transform="translate(-234.304 -396.052)" fill="#ffaa45"/>
        <path id="Path_11294" data-name="Path 11294" d="M399.039,558.381l-.146,9.79c-.044,3.306-2.039,4.667-5.191,4.587-2.691-.069-5.627-1.418-5.465-4.333l.916-14.806Z" transform="translate(-260.309 -371.202)" fill="#ffb27d"/>
        <path id="Path_11295" data-name="Path 11295" d="M388.461,575.623l10.764-8.713c.146-2.819-10.276-2-10.276-2l-.487,9.885Z" transform="translate(-260.463 -378.699)" fill="#e8945b"/>
        <path id="Path_11296" data-name="Path 11296" d="M377.2,529.772h0c-4.985,1.193-10.062-1.891-11.2-6.061l-2.343-8.74a9.934,9.934,0,0,1,6.418-12.193c5.129-1.607,11.511,1.106,13.146,6.409l1.745,6.832a11.278,11.278,0,0,1-7.762,13.753" transform="translate(-243.577 -336.804)" fill="#ffb27d"/>
        <path id="Path_11297" data-name="Path 11297" d="M394.406,534.262s-2.8.306-2.673,1.075c0,0,.1.517,1.774.3s2.954-.514,3.013-1.03-1.224-.512-2.115-.345" transform="translate(-262.654 -358.155)" fill="#221344"/>
        <path id="Path_11298" data-name="Path 11298" d="M370.671,536.552s-2.241.256-2.1,1.056c0,0-.063.552,1.41.355,1.673-.223,2.3-.44,2.352-.976s-.77-.607-1.659-.436" transform="translate(-247.12 -359.702)" fill="#221344"/>
        <path id="Path_11299" data-name="Path 11299" d="M372.895,507.326l-2.054-7.848s-3.613,3.292-6.193,1.758-6.393,1.414-6.393,1.414-6.55,4.312-8.478.94-.608-10.332,6.9-12.385c6.18-1.691,13.877-.559,18.044,1.571a5.63,5.63,0,0,1,2.843,4.312c.775,4.695-.428,9.3-2.04,11.455Z" transform="translate(-233.992 -328.803)" fill="#062d66"/>
        <path id="Path_11300" data-name="Path 11300" d="M424.865,540.214a2.592,2.592,0,0,1-1.648,3.26,2.565,2.565,0,0,1-3.193-1.743,2.593,2.593,0,0,1,1.649-3.26,2.565,2.565,0,0,1,3.192,1.744" transform="translate(-281.546 -360.968)" fill="#ffb27d"/>
        <path id="Path_11301" data-name="Path 11301" d="M369.544,551.2a2.592,2.592,0,0,1-1.648,3.26,2.565,2.565,0,0,1-3.193-1.743,2.594,2.594,0,0,1,1.649-3.261,2.565,2.565,0,0,1,3.192,1.744" transform="translate(-244.453 -368.331)" fill="#ffb27d"/>
        <path id="Path_11302" data-name="Path 11302" d="M461.226,659.552l1.589,17.044c.243,2.643,1.161,8.4-.82,10.117l-1.754,1.45a37.369,37.369,0,0,1-7.233-10.074l-3.814-17.707,11.552-4.316Z" transform="translate(-301.184 -439.892)" fill="#ffb27d"/>
        <path id="Path_11303" data-name="Path 11303" d="M424.577,706.207c-8.674-3.8-24.775-9.447-24.775-9.447l-3.348,5.728,23.382,12.776a5.083,5.083,0,0,0,7.529-2.5,5.2,5.2,0,0,0-2.788-6.555" transform="translate(-265.822 -467.177)" fill="#ffb27d"/>
        <path id="Path_11304" data-name="Path 11304" d="M447.356,602.682s9.215,2.054,12.4,20.054l-13.617,4.976-.412-9.679Z" transform="translate(-298.859 -404.098)" fill="#ffaa45"/>
        <path id="Path_11305" data-name="Path 11305" d="M379.308,689.76l-5.766-3.132s-5.412-.542-6.584,1.252a6.958,6.958,0,0,0-.57,5.044,1.033,1.033,0,0,0,1.542.619,9.519,9.519,0,0,1,3.958-1.534s3.978,3.632,6.746,3.268c1.408-.185,5.191-4.015,5.191-4.015Z" transform="translate(-245.511 -460.332)" fill="#ffb27d"/>
        <path id="Path_11306" data-name="Path 11306" d="M387.808,710.768H368.842v-2.14h18.966a1.07,1.07,0,0,1,0,2.14" transform="translate(-247.308 -475.134)" fill="#479bff"/>
        <path id="Path_11307" data-name="Path 11307" d="M375.394,545.55a.83.83,0,1,1-.98-.648.83.83,0,0,1,.98.648" transform="translate(-250.599 -365.345)" fill="#221344"/>
        <path id="Path_11308" data-name="Path 11308" d="M398.655,541.71a.831.831,0,1,1-1.032-.561.831.831,0,0,1,1.032.561" transform="translate(-266.206 -362.817)" fill="#221344"/>
        <path id="Path_11309" data-name="Path 11309" d="M384.287,552.923l-.781-.22a.115.115,0,0,1-.023-.01.457.457,0,0,1-.217-.553l.486-1.627a.12.12,0,0,1,.23.069l-.488,1.634a.218.218,0,0,0,.092.26l.767.216a.12.12,0,1,1-.065.231m-.75-.335h0Z" transform="translate(-256.962 -369.06)" fill="#221344"/>
        <path id="Path_11310" data-name="Path 11310" d="M390.083,572a8.773,8.773,0,0,0,1.863-.642.12.12,0,0,0,.057-.16c-.028-.06-.094-.053-.16-.057-3.283-.182-3.607.3-3.681.751,0,.03-.006.082-.012.148a.12.12,0,0,0,.108.131,6.464,6.464,0,0,0,1.825-.171" transform="translate(-260.254 -382.925)" fill="#221344"/>
        <path id="Path_11311" data-name="Path 11311" d="M340.66,715.122h8.648s-1.179,1.749-7.632,1.036Z" transform="translate(-228.412 -479.488)" fill="#ffb27d"/>
        <path id="Path_11312" data-name="Path 11312" d="M337.916,670.813H312.208a3.043,3.043,0,0,1-2.933-2.227l-1.538-5.523-.744-2.674-.751-2.695-.041-.15-.81-2.91-1.186-4.264a1.049,1.049,0,0,1,1.009-1.331h26.011a1.247,1.247,0,0,1,1.209.934Z" transform="translate(-203.944 -435.18)" fill="#479bff"/>
        <path id="Path_11313" data-name="Path 11313" d="M312.281,1088.489l-1.7-5.433a1.587,1.587,0,0,0-1.913-1.065c-2.088.55-5.991,1.113-8.536-1.363a1.571,1.571,0,0,0-1.812-.251l-15.676,8.07a1.591,1.591,0,0,0,.737,3.006l27.4-.161a1.591,1.591,0,0,0,1.582-1.6l0-.737a1.6,1.6,0,0,0-.073-.465" transform="translate(-188.932 -724.272)" fill="#063992"/>
        <path id="Path_11314" data-name="Path 11314" d="M275.357,496.423h13.29V489.7a1.01,1.01,0,0,0-1.009-1.01H275.357a1.01,1.01,0,0,0-1.009,1.01v5.714a1.009,1.009,0,0,0,1.009,1.009" transform="translate(-183.95 -327.666)" fill="#fff"/>
        <path id="Path_11315" data-name="Path 11315" d="M311.826,507.3l.01,3.417-2.917-3.407Z" transform="translate(-207.13 -340.146)" fill="#fff"/>
        <path id="Path_11316" data-name="Path 11316" d="M286.111,498.854a.644.644,0,1,1-.645-.642.643.643,0,0,1,.645.642" transform="translate(-190.974 -334.051)" fill="#062d66"/>
        <path id="Path_11317" data-name="Path 11317" d="M294.49,498.826a.644.644,0,1,1-.646-.642.643.643,0,0,1,.646.642" transform="translate(-196.592 -334.032)" fill="#062d66"/>
        <path id="Path_11318" data-name="Path 11318" d="M302.869,498.8a.644.644,0,1,1-.646-.643.644.644,0,0,1,.646.643" transform="translate(-202.21 -334.014)" fill="#062d66"/>
        <path id="Path_11319" data-name="Path 11319" d="M1511.305,465.046h-18.69v-9.455a1.42,1.42,0,0,1,1.419-1.42h17.271a1.42,1.42,0,0,1,1.419,1.42v8.037a1.419,1.419,0,0,1-1.419,1.418" transform="translate(-1000.798 -304.521)" fill="#fff"/>
        <path id="Path_11320" data-name="Path 11320" d="M1492.589,480.346l-.014,4.805,4.1-4.792Z" transform="translate(-1000.771 -322.071)" fill="#fff"/>
        <path id="Path_11321" data-name="Path 11321" d="M1533.173,468.463a.9.9,0,1,0,.907-.9.9.9,0,0,0-.907.9" transform="translate(-1027.992 -313.499)" fill="#062d66"/>
        <path id="Path_11322" data-name="Path 11322" d="M1521.387,468.426a.905.905,0,1,0,.908-.9.9.9,0,0,0-.908.9" transform="translate(-1020.089 -313.474)" fill="#062d66"/>
        <path id="Path_11323" data-name="Path 11323" d="M1509.6,468.389a.905.905,0,1,0,.908-.9.9.9,0,0,0-.908.9" transform="translate(-1012.189 -313.449)" fill="#062d66"/>
        <path id="Path_11324" data-name="Path 11324" d="M763.366,517.6H740.823c-.629,0-1.138-.883-1.138-1.973V502.612c0-1.089.51-1.973,1.138-1.973h22.542c.629,0,1.138.883,1.138,1.973v13.017c0,1.09-.509,1.973-1.138,1.973" transform="translate(-495.958 -335.678)" fill="#fff"/>
        <path id="Path_11325" data-name="Path 11325" d="M755.51,545.271v7.672l8.437-7.672Z" transform="translate(-506.569 -365.604)" fill="#fff"/>
        <path id="Path_11326" data-name="Path 11326" d="M749.754,520.182a.24.24,0,0,1-.133-.44c.078-.052.242-.161,17.552-.04a.24.24,0,0,1,0,.48h0c-6.675-.046-16.757-.087-17.347-.01a.245.245,0,0,1-.068.01" transform="translate(-502.548 -348.422)" fill="#062d66"/>
        <path id="Path_11327" data-name="Path 11327" d="M771.966,533.235H764.7a.24.24,0,0,1,0-.48h7.267a.24.24,0,1,1,0,.48" transform="translate(-512.569 -357.212)" fill="#062d66"/>
        <path id="Path_11328" data-name="Path 11328" d="M206.438,699l12.9-.4a84.074,84.074,0,0,0-.794,13.294,6.777,6.777,0,1,1-13.55.012Z" transform="translate(-137.445 -468.411)" fill="#063992"/>
        <path id="Path_11329" data-name="Path 11329" d="M251.609,693.1l-28.265,10.815a5.643,5.643,0,0,0-2.483,7.78c1.562,2.86,4.435,1.992,7.189.252l25.37-14.023Z" transform="translate(-147.623 -464.72)" fill="#063992"/>
        <path id="Path_11330" data-name="Path 11330" d="M237.507,1052.909l-9.218-.574-1.176-12.575,9.218.575Z" transform="translate(-152.279 -697.159)" fill="#ffb27d"/>
        <path id="Path_11331" data-name="Path 11331" d="M197.915,734.924s2.938,7.442,5.228,43.911c2.309,36.789,3.516,61.143,3.516,61.143l-14.086.228-13.1-102.581,4.361-3.676Z" transform="translate(-120.334 -492.112)" fill="#458fd8"/>
        <path id="Path_11332" data-name="Path 11332" d="M145.445,1047.621l-8.9.3.457-13.332,9.218.575Z" transform="translate(-91.554 -693.689)" fill="#ffb27d"/>
        <path id="Path_11333" data-name="Path 11333" d="M145.608,732.252s-7.963,9.425-9.434,26.81c-1.7,20.054-1.646,77.491-1.646,77.491l12.678.4L164.32,733.547Z" transform="translate(-90.201 -490.974)" fill="#479bff"/>
        <path id="Path_11334" data-name="Path 11334" d="M122.63,674.125l11.008,6.839c-2.956,5.385-5.265,8.205-6.484,11.495-1.372,3.71-4.464,6.54-8.053,4.876a6.778,6.778,0,0,1-3.391-8.786Z" transform="translate(-77.224 -452)" fill="#063992"/>
        <path id="Path_11335" data-name="Path 11335" d="M141.186,641.192a7.358,7.358,0,0,1,8.673-3.037c3.365,1.125,2.816,9.071,1.593,12.4a27.583,27.583,0,0,1-2.85,6.035l-11.163-6.516Z" transform="translate(-92.153 -427.602)" fill="#063992"/>
        <path id="Path_11336" data-name="Path 11336" d="M195.577,549.865s7.331-.228,6.856,8.393c-.307,5.588-1.247,12.92-1.2,16.522.012.9.245,7.445-.652,7.416-5.628-.176-13.991-5.014-23.324-5.135-.329,0-2.307.174-2.4-.141-.432-1.424-.854-10.77-.23-15.884.764-6.269,3.836-10.827,7.28-12.765s10.909-1.4,13.67,1.593" transform="translate(-116.876 -366.853)" fill="#062d66"/>
        <path id="Path_11337" data-name="Path 11337" d="M205.291,553.359s-15.889-7.613-20.958-.467c-3.677,5.185-1.04,15.539,5.761,19.083,6.481,3.377,6.845-18.839,6.845-18.839l5.9,1Z" transform="translate(-122.48 -368.662)" fill="#062d66"/>
        <path id="Path_11338" data-name="Path 11338" d="M211.847,613.35l-1.307,7.119c-.453,2.5-2.236,3.558-4.694,3.093-2.1-.4-3.865-1.854-3.73-3.986l2.593-11.1Z" transform="translate(-135.514 -407.979)" fill="#ffb27d"/>
        <path id="Path_11339" data-name="Path 11339" d="M213.994,620.357s-6.472-2.363-7.43-8.353l8.418,2.987Z" transform="translate(-138.501 -410.348)" fill="#e8945b"/>
        <path id="Path_11340" data-name="Path 11340" d="M207.227,579.134h0c4.183.843,9.11-2.326,9.92-5.808l1.055-7.755a8.264,8.264,0,0,0-5.742-9.9c-4.317-1.181-9.532,1.246-10.714,5.678l-1.43,6.635a9.385,9.385,0,0,0,6.911,11.151" transform="translate(-134.161 -372.377)" fill="#ffb27d"/>
        <path id="Path_11341" data-name="Path 11341" d="M224.03,587.928s1.817-.35,1.909.353c0,0,.049.479-1.538.755s-2.015.212-2.209-.22.979-.785,1.838-.887" transform="translate(-148.965 -394.147)" fill="#0b0635"/>
        <path id="Path_11342" data-name="Path 11342" d="M247.375,589.972s-1.458-.446-1.715.118c0,0-.162.385,1.12.751s1.738.315,1.936.018c.222-.336-.636-.727-1.341-.887" transform="translate(-164.711 -395.463)" fill="#0b0635"/>
        <path id="Path_11343" data-name="Path 11343" d="M218.161,556.6c-.774,1-1.607,1.959-2.467,2.885a14.675,14.675,0,0,1-3.491,2.8,20.163,20.163,0,0,1-2.038.995c-.32.136-3.6,1.574-3.955,1.364s-.955-8.654-.737-8.594,6.832-3.77,6.832-3.77l4.433.441Z" transform="translate(-137.738 -370.302)" fill="#062d66"/>
        <path id="Path_11344" data-name="Path 11344" d="M238.393,553.624c.705.2,7.332,2.286,7.382,8.986,0,.017,0,.034,0,.051l-.064,1.111a.62.62,0,0,1-.743.571l-4.235-.868A6.122,6.122,0,0,1,237.1,561.2c-.428-.559-.753-1.052-.649-1.145a43.307,43.307,0,0,0,.294-5.913.62.62,0,0,1,.668-.611l.864.068a.593.593,0,0,1,.121.021" transform="translate(-158.525 -371.143)" fill="#062d66"/>
        <path id="Path_11345" data-name="Path 11345" d="M210.944,652.161a6.3,6.3,0,0,1,5.942-6.148c3.543-.2,8.687,2.992,7.49,7.45a68.949,68.949,0,0,0-1.42,9.871l-1.754.278-10.813-.24Z" transform="translate(-141.065 -433.145)" fill="#063992"/>
        <path id="Path_11346" data-name="Path 11346" d="M163.23,637.736l11.086,0,7.762,1.383,4.632,2.28a1.99,1.99,0,0,1,1.092,1.992l-.29,2.754s2.9,12.309-1.565,14.848l1.833,10.487-27.641-2.044V645.792c.048-1.495,1.594-8.027,3.09-8.056" transform="translate(-107.374 -427.601)" fill="#063992"/>
        <path id="Path_11347" data-name="Path 11347" d="M245.77,598.384a.817.817,0,0,0,.838.792.808.808,0,0,0,.728-.886.786.786,0,1,0-1.565.094" transform="translate(-164.787 -400.62)" fill="#0b0635"/>
        <path id="Path_11348" data-name="Path 11348" d="M226.719,595.864a.818.818,0,0,0,.838.792.81.81,0,0,0,.729-.887.786.786,0,1,0-1.566.094" transform="translate(-152.014 -398.93)" fill="#0b0635"/>
        <path id="Path_11349" data-name="Path 11349" d="M235.6,605.146a.06.06,0,0,1,0-.121l.647-.026a.394.394,0,0,0,.375-.433l-.167-1.649a.06.06,0,0,1,.054-.066.062.062,0,0,1,.067.054l.167,1.648a.514.514,0,0,1-.491.566l-.647.026Z" transform="translate(-157.927 -404.211)" fill="#090516"/>
        <path id="Path_11350" data-name="Path 11350" d="M211,634.237l.785-2.869-7.618-2.462-2.061,3.78,8.766,1.907Z" transform="translate(-135.513 -421.68)" fill="#063992"/>
        <path id="Path_11351" data-name="Path 11351" d="M196.833,571.984a57.024,57.024,0,0,0-1.318,17.419c.109,1.373-.911,2.861-2.214,2.414a38.723,38.723,0,0,1-3.7-1.871,1.909,1.909,0,0,1-1.019-1.986c.529-3.541,2.085-13.2,3.791-16.689,1.053-2.156,2.18-2.511,3.042-2.327a1.877,1.877,0,0,1,1.441,1.9Z" transform="translate(-126.431 -381.448)" fill="#062d66"/>
        <path id="Path_11352" data-name="Path 11352" d="M230.81,618.21a.06.06,0,0,1-.038-.013l-.881-.711a.06.06,0,0,1-.009-.085.061.061,0,0,1,.077-.015.062.062,0,0,1,.026-.008,11.889,11.889,0,0,1,2.328.1c.212.026.416.05.615.068a.061.061,0,0,1,.01.119q-.722.188-1.446.37l-.667.17-.015,0m-.717-.717.732.59.638-.162q.56-.142,1.12-.286l-.283-.033a11.913,11.913,0,0,0-2.206-.11" transform="translate(-154.127 -413.937)" fill="#090516"/>
        <path id="Path_11353" data-name="Path 11353" d="M156.213,798.353s-1.165.116-1.86,7.1c-.045.451-.622,1.534-.168,1.534a.988.988,0,0,0,.9-.584l1.045-2.479,2.816,7.111c.1.33.4,1.03.738.95a.659.659,0,0,0,.48-.828c-.366-1.232-1.08-3.721-.8-3.548a20.235,20.235,0,0,1,2.389,3.722c.2.416.414.735.811.5.334-.2.272-.448.125-.807l-2.021-4.414,3.5,2.833c.416.33.742.407.958-.079.141-.316,0-.434-.21-.686-.307-.367-.847-.849-1.152-1.218-.609-.737-1.976-2.348-1.631-2.289.182-.023.556.311.759.485.22.188.432.386.649.578a4.74,4.74,0,0,0,1.37.93.288.288,0,0,0,.354-.1.231.231,0,0,0,.079-.186.332.332,0,0,0-.069-.137c-.033-.05-.055-.107-.087-.158a1.772,1.772,0,0,0-.238-.292,15.178,15.178,0,0,1-1.6-2.07q-.831-1.2-1.679-2.4-.7-.977-1.4-1.947-.382-.524-.768-1.045a7.35,7.35,0,0,0-.8-1.076Z" transform="translate(-103.265 -534.899)" fill="#f8bd8c"/>
        <path id="Path_11354" data-name="Path 11354" d="M133.975,740.643l-8.1-27.472a5.645,5.645,0,1,0-9.919,5.355l12.8,25.569Z" transform="translate(-77.192 -476.007)" fill="#063992"/>
        <path id="Path_11355" data-name="Path 11355" d="M128.38,1076.108l1.674-4.226a1.309,1.309,0,0,1,1.622-.745c1.683.547,4.853,1.2,7.066-.631a1.322,1.322,0,0,1,1.5-.1l12.433,7.241a1.263,1.263,0,0,1,.634,1.178,1.288,1.288,0,0,1-1.393,1.171l-22.446-1.577a1.287,1.287,0,0,1-1.214-1.356l.042-.585a1.225,1.225,0,0,1,.083-.365" transform="translate(-85.992 -717.58)" fill="#063992"/>
        <path id="Path_11356" data-name="Path 11356" d="M223.777,1078.687l1.2-4.4a1.354,1.354,0,0,1,1.567-.935c1.785.341,5.1.607,7.142-1.479a1.39,1.39,0,0,1,1.518-.283l13.576,5.69a1.259,1.259,0,0,1,.79,1.093,1.309,1.309,0,0,1-1.281,1.33l-23.119,1.14a1.306,1.306,0,0,1-1.4-1.2l-.028-.586a1.2,1.2,0,0,1,.041-.373" transform="translate(-150.014 -718.428)" fill="#063992"/>
        <path id="Path_11357" data-name="Path 11357" d="M796.974,1003.484l-1.886-.371,8.861-45.05a12.266,12.266,0,0,1,1.613-4.073L807.194,955a10.347,10.347,0,0,0-1.36,3.433Z" transform="translate(-533.106 -639.65)" fill="#31185e"/>
        <path id="Path_11358" data-name="Path 11358" d="M897.953,1007.06,888.189,961.8a10.262,10.262,0,0,0-.559-1.763l1.772-.743a12.191,12.191,0,0,1,.664,2.1l9.765,45.26Z" transform="translate(-595.156 -643.208)" fill="#31185e"/>
        <path id="Path_11359" data-name="Path 11359" d="M1027.824,1050.456l-5.044-16.021-8.024-.426,5.032,17.192,7.739.05Z" transform="translate(-680.393 -693.302)" fill="#ffb27d"/>
        <path id="Path_11360" data-name="Path 11360" d="M968.631,894.448l6.975.442a11.576,11.576,0,0,1,10.414,8.44l10.929,42.1L981.8,944.017,969.594,907.04Z" transform="translate(-649.467 -599.727)" fill="#f4932a"/>
        <path id="Path_11361" data-name="Path 11361" d="M948.841,1050.887l-.233-15.809-8.024-.427.221,16.98,7.739.05Z" transform="translate(-630.661 -693.733)" fill="#ffb27d"/>
        <path id="Path_11362" data-name="Path 11362" d="M845.732,866.412,861.5,875.77l16.292.333c4.755,0,8.63,2.868,8.7,7.623.218,14.619-.913,45-1.6,44.864-.928-.185-14.283,0-14.283,0l-1.357-33.2-10.464,1.138c-2.579.022-10.115.507-12.416-.657-4.762-2.414-8.417-5-4.269-17.913Z" transform="translate(-563.421 -580.929)" fill="#ffaa45"/>
        <path id="Path_11363" data-name="Path 11363" d="M1022.815,810.1l8.768-4.384s7.155-.528,11.5.417a.822.822,0,0,1-.251,1.623l-4.014-.44,2.162,1.47a.919.919,0,0,1-.953,1.569c-1.2-.665-4.974-2.395-8.654-.325l3.432,1.542a1.089,1.089,0,0,1-.585,2.073l-3.194-.414a9.847,9.847,0,0,1-7.237-.139Z" transform="translate(-685.797 -540.136)" fill="#ffb27d"/>
        <path id="Path_11364" data-name="Path 11364" d="M1000.437,882.728h26.62v-3h-26.62a1.5,1.5,0,0,0,0,3" transform="translate(-669.786 -589.854)" fill="#f4932a"/>
        <path id="Path_11365" data-name="Path 11365" d="M1073.649,822.97h38.217a4.525,4.525,0,0,0,4.359-3.312l7.538-27.081a1.559,1.559,0,0,0-1.5-1.978h-38.67a1.86,1.86,0,0,0-1.8,1.387Z" transform="translate(-719.881 -530.096)" fill="#f4932a"/>
        <rect id="Rectangle_4787" data-name="Rectangle 4787" width="1.922" height="67.21" transform="translate(364.365 296.439)" fill="#31185e"/>
        <rect id="Rectangle_4788" data-name="Rectangle 4788" width="1.922" height="67.21" transform="translate(409.489 296.439)" fill="#31185e"/>
        <rect id="Rectangle_4789" data-name="Rectangle 4789" width="1.922" height="67.21" transform="translate(336.057 296.439)" fill="#31185e"/>
        <rect id="Rectangle_4790" data-name="Rectangle 4790" width="117.492" height="7.13" transform="translate(306.027 292.874)" fill="#0b0635"/>
        <path id="Path_11366" data-name="Path 11366" d="M880.681,672.467l-9.876.588c.388-1.564.78-3.13,1.018-4.725a17.17,17.17,0,0,1,.866-4.547c.24-.553.946-1.48.908-2.094-.042-.68-.377-.614-1.081-.77a13.188,13.188,0,0,0-3.469-.337,16.408,16.408,0,0,0-4.688,1.049c-5.744,2.075-7.752,9.294-10.881,13.884-.972,1.425-1.9,2.884-2.736,4.392-4.69,8.435.3,19.6.3,19.6l22.917,1.006c7.287-12.592,6.718-28.045,6.718-28.045" transform="translate(-569.075 -442.911)" fill="#062d66"/>
        <path id="Path_11367" data-name="Path 11367" d="M925.928,776.6c2.778,6.8,6.414,21.167,6.414,21.167l21.945-10.336,2.9,7.533-18.617,12.713-20.365-.849L916.7,790.9l8.9-13.483Z" transform="translate(-614.645 -520.713)" fill="#458fd8"/>
        <path id="Path_11368" data-name="Path 11368" d="M870.474,756.923a11.219,11.219,0,0,1,3.664,4.435l1.318,38.012s-23.329,4.912-36-.749c0,0,.357-31.834,7.573-40.26,0,0,2.274-4.474,13.841-4.5a15.87,15.87,0,0,1,9.6,3.057" transform="translate(-562.855 -505.466)" fill="#479bff"/>
        <path id="Path_11369" data-name="Path 11369" d="M930.478,708.334a2.133,2.133,0,1,0,2.415-1.807,2.133,2.133,0,0,0-2.415,1.807" transform="translate(-623.87 -473.711)" fill="#ffb27d"/>
        <path id="Path_11370" data-name="Path 11370" d="M898.917,727.022l-1.009,7.32c-.35,2.571-2.121,3.73-4.648,3.366-2.159-.31-4.026-1.716-3.985-3.9l2.142-11.443Z" transform="translate(-596.258 -484.348)" fill="#ffb27d"/>
        <path id="Path_11371" data-name="Path 11371" d="M901.256,738.152c-4.386.65-7.241-6.371-7.241-6.371l8.157,1.176-.916,5.526Z" transform="translate(-599.437 -490.658)" fill="#e8945b"/>
        <path id="Path_11372" data-name="Path 11372" d="M894.332,690.963h0c3.541-.279,8.184-2.825,8.575-6.363l.872-8.353a8.272,8.272,0,0,0-7.043-9.1c-4.521-.65-9.506,2.374-10.157,6.895l-.628,6.726a9.038,9.038,0,0,0,8.38,10.19" transform="translate(-593.999 -447.266)" fill="#ffb27d"/>
        <path id="Path_11373" data-name="Path 11373" d="M906.486,697.019s1.847-.388,1.941.212c0,0,.05.408-1.565.722s-2.05.279-2.246-.083,1-.722,1.87-.851" transform="translate(-606.53 -467.267)" fill="#31185e"/>
        <path id="Path_11374" data-name="Path 11374" d="M929.9,698.513s-1.556,0-1.644.584c0,0-.048.391,1.313.363s1.793-.2,1.9-.523c.122-.364-.833-.477-1.569-.424" transform="translate(-622.398 -468.344)" fill="#31185e"/>
        <path id="Path_11375" data-name="Path 11375" d="M911,704.571a.75.75,0,1,1-.519-.926.751.751,0,0,1,.519.926" transform="translate(-609.835 -471.775)" fill="#31185e"/>
        <path id="Path_11376" data-name="Path 11376" d="M932.039,704.8a.75.75,0,1,1-.519-.926.751.751,0,0,1,.519.926" transform="translate(-623.944 -471.928)" fill="#31185e"/>
        <path id="Path_11377" data-name="Path 11377" d="M919.691,710.932a.452.452,0,0,1-.1-.011l-.962-.21a.063.063,0,0,1-.048-.075.062.062,0,0,1,.075-.048l.962.21a.382.382,0,0,0,.315-.081.682.682,0,0,0,.252-.5l.106-1.833a.06.06,0,0,1,.067-.059.063.063,0,0,1,.059.067l-.106,1.833a.8.8,0,0,1-.3.59.528.528,0,0,1-.319.114" transform="translate(-615.908 -474.933)" fill="#31185e"/>
        <path id="Path_11378" data-name="Path 11378" d="M912.534,723.387h-.007a4.085,4.085,0,0,1-2.475-1.288c-.034-.034-.068-.07-.079-.077a.061.061,0,0,1-.028-.082.065.065,0,0,1,.086-.029.5.5,0,0,1,.111.1,3.964,3.964,0,0,0,2.4,1.25.063.063,0,0,1-.007.126" transform="translate(-610.114 -484.036)" fill="#31185e"/>
        <path id="Path_11379" data-name="Path 11379" d="M878.468,704.72a2.133,2.133,0,1,0,2.415-1.807,2.133,2.133,0,0,0-2.415,1.807" transform="translate(-588.998 -471.287)" fill="#ffb27d"/>
        <path id="Path_11380" data-name="Path 11380" d="M886.146,675.477c-.673.281.314-8.826,2.428-10.556.953-.78,8.09-3.821,9.831-2.782,1.908,1.138-1.7,6.31-1.7,6.31s-2.723,3.763-10.558,7.028" transform="translate(-594.02 -443.82)" fill="#062d66"/>
        <path id="Path_11381" data-name="Path 11381" d="M912.626,667.315l6.942,5.565,1.88-.2s2.927-8.2-6.9-11.507-1.919,6.144-1.919,6.144" transform="translate(-609.897 -442.843)" fill="#062d66"/>
        <path id="Path_11382" data-name="Path 11382" d="M992.492,861.962l5.766-3.132s5.412-.542,6.584,1.253a6.956,6.956,0,0,1,.57,5.044,1.034,1.034,0,0,1-1.542.62,9.514,9.514,0,0,0-3.958-1.534s-3.978,3.632-6.746,3.268c-1.408-.185-5.191-4.015-5.191-4.015Z" transform="translate(-662.437 -575.793)" fill="#f8bd8c"/>
        <path id="Path_11383" data-name="Path 11383" d="M886.088,743.018c.316.115,11.216.575,11.251.919s.329,5.689.329,5.689l-1.548,3.563s-4.619.632-5,.517-4.458-1.149-4.458-1.149Z" transform="translate(-594.122 -498.193)" fill="#479bff"/>
        <path id="Path_11384" data-name="Path 11384" d="M873.111,788.6l3.1,15.573a2.65,2.65,0,0,0,2.5,2.234l26.915,1.167a2.65,2.65,0,0,1,2.535,2.647v5.931a2.65,2.65,0,0,1-2.714,2.649l-31.207-.756c-.052,0-.1,0-.156,0a3.688,3.688,0,0,1-2.723-.895.4.4,0,0,0-.437-.06.4.4,0,0,1-.216.037c-1.073-.114-8.91-1.891-11.508-29.405-.479-5.076,6.744-7.41,10.446-5.115a5.742,5.742,0,0,1,2.788,3.69Z" transform="translate(-576.076 -524.145)" fill="#458fd8"/>
        <path id="Path_11385" data-name="Path 11385" d="M818.413,853.354H796.65a25.656,25.656,0,0,1-9.387-1.7c-7.736-3.031-13.062-10.049-14.614-19.255l-5.4-32.058a1.2,1.2,0,0,1,2.369-.4l5.4,32.058c1.429,8.476,6.088,14.661,13.121,17.417a23.269,23.269,0,0,0,8.511,1.53h21.763a1.2,1.2,0,0,1,0,2.4" transform="translate(-514.429 -535.692)" fill="#10071a"/>
        <path id="Path_11386" data-name="Path 11386" d="M935.693,1082.411l.9-4.443a1.263,1.263,0,0,1,1.426-1c1.7.263,4.836.386,6.647-1.785a1.251,1.251,0,0,1,1.414-.349l13.08,5.094a1.267,1.267,0,0,1-.336,2.441l-21.708,2.139a1.267,1.267,0,0,1-1.385-1.138l-.057-.584a1.264,1.264,0,0,1,.019-.375" transform="translate(-627.365 -720.616)" fill="#062d66"/>
        <path id="Path_11387" data-name="Path 11387" d="M1243.348,851.125h-7.926a.374.374,0,0,0-.374.373v11.681a.374.374,0,0,0,.374.374h7.926a.374.374,0,0,0,.373-.374v-1.837a.373.373,0,0,1,.3-.365,3.711,3.711,0,0,0,0-7.277.373.373,0,0,1-.3-.365V851.5a.373.373,0,0,0-.373-.373m.909,8.088a.372.372,0,0,1-.535-.337V855.8a.372.372,0,0,1,.535-.337,2.108,2.108,0,0,1,0,3.749" transform="translate(-828.099 -570.679)" fill="#479bff"/>
        <path id="Path_11388" data-name="Path 11388" d="M1020.017,1083.258l1.356-4.325a1.263,1.263,0,0,1,1.523-.848c1.662.438,4.77.886,6.8-1.085a1.25,1.25,0,0,1,1.443-.2l12.48,6.425a1.267,1.267,0,0,1-.587,2.393l-21.813-.128a1.267,1.267,0,0,1-1.259-1.276l0-.587a1.276,1.276,0,0,1,.058-.37" transform="translate(-683.879 -721.898)" fill="#062d66"/>
      </g>
    </g>
  </g>
</svg>
