<svg xmlns="http://www.w3.org/2000/svg" xmlns:xlink="http://www.w3.org/1999/xlink" width="560.41" height="401.63" viewBox="0 0 560.41 401.63">
  <defs>
    <clipPath id="clip-path">
      <rect id="Rectangle_692" data-name="Rectangle 692" width="560.41" height="401.631" fill="none"/>
    </clipPath>
    <clipPath id="clip-path-3">
      <rect id="Rectangle_662" data-name="Rectangle 662" width="37.302" height="288.726" fill="none"/>
    </clipPath>
    <clipPath id="clip-path-4">
      <rect id="Rectangle_664" data-name="Rectangle 664" width="37.302" height="200.658" fill="none"/>
    </clipPath>
    <clipPath id="clip-path-5">
      <rect id="Rectangle_666" data-name="Rectangle 666" width="37.3" height="226.171" fill="none"/>
    </clipPath>
    <clipPath id="clip-path-6">
      <rect id="Rectangle_668" data-name="Rectangle 668" width="37.302" height="235.066" fill="none"/>
    </clipPath>
    <clipPath id="clip-path-7">
      <rect id="Rectangle_670" data-name="Rectangle 670" width="37.301" height="165.37" fill="none"/>
    </clipPath>
    <clipPath id="clip-path-8">
      <rect id="Rectangle_672" data-name="Rectangle 672" width="37.302" height="222.184" fill="none"/>
    </clipPath>
    <clipPath id="clip-path-9">
      <rect id="Rectangle_674" data-name="Rectangle 674" width="37.302" height="154.412" fill="none"/>
    </clipPath>
    <clipPath id="clip-path-10">
      <rect id="Rectangle_676" data-name="Rectangle 676" width="37.3" height="174.045" fill="none"/>
    </clipPath>
    <clipPath id="clip-path-11">
      <rect id="Rectangle_678" data-name="Rectangle 678" width="37.302" height="180.89" fill="none"/>
    </clipPath>
    <clipPath id="clip-path-12">
      <rect id="Rectangle_680" data-name="Rectangle 680" width="37.301" height="127.257" fill="none"/>
    </clipPath>
    <clipPath id="clip-path-13">
      <rect id="Rectangle_688" data-name="Rectangle 688" width="82.433" height="24.434" fill="none"/>
    </clipPath>
    <clipPath id="clip-path-14">
      <rect id="Rectangle_689" data-name="Rectangle 689" width="62.384" height="18.491" fill="none"/>
    </clipPath>
    <clipPath id="clip-path-15">
      <rect id="Rectangle_690" data-name="Rectangle 690" width="54.398" height="16.124" fill="none"/>
    </clipPath>
  </defs>
  <g id="Illustration" clip-path="url(#clip-path)">
    <g id="Group_963" data-name="Group 963" transform="translate(0 -0.001)">
      <g id="Group_962" data-name="Group 962" clip-path="url(#clip-path)">
        <path id="Path_2025" data-name="Path 2025" d="M115.925,357.7c-15.65-21.476-13.909-30.495-39.143-48.618-24.564-17.642-36.221-18.156-59.536-33.66-34.586-23-16.033-102.343,45.6-144.3,18.536-12.618,33.043-16.459,41.575-32.551C122.747,64.02,80.3,35.652,91.62,18.894c25.5-37.732,331.157-27.758,433.93,111.916,48,65.234,44.378,148.749-15.118,203.869-107.508,99.6-359.391,71.213-394.507,23.025" transform="translate(0 0.002)" fill="#e7f3fd"/>
        <g id="Group_925" data-name="Group 925" transform="translate(390.257 70.38)" opacity="0.6">
          <g id="Group_924" data-name="Group 924">
            <g id="Group_923" data-name="Group 923" clip-path="url(#clip-path-3)">
              <rect id="Rectangle_661" data-name="Rectangle 661" width="37.302" height="288.727" transform="translate(0.001 -0.001)" fill="#9bc1f9"/>
            </g>
          </g>
        </g>
        <g id="Group_928" data-name="Group 928" transform="translate(338.164 158.447)" opacity="0.6">
          <g id="Group_927" data-name="Group 927">
            <g id="Group_926" data-name="Group 926" clip-path="url(#clip-path-4)">
              <rect id="Rectangle_663" data-name="Rectangle 663" width="37.302" height="200.658" transform="translate(0 0)" fill="#9bc1f9"/>
            </g>
          </g>
        </g>
        <g id="Group_931" data-name="Group 931" transform="translate(443.102 132.935)" opacity="0.6">
          <g id="Group_930" data-name="Group 930">
            <g id="Group_929" data-name="Group 929" clip-path="url(#clip-path-5)">
              <rect id="Rectangle_665" data-name="Rectangle 665" width="37.302" height="226.171" transform="translate(-0.001 -0.001)" fill="#9bc1f9"/>
            </g>
          </g>
        </g>
        <g id="Group_934" data-name="Group 934" transform="translate(286.069 124.039)" opacity="0.6">
          <g id="Group_933" data-name="Group 933">
            <g id="Group_932" data-name="Group 932" clip-path="url(#clip-path-6)">
              <rect id="Rectangle_667" data-name="Rectangle 667" width="37.302" height="235.066" transform="translate(0 0)" fill="#9bc1f9"/>
            </g>
          </g>
        </g>
        <g id="Group_937" data-name="Group 937" transform="translate(233.976 193.735)" opacity="0.6">
          <g id="Group_936" data-name="Group 936">
            <g id="Group_935" data-name="Group 935" clip-path="url(#clip-path-7)">
              <rect id="Rectangle_669" data-name="Rectangle 669" width="37.302" height="165.37" fill="#9bc1f9"/>
            </g>
          </g>
        </g>
        <g id="Group_940" data-name="Group 940" transform="translate(390.257 136.922)" opacity="0.3" style="mix-blend-mode: multiply;isolation: isolate">
          <g id="Group_939" data-name="Group 939">
            <g id="Group_938" data-name="Group 938" clip-path="url(#clip-path-8)">
              <rect id="Rectangle_671" data-name="Rectangle 671" width="37.302" height="222.183" transform="translate(0.001 0.001)" fill="#88c9f7"/>
            </g>
          </g>
        </g>
        <g id="Group_943" data-name="Group 943" transform="translate(338.164 204.693)" opacity="0.3" style="mix-blend-mode: multiply;isolation: isolate">
          <g id="Group_942" data-name="Group 942">
            <g id="Group_941" data-name="Group 941" clip-path="url(#clip-path-9)">
              <rect id="Rectangle_673" data-name="Rectangle 673" width="37.302" height="154.412" transform="translate(0 0)" fill="#88c9f7"/>
            </g>
          </g>
        </g>
        <g id="Group_946" data-name="Group 946" transform="translate(443.102 185.06)" opacity="0.3" style="mix-blend-mode: multiply;isolation: isolate">
          <g id="Group_945" data-name="Group 945">
            <g id="Group_944" data-name="Group 944" clip-path="url(#clip-path-10)">
              <rect id="Rectangle_675" data-name="Rectangle 675" width="37.302" height="174.045" transform="translate(-0.001)" fill="#88c9f7"/>
            </g>
          </g>
        </g>
        <g id="Group_949" data-name="Group 949" transform="translate(286.069 178.216)" opacity="0.3" style="mix-blend-mode: multiply;isolation: isolate">
          <g id="Group_948" data-name="Group 948">
            <g id="Group_947" data-name="Group 947" clip-path="url(#clip-path-11)">
              <rect id="Rectangle_677" data-name="Rectangle 677" width="37.302" height="180.89" transform="translate(0 0)" fill="#88c9f7"/>
            </g>
          </g>
        </g>
        <g id="Group_952" data-name="Group 952" transform="translate(233.976 231.848)" opacity="0.3" style="mix-blend-mode: multiply;isolation: isolate">
          <g id="Group_951" data-name="Group 951">
            <g id="Group_950" data-name="Group 950" clip-path="url(#clip-path-12)">
              <rect id="Rectangle_679" data-name="Rectangle 679" width="37.302" height="127.257" transform="translate(0 0)" fill="#88c9f7"/>
            </g>
          </g>
        </g>
        <path id="Path_2026" data-name="Path 2026" d="M1227.681,298.739l-29.723,22.48,11.338.723-70.954,124.878-39.286-58.9L1043.481,517.55l-35.747-50.773-44.554,62.98,2.8,11.272,41.732-58.705,37.786,53.67,55.371-129.155,38.118,57.148,78.554-138.253,7.293,7.843Z" transform="translate(-729.147 -226.151)" fill="#3868ad"/>
        <path id="Path_2027" data-name="Path 2027" d="M311.442,730.912c-42.654-33.966-78.493-77.9-105.629-129.484l-58.667,47.128C178.521,708.2,219.959,759,269.277,798.268l42.165-67.356" transform="translate(-111.393 -455.293)" fill="#4979b8"/>
        <path id="Path_2028" data-name="Path 2028" d="M229.564,652.121l-36.443,29.742c2.893,5.394,1.843,12.669-2.466,16.36,27.581,48.769,62.148,91.142,102.4,125.525a9.335,9.335,0,0,1,13.952-2.281l26.588-41.822c-4.1-3.329-4.688-10.133-1.4-15.068-35.347-30.194-65.7-67.4-89.922-110.23-4.307,3.688-10.047,2.736-12.709-2.226" transform="translate(-144.33 -493.668)" fill="#67b8ee"/>
        <path id="Path_2029" data-name="Path 2029" d="M424.216,963.1c9.107-11.753,9.02-29.092.429-39.465-8.614-10.346-23.331-10.833-33.513-.374C380.968,933.695,380,952.248,389.68,963.9s25.448,10.934,34.536-.8" transform="translate(-289.89 -693.157)" fill="#86c6ea"/>
        <path id="Path_2030" data-name="Path 2030" d="M455.491,960.507l-3.434,3.811c2.738,5.018,2.158,10.2-.793,13.592-2.98,3.412-6.317,3.728-11.4.714-3.694-2.087-5.47-2.7-6.6-1.483-.953,1.029-1.268,2.9.75,5.451a13.92,13.92,0,0,0,3.162,2.961,3.42,3.42,0,0,1,.9,4.343,2.455,2.455,0,0,1-3.644,1.057,19.452,19.452,0,0,1-3.331-3.091l-2.97,3.277q-1.556-1.95-3.092-3.921l3.233-3.5c-2.615-5.051-2.1-10.071.94-13.256,3.35-3.519,7.224-2.438,11.665.347,3.079,1.921,4.864,2.225,6.14.806,1.344-1.5.907-3.782-.787-5.942a15.1,15.1,0,0,0-3.842-3.451,3.276,3.276,0,0,1-.783-4.341l.1-.165a2.466,2.466,0,0,1,3.482-1.071,20.5,20.5,0,0,1,4.214,3.75l3.224-3.516q1.423,1.825,2.864,3.633" transform="translate(-321.768 -723.921)" fill="#4979b8"/>
        <path id="Path_2031" data-name="Path 2031" d="M589.249,1153.064q-14.58-12.485-28.078-26.434l-4.622,6.011q13.677,14.131,28.471,26.8l4.229-6.381" transform="translate(-421.319 -852.881)" fill="#50bfa5"/>
        <path id="Path_2032" data-name="Path 2032" d="M218.435,913.366c-53.576-6.794-106.119-24.72-154.861-52.832l-27.8,65.132c56.357,32.5,117.109,53.23,179.054,61.086q1.8-36.693,3.606-73.385" transform="translate(-27.082 -651.441)" fill="#4979b8"/>
        <path id="Path_2033" data-name="Path 2033" d="M89.119,905.422,72.08,946.252c5.145,2.913,7.793,9.183,5.862,14.149a475.865,475.865,0,0,0,150.127,51.217c.437-5.475,5.344-9.168,10.976-8.4q1.3-22.879,2.592-45.758c-5.183-.7-9.017-5.825-8.58-11.3a417.888,417.888,0,0,1-131.834-44.976,8.261,8.261,0,0,1-12.1,4.24" transform="translate(-54.566 -682.213)" fill="#67b8ee"/>
        <path id="Path_2034" data-name="Path 2034" d="M388.885,1085.219c2.146-13.632-6.409-27.352-18.926-31.522a22.488,22.488,0,0,0-29.227,15.544c-3.705,13.088,4.525,28.272,18.614,32.938,14.085,4.682,27.4-3.352,29.539-16.96" transform="translate(-257.27 -796.737)" fill="#86c6ea"/>
        <path id="Path_2035" data-name="Path 2035" d="M415.738,1074.74q-.555,2.323-1.112,4.647c4.827,2.689,6.86,7.078,5.959,11.162-.914,4.116-3.652,5.944-9.534,5.956-4.222.09-6.062.44-6.441,1.941-.322,1.267.318,2.9,3.315,3.971a14.551,14.551,0,0,0,4.188.855,3.165,3.165,0,0,1,2.908,3.02,2.418,2.418,0,0,1-2.641,2.561,20.3,20.3,0,0,1-4.4-.879q-.486,2-.972,4.005-2.3-.813-4.6-1.65.545-2.155,1.089-4.31c-4.736-2.772-6.741-7-5.668-10.964,1.183-4.376,5.069-5.349,10.28-5.238,3.608.069,5.3-.534,5.715-2.263.432-1.825-1.064-3.43-3.588-4.344a15.834,15.834,0,0,0-5.017-.923,3.02,3.02,0,0,1-2.8-3.075c0-.059,0-.118,0-.176a2.426,2.426,0,0,1,2.494-2.5,21.49,21.49,0,0,1,5.486.984q.538-2.157,1.075-4.314,2.126.776,4.258,1.53" transform="translate(-300.955 -812.441)" fill="#4979b8"/>
        <path id="Path_2036" data-name="Path 2036" d="M611.513,622.734a33.047,33.047,0,0,1-3.814-1.522,19.172,19.172,0,0,0-4.349-1.633c-2.406-.37-6.539-.123-8.822,2.344-2.844,3.074-7.9.555-6.879,16.657,1.152,18.225,11.32,16.225,11.568,15.916s9.069-11.66,9.069-11.66,3.084,6.724,3.084,6.478,15.75-21.342.143-26.581" transform="translate(-444.762 -468.929)" fill="#062d66"/>
        <path id="Path_2037" data-name="Path 2037" d="M303.316,1127.475c-42.152,16.654-88.661,24.267-137.075,22.438l9.639,61.8c55.978,2.115,109.753-6.687,158.49-25.944l-31.054-58.3" transform="translate(-125.848 -853.521)" fill="#4979b8"/>
        <path id="Path_2038" data-name="Path 2038" d="M187.1,1182.9l6.325,38.584c5.085.151,9.892,3.923,10.765,8.558,46.57.341,91.428-7,132.885-21.752a7.76,7.76,0,0,1,4.139-11L322.1,1160.806c-4.1,1.576-9.243-.822-11.436-5.237-36.406,12.953-75.8,19.4-116.693,19.1.872,4.632-2.192,8.373-6.872,8.234" transform="translate(-141.635 -874.788)" fill="#67b8ee"/>
        <path id="Path_2039" data-name="Path 2039" d="M466.56,1259.8c-4.693-11.433-17.223-18.557-28.257-16.666-11.024,1.918-17.476,12.32-14.16,23.991,3.307,11.65,16.273,20.04,28.679,17.89s18.425-13.8,13.738-25.215" transform="translate(-320.425 -940.851)" fill="#50bfa5"/>
        <path id="Path_2040" data-name="Path 2040" d="M476.342,1257.569q.662,2.027,1.323,4.054c4.751.107,8.247,2.674,9.465,6.205,1.223,3.561.068,6.1-4.212,8.512-3.035,1.8-4.215,2.821-3.8,4.137.347,1.113,1.563,2.115,4.238,1.718a11.574,11.574,0,0,0,3.444-1.051,2.843,2.843,0,0,1,3.5,1.148,2.041,2.041,0,0,1-.749,3.063,16.138,16.138,0,0,1-3.608,1.119q.566,1.75,1.13,3.5-2.05.312-4.107.6-.592-1.891-1.185-3.782c-4.723-.209-8.125-2.665-9.161-6.172-1.147-3.872,1.237-6.216,5.085-8.261,2.661-1.422,3.619-2.582,3.125-4.09-.523-1.589-2.35-2.221-4.608-1.9a12.549,12.549,0,0,0-4.079,1.338,2.723,2.723,0,0,1-3.453-1.235l-.079-.137a2.05,2.05,0,0,1,.672-2.952,17.01,17.01,0,0,1,4.448-1.483q-.6-1.89-1.2-3.78,1.9-.268,3.8-.558" transform="translate(-354.488 -952.005)" fill="#3c8f7c"/>
        <path id="Path_2041" data-name="Path 2041" d="M652.834,1264.618q-15.038,5.331-30.684,9.274l2.416,5.822q15.85-4,31.113-9.4l-2.845-5.692" transform="translate(-470.98 -957.341)" fill="#50bfa5"/>
        <path id="Path_2042" data-name="Path 2042" d="M444.16,1407.1v15.092c0,2.44,27.218,4.418,60.792,4.418s60.793-1.978,60.793-4.418V1407.1Z" transform="translate(-336.238 -1065.2)" fill="#f4932a"/>
        <path id="Path_2043" data-name="Path 2043" d="M488.154,1426.433V1407.1H444.16v15.092c0,2.016,18.59,3.717,43.994,4.247" transform="translate(-336.238 -1065.199)" fill="#ffaa45"/>
        <path id="Path_2044" data-name="Path 2044" d="M633.649,1426.473c4.723.086,9.664.131,14.75.131,7.58,0,14.836-.1,21.528-.285V1407.1H633.649Z" transform="translate(-479.685 -1065.199)" fill="#ffaa45"/>
        <path id="Path_2045" data-name="Path 2045" d="M792.979,1426.249c21.659-.676,36.829-2.24,36.829-4.061V1407.1H792.979Z" transform="translate(-600.301 -1065.2)" fill="#ffaa45"/>
        <path id="Path_2046" data-name="Path 2046" d="M565.745,1392.673c0,2.44-27.218,4.417-60.793,4.417s-60.792-1.978-60.792-4.417,27.218-4.418,60.792-4.418,60.793,1.978,60.793,4.418" transform="translate(-336.238 -1050.937)" fill="#f4932a"/>
        <path id="Path_2047" data-name="Path 2047" d="M588.448,1396.894c0,1.692-22.413,3.063-50.061,3.063s-50.061-1.371-50.061-3.063,22.413-3.063,50.061-3.063,50.061,1.371,50.061,3.063" transform="translate(-369.672 -1055.158)" fill="#f7cc7f"/>
        <path id="Path_2048" data-name="Path 2048" d="M401.354,1341.37v15.092c0,2.44,27.218,4.418,60.792,4.418s60.792-1.978,60.792-4.418V1341.37Z" transform="translate(-303.833 -1015.444)" fill="#f4932a"/>
        <path id="Path_2049" data-name="Path 2049" d="M445.348,1360.709V1341.37H401.354v15.092c0,2.016,18.59,3.717,43.994,4.247" transform="translate(-303.833 -1015.444)" fill="#ffaa45"/>
        <path id="Path_2050" data-name="Path 2050" d="M590.843,1360.749c4.723.086,9.663.131,14.75.131,7.58,0,14.836-.1,21.528-.285V1341.37H590.843Z" transform="translate(-447.28 -1015.444)" fill="#ffaa45"/>
        <path id="Path_2051" data-name="Path 2051" d="M750.173,1360.523c21.659-.676,36.829-2.24,36.829-4.061V1341.37H750.173Z" transform="translate(-567.896 -1015.444)" fill="#ffaa45"/>
        <path id="Path_2052" data-name="Path 2052" d="M522.939,1326.948c0,2.44-27.218,4.418-60.792,4.418s-60.792-1.978-60.792-4.418,27.218-4.417,60.792-4.417,60.792,1.978,60.792,4.417" transform="translate(-303.833 -1001.182)" fill="#f4932a"/>
        <path id="Path_2053" data-name="Path 2053" d="M545.641,1331.168c0,1.691-22.413,3.063-50.061,3.063s-50.061-1.371-50.061-3.063,22.413-3.063,50.061-3.063,50.061,1.371,50.061,3.063" transform="translate(-337.267 -1005.402)" fill="#f7cc7f"/>
        <path id="Path_2054" data-name="Path 2054" d="M429.875,1273.9v15.092c0,2.44,27.218,4.417,60.792,4.417s60.793-1.978,60.793-4.417V1273.9Z" transform="translate(-325.424 -964.367)" fill="#f4932a"/>
        <path id="Path_2055" data-name="Path 2055" d="M473.868,1293.237V1273.9H429.874v15.092c0,2.016,18.59,3.717,43.994,4.247" transform="translate(-325.423 -964.367)" fill="#ffaa45"/>
        <path id="Path_2056" data-name="Path 2056" d="M619.364,1293.276c4.722.086,9.663.131,14.75.131,7.58,0,14.836-.1,21.528-.285V1273.9H619.364Z" transform="translate(-468.871 -964.366)" fill="#ffaa45"/>
        <path id="Path_2057" data-name="Path 2057" d="M778.693,1293.052c21.659-.676,36.829-2.24,36.829-4.061V1273.9H778.693Z" transform="translate(-589.487 -964.367)" fill="#ffaa45"/>
        <path id="Path_2058" data-name="Path 2058" d="M551.459,1259.476c0,2.439-27.218,4.417-60.792,4.417s-60.792-1.978-60.792-4.417,27.218-4.418,60.792-4.418,60.792,1.978,60.792,4.418" transform="translate(-325.423 -950.104)" fill="#f4932a"/>
        <path id="Path_2059" data-name="Path 2059" d="M574.162,1263.7c0,1.692-22.413,3.063-50.061,3.063s-50.061-1.371-50.061-3.063,22.413-3.063,50.061-3.063,50.061,1.371,50.061,3.063" transform="translate(-358.858 -954.324)" fill="#f7cc7f"/>
        <path id="Path_2060" data-name="Path 2060" d="M401.354,1207.351v15.092c0,2.44,27.218,4.418,60.792,4.418s60.792-1.978,60.792-4.418v-15.092Z" transform="translate(-303.833 -913.989)" fill="#f4932a"/>
        <path id="Path_2061" data-name="Path 2061" d="M445.348,1226.69v-19.339H401.354v15.092c0,2.016,18.59,3.717,43.994,4.247" transform="translate(-303.833 -913.989)" fill="#ffaa45"/>
        <path id="Path_2062" data-name="Path 2062" d="M590.843,1226.729c4.723.086,9.663.131,14.75.131,7.58,0,14.836-.1,21.528-.285v-19.224H590.843Z" transform="translate(-447.28 -913.989)" fill="#ffaa45"/>
        <path id="Path_2063" data-name="Path 2063" d="M750.173,1226.5c21.659-.676,36.829-2.24,36.829-4.061v-15.092H750.173Z" transform="translate(-567.896 -913.989)" fill="#ffaa45"/>
        <path id="Path_2064" data-name="Path 2064" d="M522.939,1192.928c0,2.44-27.218,4.418-60.792,4.418s-60.792-1.978-60.792-4.418,27.218-4.417,60.792-4.417,60.792,1.978,60.792,4.417" transform="translate(-303.833 -899.726)" fill="#f4932a"/>
        <path id="Path_2065" data-name="Path 2065" d="M545.641,1197.149c0,1.692-22.413,3.063-50.061,3.063s-50.061-1.371-50.061-3.063,22.413-3.063,50.061-3.063,50.061,1.371,50.061,3.063" transform="translate(-337.267 -903.947)" fill="#f7cc7f"/>
        <path id="Path_2066" data-name="Path 2066" d="M1788.813,1401.788V1416.3c0,2.346-26.174,4.248-58.462,4.248s-58.461-1.9-58.461-4.248v-14.513Z" transform="translate(-1265.655 -1061.182)" fill="#f4932a"/>
        <path id="Path_2067" data-name="Path 2067" d="M1978.975,1420.386v-18.6h42.307V1416.3c0,1.939-17.877,3.575-42.307,4.084" transform="translate(-1498.125 -1061.182)" fill="#ffaa45"/>
        <path id="Path_2068" data-name="Path 2068" d="M1862.48,1420.424c-4.541.082-9.293.126-14.184.126-7.29,0-14.267-.1-20.7-.274v-18.487h34.887Z" transform="translate(-1383.525 -1061.182)" fill="#ffaa45"/>
        <path id="Path_2069" data-name="Path 2069" d="M1707.308,1420.207c-20.829-.65-35.417-2.154-35.417-3.905v-14.513h35.417Z" transform="translate(-1265.656 -1061.182)" fill="#eab054"/>
        <path id="Path_2070" data-name="Path 2070" d="M1671.89,1387.918c0,2.346,26.174,4.248,58.462,4.248s58.461-1.9,58.461-4.248-26.174-4.248-58.461-4.248-58.462,1.9-58.462,4.248" transform="translate(-1265.655 -1047.466)" fill="#f4932a"/>
        <path id="Path_2071" data-name="Path 2071" d="M1714.362,1391.977c0,1.627,21.554,2.946,48.142,2.946s48.141-1.319,48.141-2.946-21.554-2.945-48.141-2.945-48.142,1.319-48.142,2.945" transform="translate(-1297.807 -1051.525)" fill="#f7cc7f"/>
        <path id="Path_2072" data-name="Path 2072" d="M1830.28,1338.583V1353.1c0,2.346-26.174,4.248-58.462,4.248s-58.461-1.9-58.461-4.248v-14.513Z" transform="translate(-1297.047 -1013.334)" fill="#f4932a"/>
        <path id="Path_2073" data-name="Path 2073" d="M2020.14,1357.181v-18.6h42.307V1353.1c0,1.939-17.877,3.575-42.307,4.084" transform="translate(-1529.288 -1013.335)" fill="#ffaa45"/>
        <path id="Path_2074" data-name="Path 2074" d="M1903.342,1357.219c-4.542.082-9.293.126-14.185.126-7.289,0-14.267-.1-20.7-.274v-18.487h34.887Z" transform="translate(-1414.459 -1013.335)" fill="#ffaa45"/>
        <path id="Path_2075" data-name="Path 2075" d="M1748.472,1357c-20.828-.65-35.417-2.154-35.417-3.905v-14.513h35.417Z" transform="translate(-1296.818 -1013.334)" fill="#eab054"/>
        <path id="Path_2076" data-name="Path 2076" d="M1713.357,1324.713c0,2.346,26.174,4.248,58.462,4.248s58.461-1.9,58.461-4.248-26.174-4.248-58.461-4.248-58.462,1.9-58.462,4.248" transform="translate(-1297.047 -999.619)" fill="#f4932a"/>
        <path id="Path_2077" data-name="Path 2077" d="M1755.526,1328.772c0,1.627,21.554,2.945,48.142,2.945s48.142-1.319,48.142-2.945-21.554-2.945-48.142-2.945-48.142,1.319-48.142,2.945" transform="translate(-1328.969 -1003.678)" fill="#f7cc7f"/>
        <path id="Path_2078" data-name="Path 2078" d="M1802.853,1273.7v14.513c0,2.346-26.174,4.249-58.462,4.249s-58.461-1.9-58.461-4.249V1273.7Z" transform="translate(-1276.284 -964.215)" fill="#f4932a"/>
        <path id="Path_2079" data-name="Path 2079" d="M1992.714,1292.295v-18.6h42.308v14.513c0,1.939-17.877,3.575-42.308,4.084" transform="translate(-1508.525 -964.215)" fill="#ffaa45"/>
        <path id="Path_2080" data-name="Path 2080" d="M1875.915,1292.333c-4.542.082-9.293.126-14.185.126-7.29,0-14.267-.1-20.7-.274V1273.7h34.887Z" transform="translate(-1393.696 -964.215)" fill="#ffaa45"/>
        <path id="Path_2081" data-name="Path 2081" d="M1721.045,1292.116c-20.829-.65-35.417-2.154-35.417-3.905V1273.7h35.417Z" transform="translate(-1276.055 -964.215)" fill="#ffaa45"/>
        <path id="Path_2082" data-name="Path 2082" d="M1685.93,1259.828c0,2.346,26.174,4.248,58.461,4.248s58.462-1.9,58.462-4.248-26.174-4.248-58.462-4.248-58.461,1.9-58.461,4.248" transform="translate(-1276.284 -950.499)" fill="#f4932a"/>
        <path id="Path_2083" data-name="Path 2083" d="M1728.1,1263.887c0,1.627,21.554,2.945,48.142,2.945s48.142-1.319,48.142-2.945-21.554-2.946-48.142-2.946-48.142,1.319-48.142,2.946" transform="translate(-1308.207 -954.558)" fill="#f7cc7f"/>
        <path id="Path_2084" data-name="Path 2084" d="M1830.28,1209.7v14.513c0,2.346-26.174,4.249-58.462,4.249s-58.461-1.9-58.461-4.249V1209.7Z" transform="translate(-1297.047 -915.769)" fill="#f4932a"/>
        <path id="Path_2085" data-name="Path 2085" d="M2020.14,1228.3v-18.6h42.307v14.513c0,1.939-17.877,3.575-42.307,4.084" transform="translate(-1529.288 -915.77)" fill="#ffaa45"/>
        <path id="Path_2086" data-name="Path 2086" d="M1903.342,1228.339c-4.542.082-9.293.126-14.185.126-7.289,0-14.267-.1-20.7-.274V1209.7h34.887Z" transform="translate(-1414.459 -915.77)" fill="#ffaa45"/>
        <path id="Path_2087" data-name="Path 2087" d="M1748.472,1228.121c-20.828-.65-35.417-2.154-35.417-3.906V1209.7h35.417Z" transform="translate(-1296.818 -915.769)" fill="#ffaa45"/>
        <path id="Path_2088" data-name="Path 2088" d="M1713.055,1195.832c0,2.346,26.174,4.248,58.462,4.248s58.461-1.9,58.461-4.248-26.174-4.248-58.461-4.248c-32.092,0-58.462,1.9-58.462,4.248" transform="translate(-1296.818 -902.053)" fill="#f4932a"/>
        <path id="Path_2089" data-name="Path 2089" d="M1755.526,1199.892c0,1.627,21.554,2.945,48.142,2.945s48.142-1.318,48.142-2.945-21.554-2.946-48.142-2.946-48.142,1.319-48.142,2.946" transform="translate(-1328.969 -906.112)" fill="#f7cc7f"/>
        <path id="Path_2090" data-name="Path 2090" d="M1987.492,1048.972l-3.511,12.26c-.568,1.982-23.14-2.744-50.416-10.557s-48.927-15.753-48.36-17.735l3.512-12.26Z" transform="translate(-1427.13 -772.675)" fill="#f4932a"/>
        <path id="Path_2091" data-name="Path 2091" d="M2140.594,1110.7l4.5-15.711,35.741,10.238-3.512,12.26c-.469,1.638-15.968-1.306-36.729-6.787" transform="translate(-1620.474 -828.928)" fill="#ffaa45"/>
        <path id="Path_2092" data-name="Path 2092" d="M2042,1082.469c-3.857-1.029-7.881-2.142-12.014-3.326-6.158-1.764-12.029-3.534-17.423-5.241l4.473-15.618,29.472,8.442Z" transform="translate(-1523.55 -801.142)" fill="#ffaa45"/>
        <path id="Path_2093" data-name="Path 2093" d="M1914.179,1044.811c-17.439-5.589-29.4-10.39-28.975-11.869l3.512-12.26,29.92,8.57Z" transform="translate(-1427.13 -772.676)" fill="#ffaa45"/>
        <path id="Path_2094" data-name="Path 2094" d="M1899.811,1018.737c-.567,1.982,21.084,9.923,48.36,17.736s49.848,12.539,50.416,10.557-21.083-9.922-48.36-17.735-49.848-12.54-50.416-10.558" transform="translate(-1438.188 -770.862)" fill="#f4932a"/>
        <path id="Path_2095" data-name="Path 2095" d="M1935.705,1029.595c-.394,1.375,17.5,7.7,39.957,14.138s40.989,10.535,41.382,9.161-17.5-7.7-39.957-14.137-40.989-10.535-41.382-9.161" transform="translate(-1465.364 -779.223)" fill="#f7cc7f"/>
        <path id="Path_2096" data-name="Path 2096" d="M1868.7,789.837l3.739,12.193c.6,1.971-20.9,10.313-48.021,18.632s-49.606,13.465-50.21,11.494l-3.739-12.193Z" transform="translate(-1340.28 -597.922)" fill="#f4932a"/>
        <path id="Path_2097" data-name="Path 2097" d="M2033.253,816.363l-4.792-15.624,35.544-10.9,3.739,12.193c.5,1.629-14.1,7.609-34.492,14.332" transform="translate(-1535.587 -597.923)" fill="#ffaa45"/>
        <path id="Path_2098" data-name="Path 2098" d="M1935.136,852.443c-3.794,1.239-7.775,2.5-11.885,3.76-6.124,1.878-12.011,3.595-17.464,5.1l-4.763-15.532,29.31-8.989Z" transform="translate(-1439.114 -633.464)" fill="#ffaa45"/>
        <path id="Path_2099" data-name="Path 2099" d="M1804.967,891.738c-17.666,4.82-30.31,7.316-30.761,5.844l-3.739-12.193,29.755-9.125Z" transform="translate(-1340.279 -663.349)" fill="#ffaa45"/>
        <path id="Path_2100" data-name="Path 2100" d="M1770.264,818.119c.6,1.971,23.084-3.175,50.21-11.494s48.626-16.66,48.021-18.632-23.084,3.175-50.21,11.494-48.626,16.66-48.021,18.632" transform="translate(-1340.117 -596.209)" fill="#f4932a"/>
        <path id="Path_2101" data-name="Path 2101" d="M1805.963,824.285c.419,1.366,18.867-3.079,41.2-9.929s40.106-13.511,39.687-14.878-18.867,3.079-41.2,9.929-40.106,13.512-39.687,14.878" transform="translate(-1367.145 -605.034)" fill="#f7cc7f"/>
        <path id="Path_2102" data-name="Path 2102" d="M855.553,1408.587s1.445,7.668,1.447,7.684c.081,1,.05,3.525.266,4.4.812,3.279,14.6-4.69,10.984-5.331a15.017,15.017,0,0,1-3.244-3.477,30.432,30.432,0,0,1-1.815-5.066Z" transform="translate(-647.671 -1064.972)" fill="#f7a491"/>
        <path id="Path_2103" data-name="Path 2103" d="M864.436,1436.536a53.844,53.844,0,0,1-5.372,1.062c-1.812.181-4.137-2.633-5.436-2.1-1.43.586-2.209,9.516-2.209,9.516s22.748,1.036,28.125-.449c2.13-.588-8.029-5.315-15.107-8.028" transform="translate(-644.541 -1086.649)" fill="#063992"/>
        <path id="Path_2104" data-name="Path 2104" d="M986.1,1407.147s1.445,7.668,1.447,7.684c.081,1,.05,3.525.266,4.4.812,3.279,14.349-4.166,10.731-4.807a20.433,20.433,0,0,1-2.99-4,30.418,30.418,0,0,1-1.815-5.066Z" transform="translate(-746.496 -1063.882)" fill="#f7a491"/>
        <path id="Path_2105" data-name="Path 2105" d="M993.543,1436.536a53.843,53.843,0,0,1-5.372,1.062c-1.812.181-4.137-2.633-5.436-2.1-1.43.586-2.209,9.516-2.209,9.516s22.749,1.036,28.125-.449c2.13-.588-8.029-5.315-15.107-8.028" transform="translate(-742.278 -1086.649)" fill="#062d66"/>
        <path id="Path_2106" data-name="Path 2106" d="M659.2,1060.844l41.385-9.6s18.559-4.907,23.039.853,23.5,85.25,23.5,85.25-9.813.853-10.453.426L713.7,1097a35.561,35.561,0,0,1-4.237-12.54l-1.629-11.674-16.853,4.907s-19.412,4.266-27.3-.64-4.48-16.212-4.48-16.212" transform="translate(-498.472 -794.339)" fill="#062d66"/>
        <path id="Path_2107" data-name="Path 2107" d="M707.4,803.186c.654.027,2.445.624,5.064,5.558,3.345,6.3,8.234,25.332,8.234,25.332L706.1,839.492l-1.875-3.972-3.088-30.582s6.076-1.759,6.257-1.752" transform="translate(-530.778 -608.028)" fill="#f4932a"/>
        <path id="Path_2108" data-name="Path 2108" d="M566.868,791.9c4.173.006,14.5,1.219,19.29,2.745,0,0,3.52,30.156-3.17,53.07-1.5,5.129,1.239,21.263,1.239,21.263l-43.24-.569s5.122-39,3.193-45.3-1.976-28.257-1.976-28.257.3-.046,9.715-1.668a98.186,98.186,0,0,1,14.949-1.279" transform="translate(-409.538 -599.481)" fill="#f4932a"/>
        <path id="Path_2109" data-name="Path 2109" d="M523.05,817.679c4.043-1.512,6.021,34.792,6.566,49.735,7.159.686,19.639.005,22.746-.227,1.461-.109,4.831-1.339,6.284-1.529a14.6,14.6,0,0,1,3.572-.169c.269.047,7.731,3.088,8.37,3.755.792.827,2.932,2.914,2.571,3.816s-4.116-2.514-4.116-2.514l-1.835-1.026c2.285,2.224,6.642,5.154,6.015,6.22-.612,1.04-4.543-1.932-7.345-3.959,2.4,2.163,5.388,6.034,4.7,6.637-.618.542-4.014-3.939-7.643-5.229-1.345-.478-2.685.846-3.743,1.006a7.629,7.629,0,0,1-2.741.152L552.806,874a19.006,19.006,0,0,0-3.008.438c-1.569.333-4.144.683-6.142,1.17-11.507,2.8-15.346,4.1-18.869,4.1-10.672-.007-11.291-58.454-1.736-62.026" transform="translate(-390.855 -618.965)" fill="#ffb27d"/>
        <path id="Path_2110" data-name="Path 2110" d="M511.57,841.194c-.757-15.306-.647-34.172,7.963-37.39,3.4-1.27,9.385,6.366,8.308,37.7-4.6.378-11.344.683-16.271-.311" transform="translate(-387.048 -608.396)" fill="#f4932a"/>
        <path id="Path_2111" data-name="Path 2111" d="M666.741,919.579,626,922.24a2.661,2.661,0,0,0-2.35,1.809l-10.546,31.413-22.46,1.467a1.139,1.139,0,1,0,.148,2.273l63.922-4.175a4.472,4.472,0,0,0,3.9-2.9l10.793-28.961a2.662,2.662,0,0,0-2.668-3.586" transform="translate(-446.326 -696.135)" fill="#3868ad"/>
        <path id="Path_2112" data-name="Path 2112" d="M809.725,991.168a2.247,2.247,0,1,1-2.076-2.666,2.4,2.4,0,0,1,2.076,2.666" transform="translate(-609.609 -748.313)" fill="#fff"/>
        <path id="Path_2113" data-name="Path 2113" d="M539.926,1076.075l45.1-7.786s19.5-2.97,23.978,2.789,17.492,80.422,17.492,80.422-9.813.854-10.453.427c-.5-.33-12.376-25.222-17.712-36.437a42.628,42.628,0,0,1-3.54-11.222l-1.715-10.162-5.675,1.954a69.263,69.263,0,0,1-31.065,3.324c-4.382-.544-8.472-1.48-11.009-3.057-7.893-4.906-5.4-20.253-5.4-20.253" transform="translate(-408.452 -808.136)" fill="#063992"/>
        <path id="Path_2114" data-name="Path 2114" d="M621.969,737.3l.878,6.512s1.966,9.383-.564,11.191-10.758-11.458-10.758-11.458l.869-16.5Z" transform="translate(-462.937 -550.384)" fill="#ffb27d"/>
        <path id="Path_2115" data-name="Path 2115" d="M613.946,732.389a18.72,18.72,0,0,0,10.6,10.43L623.8,737.3l-9.575-10.257Z" transform="translate(-464.77 -550.384)" fill="#fca56b"/>
        <path id="Path_2116" data-name="Path 2116" d="M617.946,652.792a8.7,8.7,0,0,1,10.035,8.782,65.753,65.753,0,0,1-.734,8.353c-1.165,7.518-6.312,14.137-9.715,13.546S605.567,676.4,607.075,665.7c.931-6.6,5.246-12,10.872-12.907" transform="translate(-459.435 -494.093)" fill="#ffb27d"/>
        <path id="Path_2117" data-name="Path 2117" d="M601.919,700.766a2.535,2.535,0,1,1-1.928-3.418,2.8,2.8,0,0,1,1.928,3.418" transform="translate(-451.917 -527.883)" fill="#ffb27d"/>
        <path id="Path_2118" data-name="Path 2118" d="M605.361,655.786s4.114,1.019,5.641-1.618,6.986-8.328,13.927-5.969-6.107-5.737-6.663-5.737-7.218-.046-7.218-.046-5.136,4.21-5.321,4.673-1.666,5.506-1.666,5.506Z" transform="translate(-457.287 -486.321)" fill="#062d66"/>
        <rect id="Rectangle_681" data-name="Rectangle 681" width="102.416" height="37.275" transform="translate(349.683 321.431)" fill="#4979b8"/>
        <rect id="Rectangle_682" data-name="Rectangle 682" width="102.416" height="4.795" transform="translate(349.683 326.863)" fill="#67b8ee"/>
        <rect id="Rectangle_683" data-name="Rectangle 683" width="102.416" height="4.795" transform="translate(349.683 336.23)" fill="#67b8ee"/>
        <rect id="Rectangle_684" data-name="Rectangle 684" width="102.416" height="4.795" transform="translate(349.683 345.597)" fill="#67b8ee"/>
        <rect id="Rectangle_685" data-name="Rectangle 685" width="102.416" height="4.795" transform="translate(349.683 353.911)" fill="#67b8ee"/>
        <rect id="Rectangle_686" data-name="Rectangle 686" width="21.3" height="37.275" transform="translate(387.808 321.431)" fill="#f7cc7f"/>
        <rect id="Rectangle_687" data-name="Rectangle 687" width="15.467" height="37.275" transform="translate(450.856 321.431)" fill="#3868ad"/>
        <g id="Group_955" data-name="Group 955" transform="translate(157.933 53.871)" opacity="0.8">
          <g id="Group_954" data-name="Group 954">
            <g id="Group_953" data-name="Group 953" clip-path="url(#clip-path-13)">
              <path id="Path_2119" data-name="Path 2119" d="M732.418,246.14a10.176,10.176,0,0,0-12.474-7.556,14.978,14.978,0,0,0-18.009-7.956,18.45,18.45,0,0,0-33.14,3.224,12.656,12.656,0,0,0-18.81,11.06c0,.414.021.824.06,1.228Z" transform="translate(-649.984 -221.706)" fill="#fff"/>
            </g>
          </g>
        </g>
        <g id="Group_958" data-name="Group 958" transform="translate(215.104 110.048)" opacity="0.8">
          <g id="Group_957" data-name="Group 957">
            <g id="Group_956" data-name="Group 956" clip-path="url(#clip-path-14)">
              <path id="Path_2120" data-name="Path 2120" d="M947.658,471.4a7.7,7.7,0,0,0-9.44-5.718,11.336,11.336,0,0,0-13.629-6.021,13.963,13.963,0,0,0-25.08,2.44,9.578,9.578,0,0,0-14.234,8.37c0,.314.016.623.046.929Z" transform="translate(-885.275 -452.907)" fill="#fff"/>
            </g>
          </g>
        </g>
        <g id="Group_961" data-name="Group 961" transform="translate(103.901 105.354)" opacity="0.8">
          <g id="Group_960" data-name="Group 960">
            <g id="Group_959" data-name="Group 959" clip-path="url(#clip-path-15)">
              <path id="Path_2121" data-name="Path 2121" d="M427.613,449.712a6.715,6.715,0,0,1,8.232-4.986,9.884,9.884,0,0,1,11.884-5.25A12.175,12.175,0,0,1,469.6,441.6a8.352,8.352,0,0,1,12.413,7.3c0,.274-.014.544-.04.811Z" transform="translate(-427.613 -433.588)" fill="#fff"/>
            </g>
          </g>
        </g>
        <path id="Path_2122" data-name="Path 2122" d="M901.22,642.128l.726,8.832,5.13-5.778,16.592-13.589-14.148,4.458s-6.966,3.384-7.286,3.831a18.308,18.308,0,0,0-1.013,2.246" transform="translate(-682.242 -478.129)" fill="#4979b8"/>
        <path id="Path_2123" data-name="Path 2123" d="M870.278,638.333l29.966-6.739L877.8,642.128Z" transform="translate(-658.818 -478.129)" fill="#67b8ee"/>
        <path id="Path_2124" data-name="Path 2124" d="M919.873,648.668l-9.237-4.609,20.16-12.466Z" transform="translate(-689.37 -478.129)" fill="#67b8ee"/>
        <path id="Path_2125" data-name="Path 2125" d="M886.115,691.156a10.964,10.964,0,0,1,2.413-.634l-.068-.642a11.428,11.428,0,0,0-2.573.672Z" transform="translate(-670.635 -522.253)" fill="#67b8ee"/>
        <path id="Path_2126" data-name="Path 2126" d="M825.959,753.594a26.253,26.253,0,0,0,3.249-3.553l.515.389a26.863,26.863,0,0,1-3.329,3.64Zm5.744-7.662c.317-.665.608-1.357.866-2.059.292-.794.551-1.624.768-2.467l.625.161c-.223.864-.488,1.715-.787,2.529-.265.72-.564,1.431-.889,2.113Zm2.608-14.12.645-.015a41.817,41.817,0,0,1-.159,4.915l-.643-.061a41.01,41.01,0,0,0,.156-4.839m-.919-9.678.639-.091c.27,1.889.464,3.433.607,4.858l-.642.065c-.143-1.416-.335-2.951-.6-4.832m-.723-4.862a23.8,23.8,0,0,1-.244-4.9l.644.04a23.154,23.154,0,0,0,.238,4.765l.006.038-.64.088Zm.812-9.752a11.725,11.725,0,0,1,2.8-4.118l.444.469a11.082,11.082,0,0,0-2.649,3.893Z" transform="translate(-625.268 -532.489)" fill="#67b8ee"/>
      </g>
    </g>
  </g>
</svg>
