<svg xmlns="http://www.w3.org/2000/svg" xmlns:xlink="http://www.w3.org/1999/xlink" width="445.536" height="444.549" viewBox="0 0 445.536 444.549">
  <defs>
    <clipPath id="clip-path">
      <rect id="Rectangle_443" data-name="Rectangle 443" width="445.536" height="444.549" fill="none"/>
    </clipPath>
    <clipPath id="clip-path-2">
      <rect id="Rectangle_431" data-name="Rectangle 431" width="129.831" height="79.352" fill="none"/>
    </clipPath>
    <clipPath id="clip-path-3">
      <rect id="Rectangle_432" data-name="Rectangle 432" width="38.366" height="20.06" fill="none"/>
    </clipPath>
    <clipPath id="clip-path-4">
      <rect id="Rectangle_433" data-name="Rectangle 433" width="64.102" height="64.103" fill="none"/>
    </clipPath>
    <clipPath id="clip-path-5">
      <rect id="Rectangle_434" data-name="Rectangle 434" width="32.52" height="17.003" fill="none"/>
    </clipPath>
    <clipPath id="clip-path-6">
      <rect id="Rectangle_435" data-name="Rectangle 435" width="54.336" height="54.335" fill="none"/>
    </clipPath>
    <clipPath id="clip-path-7">
      <rect id="Rectangle_436" data-name="Rectangle 436" width="23.053" height="12.053" fill="none"/>
    </clipPath>
    <clipPath id="clip-path-8">
      <rect id="Rectangle_437" data-name="Rectangle 437" width="38.517" height="38.517" fill="none"/>
    </clipPath>
    <clipPath id="clip-path-9">
      <rect id="Rectangle_438" data-name="Rectangle 438" width="20.939" height="10.947" fill="none"/>
    </clipPath>
    <clipPath id="clip-path-10">
      <rect id="Rectangle_439" data-name="Rectangle 439" width="34.983" height="34.984" fill="none"/>
    </clipPath>
    <clipPath id="clip-path-11">
      <rect id="Rectangle_441" data-name="Rectangle 441" width="55.591" height="108.575" fill="none"/>
    </clipPath>
    <clipPath id="clip-path-12">
      <rect id="Rectangle_442" data-name="Rectangle 442" width="8.305" height="37.899" fill="none"/>
    </clipPath>
  </defs>
  <g id="Group_594" data-name="Group 594" clip-path="url(#clip-path)">
    <path id="Path_1294" data-name="Path 1294" d="M51.169,381.126c9.065,9.543,17.642,15.7,24.418,20.559C155.244,458.84,249.5,442.18,269.531,438.111c29.581-6.008,86.76-17.621,128.1-66.236,62.543-73.549,52.8-189.424,4.292-265.914C393.048,91.97,346.174,14.315,250.9,1.861,193.248-5.676,126.039,9.525,77.368,50.3-24.8,135.895-17.523,308.809,51.169,381.126" transform="translate(0 0)" fill="#e7f3fd"/>
    <path id="Path_1295" data-name="Path 1295" d="M523.158,1147.618a7,7,0,0,1-6.979,6.973H138.785a7,7,0,0,1-6.979-6.973l-3.14-216.878c0-3.835,4.518-11.321,12.8-10.759l368.831-9.543a17.586,17.586,0,0,1,18.046,17.987Z" transform="translate(-108.238 -765.886)" fill="#063992"/>
    <path id="Path_1296" data-name="Path 1296" d="M567.421,1184.749a6.622,6.622,0,0,1-6.6,6.6H199.04a6.622,6.622,0,0,1-6.6-6.6l-2.963-196.883c.349-11.848,10.736-16.106,17.033-15.855L560,962.528a12.36,12.36,0,0,1,12.681,12.648Z" transform="translate(-159.392 -809.706)" fill="#67b8ee"/>
    <path id="Path_1297" data-name="Path 1297" d="M226.4,1678.241h.014a.967.967,0,0,0,.953-.982l-.234-15.967a.968.968,0,0,0-.967-.953h-.014a.967.967,0,0,0-.953.983l.234,15.967a.968.968,0,0,0,.967.953" transform="translate(-189.443 -1396.731)" fill="#fff"/>
    <g id="Group_563" data-name="Group 563" transform="translate(34.515 163.03)" opacity="0.78">
      <g id="Group_562" data-name="Group 562">
        <g id="Group_561" data-name="Group 561" clip-path="url(#clip-path-2)">
          <path id="Path_1298" data-name="Path 1298" d="M219.26,1106.2h.014a.968.968,0,0,0,.953-.982l-.9-61.154a11.486,11.486,0,0,1,3.277-8.6c4.029-3.859,10.424-3.662,10.694-3.65l112.983-3.03a.967.967,0,0,0,.941-.993.926.926,0,0,0-.993-.941l-112.916,3.03c-.7-.042-7.512-.159-12.047,4.186-2.551,2.444-3.855,5.812-3.874,10.008l.9,61.173a.967.967,0,0,0,.967.953" transform="translate(-217.395 -1026.846)" fill="#fff"/>
        </g>
      </g>
    </g>
    <path id="Path_1299" data-name="Path 1299" d="M447.835,2460.7H4.7a.9.9,0,0,1-.9-.9v-17.26a.9.9,0,0,1,.9-.9H447.835a.9.9,0,0,1,.9.9v17.26a.9.9,0,0,1-.9.9" transform="translate(-3.198 -2053.987)" fill="#063992"/>
    <path id="Path_1300" data-name="Path 1300" d="M1403.36,349.642a46.393,46.393,0,1,0,46.392-46.393,46.392,46.392,0,0,0-46.392,46.393" transform="translate(-1180.552 -255.103)" fill="#3868ad"/>
    <path id="Path_1301" data-name="Path 1301" d="M1413.076,357.815a44.85,44.85,0,1,0,44.85-44.85,44.85,44.85,0,0,0-44.85,44.85" transform="translate(-1188.726 -263.276)" fill="#062d66"/>
    <path id="Path_1302" data-name="Path 1302" d="M1950.274,552.024h.025a.474.474,0,0,0,.448-.5,42.115,42.115,0,0,0-.609-5.26.474.474,0,1,0-.932.169,41.316,41.316,0,0,1,.6,5.14.473.473,0,0,0,.472.449" transform="translate(-1639.729 -459.209)" fill="#91b3fa"/>
    <path id="Path_1303" data-name="Path 1303" d="M1690.462,355.418a.474.474,0,0,0,.422-.687,41.7,41.7,0,0,0-37.406-23.031,42.207,42.207,0,0,0-7.554.68.474.474,0,1,0,.17.932,41.31,41.31,0,0,1,7.384-.664,40.758,40.758,0,0,1,36.56,22.51.473.473,0,0,0,.423.261" transform="translate(-1384.278 -279.036)" fill="#91b3fa"/>
    <path id="Path_1304" data-name="Path 1304" d="M1450.318,400.477a37.96,37.96,0,1,0,37.96-37.96,37.96,37.96,0,0,0-37.96,37.96" transform="translate(-1220.055 -304.961)" fill="#3868ad"/>
    <path id="Path_1305" data-name="Path 1305" d="M1619.325,446.847c0,6.65,5.391,13.828,12.04,13.828s12.04-7.179,12.04-13.828-5.391-11.367-12.04-11.367-12.04,4.718-12.04,11.367" transform="translate(-1362.229 -366.34)" fill="#d2ebff"/>
    <path id="Path_1306" data-name="Path 1306" d="M1587.45,640.118h-29.392a7.115,7.115,0,0,1-6.776-4.947l-1.582-4.943a7.107,7.107,0,0,1,4.294-8.843c11.961-4.374,24.33-3.813,37,.4a7.085,7.085,0,0,1,4.54,8.588l-1.218,4.489a7.115,7.115,0,0,1-6.866,5.252" transform="translate(-1303.371 -520.181)" fill="#d2ebff"/>
    <path id="Path_1307" data-name="Path 1307" d="M758.463,221.344a35.251,35.251,0,1,0,35.25-35.25,35.25,35.25,0,0,0-35.25,35.25" transform="translate(-638.044 -156.548)" fill="#3868ad"/>
    <path id="Path_1308" data-name="Path 1308" d="M765.846,227.554a34.078,34.078,0,1,0,34.078-34.078,34.078,34.078,0,0,0-34.078,34.078" transform="translate(-644.255 -162.758)" fill="#062d66"/>
    <path id="Path_1309" data-name="Path 1309" d="M1174.026,375.12h.019a.36.36,0,0,0,.341-.378,32.011,32.011,0,0,0-.462-4,.36.36,0,1,0-.709.128,31.284,31.284,0,0,1,.452,3.906.36.36,0,0,0,.359.341" transform="translate(-986.942 -311.634)" fill="#91b3fa"/>
    <path id="Path_1310" data-name="Path 1310" d="M976.612,225.733a.355.355,0,0,0,.162-.039.36.36,0,0,0,.159-.483,31.685,31.685,0,0,0-28.422-17.5,32.051,32.051,0,0,0-5.74.517.36.36,0,1,0,.129.708,31.374,31.374,0,0,1,5.611-.5,30.969,30.969,0,0,1,27.779,17.1.36.36,0,0,0,.322.2" transform="translate(-792.842 -174.733)" fill="#91b3fa"/>
    <path id="Path_1311" data-name="Path 1311" d="M794.144,259.969a28.843,28.843,0,1,0,28.843-28.843,28.843,28.843,0,0,0-28.843,28.843" transform="translate(-668.06 -194.431)" fill="#3868ad"/>
    <path id="Path_1312" data-name="Path 1312" d="M922.561,295.2c0,5.053,4.1,10.507,9.148,10.507s9.148-5.455,9.148-10.507-4.1-8.637-9.148-8.637-9.148,3.585-9.148,8.637" transform="translate(-776.089 -241.069)" fill="#d2ebff"/>
    <path id="Path_1313" data-name="Path 1313" d="M898.341,442.058H876.008a5.406,5.406,0,0,1-5.149-3.758l-1.2-3.756a5.4,5.4,0,0,1,3.263-6.719c9.089-3.323,18.487-2.9,28.114.307a5.383,5.383,0,0,1,3.45,6.526l-.925,3.411a5.406,5.406,0,0,1-5.217,3.99" transform="translate(-731.366 -357.963)" fill="#d2ebff"/>
    <path id="Path_1314" data-name="Path 1314" d="M2088.555,244.576a35.25,35.25,0,1,0,35.25-35.25,35.251,35.251,0,0,0-35.25,35.25" transform="translate(-1756.961 -176.091)" fill="#3868ad"/>
    <path id="Path_1315" data-name="Path 1315" d="M2095.938,250.785a34.078,34.078,0,1,0,34.079-34.078,34.079,34.079,0,0,0-34.079,34.078" transform="translate(-1763.172 -182.301)" fill="#062d66"/>
    <path id="Path_1316" data-name="Path 1316" d="M2504.118,398.351h.019a.36.36,0,0,0,.34-.378,31.94,31.94,0,0,0-.462-4,.36.36,0,1,0-.708.128,31.374,31.374,0,0,1,.452,3.906.36.36,0,0,0,.359.341" transform="translate(-2105.858 -331.177)" fill="#91b3fa"/>
    <path id="Path_1317" data-name="Path 1317" d="M2306.705,248.965a.353.353,0,0,0,.162-.039.36.36,0,0,0,.159-.483,31.685,31.685,0,0,0-28.422-17.5,32.066,32.066,0,0,0-5.739.517.36.36,0,1,0,.129.708,31.385,31.385,0,0,1,5.61-.5,30.969,30.969,0,0,1,27.78,17.1.36.36,0,0,0,.321.2" transform="translate(-1911.76 -194.277)" fill="#91b3fa"/>
    <path id="Path_1318" data-name="Path 1318" d="M2124.237,283.2a28.843,28.843,0,1,0,28.843-28.843,28.843,28.843,0,0,0-28.843,28.843" transform="translate(-1786.977 -213.974)" fill="#3868ad"/>
    <path id="Path_1319" data-name="Path 1319" d="M2252.653,318.435c0,5.053,4.1,10.507,9.149,10.507s9.148-5.455,9.148-10.507-4.1-8.637-9.148-8.637-9.149,3.585-9.149,8.637" transform="translate(-1895.005 -260.612)" fill="#d2ebff"/>
    <path id="Path_1320" data-name="Path 1320" d="M2228.432,465.289H2206.1a5.406,5.406,0,0,1-5.149-3.758l-1.2-3.756a5.4,5.4,0,0,1,3.263-6.719c9.089-3.323,18.487-2.9,28.114.307a5.383,5.383,0,0,1,3.449,6.525l-.926,3.411a5.405,5.405,0,0,1-5.217,3.99" transform="translate(-1850.282 -377.506)" fill="#d2ebff"/>
    <path id="Path_1321" data-name="Path 1321" d="M1249.648,2225.366a39.172,39.172,0,0,0,78.344,0c0-20.548-17.538-39.172-39.172-39.172a39.172,39.172,0,0,0-39.172,39.172" transform="translate(-1051.245 -1839.098)" fill="#ffb93e"/>
    <path id="Path_1322" data-name="Path 1322" d="M1257.853,2232.268a37.869,37.869,0,1,0,37.869-37.869,37.869,37.869,0,0,0-37.869,37.869" transform="translate(-1058.147 -1846)" fill="#ffa412"/>
    <g id="Group_566" data-name="Group 566" transform="translate(230.853 350.894)" opacity="0.78">
      <g id="Group_565" data-name="Group 565">
        <g id="Group_564" data-name="Group 564" clip-path="url(#clip-path-3)">
          <path id="Path_1323" data-name="Path 1323" d="M1491.977,2230.173a.416.416,0,0,0,.371-.6,35.226,35.226,0,0,0-31.6-19.456,35.692,35.692,0,0,0-6.381.574.417.417,0,1,0,.15.82,34.84,34.84,0,0,1,6.232-.561,34.4,34.4,0,0,1,30.855,19,.416.416,0,0,0,.372.229" transform="translate(-1454.027 -2210.113)" fill="#fff"/>
        </g>
      </g>
    </g>
    <g id="Group_569" data-name="Group 569" transform="translate(204.699 355.041)" opacity="0.78">
      <g id="Group_568" data-name="Group 568">
        <g id="Group_567" data-name="Group 567" clip-path="url(#clip-path-4)">
          <path id="Path_1324" data-name="Path 1324" d="M1289.3,2268.289a32.052,32.052,0,1,0,32.052-32.051,32.052,32.052,0,0,0-32.052,32.051" transform="translate(-1289.299 -2236.237)" fill="#fff"/>
        </g>
      </g>
    </g>
    <path id="Path_1325" data-name="Path 1325" d="M1410.946,2341.751v-3.488a28.432,28.432,0,0,1-9.784-2.121,2.017,2.017,0,0,1-1.115-2.383l.886-3.248a2.034,2.034,0,0,1,2.76-1.33,23.614,23.614,0,0,0,9.034,1.9c3.5,0,6.112-1.187,6.112-3.62,0-2.2-2.017-3.5-6.884-4.807-6.943-1.9-11.928-4.926-11.928-11.038,0-5.519,4.036-9.732,11.038-10.859v-3.488a2.032,2.032,0,0,1,2.032-2.032h2.049a2.032,2.032,0,0,1,2.032,2.032v3.131a25.931,25.931,0,0,1,7.755,1.393,2.022,2.022,0,0,1,1.263,2.44l-.815,3a2.026,2.026,0,0,1-2.675,1.368,21.161,21.161,0,0,0-7.606-1.381c-4.154,0-5.341,1.721-5.341,3.264,0,1.9,2.492,3.2,7.892,4.866,7.715,2.314,10.92,5.519,10.92,11.275,0,5.281-3.917,10.029-11.513,11.217v3.9a2.032,2.032,0,0,1-2.032,2.032h-2.049a2.032,2.032,0,0,1-2.032-2.032" transform="translate(-1177.704 -1930.83)" fill="#ffa412"/>
    <path id="Path_1326" data-name="Path 1326" d="M701.847,1898.737a33.2,33.2,0,0,0,33.2,33.2c18.338,0,33.2-13.779,33.2-33.2a33.2,33.2,0,0,0-66.406,0" transform="translate(-590.417 -1569.348)" fill="#ffb93e"/>
    <path id="Path_1327" data-name="Path 1327" d="M708.8,1904.587a32.1,32.1,0,1,0,32.1-32.1,32.1,32.1,0,0,0-32.1,32.1" transform="translate(-596.267 -1575.198)" fill="#ffa412"/>
    <g id="Group_572" data-name="Group 572" transform="translate(138.934 299.405)" opacity="0.78">
      <g id="Group_571" data-name="Group 571">
        <g id="Group_570" data-name="Group 570" clip-path="url(#clip-path-5)">
          <path id="Path_1328" data-name="Path 1328" d="M907.249,1902.811a.349.349,0,0,0,.159-.038.353.353,0,0,0,.156-.474,29.858,29.858,0,0,0-26.784-16.491,30.259,30.259,0,0,0-5.409.487.353.353,0,1,0,.127.695,29.537,29.537,0,0,1,5.282-.475,29.156,29.156,0,0,1,26.153,16.1.353.353,0,0,0,.316.194" transform="translate(-875.082 -1885.808)" fill="#fff"/>
        </g>
      </g>
    </g>
    <g id="Group_575" data-name="Group 575" transform="translate(116.766 302.92)" opacity="0.78">
      <g id="Group_574" data-name="Group 574">
        <g id="Group_573" data-name="Group 573" clip-path="url(#clip-path-6)">
          <path id="Path_1329" data-name="Path 1329" d="M735.454,1935.119a27.168,27.168,0,1,0,27.168-27.168,27.168,27.168,0,0,0-27.168,27.168" transform="translate(-735.454 -1907.951)" fill="#fff"/>
        </g>
      </g>
    </g>
    <path id="Path_1330" data-name="Path 1330" d="M838.565,1997.387v-2.956a24.1,24.1,0,0,1-8.294-1.8,1.71,1.71,0,0,1-.945-2.02l.751-2.753a1.723,1.723,0,0,1,2.339-1.128,20.009,20.009,0,0,0,7.657,1.612c2.968,0,5.181-1.006,5.181-3.069,0-1.861-1.71-2.968-5.835-4.074-5.885-1.61-10.111-4.175-10.111-9.356,0-4.678,3.421-8.25,9.356-9.2v-2.956a1.722,1.722,0,0,1,1.722-1.722h1.737a1.722,1.722,0,0,1,1.722,1.722v2.654a21.988,21.988,0,0,1,6.574,1.181,1.714,1.714,0,0,1,1.071,2.069l-.691,2.546a1.717,1.717,0,0,1-2.267,1.16,17.934,17.934,0,0,0-6.447-1.171c-3.521,0-4.527,1.459-4.527,2.767,0,1.61,2.112,2.716,6.69,4.125,6.539,1.962,9.255,4.678,9.255,9.557,0,4.477-3.32,8.5-9.758,9.507v3.308a1.722,1.722,0,0,1-1.722,1.722h-1.737a1.722,1.722,0,0,1-1.722-1.722" transform="translate(-697.605 -1647.103)" fill="#ffa412"/>
    <path id="Path_1331" data-name="Path 1331" d="M1737.329,2069.67c0,14.085,10.537,23.537,23.536,23.537a23.536,23.536,0,1,0-23.536-23.537" transform="translate(-1461.498 -1721.275)" fill="#ffb93e"/>
    <path id="Path_1332" data-name="Path 1332" d="M1742.259,2073.817a22.754,22.754,0,1,0,22.754-22.754,22.754,22.754,0,0,0-22.754,22.754" transform="translate(-1465.645 -1725.422)" fill="#ffa412"/>
    <g id="Group_578" data-name="Group 578" transform="translate(295.328 327.141)" opacity="0.78">
      <g id="Group_577" data-name="Group 577">
        <g id="Group_576" data-name="Group 576" clip-path="url(#clip-path-7)">
          <path id="Path_1333" data-name="Path 1333" d="M1882.933,2072.558a.25.25,0,0,0,.223-.363,21.166,21.166,0,0,0-18.986-11.69,21.45,21.45,0,0,0-3.834.345.25.25,0,1,0,.09.492,21,21,0,0,1,3.745-.336,20.667,20.667,0,0,1,18.539,11.414.251.251,0,0,0,.224.138" transform="translate(-1860.13 -2060.505)" fill="#fff"/>
        </g>
      </g>
    </g>
    <g id="Group_581" data-name="Group 581" transform="translate(279.613 329.633)" opacity="0.78">
      <g id="Group_580" data-name="Group 580">
        <g id="Group_579" data-name="Group 579" clip-path="url(#clip-path-8)">
          <path id="Path_1334" data-name="Path 1334" d="M1761.153,2095.46a19.258,19.258,0,1,0,19.258-19.259,19.258,19.258,0,0,0-19.258,19.259" transform="translate(-1761.153 -2076.202)" fill="#fff"/>
        </g>
      </g>
    </g>
    <path id="Path_1335" data-name="Path 1335" d="M1834.245,2139.6v-2.1a17.08,17.08,0,0,1-5.879-1.275,1.212,1.212,0,0,1-.67-1.432l.532-1.951a1.221,1.221,0,0,1,1.658-.8,14.188,14.188,0,0,0,5.428,1.143c2.1,0,3.673-.713,3.673-2.175,0-1.319-1.212-2.1-4.136-2.888-4.172-1.141-7.167-2.96-7.167-6.632,0-3.316,2.425-5.848,6.632-6.525v-2.1a1.221,1.221,0,0,1,1.221-1.221h1.231a1.221,1.221,0,0,1,1.221,1.221v1.882a15.566,15.566,0,0,1,4.66.837,1.215,1.215,0,0,1,.759,1.466l-.49,1.805a1.218,1.218,0,0,1-1.607.822,12.709,12.709,0,0,0-4.57-.83c-2.5,0-3.209,1.034-3.209,1.961,0,1.141,1.5,1.925,4.742,2.924,4.636,1.39,6.561,3.316,6.561,6.774,0,3.174-2.354,6.026-6.917,6.74v2.345a1.221,1.221,0,0,1-1.221,1.221h-1.231a1.221,1.221,0,0,1-1.221-1.221" transform="translate(-1537.481 -1776.392)" fill="#ffa412"/>
    <path id="Path_1336" data-name="Path 1336" d="M850.812,2458.1a21.377,21.377,0,1,0,21.378-21.377,21.378,21.378,0,0,0-21.378,21.377" transform="translate(-715.731 -2049.849)" fill="#ffb93e"/>
    <path id="Path_1337" data-name="Path 1337" d="M855.289,2464.431a20.667,20.667,0,1,0,20.667-20.667,20.667,20.667,0,0,0-20.667,20.667" transform="translate(-719.497 -2055.774)" fill="#ffa412"/>
    <g id="Group_584" data-name="Group 584" transform="translate(152.789 388.944)" opacity="0.78">
      <g id="Group_583" data-name="Group 583">
        <g id="Group_582" data-name="Group 582" clip-path="url(#clip-path-9)">
          <path id="Path_1338" data-name="Path 1338" d="M983.058,2460.721a.222.222,0,0,0,.1-.024.227.227,0,0,0,.1-.305,19.224,19.224,0,0,0-17.244-10.617,19.461,19.461,0,0,0-3.482.313.227.227,0,1,0,.081.447,19.033,19.033,0,0,1,3.4-.306,18.771,18.771,0,0,1,16.838,10.368.228.228,0,0,0,.2.125" transform="translate(-962.348 -2449.775)" fill="#fff"/>
        </g>
      </g>
    </g>
    <g id="Group_587" data-name="Group 587" transform="translate(138.517 391.208)" opacity="0.78">
      <g id="Group_586" data-name="Group 586">
        <g id="Group_585" data-name="Group 585" clip-path="url(#clip-path-10)">
          <path id="Path_1339" data-name="Path 1339" d="M872.45,2481.522a17.492,17.492,0,1,0,17.492-17.491,17.492,17.492,0,0,0-17.492,17.491" transform="translate(-872.45 -2464.031)" fill="#fff"/>
        </g>
      </g>
    </g>
    <path id="Path_1340" data-name="Path 1340" d="M938.837,2521.613v-1.9a15.516,15.516,0,0,1-5.34-1.158,1.1,1.1,0,0,1-.608-1.3l.483-1.772a1.109,1.109,0,0,1,1.506-.726,12.883,12.883,0,0,0,4.93,1.038c1.911,0,3.336-.648,3.336-1.976,0-1.2-1.1-1.911-3.757-2.623-3.789-1.036-6.51-2.688-6.51-6.024,0-3.012,2.2-5.312,6.024-5.927v-1.9a1.109,1.109,0,0,1,1.109-1.109h1.118a1.109,1.109,0,0,1,1.109,1.109v1.709a14.16,14.16,0,0,1,4.232.76,1.1,1.1,0,0,1,.69,1.332l-.445,1.639a1.106,1.106,0,0,1-1.46.747,11.548,11.548,0,0,0-4.151-.754c-2.267,0-2.915.939-2.915,1.781,0,1.036,1.36,1.749,4.307,2.656,4.21,1.263,5.959,3.012,5.959,6.153,0,2.882-2.137,5.473-6.283,6.121v2.129a1.109,1.109,0,0,1-1.109,1.109h-1.118a1.109,1.109,0,0,1-1.109-1.109" transform="translate(-784.743 -2099.91)" fill="#ffa412"/>
    <path id="Path_1341" data-name="Path 1341" d="M979.378,917.6h125.508c24.57-50.3,49.141-101.137,73.711-151.438H905.666c24.57,50.3,49.141,101.137,73.712,151.438" transform="translate(-761.876 -644.517)" fill="#ffa412"/>
    <path id="Rectangle_440" data-name="Rectangle 440" d="M5.886,0H284.147a5.886,5.886,0,0,1,5.886,5.886v0a5.886,5.886,0,0,1-5.886,5.886H5.886A5.886,5.886,0,0,1,0,5.886v0A5.886,5.886,0,0,1,5.886,0Z" transform="translate(135.51 115.755)" fill="#f4d7ae"/>
    <path id="Path_1342" data-name="Path 1342" d="M1377.179,1778.856h107.485c3.116-18.729,6.231-39.063,9.346-58.863H1367.833c3.115,19.8,6.231,40.134,9.346,58.863" transform="translate(-1150.666 -1446.914)" fill="#ffa412"/>
    <path id="Path_1343" data-name="Path 1343" d="M1406.264,2060.242c0,2.178,1.379,4.127,2.963,4.127H1518.1c1.584,0,2.68-1.949,2.68-4.127v-2.426c0-2.178-1.1-4.149-2.68-4.149H1409.227c-1.583,0-2.963,1.97-2.963,4.149Z" transform="translate(-1182.995 -1727.612)" fill="#f4d7ae"/>
    <g id="Group_590" data-name="Group 590" transform="translate(347.972 138.366)" opacity="0.78">
      <g id="Group_589" data-name="Group 589">
        <g id="Group_588" data-name="Group 588" clip-path="url(#clip-path-11)">
          <path id="Path_1344" data-name="Path 1344" d="M2192.556,980.074a.893.893,0,0,0,.847-.49l53.806-106.79a.893.893,0,1,0-1.594-.8l-53.806,106.79a.893.893,0,0,0,.747,1.293" transform="translate(-2191.712 -871.5)" fill="#fff"/>
        </g>
      </g>
    </g>
    <g id="Group_593" data-name="Group 593" transform="translate(328.464 279.1)" opacity="0.78">
      <g id="Group_592" data-name="Group 592">
        <g id="Group_591" data-name="Group 591" clip-path="url(#clip-path-12)">
          <path id="Path_1345" data-name="Path 1345" d="M2069.689,1795.82a.893.893,0,0,0,.927-.733l6.52-36.113a.893.893,0,0,0-1.757-.317l-6.519,36.113a.893.893,0,0,0,.72,1.037.907.907,0,0,0,.11.013" transform="translate(-2068.844 -1757.922)" fill="#fff"/>
        </g>
      </g>
    </g>
    <path id="Path_1346" data-name="Path 1346" d="M319.8,1295.6s11.367,38.616-26.793,58.217l-9.518-4.832s29.587-21.89,32.133-48.668a2.507,2.507,0,0,0-1.733-2.642l-8.5-4.607c-1.381-.433-2.159-3.136-2.875-4.394l-1.721-9.613Z" transform="translate(-238.483 -1075.985)" fill="#ffb27d"/>
    <path id="Path_1347" data-name="Path 1347" d="M138.529,739.362a56.9,56.9,0,1,0,56.9-56.9,56.9,56.9,0,0,0-56.9,56.9" transform="translate(-116.535 -574.11)" fill="#3868ad"/>
    <path id="Path_1348" data-name="Path 1348" d="M150.446,749.386a55.007,55.007,0,1,0,55.007-55.007,55.007,55.007,0,0,0-55.007,55.007" transform="translate(-126.56 -584.134)" fill="#062d66"/>
    <path id="Path_1349" data-name="Path 1349" d="M809.3,987.577h.031a.581.581,0,0,0,.55-.611,51.61,51.61,0,0,0-.746-6.451.581.581,0,1,0-1.144.207,50.608,50.608,0,0,1,.73,6.3.581.581,0,0,0,.58.551" transform="translate(-679.702 -824.439)" fill="#91b3fa"/>
    <path id="Path_1350" data-name="Path 1350" d="M490.651,746.446a.575.575,0,0,0,.261-.062.581.581,0,0,0,.257-.781,51.143,51.143,0,0,0-45.877-28.247,51.759,51.759,0,0,0-9.264.834.581.581,0,1,0,.208,1.143,50.658,50.658,0,0,1,9.056-.815,49.988,49.988,0,0,1,44.839,27.608.581.581,0,0,0,.519.32" transform="translate(-366.399 -603.463)" fill="#91b3fa"/>
    <path id="Path_1351" data-name="Path 1351" d="M196.121,801.709a46.557,46.557,0,1,0,46.557-46.557,46.557,46.557,0,0,0-46.557,46.557" transform="translate(-164.983 -635.258)" fill="#3868ad"/>
    <path id="Path_1352" data-name="Path 1352" d="M403.4,858.581c0,8.156,6.611,16.96,14.767,16.96s14.767-8.8,14.767-16.96-6.611-13.941-14.767-13.941S403.4,850.426,403.4,858.581" transform="translate(-339.357 -710.539)" fill="#d2ebff"/>
    <path id="Path_1353" data-name="Path 1353" d="M364.309,1095.623H328.26a8.725,8.725,0,0,1-8.311-6.067l-1.94-6.063a8.717,8.717,0,0,1,5.266-10.846c14.671-5.364,29.84-4.676,45.38.5a8.688,8.688,0,0,1,5.568,10.533l-1.494,5.506a8.726,8.726,0,0,1-8.421,6.441" transform="translate(-267.168 -899.22)" fill="#d2ebff"/>
    <path id="Path_1354" data-name="Path 1354" d="M106.391,2242.708s-20.076,43.756-30.609,61.879c0,0-2.092,11.4,0,14.99l1.783.792-8.321-.247s-.739-15.339-.162-16.2a2.119,2.119,0,0,1,1.732-.8s3.568-28.266,13.9-34.3l10.014-34.49Z" transform="translate(-57.929 -1879.597)" fill="#ffb27d"/>
    <path id="Path_1355" data-name="Path 1355" d="M64.218,2686.564c.012.2-6.5.109-10.034.044a2.813,2.813,0,0,1-2.7-2.217l-2.67-14.03a2.523,2.523,0,0,1,1.916-2.931l1.491-.341s2.127,2.917,1.457,5.664-1.265,9.86.426,10.689,6.558.973,6.558.973,3.442.342,3.554,2.149" transform="translate(-41.029 -2243.643)" fill="#f4932a"/>
    <path id="Path_1356" data-name="Path 1356" d="M312.5,2752.6a.735.735,0,0,1-.371,1.373c-5.918-.06-19.178-.247-20.356-.737-1.521-.633.554-6.1,2.739-7.949l12.062,3.937Z" transform="translate(-245.011 -2309.428)" fill="#f4932a"/>
    <path id="Path_1357" data-name="Path 1357" d="M333.523,2269.488s-12.973,62.761-16.644,75l8.682,5.448s-4.351-.74-7.577-.974-6.194-3.936-6.194-3.936l1.04-1.658s3.253-62.42,2.461-69.508Z" transform="translate(-262.289 -1909.168)" fill="#ffb27d"/>
    <path id="Path_1358" data-name="Path 1358" d="M503.505,1249.319s1.79,32.648-27.934,49.331l7.156,16.321s26.875-16.255,25.918-60.582a5.277,5.277,0,0,1,1.261-3.566l5.72-6.635a10.267,10.267,0,0,0,2.183-9.195l-.753-3.01a1.561,1.561,0,0,0-2.3-.971l-.6.347a10.5,10.5,0,0,0-4.311,4.793l-2.872,4.532c-.792,1.771-4.934,3.25-6.916,3.868a.656.656,0,0,0-.266,1.094Z" transform="translate(-400.066 -1035.389)" fill="#ffb27d"/>
    <path id="Path_1359" data-name="Path 1359" d="M310.748,1642.438c-4.973,1.379-21.82,5.811-32.337,5.63l6.457,36.44-.514,5.943,21.054-.094s5.927-13.764,10.6-20.627c1.35-1.982.345-4.346-.42-6.619l1.052-.7a2.863,2.863,0,0,0,1.135-3.273l-5.127-15.687a1.565,1.565,0,0,0-1.9-1.014" transform="translate(-234.208 -1381.625)" fill="#f4932a"/>
    <path id="Path_1360" data-name="Path 1360" d="M254.534,1921.108l-.414,3.6s5.95,17.818-2.975,59.435c0,0-19.329,5.476-35.215-7.627,0,0,4.481-39.28,5.705-41.109,6.1-9.114,10.158-11.095,10.158-11.095l.183-3.934s16.992,3.072,22.558.729" transform="translate(-181.647 -1615.485)" fill="#063992"/>
    <path id="Path_1361" data-name="Path 1361" d="M336.71,1589.746c.074-.1-4.4-13.494-4.4-13.494l-6.4.581-2.5,15.2s10.033,2.025,13.3-2.284" transform="translate(-272.065 -1325.995)" fill="#ffb27d"/>
    <path id="Path_1362" data-name="Path 1362" d="M279.508,1439.729c.427.266,13.68,5.743,10.832,19.5a2.582,2.582,0,0,1-1.469,1.84,22.455,22.455,0,0,1-11.14,1.844c-6.943-.706-11.492-12.821-11.3-16.347s8.844-9.474,13.075-6.84" transform="translate(-224.128 -1210.597)" fill="#ffb27d"/>
    <path id="Path_1363" data-name="Path 1363" d="M96.513,1397.241c.439.058,9.662,3.27,5.089,9.953s-6.289,10.617-4.126,13.552c1.971,2.674,6.337,1.15,5.956,6.712a3.12,3.12,0,0,0,1.329,2.82c4.114,2.785,14.151,11.357,4.207,23.581a3.113,3.113,0,0,0-.351,3.484c2.912,5.224,9.031,20.528-13.119,29.018-21.887,8.389-29.79-5.919-32-11.637a3.053,3.053,0,0,0-3.02-1.932c-2.405.114-5.813-.286-5.656-3.5a8.031,8.031,0,0,1,2.753-5.1,3.049,3.049,0,0,0-.586-4.8,5.972,5.972,0,0,1-2.951-3.709c-1.326-4.915,1.322-19.612,15.409-22.1a3.324,3.324,0,0,0,2.576-2.491l.008-.052a3.047,3.047,0,0,0-1.131-2.995c-2.249-1.65-5.134-4.972-2.791-10.3a11.544,11.544,0,0,1,9.024-6.827,3.069,3.069,0,0,0,2.515-3.667c-1-4.7-.128-12.229,16.864-10" transform="translate(-45.204 -1175.066)" fill="#062d66"/>
  </g>
</svg>
