<svg id="Logo" xmlns="http://www.w3.org/2000/svg" width="53.796" height="32.17" viewBox="0 0 53.796 32.17">
  <path id="Path_10928" data-name="Path 10928" d="M297.036,12.783a5.415,5.415,0,0,0,.2,1.592,9.583,9.583,0,0,0,.573,1.288.778.778,0,0,1,.125.412.708.708,0,0,1-.34.537l-1.127.751a.858.858,0,0,1-.465.161.823.823,0,0,1-.537-.25,5.537,5.537,0,0,1-.644-.841c-.179-.3-.358-.644-.555-1.056A6.61,6.61,0,0,1,289,17.847a4.9,4.9,0,0,1-3.578-1.288,4.6,4.6,0,0,1-1.324-3.435,4.606,4.606,0,0,1,1.628-3.686,6.509,6.509,0,0,1,4.384-1.4,14.166,14.166,0,0,1,1.9.143c.662.089,1.342.233,2.058.394V7.273a3.964,3.964,0,0,0-.841-2.863,4.118,4.118,0,0,0-2.916-.823,8.14,8.14,0,0,0-1.932.233,14.256,14.256,0,0,0-1.932.608,5.139,5.139,0,0,1-.626.233,1.1,1.1,0,0,1-.286.054c-.25,0-.376-.179-.376-.555V3.283a1.132,1.132,0,0,1,.125-.626,1.339,1.339,0,0,1,.5-.376,10.3,10.3,0,0,1,2.254-.805,10.848,10.848,0,0,1,2.791-.34,6.538,6.538,0,0,1,4.688,1.449A5.921,5.921,0,0,1,297,6.986v5.8Zm-7.264,2.72a5.8,5.8,0,0,0,1.843-.322,3.987,3.987,0,0,0,1.7-1.145,2.841,2.841,0,0,0,.608-1.145,6.423,6.423,0,0,0,.179-1.557v-.751a14.943,14.943,0,0,0-1.646-.3,13.482,13.482,0,0,0-1.682-.107,4.125,4.125,0,0,0-2.666.716,2.494,2.494,0,0,0-.877,2.058,2.309,2.309,0,0,0,2.541,2.559Zm14.367,1.932a1,1,0,0,1-.68-.179,1.458,1.458,0,0,1-.376-.7l-4.2-13.831a3.132,3.132,0,0,1-.161-.716.393.393,0,0,1,.429-.447H300.9a.992.992,0,0,1,.7.179,1.463,1.463,0,0,1,.358.7l3.006,11.845,2.791-11.845a1.255,1.255,0,0,1,.34-.7,1.231,1.231,0,0,1,.716-.179h1.431a1.077,1.077,0,0,1,.716.179,1.206,1.206,0,0,1,.34.7l2.827,11.988,3.1-11.988a1.535,1.535,0,0,1,.358-.7,1.167,1.167,0,0,1,.7-.179h1.664a.4.4,0,0,1,.447.447,1.785,1.785,0,0,1-.036.286,2.542,2.542,0,0,1-.125.447l-4.312,13.831a1.372,1.372,0,0,1-.376.7,1.145,1.145,0,0,1-.68.179h-1.539a1.077,1.077,0,0,1-.716-.179,1.269,1.269,0,0,1-.34-.716l-2.773-11.54-2.755,11.522a1.4,1.4,0,0,1-.34.716,1.109,1.109,0,0,1-.716.179Zm22.991.483a11.84,11.84,0,0,1-2.755-.322,8.14,8.14,0,0,1-2.058-.716,1.289,1.289,0,0,1-.555-.5,1.263,1.263,0,0,1-.107-.5v-.912c0-.376.143-.555.412-.555a1.013,1.013,0,0,1,.322.054c.107.036.268.107.447.179a9.732,9.732,0,0,0,1.968.626,10.744,10.744,0,0,0,2.129.215,4.828,4.828,0,0,0,2.612-.59,1.927,1.927,0,0,0,.93-1.7,1.742,1.742,0,0,0-.483-1.252,4.489,4.489,0,0,0-1.807-.93l-2.594-.805a5.457,5.457,0,0,1-2.863-1.825,4.263,4.263,0,0,1-.895-2.594,3.982,3.982,0,0,1,.483-1.986,4.6,4.6,0,0,1,1.288-1.467,5.679,5.679,0,0,1,1.861-.93,7.8,7.8,0,0,1,2.254-.3,8.981,8.981,0,0,1,1.2.072c.412.054.787.125,1.163.2.358.089.7.179,1.02.286a3.905,3.905,0,0,1,.751.322,1.547,1.547,0,0,1,.537.447.964.964,0,0,1,.161.59v.841c0,.376-.143.573-.412.573a1.861,1.861,0,0,1-.68-.215,8.185,8.185,0,0,0-3.435-.7,4.618,4.618,0,0,0-2.38.5,1.728,1.728,0,0,0-.841,1.592,1.69,1.69,0,0,0,.537,1.27,5.344,5.344,0,0,0,1.968.984l2.541.805a5.442,5.442,0,0,1,2.773,1.718,4.049,4.049,0,0,1,.823,2.5,4.6,4.6,0,0,1-.465,2.075,4.812,4.812,0,0,1-1.306,1.574,5.768,5.768,0,0,1-1.986,1A8.508,8.508,0,0,1,327.13,17.918Z" transform="translate(-281.876 -1.1)" fill="#555"/>
  <g id="Group_2014" data-name="Group 2014" transform="translate(0 20.056)">
    <path id="Path_10929" data-name="Path 10929" d="M320.3,123.537c-5.886,4.348-14.439,6.656-21.793,6.656a39.425,39.425,0,0,1-26.605-10.145c-.555-.5-.054-1.181.608-.787a52.841,52.841,0,0,0,46.931,2.916C320.429,121.73,321.27,122.821,320.3,123.537Z" transform="translate(-271.668 -118.078)" fill="#a8a8a8" fill-rule="evenodd"/>
    <path id="Path_10930" data-name="Path 10930" d="M523.361,115.86c-.752-.966-4.974-.465-6.888-.233-.573.072-.662-.429-.143-.805,3.364-2.362,8.892-1.682,9.536-.895.644.805-.179,6.334-3.328,8.982-.483.412-.948.2-.734-.34C522.52,120.8,524.112,116.808,523.361,115.86Z" transform="translate(-472.273 -113.192)" fill="#a8a8a8" fill-rule="evenodd"/>
  </g>
</svg>
