<svg xmlns="http://www.w3.org/2000/svg" width="50.443" height="39.071" viewBox="0 0 50.443 39.071">
  <path id="Logo" d="M630.179,40.685c6.481-1.145,11.834-2.092,11.9-2.105l.112-.024-6.119-7.278c-3.365-4-6.118-7.293-6.118-7.312,0-.036,6.318-17.434,6.353-17.5.012-.021,4.311,7.4,10.422,17.994l10.482,18.168.08.139-19.445,0-19.445,0Zm-23.336-2.219c0-.01,2.883-5.015,6.407-11.122l6.407-11.1,7.466-6.266c4.107-3.446,7.477-6.27,7.491-6.275a1.293,1.293,0,0,1-.12.3c-.08.172-3.728,8-8.107,17.389L618.424,38.47l-5.79.007C609.449,38.481,606.843,38.476,606.843,38.466Z" transform="translate(-606.843 -3.7)" fill="#555"/>
</svg>
