<svg xmlns="http://www.w3.org/2000/svg" width="66.6" height="23.206" viewBox="0 0 66.6 23.206">
  <g id="Logo" transform="translate(-1238.468 -8.729)">
    <path id="path2838" d="M1242.12,20.081c-.012,2.2,1.6,3.513,4.178,2.917V17.164c-2.608-.794-4.167.813-4.178,2.917m4.257-11.352h3.548V25.52c-3.4.556-6.657.909-8.987-.394-3-1.677-3.241-7.007-.867-9.381a7.03,7.03,0,0,1,6.228-1.5V8.965c-.007-.112-.013-.223.079-.236" fill="#555" fill-rule="evenodd"/>
    <path id="path2840" d="M1339.733,12.434h-3.547V8.729h3.547Z" transform="translate(-84.054)" fill="#555" fill-rule="evenodd"/>
    <path id="path2844" d="M1634.173,55.84c3.867,1.5,4.295-6.922.394-6.149-2.423.48-2.345,5.391-.394,6.149m.158-9.066c2.953-.316,5.181.988,6.07,3,1.517,3.426-.083,7.358-2.523,8.514a7.223,7.223,0,0,1-3.784.552c-3.7-.322-6.028-4.09-4.73-8.277a5.7,5.7,0,0,1,.552-1.261,5.349,5.349,0,0,1,4.414-2.523" transform="translate(-335.924 -32.685)" fill="#555" fill-rule="evenodd"/>
    <path id="path2848" d="M1375.42,54.427c-.981,1.649,1.484,2.044,3.074,1.577V53.56c-1.222.171-2.613.091-3.074.867m6.228,3.863c-2.93.169-7.384,1.167-8.987-.788a3.978,3.978,0,0,1,0-4.415c1.086-1.389,3.457-1.692,5.6-1.892a2.027,2.027,0,0,0-.158-1.577,8.353,8.353,0,0,0-5.282.867V47.726c2.084-.958,6.912-1.966,8.356.236.758,1.157.473,3.174.473,4.966Z" transform="translate(-114.853 -32.612)" fill="#555" fill-rule="evenodd"/>
    <path id="path2852" d="M1464.652,58.7H1461.1V54.131c0-1.505.244-3.414-.552-4.021-.623-.475-2.1-.237-3,0V58.7h-3.548V47.746c3.626-.942,10.172-1.952,10.642,2.6.232,2.245-.172,5.613,0,8.356" transform="translate(-185.402 -32.868)" fill="#555" fill-rule="evenodd"/>
    <path id="path2856" d="M1542.457,55.058a2.873,2.873,0,0,0,3.547.71q-.11-2.767-.079-5.676c-3.066-.81-4.893,2.663-3.469,4.966m8.908-7.489a23.2,23.2,0,0,1-1.182,2.6c-.366.082-.683-.145-.867,0-.081,3.843.818,9.052-.71,11.825-.92,1.669-2.613,2.74-5.2,2.917a10.592,10.592,0,0,1-4.73-.71V60.891c1.618.945,5.707,1.715,6.859-.236a5.96,5.96,0,0,0,.473-2.05c-.741.039-1.461.382-2.365.394-3.718.049-6.018-2.911-5.124-7.016a5.588,5.588,0,0,1,2.523-3.626c2.589-1.578,6.568-1.458,10.327-.788" transform="translate(-257.925 -33.006)" fill="#555" fill-rule="evenodd"/>
    <path id="path2860" d="M1317.912,48.642c0,2.612,0,4.489,0,7.663-.151,3.119-.116,5.6-1.258,7.094a6.625,6.625,0,0,1-1.1,1.025,3.817,3.817,0,0,1-1.34.788,6.377,6.377,0,0,1-1.734-.71,12.7,12.7,0,0,0-1.655-.788c1.349-.836,2.63-1.463,3.153-3.153a21.737,21.737,0,0,0,.394-5.676c0-2.05.009-4.433.009-6.243h3.538Z" transform="translate(-62.232 -34.332)" fill="#555" fill-rule="evenodd"/>
  </g>
</svg>
