<svg xmlns="http://www.w3.org/2000/svg" width="35.714" height="44.118" viewBox="0 0 35.714 44.118">
  <g id="Logo" transform="translate(-3467.271 -4)">
    <path id="Path_10793" data-name="Path 10793" d="M3489.314,4.015,3502.985,4,3480.05,26.923l-5.978,5.944-6.8-6.809Zm-.127,20.468c.178-.234.5-.119.752-.149l13.034,0L3491.093,36.2l-6.835-6.794Z" transform="translate(0 0)" fill="#a8a8a8"/>
    <path id="Path_10795" data-name="Path 10795" d="M3528.041,162.616l6.815-6.806,6.835,6.794.029.03-6.863,6.8-6.816-6.818Z" transform="translate(-50.598 -126.399)" fill="gray"/>
    <path id="Path_10796" data-name="Path 10796" d="M3568.761,203.379l6.863-6.8,11.856,11.868c-4.466.01-8.93,0-13.394.007-.255.057-.412-.176-.574-.32l-4.75-4.755Z" transform="translate(-84.502 -160.345)" fill="#555"/>
  </g>
</svg>
