<svg xmlns="http://www.w3.org/2000/svg" xmlns:xlink="http://www.w3.org/1999/xlink" width="601.173" height="369.28" viewBox="0 0 601.173 369.28">
  <defs>
    <clipPath id="clip-path">
      <rect id="Rectangle_823" data-name="Rectangle 823" width="601.173" height="369.28" fill="none"/>
    </clipPath>
    <clipPath id="clip-path-2">
      <rect id="Rectangle_822" data-name="Rectangle 822" width="601.174" height="369.281" fill="none"/>
    </clipPath>
    <clipPath id="clip-path-3">
      <rect id="Rectangle_818" data-name="Rectangle 818" width="30.138" height="59.969" fill="none"/>
    </clipPath>
    <clipPath id="clip-path-4">
      <rect id="Rectangle_820" data-name="Rectangle 820" width="92.098" height="84.839" fill="none"/>
    </clipPath>
  </defs>
  <g id="Illustration" clip-path="url(#clip-path)">
    <g id="Group_972" data-name="Group 972" transform="translate(0 -0.001)">
      <g id="Group_971" data-name="Group 971" clip-path="url(#clip-path-2)">
        <path id="Path_2127" data-name="Path 2127" d="M620.577,279.4a104.322,104.322,0,0,0-30.718-31.214,103.251,103.251,0,0,1-39.377-46.607,170.629,170.629,0,0,0-14.77-27.691c-6.5-9.831-40.819-64.4-110.578-73.148a179.866,179.866,0,0,0-62.617,3.467,79.678,79.678,0,0,1-54.232-6.416,160.443,160.443,0,0,0-53.3-16.351C207.5,75.485,152.139,87.5,112.05,119.732,27.9,187.388,33.889,324.066,90.47,381.228a130.36,130.36,0,0,0,20.113,16.251c65.612,45.177,143.248,32.008,159.748,28.792,7.146-1.393,16.248-3.168,26.4-5.95a277.581,277.581,0,0,1,89.172-9.6,216.589,216.589,0,0,0,52.865-3.443c5.482-1.069,12.26-2.391,19.817-4.322a20.393,20.393,0,0,1,16.569,2.9c35.5,24.441,77.5,17.316,86.423,15.576,13.182-2.569,38.661-7.535,57.082-28.324,27.87-31.452,23.53-81,1.912-113.712" transform="translate(-37.016 -61.259)" fill="#e7f3fd"/>
        <path id="Path_2128" data-name="Path 2128" d="M453.476,215.167c-.364-.751-.765-1.513-1.193-2.264l1.208-.687c.442.777.858,1.566,1.235,2.345Zm-2.527-4.452c-.46-.706-.951-1.415-1.461-2.109l1.12-.823c.525.715,1.031,1.446,1.505,2.173ZM312.9,226.037c-.879.095-1.763.168-2.628.219l-.082-1.387c.842-.049,1.7-.122,2.56-.214Zm2.613-.344-.213-1.373c.836-.13,1.688-.281,2.533-.451l.273,1.363c-.865.173-1.738.329-2.594.461m-7.878.652c-.884.007-1.772-.01-2.639-.05l.064-1.388c.843.039,1.706.055,2.565.049Zm13.042-1.685-.33-1.35c.824-.2,1.661-.424,2.489-.662l.383,1.336c-.846.243-1.7.47-2.543.676M302.362,226.1c-.879-.09-1.76-.207-2.621-.347l.223-1.372c.833.136,1.687.249,2.54.336Zm23.373-2.889-.433-1.32c.806-.265,1.625-.55,2.435-.849l.481,1.3c-.825.3-1.66.6-2.482.866m4.932-1.818-.525-1.287c.787-.322,1.585-.663,2.373-1.015l.567,1.268c-.8.358-1.614.706-2.415,1.034m-33.522,3.856c-.865-.2-1.727-.421-2.562-.668l.394-1.333c.806.238,1.639.455,2.475.645Zm150.768-18.67c-.538-.656-1.1-1.31-1.68-1.944l1.028-.935c.592.651,1.173,1.323,1.726,2ZM335.461,219.249l-.607-1.25c.765-.371,1.541-.762,2.307-1.163l.644,1.232c-.778.407-1.567.8-2.344,1.181m-43.393,4.5c-.83-.307-1.656-.645-2.453-1l.571-1.267c.768.346,1.563.672,2.363.968Zm48.044-6.926-.678-1.213c.743-.416,1.5-.851,2.238-1.293l.711,1.194c-.753.449-1.517.89-2.271,1.312m104.345-14.043c-.6-.6-1.232-1.2-1.866-1.769l.931-1.032c.65.588,1.294,1.2,1.914,1.815ZM287.238,221.566c-.778-.42-1.547-.873-2.286-1.347l.749-1.17c.711.455,1.45.89,2.2,1.294Zm57.381-7.429-.742-1.175c.719-.453,1.448-.927,2.17-1.408l.771,1.156c-.73.487-1.47.967-2.2,1.427m4.361-2.907-.8-1.138c.7-.489,1.4-1,2.1-1.511l.824,1.119c-.705.519-1.421,1.034-2.127,1.529M282.772,218.7c-.706-.533-1.4-1.1-2.058-1.679l.92-1.042c.633.558,1.3,1.1,1.975,1.611Zm157.871-19.373c-.659-.54-1.341-1.071-2.027-1.581l.828-1.115c.7.522,1.4,1.068,2.079,1.623ZM353.2,208.126l-.848-1.1.206-.159q.937-.726,1.872-1.425l.833,1.112q-.925.693-1.856,1.413Zm83.316-11.859c-.708-.475-1.437-.94-2.168-1.382l.719-1.189c.75.453,1.5.93,2.224,1.417ZM278.794,215.192c-.614-.634-1.209-1.3-1.77-1.981l1.072-.884c.537.652,1.108,1.29,1.7,1.9Zm78.557-10.172-.812-1.128c.71-.51,1.429-1.018,2.14-1.508l.789,1.144c-.7.485-1.416.987-2.117,1.492m74.765-11.413c-.749-.406-1.519-.8-2.289-1.17l.6-1.252c.789.38,1.579.784,2.347,1.2Zm-70.5,8.472-.766-1.16c.733-.484,1.474-.961,2.2-1.419l.741,1.176c-.719.453-1.451.925-2.176,1.4m-86.2,9.015c-.5-.723-.987-1.476-1.433-2.239l1.2-.7c.428.731.89,1.453,1.373,2.146ZM366,199.321l-.714-1.192c.749-.449,1.51-.893,2.263-1.32l.686,1.209c-.744.422-1.5.861-2.235,1.3m61.49-7.944c-.786-.333-1.59-.652-2.389-.947l.481-1.3c.82.3,1.644.629,2.45.971Zm-56.99,5.391-.657-1.225c.769-.412,1.552-.818,2.327-1.208l.625,1.241c-.764.384-1.536.785-2.3,1.192m52.168-7.17c-.813-.257-1.643-.5-2.468-.716l.355-1.344c.846.224,1.7.471,2.532.735Zm-47.549,4.848-.591-1.258c.793-.372,1.6-.737,2.39-1.083l.555,1.274c-.78.34-1.572.7-2.354,1.066M272.734,206.508c-.383-.793-.74-1.612-1.06-2.436l1.295-.5c.308.79.65,1.576,1.017,2.336ZM417.7,188.283c-.831-.179-1.681-.341-2.525-.481l.228-1.371c.865.144,1.736.31,2.589.493Zm-37.844,4.1-.518-1.289c.814-.327,1.638-.644,2.451-.942l.478,1.3c-.8.293-1.61.6-2.411.926m32.775-4.942c-.847-.1-1.708-.184-2.56-.247l.1-1.386c.872.064,1.755.149,2.622.253ZM384.7,190.6l-.436-1.319c.834-.276,1.678-.54,2.507-.783l.392,1.333c-.815.24-1.644.5-2.463.77m22.8-3.544c-.848-.024-1.713-.03-2.572-.018l-.021-1.389c.879-.013,1.765-.007,2.633.018Zm-17.848,2.089L389.3,187.8c.847-.218,1.708-.422,2.557-.608l.3,1.357c-.833.183-1.677.383-2.509.6m12.7-2.013c-.85.049-1.713.117-2.566.2l-.137-1.383c.872-.086,1.754-.156,2.623-.205Zm-7.668.913-.246-1.368c.865-.156,1.739-.3,2.6-.415l.192,1.376c-.841.118-1.7.255-2.544.407m-123.88,13.512c-.255-.838-.481-1.7-.674-2.568l1.356-.3c.185.832.4,1.661.648,2.466Zm-1.156-5.176q-.07-.478-.128-.96c-.067-.556-.122-1.12-.165-1.676l1.386-.1c.04.537.094,1.08.158,1.615q.056.464.124.923Zm.987-5.3-1.39.011c-.006-.873.017-1.764.068-2.649l1.387.081c-.05.855-.072,1.716-.066,2.558m.295-5.108-1.38-.167c.1-.853.235-1.721.391-2.579l1.374.209-.01.054c-.148.816-.275,1.657-.375,2.483m.9-5.057-1.356-.306c.193-.855.407-1.715.635-2.555l1.341.364c-.223.821-.432,1.661-.621,2.5m47.542-7.032a19.149,19.149,0,0,1-2.7.069l.065-1.388a17.809,17.809,0,0,0,2.5-.065Zm2.655-.42-.3-1.357a23.439,23.439,0,0,0,2.435-.679l.444,1.317a24.877,24.877,0,0,1-2.58.719m-8.049.141a13.84,13.84,0,0,1-2.6-.839l.558-1.273a12.5,12.5,0,0,0,2.343.755Zm13.116-1.841-.573-1.266c.764-.346,1.524-.734,2.26-1.155l.69,1.206c-.774.443-1.573.851-2.377,1.215m4.628-2.646-.8-1.137c.692-.487,1.367-1.01,2.005-1.555l.9,1.057c-.671.573-1.381,1.123-2.109,1.635m-58.542,6.835-1.324-.424c.267-.835.556-1.673.858-2.49l1.3.482c-.295.8-.576,1.616-.837,2.431m35.811-4.565a11.867,11.867,0,0,1-2.008-1.891l1.063-.894a10.536,10.536,0,0,0,1.773,1.669Zm26.786-5.732-1-.966a25.3,25.3,0,0,0,1.667-1.907l1.091.861c-.545.691-1.137,1.368-1.759,2.012m-60.814,5.475-1.281-.54c.341-.807.7-1.616,1.08-2.4l1.254.6c-.367.768-.721,1.557-1.053,2.345m30.494-3.917a14.985,14.985,0,0,1-1.034-2.52l1.327-.413a13.6,13.6,0,0,0,.938,2.287Zm33.623-5.755-1.176-.74a22.585,22.585,0,0,0,1.223-2.207l1.252.6a24.045,24.045,0,0,1-1.3,2.343m-61.9,5.033-1.225-.656c.412-.771.849-1.543,1.3-2.294l1.194.712c-.437.733-.862,1.486-1.265,2.238m26.642-4.431q-.056-.363-.1-.738c-.075-.621-.126-1.271-.152-1.932l1.389-.054c.024.624.072,1.236.143,1.82.028.234.06.464.1.69Zm37.584-5.425-1.314-.453a20.749,20.749,0,0,0,.674-2.424l1.359.289a21.937,21.937,0,0,1-.719,2.588m-61.593,5.441-1.16-.766c.481-.728.986-1.456,1.5-2.165l1.123.819c-.5.692-1,1.4-1.466,2.112m25.154-5.289-1.389-.054c.035-.888.1-1.777.194-2.642l1.382.151c-.091.833-.154,1.689-.187,2.545m37.555-5.4-1.384-.12a20.78,20.78,0,0,0,.062-2.514l1.389-.05a22.156,22.156,0,0,1-.066,2.684m-59.681,6.532-1.084-.869c.546-.681,1.116-1.36,1.694-2.018l1.044.918c-.565.642-1.121,1.3-1.654,1.969m3.4-3.861-1-.964c.607-.631,1.237-1.255,1.87-1.856l.956,1.008c-.619.587-1.233,1.2-1.826,1.812m19.285-2.338-1.367-.253c.161-.871.357-1.741.583-2.587l1.343.358c-.216.811-.4,1.645-.559,2.481m35.368-5.411a10.523,10.523,0,0,0-.82-2.291l1.244-.62a11.893,11.893,0,0,1,.929,2.594Zm-50.922,4.207-.911-1.049c.659-.572,1.341-1.138,2.027-1.683l.864,1.089c-.671.532-1.336,1.085-1.98,1.643m16.866-3.7-1.31-.465c.3-.833.629-1.661.99-2.463l1.267.571c-.346.767-.665,1.561-.948,2.358m31.9-4.822a11.421,11.421,0,0,0-1.774-1.686l.847-1.1a12.836,12.836,0,0,1,1.99,1.892ZM294,147.329l-.815-1.125c.71-.514,1.438-1.018,2.167-1.5l.765,1.16c-.711.47-1.424.962-2.117,1.464m4.3-2.836-.715-1.192c.751-.45,1.521-.888,2.289-1.305l.662,1.222c-.751.407-1.5.836-2.236,1.275m10.624-2.3-1.216-.672c.375-.68.781-1.358,1.209-2.018-.457.16-.915.327-1.368.5l-.493-1.3c.821-.312,1.658-.608,2.486-.879l.432,1.321q-.348.114-.7.234l.965.638c-.469.709-.912,1.441-1.318,2.176m25.948-3.2a17.309,17.309,0,0,0-2.3-.974l.451-1.315a18.756,18.756,0,0,1,2.488,1.053Zm-32.046,3.046-.608-1.25c.788-.383,1.594-.753,2.4-1.1l.551,1.275c-.783.339-1.57.7-2.339,1.074m27.314-4.691c-.8-.172-1.64-.31-2.5-.41l.159-1.38c.907.1,1.794.25,2.636.431Zm-17.7,1.051-.275-1q-.22.272-.434.546l-1.1-.853c.535-.688,1.108-1.371,1.7-2.032l1.032.931q-.418.464-.82.942c.7-.184,1.395-.354,2.084-.506l.3,1.357c-.826.182-1.665.39-2.494.617m12.662-1.645c-.828-.026-1.688-.022-2.553.012l-.056-1.389c.9-.036,1.792-.04,2.654-.013Zm-7.647.542-.225-1.371c.882-.144,1.763-.264,2.621-.354l.145,1.382c-.833.087-1.686.2-2.541.343m-2.31-3.143-.966-1c.623-.6,1.282-1.2,1.958-1.775l.9,1.058c-.654.556-1.29,1.133-1.893,1.715m3.891-3.315-.837-1.109c.689-.52,1.413-1.035,2.149-1.53l.776,1.153c-.716.482-1.419.981-2.088,1.486m4.252-2.864-.717-1.19c.739-.445,1.509-.886,2.291-1.309l.662,1.222c-.763.413-1.515.843-2.235,1.276m4.527-2.455-.609-1.249c.774-.378,1.578-.751,2.389-1.108l.56,1.272c-.795.35-1.582.715-2.34,1.085m4.722-2.081-.513-1.291c.8-.318,1.629-.632,2.462-.93l.469,1.308c-.818.293-1.631.6-2.418.913m4.865-1.746-.427-1.322c.825-.266,1.671-.525,2.515-.77l.387,1.334c-.83.241-1.663.5-2.475.758m4.972-1.442-.348-1.345c.84-.217,1.7-.427,2.555-.622l.31,1.355c-.843.193-1.69.4-2.517.613m5.051-1.156-.272-1.363c.865-.173,1.735-.334,2.588-.479l.234,1.37c-.84.143-1.7.3-2.549.472m7.662-1.168c-.007,0-.953.078-2.553.3l-.191-1.376c1.65-.229,2.6-.306,2.633-.308Z" transform="translate(-206.25 -89.275)" fill="#88c9f7"/>
        <rect id="Rectangle_693" data-name="Rectangle 693" width="55.284" height="141.965" transform="translate(100.3 181.711)" fill="#88c9f7"/>
        <rect id="Rectangle_694" data-name="Rectangle 694" width="55.284" height="188.368" transform="translate(186.304 135.309)" fill="#88c9f7"/>
        <rect id="Rectangle_695" data-name="Rectangle 695" width="60.534" height="238.447" transform="translate(264.503 85.229)" fill="#88c9f7"/>
        <rect id="Rectangle_696" data-name="Rectangle 696" width="55.284" height="271.457" transform="translate(346.605 52.219)" fill="#88c9f7"/>
        <path id="Path_2129" data-name="Path 2129" d="M1389.191,519.731l116.192-56.248-51.819,110.456-8.762-50.114Z" transform="translate(-1064.154 -355.038)" fill="#3868ad"/>
        <path id="Path_2130" data-name="Path 2130" d="M1272.906,454.8a21.772,21.772,0,1,1,26.3,16.007,21.772,21.772,0,0,1-26.3-16.007" transform="translate(-974.6 -327.761)" fill="#ffb93e"/>
        <path id="Path_2131" data-name="Path 2131" d="M1305.339,476.321a19.837,19.837,0,1,1,12.255-8.962,19.708,19.708,0,0,1-12.255,8.962m-9.1-37.4a18.653,18.653,0,1,0,22.534,13.714,18.674,18.674,0,0,0-22.534-13.714" transform="translate(-981.128 -334.907)" fill="#ffa412"/>
        <path id="Path_2132" data-name="Path 2132" d="M1343.832,478.531a3.27,3.27,0,0,0-.318-1.108,2.393,2.393,0,0,0-.7-.815,4.535,4.535,0,0,0-1.149-.6,11.849,11.849,0,0,0-1.666-.464,31.229,31.229,0,0,1-3.07-.829,9.877,9.877,0,0,1-2.426-1.155,5.81,5.81,0,0,1-1.685-1.718,6.554,6.554,0,0,1-.657-4.942,5.515,5.515,0,0,1,1.089-2.023,6.887,6.887,0,0,1,1.891-1.539,9.188,9.188,0,0,1,2.595-.958l-.4-3.268,2.631-.319.4,3.314a8.237,8.237,0,0,1,2.656.438,6.222,6.222,0,0,1,3.634,3.209,8.279,8.279,0,0,1,.77,2.7l-4.752.576a4.031,4.031,0,0,0-1.146-2.643,2.8,2.8,0,0,0-2.289-.645,3.566,3.566,0,0,0-1.249.361,2.413,2.413,0,0,0-.811.672,2.248,2.248,0,0,0-.407.909,3.323,3.323,0,0,0-.037,1.074,3.037,3.037,0,0,0,.288,1,2.244,2.244,0,0,0,.67.779,4.517,4.517,0,0,0,1.157.6,15.4,15.4,0,0,0,1.739.51q1.667.4,3.05.87a9.986,9.986,0,0,1,2.419,1.171,5.61,5.61,0,0,1,2.514,4.229,5.994,5.994,0,0,1-.176,2.47,5.447,5.447,0,0,1-1.1,2.009,6.654,6.654,0,0,1-1.911,1.5,9.907,9.907,0,0,1-2.614.937l.368,3.04-2.615.317-.366-3.024a11.113,11.113,0,0,1-2.711-.276,7.047,7.047,0,0,1-2.421-1.047,6.306,6.306,0,0,1-1.842-1.985,7.676,7.676,0,0,1-.973-3.075l4.752-.576a4.726,4.726,0,0,0,.524,1.773,3.048,3.048,0,0,0,.954,1.062,2.965,2.965,0,0,0,1.233.47,5.065,5.065,0,0,0,1.345.015,4.24,4.24,0,0,0,1.333-.363,2.825,2.825,0,0,0,.911-.669,2.249,2.249,0,0,0,.491-.9,2.747,2.747,0,0,0,.071-1.07" transform="translate(-1020.296 -351.443)" fill="#ffa412"/>
        <path id="Path_2133" data-name="Path 2133" d="M1764.429,207.04a21.2,21.2,0,1,1,22.02,20.355,21.2,21.2,0,0,1-22.02-20.355" transform="translate(-1351.583 -141.716)" fill="#ffb93e"/>
        <path id="Path_2134" data-name="Path 2134" d="M1792.59,232.753a19.319,19.319,0,1,1,13.427-6.191,19.193,19.193,0,0,1-13.427,6.191m-1.473-37.456a18.166,18.166,0,1,0,18.866,17.438,18.187,18.187,0,0,0-18.866-17.438" transform="translate(-1357.787 -148.708)" fill="#ffa412"/>
        <path id="Path_2135" data-name="Path 2135" d="M1830.813,235.394a3.186,3.186,0,0,0-.09-1.119,2.333,2.333,0,0,0-.51-.912,4.4,4.4,0,0,0-.981-.8,11.675,11.675,0,0,0-1.5-.765,30.439,30.439,0,0,1-2.771-1.384,9.623,9.623,0,0,1-2.093-1.571,5.661,5.661,0,0,1-1.277-1.964,6.383,6.383,0,0,1,.326-4.844,5.375,5.375,0,0,1,1.431-1.721,6.7,6.7,0,0,1,2.1-1.1,8.941,8.941,0,0,1,2.662-.414l.252-3.2,2.573.2-.256,3.241a8.021,8.021,0,0,1,2.45.931,6.06,6.06,0,0,1,2.85,3.765,8.056,8.056,0,0,1,.213,2.73l-4.647-.367a3.93,3.93,0,0,0-.584-2.744,2.729,2.729,0,0,0-2.06-1.057,3.477,3.477,0,0,0-1.262.1,2.349,2.349,0,0,0-.9.484,2.194,2.194,0,0,0-.564.79,3.222,3.222,0,0,0-.242,1.018,2.964,2.964,0,0,0,.082,1.013,2.183,2.183,0,0,0,.49.873,4.393,4.393,0,0,0,.989.8,15.015,15.015,0,0,0,1.561.822q1.513.705,2.744,1.419a9.727,9.727,0,0,1,2.083,1.585,5.46,5.46,0,0,1,1.584,4.522,5.842,5.842,0,0,1-.644,2.323,5.3,5.3,0,0,1-1.438,1.705,6.457,6.457,0,0,1-2.115,1.066,9.627,9.627,0,0,1-2.676.39l-.235,2.973-2.557-.2.233-2.957a10.848,10.848,0,0,1-2.535-.786,6.854,6.854,0,0,1-2.109-1.467,6.129,6.129,0,0,1-1.376-2.25,7.476,7.476,0,0,1-.336-3.123l4.647.367a4.6,4.6,0,0,0,.158,1.793,2.974,2.974,0,0,0,.706,1.2,2.888,2.888,0,0,0,1.086.687,4.946,4.946,0,0,0,1.281.274,4.131,4.131,0,0,0,1.342-.089,2.753,2.753,0,0,0,1-.462,2.2,2.2,0,0,0,.643-.769,2.683,2.683,0,0,0,.274-1.008" transform="translate(-1393.891 -165.155)" fill="#ffa412"/>
        <path id="Path_2136" data-name="Path 2136" d="M1636.605,391.212a14.625,14.625,0,1,1,14.881,14.364,14.625,14.625,0,0,1-14.881-14.364" transform="translate(-1253.677 -288.275)" fill="#ffb93e"/>
        <path id="Path_2137" data-name="Path 2137" d="M1655.734,409.272a13.326,13.326,0,1,1,9.352-4.069,13.235,13.235,0,0,1-9.352,4.069m-.457-25.851a12.53,12.53,0,1,0,12.75,12.307,12.545,12.545,0,0,0-12.75-12.307" transform="translate(-1257.944 -293.098)" fill="#ffa412"/>
        <path id="Path_2138" data-name="Path 2138" d="M1682.092,411.155a2.195,2.195,0,0,0-.045-.773,1.612,1.612,0,0,0-.338-.637,3.047,3.047,0,0,0-.665-.565,8.056,8.056,0,0,0-1.024-.55,20.958,20.958,0,0,1-1.89-1,6.626,6.626,0,0,1-1.42-1.115,3.9,3.9,0,0,1-.851-1.374,4.406,4.406,0,0,1,.3-3.336,3.717,3.717,0,0,1,1.012-1.165,4.627,4.627,0,0,1,1.466-.73,6.156,6.156,0,0,1,1.842-.245l.222-2.2,1.771.179-.225,2.232a5.526,5.526,0,0,1,1.676.678,4.181,4.181,0,0,1,1.909,2.639,5.56,5.56,0,0,1,.106,1.885l-3.2-.322a2.707,2.707,0,0,0-.362-1.9,1.881,1.881,0,0,0-1.4-.76,2.4,2.4,0,0,0-.872.053,1.619,1.619,0,0,0-.631.321,1.5,1.5,0,0,0-.4.536,2.228,2.228,0,0,0-.182.7,2.033,2.033,0,0,0,.041.7,1.509,1.509,0,0,0,.324.609,3.052,3.052,0,0,0,.67.566,10.311,10.311,0,0,0,1.064.59q1.033.509,1.871,1.019a6.735,6.735,0,0,1,1.413,1.124,3.77,3.77,0,0,1,1.025,3.142,4.029,4.029,0,0,1-.479,1.593,3.663,3.663,0,0,1-1.017,1.155,4.467,4.467,0,0,1-1.474.7,6.663,6.663,0,0,1-1.851.229l-.206,2.046-1.76-.177.205-2.036a7.435,7.435,0,0,1-1.736-.58,4.735,4.735,0,0,1-1.433-1.043,4.233,4.233,0,0,1-.915-1.572,5.157,5.157,0,0,1-.185-2.158l3.2.322a3.2,3.2,0,0,0,.082,1.239,2.058,2.058,0,0,0,.469.837,1.991,1.991,0,0,0,.739.49,3.406,3.406,0,0,0,.879.208,2.852,2.852,0,0,0,.927-.042,1.9,1.9,0,0,0,.7-.3,1.512,1.512,0,0,0,.455-.52,1.853,1.853,0,0,0,.2-.691" transform="translate(-1282.635 -304.47)" fill="#ffa412"/>
        <path id="Path_2139" data-name="Path 2139" d="M1367.435,93.4a35.688,35.688,0,1,1,45.1,22.661,35.688,35.688,0,0,1-45.1-22.661" transform="translate(-1046.095 -35.609)" fill="#ffb93e"/>
        <path id="Path_2140" data-name="Path 2140" d="M1422.465,125.126a32.515,32.515,0,1,1,18.833-16.268,32.3,32.3,0,0,1-18.833,16.268m-19.832-59.893a30.576,30.576,0,1,0,38.637,19.415,30.611,30.611,0,0,0-38.637-19.415" transform="translate(-1056.893 -47.283)" fill="#ffa412"/>
        <path id="Path_2141" data-name="Path 2141" d="M1481.5,129.123a5.356,5.356,0,0,0-.667-1.768,3.921,3.921,0,0,0-1.25-1.238,7.4,7.4,0,0,0-1.958-.835,19.577,19.577,0,0,0-2.784-.538,51.172,51.172,0,0,1-5.126-.947,16.211,16.211,0,0,1-4.117-1.565,9.525,9.525,0,0,1-2.98-2.583,10.744,10.744,0,0,1-1.729-7.987,9.032,9.032,0,0,1,1.512-3.449,11.269,11.269,0,0,1,2.885-2.765,15.033,15.033,0,0,1,4.113-1.909l-1.081-5.288,4.256-.87,1.1,5.362a13.5,13.5,0,0,1,4.4.362,10.2,10.2,0,0,1,6.364,4.761,13.582,13.582,0,0,1,1.616,4.316l-7.687,1.571a6.611,6.611,0,0,0-2.224-4.166,4.593,4.593,0,0,0-3.825-.75,5.847,5.847,0,0,0-1.993.756,3.952,3.952,0,0,0-1.236,1.2,3.689,3.689,0,0,0-.544,1.54,5.433,5.433,0,0,0,.083,1.759,4.978,4.978,0,0,0,.6,1.6,3.675,3.675,0,0,0,1.2,1.184,7.422,7.422,0,0,0,1.971.832,25.211,25.211,0,0,0,2.908.6q2.776.436,5.1,1.017a16.367,16.367,0,0,1,4.108,1.593,9.19,9.19,0,0,1,4.67,6.575,9.823,9.823,0,0,1,.04,4.059,8.923,8.923,0,0,1-1.53,3.427,10.9,10.9,0,0,1-2.924,2.709,16.247,16.247,0,0,1-4.147,1.877l1.005,4.917-4.229.865-1-4.892a18.222,18.222,0,0,1-4.466-.091,11.545,11.545,0,0,1-4.094-1.39,10.334,10.334,0,0,1-3.273-3,12.573,12.573,0,0,1-2-4.894l7.687-1.571a7.75,7.75,0,0,0,1.091,2.827,5.012,5.012,0,0,0,1.7,1.609,4.859,4.859,0,0,0,2.078.605,8.328,8.328,0,0,0,2.2-.154,6.953,6.953,0,0,0,2.129-.77,4.642,4.642,0,0,0,1.4-1.213,3.7,3.7,0,0,0,.682-1.543,4.5,4.5,0,0,0-.027-1.758" transform="translate(-1118.933 -74.596)" fill="#ffa412"/>
        <path id="Path_2142" data-name="Path 2142" d="M819.586,48.05c-3.208.8-6.27,1.566-9.134,2.056-9.276,1.586-16.441.278-19.53-12.087s2.62-16.89,11.552-19.852c2.758-.914,5.821-1.679,9.028-2.48a38.261,38.261,0,0,1,20.488,1.028c5.945,1.954,10.393,5.1,11.182,8.254.9,3.6-1.55,8.464-5.905,12.873A39.072,39.072,0,0,1,819.586,48.05" transform="translate(-605.218 -11.287)" fill="#88c9f7"/>
        <path id="Path_2143" data-name="Path 2143" d="M754.12,6.876,743.585,0,726.952,3.54l17.276,12.137Z" transform="translate(-556.863 0.004)" fill="#3868ad"/>
        <path id="Path_2144" data-name="Path 2144" d="M803.691,155.274,797.627,166.3l-16.345,4.693,9.54-18.834Z" transform="translate(-598.481 -116.556)" fill="#3868ad"/>
        <path id="Path_2145" data-name="Path 2145" d="M810.452,61.34c-9.276,1.586-16.441.278-19.53-12.087s2.621-16.89,11.552-19.852Z" transform="translate(-605.217 -22.521)" fill="#3868ad"/>
        <path id="Path_2146" data-name="Path 2146" d="M701.135,106.913s4.63-10.788,12.735-9.127c8.268,1.694,7.226,10.6,1.021,11.42s-10.137-3.2-13.757-2.294" transform="translate(-537.086 -74.773)" fill="#ffaa45"/>
        <path id="Path_2147" data-name="Path 2147" d="M892.025,46.561a7.994,7.994,0,1,1-5.819,9.693,7.994,7.994,0,0,1,5.819-9.693" transform="translate(-678.671 -35.482)" fill="#062d66"/>
        <path id="Path_2148" data-name="Path 2148" d="M892.22,61.1a8.534,8.534,0,1,1,2.066-.255,8.543,8.543,0,0,1-2.066.255m0-15.99a7.462,7.462,0,1,0,7.24,5.654,7.442,7.442,0,0,0-7.24-5.654" transform="translate(-676.929 -33.739)" fill="#bdd1f9"/>
        <path id="Path_2149" data-name="Path 2149" d="M974.494,44.32l-5.277-21.127c5.945,1.954,10.393,5.1,11.182,8.254.9,3.6-1.55,8.464-5.905,12.873" transform="translate(-742.443 -17.765)" fill="#ffaa45"/>
        <path id="Path_2150" data-name="Path 2150" d="M2013.5,609.317s16.153,16.748,16.917,23.052-7.738,16.144-7.738,16.144Z" transform="translate(-1542.386 -466.751)" fill="#f4932a"/>
        <path id="Path_2151" data-name="Path 2151" d="M1910.781,1341.758s-.57,8.884-2.29,9.007c-.229.016-8.718,0-8.718,0l-10.838-.086a3.517,3.517,0,0,1,3.246-3.156c3.169-.545,8.476-2.76,10.4-6.943,2.028-4.4,8.2,1.18,8.2,1.18" transform="translate(-1446.97 -1025.619)" fill="#2e5a99"/>
        <path id="Path_2152" data-name="Path 2152" d="M2013.949,1341.982s-.57,8.884-2.289,9.007c-.229.016-8.719,0-8.719,0l-10.837-.086a3.516,3.516,0,0,1,3.246-3.156c3.169-.545,8.476-2.76,10.4-6.943,2.028-4.4,8.195,1.18,8.195,1.18" transform="translate(-1526 -1025.791)" fill="#18417c"/>
        <path id="Path_2153" data-name="Path 2153" d="M1931.89,898.677s2.8,18.134,13.3,50.338,11.914,46.142,11.914,46.142l11.344-.294s.173-35.17-4.665-51.363-.926-58.342-.926-58.342Z" transform="translate(-1479.874 -678.052)" fill="#062d66"/>
        <path id="Path_2154" data-name="Path 2154" d="M1908.374,889.065a439.943,439.943,0,0,0,4.193,60.87c4.653,33.552,3.021,47.787,3.021,47.787l11.32.4s6.838-33.54,4.935-50.332,9.389-57.589,9.389-57.589Z" transform="translate(-1461.851 -681.044)" fill="#063992"/>
        <path id="Path_2155" data-name="Path 2155" d="M1954.368,571.817l-6.04,3.941-8.713-1.644c.122-.7.7-3.619,1.234-6.259.032-.156.064-.312.094-.464.454-2.247.845-4.177.845-4.177l8.15-3.575,3.038-1.332c-.008.047-.24,2.494-.273,2.851a20.753,20.753,0,0,0,1.665,10.658" transform="translate(-1485.792 -427.676)" fill="#ffb27d"/>
        <path id="Path_2156" data-name="Path 2156" d="M1937.754,598.379c.169-.071,10.5-3.1,11.625-2.723s1.781,2.545,1.781,2.545l-16.9,3.782a8.39,8.39,0,0,1,3.5-3.6" transform="translate(-1481.688 -456.261)" fill="#f4932a"/>
        <path id="Path_2157" data-name="Path 2157" d="M1939.246,675.874c-1.768,7.982-30.905,8.866-38.4,1.6-.853-.828-.886-4.672-.553-9.855.653-10.126,2.709-25.355,2.8-33.138a61.6,61.6,0,0,1,1.267-11.091,90.072,90.072,0,0,1,3.724-13.27s14.24-4.569,16.9-3.781c12.82,3.8,16.023,61.552,14.255,69.535" transform="translate(-1455.52 -464.399)" fill="#ffaa45"/>
        <path id="Path_2158" data-name="Path 2158" d="M1900.937,718.858c.652-10.126,2.709-25.355,2.8-33.138a61.606,61.606,0,0,1,1.267-11.091l8.563-1.492s8.3,34.2-12.635,45.721" transform="translate(-1456.164 -515.638)" fill="#f4932a"/>
        <path id="Path_2159" data-name="Path 2159" d="M1912.861,803.913a2.015,2.015,0,0,1-.647,2.33c-1.228.934-2.026,2.449-1.747,3.559s2.962,2.924,3.895,2.634,2.832-1.746,2.629-2.331,1.287-5.129-.981-6.885-3.148.693-3.148.693" transform="translate(-1463.421 -614.799)" fill="#ffb27d"/>
        <path id="Path_2160" data-name="Path 2160" d="M1880.114,614.1s-8.352,1.544-15.025,11.333-11.066,17.068-9.848,20.6,12.361,15.814,14.287,15.819,5.036-1.39,5.218-4.541c0,0-7.839-11.8-6.286-13.565.664-.753,10.228-8.483,11.583-4.979,2.243,5.8.071-24.67.071-24.67" transform="translate(-1421.004 -470.417)" fill="#ffaa45"/>
        <path id="Path_2161" data-name="Path 2161" d="M1956.131,565.629c-1.794,3.025-8.462,5.629-11.243,6.586.032-.156.064-.312.094-.464.454-2.247.845-4.177.845-4.177l8.149-3.575c1.8-.021,2.894.385,2.154,1.629" transform="translate(-1489.831 -432.036)" fill="#fca56b"/>
        <path id="Path_2162" data-name="Path 2162" d="M1930.462,506.518s13.106,4.119,15.545-4.082,5.774-13.192-2.49-16.169-10.828-.333-12.309,2.206-4.093,16.762-.747,18.045" transform="translate(-1477.533 -371.481)" fill="#ffb27d"/>
        <path id="Path_2163" data-name="Path 2163" d="M1937.179,473.018s.815,9.551,2.791,9.141,3.767-.714,3.472,2.164-3.041,6.2,3.044,6.718,14.869-15.154,13.2-18.13c-4.805-8.585-29.46-10.369-22.51.107" transform="translate(-1482.987 -356.815)" fill="#062d66"/>
        <path id="Path_2164" data-name="Path 2164" d="M1445.932,1361.765v3.436a1.171,1.171,0,0,1-.271.739,1.569,1.569,0,0,1-.739.494,1.526,1.526,0,0,1-.289.069,1.794,1.794,0,0,1-.279.02h-65.159a1.525,1.525,0,0,1-1.561-1.126c-.006-.042-.012-.085-.014-.13,0-.022,0-.045,0-.067v-3.436c0-.022,0-.045,0-.067,0-.045.008-.088.014-.13a1.525,1.525,0,0,1,1.561-1.126h65.159a1.75,1.75,0,0,1,.279.021,1.726,1.726,0,0,1,.289.069,1.571,1.571,0,0,1,.739.495,1.171,1.171,0,0,1,.271.739" transform="translate(-1055.288 -1042.13)" fill="#ffb93e"/>
        <path id="Path_2165" data-name="Path 2165" d="M1413.935,1366.525h-34.909a1.4,1.4,0,0,1-1.354-.98,1.144,1.144,0,0,1-.038-.146c-.006-.043-.012-.085-.014-.13,0-.022,0-.045,0-.067v-3.436c0-.022,0-.045,0-.067,0-.045.008-.087.014-.13a1.14,1.14,0,0,1,.038-.146,1.4,1.4,0,0,1,1.354-.98h30.623a10.657,10.657,0,0,0,4.287,6.082" transform="translate(-1055.288 -1042.131)" fill="#ffa412"/>
        <rect id="Rectangle_697" data-name="Rectangle 697" width="0.74" height="6.083" transform="translate(381.974 318.311)" fill="#ffa412"/>
        <rect id="Rectangle_698" data-name="Rectangle 698" width="0.74" height="6.083" transform="translate(379.467 318.311)" fill="#ffa412"/>
        <rect id="Rectangle_699" data-name="Rectangle 699" width="0.74" height="6.083" transform="translate(376.461 318.311)" fill="#ffa412"/>
        <rect id="Rectangle_700" data-name="Rectangle 700" width="0.741" height="6.083" transform="translate(371.853 318.311)" fill="#ffa412"/>
        <rect id="Rectangle_701" data-name="Rectangle 701" width="0.741" height="6.083" transform="translate(366.98 318.311)" fill="#ffa412"/>
        <rect id="Rectangle_702" data-name="Rectangle 702" width="0.74" height="6.083" transform="translate(359.511 318.311)" fill="#ffa412"/>
        <rect id="Rectangle_703" data-name="Rectangle 703" width="0.741" height="6.083" transform="translate(352.517 318.311)" fill="#ffa412"/>
        <rect id="Rectangle_704" data-name="Rectangle 704" width="0.74" height="6.083" transform="translate(346.271 318.311)" fill="#ffa412"/>
        <rect id="Rectangle_705" data-name="Rectangle 705" width="0.74" height="6.083" transform="translate(384.36 318.311)" fill="#ffa412"/>
        <rect id="Rectangle_706" data-name="Rectangle 706" width="0.741" height="6.083" transform="translate(385.937 318.311)" fill="#ffa412"/>
        <rect id="Rectangle_707" data-name="Rectangle 707" width="0.741" height="6.083" transform="translate(387.459 318.311)" fill="#ffa412"/>
        <path id="Path_2166" data-name="Path 2166" d="M1661.613,1360.461v6.041a1.874,1.874,0,0,1-.278.021h-.463v-6.083h.463a1.842,1.842,0,0,1,.278.021" transform="translate(-1272.268 -1042.129)" fill="#ffa412"/>
        <path id="Path_2167" data-name="Path 2167" d="M1666.011,1361.317v4.914a1.568,1.568,0,0,1-.74.5v-5.9a1.566,1.566,0,0,1,.74.5" transform="translate(-1275.638 -1042.422)" fill="#ffa412"/>
        <path id="Path_2168" data-name="Path 2168" d="M1416.158,1335.763v3.434a1.182,1.182,0,0,1-.269.741,1.561,1.561,0,0,1-.149.156,1.7,1.7,0,0,1-.881.405,1.769,1.769,0,0,1-.277.023h-65.162a1.527,1.527,0,0,1-1.559-1.128c-.006-.043-.012-.086-.014-.128,0-.023,0-.045,0-.069v-3.434c0-.022,0-.047,0-.069,0-.043.008-.086.014-.128a1.526,1.526,0,0,1,1.559-1.127h65.162a1.24,1.24,0,0,1,.124.006.286.286,0,0,1,.045,0,.005.005,0,0,1,.008,0,.311.311,0,0,1,.059.006l.041.006a1.732,1.732,0,0,1,.289.067c.055.019.108.039.159.061h0l.1.049.057.033a.448.448,0,0,1,.053.032,1.2,1.2,0,0,1,.192.141c.021.016.036.035.055.051s.022.02.032.03a.135.135,0,0,1,.016.019l.014.014a.635.635,0,0,1,.059.067,1.175,1.175,0,0,1,.269.739" transform="translate(-1032.482 -1022.211)" fill="#ffb93e"/>
        <path id="Path_2169" data-name="Path 2169" d="M1384.162,1340.522h-34.909a1.4,1.4,0,0,1-1.352-.983,1.114,1.114,0,0,1-.038-.145c-.006-.043-.012-.086-.014-.128,0-.023,0-.045,0-.069v-3.434c0-.022,0-.047,0-.069,0-.043.008-.086.014-.128a1.128,1.128,0,0,1,.038-.145,1.4,1.4,0,0,1,1.352-.982h30.623c.012.051.026.1.043.15a10.641,10.641,0,0,0,4.244,5.934" transform="translate(-1032.482 -1022.211)" fill="#ffa412"/>
        <rect id="Rectangle_708" data-name="Rectangle 708" width="0.741" height="6.083" transform="translate(375.007 312.228)" fill="#ffa412"/>
        <rect id="Rectangle_709" data-name="Rectangle 709" width="0.741" height="6.083" transform="translate(372.5 312.228)" fill="#ffa412"/>
        <rect id="Rectangle_710" data-name="Rectangle 710" width="0.74" height="6.083" transform="translate(369.494 312.228)" fill="#ffa412"/>
        <rect id="Rectangle_711" data-name="Rectangle 711" width="0.74" height="6.083" transform="translate(364.886 312.228)" fill="#ffa412"/>
        <rect id="Rectangle_712" data-name="Rectangle 712" width="0.74" height="6.083" transform="translate(360.014 312.228)" fill="#ffa412"/>
        <rect id="Rectangle_713" data-name="Rectangle 713" width="0.74" height="6.083" transform="translate(352.544 312.228)" fill="#ffa412"/>
        <rect id="Rectangle_714" data-name="Rectangle 714" width="0.74" height="6.083" transform="translate(345.55 312.228)" fill="#ffa412"/>
        <rect id="Rectangle_715" data-name="Rectangle 715" width="0.741" height="6.083" transform="translate(339.304 312.228)" fill="#ffa412"/>
        <rect id="Rectangle_716" data-name="Rectangle 716" width="0.741" height="6.083" transform="translate(377.394 312.228)" fill="#ffa412"/>
        <rect id="Rectangle_717" data-name="Rectangle 717" width="0.741" height="6.083" transform="translate(378.97 312.228)" fill="#ffa412"/>
        <rect id="Rectangle_718" data-name="Rectangle 718" width="0.74" height="6.083" transform="translate(380.492 312.228)" fill="#ffa412"/>
        <path id="Path_2170" data-name="Path 2170" d="M1631.836,1334.461v6.041a1.865,1.865,0,0,1-.278.021h-.463v-6.083h.463a1.817,1.817,0,0,1,.278.021" transform="translate(-1249.458 -1022.212)" fill="#ffa412"/>
        <path id="Path_2171" data-name="Path 2171" d="M1636.235,1335.317v4.913a1.567,1.567,0,0,1-.74.5v-5.9a1.569,1.569,0,0,1,.74.5" transform="translate(-1252.828 -1022.504)" fill="#ffa412"/>
        <path id="Path_2172" data-name="Path 2172" d="M1430.548,1310.409v3.436a1.171,1.171,0,0,1-.271.739,1.562,1.562,0,0,1-.739.494,1.857,1.857,0,0,1-.289.069,2.076,2.076,0,0,1-.276.02h-65.162a1.817,1.817,0,0,1-.727-.15,1.375,1.375,0,0,1-.83-.961c-.006-.029-.008-.057-.012-.086s0-.039,0-.059,0-.045,0-.067v-3.436c0-.022,0-.045,0-.067a.9.9,0,0,1,.014-.128,1.524,1.524,0,0,1,1.559-1.128h65.162a1.764,1.764,0,0,1,.276.02,1.691,1.691,0,0,1,.289.067,1.584,1.584,0,0,1,.739.5,1.17,1.17,0,0,1,.271.739" transform="translate(-1043.505 -1002.79)" fill="#ffb93e"/>
        <path id="Path_2173" data-name="Path 2173" d="M1398.552,1315.169h-34.909a1.455,1.455,0,0,1-.648-.151,1.334,1.334,0,0,1-.741-.961c-.006-.028-.008-.057-.012-.086a.579.579,0,0,1,0-.059c0-.023,0-.045,0-.067v-3.436c0-.022,0-.045,0-.067a.874.874,0,0,1,.014-.128,1.127,1.127,0,0,1,.036-.142,1.393,1.393,0,0,1,1.354-.986h30.622a10.677,10.677,0,0,0,4.073,5.931c.069.051.14.1.214.151" transform="translate(-1043.505 -1002.791)" fill="#ffa412"/>
        <rect id="Rectangle_719" data-name="Rectangle 719" width="0.741" height="6.083" transform="translate(378.374 306.295)" fill="#ffa412"/>
        <rect id="Rectangle_720" data-name="Rectangle 720" width="0.741" height="6.083" transform="translate(375.867 306.295)" fill="#ffa412"/>
        <rect id="Rectangle_721" data-name="Rectangle 721" width="0.741" height="6.083" transform="translate(372.861 306.295)" fill="#ffa412"/>
        <rect id="Rectangle_722" data-name="Rectangle 722" width="0.741" height="6.083" transform="translate(368.253 306.295)" fill="#ffa412"/>
        <rect id="Rectangle_723" data-name="Rectangle 723" width="0.741" height="6.083" transform="translate(363.38 306.295)" fill="#ffa412"/>
        <rect id="Rectangle_724" data-name="Rectangle 724" width="0.741" height="6.083" transform="translate(355.91 306.295)" fill="#ffa412"/>
        <rect id="Rectangle_725" data-name="Rectangle 725" width="0.741" height="6.083" transform="translate(348.916 306.295)" fill="#ffa412"/>
        <rect id="Rectangle_726" data-name="Rectangle 726" width="0.74" height="6.083" transform="translate(342.671 306.295)" fill="#ffa412"/>
        <rect id="Rectangle_727" data-name="Rectangle 727" width="0.741" height="6.083" transform="translate(380.76 306.295)" fill="#ffa412"/>
        <rect id="Rectangle_728" data-name="Rectangle 728" width="0.741" height="6.083" transform="translate(382.337 306.295)" fill="#ffa412"/>
        <rect id="Rectangle_729" data-name="Rectangle 729" width="0.741" height="6.083" transform="translate(383.859 306.295)" fill="#ffa412"/>
        <path id="Path_2174" data-name="Path 2174" d="M1646.226,1309.1v6.041a1.829,1.829,0,0,1-.278.021h-.463v-6.083h.463a1.814,1.814,0,0,1,.278.021" transform="translate(-1260.481 -1002.788)" fill="#ffa412"/>
        <path id="Path_2175" data-name="Path 2175" d="M1650.624,1309.96v4.914a1.568,1.568,0,0,1-.74.5v-5.9a1.57,1.57,0,0,1,.74.5" transform="translate(-1263.851 -1003.081)" fill="#ffa412"/>
        <path id="Path_2176" data-name="Path 2176" d="M1437.221,1284.409v3.434a1.165,1.165,0,0,1-.271.739c-.022.028-.047.055-.071.081a1.534,1.534,0,0,1-.45.328,1.837,1.837,0,0,1-.218.087,1.66,1.66,0,0,1-.289.067c-.045.006-.09.012-.136.016s-.1.006-.142.006h-65.159a1.528,1.528,0,0,1-1.561-1.128c-.006-.043-.012-.085-.014-.128v-3.573a1.454,1.454,0,0,1,1.388-1.246c.061-.006.124-.01.188-.01h65.159c.047,0,.1,0,.142.006a1.364,1.364,0,0,1,.136.016,1.753,1.753,0,0,1,.289.067,1.574,1.574,0,0,1,.739.5,1.169,1.169,0,0,1,.271.741" transform="translate(-1048.617 -982.872)" fill="#ffb93e"/>
        <path id="Path_2177" data-name="Path 2177" d="M1405.225,1289.168h-34.909a1.4,1.4,0,0,1-1.354-.982,1.112,1.112,0,0,1-.038-.146c-.006-.043-.012-.086-.014-.128v-3.573a1.369,1.369,0,0,1,1.24-1.246,1.561,1.561,0,0,1,.167-.01h30.623s0,.006,0,.01a10.669,10.669,0,0,0,4.285,6.074" transform="translate(-1048.617 -982.872)" fill="#ffa412"/>
        <rect id="Rectangle_730" data-name="Rectangle 730" width="0.741" height="6.083" transform="translate(379.935 300.212)" fill="#ffa412"/>
        <rect id="Rectangle_731" data-name="Rectangle 731" width="0.74" height="6.083" transform="translate(377.428 300.212)" fill="#ffa412"/>
        <rect id="Rectangle_732" data-name="Rectangle 732" width="0.74" height="6.083" transform="translate(374.422 300.212)" fill="#ffa412"/>
        <rect id="Rectangle_733" data-name="Rectangle 733" width="0.741" height="6.083" transform="translate(369.814 300.212)" fill="#ffa412"/>
        <rect id="Rectangle_734" data-name="Rectangle 734" width="0.74" height="6.083" transform="translate(364.941 300.212)" fill="#ffa412"/>
        <rect id="Rectangle_735" data-name="Rectangle 735" width="0.741" height="6.083" transform="translate(357.471 300.212)" fill="#ffa412"/>
        <rect id="Rectangle_736" data-name="Rectangle 736" width="0.741" height="6.083" transform="translate(350.477 300.212)" fill="#ffa412"/>
        <rect id="Rectangle_737" data-name="Rectangle 737" width="0.741" height="6.083" transform="translate(344.232 300.212)" fill="#ffa412"/>
        <rect id="Rectangle_738" data-name="Rectangle 738" width="0.741" height="6.083" transform="translate(382.321 300.212)" fill="#ffa412"/>
        <rect id="Rectangle_739" data-name="Rectangle 739" width="0.741" height="6.083" transform="translate(383.897 300.212)" fill="#ffa412"/>
        <rect id="Rectangle_740" data-name="Rectangle 740" width="0.741" height="6.083" transform="translate(385.42 300.212)" fill="#ffa412"/>
        <path id="Path_2178" data-name="Path 2178" d="M1652.9,1283.105v6.041a1.85,1.85,0,0,1-.278.021h-.463v-6.083h.463a1.773,1.773,0,0,1,.278.021" transform="translate(-1265.591 -982.872)" fill="#ffa412"/>
        <path id="Path_2179" data-name="Path 2179" d="M1657.3,1283.96v4.914a1.569,1.569,0,0,1-.74.5v-5.9a1.57,1.57,0,0,1,.74.5" transform="translate(-1268.962 -983.164)" fill="#ffa412"/>
        <path id="Path_2180" data-name="Path 2180" d="M1416.741,1258.448v3.434a1.165,1.165,0,0,1-.269.739,1.557,1.557,0,0,1-.741.5,1.654,1.654,0,0,1-.287.067.647.647,0,0,1-.091.012h-.012a.41.41,0,0,1-.049,0l-.042,0-.084,0h-65.159a1.489,1.489,0,0,1-1.575-1.255c0-.023,0-.045,0-.07v-3.434c0-.023,0-.047,0-.069s0-.037,0-.055a1.427,1.427,0,0,1,1.183-1.158.327.327,0,0,1,.047-.01,1.875,1.875,0,0,1,.342-.033h65.159c.049,0,.094,0,.141.006l.059.006h.006c.024,0,.049.006.073.01a1.688,1.688,0,0,1,.287.067,1.557,1.557,0,0,1,.741.5,1.166,1.166,0,0,1,.269.739" transform="translate(-1032.928 -962.986)" fill="#ffb93e"/>
        <path id="Path_2181" data-name="Path 2181" d="M1384.744,1263.207h-34.907a1.378,1.378,0,0,1-1.406-1.255c0-.023,0-.045,0-.07v-3.434c0-.023,0-.047,0-.069s0-.037,0-.055a1.357,1.357,0,0,1,1.093-1.166.282.282,0,0,1,.059-.013,1.476,1.476,0,0,1,.251-.022h30.621c0,.016.008.029.012.045a10.662,10.662,0,0,0,4.26,6.029s.01.006.014.01" transform="translate(-1032.928 -962.986)" fill="#ffa412"/>
        <rect id="Rectangle_741" data-name="Rectangle 741" width="0.741" height="6.083" transform="translate(375.144 294.138)" fill="#ffa412"/>
        <rect id="Rectangle_742" data-name="Rectangle 742" width="0.741" height="6.083" transform="translate(372.637 294.138)" fill="#ffa412"/>
        <rect id="Rectangle_743" data-name="Rectangle 743" width="0.741" height="6.083" transform="translate(369.631 294.138)" fill="#ffa412"/>
        <rect id="Rectangle_744" data-name="Rectangle 744" width="0.741" height="6.083" transform="translate(365.023 294.138)" fill="#ffa412"/>
        <rect id="Rectangle_745" data-name="Rectangle 745" width="0.741" height="6.083" transform="translate(360.15 294.138)" fill="#ffa412"/>
        <rect id="Rectangle_746" data-name="Rectangle 746" width="0.741" height="6.083" transform="translate(352.681 294.138)" fill="#ffa412"/>
        <rect id="Rectangle_747" data-name="Rectangle 747" width="0.741" height="6.083" transform="translate(345.686 294.138)" fill="#ffa412"/>
        <rect id="Rectangle_748" data-name="Rectangle 748" width="0.741" height="6.083" transform="translate(339.441 294.138)" fill="#ffa412"/>
        <rect id="Rectangle_749" data-name="Rectangle 749" width="0.74" height="6.083" transform="translate(377.53 294.138)" fill="#ffa412"/>
        <rect id="Rectangle_750" data-name="Rectangle 750" width="0.741" height="6.083" transform="translate(379.107 294.138)" fill="#ffa412"/>
        <rect id="Rectangle_751" data-name="Rectangle 751" width="0.741" height="6.083" transform="translate(380.629 294.138)" fill="#ffa412"/>
        <path id="Path_2182" data-name="Path 2182" d="M1632.422,1257.147v6.041a1.871,1.871,0,0,1-.278.021h-.463v-6.083h.463a1.808,1.808,0,0,1,.278.021" transform="translate(-1249.908 -962.988)" fill="#ffa412"/>
        <path id="Path_2183" data-name="Path 2183" d="M1636.82,1258v4.914a1.574,1.574,0,0,1-.74.5v-5.9a1.57,1.57,0,0,1,.74.5" transform="translate(-1253.277 -963.28)" fill="#ffa412"/>
        <path id="Path_2184" data-name="Path 2184" d="M1416.158,1232.636v3.434a1.176,1.176,0,0,1-.269.739,1.791,1.791,0,0,1-.149.159,1.627,1.627,0,0,1-.592.338,1.734,1.734,0,0,1-.224.057h-.006a.528.528,0,0,1-.059.01,1.754,1.754,0,0,1-.277.023h-65.162a1.73,1.73,0,0,1-.2-.012c-.027,0-.053-.006-.078-.011a1.465,1.465,0,0,1-1.28-1.119c-.006-.039-.01-.076-.012-.114s0-.047,0-.069v-3.434c0-.024,0-.047,0-.069,0-.042.008-.086.014-.128a1.526,1.526,0,0,1,1.559-1.128h65.162c.041,0,.083,0,.124,0l.017,0a.223.223,0,0,0,.036,0c.019,0,.039,0,.059.008a.148.148,0,0,1,.041.006,1.651,1.651,0,0,1,.289.067q.083.027.159.061h0a1.594,1.594,0,0,1,.521.366c.02.022.041.045.059.067a1.18,1.18,0,0,1,.269.741" transform="translate(-1032.482 -943.213)" fill="#ffb93e"/>
        <path id="Path_2185" data-name="Path 2185" d="M1384.162,1237.4h-34.909l-.082,0-.089-.008a1.377,1.377,0,0,1-1.222-1.132c-.006-.039-.01-.075-.012-.114s0-.047,0-.069v-3.434c0-.024,0-.047,0-.069,0-.042.008-.085.014-.128a1.129,1.129,0,0,1,.038-.145,1.4,1.4,0,0,1,1.352-.982h30.623c.012.051.026.1.043.15a10.64,10.64,0,0,0,4.181,5.889c.02.016.043.029.063.045" transform="translate(-1032.482 -943.213)" fill="#ffa412"/>
        <rect id="Rectangle_752" data-name="Rectangle 752" width="0.741" height="6.083" transform="translate(375.007 288.099)" fill="#ffa412"/>
        <rect id="Rectangle_753" data-name="Rectangle 753" width="0.741" height="6.083" transform="translate(372.5 288.099)" fill="#ffa412"/>
        <rect id="Rectangle_754" data-name="Rectangle 754" width="0.74" height="6.083" transform="translate(369.494 288.099)" fill="#ffa412"/>
        <rect id="Rectangle_755" data-name="Rectangle 755" width="0.74" height="6.083" transform="translate(364.886 288.099)" fill="#ffa412"/>
        <rect id="Rectangle_756" data-name="Rectangle 756" width="0.74" height="6.083" transform="translate(360.014 288.099)" fill="#ffa412"/>
        <rect id="Rectangle_757" data-name="Rectangle 757" width="0.74" height="6.083" transform="translate(352.544 288.099)" fill="#ffa412"/>
        <rect id="Rectangle_758" data-name="Rectangle 758" width="0.74" height="6.083" transform="translate(345.55 288.099)" fill="#ffa412"/>
        <rect id="Rectangle_759" data-name="Rectangle 759" width="0.741" height="6.083" transform="translate(339.304 288.099)" fill="#ffa412"/>
        <rect id="Rectangle_760" data-name="Rectangle 760" width="0.741" height="6.083" transform="translate(377.394 288.099)" fill="#ffa412"/>
        <rect id="Rectangle_761" data-name="Rectangle 761" width="0.741" height="6.083" transform="translate(378.97 288.099)" fill="#ffa412"/>
        <rect id="Rectangle_762" data-name="Rectangle 762" width="0.74" height="6.083" transform="translate(380.492 288.099)" fill="#ffa412"/>
        <path id="Path_2186" data-name="Path 2186" d="M1631.836,1231.334v6.04a1.833,1.833,0,0,1-.278.021h-.463v-6.083h.463a1.817,1.817,0,0,1,.278.021" transform="translate(-1249.458 -943.214)" fill="#ffa412"/>
        <path id="Path_2187" data-name="Path 2187" d="M1636.235,1232.189v4.914a1.569,1.569,0,0,1-.74.5v-5.9a1.569,1.569,0,0,1,.74.5" transform="translate(-1252.828 -943.506)" fill="#ffa412"/>
        <path id="Path_2188" data-name="Path 2188" d="M1430.548,1207.276v3.434a1.172,1.172,0,0,1-.271.741,1.562,1.562,0,0,1-.739.494,1.625,1.625,0,0,1-.289.067,1.808,1.808,0,0,1-.276.022h-65.162a1.809,1.809,0,0,1-.727-.151,1.374,1.374,0,0,1-.83-.96c-.006-.028-.008-.057-.012-.086s0-.038,0-.059,0-.045,0-.069v-3.434c0-.022,0-.047,0-.069a.931.931,0,0,1,.014-.128,1.526,1.526,0,0,1,1.559-1.128h65.162a1.763,1.763,0,0,1,.276.022,1.636,1.636,0,0,1,.289.068,1.551,1.551,0,0,1,.739.5,1.167,1.167,0,0,1,.271.739" transform="translate(-1043.505 -923.787)" fill="#ffb93e"/>
        <path id="Path_2189" data-name="Path 2189" d="M1398.552,1212.035h-34.909a1.456,1.456,0,0,1-.648-.15,1.335,1.335,0,0,1-.741-.961c-.006-.028-.008-.057-.012-.086s0-.038,0-.059,0-.045,0-.069v-3.434c0-.022,0-.047,0-.069a.9.9,0,0,1,.014-.128,1.111,1.111,0,0,1,.036-.141,1.4,1.4,0,0,1,1.354-.986h30.622a10.674,10.674,0,0,0,4.073,5.934c.069.051.14.1.214.15" transform="translate(-1043.505 -923.787)" fill="#ffa412"/>
        <rect id="Rectangle_763" data-name="Rectangle 763" width="0.741" height="6.083" transform="translate(378.374 282.166)" fill="#ffa412"/>
        <rect id="Rectangle_764" data-name="Rectangle 764" width="0.741" height="6.083" transform="translate(375.867 282.166)" fill="#ffa412"/>
        <rect id="Rectangle_765" data-name="Rectangle 765" width="0.741" height="6.083" transform="translate(372.861 282.166)" fill="#ffa412"/>
        <rect id="Rectangle_766" data-name="Rectangle 766" width="0.741" height="6.083" transform="translate(368.253 282.166)" fill="#ffa412"/>
        <rect id="Rectangle_767" data-name="Rectangle 767" width="0.741" height="6.083" transform="translate(363.38 282.166)" fill="#ffa412"/>
        <rect id="Rectangle_768" data-name="Rectangle 768" width="0.741" height="6.083" transform="translate(355.91 282.166)" fill="#ffa412"/>
        <rect id="Rectangle_769" data-name="Rectangle 769" width="0.741" height="6.083" transform="translate(348.916 282.166)" fill="#ffa412"/>
        <rect id="Rectangle_770" data-name="Rectangle 770" width="0.74" height="6.083" transform="translate(342.671 282.166)" fill="#ffa412"/>
        <rect id="Rectangle_771" data-name="Rectangle 771" width="0.741" height="6.083" transform="translate(380.76 282.166)" fill="#ffa412"/>
        <rect id="Rectangle_772" data-name="Rectangle 772" width="0.741" height="6.083" transform="translate(382.337 282.166)" fill="#ffa412"/>
        <rect id="Rectangle_773" data-name="Rectangle 773" width="0.741" height="6.083" transform="translate(383.859 282.166)" fill="#ffa412"/>
        <path id="Path_2190" data-name="Path 2190" d="M1646.226,1205.976v6.041a1.894,1.894,0,0,1-.278.021h-.463v-6.083h.463a1.8,1.8,0,0,1,.278.021" transform="translate(-1260.481 -923.789)" fill="#ffa412"/>
        <path id="Path_2191" data-name="Path 2191" d="M1650.624,1206.832v4.913a1.568,1.568,0,0,1-.74.5v-5.9a1.568,1.568,0,0,1,.74.5" transform="translate(-1263.851 -924.082)" fill="#ffa412"/>
        <path id="Path_2192" data-name="Path 2192" d="M1453.307,1181.279v3.436a1.177,1.177,0,0,1-.269.737l0,0c-.022.028-.047.055-.071.081a1.488,1.488,0,0,1-.348.273,1.684,1.684,0,0,1-.208.1,0,0,0,0,0,0,0c-.034.014-.071.028-.11.041a1.655,1.655,0,0,1-.289.067,1.784,1.784,0,0,1-.277.021H1386.57a1.525,1.525,0,0,1-1.56-1.125.94.94,0,0,1-.014-.131.647.647,0,0,1,0-.067v-3.436a.647.647,0,0,1,0-.067,1.452,1.452,0,0,1,1.388-1.246,1.413,1.413,0,0,1,.185-.01h65.161a2.062,2.062,0,0,1,.277.02,1.855,1.855,0,0,1,.289.069,1.6,1.6,0,0,1,.668.413c.025.027.049.053.071.081l0,0a1.175,1.175,0,0,1,.269.737" transform="translate(-1060.939 -903.874)" fill="#ffb93e"/>
        <path id="Path_2193" data-name="Path 2193" d="M1421.31,1186.039H1386.4a1.394,1.394,0,0,1-1.354-.984,1.219,1.219,0,0,1-.036-.141.934.934,0,0,1-.014-.13.653.653,0,0,1,0-.067v-3.436a.648.648,0,0,1,0-.067,1.366,1.366,0,0,1,1.238-1.246,1.122,1.122,0,0,1,.167-.01h30.623a.073.073,0,0,1,0,.01,10.658,10.658,0,0,0,4.285,6.072" transform="translate(-1060.939 -903.875)" fill="#ffa412"/>
        <rect id="Rectangle_774" data-name="Rectangle 774" width="0.741" height="6.083" transform="translate(383.699 276.082)" fill="#ffa412"/>
        <rect id="Rectangle_775" data-name="Rectangle 775" width="0.741" height="6.083" transform="translate(381.192 276.082)" fill="#ffa412"/>
        <rect id="Rectangle_776" data-name="Rectangle 776" width="0.74" height="6.083" transform="translate(378.186 276.082)" fill="#ffa412"/>
        <rect id="Rectangle_777" data-name="Rectangle 777" width="0.741" height="6.083" transform="translate(373.578 276.082)" fill="#ffa412"/>
        <rect id="Rectangle_778" data-name="Rectangle 778" width="0.741" height="6.083" transform="translate(368.705 276.082)" fill="#ffa412"/>
        <rect id="Rectangle_779" data-name="Rectangle 779" width="0.741" height="6.083" transform="translate(361.235 276.082)" fill="#ffa412"/>
        <rect id="Rectangle_780" data-name="Rectangle 780" width="0.74" height="6.083" transform="translate(354.241 276.082)" fill="#ffa412"/>
        <rect id="Rectangle_781" data-name="Rectangle 781" width="0.74" height="6.083" transform="translate(347.996 276.082)" fill="#ffa412"/>
        <rect id="Rectangle_782" data-name="Rectangle 782" width="0.741" height="6.083" transform="translate(386.085 276.082)" fill="#ffa412"/>
        <rect id="Rectangle_783" data-name="Rectangle 783" width="0.741" height="6.083" transform="translate(387.662 276.082)" fill="#ffa412"/>
        <rect id="Rectangle_784" data-name="Rectangle 784" width="0.74" height="6.083" transform="translate(389.184 276.082)" fill="#ffa412"/>
        <path id="Path_2194" data-name="Path 2194" d="M1668.986,1179.976v6.041a1.878,1.878,0,0,1-.278.021h-.463v-6.083h.463a1.814,1.814,0,0,1,.278.021" transform="translate(-1277.916 -903.873)" fill="#ffa412"/>
        <path id="Path_2195" data-name="Path 2195" d="M1673.383,1180.833v4.913a1.567,1.567,0,0,1-.74.5v-5.9a1.569,1.569,0,0,1,.74.5" transform="translate(-1281.285 -904.166)" fill="#ffa412"/>
        <path id="Path_2196" data-name="Path 2196" d="M1416.741,1155.322v3.433a1.165,1.165,0,0,1-.269.739,1.553,1.553,0,0,1-.741.5,1.643,1.643,0,0,1-.287.067l-.091.012h-.012a.538.538,0,0,1-.061.006l-.037,0-.077,0h-65.159a1.656,1.656,0,0,1-1.341-.631,1.163,1.163,0,0,1-.234-.625c0-.025,0-.047,0-.07v-3.433c0-.025,0-.047,0-.069a1.4,1.4,0,0,1,1.118-1.2,1.762,1.762,0,0,1,.458-.059h65.159l.084,0a.243.243,0,0,1,.041,0,1.232,1.232,0,0,1,.154.016,1.711,1.711,0,0,1,.287.067,1,1,0,0,1,.134.051h0a1.541,1.541,0,0,1,.456.287.034.034,0,0,1,.006.008l.018.016a1.264,1.264,0,0,1,.124.133,1.168,1.168,0,0,1,.269.741" transform="translate(-1032.928 -883.988)" fill="#ffb93e"/>
        <path id="Path_2197" data-name="Path 2197" d="M1384.744,1160.081h-34.907a1.431,1.431,0,0,1-1.176-.6,1.246,1.246,0,0,1-.23-.655c0-.025,0-.047,0-.07v-3.433c0-.025,0-.047,0-.069a1.357,1.357,0,0,1,1.121-1.228,1.469,1.469,0,0,1,.285-.028h30.621c.012.047.026.094.04.14a10.64,10.64,0,0,0,4.232,5.934.059.059,0,0,1,.014.01" transform="translate(-1032.928 -883.988)" fill="#ffa412"/>
        <rect id="Rectangle_785" data-name="Rectangle 785" width="0.741" height="6.083" transform="translate(375.144 270.009)" fill="#ffa412"/>
        <rect id="Rectangle_786" data-name="Rectangle 786" width="0.741" height="6.083" transform="translate(372.637 270.009)" fill="#ffa412"/>
        <rect id="Rectangle_787" data-name="Rectangle 787" width="0.741" height="6.083" transform="translate(369.631 270.009)" fill="#ffa412"/>
        <rect id="Rectangle_788" data-name="Rectangle 788" width="0.741" height="6.083" transform="translate(365.023 270.009)" fill="#ffa412"/>
        <rect id="Rectangle_789" data-name="Rectangle 789" width="0.741" height="6.083" transform="translate(360.15 270.009)" fill="#ffa412"/>
        <rect id="Rectangle_790" data-name="Rectangle 790" width="0.741" height="6.083" transform="translate(352.681 270.009)" fill="#ffa412"/>
        <rect id="Rectangle_791" data-name="Rectangle 791" width="0.741" height="6.083" transform="translate(345.686 270.009)" fill="#ffa412"/>
        <rect id="Rectangle_792" data-name="Rectangle 792" width="0.741" height="6.083" transform="translate(339.441 270.009)" fill="#ffa412"/>
        <rect id="Rectangle_793" data-name="Rectangle 793" width="0.74" height="6.083" transform="translate(377.53 270.009)" fill="#ffa412"/>
        <rect id="Rectangle_794" data-name="Rectangle 794" width="0.741" height="6.083" transform="translate(379.107 270.009)" fill="#ffa412"/>
        <rect id="Rectangle_795" data-name="Rectangle 795" width="0.741" height="6.083" transform="translate(380.629 270.009)" fill="#ffa412"/>
        <path id="Path_2198" data-name="Path 2198" d="M1632.422,1154.018v6.041a1.855,1.855,0,0,1-.278.021h-.463V1154h.463a1.763,1.763,0,0,1,.278.021" transform="translate(-1249.908 -883.988)" fill="#ffa412"/>
        <path id="Path_2199" data-name="Path 2199" d="M1636.82,1154.874v4.913a1.568,1.568,0,0,1-.74.5v-5.9a1.574,1.574,0,0,1,.74.5" transform="translate(-1253.277 -884.28)" fill="#ffa412"/>
        <path id="Path_2200" data-name="Path 2200" d="M1437.218,1129.923v3.435a1.169,1.169,0,0,1-.27.739,1.568,1.568,0,0,1-.74.5,1.721,1.721,0,0,1-.289.068,1.833,1.833,0,0,1-.278.021h-65.16a1.8,1.8,0,0,1-.7-.141,1.355,1.355,0,0,1-.866-1.061c0-.018,0-.036,0-.054s0-.045,0-.068v-3.435c0-.023,0-.045,0-.068a1.453,1.453,0,0,1,1.389-1.246,1.721,1.721,0,0,1,.186-.009h65.16a1.787,1.787,0,0,1,.278.021,1.686,1.686,0,0,1,.289.068,1.57,1.57,0,0,1,.74.5,1.169,1.169,0,0,1,.27.739" transform="translate(-1048.614 -864.533)" fill="#ffb93e"/>
        <path id="Path_2201" data-name="Path 2201" d="M1405.221,1134.682h-34.908a1.455,1.455,0,0,1-.629-.141,1.332,1.332,0,0,1-.773-1.061c0-.018,0-.036,0-.054s0-.045,0-.068v-3.435c0-.023,0-.045,0-.068a1.411,1.411,0,0,1,1.406-1.256h30.622l0,.009a10.668,10.668,0,0,0,4.084,5.933c.065.048.132.095.2.141" transform="translate(-1048.614 -864.533)" fill="#ffa412"/>
        <rect id="Rectangle_796" data-name="Rectangle 796" width="0.741" height="6.083" transform="translate(379.935 264.066)" fill="#ffa412"/>
        <rect id="Rectangle_797" data-name="Rectangle 797" width="0.74" height="6.083" transform="translate(377.428 264.066)" fill="#ffa412"/>
        <rect id="Rectangle_798" data-name="Rectangle 798" width="0.74" height="6.083" transform="translate(374.422 264.066)" fill="#ffa412"/>
        <rect id="Rectangle_799" data-name="Rectangle 799" width="0.741" height="6.083" transform="translate(369.814 264.066)" fill="#ffa412"/>
        <rect id="Rectangle_800" data-name="Rectangle 800" width="0.74" height="6.083" transform="translate(364.941 264.066)" fill="#ffa412"/>
        <rect id="Rectangle_801" data-name="Rectangle 801" width="0.741" height="6.083" transform="translate(357.471 264.066)" fill="#ffa412"/>
        <rect id="Rectangle_802" data-name="Rectangle 802" width="0.741" height="6.083" transform="translate(350.477 264.066)" fill="#ffa412"/>
        <rect id="Rectangle_803" data-name="Rectangle 803" width="0.741" height="6.083" transform="translate(344.232 264.066)" fill="#ffa412"/>
        <rect id="Rectangle_804" data-name="Rectangle 804" width="0.741" height="6.083" transform="translate(382.321 264.066)" fill="#ffa412"/>
        <rect id="Rectangle_805" data-name="Rectangle 805" width="0.741" height="6.083" transform="translate(383.897 264.066)" fill="#ffa412"/>
        <rect id="Rectangle_806" data-name="Rectangle 806" width="0.741" height="6.083" transform="translate(385.42 264.066)" fill="#ffa412"/>
        <path id="Path_2202" data-name="Path 2202" d="M1652.9,1128.62v6.041a1.834,1.834,0,0,1-.278.021h-.463V1128.6h.463a1.788,1.788,0,0,1,.278.021" transform="translate(-1265.591 -864.533)" fill="#ffa412"/>
        <path id="Path_2203" data-name="Path 2203" d="M1657.3,1129.475v4.914a1.569,1.569,0,0,1-.74.5v-5.9a1.573,1.573,0,0,1,.74.5" transform="translate(-1268.962 -864.824)" fill="#ffa412"/>
        <path id="Path_2204" data-name="Path 2204" d="M1445.934,1103.965v3.435a1.17,1.17,0,0,1-.27.74,1.568,1.568,0,0,1-.74.5,1.717,1.717,0,0,1-.288.068l-.092.012-.051,0-.052,0-.084,0H1379.2a1.489,1.489,0,0,1-1.575-1.256c0-.023,0-.045,0-.069v-3.435c0-.023,0-.045,0-.068a1.489,1.489,0,0,1,1.575-1.256h65.16a1.8,1.8,0,0,1,.278.021,1.717,1.717,0,0,1,.288.068,1.573,1.573,0,0,1,.74.5,1.17,1.17,0,0,1,.27.739" transform="translate(-1055.291 -844.648)" fill="#ffb93e"/>
        <path id="Path_2205" data-name="Path 2205" d="M1413.937,1108.724h-34.909a1.378,1.378,0,0,1-1.406-1.256c0-.023,0-.045,0-.069v-3.435c0-.022,0-.045,0-.068a1.378,1.378,0,0,1,1.406-1.256h30.622a10.664,10.664,0,0,0,4.273,6.074l.014.009" transform="translate(-1055.291 -844.648)" fill="#ffa412"/>
        <rect id="Rectangle_807" data-name="Rectangle 807" width="0.74" height="6.083" transform="translate(381.974 257.993)" fill="#ffa412"/>
        <rect id="Rectangle_808" data-name="Rectangle 808" width="0.74" height="6.083" transform="translate(379.467 257.993)" fill="#ffa412"/>
        <rect id="Rectangle_809" data-name="Rectangle 809" width="0.741" height="6.083" transform="translate(376.461 257.993)" fill="#ffa412"/>
        <rect id="Rectangle_810" data-name="Rectangle 810" width="0.74" height="6.083" transform="translate(371.853 257.993)" fill="#ffa412"/>
        <rect id="Rectangle_811" data-name="Rectangle 811" width="0.741" height="6.083" transform="translate(366.98 257.993)" fill="#ffa412"/>
        <rect id="Rectangle_812" data-name="Rectangle 812" width="0.741" height="6.083" transform="translate(359.511 257.993)" fill="#ffa412"/>
        <rect id="Rectangle_813" data-name="Rectangle 813" width="0.741" height="6.083" transform="translate(352.517 257.993)" fill="#ffa412"/>
        <rect id="Rectangle_814" data-name="Rectangle 814" width="0.741" height="6.083" transform="translate(346.271 257.992)" fill="#ffa412"/>
        <rect id="Rectangle_815" data-name="Rectangle 815" width="0.741" height="6.083" transform="translate(384.36 257.993)" fill="#ffa412"/>
        <rect id="Rectangle_816" data-name="Rectangle 816" width="0.741" height="6.083" transform="translate(385.937 257.993)" fill="#ffa412"/>
        <rect id="Rectangle_817" data-name="Rectangle 817" width="0.741" height="6.083" transform="translate(387.459 257.993)" fill="#ffa412"/>
        <path id="Path_2206" data-name="Path 2206" d="M1661.614,1102.662v6.041a1.864,1.864,0,0,1-.278.021h-.463v-6.083h.463a1.8,1.8,0,0,1,.278.021" transform="translate(-1272.269 -844.648)" fill="#ffa412"/>
        <path id="Path_2207" data-name="Path 2207" d="M1666.011,1103.518v4.913a1.569,1.569,0,0,1-.74.5v-5.9a1.569,1.569,0,0,1,.74.5" transform="translate(-1275.638 -844.94)" fill="#ffa412"/>
        <path id="Path_2208" data-name="Path 2208" d="M1528.673,933.124s-3.422,4.818-6.56,4.885-7.911-2.234-7.911-2.234-2.881-6.42-.927-8.933a4.2,4.2,0,0,1,4.009.659,6.177,6.177,0,0,1,1.061,1.016,3.364,3.364,0,0,0,1.647,1.117c2.239.681,4.9-.921,5.89.625a10.507,10.507,0,0,0,1.731,2.049,7.932,7.932,0,0,0,1.061.815" transform="translate(-1158.685 -709.797)" fill="#ffeddc"/>
        <path id="Path_2209" data-name="Path 2209" d="M1390.615,1005.231s12.1-29.311,33.871-29.87c0,0,20.1,2.233,21.216,29.87Z" transform="translate(-1065.245 -747.149)" fill="#ffeddc"/>
        <path id="Path_2210" data-name="Path 2210" d="M1509.744,966.766s8.728,1.941,11.421.8c0,0,.407-3.649-3.268-3.137a7.711,7.711,0,0,1-5.118-1.349c-1.364-.694-3.4,2.16-3.034,3.687" transform="translate(-1156.467 -737.659)" fill="#3868ad"/>
        <path id="Path_2211" data-name="Path 2211" d="M1534.906,936.353c-.559.419-2.272-5.9-2.272-5.9a6.147,6.147,0,0,1,1.061,1.016,3.363,3.363,0,0,0,1.647,1.116c.006.184.106,3.361-.435,3.769" transform="translate(-1174.035 -712.748)" fill="#e5c1a1"/>
        <path id="Path_2212" data-name="Path 2212" d="M1561.173,944.289c-.123.072-4.16,2.49-4.707,2.49s2.976-4.539,2.976-4.539a10.5,10.5,0,0,0,1.731,2.049" transform="translate(-1192.245 -721.778)" fill="#e5c1a1"/>
        <path id="Path_2213" data-name="Path 2213" d="M1441.109,1025.367c-.224-.191,8.561-12.934,10.98-13.027s7.855,2.792,11.79,3.164,7.75-.745,8.495,1.582,2.792,10.574,1.535,11.894-27.97.515-32.8-3.612" transform="translate(-1103.921 -775.474)" fill="#f9ddbf"/>
        <g id="Group_967" data-name="Group 967" transform="translate(315.364 262.34)" opacity="0.5">
          <g id="Group_966" data-name="Group 966">
            <g id="Group_965" data-name="Group 965" clip-path="url(#clip-path-3)">
              <path id="Path_2214" data-name="Path 2214" d="M1377.943,1153.022c0,.016,0,.031,0,.045a29.125,29.125,0,0,1-.977,6.029s0,.006,0,.01q-.116.428-.246.853a29.818,29.818,0,0,1-2.148,5.221,30.254,30.254,0,0,1-4.093,5.932c-.043.051-.088.1-.132.15a31.369,31.369,0,0,1-7.159,5.934q-.867.528-1.779,1.008c-.411.216-.824.419-1.24.617-.4.23-.816.427-1.211.669a16.919,16.919,0,0,1-4.14,1.7v-2.675c0-.022,0-.045,0-.067,0-.045.008-.088.014-.13a1.118,1.118,0,0,1,.038-.146,1.4,1.4,0,0,1,1.354-.98h-6.968a1.4,1.4,0,0,1-1.352-.983,1.117,1.117,0,0,1-.038-.145c-.006-.042-.012-.086-.014-.128,0-.022,0-.045,0-.069v-3.434c0-.022,0-.047,0-.069,0-.043.008-.086.014-.129a1.121,1.121,0,0,1,.038-.145,1.4,1.4,0,0,1,1.352-.982h2.719a1.334,1.334,0,0,1-.741-.961c-.006-.028-.008-.057-.012-.085a.553.553,0,0,1,0-.059c0-.022,0-.045,0-.067V1166.5c0-.022,0-.045,0-.068a.856.856,0,0,1,.014-.128,1.117,1.117,0,0,1,.036-.142,1.393,1.393,0,0,1,1.354-.986h1.561a1.4,1.4,0,0,1-1.354-.982,1.175,1.175,0,0,1-.038-.146,1.287,1.287,0,0,1-.014-.128v-3.573a1.369,1.369,0,0,1,1.239-1.246h-4.622a1.378,1.378,0,0,1-1.407-1.255.679.679,0,0,1,0-.07v-3.434a.69.69,0,0,1,0-.069.522.522,0,0,1,0-.055,1.357,1.357,0,0,1,1.093-1.166,1.377,1.377,0,0,1-1.222-1.132c-.006-.039-.01-.075-.012-.114s0-.047,0-.069v-3.434c0-.024,0-.047,0-.069,0-.043.008-.086.014-.128a1.124,1.124,0,0,1,.038-.145,1.4,1.4,0,0,1,1.352-.982h2.719a1.335,1.335,0,0,1-.741-.961c-.006-.029-.008-.057-.012-.086a.588.588,0,0,1,0-.059c0-.023,0-.045,0-.069v-3.434c0-.022,0-.047,0-.069a.88.88,0,0,1,.014-.128,1.1,1.1,0,0,1,.036-.141,1.4,1.4,0,0,1,1.354-.986h5.325a1.394,1.394,0,0,1-1.354-.984,1.2,1.2,0,0,1-.036-.141.912.912,0,0,1-.014-.13c0-.022,0-.045,0-.067v-3.436c0-.023,0-.045,0-.067a1.366,1.366,0,0,1,1.238-1.246h-8.386a1.432,1.432,0,0,1-1.177-.6l0-.03.883-5.394,0-.031,1.258-7.7a33.556,33.556,0,0,1,4.317.869l.248.067.016.006q1.237.345,2.441.784a.1.1,0,0,1,.023.008,32.264,32.264,0,0,1,10.117,5.934c.053.044.105.092.156.14a30.5,30.5,0,0,1,4.242,4.57q.382.5.739,1.02c.079.114.159.228.234.344a.011.011,0,0,1,.006.01q.577.852,1.1,1.748a29.878,29.878,0,0,1,2.062,4.324,28.913,28.913,0,0,1,1.58,5.934c.01.051.016.1.024.15a29.06,29.06,0,0,1,.279,5.889" transform="translate(-1347.847 -1121.225)" fill="#e2810e"/>
            </g>
          </g>
        </g>
        <path id="Path_2215" data-name="Path 2215" d="M1175.754,1154.227a32.051,32.051,0,1,1,43.541,12.6,32.051,32.051,0,0,1-43.541-12.6" transform="translate(-897.601 -847.756)" fill="#e2810e"/>
        <path id="Path_2216" data-name="Path 2216" d="M1210.033,1171.893q-.592.361-1.2.7-.207.115-.414.224c-.316.168-.632.33-.95.488a32.051,32.051,0,0,1-29.581-56.85c.411-.226.826-.443,1.241-.649s.812-.393,1.222-.575a31.984,31.984,0,0,1,9.62-2.586,32.056,32.056,0,0,1,20.067,59.25" transform="translate(-889.583 -852.175)" fill="#ffb93e"/>
        <path id="Path_2217" data-name="Path 2217" d="M1205.067,1185.618a28.834,28.834,0,0,1-8.021-1.145,28.542,28.542,0,1,1,8.021,1.145m-.088-56.67A27.94,27.94,0,1,0,1229.5,1143.4a27.77,27.77,0,0,0-24.518-14.449" transform="translate(-901.07 -864.207)" fill="#ffa412"/>
        <path id="Path_2218" data-name="Path 2218" d="M1269.153,1184.681c-.063-.158-.13-.311-.2-.461a8.407,8.407,0,0,0-1.944-2.777,8.684,8.684,0,0,0-3.061-1.8,14.639,14.639,0,0,0-3.887-.731q-2.147-.132-4.67-.06a22.552,22.552,0,0,1-2.667-.054,6.694,6.694,0,0,1-1.877-.411,3.289,3.289,0,0,1-1.253-.849,4.458,4.458,0,0,1-.8-1.313,4.863,4.863,0,0,1-.362-1.54,3.314,3.314,0,0,1,.228-1.449,3.544,3.544,0,0,1,.894-1.266,5.22,5.22,0,0,1,1.635-.995,4.124,4.124,0,0,1,3.5.033,5.938,5.938,0,0,1,2.647,3.313l6.53-2.651a12.207,12.207,0,0,0-2.137-3.544,9.158,9.158,0,0,0-6.4-3.158,12.1,12.1,0,0,0-3.941.4l-1.85-4.554-3.614,1.467,1.823,4.491a13.555,13.555,0,0,0-3.318,2.361,10.145,10.145,0,0,0-2.091,2.915,8.121,8.121,0,0,0-.769,3.294,9.646,9.646,0,0,0,2.841,6.767,8.551,8.551,0,0,0,3.056,1.79,14.489,14.489,0,0,0,3.89.705,46.04,46.04,0,0,0,4.682-.005,17.34,17.34,0,0,1,2.547.017,6.629,6.629,0,0,1,1.866.415,3.527,3.527,0,0,1,1.307.887,4.805,4.805,0,0,1,.879,1.452,4.016,4.016,0,0,1,.312,1.548,3.293,3.293,0,0,1-.349,1.474,4.157,4.157,0,0,1-1.037,1.3,6.27,6.27,0,0,1-1.753,1.029,7.537,7.537,0,0,1-1.917.5,4.373,4.373,0,0,1-1.934-.194,4.49,4.49,0,0,1-1.765-1.141,6.93,6.93,0,0,1-1.428-2.316l-6.529,2.651a11.281,11.281,0,0,0,2.568,3.992,9.273,9.273,0,0,0,3.383,2.11,10.349,10.349,0,0,0,3.844.554,16.3,16.3,0,0,0,3.959-.654l1.686,4.156,3.592-1.458-1.7-4.175a14.578,14.578,0,0,0,3.352-2.34,9.9,9.9,0,0,0,2.023-2.642c.039-.076.078-.153.114-.23a8.031,8.031,0,0,0,.787-3.277,8.828,8.828,0,0,0-.7-3.576" transform="translate(-951.073 -889.211)" fill="#ffa412"/>
        <g id="Group_970" data-name="Group 970" transform="translate(491.303 238.949)" opacity="0.7">
          <g id="Group_969" data-name="Group 969">
            <g id="Group_968" data-name="Group 968" clip-path="url(#clip-path-4)">
              <path id="Path_2219" data-name="Path 2219" d="M2165.34,1186.371s6.159-7.186.38-11.75c0,0-4.222-2.556-7.664-2.348,0,0,4.878,8.179,3.3,8.993s-4.778-9.506-4.778-9.506-9.607-.931-12.7.554c0,0,8.212,6.721,6.482,7.121s-10.6-6.2-10.6-6.2-8.941,1.521-8.465,6.976,3.558,7.138,4.912,6.993,9.274-3.169,9.447-2.059-4.6,4.735-7.934,4.905c0,0,6.3,6.952,10.493,4.946s4.547-5.187,7.158-6.38,4.841-1.19,3.763.027-5.8,2.4-7.3,5.041-2.833,4.423,1.5,3.771,11.38-3.824,11.689-7.456Z" transform="translate(-2123.915 -1136.323)" fill="#88c9f7"/>
              <path id="Path_2220" data-name="Path 2220" d="M2150.136,1209.329s24.285-.936,29.647,6.009a17.567,17.567,0,0,0,4.836,6.787l.569,1.551s-4.209-4.437-5.715-4.706c0,0,2.355-8.6-29.338-9.641" transform="translate(-2138.359 -1165.291)" fill="#88c9f7"/>
              <path id="Path_2221" data-name="Path 2221" d="M2293.028,1262.156a15.25,15.25,0,0,1,5.574,10.743l-.946.085s-1.665-7.122-4.674-9.907.045-.92.045-.92" transform="translate(-2246.767 -1205.321)" fill="#88c9f7"/>
              <path id="Path_2222" data-name="Path 2222" d="M2339.431,1136.8s-8.637-4.837-4.606-11.4c0,0,3.224-4.031,6.679-5.067,0,0-1.843,9.788,0,10.019s1.267-11.055,1.267-11.055,9.1-4.376,12.667-4.031c0,0-5.643,9.558-3.8,9.328s8.177-9.9,8.177-9.9,9.328-1.727,10.825,3.8-.921,8.292-2.3,8.637-10.249.23-10.019,1.382,6.219,2.994,9.558,1.958c0,0-3.685,9.1-8.521,8.637s-6.334-3.455-9.328-3.685-5.182.576-3.685,1.382,6.564.264,8.982,2.32,4.376,3.323-.115,4.244-12.552.346-14.165-3.109Z" transform="translate(-2279.013 -1092.63)" fill="#88c9f7"/>
              <path id="Path_2223" data-name="Path 2223" d="M2377.426,1139.15s-24.183,7.831-26.947,16.583a18.37,18.37,0,0,1-2.3,8.406v1.727s2.533-5.873,3.916-6.679c0,0-5.412-7.6,25.335-20.037" transform="translate(-2290.062 -1111.564)" fill="#88c9f7"/>
              <path id="Path_2224" data-name="Path 2224" d="M2340.783,1242.432a15.95,15.95,0,0,0-1.6,12.557l.959-.258s-.932-7.593,1.02-11.412-.376-.887-.376-.887" transform="translate(-2282.669 -1189.857)" fill="#88c9f7"/>
              <path id="Path_2225" data-name="Path 2225" d="M2147.172,1054.694s12.915-7.233,6.888-17.048c0,0-4.822-6.027-9.988-7.577,0,0,2.755,14.637,0,14.982s-1.894-16.531-1.894-16.531-13.6-6.544-18.942-6.027c0,0,8.438,14.292,5.683,13.948s-12.227-14.809-12.227-14.809-13.948-2.583-16.187,5.683,1.377,12.4,3.444,12.915,15.326.344,14.982,2.066-9.3,4.477-14.293,2.927c0,0,5.511,13.6,12.743,12.915s9.471-5.166,13.948-5.51,7.749.861,5.511,2.067-9.816.4-13.432,3.469-6.544,4.969.172,6.346,18.77.516,21.181-4.649Z" transform="translate(-2099.799 -1021.249)" fill="#88c9f7"/>
              <path id="Path_2226" data-name="Path 2226" d="M2130.05,1058.209s36.162,11.71,40.294,24.8a27.475,27.475,0,0,0,3.444,12.571v2.583s-3.789-8.782-5.855-9.988c0,0,8.093-11.365-37.884-29.963" transform="translate(-2122.972 -1049.561)" fill="#88c9f7"/>
              <path id="Path_2227" data-name="Path 2227" d="M2311.33,1212.652a23.85,23.85,0,0,1,2.4,18.777l-1.435-.385s1.393-11.354-1.525-17.065.563-1.327.563-1.327" transform="translate(-2260.514 -1166.637)" fill="#88c9f7"/>
              <path id="Path_2228" data-name="Path 2228" d="M2227.92,1310.832a22.3,22.3,0,0,1-22.3-22.3h44.6a22.3,22.3,0,0,1-22.3,22.3" transform="translate(-2180.859 -1225.993)" fill="#479bff"/>
              <rect id="Rectangle_819" data-name="Rectangle 819" width="45.843" height="0.684" transform="translate(24.252 62.537)" fill="#77a4e5"/>
              <path id="Path_2229" data-name="Path 2229" d="M2273.277,1377.99H2252.4a1.788,1.788,0,0,1,1.789-1.788h17.3a1.789,1.789,0,0,1,1.789,1.788" transform="translate(-2216.692 -1293.151)" fill="#479bff"/>
            </g>
          </g>
        </g>
        <path id="Path_2230" data-name="Path 2230" d="M771.4,665.043c-28.7,23.364-63.073,41.324-102.181,53.38-31.766,9.79-66.96,15.79-104.61,17.833-10.267.558-20.267.8-29.892.8-19.464,0-37.41-.989-53.052-2.366L488,704.75a558.291,558.291,0,0,0,75.151,1.17c35.432-1.919,68.429-7.529,98.071-16.664,35.668-11,66.866-27.245,92.717-48.3Z" transform="translate(-368.97 -490.988)" fill="#3868ad"/>
        <path id="Path_2231" data-name="Path 2231" d="M701.511,484.89a9.093,9.093,0,0,0-7.188-.769c-12.209-1.434-15.771,12.8-15.6,17.7s.724,10.161-4.728,16.526c-15.75,18.385,17.236,19.2,17.236,19.2.279-14.689,17.887-9.329,17.115-7.841,22.572,5.417,2.244-40.108-6.83-44.816" transform="translate(-513.029 -370.538)" fill="#062d66"/>
        <path id="Path_2232" data-name="Path 2232" d="M561.989,737.746s-2.147-3.269-3.878-3.333-4.935-.961-4.679-.321,2.244.705,2.435,1.09-2.948.961-3.845,1.025-3.012,0-2.948.449,3.812,2.307,6.456,2.051a17.931,17.931,0,0,1,5.913.769Z" transform="translate(-420.603 -562.156)" fill="#ffb27d"/>
        <path id="Path_2233" data-name="Path 2233" d="M631.057,669.525a32.219,32.219,0,0,1-3.284,4.966c-2.551,3.2-6.486,6.887-11.425,7.616a12.264,12.264,0,0,1-6.787-1.1l-.008,0c-6-2.663-10.51-8.786-10.51-8.786a4.933,4.933,0,0,1,.673-4.84s12.113,2.724,13.267,2.148,7.883-19.964,9.485-22.4,7.064-3.7,7.064-3.7Z" transform="translate(-458.62 -492.877)" fill="#ffaa45"/>
        <path id="Path_2234" data-name="Path 2234" d="M663.326,755.186c-2.552,3.2-6.485,6.887-11.425,7.616a12.263,12.263,0,0,1-6.787-1.1c.234.031,6.226.771,8.614-3.5,2.436-4.359,5.07-11.28,8.688-8.973,1.561,1,1.492,3.471.91,5.961" transform="translate(-494.173 -573.573)" fill="#f4932a"/>
        <path id="Path_2235" data-name="Path 2235" d="M886.293,1308.583s3.7,3.373,2.975,5.77-4.056,3.994-4.507,6.924-2.254,4.527-3.877,4.527h-7.736s-1.194-2.061,1.69-2.683,3.972-4.063,3.792-7.259a56.375,56.375,0,0,1,.27-7.457l6.13-1.42Z" transform="translate(-668.665 -1001.181)" fill="#36599e"/>
        <path id="Path_2236" data-name="Path 2236" d="M727.478,1319.934s1.329,14.29-.293,15.088l-20.767-.042s0-2.4,3.336-2.929,9.2-2.485,10.187-6.835,7.537-5.281,7.537-5.281" transform="translate(-541.133 -1011.1)" fill="#2b478b"/>
        <path id="Path_2237" data-name="Path 2237" d="M745.275,655.439c-4.274-9.584-6.888-12.335-6.389-15.309.371-2.214-1.132-41.279-1.132-41.279-.507-.157-1.523-.3-2.079-.421a5.213,5.213,0,0,1-3.808-3.311,26.574,26.574,0,0,1-1.292-8.814l-.547.108-9.2,1.822s.209,2.9.215,5.626c0,.023,0,.045,0,.068a5.294,5.294,0,0,1-3.82,5.119c-1.163.335-2.174.622-2.174.622a84.389,84.389,0,0,0-4.026,19.563c-.646,9.913,6.146,14.219-.051,34.029-6.327,20.232,36.667,7.474,34.307,2.178" transform="translate(-544.131 -449.123)" fill="#ffb27d"/>
        <path id="Path_2238" data-name="Path 2238" d="M755.173,588.587s.209,2.9.215,5.626c5.151-.145,7.873-4.844,8.989-7.448Z" transform="translate(-578.481 -449.475)" fill="#e8945b"/>
        <path id="Path_2239" data-name="Path 2239" d="M734.533,538.275s12.186.2,12.195-7.39,1.587-12.677-6.193-13.127-9.3,2.446-9.914,4.979.743,15.29,3.913,15.538" transform="translate(-559.561 -396.578)" fill="#ffb27d"/>
        <path id="Path_2240" data-name="Path 2240" d="M749.749,512.064s3.337,8.906,8.457,10.223,7.342-.056,7.342-.056a14.5,14.5,0,0,1-4.743-8.567s-8.539-5.839-11.056-1.6" transform="translate(-574.326 -391.071)" fill="#062d66"/>
        <path id="Path_2241" data-name="Path 2241" d="M733.082,515.452a7.561,7.561,0,0,0-3.493,2.73,12.271,12.271,0,0,0-1.647,6.969s-2.514-6.053.311-9.477c3-3.631,4.829-.221,4.829-.221" transform="translate(-556.831 -393.736)" fill="#062d66"/>
        <path id="Path_2242" data-name="Path 2242" d="M744.746,584.078a3.063,3.063,0,0,1-2.523,1.027,2.24,2.24,0,0,1-1.878-1.24,8.187,8.187,0,0,1,4.4.213" transform="translate(-567.122 -447.091)" fill="#ebf3fa"/>
        <path id="Path_2243" data-name="Path 2243" d="M741.864,657.205a82.738,82.738,0,0,1,0,9.6c-.206,3.47-3.716,8.119-4.215,9.269-1.25,2.884-2.659,3.353-2.659,3.353l-10.9,2.672-3.834.939-12.09-3.611s-5.507-15.37-3.3-24.022a66.512,66.512,0,0,1,5.589-14.661s9.865,9.66,22.711-.819Z" transform="translate(-539.544 -490.196)" fill="#ffaa45"/>
        <path id="Path_2244" data-name="Path 2244" d="M703.062,818.725s-5.987,18.636-6.372,24.981,11.445,90.135,11.921,93.059c.449,2.756,3.871,4.513,3.871,4.513a5.178,5.178,0,0,0,3.82.294c3.116-.88,4.1-1.933,4.1-1.933s4.66-59.759,1.777-81.106a338.116,338.116,0,0,1-2.918-39.807Z" transform="translate(-533.674 -627.162)" fill="#062d66"/>
        <path id="Path_2245" data-name="Path 2245" d="M755.773,816.35s9.133,12.254,9.984,20.537,1.336,37.38,3.15,45.456,8.478,23.615,8.478,48.8a5.025,5.025,0,0,1-2.832,2.213,23.338,23.338,0,0,1-2.49.689,3.915,3.915,0,0,1-4.378-2.079c-4.506-9.072-18.858-38.331-19.594-44.4-.521-4.3-5.053-32.745-14.938-49.437-2.373-4.007,1.457-19.944,1.457-19.944Z" transform="translate(-561.019 -625.343)" fill="#063992"/>
        <path id="Path_2246" data-name="Path 2246" d="M744.087,584.466s-.211.894-2.436.757c0,0-1.868-.116-1.811-1.1a6.01,6.01,0,0,1,4.247.342" transform="translate(-566.734 -447.276)" fill="#fff"/>
        <path id="Path_2247" data-name="Path 2247" d="M718.753,806.429s2.4,1.9,7.179,2c5.7.115,19.836-1.454,19.836-1.454a11.7,11.7,0,0,1,.6,3.607s-17.261,4.354-27.262.636a6.321,6.321,0,0,1-.356-4.786" transform="translate(-550.322 -617.743)" fill="#233862"/>
        <path id="Path_2248" data-name="Path 2248" d="M736.178,816.685a2.968,2.968,0,1,1,2.6-2.946,2.793,2.793,0,0,1-2.6,2.946m0-5.028a2.117,2.117,0,1,0,1.74,2.083,1.937,1.937,0,0,0-1.74-2.083" transform="translate(-561.936 -621.087)" fill="#fff"/>
        <rect id="Rectangle_821" data-name="Rectangle 821" width="23.448" height="32.097" transform="matrix(0.754, -0.657, 0.657, 0.754, 175.265, 183.249)" fill="#3868ad"/>
        <path id="Path_2249" data-name="Path 2249" d="M797.131,821.078s-6.479.758-6.459,2.3,1.614,4.7,2.415,4.838,5.273-4.273,5.273-4.273Z" transform="translate(-605.674 -628.965)" fill="#ffb27d"/>
        <path id="Path_2250" data-name="Path 2250" d="M814.683,639.924s8.651.606,11.967,8.668,9.608,21.6,9.608,23.872-3.515,9.3-22.389,13.331c0,0-1.952-2.054-1.834-3.678,0,0,11.782-10.12,11.75-11.3-.06-2.238-1.931-5.191-12.276-15.539-2.813-2.813,3.174-15.352,3.174-15.352" transform="translate(-621.06 -490.196)" fill="#ffaa45"/>
        <path id="Path_2251" data-name="Path 2251" d="M24.569,1189.764h-.086a.9.9,0,0,1-.9-.918l1.36-58.96,4.007-.467-3.417,59.432a.97.97,0,0,1-.968.914" transform="translate(-18.067 -865.16)" fill="#95c0f4"/>
        <path id="Path_2252" data-name="Path 2252" d="M288.821,1189.764h.086a.9.9,0,0,0,.9-.918l-1.36-58.96-4.007-.467,3.417,59.432a.97.97,0,0,0,.968.914" transform="translate(-217.885 -865.16)" fill="#b0d4ff"/>
        <path id="Path_2253" data-name="Path 2253" d="M16.439,941.369v-40.4a12.872,12.872,0,0,1,12.872-12.872H58.42a12.872,12.872,0,0,1,12.872,12.872v41.946Z" transform="translate(-12.593 -680.3)" fill="#b0d4ff"/>
        <path id="Path_2254" data-name="Path 2254" d="M76.508,1122.165H19.918a3.479,3.479,0,0,1-3.479-3.479v-2.9H76.508Z" transform="translate(-12.593 -854.718)" fill="#95c0f4"/>
        <path id="Path_2255" data-name="Path 2255" d="M153.673,1122.165h-43.09a2.573,2.573,0,0,1-2.573-2.573v-1.232a2.573,2.573,0,0,1,2.573-2.573h43.09a2.573,2.573,0,0,1,2.573,2.573v1.233a2.573,2.573,0,0,1-2.573,2.573" transform="translate(-82.738 -854.718)" fill="#b0d4ff"/>
        <path id="Path_2256" data-name="Path 2256" d="M192.636,1068.868c-4.17,7.258-9.415,10.059-9.415,10.059H161.4s34.417-15.6,31.236-10.059" transform="translate(-123.636 -817.867)" fill="#233862"/>
        <path id="Path_2257" data-name="Path 2257" d="M221.572,1253.51a2.017,2.017,0,0,0-.36,2.157.019.019,0,0,0,.005.011c.521,1.438,2.24,3.044,4.237,4.648.256.206.482.393.68.567.052.045.1.091.153.137s.079.072.118.106c1.862,1.717,1.161,2.11,4.507,5.594,3.815,3.969,6.442,4.041,7.189,3.68.632-.309-.652-2.414-2.075-4.78-.069-.114-.136-.229-.207-.345-.19-.314-.378-.634-.566-.95-1.668-2.848-1.239-4.184-.844-8.422.321-3.444,5.358-19.241,5.358-19.241l-7.311-1.26s-2.2,12.579-4.628,14.516c-1.3,1.032-2.749,1.046-4,1.811-.088.053-.175.108-.26.164a9.589,9.589,0,0,0-2,1.608" transform="translate(-169.332 -946.354)" fill="#ffb27d"/>
        <path id="Path_2258" data-name="Path 2258" d="M221.572,1306.964a2.017,2.017,0,0,0-.36,2.157.018.018,0,0,0,.005.011c.637,1.437,2.313,3.035,4.244,4.633.252.209.475.4.673.582.052.045.1.091.153.137s.079.072.118.106c1.862,1.717,1.161,2.11,4.507,5.594,3.815,3.97,6.442,4.041,7.189,3.68.632-.309-.652-2.414-2.075-4.78a16.264,16.264,0,0,1-6.8-5.011c-2.3-2.932-3.829-6.7-5.393-8.88-.088.053-.175.108-.26.164a9.588,9.588,0,0,0-2,1.608" transform="translate(-169.332 -999.808)" fill="#233862"/>
        <path id="Path_2259" data-name="Path 2259" d="M456.092,1241.66c.451,2.257,3.668,1.88,7.262,1s2.74.166,7.855-.4,6.665-2.474,6.821-3.234c.14-.675-2.388-.913-5.1-1.225-.341-.038-.683-.081-1.026-.123-3.061-.384-5.3-2.359-8.083-3.981-2.633-1.537-6.563-7.8-6.563-7.8l-7.015.555s3.681,5.591,5.1,8.022a8.475,8.475,0,0,1,.688,4.781,9,9,0,0,0,.054,2.4" transform="translate(-344.898 -939.069)" fill="#ffb27d"/>
        <path id="Path_2260" data-name="Path 2260" d="M482.147,1281.621c3.594-.879,2.74.166,7.855-.4s6.665-2.474,6.821-3.234c.14-.675-2.388-.913-5.1-1.225l-.025.052a14.42,14.42,0,0,1-7.325,2.277c-3.47.084-7.146-.91-9.542-.871a9,9,0,0,0,.054,2.4c.451,2.257,3.668,1.88,7.262,1" transform="translate(-363.691 -978.029)" fill="#233862"/>
        <path id="Path_2261" data-name="Path 2261" d="M281.551,1064.727l-6.558,17.646-8.561,23.04a13.875,13.875,0,0,1-4.548-.415,19.723,19.723,0,0,1-4.4-2.141s2.377-24.739,6.812-38.94c1.136-3.645,2.41-6.593,3.816-8.253,6.874-8.124,13.438,9.064,13.438,9.064" transform="translate(-197.24 -806.992)" fill="#062d66"/>
        <path id="Path_2262" data-name="Path 2262" d="M124.181,970.231c-4.3-1.386-16.549.394-28.858,2.8l-2.577-4.251L66.16,966.707s-8.773,19.456-3.97,31.852a4.5,4.5,0,0,0,4.5,3.029s.387,0,.389,0,15.824-.009,20.962-.009c13.222,0,27.982-9.089,29.891-9.47,3.126-.625,4.376,5.626,7.5,12.189s29.378,29.065,29.378,29.065,4.035.04,5.7-.585a5.617,5.617,0,0,0,2.448-1.545s-29.09-57.875-38.778-61" transform="translate(-46.538 -740.52)" fill="#063992"/>
        <path id="Path_2263" data-name="Path 2263" d="M45.481,637.408c-3.406-1.788-8.588-2.03-9.43-2.144-10.075-1.354-16.138,13.286-16.495,17.722-.657,8.176-4.983,9.422-11.071,14.543-12.207,10.267-8.627,22.2-1.953,26.63,4,2.66,11.064,0,11.064,0,.1.07,19.306-10.736,28.773-15.949,14.193-2.017,7.789-36.244-.89-40.8" transform="translate(-0.319 -486.56)" fill="#062d66"/>
        <path id="Path_2264" data-name="Path 2264" d="M120.5,751.4c.042.027-4.658,1.631-7.8.24-2.957-1.307-5.2-6.171-5.152-6.173,1.345-.062,2.821-1.238,3.958-8.953l.573.206,9.629,3.464s-.7,3.09-1.149,6.031c-.38,2.47-.584,4.836-.058,5.185" transform="translate(-82.385 -564.185)" fill="#ffb27d"/>
        <path id="Path_2265" data-name="Path 2265" d="M136.546,740.855s-.7,3.089-1.149,6.031c-5.53-1-7.7-6.505-8.48-9.5Z" transform="translate(-97.221 -564.858)" fill="#ed975d"/>
        <path id="Path_2266" data-name="Path 2266" d="M134.822,689.437s-13.174-1.768-11.946-9.956.354-13.929,8.817-13.146,9.625,4.151,9.88,6.984-3.292,16.367-6.751,16.118" transform="translate(-94.064 -510.373)" fill="#ffb27d"/>
        <path id="Path_2267" data-name="Path 2267" d="M128.716,666.46s-8.433,7.268-14.17,7.853-7.908-1.255-7.908-1.255a22.4,22.4,0,0,0,5.416-7.338,4.034,4.034,0,0,1,3.325-2.378c4.1-.354,11.861-.515,13.337,3.117" transform="translate(-81.687 -508.003)" fill="#062d66"/>
        <path id="Path_2268" data-name="Path 2268" d="M178.465,669.294a20.76,20.76,0,0,1,3.71,4.751c.858,1.953,1.115,6.622.432,8.477,0,0,4.4-8.547,1.907-12.7-2.639-4.4-6.049-.528-6.049-.528" transform="translate(-136.708 -511.487)" fill="#062d66"/>
        <path id="Path_2269" data-name="Path 2269" d="M94.581,799.1c-.4,26.667-.11,21.1-3.026,23.625-.7.609-2.679.973-5.28,1.144-8.177.543-22.551-.8-23.1-2.316-1.886-5.229-.555-6.853-2.128-14.858-.164-.852-.367-1.773-.605-2.777-1.312-5.5-2.589-7.369,2.066-16.2,4.221-8,8.607-14.5,9-14.261,11.137,6.611,12.035,1.054,12.035,1.054s11.231,11.583,11.035,24.59" transform="translate(-45.371 -592.479)" fill="#479bff"/>
        <path id="Path_2270" data-name="Path 2270" d="M274.992,1116.535l-8.561,23.04a13.873,13.873,0,0,1-4.548-.416,19.715,19.715,0,0,1-4.4-2.141s2.377-24.739,6.812-38.939Z" transform="translate(-197.239 -841.154)" fill="#063992"/>
        <path id="Path_2271" data-name="Path 2271" d="M163.158,777.974s11.46,1.943,12.805,6.877,9.265,33.94,9.265,33.94-5.826,1.047-8.517-1.645-9.365-24.969-9.365-24.969Z" transform="translate(-124.983 -595.946)" fill="#479bff"/>
        <path id="Path_2272" data-name="Path 2272" d="M92.233,896.352c-8.177.543-22.551-.8-23.1-2.316-1.886-5.229-.555-6.853-2.128-14.858l3.944-11.106s-.652,12.367,3,15.62,14.933,6.279,16.705,9a9.944,9.944,0,0,1,1.582,3.663" transform="translate(-51.329 -664.963)" fill="#458fd8"/>
        <path id="Path_2273" data-name="Path 2273" d="M134.781,962.619s8.067-1.8,9.369-1.08,4.483,3.323,4.881,4.231-2.9-.689-3.97-.976c-.694-.186-2.522.449-3.427.75a11.39,11.39,0,0,1-6.14.616Z" transform="translate(-103.245 -736.432)" fill="#ffb27d"/>
        <path id="Path_2274" data-name="Path 2274" d="M26.132,773.45s-10.832.667-14.582,5.9C6.272,786.709-4.2,818.085,1.8,822.27,8.56,826.983,32.56,823.5,32.56,823.5s.8-3.733-.313-5.539-19.169-4.723-20-5.556,10.418-16.252,10.418-18.753,3.469-20.2,3.469-20.2" transform="translate(0 -592.48)" fill="#479bff"/>
        <path id="Path_2275" data-name="Path 2275" d="M176.492,971.688a15.6,15.6,0,0,0,2.244,2.441,1.654,1.654,0,0,0,.912.2l-1.139-2.05Z" transform="translate(-135.197 -744.335)" fill="#ffb27d"/>
        <path id="Path_2276" data-name="Path 2276" d="M174.823,962.091l4.915,2.387a.877.877,0,0,1-.814.315,11.726,11.726,0,0,1-2.132-.586Z" transform="translate(-133.919 -736.984)" fill="#ffb27d"/>
        <path id="Path_2277" data-name="Path 2277" d="M178.487,901.187h41.462l12.473-29.08h-41.4Z" transform="translate(-136.725 -668.054)" fill="#ffaa45"/>
        <path id="Path_2278" data-name="Path 2278" d="M178.518,988.34h-54.75v1.837h54.265Z" transform="translate(-94.809 -757.092)" fill="#ffaa45"/>
        <path id="Path_2279" data-name="Path 2279" d="M297.77,928.191a1.364,1.364,0,0,0-1.408-1.851,2.805,2.805,0,0,0-2.54,1.851,1.364,1.364,0,0,0,1.408,1.851,2.8,2.8,0,0,0,2.54-1.851" transform="translate(-225.014 -709.598)" fill="#ebf3fa"/>
        <path id="Path_2280" data-name="Path 2280" d="M598.72,1102.526h.113a1.256,1.256,0,0,0,1.186-1.339l-1.8-86.028-5.3-.682,4.519,86.716a1.343,1.343,0,0,0,1.28,1.333" transform="translate(-454.192 -777.113)" fill="#233862"/>
        <path id="Path_2281" data-name="Path 2281" d="M136.031,1102.526h-.113a1.256,1.256,0,0,1-1.186-1.339l1.8-86.028,5.3-.682-4.519,86.716a1.344,1.344,0,0,1-1.28,1.333" transform="translate(-103.208 -777.113)" fill="#233862"/>
        <path id="Path_2282" data-name="Path 2282" d="M225.28,1002.55H104.18a1.738,1.738,0,0,1-1.738-1.739v-2.679a1.739,1.739,0,0,1,1.739-1.738h121.1a1.738,1.738,0,0,1,1.738,1.738v2.679a1.739,1.739,0,0,1-1.739,1.739" transform="translate(-78.473 -763.261)" fill="#233862"/>
      </g>
    </g>
  </g>
</svg>
