<svg xmlns="http://www.w3.org/2000/svg" xmlns:xlink="http://www.w3.org/1999/xlink" width="593.346" height="421.041" viewBox="0 0 593.346 421.041">
  <defs>
    <clipPath id="clip-path">
      <rect id="Rectangle_922" data-name="Rectangle 922" width="593.346" height="421.041" transform="translate(0 -0.001)" fill="none"/>
    </clipPath>
  </defs>
  <g id="Group_975" data-name="Group 975" transform="translate(0 0.001)" clip-path="url(#clip-path)">
    <path id="Path_2283" data-name="Path 2283" d="M68.776,361.816c12.184,9.059,23.712,14.9,32.821,19.518,107.066,54.259,233.753,38.443,260.678,34.58,39.759-5.7,116.613-16.728,172.177-62.88,84.064-69.823,70.974-179.827,5.768-252.442-11.927-13.283-74.93-87-202.981-98.826-77.5-7.155-167.831,7.276-233.249,45.986C-33.329,129.009-23.553,293.162,68.776,361.816" transform="translate(0 0)" fill="#e7f3fd"/>
    <rect id="Rectangle_824" data-name="Rectangle 824" width="15.193" height="47.751" transform="translate(18.194 308.439)" fill="#88c9f7"/>
    <rect id="Rectangle_825" data-name="Rectangle 825" width="15.193" height="66.384" transform="translate(37.67 289.806)" fill="#88c9f7"/>
    <rect id="Rectangle_826" data-name="Rectangle 826" width="15.193" height="89.75" transform="translate(57.146 266.44)" fill="#88c9f7"/>
    <rect id="Rectangle_827" data-name="Rectangle 827" width="15.193" height="75.242" transform="translate(76.621 280.948)" fill="#88c9f7"/>
    <rect id="Rectangle_828" data-name="Rectangle 828" width="15.193" height="61.025" transform="translate(96.097 295.165)" fill="#88c9f7"/>
    <rect id="Rectangle_829" data-name="Rectangle 829" width="15.193" height="121.941" transform="translate(115.573 234.249)" fill="#88c9f7"/>
    <rect id="Rectangle_830" data-name="Rectangle 830" width="15.193" height="100.823" transform="translate(135.049 255.367)" fill="#88c9f7"/>
    <rect id="Rectangle_831" data-name="Rectangle 831" width="15.193" height="120.462" transform="translate(154.525 235.728)" fill="#88c9f7"/>
    <rect id="Rectangle_832" data-name="Rectangle 832" width="15.193" height="96.017" transform="translate(174 260.172)" fill="#88c9f7"/>
    <rect id="Rectangle_833" data-name="Rectangle 833" width="15.193" height="75.242" transform="translate(193.476 280.948)" fill="#88c9f7"/>
    <rect id="Rectangle_834" data-name="Rectangle 834" width="15.193" height="61.711" transform="translate(212.952 294.479)" fill="#88c9f7"/>
    <rect id="Rectangle_835" data-name="Rectangle 835" width="15.193" height="79.573" transform="translate(232.428 276.617)" fill="#88c9f7"/>
    <rect id="Rectangle_836" data-name="Rectangle 836" width="15.193" height="71.057" transform="translate(251.903 285.133)" fill="#88c9f7"/>
    <rect id="Rectangle_837" data-name="Rectangle 837" width="15.193" height="60.231" transform="translate(271.379 295.959)" fill="#88c9f7"/>
    <rect id="Rectangle_838" data-name="Rectangle 838" width="15.193" height="66.384" transform="translate(290.855 289.806)" fill="#88c9f7"/>
    <rect id="Rectangle_839" data-name="Rectangle 839" width="15.193" height="57.097" transform="translate(310.33 299.093)" fill="#88c9f7"/>
    <rect id="Rectangle_840" data-name="Rectangle 840" width="15.193" height="44.875" transform="translate(329.806 311.315)" fill="#88c9f7"/>
    <rect id="Rectangle_841" data-name="Rectangle 841" width="15.193" height="35.529" transform="translate(349.282 320.661)" fill="#88c9f7"/>
    <rect id="Rectangle_842" data-name="Rectangle 842" width="15.193" height="27.148" transform="translate(368.758 329.041)" fill="#88c9f7"/>
    <rect id="Rectangle_843" data-name="Rectangle 843" width="15.193" height="22.437" transform="translate(388.233 333.752)" fill="#88c9f7"/>
    <rect id="Rectangle_844" data-name="Rectangle 844" width="15.193" height="17.764" transform="translate(407.709 338.425)" fill="#88c9f7"/>
    <rect id="Rectangle_845" data-name="Rectangle 845" width="15.193" height="92.133" transform="translate(512.871 264.057)" fill="#88c9f7"/>
    <rect id="Rectangle_846" data-name="Rectangle 846" width="15.193" height="121.941" transform="translate(532.347 234.249)" fill="#88c9f7"/>
    <rect id="Rectangle_847" data-name="Rectangle 847" width="15.193" height="100.823" transform="translate(551.822 255.367)" fill="#88c9f7"/>
    <rect id="Rectangle_848" data-name="Rectangle 848" width="1.425" height="48.394" transform="translate(398.573 172.333)" fill="#4979b8"/>
    <rect id="Rectangle_849" data-name="Rectangle 849" width="9.657" height="18.061" transform="translate(394.457 196.53)" fill="#4979b8"/>
    <rect id="Rectangle_850" data-name="Rectangle 850" width="1.425" height="48.393" transform="translate(322.612 230.765)" fill="#4979b8"/>
    <rect id="Rectangle_851" data-name="Rectangle 851" width="9.657" height="18.061" transform="translate(318.496 254.961)" fill="#4979b8"/>
    <rect id="Rectangle_852" data-name="Rectangle 852" width="1.425" height="48.394" transform="translate(337.804 228.223)" fill="#4979b8"/>
    <rect id="Rectangle_853" data-name="Rectangle 853" width="9.657" height="18.061" transform="translate(333.688 234.592)" fill="#4979b8"/>
    <rect id="Rectangle_854" data-name="Rectangle 854" width="1.425" height="48.393" transform="translate(292.227 227.955)" fill="#4979b8"/>
    <rect id="Rectangle_855" data-name="Rectangle 855" width="9.657" height="18.061" transform="translate(288.111 234.323)" fill="#4979b8"/>
    <rect id="Rectangle_856" data-name="Rectangle 856" width="1.425" height="35.48" transform="translate(352.996 224.692)" fill="#4979b8"/>
    <rect id="Rectangle_857" data-name="Rectangle 857" width="9.657" height="6.304" transform="translate(348.88 237.49)" fill="#4979b8"/>
    <rect id="Rectangle_858" data-name="Rectangle 858" width="1.425" height="35.48" transform="translate(383.381 200.247)" fill="#4979b8"/>
    <rect id="Rectangle_859" data-name="Rectangle 859" width="9.657" height="2.649" transform="translate(379.265 229.393)" fill="#4979b8"/>
    <rect id="Rectangle_860" data-name="Rectangle 860" width="1.425" height="35.481" transform="translate(368.189 219.481)" fill="#4979b8"/>
    <rect id="Rectangle_861" data-name="Rectangle 861" width="9.657" height="10.567" transform="translate(364.073 224.262)" fill="#4979b8"/>
    <rect id="Rectangle_862" data-name="Rectangle 862" width="1.425" height="50.567" transform="translate(155.496 174.938)" fill="#4979b8"/>
    <rect id="Rectangle_863" data-name="Rectangle 863" width="9.657" height="20.332" transform="translate(151.381 190.838)" fill="#4979b8"/>
    <rect id="Rectangle_864" data-name="Rectangle 864" width="1.425" height="50.568" transform="translate(216.266 188.01)" fill="#4979b8"/>
    <rect id="Rectangle_865" data-name="Rectangle 865" width="9.657" height="20.332" transform="translate(212.15 203.911)" fill="#4979b8"/>
    <rect id="Rectangle_866" data-name="Rectangle 866" width="1.425" height="20.326" transform="translate(170.689 190.859)" fill="#4979b8"/>
    <rect id="Rectangle_867" data-name="Rectangle 867" width="9.657" height="9.657" transform="translate(166.573 195.392)" fill="#4979b8"/>
    <rect id="Rectangle_868" data-name="Rectangle 868" width="1.425" height="20.325" transform="translate(277.035 241.188)" fill="#4979b8"/>
    <rect id="Rectangle_869" data-name="Rectangle 869" width="9.657" height="9.657" transform="translate(272.919 245.721)" fill="#4979b8"/>
    <rect id="Rectangle_870" data-name="Rectangle 870" width="1.425" height="48.394" transform="translate(185.881 185.856)" fill="#4979b8"/>
    <rect id="Rectangle_871" data-name="Rectangle 871" width="9.657" height="18.061" transform="translate(181.765 210.053)" fill="#4979b8"/>
    <rect id="Rectangle_872" data-name="Rectangle 872" width="1.425" height="48.392" transform="translate(201.073 169.955)" fill="#4979b8"/>
    <rect id="Rectangle_873" data-name="Rectangle 873" width="9.657" height="18.061" transform="translate(196.957 194.151)" fill="#4979b8"/>
    <rect id="Rectangle_874" data-name="Rectangle 874" width="1.425" height="48.394" transform="translate(261.842 213.293)" fill="#4979b8"/>
    <rect id="Rectangle_875" data-name="Rectangle 875" width="9.657" height="18.061" transform="translate(257.727 237.49)" fill="#4979b8"/>
    <rect id="Rectangle_876" data-name="Rectangle 876" width="1.425" height="35.48" transform="translate(246.65 206.522)" fill="#4979b8"/>
    <rect id="Rectangle_877" data-name="Rectangle 877" width="9.657" height="11.403" transform="translate(242.534 217.76)" fill="#4979b8"/>
    <rect id="Rectangle_878" data-name="Rectangle 878" width="1.425" height="48.394" transform="translate(231.458 183.649)" fill="#4979b8"/>
    <rect id="Rectangle_879" data-name="Rectangle 879" width="9.657" height="40.273" transform="translate(227.342 187.276)" fill="#4979b8"/>
    <rect id="Rectangle_880" data-name="Rectangle 880" width="1.425" height="60.529" transform="translate(307.419 217.29)" fill="#4979b8"/>
    <rect id="Rectangle_881" data-name="Rectangle 881" width="9.657" height="34.603" transform="translate(303.303 233.052)" fill="#4979b8"/>
    <rect id="Rectangle_882" data-name="Rectangle 882" width="1.425" height="48.393" transform="translate(80.078 193.108)" fill="#4979b8"/>
    <rect id="Rectangle_883" data-name="Rectangle 883" width="9.657" height="18.061" transform="translate(75.962 217.305)" fill="#4979b8"/>
    <rect id="Rectangle_884" data-name="Rectangle 884" width="1.425" height="48.393" transform="translate(4.116 251.54)" fill="#4979b8"/>
    <rect id="Rectangle_885" data-name="Rectangle 885" width="9.657" height="18.061" transform="translate(0 275.736)" fill="#4979b8"/>
    <rect id="Rectangle_886" data-name="Rectangle 886" width="1.425" height="48.393" transform="translate(19.308 248.998)" fill="#4979b8"/>
    <rect id="Rectangle_887" data-name="Rectangle 887" width="9.657" height="18.061" transform="translate(15.192 255.367)" fill="#4979b8"/>
    <rect id="Rectangle_888" data-name="Rectangle 888" width="1.425" height="35.48" transform="translate(34.501 245.467)" fill="#4979b8"/>
    <rect id="Rectangle_889" data-name="Rectangle 889" width="9.657" height="6.304" transform="translate(30.385 258.265)" fill="#4979b8"/>
    <rect id="Rectangle_890" data-name="Rectangle 890" width="1.425" height="35.48" transform="translate(64.885 221.023)" fill="#4979b8"/>
    <rect id="Rectangle_891" data-name="Rectangle 891" width="9.657" height="2.649" transform="translate(60.769 250.169)" fill="#4979b8"/>
    <rect id="Rectangle_892" data-name="Rectangle 892" width="1.425" height="35.48" transform="translate(49.693 240.256)" fill="#4979b8"/>
    <rect id="Rectangle_893" data-name="Rectangle 893" width="9.657" height="10.567" transform="translate(45.577 245.037)" fill="#4979b8"/>
    <rect id="Rectangle_894" data-name="Rectangle 894" width="1.425" height="50.567" transform="translate(567.637 55.358)" fill="#4979b8"/>
    <rect id="Rectangle_895" data-name="Rectangle 895" width="9.657" height="20.332" transform="translate(563.522 71.259)" fill="#4979b8"/>
    <rect id="Rectangle_896" data-name="Rectangle 896" width="1.425" height="48.393" transform="translate(553.323 41.444)" fill="#4979b8"/>
    <rect id="Rectangle_897" data-name="Rectangle 897" width="9.657" height="40.273" transform="translate(549.207 45.071)" fill="#4979b8"/>
    <rect id="Rectangle_898" data-name="Rectangle 898" width="1.425" height="35.48" transform="translate(510.379 100.025)" fill="#4979b8"/>
    <rect id="Rectangle_899" data-name="Rectangle 899" width="9.657" height="10.567" transform="translate(506.263 104.807)" fill="#4979b8"/>
    <rect id="Rectangle_900" data-name="Rectangle 900" width="1.425" height="116.176" transform="translate(539.008 23.392)" fill="#4979b8"/>
    <rect id="Rectangle_901" data-name="Rectangle 901" width="9.657" height="103.635" transform="translate(534.892 31.439)" fill="#4979b8"/>
    <rect id="Rectangle_902" data-name="Rectangle 902" width="1.425" height="48.393" transform="translate(496.064 97.032)" fill="#4979b8"/>
    <rect id="Rectangle_903" data-name="Rectangle 903" width="9.657" height="18.061" transform="translate(491.948 121.228)" fill="#4979b8"/>
    <rect id="Rectangle_904" data-name="Rectangle 904" width="1.425" height="60.527" transform="translate(524.693 78.919)" fill="#4979b8"/>
    <rect id="Rectangle_905" data-name="Rectangle 905" width="9.657" height="34.603" transform="translate(520.578 94.681)" fill="#4979b8"/>
    <rect id="Rectangle_906" data-name="Rectangle 906" width="67.711" height="9.346" transform="translate(416.183 345.824)" fill="#ffaa45"/>
    <path id="Path_2284" data-name="Path 2284" d="M1687.459,1313.389H1649.74a.305.305,0,0,1,0-.61h37.719a.305.305,0,0,1,0,.61" transform="translate(-1203.564 -957.913)" fill="#f4d7ae"/>
    <path id="Path_2285" data-name="Path 2285" d="M1687.874,1288.316a.214.214,0,0,1-.214-.214v-9.347a.213.213,0,1,1,.427,0v9.347a.214.214,0,0,1-.213.214" transform="translate(-1231.457 -932.931)" fill="#f4d7ae"/>
    <path id="Path_2286" data-name="Path 2286" d="M1708.3,1288.316a.213.213,0,0,1-.213-.214v-9.347a.213.213,0,1,1,.427,0v9.347a.213.213,0,0,1-.213.214" transform="translate(-1246.361 -932.931)" fill="#f4d7ae"/>
    <path id="Path_2287" data-name="Path 2287" d="M1736.381,1288.316a.214.214,0,0,1-.214-.214v-9.347a.213.213,0,1,1,.427,0v9.347a.213.213,0,0,1-.213.214" transform="translate(-1266.852 -932.931)" fill="#f4d7ae"/>
    <path id="Path_2288" data-name="Path 2288" d="M1761.911,1288.316a.213.213,0,0,1-.213-.214v-9.347a.213.213,0,1,1,.427,0v9.347a.213.213,0,0,1-.213.214" transform="translate(-1285.481 -932.931)" fill="#f4d7ae"/>
    <rect id="Rectangle_907" data-name="Rectangle 907" width="67.711" height="9.346" transform="translate(409.805 336.478)" fill="#ffaa45"/>
    <path id="Path_2289" data-name="Path 2289" d="M1664.114,1278.969H1626.4a.213.213,0,0,1,0-.427h37.719a.213.213,0,0,1,0,.427" transform="translate(-1186.597 -932.931)" fill="#f4d7ae"/>
    <path id="Path_2290" data-name="Path 2290" d="M1664.28,1253.739a.213.213,0,0,1-.213-.213v-9.347a.213.213,0,0,1,.427,0v9.347a.213.213,0,0,1-.213.213" transform="translate(-1214.241 -907.702)" fill="#f4d7ae"/>
    <path id="Path_2291" data-name="Path 2291" d="M1684.7,1253.739a.213.213,0,0,1-.213-.213v-9.347a.213.213,0,0,1,.427,0v9.347a.213.213,0,0,1-.213.213" transform="translate(-1229.143 -907.702)" fill="#f4d7ae"/>
    <path id="Path_2292" data-name="Path 2292" d="M1712.788,1253.739a.213.213,0,0,1-.213-.213v-9.347a.213.213,0,0,1,.426,0v9.347a.213.213,0,0,1-.213.213" transform="translate(-1249.637 -907.702)" fill="#f4d7ae"/>
    <path id="Path_2293" data-name="Path 2293" d="M1738.317,1253.739a.213.213,0,0,1-.213-.213v-9.347a.213.213,0,0,1,.427,0v9.347a.213.213,0,0,1-.213.213" transform="translate(-1268.265 -907.702)" fill="#f4d7ae"/>
    <rect id="Rectangle_908" data-name="Rectangle 908" width="67.711" height="9.346" transform="translate(418.697 327.132)" fill="#ffaa45"/>
    <path id="Path_2294" data-name="Path 2294" d="M1630.442,1244.392h-62.379a.213.213,0,0,1,0-.427h62.379a.213.213,0,0,1,0,.427" transform="translate(-1144.033 -907.701)" fill="#f4d7ae"/>
    <path id="Path_2295" data-name="Path 2295" d="M1697.175,1219.164a.213.213,0,0,1-.213-.213v-9.346a.213.213,0,1,1,.427,0v9.346a.213.213,0,0,1-.213.213" transform="translate(-1238.244 -882.473)" fill="#f4d7ae"/>
    <path id="Path_2296" data-name="Path 2296" d="M1717.6,1219.164a.213.213,0,0,1-.213-.213v-9.346a.213.213,0,0,1,.427,0v9.346a.213.213,0,0,1-.213.213" transform="translate(-1253.146 -882.473)" fill="#f4d7ae"/>
    <path id="Path_2297" data-name="Path 2297" d="M1745.679,1219.164a.213.213,0,0,1-.213-.213v-9.346a.213.213,0,1,1,.427,0v9.346a.213.213,0,0,1-.213.213" transform="translate(-1273.637 -882.473)" fill="#60c0c0"/>
    <path id="Path_2298" data-name="Path 2298" d="M1771.212,1219.164a.213.213,0,0,1-.214-.213v-9.346a.213.213,0,0,1,.427,0v9.346a.213.213,0,0,1-.213.213" transform="translate(-1292.267 -882.473)" fill="#60c0c0"/>
    <rect id="Rectangle_909" data-name="Rectangle 909" width="67.711" height="9.346" transform="translate(411.686 317.785)" fill="#ffaa45"/>
    <path id="Path_2299" data-name="Path 2299" d="M1671.068,1209.819h-37.719a.213.213,0,1,1,0-.427h37.719a.213.213,0,0,1,0,.427" transform="translate(-1191.671 -882.473)" fill="#f4d7ae"/>
    <path id="Path_2300" data-name="Path 2300" d="M1671.234,1184.589a.213.213,0,0,1-.213-.214v-9.347a.213.213,0,1,1,.427,0v9.347a.213.213,0,0,1-.213.214" transform="translate(-1219.315 -857.243)" fill="#f4d7ae"/>
    <path id="Path_2301" data-name="Path 2301" d="M1691.659,1184.589a.213.213,0,0,1-.213-.214v-9.347a.213.213,0,1,1,.427,0v9.347a.213.213,0,0,1-.213.214" transform="translate(-1234.219 -857.243)" fill="#f4d7ae"/>
    <path id="Path_2302" data-name="Path 2302" d="M1719.742,1184.589a.213.213,0,0,1-.213-.214v-9.347a.213.213,0,1,1,.427,0v9.347a.213.213,0,0,1-.213.214" transform="translate(-1254.711 -857.243)" fill="#f4d7ae"/>
    <path id="Path_2303" data-name="Path 2303" d="M1745.271,1184.589a.213.213,0,0,1-.213-.214v-9.347a.213.213,0,1,1,.426,0v9.347a.213.213,0,0,1-.213.214" transform="translate(-1273.339 -857.243)" fill="#60c0c0"/>
    <rect id="Rectangle_910" data-name="Rectangle 910" width="67.711" height="9.346" transform="translate(424.111 308.439)" fill="#ffaa45"/>
    <path id="Path_2304" data-name="Path 2304" d="M1672.156,1175.243h-54.345a.213.213,0,0,1,0-.427h54.345a.213.213,0,0,1,0,.427" transform="translate(-1180.334 -857.244)" fill="#f4d7ae"/>
    <path id="Path_2305" data-name="Path 2305" d="M1717.2,1150.013a.213.213,0,0,1-.213-.213v-9.347a.213.213,0,0,1,.427,0v9.347a.214.214,0,0,1-.213.213" transform="translate(-1252.858 -832.014)" fill="#60c0c0"/>
    <path id="Path_2306" data-name="Path 2306" d="M1737.627,1150.013a.214.214,0,0,1-.214-.213v-9.347a.213.213,0,0,1,.427,0v9.347a.214.214,0,0,1-.213.213" transform="translate(-1267.761 -832.014)" fill="#60c0c0"/>
    <path id="Path_2307" data-name="Path 2307" d="M1765.71,1150.013a.213.213,0,0,1-.213-.213v-9.347a.213.213,0,0,1,.427,0v9.347a.213.213,0,0,1-.213.213" transform="translate(-1288.253 -832.014)" fill="#60c0c0"/>
    <path id="Path_2308" data-name="Path 2308" d="M1791.239,1150.013a.213.213,0,0,1-.213-.213v-9.347a.213.213,0,0,1,.427,0v9.347a.214.214,0,0,1-.213.213" transform="translate(-1306.881 -832.014)" fill="#60c0c0"/>
    <rect id="Rectangle_911" data-name="Rectangle 911" width="67.711" height="9.346" transform="translate(418.697 299.093)" fill="#ffaa45"/>
    <path id="Path_2309" data-name="Path 2309" d="M1697.006,1140.666h-37.72a.213.213,0,0,1,0-.427h37.72a.213.213,0,0,1,0,.427" transform="translate(-1210.597 -832.014)" fill="#60c0c0"/>
    <path id="Path_2310" data-name="Path 2310" d="M1697.175,1115.438a.213.213,0,0,1-.213-.213v-9.346a.213.213,0,1,1,.427,0v9.346a.213.213,0,0,1-.213.213" transform="translate(-1238.244 -806.786)" fill="#60c0c0"/>
    <path id="Path_2311" data-name="Path 2311" d="M1717.6,1115.438a.213.213,0,0,1-.213-.213v-9.346a.213.213,0,1,1,.427,0v9.346a.213.213,0,0,1-.213.213" transform="translate(-1253.146 -806.786)" fill="#60c0c0"/>
    <path id="Path_2312" data-name="Path 2312" d="M1745.679,1115.438a.213.213,0,0,1-.213-.213v-9.346a.213.213,0,1,1,.427,0v9.346a.213.213,0,0,1-.213.213" transform="translate(-1273.637 -806.786)" fill="#60c0c0"/>
    <path id="Path_2313" data-name="Path 2313" d="M1771.212,1115.438a.213.213,0,0,1-.214-.213v-9.346a.213.213,0,1,1,.427,0v9.346a.213.213,0,0,1-.213.213" transform="translate(-1292.267 -806.786)" fill="#60c0c0"/>
    <rect id="Rectangle_912" data-name="Rectangle 912" width="67.711" height="9.346" transform="translate(430.038 308.498)" fill="#ffaa45"/>
    <path id="Path_2314" data-name="Path 2314" d="M1738.961,1175.462h-37.719a.213.213,0,1,1,0-.427h37.719a.213.213,0,1,1,0,.427" transform="translate(-1241.211 -857.404)" fill="#f4d7ae"/>
    <path id="Path_2315" data-name="Path 2315" d="M1739.127,1150.232a.213.213,0,0,1-.214-.213v-9.347a.213.213,0,1,1,.427,0v9.347a.213.213,0,0,1-.213.213" transform="translate(-1268.855 -832.174)" fill="#60c0c0"/>
    <path id="Path_2316" data-name="Path 2316" d="M1759.553,1150.232a.213.213,0,0,1-.214-.213v-9.347a.213.213,0,1,1,.427,0v9.347a.213.213,0,0,1-.213.213" transform="translate(-1283.76 -832.174)" fill="#60c0c0"/>
    <path id="Path_2317" data-name="Path 2317" d="M1787.635,1150.232a.213.213,0,0,1-.213-.213v-9.347a.213.213,0,1,1,.427,0v9.347a.213.213,0,0,1-.213.213" transform="translate(-1304.251 -832.174)" fill="#60c0c0"/>
    <path id="Path_2318" data-name="Path 2318" d="M1813.165,1150.232a.213.213,0,0,1-.213-.213v-9.347a.213.213,0,1,1,.427,0v9.347a.213.213,0,0,1-.213.213" transform="translate(-1322.88 -832.174)" fill="#60c0c0"/>
    <rect id="Rectangle_913" data-name="Rectangle 913" width="67.711" height="9.346" transform="translate(423.661 299.152)" fill="#ffaa45"/>
    <path id="Path_2319" data-name="Path 2319" d="M1715.368,1140.886h-37.72a.213.213,0,0,1,0-.427h37.72a.213.213,0,0,1,0,.427" transform="translate(-1223.996 -832.174)" fill="#f4d7ae"/>
    <path id="Path_2320" data-name="Path 2320" d="M1715.534,1115.658a.213.213,0,0,1-.213-.213V1106.1a.213.213,0,1,1,.427,0v9.346a.213.213,0,0,1-.213.213" transform="translate(-1251.64 -806.947)" fill="#f4d7ae"/>
    <path id="Path_2321" data-name="Path 2321" d="M1735.959,1115.658a.213.213,0,0,1-.213-.213V1106.1a.213.213,0,1,1,.427,0v9.346a.213.213,0,0,1-.213.213" transform="translate(-1266.544 -806.947)" fill="#60c0c0"/>
    <path id="Path_2322" data-name="Path 2322" d="M1764.042,1115.658a.213.213,0,0,1-.213-.213V1106.1a.213.213,0,1,1,.427,0v9.346a.213.213,0,0,1-.213.213" transform="translate(-1287.036 -806.947)" fill="#60c0c0"/>
    <path id="Path_2323" data-name="Path 2323" d="M1789.571,1115.658a.213.213,0,0,1-.213-.213V1106.1a.213.213,0,1,1,.427,0v9.346a.213.213,0,0,1-.213.213" transform="translate(-1305.664 -806.947)" fill="#60c0c0"/>
    <rect id="Rectangle_914" data-name="Rectangle 914" width="67.711" height="9.346" transform="translate(432.552 289.806)" fill="#ffaa45"/>
    <path id="Path_2324" data-name="Path 2324" d="M1681.7,1106.313h-62.379a.213.213,0,0,1,0-.427H1681.7a.213.213,0,0,1,0,.427" transform="translate(-1181.433 -806.947)" fill="#f4d7ae"/>
    <path id="Path_2325" data-name="Path 2325" d="M1748.429,1081.083a.213.213,0,0,1-.213-.213v-9.347a.214.214,0,0,1,.427,0v9.347a.214.214,0,0,1-.214.213" transform="translate(-1275.643 -781.717)" fill="#f4d7ae"/>
    <path id="Path_2326" data-name="Path 2326" d="M1768.854,1081.083a.213.213,0,0,1-.213-.213v-9.347a.213.213,0,0,1,.427,0v9.347a.213.213,0,0,1-.213.213" transform="translate(-1290.547 -781.717)" fill="#60c0c0"/>
    <path id="Path_2327" data-name="Path 2327" d="M1796.937,1081.083a.213.213,0,0,1-.213-.213v-9.347a.213.213,0,1,1,.426,0v9.347a.213.213,0,0,1-.213.213" transform="translate(-1311.039 -781.717)" fill="#60c0c0"/>
    <path id="Path_2328" data-name="Path 2328" d="M1822.466,1081.083a.213.213,0,0,1-.213-.213v-9.347a.213.213,0,1,1,.426,0v9.347a.213.213,0,0,1-.213.213" transform="translate(-1329.667 -781.717)" fill="#60c0c0"/>
    <rect id="Rectangle_915" data-name="Rectangle 915" width="67.711" height="9.346" transform="translate(425.541 280.459)" fill="#ffaa45"/>
    <path id="Path_2329" data-name="Path 2329" d="M1722.322,1071.736H1684.6a.214.214,0,0,1,0-.427h37.72a.214.214,0,0,1,0,.427" transform="translate(-1229.07 -781.717)" fill="#f4d7ae"/>
    <path id="Path_2330" data-name="Path 2330" d="M1722.491,1046.506a.214.214,0,0,1-.214-.213v-9.347a.213.213,0,1,1,.427,0v9.347a.213.213,0,0,1-.213.213" transform="translate(-1256.717 -756.487)" fill="#f4d7ae"/>
    <path id="Path_2331" data-name="Path 2331" d="M1742.913,1046.506a.213.213,0,0,1-.213-.213v-9.347a.213.213,0,1,1,.427,0v9.347a.214.214,0,0,1-.213.213" transform="translate(-1271.619 -756.487)" fill="#f4d7ae"/>
    <path id="Path_2332" data-name="Path 2332" d="M1771,1046.506a.213.213,0,0,1-.213-.213v-9.347a.213.213,0,1,1,.427,0v9.347a.214.214,0,0,1-.214.213" transform="translate(-1292.11 -756.487)" fill="#f4d7ae"/>
    <path id="Path_2333" data-name="Path 2333" d="M1796.528,1046.506a.214.214,0,0,1-.214-.213v-9.347a.213.213,0,1,1,.427,0v9.347a.213.213,0,0,1-.213.213" transform="translate(-1310.74 -756.487)" fill="#f4d7ae"/>
    <rect id="Rectangle_916" data-name="Rectangle 916" width="67.711" height="9.346" transform="translate(437.967 271.113)" fill="#ffaa45"/>
    <path id="Path_2334" data-name="Path 2334" d="M1723.413,1037.16h-54.345a.213.213,0,0,1,0-.427h54.345a.213.213,0,1,1,0,.427" transform="translate(-1217.735 -756.487)" fill="#f4d7ae"/>
    <path id="Path_2335" data-name="Path 2335" d="M1768.459,1011.93a.213.213,0,0,1-.214-.213v-9.347a.213.213,0,0,1,.427,0v9.347a.213.213,0,0,1-.213.213" transform="translate(-1290.259 -731.258)" fill="#f4d7ae"/>
    <path id="Path_2336" data-name="Path 2336" d="M1788.881,1011.93a.213.213,0,0,1-.213-.213v-9.347a.213.213,0,0,1,.427,0v9.347a.213.213,0,0,1-.213.213" transform="translate(-1305.161 -731.258)" fill="#f4d7ae"/>
    <path id="Path_2337" data-name="Path 2337" d="M1816.964,1011.93a.213.213,0,0,1-.213-.213v-9.347a.213.213,0,0,1,.427,0v9.347a.213.213,0,0,1-.213.213" transform="translate(-1325.652 -731.258)" fill="#f4d7ae"/>
    <path id="Path_2338" data-name="Path 2338" d="M1842.493,1011.93a.213.213,0,0,1-.213-.213v-9.347a.213.213,0,0,1,.427,0v9.347a.213.213,0,0,1-.213.213" transform="translate(-1344.28 -731.258)" fill="#f4d7ae"/>
    <rect id="Rectangle_917" data-name="Rectangle 917" width="67.711" height="9.346" transform="translate(432.552 261.766)" fill="#ffaa45"/>
    <path id="Path_2339" data-name="Path 2339" d="M1748.262,1002.583h-37.719a.213.213,0,1,1,0-.427h37.719a.213.213,0,0,1,0,.427" transform="translate(-1247.998 -731.257)" fill="#f4d7ae"/>
    <path id="Path_2340" data-name="Path 2340" d="M1748.429,977.355a.213.213,0,0,1-.213-.213V967.8a.214.214,0,1,1,.427,0v9.346a.214.214,0,0,1-.214.213" transform="translate(-1275.643 -706.03)" fill="#f4d7ae"/>
    <path id="Path_2341" data-name="Path 2341" d="M1768.854,977.355a.213.213,0,0,1-.213-.213V967.8a.213.213,0,1,1,.427,0v9.346a.213.213,0,0,1-.213.213" transform="translate(-1290.547 -706.03)" fill="#f4d7ae"/>
    <path id="Path_2342" data-name="Path 2342" d="M1796.937,977.355a.213.213,0,0,1-.213-.213V967.8a.213.213,0,1,1,.426,0v9.346a.213.213,0,0,1-.213.213" transform="translate(-1311.039 -706.03)" fill="#f4d7ae"/>
    <path id="Path_2343" data-name="Path 2343" d="M1822.466,977.355a.213.213,0,0,1-.213-.213V967.8a.213.213,0,1,1,.426,0v9.346a.213.213,0,0,1-.213.213" transform="translate(-1329.667 -706.03)" fill="#f4d7ae"/>
    <rect id="Rectangle_918" data-name="Rectangle 918" width="67.711" height="9.346" transform="translate(427.524 252.42)" fill="#ffaa45"/>
    <path id="Path_2344" data-name="Path 2344" d="M1700.551,968.01h-48.5a.213.213,0,0,1,0-.427h48.5a.213.213,0,0,1,0,.427" transform="translate(-1205.315 -706.03)" fill="#f4d7ae"/>
    <path id="Path_2345" data-name="Path 2345" d="M1729.829,942.78a.213.213,0,0,1-.214-.213V933.22a.213.213,0,0,1,.427,0v9.347a.213.213,0,0,1-.213.213" transform="translate(-1262.071 -680.8)" fill="#f4d7ae"/>
    <path id="Path_2346" data-name="Path 2346" d="M1750.251,942.78a.213.213,0,0,1-.213-.213V933.22a.213.213,0,0,1,.427,0v9.347a.213.213,0,0,1-.213.213" transform="translate(-1276.973 -680.8)" fill="#f4d7ae"/>
    <path id="Path_2347" data-name="Path 2347" d="M1778.334,942.78a.213.213,0,0,1-.213-.213V933.22a.213.213,0,0,1,.427,0v9.347a.214.214,0,0,1-.214.213" transform="translate(-1297.465 -680.8)" fill="#f4d7ae"/>
    <path id="Path_2348" data-name="Path 2348" d="M1803.867,942.78a.213.213,0,0,1-.213-.213V933.22a.213.213,0,0,1,.427,0v9.347a.213.213,0,0,1-.213.213" transform="translate(-1316.096 -680.8)" fill="#f4d7ae"/>
    <rect id="Rectangle_919" data-name="Rectangle 919" width="67.711" height="9.346" transform="translate(435.782 243.074)" fill="#ffaa45"/>
    <path id="Path_2349" data-name="Path 2349" d="M1760.21,933.434h-37.719a.213.213,0,1,1,0-.427h37.719a.213.213,0,0,1,0,.427" transform="translate(-1256.717 -680.8)" fill="#f4d7ae"/>
    <path id="Path_2350" data-name="Path 2350" d="M1760.377,908.2a.214.214,0,0,1-.213-.213v-9.347a.213.213,0,0,1,.427,0v9.347a.213.213,0,0,1-.213.213" transform="translate(-1284.361 -655.571)" fill="#f4d7ae"/>
    <path id="Path_2351" data-name="Path 2351" d="M1780.8,908.2a.213.213,0,0,1-.214-.213v-9.347a.213.213,0,0,1,.427,0v9.347a.213.213,0,0,1-.213.213" transform="translate(-1299.265 -655.571)" fill="#f4d7ae"/>
    <path id="Path_2352" data-name="Path 2352" d="M1808.884,908.2a.213.213,0,0,1-.213-.213v-9.347a.213.213,0,0,1,.427,0v9.347a.213.213,0,0,1-.213.213" transform="translate(-1319.756 -655.571)" fill="#f4d7ae"/>
    <path id="Path_2353" data-name="Path 2353" d="M1834.414,908.2a.213.213,0,0,1-.213-.213v-9.347a.213.213,0,0,1,.427,0v9.347a.213.213,0,0,1-.213.213" transform="translate(-1338.385 -655.571)" fill="#f4d7ae"/>
    <rect id="Rectangle_920" data-name="Rectangle 920" width="67.711" height="9.346" transform="translate(429.404 233.727)" fill="#ffaa45"/>
    <path id="Path_2354" data-name="Path 2354" d="M1696.23,898.857h-52.68a.213.213,0,0,1,0-.427h52.68a.213.213,0,1,1,0,.427" transform="translate(-1199.114 -655.57)" fill="#f4d7ae"/>
    <path id="Path_2355" data-name="Path 2355" d="M1736.783,873.629a.213.213,0,0,1-.213-.213V864.07a.213.213,0,1,1,.427,0v9.346a.213.213,0,0,1-.213.213" transform="translate(-1267.145 -630.343)" fill="#f4d7ae"/>
    <path id="Path_2356" data-name="Path 2356" d="M1757.205,873.629a.213.213,0,0,1-.213-.213V864.07a.213.213,0,1,1,.427,0v9.346a.213.213,0,0,1-.213.213" transform="translate(-1282.047 -630.343)" fill="#f4d7ae"/>
    <path id="Path_2357" data-name="Path 2357" d="M1785.291,873.629a.213.213,0,0,1-.213-.213V864.07a.213.213,0,1,1,.427,0v9.346a.213.213,0,0,1-.213.213" transform="translate(-1302.541 -630.343)" fill="#f4d7ae"/>
    <path id="Path_2358" data-name="Path 2358" d="M1810.82,873.629a.213.213,0,0,1-.213-.213V864.07a.213.213,0,1,1,.427,0v9.346a.213.213,0,0,1-.213.213" transform="translate(-1321.169 -630.343)" fill="#f4d7ae"/>
    <path id="Path_2359" data-name="Path 2359" d="M1499.279,704.309s.892-7.329,11.337-8.4c4.283-.44,5.075,7.5,5.075,7.5Z" transform="translate(-1093.998 -507.779)" fill="#ffb27d"/>
    <path id="Path_2360" data-name="Path 2360" d="M1563.569,1054.85l8.535,21.122-25.491,8.961a2.026,2.026,0,0,1-2.632-2.435c.552-2.02,1.505-4.334,3.1-5.356,7.361-4.732,4.311-7.308,3.05-15.783s13.442-6.509,13.442-6.509" transform="translate(-1126.563 -769.563)" fill="#3868ad"/>
    <path id="Path_2361" data-name="Path 2361" d="M1364.342,1050.394l-4.932,22.713-26.234-6.973a2.287,2.287,0,0,1-.861-3.981c1.571-1.278,3.531-2.478,5.317-2.431,8.925.237,7.833-3.687,11.636-11.559s15.074,2.231,15.074,2.231" transform="translate(-971.554 -762.637)" fill="#3868ad"/>
    <path id="Path_2362" data-name="Path 2362" d="M1359.58,837.15c.535-.8,32.738-67.414,32.738-67.414s3.667-15.626,13.567-18.3c4.763-1.287,11.773,0,11.773,0l6.957,21.673s-22.779,46-34.941,73.908c-16.211,8.4-30.093-9.865-30.093-9.865" transform="translate(-992.062 -547.892)" fill="#063992"/>
    <path id="Path_2363" data-name="Path 2363" d="M1526.22,562.124s19.131-7.4,19.33-8.173c1.839-7.191,4.114-37.075,16.8-41.294,4.992-1.659,3.332,21.132,3.332,21.132l.8,34.917-31.161,5.226Z" transform="translate(-1113.657 -374.015)" fill="#ffaa45"/>
    <path id="Path_2364" data-name="Path 2364" d="M1485.855,837.382s-20.135-68.374-21.252-74.111c-2.562-13.164,9.714-27.024,16.939-27.024s75.778-1.918,78.355,0c6.745,5.022,9.1,27.8,1.342,33.6-8.826,6.6-64.414-2.566-64.414-2.566s19.9,45.992,18.751,61.808c-8.867,9.367-29.721,8.295-29.721,8.295" transform="translate(-1068.444 -536.606)" fill="#063992"/>
    <rect id="Rectangle_921" data-name="Rectangle 921" width="51.078" height="5.664" transform="translate(400.255 193.698)" fill="#062d66"/>
    <path id="Path_2365" data-name="Path 2365" d="M1424.63,561.064l15.152,42.811-5.34,1.89L1417.4,557.614a5.664,5.664,0,0,1,7.229,3.45" transform="translate(-1034.253 -406.644)" fill="#062d66"/>
    <path id="Path_2366" data-name="Path 2366" d="M1684.11,582.432,1629.1,566.909s-9.345-44.876-.181-55.651c2.217-2.616,3.934-4.183,8.691-5.263a60.4,60.4,0,0,1,20.535-.607,69.769,69.769,0,0,1,7.96,1.507c7.723,4.795,18,75.536,18,75.536" transform="translate(-1185.659 -368.347)" fill="#ffaa45"/>
    <path id="Path_2367" data-name="Path 2367" d="M1642.807,398.13s-2.209,19.474,4.377,21.664,16.567-6.771,16.567-6.771l1.091-16.124Z" transform="translate(-1198.468 -289.611)" fill="#ffb27d"/>
    <path id="Path_2368" data-name="Path 2368" d="M1677.44,458.974l.861,13.249s11.271,1.654,13.751-1.894c.564-.808-4.425-15.183-4.425-15.183Z" transform="translate(-1223.999 -332.114)" fill="#ffb27d"/>
    <path id="Path_2369" data-name="Path 2369" d="M1629.2,371.607c-.495,1.531-.8,4.77,2.579,5.621s11.827-3.3,12.467-1.664c1,2.55,3.253,5.647,5.476,6.232a33.924,33.924,0,0,1,1.32,4.041s-.81,6.9,2.664,10.245c2.185,2.1,11.854-2.82,11.817-8.12-.035-5.075-2.275-8.181-4.456-10.754s-2.166-5.131-3.128-6.954-4.19-4.563-7.2-3.664c-3.686,1.1-4.236-3.177-8.66-.673-4.123,2.333-11.37,1.015-12.881,5.691" transform="translate(-1188.578 -266.42)" fill="#062d66"/>
    <path id="Path_2370" data-name="Path 2370" d="M1678.62,470.981c2.086-.358,6.1-3.868,6.1-3.868L1678.7,473.9s.014-1.913-.083-2.918" transform="translate(-1224.86 -340.845)" fill="#fca56b"/>
    <path id="Path_2371" data-name="Path 2371" d="M1647.5,429.132a.877.877,0,0,1-.567,1.074c-.4.063-.788-.315-.872-.845a.877.877,0,0,1,.567-1.074c.4-.063.788.315.872.845" transform="translate(-1201.093 -312.51)" fill="#062d66"/>
    <path id="Path_2372" data-name="Path 2372" d="M1672.067,427.329a.877.877,0,0,1-.567,1.074c-.4.063-.788-.315-.872-.845a.877.877,0,0,1,.567-1.074c.4-.063.788.315.872.845" transform="translate(-1219.017 -311.194)" fill="#062d66"/>
    <path id="Path_2373" data-name="Path 2373" d="M1657.043,437.213a3.742,3.742,0,0,1-1.526-.277c-.82-.393.02-3.256.418-4.469a.214.214,0,0,1,.407.134c-.633,1.924-.938,3.807-.64,3.949a4.064,4.064,0,0,0,1.767.217.221.221,0,0,1,.234.191.213.213,0,0,1-.19.234c-.02,0-.2.021-.469.021" transform="translate(-1207.75 -315.458)" fill="#062d66"/>
    <path id="Path_2374" data-name="Path 2374" d="M1703.152,424.753c.1-.032.607-2.154,2.688-2.09,1.853.057,2.371,3.022,1.868,3.76a5.132,5.132,0,0,1-3.441,2.44Z" transform="translate(-1242.761 -308.41)" fill="#ffb27d"/>
    <path id="Path_2375" data-name="Path 2375" d="M1709.971,430.428a.213.213,0,0,1-.213-.209.862.862,0,0,0-.328-.782c-.431-.25-1.241.087-1.518.236a.214.214,0,0,1-.205-.375c.05-.027,1.209-.654,1.937-.232a1.244,1.244,0,0,1,.541,1.143.213.213,0,0,1-.209.218Z" transform="translate(-1246.004 -312.977)" fill="#062d66"/>
    <path id="Path_2376" data-name="Path 2376" d="M1710.837,431.187a.214.214,0,0,1-.208-.164c-.031-.128.034-.246.176-.506a3.672,3.672,0,0,0,.494-1.3.214.214,0,0,1,.425.045,4.021,4.021,0,0,1-.543,1.456c-.051.092-.113.205-.131.253a.213.213,0,0,1-.163.207.207.207,0,0,1-.05.006" transform="translate(-1248.211 -313.057)" fill="#062d66"/>
    <path id="Path_2377" data-name="Path 2377" d="M1658.781,454.4a4.167,4.167,0,0,1-1.078-.137.213.213,0,0,1-.142-.266.215.215,0,0,1,.266-.143c.106.032,2.621.759,3.436-1.62a.216.216,0,0,1,.272-.133.214.214,0,0,1,.133.271,2.842,2.842,0,0,1-2.886,2.028" transform="translate(-1209.488 -329.881)" fill="#062d66"/>
    <path id="Path_2378" data-name="Path 2378" d="M1691.139,505.388c-2.786,2.957-10.3,10.225-16.281,9.486-5.809-.73-4.947-6.368-4.255-8.879a60.386,60.386,0,0,1,20.536-.607" transform="translate(-1218.649 -368.347)" fill="#ffb27d"/>
    <path id="Path_2379" data-name="Path 2379" d="M1679.458,535.461a12.678,12.678,0,0,1-4.583-.773l.171-.391c.086.036,8.539,3.573,16.9-5.17l.308.3c-4.708,4.92-9.457,6.038-12.8,6.038" transform="translate(-1222.128 -386.096)" fill="#f4932a"/>
    <path id="Path_2380" data-name="Path 2380" d="M1563.218,696.891c-1.288-4.434,11.964-7.975,17.019-7.172s3.182,7.626,3.182,7.626-10.278-.453-20.2-.453" transform="translate(-1140.59 -503.193)" fill="#ffb27d"/>
    <path id="Path_2381" data-name="Path 2381" d="M1622.984,603.414l-.422-.074a7.716,7.716,0,0,0-.821-4.992,13.834,13.834,0,0,1-1.158-3.749c-.469-3.335,1.268-5.346,2.949-7.289.266-.309.532-.615.785-.924,1.729-2.114,1.1-8.309,1.095-8.371l.425-.045c.028.262.652,6.436-1.189,8.687-.255.312-.522.622-.792.933-1.618,1.871-3.291,3.807-2.849,6.95a13.268,13.268,0,0,0,1.129,3.639,8.173,8.173,0,0,1,.849,5.236" transform="translate(-1182.455 -421.735)" fill="#f4932a"/>
    <path id="Path_2382" data-name="Path 2382" d="M1706.113,599.209a45.785,45.785,0,0,1,.884,15.72c-.635,5.39-18.787,6.668-18.787,6.668s21.355,6.87,25.341,2.048c4.068-4.922-7.438-24.435-7.438-24.435" transform="translate(-1231.858 -437.233)" fill="#f4932a"/>
    <path id="Path_2383" data-name="Path 2383" d="M1621.658,558.775s33.82-1.945,39.839-1.859c3.312.047-8.607-24.2-9.876-27.751-2.717-7.6,4.962-16.546,7.588-17.3,7.6-2.19,15.589,12.111,19.97,24.608s4.9,28.087,4.9,28.087,1.947,9.682-6.169,10.455-57.993-3.111-57.993-3.111-.316-11.194,1.746-13.126" transform="translate(-1182.01 -373.334)" fill="#ffaa45"/>
    <path id="Path_2384" data-name="Path 2384" d="M1704.225,741.211c-12.226,0-39.948-1.908-41.345-2l.029-.427c.408.029,40.932,2.818,46.32,1.765l.081.419a33.317,33.317,0,0,1-5.086.248" transform="translate(-1213.375 -539.075)" fill="#f4932a"/>
    <path id="Path_2385" data-name="Path 2385" d="M1631.71,617.229l-.048-.425c.216-.025,21.855-2.506,37.05-2.7a1.241,1.241,0,0,0,.991-.485,1.009,1.009,0,0,0,.149-.907c-2.582-8.513-4.925-15.417-6.964-20.521-.206-.516-.5-.824-.839-.867a.938.938,0,0,0-.836.44,1.669,1.669,0,0,0-.133,1.688l-.388.179a2.1,2.1,0,0,1,.176-2.121,1.333,1.333,0,0,1,1.234-.61c.288.037.823.232,1.183,1.132,2.044,5.115,4.39,12.032,6.975,20.556a1.423,1.423,0,0,1-.212,1.284,1.671,1.671,0,0,1-1.331.661c-15.173.2-36.79,2.675-37.007,2.7" transform="translate(-1190.596 -431.16)" fill="#f4932a"/>
    <path id="Path_2386" data-name="Path 2386" d="M1479.722,892c-.113-.359-11.385-36.012-12.893-45.255l.421-.069c1.5,9.213,12.767,44.836,12.881,45.194Z" transform="translate(-1070.32 -617.803)" fill="#f2f2f2"/>
    <path id="Path_2387" data-name="Path 2387" d="M1551.567,868.261l-.013-.427c.178-.005,17.812-.6,23.172-5.805,1.5-6.107-10.305-37.182-15.989-52.14-1.663-4.376-2.761-7.266-2.969-8.048a4.089,4.089,0,0,1,1.385-3.893,2.854,2.854,0,0,1,2.913-.745c2.016.789,34.807,4.743,42.175,5.472,10.869,1.078,17.647.288,20.137-2.342,5.349-5.656,1.756-14.972,1.718-15.065l.4-.158c.038.1,3.729,9.665-1.806,15.515-2.585,2.732-9.477,3.564-20.489,2.474-6.24-.617-40.155-4.665-42.288-5.5a2.439,2.439,0,0,0-2.472.665,3.653,3.653,0,0,0-1.256,3.464c.2.76,1.356,3.8,2.954,8.005,5.717,15.046,17.613,46.354,15.989,52.459l-.015.057-.042.041c-5.427,5.363-22.765,5.946-23.5,5.969" transform="translate(-1132.142 -572.883)" fill="#f2f2f2"/>
    <path id="Path_2388" data-name="Path 2388" d="M1401.624,1011.651c-9.534,0-19.192-7.411-19.3-7.5l.261-.338c.12.094,12.115,9.294,22.421,7.057,1.571-.341,7.185-17.859,10.355-28.821l.41.119c-.846,2.927-8.337,28.613-10.674,29.12a16.324,16.324,0,0,1-3.474.359" transform="translate(-1008.658 -716.588)" fill="#f2f2f2"/>
    <path id="Path_2389" data-name="Path 2389" d="M547.992,1271.709l.724,11.991,30.6-.4s4.747-5.894-10.06-5.894c-2.97,0-3.434-6.293-3.434-6.293Z" transform="translate(-399.86 -927.51)" fill="#063992"/>
    <path id="Path_2390" data-name="Path 2390" d="M289.9,1271.709l-.724,11.991-30.6-.4s-4.747-5.894,10.06-5.894c2.97,0,3.434-6.293,3.434-6.293Z" transform="translate(-188.151 -927.51)" fill="#063992"/>
    <path id="Path_2391" data-name="Path 2391" d="M302.94,749.023l-8.048,141.33h24.492l11.454-115.846,2.481-.134,29.173,115.98h22.078l-27.711-146.7Z" transform="translate(-215.178 -542.635)" fill="#ffaa45"/>
    <path id="Path_2392" data-name="Path 2392" d="M427.435,814.431h-4.568l-.751-11.751.427-.028L423.269,814h4.167Z" transform="translate(-308.012 -585.683)" fill="#f4932a"/>
    <path id="Path_2393" data-name="Path 2393" d="M511.079,925.636H496.032v-.427h14.53c-1.393-7.266-20.961-109.4-21.76-115.7-11.122,2.7-15.451-5.527-15.494-5.611l.381-.194c.042.082,4.292,8.124,15.248,5.331l.267-.068v.275c0,2.259,21.607,115,21.825,116.139Z" transform="translate(-345.365 -586.451)" fill="#f4932a"/>
    <path id="Path_2394" data-name="Path 2394" d="M327.349,923.39H307.114l.012-.225c.245-4.576,6.017-112.1,6.87-116.062l.043-.2.2.034c5.992,1.013,12.884-6.237,12.953-6.31l.312.293c-.285.3-6.976,7.327-13.126,6.471-.939,6.36-6.515,109.991-6.814,115.572h19.784Z" transform="translate(-224.096 -584.205)" fill="#f4932a"/>
    <path id="Path_2395" data-name="Path 2395" d="M411.116,390.254l1.007,14.308s-12.123,2.879-15.3-.326c-.723-.73.909-17.057.909-17.057Z" transform="translate(-289.419 -282.519)" fill="#ffb27d"/>
    <path id="Path_2396" data-name="Path 2396" d="M429.167,404.569c-2.313-.021-8.182-2.925-8.182-2.925a12.138,12.138,0,0,0,8.313,5.542c-.032-.711-.1-1.576-.131-2.617" transform="translate(-307.186 -293.074)" fill="#fca56b"/>
    <path id="Path_2397" data-name="Path 2397" d="M409.483,325.777s5.092,19.473-1.282,22.662-17.831-4.461-17.831-4.461L386.9,327.747Z" transform="translate(-282.317 -237.715)" fill="#ffb27d"/>
    <path id="Path_2398" data-name="Path 2398" d="M467.026,354.709c-.008.551.32,1,.733,1.009s.755-.435.763-.986-.32-1-.733-1.009-.755.436-.763.986" transform="translate(-340.781 -258.106)" fill="#062d66"/>
    <path id="Path_2399" data-name="Path 2399" d="M441.792,356.468c-.008.551.32,1,.733,1.009s.755-.435.763-.986-.32-1-.733-1.009-.755.435-.763.986" transform="translate(-322.368 -259.39)" fill="#062d66"/>
    <path id="Path_2400" data-name="Path 2400" d="M456.575,364.505a.214.214,0,0,1-.009-.427,4.171,4.171,0,0,0,1.767-.479c.289-.194-.283-2.03-1.226-3.929a.214.214,0,1,1,.383-.19c.582,1.173,1.853,3.958,1.081,4.474a4.518,4.518,0,0,1-1.988.55h-.008" transform="translate(-332.999 -262.221)" fill="#062d66"/>
    <path id="Path_2401" data-name="Path 2401" d="M451.118,383.381a2.837,2.837,0,0,1-2.661-1.677.214.214,0,1,1,.38-.195c1.179,2.305,3.634,1.2,3.737,1.147a.214.214,0,0,1,.181.387,4.33,4.33,0,0,1-1.638.338" transform="translate(-327.214 -278.296)" fill="#062d66"/>
    <path id="Path_2402" data-name="Path 2402" d="M381.927,299.446c1.358-4.075,5.445-2.727,5.7-3.111a5.172,5.172,0,0,1,5.983-1.86c1.328.419,2.739,1.122,3.9.349,1.544-1.03,8.478-3.418,9.661.131,2.584,7.751-1.052,9.727-4.164,10.508-1.772.445-3.638-.187-5.463-.248s-3.845.346-4.955,1.8a15.875,15.875,0,0,1-1.62,2.475c-1.189,1.062-3.147.812-4.361,1.846-1.039.885-1.2,2.412-1.192,3.777a29.8,29.8,0,0,0,.3,4.031,5.409,5.409,0,0,1,.055,2.03A1.648,1.648,0,0,1,384.4,322.5c-1.021.057-1.629-1.115-1.855-2.113a13.949,13.949,0,0,1-.342-2.8c-.024-1.181-6.932-17.224-.272-18.144" transform="translate(-276.572 -213.855)" fill="#062d66"/>
    <path id="Path_2403" data-name="Path 2403" d="M401.531,359.09c-.108-.018-.932-2.1-3.038-1.731-1.875.329-1.968,3.419-1.348,4.1A5.27,5.27,0,0,0,401,363.431Z" transform="translate(-289.539 -260.728)" fill="#ffb27d"/>
    <path id="Path_2404" data-name="Path 2404" d="M400.714,365.439a.214.214,0,0,1-.212-.188,1.273,1.273,0,0,1,.381-1.235c.674-.533,1.942-.066,2-.047a.214.214,0,0,1,.126.275.218.218,0,0,1-.275.126c-.3-.113-1.178-.335-1.582-.018a.887.887,0,0,0-.221.848.213.213,0,0,1-.187.237l-.026,0" transform="translate(-292.227 -265.431)" fill="#062d66"/>
    <path id="Path_2405" data-name="Path 2405" d="M403.638,366.168h-.021a.214.214,0,0,1-.191-.182c-.025-.046-.1-.152-.17-.239a4.127,4.127,0,0,1-.764-1.4.214.214,0,0,1,.415-.1,3.765,3.765,0,0,0,.691,1.248c.182.242.265.353.253.485a.214.214,0,0,1-.213.194" transform="translate(-293.686 -265.665)" fill="#062d66"/>
    <path id="Path_2406" data-name="Path 2406" d="M367.691,446.355s0,58.766,0,86.551c-22.947,12.764-59.417,0-59.417,0L304.3,481.247l.986-34.892,17.548-2.784,6.821-1.083,7.35.591,9.162-.135,9.358,1.482Z" transform="translate(-222.04 -322.877)" fill="#063992"/>
    <path id="Path_2407" data-name="Path 2407" d="M405.549,444.427c-2.566,6.1-8.522,19.9-12.807,26.877-1.53,2.489-2.841,4.114-3.715,4.2-.846.086-2.157-1.539-3.7-4.171a.029.029,0,0,1-.009-.019c-3.914-6.679-9.32-19.79-12.465-27.742l6.821-1.083,7.35.591,9.162-.135Z" transform="translate(-272.067 -322.878)" fill="#f2f2f2"/>
    <path id="Path_2408" data-name="Path 2408" d="M381.972,434.61c.075-.335,3.353-4.292,3.353-4.292s6.974,2.951,8.785,2.884,8.651-2.884,8.651-2.884l2.95,4.9s-5.572,5.413-11.467,5.767c-5.575.335-12.273-6.371-12.273-6.371" transform="translate(-278.718 -313.996)" fill="#f2f2f2"/>
    <path id="Path_2409" data-name="Path 2409" d="M393.732,453.843a.213.213,0,0,1-.1-.027c-.248-.139-6.1-3.42-7.477-5.4a.214.214,0,0,1,.352-.243c1.2,1.735,6.268,4.666,7.19,5.191l3.683-3.849a.215.215,0,0,1,.3-.011l4.268,3.865c.868-.5,5.71-3.358,6.593-5.6a.214.214,0,0,1,.4.157c-1.023,2.59-6.676,5.754-6.916,5.888a.216.216,0,0,1-.247-.028l-4.229-3.83-3.654,3.819a.212.212,0,0,1-.154.066" transform="translate(-281.74 -326.633)" fill="#062d66"/>
    <path id="Path_2410" data-name="Path 2410" d="M423.225,479.654s-.085.351-.247.884c-1.529,2.489-2.841,4.114-3.715,4.2-.846.086-2.157-1.539-3.7-4.171a.029.029,0,0,1-.009-.019l1.71-17.7-2.974-3.743,3.8-3.962,4.38,3.962-2.214,3.743Z" transform="translate(-302.303 -332.11)" fill="#062d66"/>
    <path id="Path_2411" data-name="Path 2411" d="M786.853,365.279s10.748-10.435,14.918-13.323c.63-.437,3.03-1.252,2.933.9s-3.109,4.016-5,5.867c1.741-.323,7.7,6.024,7.272,7.476s-10.98,8.21-10.98,8.21Z" transform="translate(-574.153 -256.437)" fill="#ffb27d"/>
    <path id="Path_2412" data-name="Path 2412" d="M825.878,395.163a1.307,1.307,0,0,1-.806-.251c-.3-.232-.85-.921.006-2.57-1.348.557-2.027.3-2.367-.038a2.138,2.138,0,0,1-.138-2.258,1.948,1.948,0,0,1-2.254-.427c-.265-.337-.959-1.606,1.222-3.806a.214.214,0,1,1,.3.3c-1.538,1.55-1.623,2.69-1.19,3.24a1.729,1.729,0,0,0,2.246.06.214.214,0,0,1,.3.283c-.515.973-.59,1.9-.186,2.306s1.293.292,2.493-.334a.214.214,0,0,1,.279.3c-.932,1.46-.845,2.3-.455,2.6a1.75,1.75,0,0,0,2.105-.622.214.214,0,0,1,.315.289,2.671,2.671,0,0,1-1.874.923" transform="translate(-598.342 -281.476)" fill="#222753"/>
    <path id="Path_2413" data-name="Path 2413" d="M799.782,377.936a.214.214,0,0,1-.127-.386,44.964,44.964,0,0,1,5.639-3.65l.31-.114c1.283-.473,2.494-.919,2.86.046.334.883-1.2,2.783-1.516,3.155a.214.214,0,0,1-.328-.275c.708-.846,1.625-2.251,1.444-2.729-.2-.531-1.007-.277-2.311.2l-.311.115a46.223,46.223,0,0,0-5.532,3.593.213.213,0,0,1-.127.042" transform="translate(-583.431 -272.362)" fill="#222753"/>
    <path id="Path_2414" data-name="Path 2414" d="M830.37,386.915a.214.214,0,0,1-.111-.4c2.025-1.231,2.832-4.678,2.84-4.712a.214.214,0,1,1,.417.095c-.034.149-.854,3.657-3.035,4.983a.214.214,0,0,1-.111.031" transform="translate(-605.751 -278.477)" fill="#222753"/>
    <path id="Path_2415" data-name="Path 2415" d="M840.155,396.307a.214.214,0,0,1-.111-.4,8.527,8.527,0,0,0,3.288-4.209.214.214,0,0,1,.407.13,8.8,8.8,0,0,1-3.473,4.444.212.212,0,0,1-.111.032" transform="translate(-612.891 -285.71)" fill="#222753"/>
    <path id="Path_2416" data-name="Path 2416" d="M499.952,411.926c9.813,6.054,23.1,7.022,35.091,3.37a47.713,47.713,0,0,0,15.151-7.676c10.168-6.135,13.2-10.219,16.357-13.089,4.13,3.254,13.8,11.047,13.9,11.126-9.605,14.03-21.925,24.839-35.632,31.38-18.426,8.794-39.358,9.876-59.57.7Z" transform="translate(-354.079 -287.883)" fill="#063992"/>
    <path id="Path_2417" data-name="Path 2417" d="M528.519,473.2l-.427-.028a52.858,52.858,0,0,1,2.922-14.577l.4.158a52.444,52.444,0,0,0-2.892,14.448" transform="translate(-385.34 -334.627)" fill="#f2f2f2"/>
    <path id="Path_2418" data-name="Path 2418" d="M262.631,768.6s2.709,8.669,5.771,13.078c1.374,1.978,3.98,4.668,4.984,3.717a2.382,2.382,0,0,0,.508-1.511s2.149,1.823,2.9,1.225c.97-.772.568-2.415.568-2.415s1.89,1.106,2.357.615c.9-.948-.585-3.271-.585-3.271s1.6.8,2.186-.256c.34-.616-4.246-8.983-4.246-8.983s5.536,2.309,5.393.612-12.035-10.33-12.035-10.33Z" transform="translate(-191.637 -555.347)" fill="#ffb27d"/>
    <path id="Path_2419" data-name="Path 2419" d="M289.145,829.57a.216.216,0,0,1-.132-.045c-.1-.082-2.553-2-2.783-2.19s-2.257-3.031-2.658-3.6a.214.214,0,0,1,.348-.249c.907,1.276,2.412,3.359,2.588,3.519.223.188,2.744,2.159,2.769,2.179a.214.214,0,0,1-.132.382" transform="translate(-206.889 -600.822)" fill="#062d66"/>
    <path id="Path_2420" data-name="Path 2420" d="M300.052,822.542a.213.213,0,0,1-.129-.043l-3.484-2.623a.208.208,0,0,1-.051-.056l-2.628-4.093a.214.214,0,1,1,.36-.23l2.607,4.061,3.453,2.6a.213.213,0,0,1-.128.384" transform="translate(-214.327 -594.984)" fill="#062d66"/>
    <path id="Path_2421" data-name="Path 2421" d="M309.4,814.659a.211.211,0,0,1-.152-.063l-2.583-2.6-2.513-3.416a.214.214,0,1,1,.344-.253l2.493,3.392,2.562,2.58a.213.213,0,0,1-.152.364" transform="translate(-221.907 -589.756)" fill="#062d66"/>
    <path id="Path_2422" data-name="Path 2422" d="M239.219,483.583c-13.628,8.22-20.031,15.96-21.974,24.753-2.306,10.437,1.672,21.372,7.313,33.035L209.991,552.3c-13.258-15.6-18.153-32.007-16.446-47.4,2.02-18.22,13.1-35.706,30.686-48.085Z" transform="translate(-140.988 -333.327)" fill="#063992"/>
    <path id="Path_2423" data-name="Path 2423" d="M313.012,476.213c-.1-9.987-5.686-19.494-5.743-19.589l.367-.219c.057.1,5.7,9.7,5.8,19.8Z" transform="translate(-224.209 -333.032)" fill="#f2f2f2"/>
    <path id="Path_2424" data-name="Path 2424" d="M1794.311,1069.186c.573,21.352-15.983,39.118-36.977,39.681s-38.478-16.29-39.051-37.642,15.983-39.118,36.977-39.681,38.478,16.29,39.051,37.642" transform="translate(-1253.791 -752.691)" fill="#ffaa45"/>
    <path id="Path_2425" data-name="Path 2425" d="M1769.1,1117.105a32.591,32.591,0,0,1-11.7-2.158,34.128,34.128,0,0,1-12.483-54.959,32.8,32.8,0,0,1,23.269-10.545,33.3,33.3,0,0,1,29.6,16.7,34.314,34.314,0,0,1,4.576,16.237h0a33.876,33.876,0,0,1-6.4,20.879A32.9,32.9,0,0,1,1770,1117.093c-.3.007-.6.012-.9.012m-.03-65.772q-.413,0-.829.011a30.905,30.905,0,0,0-21.928,9.939,32.229,32.229,0,0,0,11.771,51.89,30.569,30.569,0,0,0,11.87,2.02,31.012,31.012,0,0,0,24.48-13.048,31.987,31.987,0,0,0,6.039-19.718h0a32.409,32.409,0,0,0-4.32-15.336,31.363,31.363,0,0,0-27.082-15.759" transform="translate(-1266.589 -765.754)" fill="#f4d7ae"/>
    <path id="Path_2426" data-name="Path 2426" d="M1837.966,1111.3a9.722,9.722,0,0,0-2.952-3.387,27.033,27.033,0,0,0-5.7-2.932c-.175-.073-.349-.137-.524-.211a35.284,35.284,0,0,1-5.1-2.3.718.718,0,0,1-.117-.065,6.527,6.527,0,0,1-2.107-1.964,5.126,5.126,0,0,1-.693-2.569,4.449,4.449,0,0,1,1.47-3.574,4.324,4.324,0,0,1,1.208-.774,8.437,8.437,0,0,1,3.333-.675,15.765,15.765,0,0,1,2.211.1,23.274,23.274,0,0,1,4.4.946,2.739,2.739,0,0,0,3.4-1.693l.009-.03a2.76,2.76,0,0,0-1.708-3.567,26.029,26.029,0,0,0-6.252-1.151l-.062-2.322a2.834,2.834,0,0,0-.869-1.979,2.771,2.771,0,0,0-1.989-.767,2.8,2.8,0,0,0-2.7,2.894l.068,2.537a12.116,12.116,0,0,0-5.508,2.618,9.33,9.33,0,0,0-3.172,7.711,10.493,10.493,0,0,0,2.307,6.558q2.1,2.566,6.946,4.481c.175.073.349.147.524.21a37.464,37.464,0,0,1,5.1,2.275,9.2,9.2,0,0,1,1.643,1.118,4.852,4.852,0,0,1,1.71,3.635,4.693,4.693,0,0,1-1.643,3.881,5.033,5.033,0,0,1-1.456.859,11.077,11.077,0,0,1-3.955.712c-.518.014-1.046.009-1.585-.026a24.316,24.316,0,0,1-3.883-.54c-.676-.148-1.333-.306-1.981-.494a2.671,2.671,0,0,0-.819-.105,2.826,2.826,0,0,0-.8,5.48,25.463,25.463,0,0,0,7.632,1.054l.06,2.254a2.778,2.778,0,1,0,5.554-.149l-.071-2.635a13.136,13.136,0,0,0,5.66-2.69,9.8,9.8,0,0,0,3.448-8.187,10.657,10.657,0,0,0-1.033-4.532" transform="translate(-1324.086 -789.795)" fill="#f4d7ae"/>
    <path id="Path_2427" data-name="Path 2427" d="M1737.733,1103.964a.467.467,0,0,1-.225-.057,38.769,38.769,0,0,1,18.276-72.957c.929,0,1.871.033,2.8.1a.475.475,0,0,1,.44.507.487.487,0,0,1-.507.441c-.907-.065-1.827-.1-2.734-.1a37.819,37.819,0,0,0-17.827,71.17.475.475,0,0,1-.224.893" transform="translate(-1252.88 -752.267)" fill="#f4d7ae"/>
  </g>
</svg>
