<svg xmlns="http://www.w3.org/2000/svg" width="63.306" height="23.651" viewBox="0 0 63.306 23.651">
  <g id="Logo" transform="translate(-3235.827 -594)">
    <path id="Path_10787" data-name="Path 10787" d="M3262.948,613.534h-11a.442.442,0,0,0-.339.154l-.647.832c-.062.092-.031.154.093.154l11.158.031a.469.469,0,0,0,.308-.185l.524-.8C3263.1,613.626,3263.071,613.534,3262.948,613.534Z" transform="translate(-10.446 -13.513)" fill="#555"/>
    <path id="Path_10788" data-name="Path 10788" d="M3250.9,622.734h-14.055a.442.442,0,0,0-.339.154l-.647.832c-.062.093-.031.154.093.154l14.579-.031a.269.269,0,0,0,.277-.185l.247-.74A.142.142,0,0,0,3250.9,622.734Z" transform="translate(0 -19.878)" fill="#555"/>
    <path id="Path_10789" data-name="Path 10789" d="M3266.962,631.934H3260.8a.409.409,0,0,0-.309.185l-.431.771c-.062.092-.031.185.092.185l6.719.031a.231.231,0,0,0,.216-.216l.062-.74C3267.147,632.026,3267.085,631.934,3266.962,631.934Z" transform="translate(-16.741 -26.242)" fill="#555"/>
    <path id="Path_10790" data-name="Path 10790" d="M3336.726,602.98a9.6,9.6,0,0,0-4.346-6.873,11.433,11.433,0,0,0-8.784-1.572,12.921,12.921,0,0,0-8.63,5.147,13.106,13.106,0,0,0-2.129,4.007h-9.923a.833.833,0,0,0-.771.493c-.431.8-1.171,2.4-1.572,3.36-.216.524-.062.925.586.925h5.949c-.309.431-.555.8-.832,1.14a5.689,5.689,0,0,1-5.24,2.034,4.832,4.832,0,0,1-4.161-4.839,6.555,6.555,0,0,1,3.144-5.856,5.359,5.359,0,0,1,5.579-.462,4.126,4.126,0,0,1,1.449,1.171c.4.462.431.432.894.308,1.911-.493,3.236-.863,5.178-1.356.37-.092.493-.247.308-.524a9.662,9.662,0,0,0-3.575-4.346,10.621,10.621,0,0,0-8.168-1.51,13.677,13.677,0,0,0-8.63,5.332,12.1,12.1,0,0,0-2.62,9.031,9.682,9.682,0,0,0,3.915,6.843,10.918,10.918,0,0,0,8.292,2.034,13.538,13.538,0,0,0,10.08-7.332,9.686,9.686,0,0,0,3.081,4.8,11.562,11.562,0,0,0,7.521,2.712c.8-.092,1.634-.123,2.466-.277a14.123,14.123,0,0,0,7.4-3.945A11.9,11.9,0,0,0,3336.726,602.98Zm-9.987,8.106a5.65,5.65,0,0,1-5.024.185,5.076,5.076,0,0,1-2.836-5.826,6.734,6.734,0,0,1,5.394-5.363,5.078,5.078,0,0,1,6.288,4.1,8.887,8.887,0,0,1,.092,1.017A6.746,6.746,0,0,1,3326.739,611.086Z" transform="translate(-37.712)" fill="#555"/>
  </g>
</svg>
