<?xml version="1.0" encoding="UTF-8"?><svg xmlns="http://www.w3.org/2000/svg" xmlns:xlink="http://www.w3.org/1999/xlink" viewBox="0 0 4828.66 3328.83"><defs><style>.l{fill:#88c9f7;}.m{fill:#fff;}.n{fill:#82add8;}.n,.o,.p,.q,.r,.s{mix-blend-mode:multiply;}.n,.o,.q,.r{opacity:.2;}.t{fill:#479bff;}.u{opacity:.5;}.v{fill:url(#c);}.w{fill:#062d66;}.x{isolation:isolate;}.y{fill:#f9962b;}.o{fill:url(#d);}.a`{fill:#063992;}.aa{fill:#3868ad;}.p{fill:url(#f);opacity:.25;}.q{fill:url(#i);}.r{fill:url(#g);}.ab{fill:#f2f8fc;}.ac{fill:#e9edf2;}.ad{fill:url(#h);}.ae{fill:url(#e);}.af{fill:#ffb27d;}.s{fill:#26264f;opacity:.3;}.ag{fill:#ffaa45;}.ah{fill:#233862;}</style><linearGradient id="c" x1="1564.33" y1="3472.27" x2="1840.85" y2="2193.95" gradientTransform="translate(1450.81 -702.83) rotate(26.74)" gradientUnits="userSpaceOnUse"><stop offset="0" stop-color="#ffc444"/><stop offset=".13" stop-color="#fdb946"/><stop offset=".17" stop-color="#fdb647"/><stop offset="1" stop-color="#f36f56"/></linearGradient><linearGradient id="d" x1="1263.21" y1="2335.32" x2="1317.83" y2="4363.82" gradientTransform="matrix(1, 0, 0, 1, 0, 0)" xlink:href="#c"/><linearGradient id="e" x1="1726.58" y1="2759.46" x2="2118.49" y2="2759.46" gradientTransform="translate(1249.56)" gradientUnits="userSpaceOnUse"><stop offset="0" stop-color="#311944"/><stop offset="1" stop-color="#893976"/></linearGradient><linearGradient id="f" x1="1825.28" y1="2401.13" x2="2107.63" y2="2875.37" xlink:href="#e"/><linearGradient id="g" x1="1897.87" y1="1879.99" x2="1955.74" y2="1971.98" gradientTransform="translate(1249.56)" gradientUnits="userSpaceOnUse"><stop offset="0" stop-color="#aa80f9"/><stop offset="1" stop-color="#6165d7"/></linearGradient><linearGradient id="h" x1="1293.53" y1="1454.69" x2="1231.97" y2="1554.26" gradientTransform="translate(1594.14 743.83) rotate(-13.66)" gradientUnits="userSpaceOnUse"><stop offset="0" stop-color="#ffc444"/><stop offset="1" stop-color="#f36f56"/></linearGradient><linearGradient id="i" x1="2971.8" y1="1979.18" x2="3274.65" y2="2601.93" gradientTransform="matrix(1, 0, 0, 1, 0, 0)" xlink:href="#g"/></defs><g class="x"><g id="a"><g id="b"><path class="ab" d="M3834.63,2877.81c133.86-177.46,118.22-249.96,335.13-402.65,211.15-148.63,311.87-155.63,512.36-286.67,297.42-194.39,131.88-831.43-403.58-1155.69-161.03-97.52-286.66-125.05-361.46-253.08-160.61-274.93,204.43-514.64,105.46-647.38C3799.71-166.56,1158.58-11.5,279.46,1142.9c-410.58,539.15-373.82,1213.57,143.99,1644.77,935.69,779.18,3110.83,488.33,3411.18,90.14Z"/><g><g><path class="v" d="M3377.49,1452.07l-.84-10.5c-4.69-58.5-55.52-102.36-114.08-98.43-30.56,2.05-59.16,15.79-79.88,38.36l-318.91,347.59c-43.83,47.77-99.16,83.51-160.72,103.82l-29.24,9.65c-41.37,13.65-84.78,20.07-128.32,18.98l-468.1-11.67,386.89-156.87c47.96-19.45,71.18-74.01,51.93-122.05l-5.21-13.02c-16.17-40.36-58.01-64.31-101.02-57.94-152.94,22.67-503.73,75.69-654.36,106.98-144.87,30.1-347.59,302.21-442.8,441-34.82,50.76-53.59,110.13-54.05,171.68-.53,70.02,34.55,135.52,93.12,173.89l33.19,21.74c61.86,40.52,135.49,59.18,209.18,53l934.79-78.35c119.75-10.04,229.59-70.5,302.13-166.3l522.5-690.06c17.66-23.33,26.13-52.33,23.79-81.5Z"/><path class="y" d="M1681.25,2506.17l-421.78-494.03c-17.79-20.84-49.1-23.31-69.93-5.52l-379.29,323.82c-20.84,17.79-23.3,49.1-5.52,69.93l421.78,494.03c17.79,20.84,49.1,23.31,69.93,5.52l379.29-323.82c20.84-17.79,23.31-49.1,5.52-69.93Z"/></g><g><path class="ag" d="M3400.15,1424.88l-.84-10.5c-4.69-58.5-55.52-102.36-114.08-98.43-30.56,2.05-59.16,15.79-79.88,38.36l-318.91,347.59c-43.83,47.77-99.16,83.51-160.72,103.82l-29.24,9.65c-41.37,13.65-84.78,20.07-128.32,18.98l-468.1-11.67,386.89-156.87c47.96-19.45,71.18-74.01,51.93-122.05l-5.21-13.02c-16.17-40.36-58.01-64.31-101.02-57.94-152.94,22.67-503.73,75.69-654.36,106.98-144.87,30.1-347.59,302.21-442.8,441-34.82,50.76-53.59,110.13-54.05,171.68-.53,70.02,34.55,135.52,93.12,173.89l33.19,21.74c61.86,40.52,135.49,59.18,209.18,53l934.79-78.35c119.75-10.04,229.59-70.5,302.13-166.3l522.5-690.06c17.66-23.33,26.13-52.33,23.79-81.5Z"/><path class="ag" d="M1698.41,2548.93l-379.31,323.79c-20.81,17.82-52.13,15.32-69.94-5.48l-421.74-494.04c-17.82-20.85-15.32-52.17,5.48-69.94l23.12-19.72,356.2-304.11c20.81-17.77,52.13-15.32,69.94,5.53l43.56,51.04,342.19,400.27,21.8,25h.04l14.14,17.16c17.82,20.81,15.32,52.7-5.48,70.51Z"/></g><path class="o" d="M1698.41,2548.93l-379.31,323.79c-20.81,17.82-52.13,15.32-69.94-5.48l-421.74-494.04c-17.82-20.85-15.32-52.17,5.48-69.94l23.12-19.72c16,50.45,55.17,96.96,154.07,80.28,201.71-34,212.91,85.19,301.44,133.15,107.29,58.16,264-23.03,378.18-35.7h.04l14.14,17.16c17.82,20.81,15.32,52.7-5.48,70.51Z"/></g><g><path class="af" d="M2839.87,1727.3c3.87-6,10.94-18.78,11.39-35.94,.88-33.34-23.85-59.34-27.17-57.85-1.79,.8,.48,10.57,1.75,14.9,2.65,9.01,5.5,9.88,5.26,14.02-.49,8.52-12.79,8.85-19.28,20.16-4.67,8.14-5.05,19.74,0,28.92,8.37,15.23,27.25,15.77,28.05,15.78Z"/><polygon class="af" points="3368.06 2451.41 3358.55 2418.7 3398.23 2389.3 3422.96 2380.05 3408.32 2425.81 3368.06 2451.41"/><path class="af" d="M3318.94,3110.08s21.7,54.6,15.99,78.81c23.3-.46,38.38-3.43,38.38-3.43,0,0-9.37-24.9-11.19-37.24-2.47-16.67-2.28-43.63-2.28-43.63l-40.89,5.48Z"/><path class="a`" d="M3079.71,3237.78c1.4,1.69,3.89,5.23,4.1,10.03,.11,2.61-.48,4.75-1.23,6.72-3.7,9.74-9.51,11.02-15.78,21.35-3.83,6.31-3.11,8.22-6.62,11.07-4.63,3.76-10.22,3.97-15.08,4.03-8.2,.09-20-.2-34.87-1.97,7.79-10.04,16.07-20.24,24.88-30.53,3.86-4.51,7.72-8.92,11.57-13.23l22.9-7.74c3.38,.09,6.75,.18,10.13,.27Z"/><path class="af" d="M3060.67,3126.59s-13.09,68.3,3.57,87.42c14.19,19.12-6.85,5.48-6.85,5.48l-25.13,21.93-15.08,26.04s13.88-66.85,10.18-93.38c-3.7-26.53-5.55-44.42-5.55-44.42l38.87-3.09Z"/><path class="ae" d="M3011.31,2379.5s-35.17,31.46-35.17,161.02,16.66,410.87,16.66,410.87l26.65,201.41s27.64,.98,46.14-4.57c16.66-75.88,43.8-204.24,30.84-311.59-5.55-116.6,46.27-262.81,46.27-262.81,0,0,44.42,148.06,75.88,222.09,31.46,74.03,91.36,305.95,96.92,322.61,36.82,3.34,52.54-6.4,52.54-6.4,0,0-23.61-249.58-45.81-343.97-22.21-94.39-20.36-322.03-57.37-386.81-83.28-33.31-253.55-1.85-253.55-1.85Z"/><path class="ag" d="M3011.31,2379.5s-35.17,31.46-35.17,161.02,16.66,410.87,16.66,410.87l26.65,201.41s27.64,.98,46.14-4.57c16.66-75.88,43.8-204.24,30.84-311.59-5.55-116.6,46.27-262.81,46.27-262.81,0,0,44.42,148.06,75.88,222.09,31.46,74.03,91.37,305.95,96.92,322.61,36.82,3.34,52.54-6.4,52.54-6.4,0,0-23.61-249.58-45.81-343.97-22.21-94.39-20.36-322.03-57.37-386.81-83.28-33.31-253.55-1.85-253.55-1.85Z"/><path class="p" d="M3193.99,2616.88c10.96,71.27,32.89,109.65,87.72,158.99,43.86,32.89,10.97,104.17,27.41,158.99,5.48,16.45,21.93,32.89,27.41,49.34,20.4,40.8,1.35,90.71,10.6,133.92,14.4-1.99,20.93-5.99,20.93-5.99,0,0-23.61-249.58-45.81-343.97-22.21-94.39-20.36-322.03-57.37-386.81-83.28-33.31-253.55-1.85-253.55-1.85,0,0-35.17,31.46-35.17,161.02,0,10.51,.11,22.03,.31,34.31,36.51,32.31,111.17,39.49,157.22,3.67,2.78-2.09,5.74-3.37,8.8-3.99,.14-.41,.24-.69,.24-.69,0,0,.08,.26,.19,.64,20.96-3.82,46.32,23.39,51.08,42.41Z"/><g><path class="a`" d="M3329.22,3209.61s-5.41,0-4.96,6.99c.45,6.99-2.43,31.02,25.06,32.15,27.49,1.13,31.73-1.95,32.64-1.95s-7.21-22.99-7.21-22.99l-8.79-11.27-23.66-2.48-13.07-.45Z"/><path class="w" d="M3390.19,3233.73c-.59-5.8-3.83-14.94-7.1-22.29-4.85-10.92-.87-15.01-5.51-24.95-1.6-3.44-3.16-6.7-6.55-9.93-.78-.74-8.37-7.75-19.42-7.4-2.17,.07-5.52,.22-9.14,2.14-4.26,2.27-6.4,5.68-8.22,8.68-2.87,4.71-2.21,6.15-6.62,19.65-.36,1.08-1.13,3.44-1.73,6.69-.46,2.49-.64,4.57-.72,6,7.21,0,34.93,1.13,40.79,5.41,5.86,4.28,8.79,11.49,8.79,18.71s3.61,10.59,7.21,10.37c3.22-.2,9.62-6.17,8.23-13.06Z"/></g><path class="w" d="M3057.15,3204.42c6.19,.1,10.74,5.03,14.16,16.9,3.43,11.88,19.87,22.39,.69,19.87-19.19-2.51-33.13,24.67-39.98,34.72-6.85,10.05-25.25,18.98-24.79,9.16,.46-9.82,8.57-14.41,10.86-24.46,2.28-10.05,24.94-56.42,39.06-56.2Z"/><path class="t" d="M3382.62,2395.14c4.55-12.66,32.97-95.82-12.96-171.66-37.6-62.09-102.67-82.34-111.95-85.08-56.48-16.68-84.78,4.75-102.6-14.97-30.24-33.46,4.01-147.45,70.27-170.28,74.68-25.74,164.27,73.22,200.58,138.22,47.63,85.28,35.91,170.03,33.15,187.48-7.16,45.36-23.81,79.96-36.15,101.2-13.45,5.03-26.9,10.06-40.34,15.09Z"/><path class="t" d="M3187.59,1937.05c-66.66-2.67-118.07-1.61-147.11,27.41-30.67,30.65,.32,65.26-6.34,145.44-10.2,122.76-88.42,152.75-94.31,277.29-1.98,41.96,5.12,76.26,10.63,96.92,17.17,21.38,45.27,51.55,86.74,76.78,60.35,36.71,95.34,30.31,182,54.03,141.76,38.8,154.37,85,224.66,73.23,71.04-11.9,133.37-71.68,125.84-104.51-4.51-19.66-33.15-14.09-66.12-44.08-42.5-38.65-26.11-75.54-58.42-117.07-46.41-59.65-111.06-23.19-150.61-74.89-40-52.3-24.14-155.36,9.58-211.53,22.02-36.69,31.46-79.69,50.2-118.16,1.56-3.2,3.36-8.44,2.57-14.99-3.04-25.06-44.81-38.65-76.44-48.62-48.25-15.21-87.4-17.04-92.89-17.26Z"/><path class="r" d="M3131.44,1934.3l13.15-4.05s3.44,17.8,45.71,20.02c23.46,0,38.63-13.15,38.63-13.15l8.98,6.55s-19.71,24.62-51.06,23.99c-40.45-.81-55.42-33.37-55.42-33.37Z"/><g><path class="af" d="M3158.21,1880.15c2.53-19.55,17.99-32.08,21.36-34.76,14.12-11.22,16.99-12.35,21.84-13.27l6.62-1s.36,0,.72,.03c3.88,.23,15.5,4.77,17.61,6.26,6.75,4.75,1.78,38.36-18.68,80.16-.8,3.54-1.61,7.08-2.41,10.62,17.83,3.13,22.25,6.35,22.39,8.92,.3,5.56-19.22,12.66-37.32,13.12-22.69,.58-46.79-9.18-46.33-16.47,.19-2.95,4.47-6.59,20.94-10.16,2.58-3.62,5.15-7.24,7.72-10.86-2.34-2.83-16.35-18.18-14.48-32.58Z"/><path class="ad" d="M3186.26,1872.79c5.15-3.08,9.07,3.54,6.64,9.33-2.42,5.79-10.57,9.41-15.51,5.96-4.94-3.45,1.94-11.14,8.87-15.29Z"/><path class="w" d="M3853.38,1872.69c-67.75-73.52-225.39-53.36-312.82,5.69-40.63,27.44-61.48,59.84-109.49,62.56-36.49,2.07-94.55-11.65-125.13-51.19-3.85-4.98-19.26-25.87-42.39-52.21-10.2-11.61-20.34-22.51-36.07-24.98-3.99-.63-17.28-2.79-26.07,5.79-7.12,6.95-8.86,19.04-6.76,27.76,1.26,5.21,2.89,5.76,2.66,9.17-.65,9.58-18.11,13.76-17.14,18.59,.69,3.45,9.78,2.19,11.34,6.52,1.71,4.74-8.26,8.83-12.55,20.76-8.03,5.38-13.11,18.76-14.86,36.66-2.58,26.32,.06,47.7,5.05,63.81,24.01,77.55,41.19,133.01,82.75,163.99,55.03,41.01,104.58,3.15,244.57-2.84,191.68-8.2,239.47,56.77,308.37,12.32,86.02-55.5,118.87-226.07,48.53-302.39Z"/></g><path class="t" d="M2847.97,1722.63c-1.71,16.04-7.49,86.99,41.45,146.89,45.73,55.97,110.49,67.16,122.53,68.97,58.23,8.8,83.34-16.3,103.68,.8,34.53,29.01,16.18,146.61-46.33,178.29-70.46,35.71-172.74-50.07-217.6-109.5-58.84-77.96-58.82-163.52-58.48-181.19,.89-45.91,12.66-82.46,21.97-105.19,3.83-1.15,9.65-2.43,16.8-2.18,6.81,.24,12.3,1.77,15.97,3.1Z"/><path class="q" d="M3446,2641.23c-17.05-17.48,1.72-52.72-23.46-78.92-23.37-24.32-49.83-4.67-87.45-25.59-48.25-26.84-34.96-75.97-81.05-102.38-33.14-18.99-48.72,1.43-100.24-8.53-51.44-9.94-114.09-45.4-145.03-108.78-13.15-26.93-18-53.7-18.64-77.63-23.13,41.33-47.13,80.94-50.29,147.79-1.98,41.96,5.12,76.26,10.63,96.91,17.17,21.38,45.27,51.55,86.74,76.78,60.35,36.71,95.34,30.31,182,54.03,141.76,38.8,154.37,85,224.66,73.23,45.4-7.6,87.15-34.76,109.47-61.95-65.51,29.16-94.97,27.71-107.34,15.03Z"/></g><g><g><path class="aa" d="M2379.38,1318.27l-22.97,27.56c-13.71,10.4-33.16,8.26-44.27-4.87l-184.36-217.86-395.05-9.74c-99.53-2.45-180.64-82.08-180.64-177.86V273.39c0-58.5,30.26-108.6,76.5-137.53-31.76,29.53-50.4,71.18-50.4,118.28V916.27c0,95.78,80.08,175.42,179.62,177.87l394.02,9.7,179.87,212.55c12.33,14.6,34.42,15.29,47.68,1.88Z"/><path class="ac" d="M3107.52,349.35V981.63c0,21.83-4.23,42.58-11.93,61.48-8.43,20.68-21.02,39.15-36.74,54.43-30.09,29.22-71.7,46.72-117.76,45.59l-400.27-9.86-7.11-.17-154.33,185.17c-13.26,13.41-35.35,12.72-47.68-1.88l-179.87-212.55-394.02-9.7c-99.54-2.45-179.62-82.09-179.62-177.87V254.14c0-47.1,18.64-88.75,50.4-118.28,.96-.59,1.93-1.19,2.91-1.77,28.9-17.27,63.76-26.4,101.23-24.38l1208.36,65.08c92.13,4.96,166.43,83.1,166.43,174.56Z"/><g><path id="j" class="aa" d="M2413,268.95c-2.7-.27-5.38-.63-8.12-.8-109.49-7.5-211.03,57.93-222.44,166.14l-.06,1.7h-.04l-2.32,66.73-16.04,461.95,124.44,.69,17.36-499.86c5.5-44.92,50.44-79.63,110.05-78.17l178.51,9.65,4.04-116.22-185.39-11.86v.06Z"/><polygon id="k" class="aa" points="2421.38 665.99 2579.46 670.84 2582.82 574.08 2424.78 567.92 2421.38 665.99"/></g><path class="n" d="M3097.85,1061.59c-10.9,14.04-24.07,26.2-39,35.95-26.66,17.44-58.91,27.2-93.72,26.33l-407.37-10.02-16.94,19.42-160.03,183.48c-.46,.52-.93,1.03-1.41,1.52-13.26,13.41-35.35,12.72-47.68-1.88l-179.87-212.55-394.02-9.7c-99.54-2.45-179.62-82.09-179.62-177.87V254.14c0-47.1,18.64-88.75,50.4-118.28,.85-.79,1.7-1.57,2.57-2.34,.11,.19,.22,.38,.34,.57,57.2,96.41,152.99,192.17,310.61,192.17,39.3,0,73.54,3.9,103.82,10.97,209.06,48.78,217.04,248.5,213.1,358.92-3.54,98.36,59.18,193.82,231.57,212.86,49.22,5.49,107.39,4.67,175.53-4.03,250.67-32.14,406.44,2.37,429.46,138.13,1.01,5.96,1.76,12.12,2.26,18.48Z"/></g><path class="af" d="M2035.37,1094.88c-5.67-2.83-63.74,17.57-65.73,17.57s8.5-4.25,19.55-11.05c11.05-6.8-2.83-1.13-31.45-4.53-28.61-3.4-44.75,7.8-50.71,9.63-51.56,15.87-.85,15.02,8.78,19.83,9.63,4.82,41.08,17.85,73.66,5.1,32.58-12.75,51.56-33.71,45.9-36.55Z"/><path class="af" d="M1561.64,317.07c4.49,19.14,4.25,40.11,4.25,40.11l-11.57,21.32,10.08,12.51,14.25-22.45,2.57-88.18s-24.08,17.56-19.58,36.7Z"/><path class="y" d="M1241.69,830.87s119.47-222.28,207.36-334.47c87.89-112.18,103.84-129.66,103.84-129.66l16.83,14.9s-64.34,391.26-93.68,433.48c-29.34,42.23-234.36,15.75-234.36,15.75Z"/><path class="y" d="M1241.69,830.87c21.44-35.53,57.88-89.39,114.18-144.81,65.91-64.87,85.93-59.92,121.39-110.02,62.29-87.98,75.63-209.31,75.63-209.31h0l16.83,14.89s-64.34,391.26-93.68,433.48c-29.34,42.23-234.36,15.75-234.36,15.75Z"/><polygon class="af" points="1141.8 2020.92 1140.8 1985.79 1117.42 1980.04 1126.23 2020.92 1141.8 2020.92"/><path class="af" d="M1260.11,1973.74l-19.58,18.45s-13.31-.81-17.2-9.22l17.2-27.74,19.58,18.52Z"/><path class="a`" d="M1196.34,1255.87c-4.91,32.27-13.54,81.61-28.71,140.69-46.47,180.96-98.49,236.08-109.1,344.54-5.67,57.98-.67,143.18,53.72,251.96,10.91,.57,21.83,1.13,32.74,1.69,6.94-62.07,17.56-128.6,33.27-198.61,41.97-186.99,107.58-342.29,171.51-463.13-51.14-25.71-102.29-51.42-153.43-77.13Z"/><path class="ah" d="M1191.75,1983.05c-1.63-.72-3.48-.73-5.12-.02l-43.6,18.89c-2.62,1.13-5.03,2.71-7.12,4.65l-9.95,9.26c-2.17,2.02-2.65,5.28-1.15,7.84l5.46,9.31c3.12,5.32,10.09,6.91,15.18,3.42,20.05-13.73,63.58-45.71,46.3-53.35Z"/><path class="ah" d="M1225.4,1979.68c-9.83,6.1-12.37,11.39-12.46,15.44-.15,6.51,6.06,8.17,12.72,19.62,7.54,12.98,4.03,18.51,10.53,23.45,2.4,1.82,5.33,2.93,25.34,2.31,18.47-.57,27.72-.9,28.24-3.26,.35-1.57-1.72-5.47-27.27-15.31-6.36-11.01-12.72-22.01-19.08-33.02l-18.02-9.22Z"/><path class="s" d="M1090.11,1768.36c16.75-40.02,57.83-31.78,76.09-78.96,13.81-35.69-6.2-49.47-2.87-101.93,4.54-71.42,44.27-87.29,47.37-140.69,1.38-23.75-4.55-55.21-32.61-93.8,8.9-39.78,14.61-73.17,18.26-97.13,51.14,25.71,102.29,51.42,153.43,77.13-63.93,120.84-129.54,276.14-171.51,463.13-15.72,70.02-26.33,136.54-33.27,198.61-10.91-.57-21.83-1.13-32.74-1.69-2.55-5.09-4.88-10.08-7.21-15.07,6.62-9.32,12.11-19.72,15.22-31.61,17.96-68.64-54.46-119.9-30.15-178.01Z"/><path class="a`" d="M1457.32,1293.95c26.88,104.77,25.25,192.13,20.15,247.08-5.11,54.98-21.54,210.05-134.44,352.87-31.29,39.58-61.97,68.08-83.26,86.13-9.57-8.14-19.14-16.27-28.71-24.4,22.49-41.97,49.82-102.13,68.87-178.02,17.62-70.23,33.97-135.37,20.33-219.51-15.25-94.06-62.64-178.96-66.24-185.31-18.94-33.39-38.44-59.49-34.45-96.18,3.69-33.99,26.47-67.19,54.55-80.39,50.76-23.86,134.56,10.19,183.2,97.73Z"/><path class="af" d="M1428.73,650.71l-.85,12.36c-.73,10.58-8.54,19.32-18.97,21.22l-59.14,11.88,117.36,45.46-11.29-32.69c-2.6-7.52-3.45-15.53-2.5-23.43l2.92-24.35-27.53-10.46Z"/><g><path class="af" d="M1449.93,669.46c2.6-1.43,23.72-3.99,26.63-15.35,3.95-15.42-9.91-34.19-11.63-37.21-7.23-12.64-9.05-14.35-12.41-16.49l-4.67-2.74s-.27-.1-.55-.19c-2.98-.98-13.05-1.06-15.08-.58-6.48,1.54-12.82,28.23-9.99,65.71-.24,1.44-.47,2.88-.69,4.34-.57,3.79,28.57,3.85,28.38,2.52Z"/><path class="w" d="M1469.8,595.29c-2.43,7.07-12.08,14.38-16.39,17.64-.63,.48-2.45,2.09-4.11,4.69-.24,.38-.45,.82-.63,1.39-2.38,7.38,9.46,15.74,7.29,19.07-1.58,2.42-9.56-.59-10.46,1.49-.84,1.95,5.83,5.81,4.87,8.15-.72,1.77-4.81,.26-7.3,3-1.24,1.36-.84,2.41-2.1,6.52-.71,2.32-1.72,4.87-2.52,6.29-3.86,6.91-15.18,9.67-17.44,6.98-.63-.75-.12-1.4-.8-3.94,0,0-.63-2.35-2.34-5.05-2.44-3.86-8.19-6.53-14.01-10.53-10.79-7.4-13.82-13.85-14.74-16.04-.1-.24-.19-.47-.27-.68-.16-.37-.29-.74-.4-1.11-2.44-7.89,3.8-16.39,7.17-20.36,4.82-5.62,12.92-13.96,24.8-21.39,3.23-2.02,34.67-21.42,46.19-11.83,4.12,3.43,4.84,10.9,3.19,15.7Z"/><path class="af" d="M1451.72,635.44c-2.94-3.85-7.86-.06-7.78,5.01,.09,5.06,5.11,10.22,9.85,9.11,4.74-1.11,1.88-8.94-2.07-14.12Z"/></g><path class="ag" d="M1640.98,876.74c-9.25,8.57-16.82,15-23.8,21.35-.5,.5-1.04,1-1.59,1.45-13.24,12.24-24.75,24.84-42.38,52.54-7.62,11.92-14.64,23.93-21.03,35.9-1.72,3.08-3.31,6.12-4.9,9.2-1.63,3.13-3.22,6.21-4.71,9.29-1.04,2.09-2.08,4.17-3.04,6.25-2.45,5.03-4.8,10.11-7.03,15.09-1.04,2.22-1.99,4.49-2.95,6.71-.36,.77-.73,1.59-1.04,2.36-.73,1.68-1.45,3.35-2.13,5.03-1.13,2.67-2.22,5.35-3.31,7.98-1.63,4.08-3.22,8.16-4.76,12.19-1.09,2.76-2.13,5.53-3.08,8.25-1.04,2.76-2.04,5.53-2.95,8.25-1,2.72-1.95,5.44-2.81,8.11-2.9,8.66-5.62,17.18-8.07,25.52-2.13,7.25-4.08,14.32-5.89,21.26-1.31,4.99-2.54,9.84-3.67,14.64-1.72,7.07-3.26,13.92-4.63,20.58,0,.14-.04,.23-.04,.32-.5,2.27-.95,4.49-1.41,6.66-3.31,16.5-5.76,31.46-7.62,44.33-.36,2.54-.68,4.94-1.04,7.3-1.04,8.02-1.91,15.09-2.63,21.08-5.4,45.28-5.89,83.4-5.26,110.15-27.15,3.35-59.29,4.76-95.06,1.31-3.58-.32-7.12-.73-10.61-1.13-.91-.14-1.81-.23-2.67-.36-2.04-.23-4.08-.5-6.12-.82-2.18-.27-4.31-.59-6.44-.95-5.62-.86-11.11-1.81-16.55-2.9-2.72-.54-5.39-1.09-8.07-1.68-2.49-.54-4.99-1.09-7.43-1.68-.59-.09-1.13-.23-1.72-.41-2.18-.5-4.35-1.04-6.48-1.59-2.59-.64-5.12-1.31-7.62-1.99-2.54-.68-5.03-1.41-7.48-2.13-2.36-.68-4.71-1.41-7.07-2.13-3.49-1.09-6.94-2.18-10.29-3.36-3.17-1.04-6.3-2.13-9.38-3.26-1.58-.59-3.17-1.18-4.76-1.77-2.13-.77-4.26-1.59-6.35-2.4-3.31-1.31-6.57-2.63-9.75-3.99-2.77-1.13-5.44-2.31-8.11-3.49-2.63-1.13-5.26-2.36-7.8-3.53-2.58-1.18-5.08-2.4-7.57-3.58-21.17-10.24-38.98-20.85-53.03-30.05-25.38-54.49-67.04-166.27-41.61-300.03,22.07-116.18,95.64-253.25,177.33-286.66,0,0,.09-.04,.32-.14,11.47-4.67,23.12-7.25,34.81-7.48,24.52-.45,40.66,9.79,91.97,8.7,3.94-.09,13.83-.36,27.88-1.86,10.61,2.72,21.71,6.07,33.27,10.11,37.17,12.96,71.08,55.17,107.11,107.02,13.33,19.13,26.88,39.62,41.02,60.42Z"/><path class="y" d="M1640.98,876.74c-9.25,8.57-16.82,15-23.8,21.35-.5,.5-1.04,1-1.59,1.45-13.24,12.24-24.75,24.84-42.38,52.54-7.62,11.92-14.64,23.93-21.03,35.9-1.72,3.08-3.35,6.16-4.9,9.2-1.63,3.13-3.22,6.21-4.71,9.29-1.04,2.09-2.08,4.17-3.04,6.25-2.45,5.03-4.8,10.11-7.03,15.09-1.04,2.27-1.99,4.49-2.95,6.71-.36,.77-.73,1.59-1.04,2.36-.73,1.68-1.45,3.35-2.13,5.03-1.13,2.67-2.22,5.35-3.31,7.98-1.63,4.08-3.22,8.16-4.76,12.19-1.09,2.76-2.09,5.53-3.08,8.25-1.04,2.76-1.99,5.48-2.95,8.25-.95,2.72-1.9,5.4-2.81,8.11-2.9,8.66-5.62,17.18-8.07,25.52-2.13,7.25-4.08,14.32-5.89,21.26-1.27,4.94-2.49,9.84-3.67,14.64-1.68,7.07-3.22,13.96-4.63,20.58,0,.14-.04,.23-.04,.32-.5,2.27-.95,4.49-1.41,6.66-3.31,16.5-5.76,31.46-7.62,44.33-.36,2.54-.68,4.94-1.04,7.3-1.04,8.02-1.91,15.09-2.63,21.08-5.4,45.28-5.89,83.4-5.26,110.15-27.15,3.35-59.29,4.76-95.06,1.31-3.58-.32-7.12-.73-10.61-1.13-.91-.14-1.81-.23-2.67-.36-2.04-.23-4.08-.5-6.12-.82-2.18-.27-4.31-.59-6.44-.95-5.62-.86-11.11-1.81-16.55-2.9-2.72-.54-5.39-1.09-8.07-1.68-2.49-.54-4.99-1.09-7.43-1.68-.59-.09-1.13-.23-1.72-.41-2.18-.5-4.35-1.04-6.48-1.59-2.59-.64-5.12-1.31-7.62-1.99-2.54-.68-5.03-1.41-7.48-2.13-2.4-.68-4.76-1.41-7.07-2.13-3.49-1.09-6.94-2.18-10.29-3.36-3.17-1.04-6.3-2.13-9.38-3.26-1.58-.59-3.17-1.18-4.76-1.77-2.13-.77-4.26-1.59-6.35-2.4-3.31-1.31-6.57-2.63-9.75-3.99-2.77-1.13-5.44-2.31-8.11-3.49-2.63-1.13-5.26-2.36-7.8-3.53-2.58-1.18-5.08-2.4-7.57-3.58,39.62-20.04,59.24-43.79,69.49-64.96,19.17-39.84,4.22-67.86,32.55-112.96,31.46-50.13,66.04-41.16,111.01-86.13,30.96-30.96,38.17-58.79,43.29-86.62,5.85-31.5,9.07-63.01,40.93-99.04,27.56-31.19,54.3-40.52,80.78-50.68,13.33,19.13,26.88,39.62,41.02,60.42Z"/><path class="ag" d="M1931.76,1089.29l-19.63,61.96s-215.63,83.54-383.62-114.37c-17.36-20.49-34.22-43.97-50.27-70.85-11.92-19.94-23.39-41.75-34.32-65.59l-139.34-200.49s.09-.04,.32-.14c4.44-2,59.52-25.38,154.66-.64,10.61,2.72,21.71,6.07,33.27,10.11,37.17,12.96,71.08,55.17,107.11,107.02,13.33,19.13,26.88,39.62,41.02,60.42,71.3,104.75,156.7,217.76,290.79,212.55Z"/></g><g><path class="w" d="M1978.81,3259.91l-288.5-809.9c-3.19-8.95-13.67-13.74-23.41-10.71-9.74,3.03-15.06,12.74-11.87,21.69l288.5,809.9c3.19,8.95,13.67,13.74,23.41,10.71,9.74-3.03,15.06-12.74,11.87-21.69Z"/><path class="w" d="M1743.08,2647.66c-.12,11.13-8.96,20.61-19.77,21.22l-334.21,18.71c-11.21,.63-20.8-8-21.41-19.31h0c-.62-11.36,8.04-21.09,19.33-21.69l336.58-18.13c10.89-.59,19.61,8.03,19.49,19.2h0Z"/><path class="w" d="M1830.1,2861.9c-.23,10.29-9.34,19.16-20.36,19.86l-340.4,21.53c-11.41,.72-21.05-7.12-21.53-17.56h0c-.48-10.48,8.45-19.57,19.93-20.27l342.71-21.05c11.09-.68,19.89,7.16,19.65,17.49h0Z"/><path class="w" d="M1887.61,3059.4c-.32,9.54-9.14,17.87-19.7,18.64l-325.99,23.86c-10.92,.8-20.04-6.36-20.37-16.02h0c-.33-9.7,8.32-18.22,19.31-19.01l328.1-23.46c10.63-.76,18.97,6.41,18.64,15.98h0Z"/><path class="w" d="M1325.61,2481.59c-3.24-9.11-13.77-14.03-23.51-11-9.74,3.03-15.01,12.87-11.77,21.98l293.66,824.37c3.24,9.11,13.77,14.03,23.51,11,9.74-3.03,15.01-12.87,11.77-21.98l-293.66-824.37Z"/></g><g><g><path class="l" d="M2365.64,3228.6c-40.72-3.23-92.81-14.55-142.81-47.23-54.1-35.37-124.56-108.05-106.17-153.85,6.87-17.1,26.63-31.74,44.01-30.34,25.67,2.06,28.66,37.72,73.24,76.51,8.24,7.17,50.83,44.23,72.01,31.74,10.53-6.21,13.64-23.41,11.92-36.49-5.02-38.24-51.71-44.12-96.6-85.52-45.51-41.97-83.45-115.2-61.76-164.7,12.46-28.45,45.42-50.91,67.09-44.6,9.26,2.7,15.13,10.27,43.25,71.01,23.08,49.85,28.21,64.39,43.09,69.11,15.31,4.87,39.12-1.24,48.17-16.33,23.57-39.29-78.29-97.31-87.54-207.27-4.15-49.28,9.19-122.32,53.81-137.97,30.17-10.58,73.15,5.58,88.68,33.26,14.01,24.95-3.01,43.72,7.68,99.77,3.24,17.01,9.91,52.01,24,53.84,16.53,2.16,35.03-42.47,39.3-53.34,32.18-81.82-4.72-123.9,25.63-163.62,23.66-30.97,75.15-43.41,115.94-27.77,35.69,13.69,64.25,49.29,66.16,86.18,1.94,37.54-29.63,74.91-92.77,149.64-29.94,35.44-53.77,59.39-52.41,94.61,.66,17.17,7.47,41.33,19.77,43.53,27.15,4.87,40.51-104.45,104.85-121.33,32.93-8.64,73.86,8.34,91.84,38.03,22.03,36.37,7.27,87.92-20.41,115.03-36.12,35.37-73.15,8.49-141.11,46.48-30.15,16.85-77.52,52.7-70.59,82.35,3.02,12.91,16.55,25.55,31.4,27.23,33.28,3.78,44.28-50.77,97.78-74.74,38.55-17.27,91.86-15.41,104.52,6.33,17.88,30.69-45.61,100.38-79.37,131.17-40.81,37.22-137.05,107.81-322.59,109.27Z"/><g class="u"><path class="m" d="M2382.52,3211.2c-5.39-91.45,55.12-277.62,99.15-365.61,42.96-85.85,84.08-221.73,84.49-223.09l5.36,1.61c-.41,1.37-41.67,137.7-84.85,223.98-43.76,87.44-103.92,272.23-98.58,362.78l-5.58,.33Z"/></g></g><path class="t" d="M2269.66,3240.5c-30.66-42.57-75.64-119.37-83.7-222.13-3.32-42.34-9.81-125.04,40.78-196.38,25.22-35.56,78.69-88.14,114.82-72.97,23.25,9.76,37.68,46.89,31.12,75.12-6.62,28.47-30.67,31.1-56.87,79.41-9.7,17.88-20.77,38.86-12.26,50.71,7.11,9.9,26.63,11.7,41.27,5.76,30.24-12.26,20.79-49.91,53.48-76.91,23.24-19.2,61.99-28.22,78.71-12.5,14.52,13.65,11.99,45.55-.84,66.81-20.54,34.05-57.38,24.06-81.39,61.28-10.65,16.51-18.23,41.46-8.9,51.32,10.62,11.24,41.89,1.52,61.93-10.9,26.46-16.4,27.43-33.85,44.86-36.04,19.43-2.44,43.73,16.07,47.53,36.54,5.32,28.68-29.86,59.61-57.72,73.05-35.67,17.2-62.17,7.11-79.59,30.61-6.39,8.63-12.25,22.71-7.01,31.25,7.48,12.19,34.52,8.17,52.47,5.49,43.69-6.5,55.72-22.35,71.37-14.65,15.85,7.79,24.02,34.12,17.17,52.58-3.81,10.26-15.25,26.16-71.95,36.11-39.69,6.97-106.37,11.87-195.25-13.58Z"/></g></g></g></g></svg>