<svg id="Logo" xmlns="http://www.w3.org/2000/svg" width="45.132" height="43.626" viewBox="0 0 45.132 43.626">
  <path id="path10349" d="M3541.608,608.86a3.341,3.341,0,0,0-1.652-1.909l-15.741-7.535a2.887,2.887,0,0,0-1.29-.258,5.45,5.45,0,0,0-1.29.1l-15.741,7.587a2.773,2.773,0,0,0-1.548,1.91l-3.871,16.979a3.255,3.255,0,0,0,.568,2.477l10.89,13.47a3.757,3.757,0,0,0,2.374,1.084h17.341a2.571,2.571,0,0,0,2.374-1.084l10.89-13.47a3.525,3.525,0,0,0,.619-2.477l-3.922-16.876Z" transform="translate(-3500.425 -599.157)" fill="#a8a8a8"/>
  <path id="path10351" d="M3554.919,641.128h0c-.052,0-.1,0-.1-.052s-.1-.052-.207-.052a2.51,2.51,0,0,0-.619-.052.654.654,0,0,1-.309-.052h-.052a10.417,10.417,0,0,1-1.754-.31.623.623,0,0,1-.362-.361h0l-.413-.1a13.465,13.465,0,0,0-.206-4.542,13.989,13.989,0,0,0-1.806-4.232l.309-.31h0v-.052a.72.72,0,0,1,.155-.464,9.238,9.238,0,0,1,1.445-1.032h0l.309-.155c.207-.1.361-.206.568-.31.051-.052.1-.052.155-.1s0-.052,0-.1h0a1.01,1.01,0,0,0,.207-1.445.986.986,0,0,0-.723-.361,1.233,1.233,0,0,0-.722.258h0l-.052.052c-.052.052-.1.1-.155.1a3.348,3.348,0,0,0-.413.464c-.052.1-.155.155-.207.206h0a6.781,6.781,0,0,1-1.29,1.135.732.732,0,0,1-.31.1.311.311,0,0,1-.207-.052h-.051l-.413.258c-.413-.413-.878-.826-1.291-1.239a13.224,13.224,0,0,0-6.709-2.684l-.052-.413h0v.052a.708.708,0,0,1-.258-.413,10.329,10.329,0,0,1,.1-1.755v-.052c0-.1.052-.206.052-.31.052-.206.052-.413.1-.619v-.31h0a1.021,1.021,0,0,0-.877-1.084,1.035,1.035,0,0,0-.877.361,1.019,1.019,0,0,0-.31.723h0v.258a2.594,2.594,0,0,0,.1.619.656.656,0,0,1,.052.31v.052a9.744,9.744,0,0,1,.1,1.755.707.707,0,0,1-.258.413v.1h0l-.052.413c-.568.052-1.135.155-1.755.258a12.3,12.3,0,0,0-6.348,3.613l-.31-.206h-.052c-.052,0-.1.052-.207.052a.734.734,0,0,1-.31-.1,9.534,9.534,0,0,1-1.29-1.187h0c-.052-.1-.155-.155-.206-.206-.155-.155-.258-.31-.413-.464-.052-.052-.1-.052-.155-.1l-.052-.052h0a1.234,1.234,0,0,0-.723-.258.781.781,0,0,0-.722.361,1.11,1.11,0,0,0,.206,1.445h0a.051.051,0,0,1,.052.052s.1.1.155.1a5.618,5.618,0,0,0,.567.31l.31.155h0a7.326,7.326,0,0,1,1.445,1.032.519.519,0,0,1,.155.464v-.052h0l.31.31c-.052.1-.1.155-.155.258a12.256,12.256,0,0,0-1.806,8.464l-.413.1h0a.05.05,0,0,1-.052.052.815.815,0,0,1-.361.361,9.589,9.589,0,0,1-1.755.31h0a.653.653,0,0,0-.31.052c-.207,0-.413.052-.619.052-.052,0-.1.052-.207.052-.052,0-.052,0-.1.052h0a1.007,1.007,0,0,0-.826,1.187h0a.959.959,0,0,0,1.033.723.464.464,0,0,0,.258-.052h0c.052,0,.052,0,.052-.052s.155,0,.207,0c.207-.052.413-.155.568-.206a.732.732,0,0,1,.31-.1h.052a9.213,9.213,0,0,1,1.7-.464h.052a.586.586,0,0,1,.413.155.051.051,0,0,1,.052.052h0l.465-.052a12.456,12.456,0,0,0,4.232,6.038,8.173,8.173,0,0,0,1.393.929l-.258.361h0a.05.05,0,0,0,.052.052.61.61,0,0,1,.052.516,8.463,8.463,0,0,1-.826,1.5v.052a.9.9,0,0,1-.207.258c-.1.1-.206.31-.361.516-.052.052-.052.1-.1.155a.051.051,0,0,1-.052.052h0a1.062,1.062,0,0,0,.413,1.393.957.957,0,0,0,.361.1,1.157,1.157,0,0,0,.981-.619h0a.051.051,0,0,1,.052-.052c0-.052.052-.1.1-.155.052-.206.155-.361.206-.568l.1-.31h0a8.749,8.749,0,0,1,.671-1.6.8.8,0,0,1,.413-.31c.052,0,.052,0,.052-.052h0l.207-.413a12.148,12.148,0,0,0,4.49.826,10.333,10.333,0,0,0,2.787-.361,15.421,15.421,0,0,0,1.652-.464l.207.361h0c.052,0,.052,0,.052.052a.8.8,0,0,1,.413.31,8.731,8.731,0,0,1,.671,1.6v.052l.1.31a1.845,1.845,0,0,0,.206.568c.052.052.052.1.1.155a.051.051,0,0,0,.052.052h0a1.156,1.156,0,0,0,.98.619,1.213,1.213,0,0,0,.413-.1.862.862,0,0,0,.465-.568,1.326,1.326,0,0,0-.052-.774h0a.05.05,0,0,0-.052-.052c0-.052-.052-.1-.1-.155a1.856,1.856,0,0,0-.361-.516.9.9,0,0,0-.207-.258v-.1a6.09,6.09,0,0,1-.826-1.5.61.61,0,0,1,.052-.516.05.05,0,0,1,.052-.052h0l-.155-.413a12.756,12.756,0,0,0,5.574-7.019l.413.052h0a.051.051,0,0,0,.052-.052.585.585,0,0,1,.413-.155h.052a8.671,8.671,0,0,1,1.652.465h.052a.735.735,0,0,0,.31.1,2.758,2.758,0,0,0,.568.258c.052,0,.1.052.207.052.051,0,.051,0,.1.052h0a.464.464,0,0,0,.258.052,1.122,1.122,0,0,0,1.032-.723,1.217,1.217,0,0,0-.929-1.084Zm-14.916-1.6-1.393.671-1.394-.671-.361-1.5.98-1.239h1.549l.98,1.239Zm8.412-3.355a9.865,9.865,0,0,1,.207,3.251l-4.9-1.393h0A.844.844,0,0,1,3543.1,637a.832.832,0,0,1,.206-.361l3.871-3.51A10.5,10.5,0,0,1,3548.416,636.174Zm-2.787-4.955-4.232,2.993a.877.877,0,0,1-1.135-.206.468.468,0,0,1-.155-.361l-.31-5.213a9.713,9.713,0,0,1,5.832,2.787Zm-9.341-2.632,1.032-.206-.258,5.161h0a.86.86,0,0,1-.877.826,1.215,1.215,0,0,1-.413-.1l-4.283-3.045A10.248,10.248,0,0,1,3536.288,628.587Zm-6.3,4.542,3.819,3.406h0a.83.83,0,0,1,.1,1.187.582.582,0,0,1-.413.258l-5.006,1.445A10.866,10.866,0,0,1,3529.991,633.129Zm-.877,8.722,5.109-.877a.846.846,0,0,1,.878.671.613.613,0,0,1-.052.516h0l-1.961,4.748A10.151,10.151,0,0,1,3529.114,641.851Zm11.716,6.4a10.443,10.443,0,0,1-2.219.258,11.566,11.566,0,0,1-3.251-.516l2.529-4.593a.8.8,0,0,1,1.032-.206,2.589,2.589,0,0,1,.413.361h0l2.477,4.49A8.373,8.373,0,0,0,3540.829,648.25Zm6.3-4.49a9.859,9.859,0,0,1-3.1,3.1l-2.013-4.851a.839.839,0,0,1,.465-.981,1.507,1.507,0,0,1,.465-.1l5.161.877A7.753,7.753,0,0,1,3547.126,643.76Z" transform="translate(-3516.161 -615.22)" fill="#fff"/>
</svg>
