<svg xmlns="http://www.w3.org/2000/svg" xmlns:xlink="http://www.w3.org/1999/xlink" width="42.839" height="44.094" viewBox="0 0 42.839 44.094">
  <defs>
    <clipPath id="clip-path">
      <rect id="Rectangle_4765" data-name="Rectangle 4765" width="42.839" height="44.094" transform="translate(0 0)" fill="none"/>
    </clipPath>
  </defs>
  <g id="Logo" clip-path="url(#clip-path)">
    <path id="Path_10946" data-name="Path 10946" d="M8.778.039c-.068.025-2,1.129-4.3,2.449Q.309,4.89.2,5.01a.814.814,0,0,0-.151.263c-.058.194-.061,28.587,0,28.792a.731.731,0,0,0,.151.259c.151.158,16.75,9.711,16.951,9.758a.619.619,0,0,0,.3-.011c.227-.058,16.782-9.589,16.93-9.743a.778.778,0,0,0,.151-.263c.029-.094.04-1.579.04-4.7V24.792l4.035-2.32c3.805-2.19,4.039-2.327,4.136-2.478l.1-.162v-4.92c0-5.355.011-5.053-.2-5.248-.058-.05-2-1.183-4.312-2.518L34.116,4.722h-.468L29.531,7.089c-2.266,1.306-4.194,2.421-4.287,2.482a.9.9,0,0,0-.252.259l-.083.144-.018,4.636-.018,4.636-3.4,1.96c-1.87,1.075-3.428,1.967-3.46,1.975-.061.018-.065-.424-.065-8.945V5.269l-.09-.155c-.111-.187.392.111-4.661-2.795C8.961-.119,9.062-.068,8.778.039m3.9,3.55C14.446,4.607,15.9,5.449,15.9,5.46s-1.554.91-3.453,2L8.986,9.448,5.537,7.463c-1.9-1.093-3.449-1.993-3.449-2s1.55-.91,3.446-2L8.975,1.478l.237.129c.133.072,1.69.964,3.46,1.982M37.339,8.157c1.867,1.075,3.41,1.964,3.424,1.978.04.036-6.8,3.974-6.9,3.971s-6.855-3.906-6.852-3.953,6.8-3.971,6.873-3.96c.032.007,1.586.892,3.453,1.964M5,8.725l3.291,1.9.018,9.387L8.328,29.4l.079.126a.888.888,0,0,0,.18.2c.054.04,1.885,1.083,4.068,2.316l3.964,2.241v3.971c0,2.18-.014,3.967-.032,3.967s-3.442-1.964-7.614-4.366L1.386,33.485,1.376,20.062,1.368,6.643l.169.094c.1.05,1.654.946,3.464,1.989m11.617,6.607v8.65l-.133.086c-.18.115-6.769,3.906-6.791,3.906s-.018-3.906-.018-8.679l0-8.675,3.442-1.982c1.892-1.09,3.453-1.975,3.471-1.967s.025,3.906.025,8.661M29.75,13.344,33.2,15.329v3.935c0,3.733,0,3.935-.061,3.913-.036-.014-1.6-.91-3.471-1.989l-3.41-1.96V15.293c0-2.165.011-3.935.022-3.935s1.575.892,3.471,1.985m11.758,1.924c0,2.154-.014,3.931-.029,3.949-.025.04-6.848,3.974-6.891,3.974-.011,0-.022-1.77-.022-3.935V15.322l3.442-1.982c1.9-1.09,3.456-1.982,3.471-1.982s.029,1.759.029,3.91m-12.43,7.157a25.034,25.034,0,0,1,3.352,2.011c-.032.022-1.133.655-2.442,1.4s-4.7,2.683-7.539,4.3l-5.158,2.946L17.126,33c-.985-.54-6.7-3.795-6.7-3.82,0-.054,15.124-8.754,15.185-8.733.029.011,1.59.9,3.467,1.982m4.115,7.118-.011,3.942L25.6,37.852c-4.172,2.4-7.6,4.366-7.618,4.366s-.032-1.6-.032-3.967V34.28l7.6-4.338c4.176-2.385,7.607-4.338,7.625-4.341s.022,1.773.018,3.942" transform="translate(0 -0.001)" fill="#555"/>
  </g>
</svg>
