<?xml version="1.0" encoding="UTF-8"?><svg id="a" xmlns="http://www.w3.org/2000/svg" viewBox="0 0 179 70"><defs><style>.p{fill:#2c4dca;}</style></defs><g id="b"><g id="c"><g id="d"><path d="M13.1,20.13c-.11,0-.22-.02-.33-.02-4.35-.02-8.22,2.9-8.52,7.32v.19h0v2.6h0v18.78h4.86V28.53c.13-1.93,1.95-3.51,4.46-3.51h7.1v-4.89h-7.57Z"/></g><g id="e"><rect x="13.98" y="32.47" width="6.45" height="4.07"/></g><g id="f"><rect x="26.97" y="29.29" width="4.8" height="19.7"/></g><g id="g"><rect x="26.87" y="20.09" width="4.82" height="4.9"/></g><g id="h"><path d="M40.42,31.75c-1.36,1.75-2.11,3.91-2.15,6.15v11.09h4.6l.07-11.09c.01-.97,.29-1.93,.79-2.76,.5-.83,1.22-1.51,2.07-1.96v-4.99c-2.13,.55-4.02,1.8-5.38,3.55h0Z"/></g><g id="i"><path d="M56.01,31.79c-1.34-1.75-3.21-3-5.31-3.57v4.99c.84,.45,1.55,1.13,2.04,1.95,.5,.83,.76,1.77,.78,2.74,0,11.08,.04,11.08,.04,11.08h4.67l-.09-11.08c-.03-2.22-.78-4.36-2.12-6.11h-.01Z"/></g><g id="j"><path d="M84.49,39.96v-1.64h-.01c-.25-5.51-4.72-9.77-10.22-9.92-1.75-.04-3.46,.51-4.89,1.51v-9.88h-4.67v28.94h4.67v-10.4c-.15-3.33,1.89-5.3,4.9-5.14,1.34,.09,2.61,.61,3.64,1.48,.96,.93,1.55,2.19,1.66,3.53v1.52h4.92Z"/></g><g id="k"><rect x="79.7" y="44.68" width="4.8" height="4.16"/></g><g id="l"><path d="M95.82,41.82c-.5-.82-.77-1.77-.79-2.74-.04-11.08-.08-11.08-.08-11.08l-4.67,.02,.14,11.08c.04,2.22,.79,4.36,2.14,6.1s3.22,2.99,5.33,3.55l-.02-4.99c-.84-.45-1.55-1.12-2.05-1.94Z"/></g><g id="m"><path d="M105.63,27.95l-.03,11.08c0,.97-.28,1.93-.78,2.76-.5,.83-1.21,1.51-2.06,1.96v5c2.14-.56,4.03-1.81,5.38-3.57s2.1-3.92,2.13-6.15l-.04-11.1-4.6,.02h0Z"/></g><g id="n"><path d="M128.43,28.28c-.86,0-1.72,.07-2.57,.23v4.07c.7-.18,1.41-.27,2.13-.28,2.2,0,3.93,.64,5.19,1.92,1.12,1.16,1.67,2.67,1.67,4.54,.02,.84-.14,1.68-.47,2.46-.32,.78-.81,1.47-1.42,2.04-1.31,1.28-3.04,1.92-5.19,1.92-2.01,0-3.68-.68-5.02-2.03-1.25-1.26-1.88-2.67-1.88-4.24V20.11h-4.8v19.11c0,2.73,1.14,5.08,3.42,7.05s5.03,2.95,8.26,2.95c3.39,0,6.22-1.04,8.49-3.12s3.4-4.66,3.4-7.73c0-2.68-1.01-4.99-3.04-6.93-2.14-2.09-4.87-3.14-8.17-3.14v-.02Z"/></g></g><g id="o"><rect class="p" x="159.79" y="9.37" width="4.44" height="50.37"/></g></g></svg>