<svg xmlns="http://www.w3.org/2000/svg" width="52.361" height="46.694" viewBox="0 0 52.361 46.694">
  <g id="Logo" transform="translate(0 0)">
    <ellipse id="Ellipse_1" data-name="Ellipse 1" cx="4.667" cy="4.667" rx="4.667" ry="4.667" transform="translate(21.514 18.68)" fill="gray"/>
    <path id="Path_10774" data-name="Path 10774" d="M4043.3,1036.872c0-3.667-4.31-6.843-11-8.762,1.684-6.757,1.089-12.078-2.087-13.911-2.65-1.529-6.487-.439-10.809,3.074-.759.617-1.521,1.317-2.281,2.055-.759-.738-1.521-1.438-2.282-2.055-4.32-3.513-8.161-4.6-10.809-3.074s-3.624,5.4-2.742,10.9c.156.971.382,1.985.643,3.016-6.687,1.92-10.991,5.094-10.991,8.759s4.3,6.838,10.991,8.758c-.261,1.032-.487,2.046-.643,3.018-.882,5.5.093,9.368,2.742,10.9a5.178,5.178,0,0,0,2.639.676c2.319,0,5.125-1.274,8.17-3.748.761-.617,1.522-1.317,2.282-2.055.76.738,1.521,1.438,2.281,2.055,3.046,2.474,5.852,3.748,8.171,3.748a5.172,5.172,0,0,0,2.638-.676c2.65-1.527,3.624-5.4,2.744-10.9-.156-.972-.383-1.986-.644-3.018C4038.992,1043.709,4043.3,1040.536,4043.3,1036.872Zm-22.463-17.832c2.614-2.126,4.957-3.246,6.7-3.246a3.017,3.017,0,0,1,1.532.377c2.06,1.189,2.495,5.5,1.024,11.373a53.436,53.436,0,0,0-6.963-1.088,54.144,54.144,0,0,0-4.425-5.5C4019.415,1020.268,4020.125,1019.615,4020.834,1019.039Zm3.579,22.044c-.808,1.4-1.656,2.746-2.53,4.03-1.526.114-3.114.181-4.766.181s-3.24-.067-4.765-.181c-.875-1.284-1.722-2.631-2.529-4.03s-1.554-2.811-2.229-4.212c.675-1.4,1.42-2.81,2.229-4.211s1.655-2.748,2.529-4.032c1.525-.114,3.112-.18,4.765-.18s3.24.066,4.766.18c.874,1.284,1.722,2.632,2.53,4.032s1.551,2.807,2.226,4.206C4025.975,1038.245,4025.239,1039.653,4024.413,1041.084Zm3.429-1.538c.639,1.518,1.187,3.009,1.641,4.461-1.457.328-3.02.607-4.693.818.543-.848,1.077-1.712,1.592-2.6S4027.382,1040.434,4027.843,1039.545Zm-10.725,11.608q-1.548-1.681-3.047-3.657c1,.046,2.013.075,3.047.075s2.047-.029,3.048-.075C4019.168,1048.812,4018.149,1050.032,4017.117,1051.153Zm-7.676-6.329c-1.671-.211-3.234-.49-4.692-.818.455-1.453,1-2.945,1.643-4.463.464.894.945,1.788,1.459,2.679S4008.9,1043.976,4009.441,1044.824Zm-3.049-10.625c-.641-1.519-1.188-3.011-1.643-4.464,1.458-.329,3.021-.607,4.693-.818-.543.849-1.078,1.713-1.592,2.6S4006.856,1033.305,4006.392,1034.2Zm10.725-11.61c1.031,1.121,2.051,2.342,3.047,3.657-1-.046-2.013-.075-3.047-.075s-2.047.029-3.046.074Q4015.564,1024.273,4017.117,1022.589Zm9.266,8.932c-.515-.891-1.048-1.754-1.592-2.6,1.67.21,3.23.489,4.687.817-.444,1.425-.983,2.916-1.635,4.467C4027.378,1033.307,4026.9,1032.413,4026.383,1031.521Zm-22.851-6.785c-.711-4.434-.116-7.557,1.632-8.566a3.023,3.023,0,0,1,1.532-.377c1.746,0,4.089,1.12,6.7,3.246.708.575,1.419,1.229,2.128,1.917a54.154,54.154,0,0,0-4.426,5.5,53.39,53.39,0,0,0-6.974,1.091C4003.887,1026.584,4003.676,1025.64,4003.532,1024.737Zm-10.319,12.135c0-2.378,3.516-4.911,9.33-6.573a54.241,54.241,0,0,0,2.546,6.572,54.281,54.281,0,0,0-2.546,6.572C3996.729,1041.781,3993.213,1039.249,3993.213,1036.872ZM4013.4,1054.7c-3.485,2.832-6.485,3.875-8.236,2.87s-2.343-4.133-1.632-8.568c.144-.9.355-1.847.6-2.808a53.484,53.484,0,0,0,6.973,1.091,54.2,54.2,0,0,0,4.426,5.5C4014.819,1053.474,4014.109,1054.127,4013.4,1054.7Zm17.3-5.7c.709,4.435.113,7.559-1.634,8.568s-4.751-.036-8.235-2.87c-.709-.576-1.419-1.229-2.129-1.918a54.167,54.167,0,0,0,4.425-5.5,53.515,53.515,0,0,0,6.974-1.091C4030.347,1047.158,4030.557,1048.1,4030.7,1049Zm.988-5.562a54.259,54.259,0,0,0-2.546-6.571,53.578,53.578,0,0,0,2.54-6.574c5.818,1.662,9.336,4.2,9.336,6.574S4037.5,1041.781,4031.691,1043.443Z" transform="translate(-3990.936 -1013.524)" fill="gray"/>
  </g>
</svg>
