<svg xmlns="http://www.w3.org/2000/svg" xmlns:xlink="http://www.w3.org/1999/xlink" width="446.369" height="445.86" viewBox="0 0 446.369 445.86">
  <defs>
    <clipPath id="clip-path">
      <rect id="Rectangle_332" data-name="Rectangle 332" width="446.369" height="445.86" fill="none"/>
    </clipPath>
    <clipPath id="clip-path-2">
      <rect id="Rectangle_326" data-name="Rectangle 326" width="446.369" height="445.861" fill="none"/>
    </clipPath>
    <clipPath id="clip-path-3">
      <rect id="Rectangle_313" data-name="Rectangle 313" width="44.574" height="7.284" fill="none"/>
    </clipPath>
    <clipPath id="clip-path-4">
      <rect id="Rectangle_314" data-name="Rectangle 314" width="35.872" height="18.756" fill="none"/>
    </clipPath>
    <clipPath id="clip-path-5">
      <rect id="Rectangle_315" data-name="Rectangle 315" width="59.935" height="59.936" fill="none"/>
    </clipPath>
    <clipPath id="clip-path-6">
      <rect id="Rectangle_316" data-name="Rectangle 316" width="42.486" height="42.487" fill="none"/>
    </clipPath>
    <clipPath id="clip-path-7">
      <rect id="Rectangle_317" data-name="Rectangle 317" width="32.627" height="17.059" fill="none"/>
    </clipPath>
    <clipPath id="clip-path-8">
      <rect id="Rectangle_318" data-name="Rectangle 318" width="54.515" height="54.514" fill="none"/>
    </clipPath>
    <clipPath id="clip-path-9">
      <rect id="Rectangle_319" data-name="Rectangle 319" width="1.666" height="6.611" fill="none"/>
    </clipPath>
    <clipPath id="clip-path-10">
      <rect id="Rectangle_320" data-name="Rectangle 320" width="48.817" height="25.505" fill="none"/>
    </clipPath>
    <clipPath id="clip-path-11">
      <rect id="Rectangle_321" data-name="Rectangle 321" width="1.173" height="4.652" fill="none"/>
    </clipPath>
    <clipPath id="clip-path-12">
      <rect id="Rectangle_322" data-name="Rectangle 322" width="34.344" height="17.943" fill="none"/>
    </clipPath>
    <clipPath id="clip-path-13">
      <rect id="Rectangle_323" data-name="Rectangle 323" width="1.172" height="4.65" fill="none"/>
    </clipPath>
    <clipPath id="clip-path-14">
      <rect id="Rectangle_324" data-name="Rectangle 324" width="34.343" height="17.943" fill="none"/>
    </clipPath>
    <clipPath id="clip-path-15">
      <path id="Path_1036" data-name="Path 1036" d="M940.678,886.911a154.23,154.23,0,0,0,20.516,43.316c4.036,5.6,6.478,7.35,7.374,7.679.313-.9.507-3.9-1.27-10.57-1.717-6.447,3.255-18.219-.552-26.255s-16.064-11.648-19.965-17.06c-4.036-5.6-6.477-7.35-7.374-7.679-.313.9-.507,3.9,1.27,10.57" transform="translate(-939.203 -876.341)" fill="none"/>
    </clipPath>
    <clipPath id="clip-path-17">
      <rect id="Rectangle_327" data-name="Rectangle 327" width="44.793" height="41.832" fill="none"/>
    </clipPath>
    <clipPath id="clip-path-18">
      <rect id="Rectangle_328" data-name="Rectangle 328" width="3.122" height="3.324" fill="none"/>
    </clipPath>
    <clipPath id="clip-path-19">
      <rect id="Rectangle_329" data-name="Rectangle 329" width="40.128" height="20.981" fill="none"/>
    </clipPath>
    <clipPath id="clip-path-20">
      <rect id="Rectangle_330" data-name="Rectangle 330" width="67.046" height="67.047" fill="none"/>
    </clipPath>
  </defs>
  <g id="Illustration_2" data-name="Illustration 2" clip-path="url(#clip-path)">
    <g id="Group_310" data-name="Group 310" transform="translate(0 -0.001)">
      <g id="Group_309" data-name="Group 309" clip-path="url(#clip-path-2)">
        <path id="Path_973" data-name="Path 973" d="M434.693,301.21c-42.854,100.9-157.007,157.431-256,142.183-16.108-2.481-60.269-9.872-99.368-44.74C4.057,331.53-12.04,198.617,48.676,104.95,92.867,36.777,172.083-1.868,247.354.065c16.213.416,78.35,2.983,132.957,48.01a204.79,204.79,0,0,1,41.655,47.262C459.4,153.883,462.621,235.45,434.693,301.21" transform="translate(-9.701 0.004)" fill="#e7f3fd"/>
        <path id="Path_974" data-name="Path 974" d="M573.719,98.509a20.669,20.669,0,0,0-18.858,20.549c-.185,65.418-.491,291.063,3.772,370.929a16.05,16.05,0,0,0,15.861,15.2c41.906.451,162.447,1.28,230.878-3.1a27.026,27.026,0,0,0,25.327-27c-.083-68.659-1.181-261.751-10.585-350.011a22.056,22.056,0,0,0-20.23-19.655c-45.7-3.561-167.074-12.054-226.165-6.915" transform="translate(-467.552 -81.664)" fill="#063992"/>
        <path id="Path_975" data-name="Path 975" d="M654.748,241.237c-.823,55.96-3.166,242.114.924,310.819.6,10.042,8.4,17.971,18.031,18.306,39.658,1.382,141.354,4.056,199.3-2.32,10.435-1.148,18.409-10.193,18.687-21.144,1.45-57.107,5.365-230.487,1.39-298.425-.634-10.838-8.914-19.486-19.294-20.185-42.94-2.894-153.205-9.566-202.482-5.462-9.25.77-16.415,8.723-16.558,18.411" transform="translate(-550.618 -186.698)" fill="#67b8ee"/>
        <g id="Group_275" data-name="Group 275" transform="translate(199.932 23.371)" opacity="0.78">
          <g id="Group_274" data-name="Group 274">
            <g id="Group_273" data-name="Group 273" clip-path="url(#clip-path-3)">
              <path id="Path_976" data-name="Path 976" d="M1271.718,151.856a2.9,2.9,0,0,0,2.812,2.842c7.631.232,29.127.89,38.735,1.236a2.9,2.9,0,0,0,2.943-3.518,2.963,2.963,0,0,0-2.706-2.6c-6.5-.452-26.108-1.67-39.065-.923a3,3,0,0,0-2.719,2.966" transform="translate(-1271.7 -148.652)" fill="#fff"/>
            </g>
          </g>
        </g>
        <path id="Path_977" data-name="Path 977" d="M2446.541,1727.214a36.625,36.625,0,1,1-36.625-36.625,36.625,36.625,0,0,1,36.625,36.625" transform="translate(-2000.172 -1424.801)" fill="#ffb93e"/>
        <path id="Path_978" data-name="Path 978" d="M2451.851,1733.743a35.407,35.407,0,1,1-35.407-35.407,35.407,35.407,0,0,1,35.407,35.407" transform="translate(-2006.699 -1431.33)" fill="#ffa412"/>
        <g id="Group_278" data-name="Group 278" transform="translate(380.158 269.338)" opacity="0.58">
          <g id="Group_277" data-name="Group 277">
            <g id="Group_276" data-name="Group 276" clip-path="url(#clip-path-4)">
              <path id="Path_979" data-name="Path 979" d="M2418.451,1731.93a.389.389,0,0,1-.347-.565,32.937,32.937,0,0,1,29.544-18.19,33.39,33.39,0,0,1,5.966.537.389.389,0,1,1-.14.766,32.593,32.593,0,0,0-5.826-.524,32.161,32.161,0,0,0-28.848,17.762.39.39,0,0,1-.348.214" transform="translate(-2418.062 -1713.174)" fill="#fff"/>
            </g>
          </g>
        </g>
        <g id="Group_281" data-name="Group 281" transform="translate(380.548 273.217)" opacity="0.78">
          <g id="Group_280" data-name="Group 280">
            <g id="Group_279" data-name="Group 279" clip-path="url(#clip-path-5)">
              <path id="Path_980" data-name="Path 980" d="M2480.477,1767.808a29.968,29.968,0,1,1-29.968-29.968,29.968,29.968,0,0,1,29.968,29.968" transform="translate(-2420.541 -1737.84)" fill="#fff"/>
            </g>
          </g>
        </g>
        <path id="Path_981" data-name="Path 981" d="M2537.458,1837.038v-3.26a26.586,26.586,0,0,1-9.148-1.984,1.886,1.886,0,0,1-1.042-2.228l.828-3.037a1.9,1.9,0,0,1,2.581-1.244,22.065,22.065,0,0,0,8.446,1.779c3.275,0,5.716-1.11,5.716-3.385,0-2.053-1.887-3.274-6.437-4.494-6.491-1.776-11.153-4.606-11.153-10.32,0-5.16,3.773-9.1,10.32-10.154v-3.261a1.9,1.9,0,0,1,1.9-1.9h1.916a1.9,1.9,0,0,1,1.9,1.9v2.928a24.222,24.222,0,0,1,7.25,1.3,1.888,1.888,0,0,1,1.181,2.282l-.761,2.808a1.9,1.9,0,0,1-2.5,1.279,19.775,19.775,0,0,0-7.112-1.291c-3.884,0-4.993,1.608-4.993,3.052,0,1.776,2.33,3,7.38,4.55,7.213,2.164,10.209,5.16,10.209,10.542,0,4.938-3.662,9.377-10.764,10.487v3.648a1.9,1.9,0,0,1-1.9,1.9h-1.916a1.9,1.9,0,0,1-1.9-1.9" transform="translate(-2129.884 -1511.575)" fill="#ffa412"/>
        <path id="Path_982" data-name="Path 982" d="M1310.519,2314.778a25.962,25.962,0,1,1-25.963-25.962,25.963,25.963,0,0,1,25.963,25.962" transform="translate(-1060.723 -1928.976)" fill="#ffb93e"/>
        <path id="Path_983" data-name="Path 983" d="M1314.282,2319.406a25.1,25.1,0,1,1-25.1-25.1,25.1,25.1,0,0,1,25.1,25.1" transform="translate(-1065.35 -1933.604)" fill="#ffa412"/>
        <path id="Path_984" data-name="Path 984" d="M1290.608,2318.12a.276.276,0,0,1-.246-.4,23.347,23.347,0,0,1,20.943-12.894,23.631,23.631,0,0,1,4.229.38.276.276,0,0,1-.1.543,23.09,23.09,0,0,0-4.13-.372,22.8,22.8,0,0,0-20.45,12.591.277.277,0,0,1-.247.152" transform="translate(-1087.471 -1942.47)" fill="#fff"/>
        <g id="Group_284" data-name="Group 284" transform="translate(203.137 365.105)" opacity="0.78">
          <g id="Group_283" data-name="Group 283">
            <g id="Group_282" data-name="Group 282" clip-path="url(#clip-path-6)">
              <path id="Path_985" data-name="Path 985" d="M1334.575,2343.553a21.243,21.243,0,1,1-21.243-21.243,21.243,21.243,0,0,1,21.243,21.243" transform="translate(-1292.089 -2322.31)" fill="#fff"/>
            </g>
          </g>
        </g>
        <path id="Path_986" data-name="Path 986" d="M1374.969,2392.628v-2.312a18.842,18.842,0,0,1-6.485-1.406,1.336,1.336,0,0,1-.739-1.579l.587-2.153a1.348,1.348,0,0,1,1.829-.882,15.654,15.654,0,0,0,5.988,1.26c2.321,0,4.051-.786,4.051-2.4,0-1.454-1.338-2.32-4.563-3.185-4.6-1.259-7.906-3.265-7.906-7.316,0-3.658,2.675-6.451,7.316-7.2v-2.312a1.347,1.347,0,0,1,1.347-1.347h1.358a1.347,1.347,0,0,1,1.347,1.347v2.075a17.2,17.2,0,0,1,5.14.923,1.34,1.34,0,0,1,.837,1.618l-.54,1.991a1.343,1.343,0,0,1-1.773.907,14.018,14.018,0,0,0-5.041-.915c-2.753,0-3.54,1.139-3.54,2.163,0,1.258,1.652,2.124,5.231,3.225,5.113,1.534,7.237,3.658,7.237,7.473,0,3.5-2.6,6.647-7.63,7.434v2.586a1.347,1.347,0,0,1-1.347,1.347h-1.358a1.347,1.347,0,0,1-1.346-1.347" transform="translate(-1152.673 -1990.488)" fill="#ffa412"/>
        <path id="Path_987" data-name="Path 987" d="M2325.82,2259.242a33.312,33.312,0,1,1-33.312-33.312,33.312,33.312,0,0,1,33.312,33.312" transform="translate(-1904.013 -1875.978)" fill="#ffb93e"/>
        <path id="Path_988" data-name="Path 988" d="M2330.649,2265.181a32.2,32.2,0,1,1-32.2-32.2,32.2,32.2,0,0,1,32.2,32.2" transform="translate(-1909.951 -1881.916)" fill="#ffa412"/>
        <g id="Group_287" data-name="Group 287" transform="translate(361.584 353.182)" opacity="0.58">
          <g id="Group_286" data-name="Group 286">
            <g id="Group_285" data-name="Group 285" clip-path="url(#clip-path-7)">
              <path id="Path_989" data-name="Path 989" d="M2300.272,2263.531a.359.359,0,0,1-.159-.038.354.354,0,0,1-.156-.476,29.957,29.957,0,0,1,26.872-16.546,30.374,30.374,0,0,1,5.427.489.354.354,0,0,1-.127.7,29.637,29.637,0,0,0-5.3-.477,29.251,29.251,0,0,0-26.239,16.155.354.354,0,0,1-.317.2" transform="translate(-2299.918 -2246.471)" fill="#fff"/>
            </g>
          </g>
        </g>
        <g id="Group_290" data-name="Group 290" transform="translate(361.938 356.709)" opacity="0.78">
          <g id="Group_289" data-name="Group 289">
            <g id="Group_288" data-name="Group 288" clip-path="url(#clip-path-8)">
              <path id="Path_990" data-name="Path 990" d="M2356.687,2296.164a27.257,27.257,0,1,1-27.257-27.258,27.257,27.257,0,0,1,27.257,27.258" transform="translate(-2302.172 -2268.906)" fill="#fff"/>
            </g>
          </g>
        </g>
        <path id="Path_991" data-name="Path 991" d="M2408.514,2359.131v-2.965a24.176,24.176,0,0,1-8.321-1.8,1.716,1.716,0,0,1-.948-2.027l.754-2.761a1.729,1.729,0,0,1,2.347-1.132,20.072,20.072,0,0,0,7.682,1.618c2.977,0,5.2-1.01,5.2-3.079,0-1.867-1.716-2.977-5.854-4.087-5.9-1.615-10.144-4.188-10.144-9.387,0-4.693,3.432-8.276,9.387-9.235V2321.3a1.728,1.728,0,0,1,1.728-1.728h1.742a1.728,1.728,0,0,1,1.728,1.728v2.662a22.061,22.061,0,0,1,6.595,1.185,1.72,1.72,0,0,1,1.074,2.076l-.693,2.554a1.724,1.724,0,0,1-2.274,1.164,17.987,17.987,0,0,0-6.469-1.175c-3.532,0-4.542,1.464-4.542,2.776,0,1.615,2.12,2.725,6.712,4.138,6.561,1.968,9.286,4.694,9.286,9.589,0,4.491-3.331,8.529-9.791,9.539v3.318a1.728,1.728,0,0,1-1.728,1.729h-1.743a1.728,1.728,0,0,1-1.728-1.729" transform="translate(-2021.994 -1954.902)" fill="#ffa412"/>
        <path id="Path_992" data-name="Path 992" d="M1163.516,565.075a49.885,49.885,0,1,1-49.885-49.885,49.885,49.885,0,0,1,49.885,49.885" transform="translate(-896.509 -434.193)" fill="#3868ad"/>
        <path id="Path_993" data-name="Path 993" d="M1170.75,573.966a48.226,48.226,0,1,1-48.226-48.226,48.226,48.226,0,0,1,48.226,48.226" transform="translate(-905.401 -443.085)" fill="#062d66"/>
        <g id="Group_293" data-name="Group 293" transform="translate(172.156 122.417)" opacity="0.58">
          <g id="Group_292" data-name="Group 292">
            <g id="Group_291" data-name="Group 291" clip-path="url(#clip-path-9)">
              <path id="Path_994" data-name="Path 994" d="M1095.544,785.265h-.027a.509.509,0,0,1-.482-.535,45.272,45.272,0,0,1,.654-5.656.51.51,0,1,1,1,.181,44.363,44.363,0,0,0-.64,5.528.509.509,0,0,1-.508.483" transform="translate(-1095.033 -778.654)" fill="#fff"/>
            </g>
          </g>
        </g>
        <g id="Group_296" data-name="Group 296" transform="translate(176.846 85.853)" opacity="0.58">
          <g id="Group_295" data-name="Group 295">
            <g id="Group_294" data-name="Group 294" clip-path="url(#clip-path-10)">
              <path id="Path_995" data-name="Path 995" d="M1125.374,571.587a.509.509,0,0,1-.454-.739,44.839,44.839,0,0,1,40.221-24.765,45.378,45.378,0,0,1,8.122.732.509.509,0,1,1-.183,1,44.423,44.423,0,0,0-7.939-.714,43.827,43.827,0,0,0-39.312,24.2.509.509,0,0,1-.455.28" transform="translate(-1124.864 -546.083)" fill="#fff"/>
            </g>
          </g>
        </g>
        <path id="Path_996" data-name="Path 996" d="M1209.74,620.364a40.817,40.817,0,1,1-40.817-40.817,40.817,40.817,0,0,1,40.817,40.817" transform="translate(-950.749 -488.432)" fill="#3868ad"/>
        <path id="Path_997" data-name="Path 997" d="M1325.03,671c0,7.15-5.8,14.869-12.947,14.869s-12.947-7.719-12.947-14.869,5.8-12.223,12.947-12.223S1325.03,663.85,1325.03,671" transform="translate(-1094.892 -555.206)" fill="#d2ebff"/>
        <path id="Path_998" data-name="Path 998" d="M1231.247,880.76h31.6a7.65,7.65,0,0,0,7.286-5.319l1.7-5.315a7.643,7.643,0,0,0-4.617-9.509c-12.862-4.7-26.162-4.1-39.786.434a7.618,7.618,0,0,0-4.881,9.235l1.31,4.827a7.65,7.65,0,0,0,7.383,5.647" transform="translate(-1030.122 -722.568)" fill="#d2ebff"/>
        <path id="Path_999" data-name="Path 999" d="M1766.04,334.9a35.1,35.1,0,1,1-35.1-35.1,35.1,35.1,0,0,1,35.1,35.1" transform="translate(-1429.235 -252.666)" fill="#3868ad"/>
        <path id="Path_1000" data-name="Path 1000" d="M1771.128,341.151a33.928,33.928,0,1,1-33.928-33.928,33.928,33.928,0,0,1,33.928,33.928" transform="translate(-1435.49 -258.922)" fill="#062d66"/>
        <g id="Group_299" data-name="Group 299" transform="translate(270.075 76.274)" opacity="0.58">
          <g id="Group_298" data-name="Group 298">
            <g id="Group_297" data-name="Group 297" clip-path="url(#clip-path-11)">
              <path id="Path_1001" data-name="Path 1001" d="M1718.219,489.805h-.019a.359.359,0,0,1-.339-.377,31.893,31.893,0,0,1,.461-3.979.358.358,0,1,1,.705.127,31.285,31.285,0,0,0-.45,3.889.358.358,0,0,1-.357.34" transform="translate(-1717.86 -485.154)" fill="#fff"/>
            </g>
          </g>
        </g>
        <g id="Group_302" data-name="Group 302" transform="translate(273.375 50.55)" opacity="0.58">
          <g id="Group_301" data-name="Group 301">
            <g id="Group_300" data-name="Group 300" clip-path="url(#clip-path-12)">
              <path id="Path_1002" data-name="Path 1002" d="M1739.2,339.477a.358.358,0,0,1-.32-.52,31.545,31.545,0,0,1,28.3-17.423,31.938,31.938,0,0,1,5.715.515.358.358,0,1,1-.129.7,31.245,31.245,0,0,0-5.586-.5,30.833,30.833,0,0,0-27.657,17.029.358.358,0,0,1-.32.2" transform="translate(-1738.847 -321.533)" fill="#fff"/>
            </g>
          </g>
        </g>
        <path id="Path_1003" data-name="Path 1003" d="M1798.559,373.793a28.716,28.716,0,1,1-28.717-28.716,28.716,28.716,0,0,1,28.717,28.716" transform="translate(-1467.393 -290.825)" fill="#3868ad"/>
        <path id="Path_1004" data-name="Path 1004" d="M1879.67,409.417c0,5.03-4.078,10.461-9.109,10.461s-9.108-5.431-9.108-10.461,4.078-8.6,9.108-8.6,9.109,3.569,9.109,8.6" transform="translate(-1568.803 -337.802)" fill="#d2ebff"/>
        <path id="Path_1005" data-name="Path 1005" d="M1813.69,556.989h22.235a5.382,5.382,0,0,0,5.126-3.742l1.2-3.739a5.377,5.377,0,0,0-3.248-6.69c-9.049-3.308-18.406-2.884-27.991.305a5.36,5.36,0,0,0-3.434,6.5l.922,3.4a5.381,5.381,0,0,0,5.194,3.973" transform="translate(-1523.236 -455.546)" fill="#d2ebff"/>
        <path id="Path_1006" data-name="Path 1006" d="M839.836,53.9a35.1,35.1,0,1,1-35.1-35.1,35.1,35.1,0,0,1,35.1,35.1" transform="translate(-648.645 -15.848)" fill="#3868ad"/>
        <path id="Path_1007" data-name="Path 1007" d="M844.925,60.156A33.928,33.928,0,1,1,811,26.228a33.928,33.928,0,0,1,33.928,33.928" transform="translate(-654.901 -22.104)" fill="#062d66"/>
        <g id="Group_305" data-name="Group 305" transform="translate(124.461 32.098)" opacity="0.58">
          <g id="Group_304" data-name="Group 304">
            <g id="Group_303" data-name="Group 303" clip-path="url(#clip-path-13)">
              <path id="Path_1008" data-name="Path 1008" d="M792.015,208.811H792a.359.359,0,0,1-.339-.377,31.847,31.847,0,0,1,.461-3.979.358.358,0,1,1,.705.127,31.223,31.223,0,0,0-.45,3.889.358.358,0,0,1-.357.34" transform="translate(-791.656 -204.161)" fill="#fff"/>
            </g>
          </g>
        </g>
        <g id="Group_308" data-name="Group 308" transform="translate(127.76 6.374)" opacity="0.58">
          <g id="Group_307" data-name="Group 307">
            <g id="Group_306" data-name="Group 306" clip-path="url(#clip-path-14)">
              <path id="Path_1009" data-name="Path 1009" d="M813,58.483a.358.358,0,0,1-.32-.52,31.546,31.546,0,0,1,28.3-17.423,31.934,31.934,0,0,1,5.714.515.358.358,0,1,1-.128.7,31.244,31.244,0,0,0-5.586-.5,30.832,30.832,0,0,0-27.657,17.029.359.359,0,0,1-.32.2" transform="translate(-812.643 -40.54)" fill="#fff"/>
            </g>
          </g>
        </g>
        <path id="Path_1010" data-name="Path 1010" d="M872.354,92.8a28.716,28.716,0,1,1-28.716-28.716A28.716,28.716,0,0,1,872.354,92.8" transform="translate(-686.803 -54.007)" fill="#3868ad"/>
        <path id="Path_1011" data-name="Path 1011" d="M953.466,128.422c0,5.03-4.078,10.461-9.108,10.461s-9.108-5.431-9.108-10.461,4.078-8.6,9.108-8.6,9.108,3.569,9.108,8.6" transform="translate(-788.213 -100.984)" fill="#d2ebff"/>
        <path id="Path_1012" data-name="Path 1012" d="M887.486,275.994h22.235a5.382,5.382,0,0,0,5.126-3.742l1.2-3.74a5.377,5.377,0,0,0-3.248-6.69c-9.049-3.308-18.405-2.884-27.991.305a5.359,5.359,0,0,0-3.434,6.5l.921,3.4a5.382,5.382,0,0,0,5.194,3.973" transform="translate(-742.646 -218.728)" fill="#d2ebff"/>
        <path id="Path_1013" data-name="Path 1013" d="M708.348,1126.864H574.854c-26.134-53.16-52.267-107.394-78.4-161.091h290.3c-26.134,53.7-52.267,107.931-78.4,161.091" transform="translate(-418.403 -813.937)" fill="#ffa412"/>
        <rect id="Rectangle_325" data-name="Rectangle 325" width="308.757" height="11.813" rx="5.907" transform="translate(68.987 145.392)" fill="#f4d7ae"/>
        <path id="Path_1014" data-name="Path 1014" d="M1117.139,2053.245H1002.816c-3.314-19.868-6.627-41.884-9.941-62.826H1127.08c-3.313,20.942-6.627,42.958-9.941,62.826" transform="translate(-836.779 -1677.493)" fill="#ffa412"/>
        <path id="Path_1015" data-name="Path 1015" d="M1151.572,2356.013c0,2.317-1.43,3.773-3.114,3.773h-115.8c-1.684,0-2.979-1.456-2.979-3.773v-2.58c0-2.316,1.294-4.386,2.979-4.386h115.8c1.684,0,3.114,2.07,3.114,4.386Z" transform="translate(-867.798 -1979.738)" fill="#f4d7ae"/>
        <path id="Path_1016" data-name="Path 1016" d="M403.525,1456.78s29.624,20.264,36.025,10.522-26-39.046-26-39.046Z" transform="translate(-340.084 -1203.711)" fill="#f4932a"/>
        <path id="Path_1017" data-name="Path 1017" d="M254.952,2745.252a1.709,1.709,0,0,0-.046-.449c-2.237-8.868-13.339-14.392-13.339-14.392l-4.4.345c-2.529,7.816-2.2,12.61-1.8,14.745.011.06.03.117.045.175a104.443,104.443,0,0,0,19.537-.424" transform="translate(-198.132 -2301.146)" fill="#063992"/>
        <path id="Path_1018" data-name="Path 1018" d="M237.046,2690.927l1.863,8.969a1.466,1.466,0,0,0,1.253,1.207,12.461,12.461,0,0,0,2.887-.046,1.843,1.843,0,0,0,1.46-2.166l-1.3-7.964Z" transform="translate(-199.779 -2267.87)" fill="#ffb27d"/>
        <path id="Path_1019" data-name="Path 1019" d="M456.04,2752.25a1.2,1.2,0,0,0-.106-.2c-2.356-3.292-8.357-9.847-20.214-12.69l-5.688-.179s-2.533,4.4-2.581,12.557c1.3.532,3.812,1.1,8.671,1.24,7.511.21,16.42-.436,19.917-.725" transform="translate(-360.249 -2308.535)" fill="#063992"/>
        <path id="Path_1020" data-name="Path 1020" d="M437.156,2676.95c.063.424.843,6.868,1.145,9.367a1.238,1.238,0,0,0,1.044,1.118,13.021,13.021,0,0,0,3.907-.06,1.683,1.683,0,0,0,1.275-1.688V2675.57Z" transform="translate(-368.428 -2254.927)" fill="#ffb27d"/>
        <path id="Path_1021" data-name="Path 1021" d="M214.374,1936.305s13.72,52.14,13.472,117.753a2.539,2.539,0,0,1-2.015,2.475,29.566,29.566,0,0,1-6.36.736,2.356,2.356,0,0,1-2.246-1.967c-1.924-11.281-12.963-74.835-19.254-85.153,0,0-4.138,56.6-2.815,85.97a1.391,1.391,0,0,1-1.228,1.447,23.376,23.376,0,0,1-5.106-.014,1.864,1.864,0,0,1-1.66-1.582c-1.37-9.548-9.257-66.38-8.922-107.319.019-2.308,6.105-12.347,6.105-12.347Z" transform="translate(-150.209 -1631.886)" fill="#063992"/>
        <path id="Path_1022" data-name="Path 1022" d="M73.615,1421.422c-18.881-2.731-39.622-.225-49.688,1.043a13.279,13.279,0,0,0-8.388,4.5c-8.518,9.858-27.209,36.845-5.209,64.039a41.008,41.008,0,0,0,9.533-6.969c-2.434-6.861-2.633-15.63,2.468-26.381a25.164,25.164,0,0,0,.652,2.526,156.46,156.46,0,0,1,7.39,45.08,1.41,1.41,0,0,0,.885,1.318c9.253,3.708,27.065,1.5,33.044.61a2.011,2.011,0,0,0,1.682-2.282c-2.1-15.237,5.038-37.52,10.716-52.146,2.244-5.78-1.909-29.721-3.084-31.341" transform="translate(0 -1196.919)" fill="#f4932a"/>
        <path id="Path_1023" data-name="Path 1023" d="M256.8,1291.367l-2.607,21.549a2.014,2.014,0,0,0,1.428,2.178c2.83.827,8.887,2.081,14.422-.2a2.355,2.355,0,0,0,1.389-2.679l-3.3-15.167Z" transform="translate(-214.215 -1088.343)" fill="#ffb27d"/>
        <path id="Path_1024" data-name="Path 1024" d="M260.357,1183.044c.259.218,11.544,19.567,11.544,19.567l-11.185,6.209-13.42-16.75s8.717-12.672,13.061-9.026" transform="translate(-208.417 -996.494)" fill="#ffb27d"/>
        <path id="Path_1025" data-name="Path 1025" d="M216.006,1148.449a1.841,1.841,0,0,0,.23,1.6l6.282,9.235a1.8,1.8,0,0,0,.337.374c.719.6,3.161,2.312,4.824-.308,1.417-2.233,2.75-4.266,4.252-5.159a1.836,1.836,0,0,1,2.521.674,68.628,68.628,0,0,1,4.457,9.089,1.829,1.829,0,0,1-.935,2.3,50.949,50.949,0,0,1-10.833,3.842,1.838,1.838,0,0,1-1.777-.639c-1.895-2.307-7.231-8.752-9.018-10.34-1.66-1.475-4.525-.72-5.809-.27a1.848,1.848,0,0,1-1.477-.109c-1.371-.722-3.8-2.578-1.873-6.064a1.839,1.839,0,0,0-.71-2.462c-1.535-.889-3.245-2.624-1.884-5.67a5.732,5.732,0,0,1,6.024-3.387,1.908,1.908,0,0,0,1.936-1.225,1.215,1.215,0,0,1,.9-.8,1.784,1.784,0,0,0,1.322-2.173,4.707,4.707,0,0,1,2.317-5.534c4.807-3.012,9.408,1.187,10.727,4.877s-4.078,6.658-7.543,7.3c-2.545.472-3.791,3.35-4.274,4.844" transform="translate(-172.01 -952.681)" fill="#062d66"/>
        <path id="Path_1026" data-name="Path 1026" d="M251.09,1302.747s-2.575-6.331-5.386-5.933-4.874,3.339-1.193,6.3c4.579,3.687,6.579-.37,6.579-.37" transform="translate(-204.399 -1092.918)" fill="#ffb27d"/>
        <path id="Path_1027" data-name="Path 1027" d="M122.09,1526.434c-3.729-10.206-2.377-22.53-2.362-22.653l1.027.118c-.014.121-1.338,12.209,2.307,22.181Z" transform="translate(-100.694 -1267.361)" fill="#d87d21"/>
        <path id="Path_1028" data-name="Path 1028" d="M244.262,2086.216a.517.517,0,0,1-.5-.387c-1.138-4.388-9.657-9.21-9.743-9.259a.518.518,0,0,1,.506-.9c.366.206,8.991,5.088,10.238,9.9a.518.518,0,0,1-.371.631.5.5,0,0,1-.13.017" transform="translate(-197.004 -1749.282)" fill="#67b8ee"/>
        <path id="Path_1029" data-name="Path 1029" d="M75.233,1826.271a41,41,0,0,1-9.533,6.969,79.174,79.174,0,0,0,17.424,15.495l.911,2.044a5.085,5.085,0,0,0,4.4,3c10.526.5,13.438-1.731,3.749-8.489,0,0-12.392-6.166-16.953-19.023" transform="translate(-55.371 -1539.151)" fill="#ffb27d"/>
        <path id="Path_1030" data-name="Path 1030" d="M577.474,1506.331s-14.9,12.046-18.565,16.634-1.415,14.064,5.765,12.831,18.214-23.994,18.214-23.994Z" transform="translate(-469.577 -1269.511)" fill="#ffb27d"/>
        <path id="Path_1031" data-name="Path 1031" d="M540.492,1374.411s24.648,23.711,30.958,28.083c7.325,5.075,16.956-4.931,13.605-10.5s-28.5-23.211-28.5-23.211Z" transform="translate(-455.518 -1153.592)" fill="#062d66"/>
        <path id="Path_1032" data-name="Path 1032" d="M571.248,926.488l56.927-55.877,29.555,64.247-76.578,17.351Z" transform="translate(-481.439 -733.737)" fill="#063992"/>
        <path id="Path_1033" data-name="Path 1033" d="M946.467,894.786c8.591,18.139,12.56,34.262,8.864,36.012s-13.656-11.534-22.248-29.673-12.56-34.262-8.864-36.012,13.656,11.535,22.248,29.673" transform="translate(-777.752 -728.972)" fill="#063992"/>
        <path id="Path_1034" data-name="Path 1034" d="M968.568,937.905c-.9-.328-3.338-2.078-7.374-7.679a154.237,154.237,0,0,1-20.516-43.316c-1.777-6.671-1.583-9.668-1.27-10.57.9.329,3.338,2.078,7.374,7.679A154.215,154.215,0,0,1,967.3,927.336c1.777,6.671,1.583,9.668,1.27,10.57" transform="translate(-791.544 -738.566)" fill="#3868ad"/>
      </g>
    </g>
    <g id="Group_312" data-name="Group 312" transform="translate(147.658 137.775)">
      <g id="Group_311" data-name="Group 311" clip-path="url(#clip-path-15)">
        <path id="Path_1035" data-name="Path 1035" d="M975.849,1007.641c2.643,5.581,1.78,11.528-4.17,14.346s-12.916.579-15.559-5,.038-12.389,5.987-15.207,11.1.282,13.742,5.862" transform="translate(-952.602 -981.166)" fill="#062d66"/>
      </g>
    </g>
    <g id="Group_326" data-name="Group 326" transform="translate(0 -0.001)">
      <g id="Group_325" data-name="Group 325" clip-path="url(#clip-path-2)">
        <path id="Path_1037" data-name="Path 1037" d="M478.459,1221.357a42.226,42.226,0,0,1,13.066-5.415,75.441,75.441,0,0,0,13.144,26.45l-14.012,6.637a5.024,5.024,0,0,1-6.3-1.7c-2.793-4.092-7.168-11.122-9.086-17.524a7.436,7.436,0,0,1,3.189-8.444" transform="translate(-400.286 -1024.776)" fill="#3868ad"/>
        <path id="Path_1038" data-name="Path 1038" d="M502.607,1250.492l-10.917,5.171a1.282,1.282,0,0,1-1.819-1.327.491.491,0,0,1,.973.13.3.3,0,0,0,.426.311l10.917-5.171a.3.3,0,0,0,.143-.4l-.368-.777a.3.3,0,0,0-.4-.143l-11,5.209a.491.491,0,0,1-.42-.887l11-5.209a1.283,1.283,0,0,1,1.707.61l.368.777a1.283,1.283,0,0,1-.61,1.707" transform="translate(-412.846 -1051.183)" fill="#e7f3fd"/>
        <path id="Path_1039" data-name="Path 1039" d="M510.981,1284.179l-10.917,5.171a1.282,1.282,0,0,1-1.819-1.327.491.491,0,1,1,.973.129.3.3,0,0,0,.426.311l10.917-5.171a.3.3,0,0,0,.143-.4l-.368-.777a.3.3,0,0,0-.4-.143l-11,5.209a.491.491,0,0,1-.42-.887l11-5.209a1.283,1.283,0,0,1,1.708.61l.368.776a1.283,1.283,0,0,1-.61,1.707" transform="translate(-419.903 -1079.574)" fill="#e7f3fd"/>
        <g id="Group_315" data-name="Group 315" transform="translate(98.264 144.712)" opacity="0.58">
          <g id="Group_314" data-name="Group 314">
            <g id="Group_313" data-name="Group 313" clip-path="url(#clip-path-17)">
              <path id="Path_1040" data-name="Path 1040" d="M625.723,962.248a.491.491,0,0,1-.545-.8l43.812-40.85a.491.491,0,1,1,.67.718l-43.812,40.851a.494.494,0,0,1-.125.084" transform="translate(-625.023 -920.462)" fill="#fff"/>
            </g>
          </g>
        </g>
        <g id="Group_318" data-name="Group 318" transform="translate(92.638 189.377)" opacity="0.58">
          <g id="Group_317" data-name="Group 317">
            <g id="Group_316" data-name="Group 316" clip-path="url(#clip-path-18)">
              <path id="Path_1041" data-name="Path 1041" d="M589.942,1207.832a.491.491,0,0,1-.572-.775l2.141-2.343a.491.491,0,1,1,.724.662l-2.141,2.342a.481.481,0,0,1-.152.112" transform="translate(-589.242 -1204.556)" fill="#fff"/>
            </g>
          </g>
        </g>
        <path id="Path_1042" data-name="Path 1042" d="M534.232,1317.263l-10.917,5.171a1.282,1.282,0,0,1-1.819-1.327.491.491,0,0,1,.973.129.3.3,0,0,0,.426.311l10.917-5.171a.3.3,0,0,0,.143-.4l-.368-.777a.3.3,0,0,0-.4-.143l-11,5.209a.491.491,0,1,1-.42-.887l11-5.209a1.283,1.283,0,0,1,1.707.61l.368.777a1.283,1.283,0,0,1-.61,1.707" transform="translate(-439.499 -1107.457)" fill="#e7f3fd"/>
        <path id="Path_1043" data-name="Path 1043" d="M559.668,1354.161l-10.917,5.171a1.282,1.282,0,0,1-1.819-1.327.491.491,0,0,1,.973.129.3.3,0,0,0,.426.312l10.917-5.171a.3.3,0,0,0,.143-.4l-.368-.777a.3.3,0,0,0-.4-.143l-11,5.21a.491.491,0,0,1-.42-.887l11-5.209a1.283,1.283,0,0,1,1.707.609l.368.777a1.283,1.283,0,0,1-.61,1.707" transform="translate(-460.936 -1138.553)" fill="#e7f3fd"/>
        <path id="Path_1044" data-name="Path 1044" d="M649.722,1466.924a8.068,8.068,0,0,1-1.634.567,7.952,7.952,0,0,1-7.017-1.7l-17.9-15.246a.491.491,0,1,1,.636-.747l17.9,15.245a6.981,6.981,0,0,0,6.159,1.5,6.838,6.838,0,0,0,4.777-3.964c.048-.11.095-.222.141-.335a.491.491,0,1,1,.909.37q-.074.182-.15.356a7.777,7.777,0,0,1-3.822,3.961" transform="translate(-525.054 -1221.764)" fill="#e7f3fd"/>
        <path id="Path_1045" data-name="Path 1045" d="M596.162,1427.153a.491.491,0,0,1-.529-.07l-2-1.7a.491.491,0,1,1,.637-.747l2,1.7a.49.49,0,0,1-.108.817" transform="translate(-500.162 -1200.56)" fill="#e7f3fd"/>
        <path id="Path_1046" data-name="Path 1046" d="M998.271,1016.648a.491.491,0,0,1-.637-.2c-1.461-2.593-3.332-4.153-5.561-4.636-3.863-.836-7.584,1.839-7.621,1.866a.491.491,0,0,1-.58-.792c.166-.121,4.1-2.962,8.4-2.035,2.518.543,4.609,2.264,6.216,5.114a.491.491,0,0,1-.187.668l-.032.016" transform="translate(-829.023 -851.771)" fill="#91b3fa"/>
        <path id="Path_1047" data-name="Path 1047" d="M708.174,1438.224s3.784-3.212,6.741,0,3.542,8.818,2.94,9.091-18.887-4.266-9.681-9.091" transform="translate(-594.658 -1210.909)" fill="#ffb27d"/>
        <path id="Path_1048" data-name="Path 1048" d="M1733.726,2347.049a40.97,40.97,0,1,1-40.971-40.971,40.97,40.97,0,0,1,40.971,40.971" transform="translate(-1392.098 -1943.525)" fill="#ffb93e"/>
        <path id="Path_1049" data-name="Path 1049" d="M1739.666,2354.351a39.608,39.608,0,1,1-39.608-39.608,39.608,39.608,0,0,1,39.608,39.608" transform="translate(-1399.401 -1950.828)" fill="#ffa412"/>
        <g id="Group_321" data-name="Group 321" transform="translate(267.561 366.525)" opacity="0.58">
          <g id="Group_320" data-name="Group 320">
            <g id="Group_319" data-name="Group 319" clip-path="url(#clip-path-19)">
              <path id="Path_1050" data-name="Path 1050" d="M1702.3,2352.324a.437.437,0,0,1-.389-.632,36.844,36.844,0,0,1,33.05-20.349,37.3,37.3,0,0,1,6.674.6.436.436,0,1,1-.156.857,36.455,36.455,0,0,0-6.518-.586,35.976,35.976,0,0,0-32.271,19.869.435.435,0,0,1-.389.24" transform="translate(-1701.869 -2331.344)" fill="#fff"/>
            </g>
          </g>
        </g>
        <g id="Group_324" data-name="Group 324" transform="translate(267.997 370.863)" opacity="0.78">
          <g id="Group_323" data-name="Group 323">
            <g id="Group_322" data-name="Group 322" clip-path="url(#clip-path-20)">
              <path id="Path_1051" data-name="Path 1051" d="M1771.689,2392.458a33.523,33.523,0,1,1-33.523-33.523,33.523,33.523,0,0,1,33.523,33.523" transform="translate(-1704.642 -2358.935)" fill="#fff"/>
            </g>
          </g>
        </g>
        <path id="Path_1052" data-name="Path 1052" d="M1835.43,2469.9v-3.646a29.754,29.754,0,0,1-10.234-2.219,2.11,2.11,0,0,1-1.166-2.492l.927-3.4a2.126,2.126,0,0,1,2.886-1.392,24.69,24.69,0,0,0,9.448,1.989c3.662,0,6.393-1.242,6.393-3.786,0-2.3-2.11-3.662-7.2-5.027-7.262-1.987-12.476-5.152-12.476-11.545,0-5.773,4.221-10.179,11.545-11.358v-3.648a2.125,2.125,0,0,1,2.125-2.125h2.143a2.125,2.125,0,0,1,2.125,2.125v3.275a27.107,27.107,0,0,1,8.111,1.456,2.114,2.114,0,0,1,1.321,2.553l-.852,3.142a2.119,2.119,0,0,1-2.8,1.431,22.121,22.121,0,0,0-7.955-1.444c-4.345,0-5.586,1.8-5.586,3.414,0,1.986,2.606,3.351,8.255,5.09,8.069,2.421,11.421,5.772,11.421,11.793,0,5.524-4.1,10.49-12.041,11.731v4.081a2.125,2.125,0,0,1-2.125,2.126h-2.143a2.126,2.126,0,0,1-2.125-2.126" transform="translate(-1537.2 -2040.595)" fill="#ffa412"/>
        <path id="Path_1053" data-name="Path 1053" d="M1389.651,1817.281a.8.8,0,0,1-.5-.177c-.567-.452-1.129-.933-1.672-1.428a.805.805,0,1,1,1.085-1.19c.517.472,1.053.929,1.593,1.36a.806.806,0,0,1-.5,1.435" transform="translate(-1169.121 -1529.042)" fill="#063992"/>
        <path id="Path_1054" data-name="Path 1054" d="M1326.054,1508.713a.8.8,0,0,1-.659-.342c-.464-.661-.91-1.344-1.323-2.034-.367-.608-.717-1.234-1.042-1.858a.806.806,0,0,1,1.43-.744c.309.6.643,1.191.993,1.772.395.657.819,1.309,1.261,1.938a.8.8,0,0,1-.659,1.268m-4.928-10.529a.806.806,0,0,1-.778-.6,33.931,33.931,0,0,1-.877-4.472.805.805,0,1,1,1.6-.2,32.3,32.3,0,0,0,.835,4.257.805.805,0,0,1-.57.986.815.815,0,0,1-.209.028m-.974-11.583a.719.719,0,0,1-.075,0,.806.806,0,0,1-.728-.876,34.216,34.216,0,0,1,.722-4.5.805.805,0,0,1,1.57.361,32.656,32.656,0,0,0-.688,4.286.8.8,0,0,1-.8.73m3.074-11.208a.806.806,0,0,1-.727-1.152,34.152,34.152,0,0,1,2.225-3.974.806.806,0,1,1,1.35.88,32.434,32.434,0,0,0-2.119,3.786.806.806,0,0,1-.729.46m6.75-9.457a.806.806,0,0,1-.563-1.382,34.051,34.051,0,0,1,3.466-2.956.805.805,0,1,1,.96,1.293,32.442,32.442,0,0,0-3.3,2.815.8.8,0,0,1-.562.229m9.607-6.543a.805.805,0,0,1-.332-1.539,33.889,33.889,0,0,1,4.27-1.588.806.806,0,0,1,.458,1.545,32.245,32.245,0,0,0-4.066,1.511.8.8,0,0,1-.33.071" transform="translate(-1111.923 -1227.291)" fill="#063992"/>
        <path id="Path_1055" data-name="Path 1055" d="M1515.62,1449.264a.805.805,0,0,1-.053-1.609c.726-.05,1.466-.076,2.2-.078h0a.805.805,0,0,1,0,1.611c-.7,0-1.4.027-2.094.074l-.056,0" transform="translate(-1276.662 -1219.995)" fill="#063992"/>
        <path id="Path_1056" data-name="Path 1056" d="M1676.788,1508.6a.8.8,0,0,1-.591-.259c-.47-.508-.965-1.01-1.471-1.492a.806.806,0,1,1,1.11-1.167c.531.505,1.05,1.032,1.543,1.566a.806.806,0,0,1-.592,1.352" transform="translate(-1411.221 -1268.775)" fill="#063992"/>
        <path id="Path_1057" data-name="Path 1057" d="M1579.791,1602.109a.806.806,0,0,1-.19-1.588,32.117,32.117,0,0,0,4.071-1.28.805.805,0,1,1,.584,1.5,33.789,33.789,0,0,1-4.276,1.345.82.82,0,0,1-.19.022m10.48-4.577a.806.806,0,0,1-.445-1.478,32.487,32.487,0,0,0,3.4-2.58.805.805,0,1,1,1.057,1.215,34.177,34.177,0,0,1-3.568,2.71.8.8,0,0,1-.444.133m8.309-7.852a.806.806,0,0,1-.646-1.286,32.352,32.352,0,0,0,2.314-3.586.806.806,0,1,1,1.408.783,34.081,34.081,0,0,1-2.429,3.764.8.8,0,0,1-.647.325m5.136-10.216a.8.8,0,0,1-.771-1.038,32.8,32.8,0,0,0,.962-4.159.805.805,0,1,1,1.589.259,34.338,34.338,0,0,1-1.009,4.364.806.806,0,0,1-.771.573m1.373-11.35a.8.8,0,0,1-.8-.763,32.279,32.279,0,0,0-.507-4.238.806.806,0,1,1,1.584-.3,34.119,34.119,0,0,1,.532,4.45.806.806,0,0,1-.762.847h-.043m-2.573-11.14a.806.806,0,0,1-.742-.491,32.905,32.905,0,0,0-1.923-3.812.805.805,0,0,1,1.388-.818,34.452,34.452,0,0,1,2.018,4,.805.805,0,0,1-.427,1.056.8.8,0,0,1-.314.064" transform="translate(-1330.744 -1307.54)" fill="#063992"/>
        <path id="Path_1058" data-name="Path 1058" d="M1522.643,1870.75c-.493,0-.987-.011-1.476-.031a.806.806,0,0,1-.77-.84.79.79,0,0,1,.84-.77c.692.03,1.4.039,2.094.023h.018a.806.806,0,0,1,.016,1.611c-.24,0-.481.007-.723.007" transform="translate(-1281.366 -1575.254)" fill="#063992"/>
        <path id="Path_1059" data-name="Path 1059" d="M1393.593,1551.59a.4.4,0,0,0,.435-.156l2.764-3.976a21.081,21.081,0,0,0,6.787-.8l3.609,3.223a.4.4,0,0,0,.459.051l5.069-2.835a.4.4,0,0,0,.2-.418l-.856-4.762a21.1,21.1,0,0,0,4.232-5.365l4.835-.274a.4.4,0,0,0,.36-.289l1.58-5.589a.4.4,0,0,0-.156-.435l-3.975-2.765a21.092,21.092,0,0,0-.8-6.787l3.223-3.61a.4.4,0,0,0,.05-.459l-2.834-5.069a.4.4,0,0,0-.418-.2l-4.763.856a21.094,21.094,0,0,0-5.365-4.233l-.273-4.834a.4.4,0,0,0-.289-.36l-5.589-1.58a.4.4,0,0,0-.435.156l-2.764,3.975a21.1,21.1,0,0,0-6.787.8l-3.61-3.223a.4.4,0,0,0-.459-.051l-5.069,2.835a.4.4,0,0,0-.2.418l.856,4.763a21.093,21.093,0,0,0-4.232,5.365l-4.834.274a.4.4,0,0,0-.36.289l-1.58,5.589a.4.4,0,0,0,.156.435l3.976,2.764a21.084,21.084,0,0,0,.8,6.787l-3.223,3.61a.4.4,0,0,0-.05.459l2.834,5.07a.4.4,0,0,0,.417.2l4.763-.856a21.088,21.088,0,0,0,5.365,4.232l.274,4.835a.4.4,0,0,0,.289.36Z" transform="translate(-1156.63 -1264.948)" fill="#063992"/>
        <path id="Path_1060" data-name="Path 1060" d="M1500.2,1634.968c-.06,0-.121,0-.181,0a6.214,6.214,0,1,1,.181,0m-.006-10.313a4.082,4.082,0,0,0-.114,8.163,4.013,4.013,0,0,0,2.92-1.114h0a4.081,4.081,0,0,0-2.806-7.049" transform="translate(-1259.089 -1367.424)" fill="#e7f3fd"/>
        <path id="Path_1061" data-name="Path 1061" d="M1459.854,1597.305a.537.537,0,0,1-.513-.379.556.556,0,0,1-.024-.157.537.537,0,0,1,.38-.513,13.542,13.542,0,0,0,2.639-1.129l.115-.064a13.382,13.382,0,0,0,6.122-7.523c.023-.072.046-.144.069-.217q.045-.146.087-.293a13.567,13.567,0,0,0,.514-3.689,13.48,13.48,0,1,0-20.2,11.708.537.537,0,1,1-.534.931,14.553,14.553,0,1,1,14.356.084l-.134.073a14.6,14.6,0,0,1-2.715,1.145.527.527,0,0,1-.157.023" transform="translate(-1214.628 -1322.171)" fill="#e7f3fd"/>
        <path id="Path_1062" data-name="Path 1062" d="M1083.191,1510.927a.8.8,0,0,1-.656-.337c-.43-.6-.836-1.229-1.207-1.864a.805.805,0,0,1,1.391-.813c.347.593.726,1.179,1.127,1.74a.806.806,0,0,1-.655,1.274" transform="translate(-911.233 -1270.508)" fill="#063992"/>
        <path id="Path_1063" data-name="Path 1063" d="M1062.229,1313.694a.806.806,0,0,1-.785-.627,24.416,24.416,0,0,1-.595-4.528.805.805,0,1,1,1.61-.059,22.773,22.773,0,0,0,.556,4.23.805.805,0,0,1-.606.965.817.817,0,0,1-.179.02m.264-11.488a.806.806,0,0,1-.777-1.021,24.545,24.545,0,0,1,1.628-4.266.806.806,0,1,1,1.445.712,22.9,22.9,0,0,0-1.521,3.986.806.806,0,0,1-.776.59m5.676-9.992a.805.805,0,0,1-.582-1.362,24.287,24.287,0,0,1,3.45-2.99.805.805,0,0,1,.936,1.311,22.652,22.652,0,0,0-3.22,2.792.805.805,0,0,1-.583.249m9.73-6.106a.806.806,0,0,1-.249-1.572q.555-.18,1.122-.335a24.8,24.8,0,0,1,3.332-.664.805.805,0,1,1,.206,1.6,23.174,23.174,0,0,0-3.115.622q-.53.145-1.049.312a.8.8,0,0,1-.248.039" transform="translate(-894.066 -1081.739)" fill="#063992"/>
        <path id="Path_1064" data-name="Path 1064" d="M1240.159,1286.85a.8.8,0,0,1-.218-.03c-.658-.184-1.337-.341-2.02-.466a.805.805,0,1,1,.291-1.584c.731.134,1.459.3,2.163.5a.805.805,0,0,1-.216,1.581" transform="translate(-1042.744 -1082.771)" fill="#063992"/>
        <path id="Path_1065" data-name="Path 1065" d="M1340.892,1359.078a.8.8,0,0,1-.728-.46c-.3-.623-.624-1.239-.975-1.83a.805.805,0,1,1,1.385-.822c.376.634.727,1.294,1.044,1.961a.805.805,0,0,1-.727,1.151" transform="translate(-1128.552 -1142.453)" fill="#063992"/>
        <path id="Path_1066" data-name="Path 1066" d="M1222.319,1438.955a.806.806,0,0,1-.06-1.609,22.879,22.879,0,0,0,4.135-.7.806.806,0,1,1,.413,1.557,24.572,24.572,0,0,1-4.427.75l-.062,0m10.742-3.521a.805.805,0,0,1-.428-1.488,22.564,22.564,0,0,0,3.331-2.545.806.806,0,0,1,1.093,1.185,24.252,24.252,0,0,1-3.569,2.726.8.8,0,0,1-.427.123m7.851-8.127a.806.806,0,0,1-.7-1.21,22.878,22.878,0,0,0,1.764-3.8.805.805,0,1,1,1.518.54,24.484,24.484,0,0,1-1.889,4.073.8.8,0,0,1-.7.4m3.169-10.85h-.034a.806.806,0,0,1-.771-.839q.019-.456.019-.915a22.609,22.609,0,0,0-.239-3.272.806.806,0,1,1,1.594-.234,24.291,24.291,0,0,1,.255,3.506c0,.328-.006.656-.02.983a.806.806,0,0,1-.8.772" transform="translate(-1029.473 -1188.753)" fill="#063992"/>
        <path id="Path_1067" data-name="Path 1067" d="M1166.475,1576.284a.808.808,0,0,1-.182-.021c-.72-.167-1.44-.369-2.138-.6a.805.805,0,0,1,.506-1.529c.651.215,1.323.4,2,.56a.805.805,0,0,1-.181,1.59" transform="translate(-980.665 -1326.62)" fill="#063992"/>
        <path id="Path_1068" data-name="Path 1068" d="M1110.542,1355.479a.282.282,0,0,0,.327-.022l2.656-2.18a14.974,14.974,0,0,0,4.788.768l1.842,2.9a.282.282,0,0,0,.3.123l4.009-.956a.283.283,0,0,0,.215-.247l.336-3.417a14.972,14.972,0,0,0,3.927-2.846l3.354.748a.283.283,0,0,0,.3-.128l2.159-3.511a.282.282,0,0,0-.022-.327l-2.18-2.656a14.963,14.963,0,0,0,.768-4.788l2.9-1.841a.283.283,0,0,0,.123-.3l-.956-4.009a.282.282,0,0,0-.247-.216l-3.417-.336a14.972,14.972,0,0,0-2.845-3.927l.747-3.354a.283.283,0,0,0-.128-.3l-3.511-2.159a.282.282,0,0,0-.327.022l-2.656,2.18a14.967,14.967,0,0,0-4.788-.768l-1.842-2.9a.282.282,0,0,0-.3-.123l-4.009.956a.282.282,0,0,0-.215.247l-.336,3.417a14.97,14.97,0,0,0-3.927,2.845l-3.353-.747a.283.283,0,0,0-.3.128l-2.159,3.511a.282.282,0,0,0,.022.327l2.18,2.656a14.957,14.957,0,0,0-.768,4.788l-2.9,1.842a.282.282,0,0,0-.123.3l.956,4.009a.283.283,0,0,0,.247.215l3.417.336a14.976,14.976,0,0,0,2.845,3.927l-.747,3.353a.283.283,0,0,0,.128.3Z" transform="translate(-927.213 -1113.23)" fill="#063992"/>
        <path id="Path_1069" data-name="Path 1069" d="M1186.971,1412.958a5.293,5.293,0,0,1-1.584-.244,5.27,5.27,0,1,1,4.018-.357h0a5.245,5.245,0,0,1-2.433.6m1.688-2.029h0Zm-1.7-5.293a2.059,2.059,0,1,0,.616.1,2.036,2.036,0,0,0-.616-.1" transform="translate(-995.911 -1181.931)" fill="#e7f3fd"/>
        <path id="Path_1070" data-name="Path 1070" d="M1159.478,1389.739a.537.537,0,0,1-.537-.525v-.012a.537.537,0,0,1,.525-.537,9.492,9.492,0,0,0,1.987-.256l.048-.012a9.421,9.421,0,0,0,7-10.96q-.036-.181-.079-.363a9.408,9.408,0,1,0-15.886,8.754.537.537,0,1,1-.768.751,10.484,10.484,0,1,1,9.933,2.874c-.061.015-.122.029-.184.042a10.553,10.553,0,0,1-1.9.24h-.017l-.108,0Z" transform="translate(-968.179 -1153.58)" fill="#e7f3fd"/>
      </g>
    </g>
  </g>
</svg>
