<svg xmlns="http://www.w3.org/2000/svg" xmlns:xlink="http://www.w3.org/1999/xlink" width="444" height="435.016" viewBox="0 0 444 435.016">
  <defs>
    <clipPath id="clip-path">
      <rect id="Rectangle_395" data-name="Rectangle 395" width="444" height="435.016" fill="none"/>
    </clipPath>
    <clipPath id="clip-path-2">
      <rect id="Rectangle_372" data-name="Rectangle 372" width="443.999" height="435.016" fill="none"/>
    </clipPath>
    <clipPath id="clip-path-3">
      <path id="Path_1158" data-name="Path 1158" d="M119.15,1323.8c-18.068,2.047-38.187,14.895-45.922,29.658C60.285,1378.166,83,1406.367,90.765,1416c13.01,16.15,24.933,20.233,26.09,36.5.976,13.726-6.989,18.233-6.08,28.484,2.581,29.1,70.5,34.722,81.489,35.632,43.078,3.566,83.267-6.159,113.579-17.188-36.581-19.555-58.651-41.32-72.2-58.012-18.257-22.491-18.316-32.411-43.117-64.077-26.193-33.444-42.671-53.825-66.414-53.824a44.085,44.085,0,0,0-4.96.286" transform="translate(-69.322 -1323.516)" fill="none"/>
    </clipPath>
    <clipPath id="clip-path-4">
      <rect id="Rectangle_373" data-name="Rectangle 373" width="380.456" height="204.763" fill="none"/>
    </clipPath>
    <clipPath id="clip-path-6">
      <rect id="Rectangle_374" data-name="Rectangle 374" width="372.435" height="414.097" fill="none"/>
    </clipPath>
    <clipPath id="clip-path-7">
      <path id="Path_1168" data-name="Path 1168" d="M1209.225,203.371c0,29.161,23.693,53.6,51.947,54.545,27.233.914,48.6-20.485,48.6-47.767s-21.366-51.562-48.6-54.32a50.377,50.377,0,0,0-5.081-.258c-25.956,0-46.866,20.406-46.866,47.8" transform="translate(-1209.225 -155.572)" fill="none"/>
    </clipPath>
    <clipPath id="clip-path-8">
      <path id="Path_1169" data-name="Path 1169" d="M1344.641,2298.076c0,2.983,11.12,5.4,24.837,5.4s24.837-2.418,24.837-5.4-11.12-5.4-24.837-5.4-24.837,2.417-24.837,5.4" transform="translate(-1344.641 -2292.676)" fill="none"/>
    </clipPath>
    <linearGradient id="linear-gradient" x1="-5.47" y1="2.245" x2="-5.466" y2="2.245" gradientUnits="objectBoundingBox">
      <stop offset="0" stop-color="#fcb148"/>
      <stop offset="0.052" stop-color="#fdb946"/>
      <stop offset="0.143" stop-color="#fec144"/>
      <stop offset="0.318" stop-color="#ffc444"/>
      <stop offset="0.484" stop-color="#fdb946"/>
      <stop offset="0.773" stop-color="#f99c4c"/>
      <stop offset="0.866" stop-color="#f8924f"/>
      <stop offset="1" stop-color="#f8924f"/>
    </linearGradient>
    <clipPath id="clip-path-10">
      <rect id="Rectangle_379" data-name="Rectangle 379" width="278.145" height="10.938" fill="none"/>
    </clipPath>
    <linearGradient id="linear-gradient-2" x1="-17.37" y1="1.582" x2="-17.358" y2="1.582" xlink:href="#linear-gradient"/>
    <clipPath id="clip-path-12">
      <path id="Path_1173" data-name="Path 1173" d="M1225.753,1852.2c0,2.891,19.222,5.235,42.933,5.235s42.933-2.344,42.933-5.235-19.222-5.234-42.933-5.234-42.933,2.344-42.933,5.234" transform="translate(-1225.753 -1846.964)" fill="none"/>
    </clipPath>
    <linearGradient id="linear-gradient-3" x1="-4.287" y1="2.326" x2="-4.284" y2="2.326" xlink:href="#linear-gradient"/>
    <clipPath id="clip-path-14">
      <path id="Path_1182" data-name="Path 1182" d="M358.458,372.434c0,25.317,20.57,46.532,45.1,47.355,23.643.794,42.193-17.785,42.193-41.47s-18.549-44.765-42.193-47.159a43.778,43.778,0,0,0-4.411-.224c-22.534,0-40.688,17.716-40.688,41.5" transform="translate(-358.458 -330.935)" fill="none"/>
    </clipPath>
    <clipPath id="clip-path-16">
      <path id="Path_1189" data-name="Path 1189" d="M156.81,1104.4c0,19.694,16,36.2,35.081,36.836,18.392.617,32.82-13.834,32.82-32.259s-14.429-34.822-32.82-36.684a34.047,34.047,0,0,0-3.431-.174c-17.529,0-31.65,13.781-31.65,32.281" transform="translate(-156.81 -1072.122)" fill="none"/>
    </clipPath>
    <clipPath id="clip-path-18">
      <path id="Path_1196" data-name="Path 1196" d="M533.452,1673.354c0,17,13.815,31.251,30.288,31.8,15.879.533,28.336-11.944,28.336-27.851s-12.457-30.064-28.336-31.672a29.433,29.433,0,0,0-2.962-.151c-15.134,0-27.326,11.9-27.326,27.87" transform="translate(-533.452 -1645.484)" fill="none"/>
    </clipPath>
    <clipPath id="clip-path-20">
      <path id="Path_1199" data-name="Path 1199" d="M1343.55,2440.418c0,15.781,12.831,28.99,28.112,29.485,14.711.476,26.239-11.092,26.239-25.821s-11.528-27.852-26.239-29.359a27.257,27.257,0,0,0-2.779-.143c-14.027,0-25.333,11.023-25.333,25.837" transform="translate(-1343.55 -2414.581)" fill="none"/>
    </clipPath>
    <linearGradient id="linear-gradient-4" x1="-3.148" y1="1.112" x2="-3.146" y2="1.112" xlink:href="#linear-gradient"/>
    <clipPath id="clip-path-22">
      <rect id="Rectangle_387" data-name="Rectangle 387" width="52.495" height="53.448" fill="none"/>
    </clipPath>
    <clipPath id="clip-path-23">
      <path id="Path_1204" data-name="Path 1204" d="M1797.859,2230.682c0,27.751,22.563,50.979,49.435,51.849,25.869.838,46.141-19.5,46.141-45.406s-20.272-48.977-46.141-51.627a47.87,47.87,0,0,0-4.887-.251c-24.666,0-44.548,19.384-44.548,45.436" transform="translate(-1797.859 -2185.247)" fill="none"/>
    </clipPath>
    <linearGradient id="linear-gradient-5" x1="-2.378" y1="0.969" x2="-2.377" y2="0.969" xlink:href="#linear-gradient"/>
    <clipPath id="clip-path-25">
      <rect id="Rectangle_390" data-name="Rectangle 390" width="92.312" height="93.989" fill="none"/>
    </clipPath>
    <clipPath id="clip-path-26">
      <path id="Path_1209" data-name="Path 1209" d="M2074,1535.617c0,34.756,28.258,63.847,61.914,64.937,32.4,1.049,57.787-24.427,57.787-56.867s-25.389-61.339-57.787-64.659a60,60,0,0,0-6.12-.314c-30.892,0-55.793,24.277-55.793,56.9" transform="translate(-2074 -1478.714)" fill="none"/>
    </clipPath>
    <linearGradient id="linear-gradient-6" x1="-2.185" y1="1.543" x2="-2.184" y2="1.543" xlink:href="#linear-gradient"/>
    <clipPath id="clip-path-28">
      <rect id="Rectangle_393" data-name="Rectangle 393" width="115.611" height="117.712" fill="none"/>
    </clipPath>
  </defs>
  <g id="Illustration_4" data-name="Illustration 4" clip-path="url(#clip-path)">
    <g id="Group_414" data-name="Group 414" transform="translate(0 0)">
      <g id="Group_413" data-name="Group 413" clip-path="url(#clip-path-2)">
        <path id="Path_1153" data-name="Path 1153" d="M201.769,26.149c-14.408,21,2.486,55.053-18.893,70.849-20.811,15.376-46.376-9.827-65.988,3.408C87.794,120.04,93.107,209.882,135.644,265.7c12.792,16.787,23.481,23.319,28.215,42.3,10.165,40.767-25.561,65.017-18.762,85.18,15.308,45.4,250.734,83.493,345.2-52.944,44.118-63.722,50.719-155.738,11.3-225.624C430.367-11.664,234.1-20.977,201.769,26.149" transform="translate(-83.63 -0.003)" fill="#e7f3fd"/>
        <path id="Path_1154" data-name="Path 1154" d="M305.842,1499.429c-30.312,11.029-70.5,20.754-113.579,17.188-10.994-.91-78.908-6.532-81.489-35.632-.909-10.251,7.056-14.757,6.08-28.484-1.157-16.265-13.08-20.348-26.09-36.5-7.763-9.637-30.481-37.838-17.537-62.544,7.735-14.763,27.854-27.61,45.922-29.658,26.5-3,43.4,17.816,71.374,53.538,24.8,31.666,24.86,41.587,43.117,64.078,13.55,16.692,35.62,38.457,72.2,58.012" transform="translate(-58.769 -1122.061)" fill="#67b8ee"/>
      </g>
    </g>
    <g id="Group_419" data-name="Group 419" transform="translate(10.552 201.454)">
      <g id="Group_418" data-name="Group 418" clip-path="url(#clip-path-3)">
        <g id="Group_417" data-name="Group 417" transform="translate(-10.552 -28.428)" opacity="0.5" style="mix-blend-mode: soft-light;isolation: isolate">
          <g id="Group_416" data-name="Group 416">
            <g id="Group_415" data-name="Group 415" clip-path="url(#clip-path-4)">
              <path id="Path_1155" data-name="Path 1155" d="M464.468,1341.512c-38.107,0-75.912-12.171-112.648-36.309-44.522-29.253-76.32-68.762-95.156-96.756-13.119-19.5-20.52-43.6-22-71.643l1.048-.055c1.467,27.849,8.808,51.774,21.82,71.112,18.782,27.913,50.486,67.307,94.862,96.465,42.615,28,86.667,39.823,130.931,35.138,33.226-3.517,65.351-15.806,95.482-36.525l.595.865c-30.276,20.82-62.564,33.169-95.966,36.7a180.183,180.183,0,0,1-18.97,1" transform="translate(-198.948 -1136.749)" fill="#fff"/>
              <path id="Path_1156" data-name="Path 1156" d="M101.011,1413.927l-.459-.109C20,1394.8,3.322,1345.87.129,1331.327c-.064-.293-.1-.482-.129-.558l.986-.359a6.691,6.691,0,0,1,.168.692c3.154,14.363,19.621,62.625,99.173,81.585a133.733,133.733,0,0,0,5.689-31.734c1.011-17.061-.913-41.972-15.817-63.758l.866-.592c15.079,22.04,17.022,47.21,16,64.443a132.43,132.43,0,0,1-5.894,32.437Z" transform="translate(0 -1289.226)" fill="#fff"/>
              <path id="Path_1157" data-name="Path 1157" d="M294.158,1460.895a98.594,98.594,0,0,1-17.453-1.51c-19.456-3.5-30.135-11.882-30.24-11.967l.655-.82c.1.083,10.621,8.325,29.839,11.766,17.7,3.17,46.621,2.795,83.914-16.942.313-3.788,3.152-45.377-17.666-92.348l-22.045-49.74.959-.425,22.045,49.74c21.849,49.3,17.77,92.723,17.727,93.156l-.028.279-.248.132c-27.262,14.477-50.118,18.679-67.459,18.679" transform="translate(-208.95 -1274.226)" fill="#fff"/>
            </g>
          </g>
        </g>
      </g>
    </g>
    <g id="Group_424" data-name="Group 424" transform="translate(0 0)">
      <g id="Group_423" data-name="Group 423" clip-path="url(#clip-path-2)">
        <path id="Path_1159" data-name="Path 1159" d="M486.734,39.157l-5.006-5.037-6.153,31.443-38.6,82.893,4.293,5.037,26.675-.012V269.293A145.21,145.21,0,0,1,333.972,414.067L128.539,425.445l.386,3.705,85.1,24.352,150.745-13.153A166.325,166.325,0,0,0,516.765,274.643V152.673l24.052-1.388Z" transform="translate(-108.974 -28.927)" fill="#063992"/>
        <path id="Path_1160" data-name="Path 1160" d="M481.727,34.12,436.97,148.456l26.256-.012V264.256c0,75.836-57.442,138.9-131.864,144.774L128.539,425.445l85.986,22.773L361.68,435.312c84.633-7.437,149.608-79.4,149.608-165.706V147.636l23.674-1.388Z" transform="translate(-108.974 -28.927)" fill="#3868ad"/>
        <g id="Group_422" data-name="Group 422" transform="translate(19.565 5.193)" opacity="0.3" style="mix-blend-mode: soft-light;isolation: isolate">
          <g id="Group_421" data-name="Group 421">
            <g id="Group_420" data-name="Group 420" clip-path="url(#clip-path-6)">
              <path id="Path_1161" data-name="Path 1161" d="M498,275.96c-6.954-31.076-23.378-45.61-22.684-83.283.544-29.538,11.055-43.07,17.415-66.756,4.3-16.033,6.729-36.806,2.632-63.086L481.727,34.119,436.97,148.455l26.256-.012V264.255c0,75.836-57.442,138.9-131.864,144.774L128.539,425.444l85.986,22.772L361.68,435.311c60.9-5.351,111.613-44.111,135.272-97.581,4.584-19.933,5.67-41.109,1.046-61.77" transform="translate(-128.539 -34.119)" fill="#f4f7fa"/>
            </g>
          </g>
        </g>
        <path id="Path_1162" data-name="Path 1162" d="M1197.481,166.21c0,33.253-26,59.412-59.235,58.391-34.586-1.062-63.674-30.932-63.674-66.677s29.088-61.693,63.674-58.092c33.234,3.461,59.235,33.125,59.235,66.378" transform="translate(-911.01 -84.354)" fill="#062d66"/>
        <path id="Path_1163" data-name="Path 1163" d="M1256.479,147.373c0,33.253-26,59.412-59.235,58.391-34.586-1.062-63.674-30.932-63.674-66.677s29.088-61.693,63.674-58.092c33.233,3.46,59.235,33.125,59.235,66.378" transform="translate(-961.027 -68.384)" fill="#3868ad"/>
        <path id="Path_1164" data-name="Path 1164" d="M1270.6,163.167c0,31.789-24.879,56.753-56.627,55.725-32.98-1.068-60.67-29.574-60.67-63.633s27.69-58.831,60.67-55.452c31.748,3.253,56.627,31.571,56.627,63.36" transform="translate(-977.759 -84.354)" fill="#062d66"/>
        <path id="Path_1165" data-name="Path 1165" d="M1284.683,179.388c0,30.261-23.7,54-53.906,52.983-31.339-1.052-57.619-28.156-57.619-60.5s26.28-55.906,57.619-52.732c30.207,3.059,53.906,29.99,53.906,60.251" transform="translate(-994.591 -100.761)" fill="#3868ad"/>
      </g>
    </g>
    <g id="Group_426" data-name="Group 426" transform="translate(184.058 23.68)">
      <g id="Group_425" data-name="Group 425" clip-path="url(#clip-path-7)">
        <path id="Path_1166" data-name="Path 1166" d="M1434.4,279.317c9.354-1.266,15.2-15.141,13.444-28.1s-10.441-20.086-19.8-18.82-15.833,10.45-14.08,23.406,11.076,24.778,20.431,23.512" transform="translate(-1382.564 -220.584)" fill="#d2ebff"/>
        <path id="Path_1167" data-name="Path 1167" d="M1348.76,568.879h0a42.511,42.511,0,0,0-36.424,47.829l.267,1.976,84.253-11.4-.267-1.976a42.511,42.511,0,0,0-47.829-36.424" transform="translate(-1296.311 -505.639)" fill="#d2ebff"/>
      </g>
    </g>
    <g id="Group_428" data-name="Group 428" transform="translate(204.67 348.972)">
      <g id="Group_427" data-name="Group 427" clip-path="url(#clip-path-8)">
        <rect id="Rectangle_376" data-name="Rectangle 376" width="38.446" height="46.22" transform="matrix(0.6, -0.8, 0.8, 0.6, -5.185, 6.913)" fill="url(#linear-gradient)"/>
      </g>
    </g>
    <g id="Group_430" data-name="Group 430" transform="translate(0 0)">
      <g id="Group_429" data-name="Group 429" clip-path="url(#clip-path-2)">
        <path id="Path_1170" data-name="Path 1170" d="M1311.62,1881.354l-18.1,68.009H1243.85l-18.1-68.009Z" transform="translate(-1039.18 -1594.99)" fill="#ffa412"/>
        <path id="Path_1171" data-name="Path 1171" d="M594.137,749.548c0,9.365,62.265,16.956,139.073,16.956s139.073-7.592,139.073-16.956-62.265-16.956-139.073-16.956-139.073,7.592-139.073,16.956" transform="translate(-503.702 -621.083)" fill="#ed9514"/>
      </g>
    </g>
    <g id="Group_432" data-name="Group 432" transform="translate(90.435 128.465)">
      <g id="Group_431" data-name="Group 431" clip-path="url(#clip-path-10)">
        <rect id="Rectangle_378" data-name="Rectangle 378" width="12.843" height="278.214" transform="translate(-0.075 10.938) rotate(-89.608)" fill="url(#linear-gradient-2)"/>
      </g>
    </g>
    <g id="Group_434" data-name="Group 434" transform="translate(0 0)">
      <g id="Group_433" data-name="Group 433" clip-path="url(#clip-path-2)">
        <path id="Path_1172" data-name="Path 1172" d="M594.137,815.692c0,9.364,62.265,16.956,139.073,16.956s139.073-7.592,139.073-16.956-62.265-16.956-139.073-16.956-139.073,7.592-139.073,16.956" transform="translate(-503.702 -677.159)" fill="#ffa412"/>
      </g>
    </g>
    <g id="Group_436" data-name="Group 436" transform="translate(186.574 281.129)">
      <g id="Group_435" data-name="Group 435" clip-path="url(#clip-path-12)">
        <rect id="Rectangle_381" data-name="Rectangle 381" width="47.944" height="81.411" transform="translate(-4.203 8.354) rotate(-63.292)" fill="url(#linear-gradient-3)"/>
      </g>
    </g>
    <g id="Group_438" data-name="Group 438" transform="translate(0 0)">
      <g id="Group_437" data-name="Group 437" clip-path="url(#clip-path-2)">
        <path id="Path_1174" data-name="Path 1174" d="M872.282,910.134l-96.139,147.831H690.276L594.137,910.134Z" transform="translate(-503.702 -771.601)" fill="#ffa412"/>
        <path id="Path_1175" data-name="Path 1175" d="M1240.918,957.272c13.25-19.8-.228-32.332,13.7-54.242,23.348-36.721,80.55-31.935,87.627-57.786a19.573,19.573,0,0,0,.264-9.052c21.807,2.994,35.052,6.936,35.052,11.255a3.621,3.621,0,0,1-1.755,2.7l-94.384,145.131c0,2.891-19.222,5.234-42.933,5.234s-42.933-2.343-42.933-5.234l-5.421-8.337c21.6-5.374,40.6-14.452,50.783-29.669" transform="translate(-1008.983 -708.915)" fill="#ed9514"/>
        <path id="Path_1176" data-name="Path 1176" d="M348.262,340.171c0,28.87-22.574,51.58-51.427,50.694-30.027-.922-55.281-26.855-55.281-57.888s25.254-53.561,55.281-50.434c28.853,3,51.427,28.758,51.427,57.628" transform="translate(-204.787 -239.291)" fill="#062d66"/>
        <path id="Path_1177" data-name="Path 1177" d="M399.483,323.817c0,28.87-22.574,51.58-51.427,50.694-30.027-.922-55.281-26.855-55.281-57.888s25.254-53.561,55.281-50.434c28.853,3,51.427,28.758,51.427,57.628" transform="translate(-248.211 -225.426)" fill="#3868ad"/>
        <path id="Path_1178" data-name="Path 1178" d="M411.746,337.529c0,27.6-21.6,49.272-49.162,48.38-28.633-.927-52.673-25.676-52.673-55.245s24.04-51.077,52.673-48.143c27.563,2.824,49.162,27.41,49.162,55.008" transform="translate(-262.739 -239.291)" fill="#062d66"/>
        <path id="Path_1179" data-name="Path 1179" d="M423.971,351.612c0,26.272-20.575,46.879-46.8,46-27.208-.914-50.024-24.444-50.024-52.526s22.816-48.536,50.024-45.781c26.225,2.656,46.8,26.037,46.8,52.309" transform="translate(-277.351 -253.535)" fill="#3868ad"/>
      </g>
    </g>
    <g id="Group_440" data-name="Group 440" transform="translate(54.561 50.372)">
      <g id="Group_439" data-name="Group 439" clip-path="url(#clip-path-14)">
        <path id="Path_1180" data-name="Path 1180" d="M553.954,438.369c8.121-1.1,13.195-13.146,11.672-24.394s-9.065-17.439-17.186-16.339-13.746,9.072-12.224,20.32,9.616,21.512,17.737,20.413" transform="translate(-508.949 -387.377)" fill="#d2ebff"/>
        <path id="Path_1181" data-name="Path 1181" d="M479.6,689.762h0a36.907,36.907,0,0,0-31.623,41.524l.232,1.715,73.147-9.9-.232-1.715A36.907,36.907,0,0,0,479.6,689.762" transform="translate(-434.065 -634.858)" fill="#d2ebff"/>
      </g>
    </g>
    <g id="Group_442" data-name="Group 442" transform="translate(0 0)">
      <g id="Group_441" data-name="Group 441" clip-path="url(#clip-path-2)">
        <path id="Path_1183" data-name="Path 1183" d="M148.879,1079.306c0,22.457-17.56,40.123-40,39.433-23.357-.717-43-20.89-43-45.029s19.644-41.663,43-39.231c22.444,2.337,40,22.37,40,44.827" transform="translate(-55.847 -876.828)" fill="#062d66"/>
        <path id="Path_1184" data-name="Path 1184" d="M188.722,1066.584c0,22.457-17.56,40.123-40,39.433-23.357-.717-43-20.89-43-45.029s19.644-41.663,43-39.231c22.444,2.337,40,22.37,40,44.827" transform="translate(-89.626 -866.043)" fill="#3868ad"/>
        <path id="Path_1185" data-name="Path 1185" d="M198.26,1077.251c0,21.468-16.8,38.327-38.242,37.633-22.273-.721-40.972-19.973-40.972-42.974s18.7-39.731,40.972-37.449c21.44,2.2,38.242,21.321,38.242,42.789" transform="translate(-100.926 -876.829)" fill="#062d66"/>
        <path id="Path_1186" data-name="Path 1186" d="M207.769,1088.206c0,20.437-16,36.466-36.4,35.781-21.164-.71-38.912-19.015-38.912-40.859s17.748-37.755,38.912-35.612c20.4,2.066,36.4,20.253,36.4,40.69" transform="translate(-112.292 -887.908)" fill="#3868ad"/>
      </g>
    </g>
    <g id="Group_444" data-name="Group 444" transform="translate(23.868 163.189)">
      <g id="Group_443" data-name="Group 443" clip-path="url(#clip-path-16)">
        <path id="Path_1187" data-name="Path 1187" d="M308.88,1155.692c6.317-.855,10.264-10.226,9.079-18.975s-7.051-13.565-13.368-12.71-10.693,7.057-9.508,15.807,7.48,16.734,13.8,15.878" transform="translate(-273.871 -1116.027)" fill="#d2ebff"/>
        <path id="Path_1188" data-name="Path 1188" d="M251.042,1351.242h0a28.709,28.709,0,0,0-24.6,32.3l.181,1.334,56.9-7.7-.181-1.334a28.709,28.709,0,0,0-32.3-24.6" transform="translate(-215.622 -1308.534)" fill="#d2ebff"/>
      </g>
    </g>
    <g id="Group_446" data-name="Group 446" transform="translate(0 0)">
      <g id="Group_445" data-name="Group 445" clip-path="url(#clip-path-2)">
        <path id="Path_1190" data-name="Path 1190" d="M526.6,1651.686c0,19.389-15.161,34.641-34.538,34.046-20.166-.619-37.126-18.036-37.126-38.877s16.96-35.971,37.126-33.872c19.377,2.018,34.538,19.314,34.538,38.7" transform="translate(-385.693 -1367.304)" fill="#062d66"/>
        <path id="Path_1191" data-name="Path 1191" d="M561,1640.7c0,19.389-15.161,34.641-34.538,34.046-20.166-.619-37.126-18.036-37.126-38.877S506.3,1599.9,526.466,1602c19.377,2.018,34.538,19.314,34.538,38.7" transform="translate(-414.857 -1357.992)" fill="#3868ad"/>
        <path id="Path_1192" data-name="Path 1192" d="M569.24,1649.912c0,18.535-14.506,33.091-33.017,32.491-19.23-.622-35.375-17.244-35.375-37.1s16.145-34.3,35.375-32.332c18.511,1.9,33.017,18.408,33.017,36.943" transform="translate(-424.613 -1367.304)" fill="#062d66"/>
        <path id="Path_1193" data-name="Path 1193" d="M577.449,1659.37c0,17.644-13.818,31.484-31.43,30.893-18.273-.614-33.6-16.417-33.6-35.276s15.323-32.6,33.6-30.746c17.613,1.783,31.43,17.486,31.43,35.13" transform="translate(-434.426 -1376.871)" fill="#3868ad"/>
      </g>
    </g>
    <g id="Group_448" data-name="Group 448" transform="translate(81.198 250.462)">
      <g id="Group_447" data-name="Group 447" clip-path="url(#clip-path-18)">
        <path id="Path_1194" data-name="Path 1194" d="M664.745,1717.636c5.454-.738,8.862-8.829,7.839-16.383s-6.088-11.712-11.542-10.973-9.232,6.093-8.209,13.647,6.458,14.447,11.912,13.709" transform="translate(-634.52 -1683.39)" fill="#d2ebff"/>
        <path id="Path_1195" data-name="Path 1195" d="M614.81,1886.47h0a24.787,24.787,0,0,0-21.238,27.887l.156,1.152,49.125-6.65-.156-1.152a24.787,24.787,0,0,0-27.888-21.238" transform="translate(-584.228 -1849.597)" fill="#d2ebff"/>
      </g>
    </g>
    <g id="Group_450" data-name="Group 450" transform="translate(0 0)">
      <g id="Group_449" data-name="Group 449" clip-path="url(#clip-path-2)">
        <path id="Path_1197" data-name="Path 1197" d="M1364.019,2445.492c0,15.408-12.048,27.529-27.448,27.056-16.026-.492-29.5-14.333-29.5-30.9s13.478-28.586,29.5-26.917c15.4,1.6,27.448,15.349,27.448,30.757" transform="translate(-1108.116 -2047.054)" fill="#ffa412"/>
        <path id="Path_1198" data-name="Path 1198" d="M1391.357,2436.764c0,15.408-12.048,27.529-27.448,27.057-16.026-.492-29.5-14.333-29.5-30.9s13.478-28.586,29.5-26.917c15.4,1.6,27.448,15.349,27.448,30.757" transform="translate(-1131.293 -2039.654)" fill="#ffb93e"/>
      </g>
    </g>
    <g id="Group_452" data-name="Group 452" transform="translate(204.504 367.527)">
      <g id="Group_451" data-name="Group 451" clip-path="url(#clip-path-20)">
        <rect id="Rectangle_386" data-name="Rectangle 386" width="63.51" height="64.673" transform="translate(-9.883 1.809) rotate(-10.373)" fill="url(#linear-gradient-4)"/>
      </g>
    </g>
    <g id="Group_457" data-name="Group 457" transform="translate(0 0)">
      <g id="Group_456" data-name="Group 456" clip-path="url(#clip-path-2)">
        <g id="Group_455" data-name="Group 455" transform="translate(205.495 368.475)" opacity="0.78">
          <g id="Group_454" data-name="Group 454">
            <g id="Group_453" data-name="Group 453" clip-path="url(#clip-path-22)">
              <path id="Path_1200" data-name="Path 1200" d="M1402.557,2449.308c0,14.244-11.155,25.417-25.373,24.939-14.751-.5-27.121-13.253-27.121-28.478s12.37-26.314,27.121-24.821c14.218,1.44,25.373,14.116,25.373,28.36" transform="translate(-1350.063 -2420.813)" fill="#fff"/>
            </g>
          </g>
        </g>
        <path id="Path_1201" data-name="Path 1201" d="M1454.791,2453.5h0a1.551,1.551,0,0,1,1.369,1.522v2.622a38.579,38.579,0,0,1,4.545.788q1.678.395,3.333.939a1.533,1.533,0,0,1,1.044,1.574l-.322,3.289a1.233,1.233,0,0,1-1.76,1.023,18.989,18.989,0,0,0-2.236-.833,20.3,20.3,0,0,0-4.218-.788l-.387-.032v7.511c3.947,1.1,6.846,2.59,8.719,4.458a9.425,9.425,0,0,1,2.793,6.959,9.163,9.163,0,0,1-3.089,7.235q-3.109,2.74-8.738,3.076v2.895a1.316,1.316,0,0,1-1.37,1.338h-.024a1.455,1.455,0,0,1-1.375-1.451v-2.855l-.61-.028a40.127,40.127,0,0,1-5.062-.54,32.839,32.839,0,0,1-3.5-.8,1.508,1.508,0,0,1-1.1-1.559l.379-4.228a1.337,1.337,0,0,1,1.869-1.1,27.377,27.377,0,0,0,3.077,1.01,26.955,26.955,0,0,0,4.919.822l.024-8.354q-5.683-1.406-8.489-4.165a9.538,9.538,0,0,1-2.812-7.088,8.286,8.286,0,0,1,3.048-6.885q3.029-2.406,8.594-2.4v-2.681a1.238,1.238,0,0,1,1.374-1.266m-1.374,10.026a4.629,4.629,0,0,0-2.738.965,2.816,2.816,0,0,0-.982,2.255,3.026,3.026,0,0,0,.909,2.24,6.436,6.436,0,0,0,2.811,1.434Zm2.428,15.128v7.661a4.238,4.238,0,0,0,2.93-.911,3.279,3.279,0,0,0,1.02-2.579,3.523,3.523,0,0,0-.948-2.521,6.958,6.958,0,0,0-3-1.65" transform="translate(-1222.321 -2080.044)" fill="#ffa412"/>
        <path id="Path_1202" data-name="Path 1202" d="M1833.853,2239.6c0,27.1-21.187,48.41-48.266,47.579-28.182-.866-51.883-25.2-51.883-54.331s23.7-50.269,51.883-47.334c27.079,2.82,48.266,26.991,48.266,54.086" transform="translate(-1469.813 -1852.627)" fill="#ffa412"/>
        <path id="Path_1203" data-name="Path 1203" d="M1881.926,2224.256c0,27.1-21.187,48.41-48.267,47.578-28.181-.865-51.883-25.2-51.883-54.33s23.7-50.269,51.883-47.335c27.079,2.82,48.267,26.991,48.267,54.087" transform="translate(-1510.569 -1839.614)" fill="#ffb93e"/>
      </g>
    </g>
    <g id="Group_459" data-name="Group 459" transform="translate(273.655 332.62)">
      <g id="Group_458" data-name="Group 458" clip-path="url(#clip-path-23)">
        <rect id="Rectangle_389" data-name="Rectangle 389" width="111.682" height="113.728" transform="translate(-17.379 3.181) rotate(-10.373)" fill="url(#linear-gradient-5)"/>
      </g>
    </g>
    <g id="Group_464" data-name="Group 464" transform="translate(0 0)">
      <g id="Group_463" data-name="Group 463" clip-path="url(#clip-path-2)">
        <g id="Group_462" data-name="Group 462" transform="translate(275.398 334.288)" opacity="0.78">
          <g id="Group_461" data-name="Group 461">
            <g id="Group_460" data-name="Group 460" clip-path="url(#clip-path-25)">
              <path id="Path_1205" data-name="Path 1205" d="M1901.623,2246.313c0,25.047-19.616,44.694-44.619,43.854-25.94-.871-47.692-23.3-47.692-50.078s21.753-46.274,47.692-43.648c25,2.532,44.619,24.824,44.619,49.871" transform="translate(-1809.312 -2196.205)" fill="#fff"/>
            </g>
          </g>
        </g>
        <path id="Path_1206" data-name="Path 1206" d="M1993.478,2253.685h0a2.726,2.726,0,0,1,2.407,2.675v4.612a67.857,67.857,0,0,1,7.993,1.386q2.951.694,5.862,1.651a2.7,2.7,0,0,1,1.837,2.768l-.566,5.783a2.168,2.168,0,0,1-3.095,1.8,33.4,33.4,0,0,0-3.932-1.465,35.69,35.69,0,0,0-7.418-1.386l-.68-.056v13.208c6.941,1.941,12.038,4.554,15.332,7.84a16.575,16.575,0,0,1,4.912,12.238,16.114,16.114,0,0,1-5.432,12.723q-5.468,4.819-15.365,5.41v5.09a2.315,2.315,0,0,1-2.409,2.352h-.043a2.559,2.559,0,0,1-2.418-2.552v-5.021l-1.073-.048a70.447,70.447,0,0,1-8.9-.949,57.85,57.85,0,0,1-6.152-1.415,2.65,2.65,0,0,1-1.93-2.74l.666-7.434a2.351,2.351,0,0,1,3.286-1.939,48.24,48.24,0,0,0,5.41,1.776,47.369,47.369,0,0,0,8.649,1.446l.043-14.691q-9.994-2.473-14.927-7.325a16.77,16.77,0,0,1-4.944-12.464q0-7.849,5.36-12.106c3.551-2.821,8.6-4.224,15.111-4.22v-4.715a2.177,2.177,0,0,1,2.416-2.225m-2.416,17.63a8.138,8.138,0,0,0-4.814,1.7,4.951,4.951,0,0,0-1.727,3.965,5.323,5.323,0,0,0,1.6,3.94,11.325,11.325,0,0,0,4.943,2.522Zm4.27,26.6v13.472a7.451,7.451,0,0,0,5.153-1.6,5.767,5.767,0,0,0,1.794-4.535,6.2,6.2,0,0,0-1.667-4.434,12.238,12.238,0,0,0-5.28-2.9" transform="translate(-1670.644 -1910.639)" fill="#ffa412"/>
        <path id="Path_1207" data-name="Path 1207" d="M2119.079,1546.792c0,33.934-26.534,60.629-60.449,59.588-35.295-1.084-64.979-31.566-64.979-68.044s29.684-62.957,64.979-59.282c33.914,3.531,60.449,33.8,60.449,67.738" transform="translate(-1690.195 -1253.636)" fill="#ffa412"/>
        <path id="Path_1208" data-name="Path 1208" d="M2179.287,1527.569c0,33.934-26.535,60.629-60.449,59.588-35.295-1.084-64.979-31.566-64.979-68.044s29.684-62.957,64.979-59.282c33.915,3.531,60.449,33.8,60.449,67.738" transform="translate(-1741.238 -1237.339)" fill="#ffb93e"/>
      </g>
    </g>
    <g id="Group_466" data-name="Group 466" transform="translate(315.687 225.077)">
      <g id="Group_465" data-name="Group 465" clip-path="url(#clip-path-26)">
        <rect id="Rectangle_392" data-name="Rectangle 392" width="139.872" height="142.434" transform="translate(-21.766 3.984) rotate(-10.373)" fill="url(#linear-gradient-6)"/>
      </g>
    </g>
    <g id="Group_471" data-name="Group 471" transform="translate(0 0)">
      <g id="Group_470" data-name="Group 470" clip-path="url(#clip-path-2)">
        <g id="Group_469" data-name="Group 469" transform="translate(317.87 227.166)" opacity="0.78">
          <g id="Group_468" data-name="Group 468">
            <g id="Group_467" data-name="Group 467" clip-path="url(#clip-path-28)">
              <path id="Path_1210" data-name="Path 1210" d="M2203.955,1555.194c0,31.37-24.567,55.975-55.881,54.924-32.487-1.091-59.73-29.187-59.73-62.718s27.243-57.954,59.73-54.665c31.314,3.171,55.881,31.089,55.881,62.459" transform="translate(-2088.344 -1492.439)" fill="#fff"/>
            </g>
          </g>
        </g>
        <path id="Path_1211" data-name="Path 1211" d="M2319,1564.427h0a3.415,3.415,0,0,1,3.015,3.351v5.776a84.878,84.878,0,0,1,10.01,1.736q3.7.869,7.342,2.067a3.377,3.377,0,0,1,2.3,3.466l-.709,7.242a2.715,2.715,0,0,1-3.876,2.253,41.773,41.773,0,0,0-4.925-1.835,44.671,44.671,0,0,0-9.29-1.736l-.852-.07v16.541c8.693,2.432,15.076,5.7,19.2,9.819a20.759,20.759,0,0,1,6.151,15.327q0,9.939-6.8,15.934-6.849,6.034-19.244,6.775v6.375a2.9,2.9,0,0,1-3.018,2.945l-.053,0a3.2,3.2,0,0,1-3.028-3.2v-6.288l-1.344-.061a88.239,88.239,0,0,1-11.148-1.189,72.532,72.532,0,0,1-7.7-1.772,3.32,3.32,0,0,1-2.417-3.432l.835-9.31a2.944,2.944,0,0,1,4.116-2.429,60.556,60.556,0,0,0,6.775,2.224,59.422,59.422,0,0,0,10.833,1.81l.054-18.4q-12.517-3.1-18.7-9.173-6.185-6.1-6.192-15.61,0-9.83,6.713-15.162c4.447-3.532,10.769-5.29,18.926-5.285v-5.9a2.727,2.727,0,0,1,3.026-2.787m-3.026,22.08a10.188,10.188,0,0,0-6.029,2.125,6.2,6.2,0,0,0-2.163,4.965,6.665,6.665,0,0,0,2,4.934,14.175,14.175,0,0,0,6.191,3.158Zm5.348,33.318V1636.7q4.205.008,6.454-2.006a7.223,7.223,0,0,0,2.246-5.68,7.761,7.761,0,0,0-2.087-5.553,15.326,15.326,0,0,0-6.613-3.634" transform="translate(-1941.716 -1326.292)" fill="#ffa412"/>
      </g>
    </g>
  </g>
</svg>
