<svg xmlns="http://www.w3.org/2000/svg" xmlns:xlink="http://www.w3.org/1999/xlink" width="492.554" height="462.833" viewBox="0 0 492.554 462.833">
  <defs>
    <clipPath id="clip-path">
      <rect id="Rectangle_430" data-name="Rectangle 430" width="492.554" height="462.833" fill="none"/>
    </clipPath>
    <clipPath id="clip-path-2">
      <rect id="Rectangle_396" data-name="Rectangle 396" width="492.554" height="462.834" fill="none"/>
    </clipPath>
    <clipPath id="clip-path-3">
      <path id="Path_1218" data-name="Path 1218" d="M645.777,974.37c-25.464,16.937-21.108,94.4,17.43,125.8,17.43,14.2,33.071,13.084,45.913,31.154,11.348,15.966,9.762,36.5,6.978,50.618,5.037-13.84,10.392-35.044,5.681-58.926-5.41-27.423-19.147-33.314-30.707-62.812-16.5-42.107,4.639-71.55-13.413-84.836a28.873,28.873,0,0,0-16.908-5.172,27.249,27.249,0,0,0-14.975,4.172" transform="translate(-629.793 -970.198)" fill="none"/>
    </clipPath>
    <clipPath id="clip-path-4">
      <rect id="Rectangle_397" data-name="Rectangle 397" width="87.599" height="183.875" fill="none"/>
    </clipPath>
    <clipPath id="clip-path-6">
      <path id="Path_1224" data-name="Path 1224" d="M75.812,1114.114c-10.865,5.353-15.109,16.92-15.906,19.091-12.042,32.818,20.083,85.829,63.359,110.989,24.864,14.455,33.17,10.256,77.184,27.6a250.648,250.648,0,0,1,57.054,31.678c2.568-12.949,4.455-33.24-5.559-51.76-17.472-32.31-51.5-22.866-82.669-57.879-25.136-28.24-16.258-49.28-44.5-68.417-3.741-2.535-20.151-14.08-36.39-14.082a28.13,28.13,0,0,0-12.574,2.785" transform="translate(-57.353 -1111.329)" fill="none"/>
    </clipPath>
    <clipPath id="clip-path-7">
      <rect id="Rectangle_399" data-name="Rectangle 399" width="213.379" height="220.231" fill="none"/>
    </clipPath>
    <clipPath id="clip-path-9">
      <rect id="Rectangle_400" data-name="Rectangle 400" width="302.242" height="233.053" fill="none"/>
    </clipPath>
    <clipPath id="clip-path-10">
      <path id="Path_1232" data-name="Path 1232" d="M178.713,2476.626,35.049,2496.211l315.566,26.417a17.73,17.73,0,0,0,4.594-.214l132.708-23.636-304.363-22.3q-.848-.062-1.7-.062a23.268,23.268,0,0,0-3.144.214" transform="translate(-35.049 -2476.412)" fill="none"/>
    </clipPath>
    <linearGradient id="linear-gradient" x1="-0.013" y1="1.227" x2="-0.012" y2="1.227" gradientUnits="objectBoundingBox">
      <stop offset="0" stop-color="#ebeff2"/>
      <stop offset="0.494" stop-color="#ebeff2"/>
      <stop offset="1" stop-color="#fff"/>
    </linearGradient>
    <clipPath id="clip-path-12">
      <path id="Path_1236" data-name="Path 1236" d="M1319.586,2338c-17.79,1.823-31.731,17.692-31.731,35.5s13.941,31.8,31.731,31.226c18.48-.6,34-16.572,34-35.657,0-17.916-13.673-31.246-30.636-31.246a33.117,33.117,0,0,0-3.361.173" transform="translate(-1287.855 -2337.828)" fill="none"/>
    </clipPath>
    <linearGradient id="linear-gradient-2" x1="-2.62" y1="1.097" x2="-2.618" y2="1.097" gradientUnits="objectBoundingBox">
      <stop offset="0" stop-color="#fcb148"/>
      <stop offset="0.052" stop-color="#fdb946"/>
      <stop offset="0.143" stop-color="#fec144"/>
      <stop offset="0.318" stop-color="#ffc444"/>
      <stop offset="0.484" stop-color="#fdb946"/>
      <stop offset="0.773" stop-color="#f99c4c"/>
      <stop offset="0.866" stop-color="#f8924f"/>
      <stop offset="1" stop-color="#f8924f"/>
    </linearGradient>
    <clipPath id="clip-path-14">
      <rect id="Rectangle_405" data-name="Rectangle 405" width="63.482" height="64.637" fill="none"/>
    </clipPath>
    <clipPath id="clip-path-15">
      <path id="Path_1241" data-name="Path 1241" d="M691.846,1980.688c-22.378,2.293-39.914,22.254-39.914,44.66s17.536,40,39.914,39.278c23.246-.753,42.764-20.846,42.764-44.852,0-22.535-17.2-39.3-38.537-39.3a41.516,41.516,0,0,0-4.227.217" transform="translate(-651.932 -1980.47)" fill="none"/>
    </clipPath>
    <linearGradient id="linear-gradient-3" x1="-1.007" y1="1.491" x2="-1.005" y2="1.491" xlink:href="#linear-gradient-2"/>
    <clipPath id="clip-path-17">
      <rect id="Rectangle_408" data-name="Rectangle 408" width="79.853" height="81.304" fill="none"/>
    </clipPath>
    <clipPath id="clip-path-18">
      <path id="Path_1246" data-name="Path 1246" d="M183.4,1216.946c-31.365,3.213-55.944,31.191-55.944,62.6s24.579,56.069,55.944,55.053c32.582-1.055,59.938-29.218,59.938-62.865,0-31.586-24.107-55.088-54.013-55.088a58.146,58.146,0,0,0-5.925.3" transform="translate(-127.452 -1216.641)" fill="none"/>
    </clipPath>
    <linearGradient id="linear-gradient-4" x1="-0.072" y1="2.006" x2="-0.071" y2="2.006" xlink:href="#linear-gradient-2"/>
    <clipPath id="clip-path-20">
      <rect id="Rectangle_411" data-name="Rectangle 411" width="111.923" height="113.957" fill="none"/>
    </clipPath>
    <clipPath id="clip-path-21">
      <path id="Path_1255" data-name="Path 1255" d="M1155.766,139.942c-26.981,2.732-48.148,26.787-48.148,53.816s21.167,48.23,48.148,47.324c27.991-.94,51.464-25.149,51.464-54.039,0-27.14-20.716-47.355-46.431-47.356a49.927,49.927,0,0,0-5.034.256" transform="translate(-1107.618 -139.686)" fill="none"/>
    </clipPath>
    <clipPath id="clip-path-22">
      <path id="Path_1256" data-name="Path 1256" d="M1411.993,2214.42c0,3.128,11.661,5.664,26.046,5.664s26.046-2.536,26.046-5.664-11.661-5.664-26.046-5.664-26.046,2.536-26.046,5.664" transform="translate(-1411.993 -2208.756)" fill="none"/>
    </clipPath>
    <linearGradient id="linear-gradient-5" x1="-4.813" y1="2.858" x2="-4.81" y2="2.858" xlink:href="#linear-gradient-2"/>
    <clipPath id="clip-path-24">
      <rect id="Rectangle_416" data-name="Rectangle 416" width="291.686" height="11.471" fill="none"/>
    </clipPath>
    <linearGradient id="linear-gradient-6" x1="-0.383" y1="24.722" x2="-0.382" y2="24.722" xlink:href="#linear-gradient-2"/>
    <clipPath id="clip-path-26">
      <path id="Path_1260" data-name="Path 1260" d="M1296.239,1780.281c0,3.032,20.158,5.489,45.023,5.489s45.023-2.457,45.023-5.489-20.158-5.489-45.023-5.489-45.023,2.458-45.023,5.489" transform="translate(-1296.239 -1774.792)" fill="none"/>
    </clipPath>
    <linearGradient id="linear-gradient-7" x1="-2.517" y1="3.809" x2="-2.515" y2="3.809" xlink:href="#linear-gradient-2"/>
    <clipPath id="clip-path-28">
      <path id="Path_1269" data-name="Path 1269" d="M1893.111,606.38c-23.017,2.331-41.074,22.851-41.074,45.909s18.057,41.144,41.074,40.371c23.879-.8,43.9-21.454,43.9-46.1,0-23.152-17.672-40.4-39.609-40.4a42.6,42.6,0,0,0-4.294.218" transform="translate(-1852.037 -606.162)" fill="none"/>
    </clipPath>
    <clipPath id="clip-path-30">
      <path id="Path_1276" data-name="Path 1276" d="M1990.147,1376.932c-6.83,8.063-1.453,15-7.271,26.282-1.937,3.755-4.958,9.637-11.293,11.922-9.2,3.32-11.479-2.357-12.009-2.762-1.114,1.3-1.186,9.072-2.3,10.377,7.847,14.4,16.484,15.211,29.309,11.881,15.885-4.123,20.591-22.506,21.446-25.844,4.234-16.541-2.335-35.913-9.188-36.7a4.041,4.041,0,0,0-.459-.026c-2.822,0-6.438,2.749-8.236,4.87" transform="translate(-1957.275 -1372.062)" fill="none"/>
    </clipPath>
    <linearGradient id="linear-gradient-8" x1="-4.598" y1="4.037" x2="-4.595" y2="4.037" gradientUnits="objectBoundingBox">
      <stop offset="0" stop-color="#ff9085"/>
      <stop offset="1" stop-color="#fb6fbb"/>
    </linearGradient>
    <clipPath id="clip-path-32">
      <rect id="Rectangle_423" data-name="Rectangle 423" width="52.575" height="50.488" fill="none"/>
    </clipPath>
    <clipPath id="clip-path-33">
      <path id="Path_1279" data-name="Path 1279" d="M1997.549,1461.648c-10.627,11.08-6.792,28.974-14,30.908-2.2.591-2.317-1.144-7.9-2.141-8.17-1.458-11.486,1.619-17.253.45-2.389-.484-.527,3.279-4-.347-.323.378,1.1,2.506.782,2.885,7.847,14.4,16.134,14.861,28.96,11.532,15.885-4.123,20.591-22.506,21.446-25.844a48.394,48.394,0,0,0-.089-22.941,25.128,25.128,0,0,0-7.939,5.5" transform="translate(-1954.341 -1456.15)" fill="none"/>
    </clipPath>
    <linearGradient id="linear-gradient-9" x1="-4.391" y1="3.318" x2="-4.388" y2="3.318" xlink:href="#linear-gradient-8"/>
    <clipPath id="clip-path-34">
      <rect id="Rectangle_425" data-name="Rectangle 425" width="87.339" height="117.623" fill="none"/>
    </clipPath>
    <clipPath id="clip-path-35">
      <path id="Path_1281" data-name="Path 1281" d="M2436.072,1563.449c-5.026-4.758-3.06-8.3-8.583-12.606-5.391-4.2-9.118-2.271-12.3-6.427-2.962-3.87-.559-6.627-2.943-12.28-2.19-5.192-5.573-6.082-12.1-11.877-4.354-3.864-10.088-8.95-13.33-15.726-5.625-11.758-1.692-24.312-.36-27.984a40.879,40.879,0,0,1,16.052-20.063c-.3-.325-14.93,12.7-15.31,12.308-20.63,2.835-18.386,1.363-19.874,4.893-3.439,8.159,2.005,11.157,2.146,34.689.067,11.248-1.146,15.689,2.5,20.384,4.174,5.369,8.984,3.708,15.02,10.728,4.637,5.394,3.9,8.813,8.225,11.086,4.656,2.443,7.622-.4,12.874.716,8.774,1.871,10.65,11.988,16.45,17.523,4.386,4.185,12.5,7.112,28.49,3.971a2.228,2.228,0,0,0,.477-1.557c-.451-3.11-10.131-.865-17.434-7.778" transform="translate(-2366.184 -1456.48)" fill="none"/>
    </clipPath>
    <linearGradient id="linear-gradient-10" x1="-2.506" y1="1.599" x2="-2.505" y2="1.599" xlink:href="#linear-gradient-8"/>
    <clipPath id="clip-path-36">
      <path id="Path_1284" data-name="Path 1284" d="M1934.834,1619.551c-1.109,1.828-1.507,10.17,1.839,7.408,0,0,1.2-7.063,2.612-10.21.368-.823.315-1.149.017-1.149-.843,0-3.649,2.6-4.468,3.951" transform="translate(-1934.037 -1615.6)" fill="none"/>
    </clipPath>
    <linearGradient id="linear-gradient-11" x1="-22.173" y1="13.426" x2="-22.162" y2="13.426" gradientUnits="objectBoundingBox">
      <stop offset="0" stop-color="#ffc444"/>
      <stop offset="0.996" stop-color="#f36f56"/>
      <stop offset="1" stop-color="#f36f56"/>
    </linearGradient>
    <clipPath id="clip-path-38">
      <path id="Path_1292" data-name="Path 1292" d="M2024.257,1494.082c-20.227,2.048-36.1,20.082-36.1,40.345s15.869,36.157,36.1,35.478c20.985-.7,38.582-18.853,38.582-40.513,0-20.346-15.53-35.5-34.808-35.5a37.435,37.435,0,0,0-3.774.192" transform="translate(-1988.161 -1493.89)" fill="none"/>
    </clipPath>
    <clipPath id="clip-path-39">
      <path id="Path_1293" data-name="Path 1293" d="M2504.279,1748.394c-.549,4.761-4.123,14.056-4.123,14.056,2.039,5.675,7.482-4.577,7.454-7.549-.022-2.334-1.725-7.951-2.721-7.95-.272,0-.492.42-.61,1.443" transform="translate(-2500.156 -1746.951)" fill="none"/>
    </clipPath>
    <linearGradient id="linear-gradient-12" x1="-29.903" y1="7.888" x2="-29.891" y2="7.888" xlink:href="#linear-gradient-11"/>
  </defs>
  <g id="Illustration" clip-path="url(#clip-path)">
    <g id="Group_476" data-name="Group 476" transform="translate(0 -0.001)">
      <g id="Group_475" data-name="Group 475" clip-path="url(#clip-path-2)">
        <path id="Path_1212" data-name="Path 1212" d="M457.955,26.061C473.97,47,473.612,57.12,497.377,72.867c23.133,15.328,33.13,14.026,54.932,27.221,32.341,19.573,26.435,109.138-20.849,164.786-14.22,16.735-26.1,23.247-31.364,42.174-11.3,40.641,28.413,64.816,20.856,84.917-17.016,45.258-278.716,83.236-383.722-52.781-49.042-63.525-56.38-155.257-12.562-224.927C203.845-11.636,422.018-20.92,457.955,26.061" transform="translate(-80.034 0.005)" fill="#e7f3fd"/>
        <path id="Path_1213" data-name="Path 1213" d="M716.1,1181.943c5.037-13.84,10.391-35.044,5.68-58.926-5.41-27.423-19.147-33.314-30.707-62.812-16.5-42.107,4.639-71.55-13.412-84.836-8.8-6.479-22.957-6.936-31.882-1-25.464,16.937-21.108,94.4,17.43,125.8,17.43,14.2,33.071,13.085,45.914,31.154,11.348,15.966,9.762,36.5,6.978,50.618" transform="translate(-526.543 -811.14)" fill="#67b8ee"/>
      </g>
    </g>
    <g id="Group_481" data-name="Group 481" transform="translate(103.25 159.057)">
      <g id="Group_480" data-name="Group 480" clip-path="url(#clip-path-3)">
        <g id="Group_479" data-name="Group 479" transform="translate(3.143 -7.22)" style="mix-blend-mode: soft-light;isolation: isolate">
          <g id="Group_478" data-name="Group 478">
            <g id="Group_477" data-name="Group 477" clip-path="url(#clip-path-4)">
              <path id="Path_1214" data-name="Path 1214" d="M847.1,1110.031l.573-.126a106.709,106.709,0,0,0-5.459-17.457c-5.307-12.938-11.377-20.142-19.063-29.261A247.091,247.091,0,0,1,806.039,1041c-12.1-17.882-15.836-24.142-19.03-34.118a97.557,97.557,0,0,1-3.165-45.893,95.116,95.116,0,0,1,13.425-34.516l-.5-.314a95.7,95.7,0,0,0-13.507,34.728,98.153,98.153,0,0,0,3.184,46.174c3.216,10.046,6.961,16.331,19.1,34.268a247.518,247.518,0,0,0,17.152,22.239c7.652,9.081,13.7,16.253,18.969,29.106a106.135,106.135,0,0,1,5.428,17.361" transform="translate(-760.076 -926.156)" fill="#fff"/>
              <path id="Path_1215" data-name="Path 1215" d="M672.757,1070.454l.024-.482c1.366-27.488,34.707-35.86,35.044-35.941l-.138-.571a63.6,63.6,0,0,0-17.2,7.635c-7.854,5.043-17.347,14.039-18.263,28.352a52.479,52.479,0,0,1-13.051-12.412c-5.735-7.722-11.822-20.64-8.248-38.328l-.575-.116c-3.619,17.911,2.552,30.992,8.366,38.813a51.975,51.975,0,0,0,13.625,12.807Z" transform="translate(-649.219 -1003.437)" fill="#fff"/>
              <path id="Path_1216" data-name="Path 1216" d="M674.535,1390.377a48.557,48.557,0,0,0,16.889-2.993l.227-.1-.055-.24c-6.215-27.212,12.2-40.5,12.386-40.631l-.337-.48c-.19.133-18.815,13.554-12.677,41-2.455.943-24.089,8.622-41.63-5.955l-.375.452a39.2,39.2,0,0,0,25.571,8.948" transform="translate(-648.964 -1277.117)" fill="#fff"/>
              <path id="Path_1217" data-name="Path 1217" d="M791.71,1559.847c12.958,0,19.75-5.624,19.848-5.707l.16-.136-.078-.2c-5.795-14.523,3.689-37.711,3.785-37.943l-.542-.225c-.1.234-9.584,23.426-3.868,38.182-1.636,1.252-15.56,10.982-40.515.95l-.219.545a57.382,57.382,0,0,0,21.429,4.531" transform="translate(-750.392 -1418.999)" fill="#fff"/>
            </g>
          </g>
        </g>
      </g>
    </g>
    <g id="Group_483" data-name="Group 483" transform="translate(0 -0.001)">
      <g id="Group_482" data-name="Group 482" clip-path="url(#clip-path-2)">
        <path id="Path_1219" data-name="Path 1219" d="M257.5,1303.466c2.568-12.949,4.455-33.24-5.559-51.76-17.472-32.31-51.5-22.866-82.669-57.88-25.136-28.24-16.258-49.28-44.5-68.417-4.727-3.2-29.683-20.8-48.964-11.3-10.865,5.353-15.109,16.92-15.906,19.091-12.042,32.818,20.083,85.829,63.359,110.989,24.864,14.455,33.17,10.256,77.184,27.6a250.646,250.646,0,0,1,57.054,31.678" transform="translate(-47.951 -929.134)" fill="#67b8ee"/>
      </g>
    </g>
    <g id="Group_488" data-name="Group 488" transform="translate(9.403 182.194)">
      <g id="Group_487" data-name="Group 487" clip-path="url(#clip-path-6)">
        <g id="Group_486" data-name="Group 486" transform="translate(-9.403 -12.305)" style="mix-blend-mode: soft-light;isolation: isolate">
          <g id="Group_485" data-name="Group 485">
            <g id="Group_484" data-name="Group 484" clip-path="url(#clip-path-7)">
              <path id="Path_1220" data-name="Path 1220" d="M374.188,1256.5l.578-.1c-5.486-31.338-17.113-52.649-34.558-63.34-8.542-5.235-15.443-6.24-22.748-7.3-7.844-1.143-15.956-2.324-26.492-9.165-10.238-6.647-13.787-12.847-18.281-20.7a122.746,122.746,0,0,0-20.64-27.741,130.78,130.78,0,0,0-24.17-19.739c-7.122-4.733-12.747-8.471-19.112-17.389-10.4-14.569-15.488-32.989-15.127-54.747l-.587-.01c-.363,21.886,4.763,40.424,15.236,55.1,6.428,9.006,12.093,12.771,19.265,17.537a130.277,130.277,0,0,1,24.074,19.659,122.233,122.233,0,0,1,20.551,27.623c4.533,7.919,8.114,14.173,18.471,20.9,10.644,6.911,18.82,8.1,26.727,9.253,7.244,1.055,14.086,2.052,22.526,7.224,17.3,10.6,28.831,31.776,34.286,62.941" transform="translate(-161.387 -1036.267)" fill="#fff"/>
              <path id="Path_1221" data-name="Path 1221" d="M69.582,1174.366l-.111-.377c-.129-.438-12.707-44.044,3.752-61.364l-.426-.4c-15.864,16.694-5.2,57.2-4,61.556a84.2,84.2,0,0,1-51.27-17.617A79.5,79.5,0,0,1,.494,1138.605l-.494.317a80.16,80.16,0,0,0,17.173,17.7,84.787,84.787,0,0,0,52.016,17.741Z" transform="translate(0 -1099.77)" fill="#fff"/>
              <path id="Path_1222" data-name="Path 1222" d="M131.106,1403.057c2.387,0,4.648-.081,6.763-.216a98.879,98.879,0,0,0,28.115-5.7l.234-.1-.06-.245c-5.5-22.7,1.013-54.56,1.079-54.88l-.575-.12c-.066.319-6.556,32.072-1.134,54.888a99.871,99.871,0,0,1-27.719,5.569,99.87,99.87,0,0,1-60.736-15.465l-.318.494a99.678,99.678,0,0,0,54.351,15.772" transform="translate(-64.172 -1291.71)" fill="#fff"/>
              <path id="Path_1223" data-name="Path 1223" d="M484.943,1671.578c39.482,0,62.538-15.512,62.781-15.679l.255-.175-.188-.245c-16.415-21.4-8.657-55.645-8.576-55.989l-.571-.134c-.081.345-7.841,34.6,8.491,56.228-2.82,1.814-28.455,17.435-70.37,15.186l-.031.586q4.215.226,8.21.221" transform="translate(-398.576 -1507.042)" fill="#fff"/>
            </g>
          </g>
        </g>
      </g>
    </g>
    <g id="Group_493" data-name="Group 493" transform="translate(0 -0.001)">
      <g id="Group_492" data-name="Group 492" clip-path="url(#clip-path-2)">
        <path id="Path_1225" data-name="Path 1225" d="M578.059,1832.322a140.619,140.619,0,0,0-34.44-19.5c-28.028-10.957-41.21-5.443-52.828-17.812-12.026-12.8-3.589-24.765-18.019-39.095-1.213-1.2-16.72-16.206-31.34-11.272-10.228,3.452-14.53,14.807-16.549,20.135-7.835,20.678-4.686,52.668,17.116,69.094,20.67,15.574,47.67,9.33,56.244,7.287,15.042-3.584,18.762-9.283,34.039-12.474,18.579-3.88,35.044-.039,45.777,3.641" transform="translate(-351.969 -1457.787)" fill="#67b8ee"/>
        <path id="Path_1226" data-name="Path 1226" d="M35.049,2577.216l452.868-3.915v11.582c0,3.144-1.975,5.817-4.65,6.293l-128.057,22.808a17.731,17.731,0,0,1-4.594.214l-310.645-26c-2.773-.232-4.921-2.914-4.921-6.144Z" transform="translate(-29.303 -2151.427)" fill="#bfc8d6"/>
        <path id="Path_1227" data-name="Path 1227" d="M1012.465,1403.639l287.834,21.188a8.724,8.724,0,0,0,9.338-9V1201.486a9.522,9.522,0,0,0-9.338-9.687H1012.465c-4.243,0-7.674,3.921-7.674,8.757v193.761c0,4.836,3.431,9.01,7.674,9.322" transform="translate(-840.063 -996.412)" fill="#bfc8d6"/>
        <path id="Path_1228" data-name="Path 1228" d="M984.47,1403.639l287.834,21.188a8.724,8.724,0,0,0,9.338-9V1201.486a9.522,9.522,0,0,0-9.338-9.687H984.47c-4.243,0-7.674,3.921-7.674,8.757v193.761c0,4.836,3.431,9.01,7.674,9.322" transform="translate(-816.658 -996.412)" fill="#fff"/>
        <path id="Path_1229" data-name="Path 1229" d="M1046.011,1453.443l268.088,18.405a7.152,7.152,0,0,0,7.6-7.387V1276.8a7.8,7.8,0,0,0-7.6-7.941l-268.088-1.156c-3.5-.015-6.332,3.2-6.332,7.176v170.922c0,3.978,2.831,7.4,6.332,7.638" transform="translate(-869.231 -1059.875)" fill="#d8dee8"/>
        <path id="Path_1230" data-name="Path 1230" d="M1839.451,1209.182a3.326,3.326,0,1,0,3.311-3.6,3.48,3.48,0,0,0-3.311,3.6" transform="translate(-1537.887 -1007.932)" fill="#fff"/>
        <g id="Group_491" data-name="Group 491" transform="translate(162.743 195.388)" opacity="0.48" style="mix-blend-mode: soft-light;isolation: isolate">
          <g id="Group_490" data-name="Group 490">
            <g id="Group_489" data-name="Group 489" clip-path="url(#clip-path-9)">
              <path id="Path_1231" data-name="Path 1231" d="M1285.588,1424.828,999.21,1403.746l-1.457-.107a7.726,7.726,0,0,1-5.07-2.566c20.608-1.128,33.408-8.441,41.665-16,16.582-15.175,13.706-30.141,31.587-40.118,22.3-12.445,39.84,3.324,56.764-12.234,10.26-9.433,5.223-16.467,17.849-30.563,13.984-15.613,23.088-10.364,37.141-24.416,17.769-17.767,8.882-31.591,24.188-44.347,18.569-15.475,38.594-1.152,56.27-15.993,7.624-6.4,11.807-15.707,13.991-25.6h13.448a9.522,9.522,0,0,1,9.339,9.687v214.342a8.724,8.724,0,0,1-9.337,9" transform="translate(-992.683 -1191.799)" fill="#fff"/>
            </g>
          </g>
        </g>
      </g>
    </g>
    <g id="Group_495" data-name="Group 495" transform="translate(5.746 405.989)">
      <g id="Group_494" data-name="Group 494" clip-path="url(#clip-path-10)">
        <rect id="Rectangle_402" data-name="Rectangle 402" width="452.868" height="46.344" transform="translate(0 0)" fill="url(#linear-gradient)"/>
      </g>
    </g>
    <g id="Group_497" data-name="Group 497" transform="translate(0 -0.001)">
      <g id="Group_496" data-name="Group 496" clip-path="url(#clip-path-2)">
        <path id="Path_1233" data-name="Path 1233" d="M834.362,2517.9l-253.391-18.844-78.422,10.6,251.209,20.144Z" transform="translate(-420.159 -2089.354)" fill="#d8dee8"/>
        <path id="Path_1234" data-name="Path 1234" d="M1309.634,2375.211c0,18.634,14.57,33.292,33.193,32.72,19.381-.595,35.681-17.333,35.681-37.363s-16.3-34.57-35.681-32.552c-18.622,1.939-33.193,18.562-33.193,37.2" transform="translate(-1094.929 -1954.558)" fill="#ffa412"/>
        <path id="Path_1235" data-name="Path 1235" d="M1278.939,2365.41c0,18.634,14.57,33.292,33.193,32.72,19.38-.6,35.68-17.333,35.68-37.363s-16.3-34.57-35.68-32.552c-18.623,1.939-33.193,18.562-33.193,37.2" transform="translate(-1069.266 -1946.365)" fill="#ffb93e"/>
      </g>
    </g>
    <g id="Group_499" data-name="Group 499" transform="translate(211.134 383.27)">
      <g id="Group_498" data-name="Group 498" clip-path="url(#clip-path-12)">
        <rect id="Rectangle_404" data-name="Rectangle 404" width="78.211" height="76.804" transform="translate(-11.952 65.292) rotate(-79.627)" fill="url(#linear-gradient-2)"/>
      </g>
    </g>
    <g id="Group_504" data-name="Group 504" transform="translate(0 -0.001)">
      <g id="Group_503" data-name="Group 503" clip-path="url(#clip-path-2)">
        <g id="Group_502" data-name="Group 502" transform="translate(212.181 384.418)" opacity="0.78">
          <g id="Group_501" data-name="Group 501">
            <g id="Group_500" data-name="Group 500" clip-path="url(#clip-path-14)">
              <path id="Path_1237" data-name="Path 1237" d="M1294.241,2379.286c0,17.225,13.49,30.736,30.684,30.159,17.839-.6,32.8-16.027,32.8-34.439s-14.959-31.823-32.8-30.016c-17.194,1.741-30.684,17.071-30.684,34.3" transform="translate(-1294.241 -2344.827)" fill="#fff"/>
            </g>
          </g>
        </g>
        <path id="Path_1238" data-name="Path 1238" d="M1403.2,2381.528h0a1.875,1.875,0,0,1,1.656,1.84v3.171a46.6,46.6,0,0,1,5.5.953q2.029.477,4.031,1.135a1.854,1.854,0,0,1,1.263,1.9l-.39,3.977a1.491,1.491,0,0,1-2.128,1.237,22.961,22.961,0,0,0-2.7-1.007,24.52,24.52,0,0,0-5.1-.953l-.468-.039v9.083c4.773,1.335,8.279,3.132,10.544,5.391a11.4,11.4,0,0,1,3.378,8.417,11.081,11.081,0,0,1-3.735,8.75q-3.76,3.313-10.567,3.72v3.5a1.592,1.592,0,0,1-1.657,1.617h-.029a1.76,1.76,0,0,1-1.663-1.755v-3.453l-.738-.033a48.437,48.437,0,0,1-6.122-.653,39.769,39.769,0,0,1-4.23-.973,1.823,1.823,0,0,1-1.327-1.885l.458-5.112a1.617,1.617,0,0,1,2.26-1.334,33.272,33.272,0,0,0,3.721,1.221,32.63,32.63,0,0,0,5.948.994l.03-10.1q-6.873-1.7-10.266-5.037a11.533,11.533,0,0,1-3.4-8.572,10.02,10.02,0,0,1,3.686-8.325c2.442-1.94,5.914-2.9,10.392-2.9v-3.242a1.5,1.5,0,0,1,1.661-1.53m-1.661,12.124a5.594,5.594,0,0,0-3.311,1.167,3.4,3.4,0,0,0-1.188,2.726,3.66,3.66,0,0,0,1.1,2.71,7.786,7.786,0,0,0,3.4,1.734Zm2.937,18.295v9.265a5.124,5.124,0,0,0,3.544-1.1,3.966,3.966,0,0,0,1.233-3.119,4.261,4.261,0,0,0-1.146-3.049,8.413,8.413,0,0,0-3.631-2" transform="translate(-1159.999 -1991.087)" fill="#ffa412"/>
        <path id="Path_1239" data-name="Path 1239" d="M679.327,2027.492c0,23.439,18.328,41.877,41.752,41.157,24.378-.749,44.881-21.8,44.881-47s-20.5-43.485-44.881-40.946c-23.425,2.439-41.752,23.348-41.752,46.787" transform="translate(-567.956 -1655.786)" fill="#ffa412"/>
        <path id="Path_1240" data-name="Path 1240" d="M640.717,2015.165c0,23.438,18.328,41.877,41.752,41.157,24.378-.749,44.881-21.8,44.881-47s-20.5-43.485-44.881-40.946c-23.425,2.439-41.752,23.348-41.752,46.787" transform="translate(-535.676 -1645.48)" fill="#ffb93e"/>
      </g>
    </g>
    <g id="Group_506" data-name="Group 506" transform="translate(106.879 324.683)">
      <g id="Group_505" data-name="Group 505" clip-path="url(#clip-path-15)">
        <rect id="Rectangle_407" data-name="Rectangle 407" width="98.379" height="96.609" transform="translate(-15.034 82.128) rotate(-79.627)" fill="url(#linear-gradient-3)"/>
      </g>
    </g>
    <g id="Group_511" data-name="Group 511" transform="translate(0 -0.001)">
      <g id="Group_510" data-name="Group 510" clip-path="url(#clip-path-2)">
        <g id="Group_509" data-name="Group 509" transform="translate(108.196 326.127)" opacity="0.78">
          <g id="Group_508" data-name="Group 508">
            <g id="Group_507" data-name="Group 507" clip-path="url(#clip-path-17)">
              <path id="Path_1242" data-name="Path 1242" d="M659.964,2032.618c0,21.668,16.968,38.662,38.6,37.936,22.439-.753,41.256-20.16,41.256-43.32s-18.817-40.029-41.256-37.757c-21.628,2.19-38.6,21.473-38.6,43.14" transform="translate(-659.964 -1989.272)" fill="#fff"/>
            </g>
          </g>
        </g>
        <path id="Path_1243" data-name="Path 1243" d="M797.025,2035.437h0a2.359,2.359,0,0,1,2.083,2.314v3.989a58.656,58.656,0,0,1,6.914,1.2q2.553.6,5.071,1.428a2.333,2.333,0,0,1,1.589,2.394l-.49,5a1.875,1.875,0,0,1-2.677,1.556,28.878,28.878,0,0,0-3.4-1.268,30.851,30.851,0,0,0-6.417-1.2l-.588-.049v11.425c6,1.68,10.413,3.939,13.263,6.782a14.339,14.339,0,0,1,4.249,10.587,13.938,13.938,0,0,1-4.7,11.006q-4.73,4.168-13.292,4.68v4.4a2,2,0,0,1-2.084,2.035l-.037,0a2.213,2.213,0,0,1-2.092-2.208v-4.343l-.928-.042a60.973,60.973,0,0,1-7.7-.821,50.14,50.14,0,0,1-5.321-1.224,2.293,2.293,0,0,1-1.669-2.371l.576-6.431a2.033,2.033,0,0,1,2.843-1.678,41.709,41.709,0,0,0,4.68,1.536,41.029,41.029,0,0,0,7.482,1.25l.037-12.709q-8.645-2.139-12.913-6.336a14.509,14.509,0,0,1-4.277-10.782q0-6.79,4.637-10.472c3.072-2.44,7.438-3.653,13.072-3.65v-4.078a1.883,1.883,0,0,1,2.09-1.925m-2.09,15.25a7.04,7.04,0,0,0-4.164,1.469,4.281,4.281,0,0,0-1.494,3.429,4.6,4.6,0,0,0,1.382,3.408,9.79,9.79,0,0,0,4.276,2.181Zm3.694,23.013v11.654a6.447,6.447,0,0,0,4.457-1.385,4.99,4.99,0,0,0,1.551-3.923,5.36,5.36,0,0,0-1.442-3.835,10.581,10.581,0,0,0-4.567-2.51" transform="translate(-649.806 -1701.734)" fill="#ffa412"/>
        <path id="Path_1244" data-name="Path 1244" d="M165.85,1282.548c0,32.852,25.688,58.7,58.521,57.687,34.169-1.049,62.906-30.559,62.906-65.873s-28.737-60.949-62.906-57.391c-32.833,3.419-58.521,32.725-58.521,65.577" transform="translate(-138.66 -1017.181)" fill="#ffa412"/>
        <path id="Path_1245" data-name="Path 1245" d="M111.733,1265.27c0,32.852,25.688,58.7,58.521,57.687,34.169-1.049,62.906-30.559,62.906-65.873s-28.737-60.949-62.906-57.391c-32.833,3.419-58.521,32.725-58.521,65.577" transform="translate(-93.415 -1002.735)" fill="#ffb93e"/>
      </g>
    </g>
    <g id="Group_513" data-name="Group 513" transform="translate(20.895 199.459)">
      <g id="Group_512" data-name="Group 512" clip-path="url(#clip-path-18)">
        <rect id="Rectangle_410" data-name="Rectangle 410" width="137.891" height="135.41" transform="matrix(0.18, -0.984, 0.984, 0.18, -21.071, 115.112)" fill="url(#linear-gradient-4)"/>
      </g>
    </g>
    <g id="Group_518" data-name="Group 518" transform="translate(0 -0.001)">
      <g id="Group_517" data-name="Group 517" clip-path="url(#clip-path-2)">
        <g id="Group_516" data-name="Group 516" transform="translate(22.74 201.483)" opacity="0.78">
          <g id="Group_515" data-name="Group 515">
            <g id="Group_514" data-name="Group 514" clip-path="url(#clip-path-20)">
              <path id="Path_1247" data-name="Path 1247" d="M138.71,1289.732c0,30.369,23.783,54.19,54.1,53.172,31.451-1.056,57.825-28.257,57.825-60.718s-26.374-56.106-57.825-52.921c-30.315,3.07-54.1,30.1-54.1,60.466" transform="translate(-138.71 -1228.978)" fill="#fff"/>
            </g>
          </g>
        </g>
        <path id="Path_1248" data-name="Path 1248" d="M330.816,1293.684h0a3.306,3.306,0,0,1,2.919,3.244v5.591a82.21,82.21,0,0,1,9.691,1.681q3.578.841,7.107,2a3.269,3.269,0,0,1,2.227,3.355l-.687,7.012a2.628,2.628,0,0,1-3.752,2.181,40.485,40.485,0,0,0-4.768-1.776,43.218,43.218,0,0,0-8.994-1.681l-.825-.068v16.013c8.415,2.355,14.6,5.522,18.59,9.506a20.1,20.1,0,0,1,5.955,14.838q0,9.623-6.586,15.426-6.63,5.842-18.63,6.559v6.172a2.807,2.807,0,0,1-2.921,2.852l-.052,0a3.1,3.1,0,0,1-2.932-3.094v-6.088l-1.3-.059a85.456,85.456,0,0,1-10.793-1.151,70.209,70.209,0,0,1-7.458-1.715,3.214,3.214,0,0,1-2.34-3.323l.808-9.013a2.85,2.85,0,0,1,3.985-2.351,58.533,58.533,0,0,0,6.559,2.153,57.493,57.493,0,0,0,10.487,1.752l.052-17.813q-12.117-3-18.1-8.881a20.335,20.335,0,0,1-6-15.113q0-9.516,6.5-14.678c4.305-3.42,10.426-5.121,18.322-5.116v-5.717a2.64,2.64,0,0,1,2.929-2.7m-2.929,21.375a9.865,9.865,0,0,0-5.837,2.058,6,6,0,0,0-2.094,4.807,6.453,6.453,0,0,0,1.937,4.777,13.724,13.724,0,0,0,5.993,3.057Zm5.177,32.255v16.335a9.038,9.038,0,0,0,6.248-1.942,6.993,6.993,0,0,0,2.174-5.5,7.511,7.511,0,0,0-2.021-5.376,14.83,14.83,0,0,0-6.4-3.518" transform="translate(-253.381 -1081.582)" fill="#ffa412"/>
        <path id="Path_1249" data-name="Path 1249" d="M1096.328,154.2c0,32.945,25.761,58.86,58.686,57.849C1189.279,211,1218.1,181.4,1218.1,145.991s-28.818-61.121-63.083-57.553c-32.925,3.428-58.686,32.818-58.686,65.762" transform="translate(-916.593 -73.662)" fill="#062d66"/>
        <path id="Path_1250" data-name="Path 1250" d="M1042.059,136.873c0,32.945,25.761,58.86,58.686,57.849,34.265-1.052,63.083-30.645,63.083-66.059s-28.818-61.121-63.083-57.553c-32.925,3.428-58.686,32.818-58.686,65.762" transform="translate(-871.221 -59.175)" fill="#3868ad"/>
        <path id="Path_1251" data-name="Path 1251" d="M1057.823,151.185c0,31.494,24.648,56.227,56.1,55.208,32.674-1.058,60.107-29.3,60.107-63.043s-27.433-58.285-60.107-54.938c-31.453,3.222-56.1,31.279-56.1,62.772" transform="translate(-884.401 -73.662)" fill="#062d66"/>
        <path id="Path_1252" data-name="Path 1252" d="M1074.431,165.889c0,27.656,19.983,49.81,46.565,52.292a53.788,53.788,0,0,0,6.84.2c31.048-1.043,57.085-27.9,57.085-59.941,0-27.866-19.687-49.148-45.242-52.16a54.188,54.188,0,0,0-11.844-.086c-29.92,3.027-53.4,29.71-53.4,59.692" transform="translate(-898.286 -88.549)" fill="#3868ad"/>
      </g>
    </g>
    <g id="Group_520" data-name="Group 520" transform="translate(181.586 22.9)">
      <g id="Group_519" data-name="Group 519" clip-path="url(#clip-path-21)">
        <path id="Path_1253" data-name="Path 1253" d="M1332.464,256.848c-9.267-1.254-15.057-15-13.32-27.837s10.344-19.9,19.612-18.646,15.686,10.353,13.949,23.188-10.974,24.548-20.241,23.294" transform="translate(-1284.21 -198.659)" fill="#d2ebff"/>
        <path id="Path_1254" data-name="Path 1254" d="M1155.268,519.888h0a42.117,42.117,0,0,1,36.086,47.385l-.265,1.958-83.472-11.3.265-1.958a42.116,42.116,0,0,1,47.385-36.086" transform="translate(-1107.618 -457.234)" fill="#d2ebff"/>
      </g>
    </g>
    <g id="Group_522" data-name="Group 522" transform="translate(231.486 362.109)">
      <g id="Group_521" data-name="Group 521" clip-path="url(#clip-path-22)">
        <rect id="Rectangle_413" data-name="Rectangle 413" width="48.47" height="40.317" transform="translate(-5.437 4.078) rotate(-36.87)" fill="url(#linear-gradient-5)"/>
      </g>
    </g>
    <g id="Group_524" data-name="Group 524" transform="translate(0 -0.001)">
      <g id="Group_523" data-name="Group 523" clip-path="url(#clip-path-2)">
        <path id="Path_1257" data-name="Path 1257" d="M1296.239,1808.275l18.977,71.32h52.092l18.977-71.32Z" transform="translate(-1083.73 -1511.821)" fill="#ffa412"/>
        <path id="Path_1258" data-name="Path 1258" d="M972.956,707.573c0,9.82-65.3,17.782-145.843,17.782S681.27,717.393,681.27,707.573s65.3-17.782,145.843-17.782,145.843,7.961,145.843,17.782" transform="translate(-569.581 -576.704)" fill="#ed9514"/>
      </g>
    </g>
    <g id="Group_526" data-name="Group 526" transform="translate(111.689 130.868)">
      <g id="Group_525" data-name="Group 525" clip-path="url(#clip-path-24)">
        <rect id="Rectangle_415" data-name="Rectangle 415" width="291.757" height="13.468" transform="translate(-0.079 0.001) rotate(-0.392)" fill="url(#linear-gradient-6)"/>
      </g>
    </g>
    <g id="Group_528" data-name="Group 528" transform="translate(0 -0.001)">
      <g id="Group_527" data-name="Group 527" clip-path="url(#clip-path-2)">
        <path id="Path_1259" data-name="Path 1259" d="M972.956,771.973c0,9.821-65.3,17.781-145.843,17.781S681.27,781.794,681.27,771.973s65.3-17.781,145.843-17.781,145.843,7.961,145.843,17.781" transform="translate(-569.581 -630.547)" fill="#ffa412"/>
      </g>
    </g>
    <g id="Group_530" data-name="Group 530" transform="translate(212.509 290.964)">
      <g id="Group_529" data-name="Group 529" clip-path="url(#clip-path-26)">
        <rect id="Rectangle_418" data-name="Rectangle 418" width="85.373" height="50.278" transform="matrix(0.893, -0.449, 0.449, 0.893, -4.408, 2.218)" fill="url(#linear-gradient-7)"/>
      </g>
    </g>
    <g id="Group_532" data-name="Group 532" transform="translate(0 -0.001)">
      <g id="Group_531" data-name="Group 531" clip-path="url(#clip-path-2)">
        <path id="Path_1261" data-name="Path 1261" d="M681.27,862.653l100.82,155.028h90.047L972.955,862.653Z" transform="translate(-569.581 -721.227)" fill="#ffa412"/>
        <path id="Path_1262" data-name="Path 1262" d="M824.567,917.635c-13.895-20.762.239-33.906-14.369-56.883-24.484-38.509-84.471-33.49-91.893-60.6a20.523,20.523,0,0,1-.277-9.492c-22.869,3.14-36.758,7.273-36.758,11.8a3.8,3.8,0,0,0,1.841,2.831l98.978,152.2c0,3.032,20.158,5.489,45.023,5.489s45.023-2.458,45.023-5.489l5.685-8.742c-22.656-5.636-42.575-15.155-53.255-31.114" transform="translate(-569.581 -661.037)" fill="#ed9514"/>
        <path id="Path_1263" data-name="Path 1263" d="M1842.406,618.544c0,28.1,21.976,50.213,50.064,49.35,29.231-.9,53.815-26.143,53.815-56.354s-24.584-52.141-53.815-49.1c-28.088,2.925-50.064,28-50.064,56.1" transform="translate(-1540.357 -469.998)" fill="#062d66"/>
        <path id="Path_1264" data-name="Path 1264" d="M1796.11,603.763c0,28.1,21.976,50.213,50.064,49.35,29.231-.9,53.816-26.143,53.816-56.354s-24.584-52.141-53.816-49.1c-28.088,2.925-50.064,28-50.064,56.1" transform="translate(-1501.651 -457.64)" fill="#3868ad"/>
        <path id="Path_1265" data-name="Path 1265" d="M1809.557,615.971c0,26.867,21.027,47.966,47.859,47.1,27.874-.9,51.276-25,51.276-53.781s-23.4-49.722-51.276-46.867c-26.832,2.749-47.859,26.683-47.859,53.55" transform="translate(-1512.894 -469.998)" fill="#062d66"/>
        <path id="Path_1266" data-name="Path 1266" d="M1823.726,628.515c0,23.593,17.047,42.492,39.724,44.61a45.947,45.947,0,0,0,5.835.173c26.487-.89,48.7-23.8,48.7-51.135,0-23.772-16.795-41.928-38.6-44.5a46.25,46.25,0,0,0-10.1-.073c-25.525,2.582-45.559,25.345-45.559,50.923" transform="translate(-1524.74 -482.698)" fill="#3868ad"/>
      </g>
    </g>
    <g id="Group_534" data-name="Group 534" transform="translate(303.628 99.376)">
      <g id="Group_533" data-name="Group 533" clip-path="url(#clip-path-28)">
        <path id="Path_1267" data-name="Path 1267" d="M2043.849,706.111c-7.906-1.07-12.845-12.8-11.363-23.747s8.825-16.976,16.73-15.906,13.382,8.832,11.9,19.781-9.361,20.942-17.267,19.872" transform="translate(-2002.684 -656.471)" fill="#d2ebff"/>
        <path id="Path_1268" data-name="Path 1268" d="M1892.687,930.505h0a35.929,35.929,0,0,1,30.785,40.424l-.226,1.67-71.208-9.639.226-1.67a35.929,35.929,0,0,1,40.424-30.785" transform="translate(-1852.037 -877.057)" fill="#d2ebff"/>
      </g>
    </g>
    <g id="Group_536" data-name="Group 536" transform="translate(0 -0.001)">
      <g id="Group_535" data-name="Group 535" clip-path="url(#clip-path-2)">
        <path id="Path_1270" data-name="Path 1270" d="M2305.018,2760.18a19.48,19.48,0,0,1,.133,4.275c-.271,1.073-9.582,1.849-12.743,1.475s1.883-3.6,3.9-4.207,8.714-1.544,8.714-1.544" transform="translate(-1915.736 -2307.668)" fill="#063992"/>
        <path id="Path_1271" data-name="Path 1271" d="M2345.915,2726.128l.981,6.425s2.5,1.125,3.706.013l.132-6.726Z" transform="translate(-1961.32 -2278.959)" fill="#ffb27d"/>
        <path id="Path_1272" data-name="Path 1272" d="M2658.255,2723.675s-1.976,1.466-1.449,3.222,5.137,8.792,8.422,10.788,2.256-2.164,1.3-4.754-3.4-8.3-4.353-9.256-3.92,0-3.92,0" transform="translate(-2221.167 -2276.792)" fill="#063992"/>
        <path id="Path_1273" data-name="Path 1273" d="M2644.421,2682.784c.955,2.662,1.874,4.851,2.593,6.465a23.088,23.088,0,0,0,3.442,6.074c.859,1.012,2.89,3.171,3.436,2.812s-.932-2.99-3.8-10.679c-.416-1.115-1.73-4.672-1.73-4.672Z" transform="translate(-2210.888 -2242.961)" fill="#ffb27d"/>
        <path id="Path_1274" data-name="Path 1274" d="M2222.614,2003.3a166.351,166.351,0,0,0-.358,29.682c1.274,16.422,4.558,26.815,8.676,44.325,2.517,10.7,5.908,26.451,8.977,46.149a8.666,8.666,0,0,0,5.5,1.079,8.361,8.361,0,0,0,3.306-1.256c8.052-24.6,5.673-39.852,1.788-49.351-1.656-4.049-3.665-7.243-4.738-13.468-1.421-8.235.335-12.839,2.84-31.914,1.785-13.6,1.476-15.7.288-17.737-4.748-8.152-19.269-7.993-26.285-7.51" transform="translate(-1857.519 -1674.713)" fill="#0749a8"/>
        <path id="Path_1275" data-name="Path 1275" d="M2396.023,2021.706c4.933,25.473,9.774,38.853,13.437,46.42a127.094,127.094,0,0,1,6.768,16.519,134.571,134.571,0,0,1,4.113,15.736c1.7,7.808,5.9,19.209,17.213,34.163a4.3,4.3,0,0,0,3.913.2,3.786,3.786,0,0,0,1.583-1.643c-1.479-14.3-3.176-26.311-4.649-35.583-.31-1.945-1.671-10.453-3.805-21.694-.835-4.4-2.06-10.844-3.526-17.465-1.826-8.244-4.626-19.46-8.941-32.9l-26.105-3.755" transform="translate(-2003.213 -1690.262)" fill="#063992"/>
      </g>
    </g>
    <g id="Group_538" data-name="Group 538" transform="translate(320.881 224.939)">
      <g id="Group_537" data-name="Group 537" clip-path="url(#clip-path-30)">
        <rect id="Rectangle_421" data-name="Rectangle 421" width="68.34" height="57.939" transform="translate(-3.004 65.763) rotate(-87.385)" fill="url(#linear-gradient-8)"/>
      </g>
    </g>
    <g id="Group_550" data-name="Group 550" transform="translate(0 -0.001)">
      <g id="Group_549" data-name="Group 549" clip-path="url(#clip-path-2)">
        <path id="Path_1277" data-name="Path 1277" d="M2306.48,1240.777c-2.8-2.586-8.149-5.567-10.833-12.5-.808-2.086-3.671-9.476.552-15.13,2.506-3.356,7.162-5.635,11.265-4.828,3.506.689,4.055,3.131,10.013,8.047,2.319,1.913,6.047,4.988,10.2,6.7,7.109,2.93,11.379.173,18.516.488,8.766.386,18.951,5.279,23.858,12.394,8.709,12.628-3.907,25.438,5.632,40.231,3.126,4.847,4.667,3.76,12.07,13.142s11.12,14.091,10.46,19.848c-.916,7.989-9.521,15.62-17.623,16.138-7.915.507-12.947-5.72-16.976-3-2.868,1.938-1.229,5.709-4.275,10.24-3.927,5.842-11.645,7.006-12.891,7.194-11.57,1.745-27.169-11.821-33.795-27.894-11.947-28.984,9.039-57.018-6.168-71.076" transform="translate(-1917.871 -1010.091)" fill="#062d66"/>
        <path id="Path_1278" data-name="Path 1278" d="M2297.378,2076.467c-1.656-4.049-3.665-7.244-4.738-13.468-1.421-8.235.335-12.839,2.84-31.914,1.785-13.6,1.476-15.7.288-17.736-2.58-4.43-8.048-6.4-13.628-7.2.075.286.15.573.211.849,2.927,13.37-8.246,21.528-3.206,36.226,2.485,7.246,6.45,8.906,7.374,17.312.865,7.874-2.274,9.514-1.6,16.67,1,10.7,8.6,13.287,10.579,21.479,1.285,5.323.2,13.107-9.182,24.374.156.971.312,1.945.466,2.935a8.663,8.663,0,0,0,5.5,1.079,8.351,8.351,0,0,0,3.306-1.256c8.052-24.6,5.674-39.851,1.788-49.351" transform="translate(-1904.389 -1677.256)" fill="#063992"/>
        <g id="Group_543" data-name="Group 543" transform="translate(320.4 238.726)" opacity="0.3" style="mix-blend-mode: multiply;isolation: isolate">
          <g id="Group_542" data-name="Group 542">
            <g id="Group_541" data-name="Group 541" clip-path="url(#clip-path-32)">
              <g id="Group_540" data-name="Group 540" transform="translate(0 0)">
                <g id="Group_539" data-name="Group 539" clip-path="url(#clip-path-33)">
                  <rect id="Rectangle_422" data-name="Rectangle 422" width="70.925" height="70.288" transform="translate(-20.804 10.009) rotate(-25.992)" fill="url(#linear-gradient-9)"/>
                </g>
              </g>
            </g>
          </g>
        </g>
        <path id="Path_1280" data-name="Path 1280" d="M2156.656,1351.8c.738-1.147,3.085-4.324,13.046-6.666a60.377,60.377,0,0,1,16.645-1.84,57.029,57.029,0,0,1,9.454,1.172c9.095,1.971,27.225,8.9,27.857,18.328.451,6.736-8.531,7.169-13.612,19.094-3.7,8.688-3.678,19.541.361,27.984,3.241,6.776,8.976,11.862,13.33,15.726,6.531,5.794,9.915,6.685,12.1,11.876,2.385,5.653-.018,8.41,2.944,12.28,3.18,4.156,6.907,2.224,12.3,6.427,5.523,4.305,3.558,7.849,8.583,12.606,7.3,6.912,16.983,4.667,17.433,7.778.388,2.676-6.492,6.306-12.337,7.778-11.576,2.916-21.673-1.978-24.675-3.487-8.313-4.176-6.877-6.879-13.215-10.063-10.612-5.331-17.865.6-42.037,1.212-13.089.331-19.708.406-23.334-4.023-3.311-4.046-1.571-8.482.417-27.605v0c.638-6.386,1.976-19.757,1.984-27.377,0-4.5-1.557-11.861-4.68-26.577-.185-.868-1.875-8.818-3.241-19.438-1.23-9.564-1.052-12.5.676-15.185" transform="translate(-1801.86 -1123.041)" fill="#ffa412"/>
        <g id="Group_548" data-name="Group 548" transform="translate(387.918 238.78)" opacity="0.3" style="mix-blend-mode: multiply;isolation: isolate">
          <g id="Group_547" data-name="Group 547">
            <g id="Group_546" data-name="Group 546" clip-path="url(#clip-path-34)">
              <g id="Group_545" data-name="Group 545" transform="translate(0.001 0)">
                <g id="Group_544" data-name="Group 544" clip-path="url(#clip-path-35)">
                  <rect id="Rectangle_424" data-name="Rectangle 424" width="143.198" height="149.622" transform="matrix(0.806, -0.592, 0.592, 0.806, -59.45, 41.678)" fill="url(#linear-gradient-10)"/>
                </g>
              </g>
            </g>
          </g>
        </g>
        <path id="Path_1282" data-name="Path 1282" d="M2280.371,1272.844s1.04,8.317,4.11,10.223,8.033,4.394,8.579,5.07-19.017,2.778-28.713-2.114c3.2-.667,4.064-.911,4.064-.911a17.962,17.962,0,0,0,4.106-1.625,13.96,13.96,0,0,0,4.515-4.175l-.036-4.606Z" transform="translate(-1893.125 -1064.17)" fill="#ffb27d"/>
        <path id="Path_1283" data-name="Path 1283" d="M2331.19,1251.793a4.6,4.6,0,0,1-5.141,1.6c-2.811-1.025-1.133-8.284,1.1-9.112a3.942,3.942,0,0,1,3.021.416,4.373,4.373,0,0,1,1.374,4.917c.71-.206,1.335-.019,1.491.333.2.446-.4,1.053-.539,1.191a2.386,2.386,0,0,1-1.3.654" transform="translate(-1943.477 -1040.172)" fill="#ffb27d"/>
      </g>
    </g>
    <g id="Group_552" data-name="Group 552" transform="translate(317.071 264.866)">
      <g id="Group_551" data-name="Group 551" clip-path="url(#clip-path-36)">
        <rect id="Rectangle_427" data-name="Rectangle 427" width="14.092" height="14.769" transform="matrix(0.749, -0.662, 0.662, 0.749, -7.718, 6.195)" fill="url(#linear-gradient-11)"/>
      </g>
    </g>
    <g id="Group_554" data-name="Group 554" transform="translate(0 -0.001)">
      <g id="Group_553" data-name="Group 553" clip-path="url(#clip-path-2)">
        <path id="Path_1285" data-name="Path 1285" d="M2410.221,1380.551c6.21,3.076,25.735,12.306,30,38.931a38.732,38.732,0,0,1-8.692,31.514,15.685,15.685,0,0,1-19.371,4.332h0s9.958-40.509-10.277-52.224,8.345-22.552,8.345-22.552" transform="translate(-2002.05 -1154.219)" fill="#ffa412"/>
        <path id="Path_1286" data-name="Path 1286" d="M1979.7,1504.772c0,24.7,19.312,44.127,44,43.369,25.688-.789,47.293-22.974,47.293-49.523s-21.6-45.822-47.293-43.147c-24.683,2.57-44,24.6-44,49.3" transform="translate(-1655.141 -1216.649)" fill="#062d66"/>
        <path id="Path_1287" data-name="Path 1287" d="M1939.012,1491.782c0,24.7,19.313,44.127,44,43.369,25.688-.789,47.293-22.974,47.293-49.523s-21.6-45.822-47.293-43.147c-24.683,2.57-44,24.6-44,49.3" transform="translate(-1621.125 -1205.788)" fill="#3868ad"/>
        <path id="Path_1288" data-name="Path 1288" d="M1950.83,1502.512c0,23.61,18.478,42.152,42.059,41.389,24.5-.793,45.062-21.966,45.062-47.262s-20.566-43.7-45.062-41.186c-23.58,2.416-42.059,23.449-42.059,47.06" transform="translate(-1631.006 -1216.649)" fill="#062d66"/>
        <path id="Path_1289" data-name="Path 1289" d="M1963.281,1513.534c0,20.733,14.981,37.342,34.909,39.2a40.33,40.33,0,0,0,5.128.152c23.277-.782,42.8-20.914,42.8-44.937,0-20.891-14.759-36.846-33.917-39.1a40.625,40.625,0,0,0-8.879-.064c-22.431,2.269-40.037,22.273-40.037,44.751" transform="translate(-1641.416 -1227.809)" fill="#3868ad"/>
      </g>
    </g>
    <g id="Group_556" data-name="Group 556" transform="translate(325.944 244.912)">
      <g id="Group_555" data-name="Group 555" clip-path="url(#clip-path-38)">
        <path id="Path_1290" data-name="Path 1290" d="M2156.725,1581.724c-6.948-.941-11.288-11.246-9.985-20.869s7.755-14.919,14.7-13.978,11.76,7.761,10.457,17.384-8.227,18.4-15.174,17.463" transform="translate(-2120.549 -1538.101)" fill="#d2ebff"/>
        <path id="Path_1291" data-name="Path 1291" d="M2023.884,1778.922h0a31.574,31.574,0,0,1,27.053,35.524l-.2,1.467-62.578-8.471.2-1.468a31.575,31.575,0,0,1,35.524-27.053" transform="translate(-1988.161 -1731.952)" fill="#d2ebff"/>
      </g>
    </g>
    <g id="Group_558" data-name="Group 558" transform="translate(409.882 286.4)">
      <g id="Group_557" data-name="Group 557" clip-path="url(#clip-path-39)">
        <rect id="Rectangle_429" data-name="Rectangle 429" width="13.605" height="22.449" transform="translate(-6.171 1.983) rotate(-17.824)" fill="url(#linear-gradient-12)"/>
      </g>
    </g>
  </g>
</svg>
