<svg xmlns="http://www.w3.org/2000/svg" xmlns:xlink="http://www.w3.org/1999/xlink" width="48" height="42" viewBox="0 0 48 42">
  <defs>
    <clipPath id="clip-path">
      <rect id="Rectangle_4758" data-name="Rectangle 4758" width="48" height="42" transform="translate(0.231 -0.231)" fill="none"/>
    </clipPath>
  </defs>
  <g id="Logo" transform="translate(-0.227 -0.16)">
    <g id="Group_2024" data-name="Group 2024" transform="translate(-0.004 0.39)" clip-path="url(#clip-path)">
      <path id="Path_10936" data-name="Path 10936" d="M30.059,0C51.5,14.307,44.546,30.029,44.546,30.029s6.09,6.739,3.642,12.643c0,0-2.527-4.124-6.721-4.124-4.054,0-6.453,4.124-14.636,4.124C8.629,42.672,0,27.755,0,27.755c16.4,10.607,27.612,3.091,27.612,3.091C20.205,26.645,4.5,6.532,4.5,6.532,18.19,17.965,24.1,20.967,24.1,20.967,20.546,18.114,10.644,4.133,10.644,4.133,18.568,11.994,34.32,22.954,34.32,22.954,38.837,10.842,30.059,0,30.059,0" transform="translate(-0.153 -0.567)" fill="#555"/>
    </g>
  </g>
</svg>
