<svg xmlns="http://www.w3.org/2000/svg" xmlns:xlink="http://www.w3.org/1999/xlink" width="36.592" height="38.49" viewBox="0 0 36.592 38.49">
  <defs>
    <clipPath id="clip-path">
      <rect id="Rectangle_4766" data-name="Rectangle 4766" width="36.592" height="38.49" fill="none"/>
    </clipPath>
  </defs>
  <g id="Logo" clip-path="url(#clip-path)">
    <path id="Path_10947" data-name="Path 10947" d="M31.451,0a10.206,10.206,0,0,0-7.291,3.9,24.534,24.534,0,0,0-4.46,8.208c-1.782-1.461-3.157-3.351-6.018-4.177a7.354,7.354,0,0,0-6.67,1.216,5.955,5.955,0,0,0-2.039,2.971c-.86,2.791.9,5.274,1.7,6.167l1.748,1.871a2.661,2.661,0,0,1,.8,2.7,3.226,3.226,0,0,1-4.105,1.893c-.825-.257-2.011-.87-1.744-1.732a7.319,7.319,0,0,1,.5-.925,4.548,4.548,0,0,0,.221-.576,2.314,2.314,0,0,0-1.3-2.9A1.94,1.94,0,0,0,.133,19.962c-.5,1.612.273,4.533,4.4,5.807,4.837,1.486,8.928-1.149,9.508-4.58.367-2.149-.606-3.751-2.385-5.8l-1.448-1.6a2.643,2.643,0,0,1-.272-3.522c.767-.97,1.86-1.382,3.648-.9,2.611.706,3.776,2.522,5.716,3.982-.8,2.629-1.325,5.27-1.8,7.64l-.292,1.764c-1.39,7.283-2.449,11.28-5.2,13.579a4.468,4.468,0,0,1-2.544,1.028.735.735,0,0,1-.84-.6c-.013-.439.357-.641.6-.839a1.528,1.528,0,0,0,.888-1.6,2.412,2.412,0,0,0-2.595-2.3,3,3,0,0,0-2.788,3.05c.068,2.01,1.941,3.519,4.769,3.421,1.511-.05,4.887-.666,8.213-4.618,3.872-4.533,4.953-9.73,5.769-13.533l.908-5.02c.506.059,1.046.1,1.635.116,4.819.1,7.23-2.4,7.268-4.212a1.97,1.97,0,0,0-1.765-2.156,2.012,2.012,0,0,0-1.908,1.551c-.218,1.013,1.534,1.928.162,2.815a7.634,7.634,0,0,1-5.179.715l.448-2.472c.912-4.685,2.039-10.451,6.307-10.588.312-.016,1.451.013,1.476.767.007.251-.053.316-.35.892a2.037,2.037,0,0,0-.4,1.271A2,2,0,0,0,34.35,5.947a2.453,2.453,0,0,0,2.24-2.654C36.516,1.221,34.332-.088,31.446,0Z" transform="translate(0 0)" fill="#555"/>
  </g>
</svg>
