<svg xmlns="http://www.w3.org/2000/svg" viewBox="0 0 1102.4 60.62"><defs><style>.cls-1{fill:#fff;}</style></defs><g id="Layer_2" data-name="Layer 2"><g id="Layer_1-2" data-name="Layer 1"><path class="cls-1" d="M33.52,5.22V10.5H19.81V48.8h-6.1V10.5H0V5.22Z"/><path class="cls-1" d="M49.11,15.41c.5,0,1.08,0,1.73.09s1.29.15,1.92.25,1.2.21,1.73.32a10.51,10.51,0,0,1,1.16.28l-1,5.09a22.31,22.31,0,0,0-2.3-.59,20.12,20.12,0,0,0-4.12-.35,15.38,15.38,0,0,0-3.24.35c-1.07.23-1.77.38-2.1.47V48.8H37V17.48a40.2,40.2,0,0,1,5.15-1.41A33.19,33.19,0,0,1,49.11,15.41Z"/><path class="cls-1" d="M87.34,47.85q-2,.51-5.31,1.07a45.36,45.36,0,0,1-7.64.57A16.28,16.28,0,0,1,68,48.39a10.23,10.23,0,0,1-4.15-3.11,12.78,12.78,0,0,1-2.27-4.75,24.82,24.82,0,0,1-.69-6.07V16.1h5.85V33.2q0,6,1.89,8.55C69.93,43.47,72,44.33,75,44.33q.95,0,2-.06c.67,0,1.3-.09,1.88-.16S80,44,80.46,43.92a4.29,4.29,0,0,0,1-.22V16.1h5.84Z"/><path class="cls-1" d="M105,44.58a11.55,11.55,0,0,0,5.32-.94,3.19,3.19,0,0,0,1.73-3,4,4,0,0,0-1.7-3.39,26.91,26.91,0,0,0-5.6-2.83c-1.26-.51-2.46-1-3.61-1.54a12.88,12.88,0,0,1-3-1.86,8,8,0,0,1-2-2.58,8.12,8.12,0,0,1-.76-3.71,8.32,8.32,0,0,1,3.21-6.88q3.21-2.55,8.74-2.55a23.39,23.39,0,0,1,2.77.16c.92.1,1.78.23,2.58.37s1.49.31,2.1.48a14.12,14.12,0,0,1,1.42.44l-1.07,5a14.8,14.8,0,0,0-3-1,18.88,18.88,0,0,0-4.84-.53,9,9,0,0,0-4.28,1,3.24,3.24,0,0,0-1.82,3.05,4.24,4.24,0,0,0,.41,1.89,4.31,4.31,0,0,0,1.26,1.47A10.48,10.48,0,0,0,105,28.8c.84.38,1.85.78,3,1.2,1.55.58,2.94,1.16,4.15,1.72a13,13,0,0,1,3.12,2,7.74,7.74,0,0,1,2,2.73,10,10,0,0,1,.69,3.93,7.79,7.79,0,0,1-3.37,6.86q-3.36,2.33-9.59,2.32a25.19,25.19,0,0,1-6.79-.72c-1.63-.48-2.74-.85-3.33-1.1l1.07-5c.67.25,1.74.63,3.21,1.13A18.53,18.53,0,0,0,105,44.58Z"/><path class="cls-1" d="M130.92,16.1h12.39V21H130.92V36.1a18.19,18.19,0,0,0,.38,4,6.14,6.14,0,0,0,1.13,2.52A4.22,4.22,0,0,0,134.32,44a8.37,8.37,0,0,0,2.64.37,12.59,12.59,0,0,0,4.24-.59l2.24-.85,1.13,4.84a22.65,22.65,0,0,1-3.08,1.1,17.57,17.57,0,0,1-5,.66,15.19,15.19,0,0,1-5.51-.85,8,8,0,0,1-3.49-2.55,10.07,10.07,0,0,1-1.85-4.18,27.22,27.22,0,0,1-.54-5.75V7l5.85-1Z"/><path class="cls-1" d="M148.28,32.51a20.87,20.87,0,0,1,1.26-7.58,15.66,15.66,0,0,1,3.33-5.37,13.44,13.44,0,0,1,4.78-3.21,15,15,0,0,1,5.53-1.07q6.6,0,10.13,4.12t3.52,12.54v1a7.45,7.45,0,0,1-.07,1.1H154.38c.25,3.4,1.23,6,3,7.73s4.41,2.65,8,2.65a21.2,21.2,0,0,0,5.19-.54,17.85,17.85,0,0,0,3.18-1l.81,4.91a17.29,17.29,0,0,1-3.74,1.19,26.52,26.52,0,0,1-6.07.63,19.17,19.17,0,0,1-7.38-1.29,13.74,13.74,0,0,1-5.13-3.55,14.51,14.51,0,0,1-3-5.38A22.71,22.71,0,0,1,148.28,32.51Zm22.45-3.21a9.8,9.8,0,0,0-2-6.5,6.83,6.83,0,0,0-5.63-2.55,7.73,7.73,0,0,0-3.55.78,8.4,8.4,0,0,0-2.61,2A9.31,9.31,0,0,0,155.29,26a14.41,14.41,0,0,0-.79,3.33Z"/><path class="cls-1" d="M206.38,1l5.85-1V47.85q-2,.57-5.16,1.14a41.82,41.82,0,0,1-7.23.56,18.46,18.46,0,0,1-6.79-1.19,14.65,14.65,0,0,1-5.16-3.4,15.11,15.11,0,0,1-3.3-5.37,20.8,20.8,0,0,1-1.16-7.14,23.29,23.29,0,0,1,1-6.92,15.56,15.56,0,0,1,2.87-5.41,12.88,12.88,0,0,1,4.62-3.52,14.78,14.78,0,0,1,6.25-1.26,15.23,15.23,0,0,1,5,.76,15.58,15.58,0,0,1,3.24,1.44Zm0,22a11.76,11.76,0,0,0-3.08-1.7,11.49,11.49,0,0,0-4.4-.82,9.39,9.39,0,0,0-4.31.91,7.92,7.92,0,0,0-2.92,2.52,10.58,10.58,0,0,0-1.64,3.8,21.49,21.49,0,0,0-.5,4.72c0,3.81.94,6.76,2.83,8.83a9.7,9.7,0,0,0,7.55,3.12,31.35,31.35,0,0,0,4-.22,18.84,18.84,0,0,0,2.48-.48Z"/><path class="cls-1" d="M265.62,32.51a23.12,23.12,0,0,1-1,6.86,15.5,15.5,0,0,1-2.86,5.4,12.94,12.94,0,0,1-4.62,3.52,14.79,14.79,0,0,1-6.26,1.26,15.33,15.33,0,0,1-5-.75,16.19,16.19,0,0,1-3.23-1.45V60.43h-5.85V17.1q2.07-.5,5.18-1.1a39.41,39.41,0,0,1,7.21-.59A18.5,18.5,0,0,1,256,16.6a14.52,14.52,0,0,1,5.15,3.4,14.83,14.83,0,0,1,3.3,5.37A20.56,20.56,0,0,1,265.62,32.51Zm-6.1,0c0-3.81-.95-6.75-2.83-8.8a9.74,9.74,0,0,0-7.55-3.08,36.25,36.25,0,0,0-4.12.18,18.23,18.23,0,0,0-2.35.44V41.88a11.89,11.89,0,0,0,3.08,1.7,11.64,11.64,0,0,0,4.4.82,9.42,9.42,0,0,0,4.31-.92A7.8,7.8,0,0,0,257.38,41,10.85,10.85,0,0,0,259,37.2,21.08,21.08,0,0,0,259.52,32.51Z"/><path class="cls-1" d="M284.42,15.28a17.1,17.1,0,0,1,5.94.91,9.59,9.59,0,0,1,3.9,2.58,9.71,9.71,0,0,1,2.11,4,19.1,19.1,0,0,1,.63,5.06V48.23l-2.11.35c-.9.15-1.92.28-3.05.41s-2.36.24-3.68.34-2.63.16-3.93.16a21.38,21.38,0,0,1-5.09-.57,11.24,11.24,0,0,1-4-1.79,8.26,8.26,0,0,1-2.64-3.24,11.29,11.29,0,0,1-.94-4.84,9.25,9.25,0,0,1,1.1-4.65,8.77,8.77,0,0,1,3-3.15,13.93,13.93,0,0,1,4.4-1.76,24.35,24.35,0,0,1,5.28-.56c.59,0,1.19,0,1.82.09s1.23.15,1.8.25l1.47.29.88.18V28.11a13.12,13.12,0,0,0-.31-2.86,6.64,6.64,0,0,0-1.13-2.52A5.81,5.81,0,0,0,287.6,21a8.78,8.78,0,0,0-3.68-.66,28,28,0,0,0-5.07.41,17.72,17.72,0,0,0-3.23.85l-.7-4.84a18.21,18.21,0,0,1,3.78-1A32.94,32.94,0,0,1,284.42,15.28Zm.5,29.3c1.39,0,2.61,0,3.68-.09a15.4,15.4,0,0,0,2.67-.35V34.4a7.57,7.57,0,0,0-2-.54,23.68,23.68,0,0,0-3.43-.22,23.38,23.38,0,0,0-2.8.19,8.73,8.73,0,0,0-2.7.79,5.74,5.74,0,0,0-2,1.63,4.28,4.28,0,0,0-.82,2.74q0,3.13,2,4.37A10.46,10.46,0,0,0,284.92,44.58Z"/><path class="cls-1" d="M318.75,15.41c.51,0,1.08,0,1.73.09s1.29.15,1.92.25,1.21.21,1.73.32a10.51,10.51,0,0,1,1.16.28l-1,5.09a21.62,21.62,0,0,0-2.3-.59,20.12,20.12,0,0,0-4.12-.35,15.38,15.38,0,0,0-3.24.35c-1.06.23-1.77.38-2.1.47V48.8h-5.85V17.48a39.94,39.94,0,0,1,5.16-1.41A33.09,33.09,0,0,1,318.75,15.41Z"/><path class="cls-1" d="M336.42,16.1h12.39V21H336.42V36.1a18.19,18.19,0,0,0,.38,4,6.14,6.14,0,0,0,1.13,2.52A4.22,4.22,0,0,0,339.82,44a8.37,8.37,0,0,0,2.64.37,12.59,12.59,0,0,0,4.24-.59l2.24-.85,1.13,4.84a22.65,22.65,0,0,1-3.08,1.1,17.57,17.57,0,0,1-5,.66,15.19,15.19,0,0,1-5.51-.85A8,8,0,0,1,333,46.09a10.07,10.07,0,0,1-1.85-4.18,27.22,27.22,0,0,1-.54-5.75V7l5.85-1Z"/><path class="cls-1" d="M356.23,17q2-.49,5.35-1.07a47.08,47.08,0,0,1,7.67-.56,16.47,16.47,0,0,1,6.48,1.1,10.08,10.08,0,0,1,4.11,3.08A11.86,11.86,0,0,1,382,24.34a27.42,27.42,0,0,1,.63,6.1V48.8h-5.85V31.69a28.11,28.11,0,0,0-.4-5.15A8.79,8.79,0,0,0,375,23.08a5.35,5.35,0,0,0-2.51-1.92,11,11,0,0,0-3.9-.6c-.63,0-1.28,0-1.95.07s-1.31.09-1.92.15-1.15.14-1.63.22l-1,.19V48.8h-5.85Z"/><path class="cls-1" d="M390.5,32.51a20.87,20.87,0,0,1,1.26-7.58,15.81,15.81,0,0,1,3.33-5.37,13.53,13.53,0,0,1,4.78-3.21,15,15,0,0,1,5.54-1.07q6.6,0,10.12,4.12t3.52,12.54v1A9.23,9.23,0,0,1,419,34H396.6c.25,3.4,1.24,6,3,7.73s4.4,2.65,8.05,2.65a21.17,21.17,0,0,0,5.18-.54,17.57,17.57,0,0,0,3.18-1l.82,4.91a17.49,17.49,0,0,1-3.74,1.19,26.64,26.64,0,0,1-6.07.63,19.23,19.23,0,0,1-7.39-1.29,13.83,13.83,0,0,1-5.13-3.55,14.49,14.49,0,0,1-3-5.38A22.7,22.7,0,0,1,390.5,32.51ZM413,29.3a9.8,9.8,0,0,0-2-6.5,6.82,6.82,0,0,0-5.63-2.55,7.76,7.76,0,0,0-3.55.78,8.4,8.4,0,0,0-2.61,2A9.51,9.51,0,0,0,397.51,26a14.39,14.39,0,0,0-.78,3.33Z"/><path class="cls-1" d="M439.55,15.41c.5,0,1.08,0,1.73.09s1.29.15,1.92.25,1.2.21,1.73.32a10.51,10.51,0,0,1,1.16.28l-1,5.09a21.28,21.28,0,0,0-2.29-.59,20.12,20.12,0,0,0-4.12-.35,15.38,15.38,0,0,0-3.24.35c-1.07.23-1.77.38-2.1.47V48.8h-5.85V17.48a40.2,40.2,0,0,1,5.15-1.41A33.19,33.19,0,0,1,439.55,15.41Z"/><path class="cls-1" d="M479,0a22.56,22.56,0,0,1,4.43.38,15.52,15.52,0,0,1,2.61.69L485,6.1a10.82,10.82,0,0,0-2.13-.72,14.33,14.33,0,0,0-3.4-.35c-2.72,0-4.63.75-5.72,2.23a10,10,0,0,0-1.64,6V16.1H484.7V21H472.12V48.8h-5.84V13.14q0-6.29,3.08-9.71T479,0Z"/><path class="cls-1" d="M519.41,32.45a20.75,20.75,0,0,1-1.13,7,16.06,16.06,0,0,1-3.18,5.41,13.92,13.92,0,0,1-4.87,3.49,16,16,0,0,1-12.32,0A14,14,0,0,1,493,44.9a16,16,0,0,1-3.17-5.41,20.51,20.51,0,0,1-1.14-7,20.58,20.58,0,0,1,1.14-7A16,16,0,0,1,493,20a13.83,13.83,0,0,1,4.88-3.49,16,16,0,0,1,12.32,0A13.8,13.8,0,0,1,515.1,20a16,16,0,0,1,3.18,5.44A20.82,20.82,0,0,1,519.41,32.45Zm-6.1,0q0-5.54-2.48-8.77a8.67,8.67,0,0,0-13.52,0q-2.49,3.24-2.49,8.77t2.49,8.77a8.67,8.67,0,0,0,13.52,0Q513.31,38,513.31,32.45Z"/><path class="cls-1" d="M539.72,15.41c.51,0,1.08,0,1.73.09s1.29.15,1.92.25,1.2.21,1.73.32a10.51,10.51,0,0,1,1.16.28l-1,5.09a21.62,21.62,0,0,0-2.3-.59,20.12,20.12,0,0,0-4.12-.35,15.38,15.38,0,0,0-3.24.35c-1.06.23-1.77.38-2.1.47V48.8h-5.85V17.48a39.94,39.94,0,0,1,5.16-1.41A33.09,33.09,0,0,1,539.72,15.41Z"/><path class="cls-1" d="M571.92,16.1h12.39V21H571.92V36.1a17.61,17.61,0,0,0,.38,4,6,6,0,0,0,1.13,2.52A4.19,4.19,0,0,0,575.31,44a8.46,8.46,0,0,0,2.64.37,12.65,12.65,0,0,0,4.25-.59l2.23-.85,1.13,4.84a21.65,21.65,0,0,1-3.08,1.1,17.47,17.47,0,0,1-5,.66,15.17,15.17,0,0,1-5.5-.85,8,8,0,0,1-3.49-2.55,10.21,10.21,0,0,1-1.86-4.18,27.94,27.94,0,0,1-.53-5.75V7l5.85-1Z"/><path class="cls-1" d="M591.73,48.8V1l5.84-1V16.73a19.88,19.88,0,0,1,3.49-1,20.16,20.16,0,0,1,3.68-.34,16.47,16.47,0,0,1,6.48,1.1,10.12,10.12,0,0,1,4.12,3.08,11.86,11.86,0,0,1,2.17,4.75,27.42,27.42,0,0,1,.63,6.1V48.8h-5.85V31.69a28,28,0,0,0-.41-5.15,8.64,8.64,0,0,0-1.35-3.46A5.38,5.38,0,0,0,608,21.16a11,11,0,0,0-3.9-.6,14.62,14.62,0,0,0-2,.13c-.67.08-1.31.18-1.91.28s-1.16.22-1.64.35a9.77,9.77,0,0,0-1,.31V48.8Z"/><path class="cls-1" d="M639.71,15.41c.5,0,1.08,0,1.73.09s1.29.15,1.91.25,1.21.21,1.73.32a10.82,10.82,0,0,1,1.17.28l-1,5.09a21.62,21.62,0,0,0-2.3-.59,20,20,0,0,0-4.11-.35,15.38,15.38,0,0,0-3.24.35c-1.07.23-1.77.38-2.11.47V48.8h-5.85V17.48a40.4,40.4,0,0,1,5.16-1.41A33.12,33.12,0,0,1,639.71,15.41Z"/><path class="cls-1" d="M654.8,10.19a3.75,3.75,0,0,1-2.67-1A3.64,3.64,0,0,1,651,6.35a3.65,3.65,0,0,1,1.11-2.8,4,4,0,0,1,5.34,0,3.68,3.68,0,0,1,1.1,2.8,3.67,3.67,0,0,1-1.1,2.8A3.75,3.75,0,0,1,654.8,10.19Zm3,38.61H651.9V16.1h5.85Z"/><path class="cls-1" d="M693.35,16.1a166.5,166.5,0,0,1-5.76,17.61q-3.3,8.41-6.38,15.09h-5.28q-3.09-6.67-6.39-15.09a166.48,166.48,0,0,1-5.75-17.61h6.29q.75,3.07,1.79,6.57c.69,2.33,1.43,4.63,2.2,6.92s1.56,4.49,2.36,6.63,1.55,4.05,2.26,5.72c.72-1.67,1.47-3.58,2.27-5.72s1.58-4.35,2.35-6.63,1.51-4.59,2.21-6.92,1.29-4.52,1.79-6.57Z"/><path class="cls-1" d="M702.27,10.19a3.76,3.76,0,0,1-2.67-1,3.67,3.67,0,0,1-1.1-2.8,3.68,3.68,0,0,1,1.1-2.8,4,4,0,0,1,5.35,0,3.68,3.68,0,0,1,1.1,2.8,3.67,3.67,0,0,1-1.1,2.8A3.79,3.79,0,0,1,702.27,10.19Zm3,38.61h-5.85V16.1h5.85Z"/><path class="cls-1" d="M715.29,17q2-.49,5.35-1.07a47.08,47.08,0,0,1,7.67-.56,16.38,16.38,0,0,1,6.47,1.1,10.05,10.05,0,0,1,4.12,3.08,11.86,11.86,0,0,1,2.17,4.75,27.42,27.42,0,0,1,.63,6.1V48.8h-5.85V31.69a28.11,28.11,0,0,0-.4-5.15,8.79,8.79,0,0,0-1.36-3.46,5.35,5.35,0,0,0-2.51-1.92,11,11,0,0,0-3.9-.6c-.63,0-1.28,0-1.95.07s-1.31.09-1.92.15-1.15.14-1.63.22l-1,.19V48.8h-5.85Z"/><path class="cls-1" d="M771.89,45.53A16.65,16.65,0,0,1,769,46.82a14.9,14.9,0,0,1-5.06.78,16.25,16.25,0,0,1-5.57-.94,12.1,12.1,0,0,1-4.56-2.92,14.37,14.37,0,0,1-3.08-4.94,19.8,19.8,0,0,1-1.13-7,19.43,19.43,0,0,1,1.07-6.57,14.11,14.11,0,0,1,8.11-8.56,17.24,17.24,0,0,1,6.67-1.22,38.38,38.38,0,0,1,7.14.59q3,.6,5.12,1.1V46.28q0,7.55-3.9,10.94T762,60.62a32.77,32.77,0,0,1-5.82-.5,33.93,33.93,0,0,1-4.74-1.2l1.06-5.09a26.91,26.91,0,0,0,4.31,1.22,25.6,25.6,0,0,0,5.32.54q5.22,0,7.51-2.08t2.3-6.6Zm-.07-24.28a21.39,21.39,0,0,0-2.35-.47,29.65,29.65,0,0,0-4-.22,8.9,8.9,0,0,0-7.26,3.08,12.43,12.43,0,0,0-2.55,8.18,14.13,14.13,0,0,0,.73,4.84A9.66,9.66,0,0,0,758.33,40a7.74,7.74,0,0,0,2.83,1.95,9,9,0,0,0,3.31.63,13.23,13.23,0,0,0,4.27-.66,10.38,10.38,0,0,0,3.08-1.54Z"/><path class="cls-1" d="M808.1,17.54a16.09,16.09,0,0,1,3.24-1.44,15.32,15.32,0,0,1,5-.76,14.79,14.79,0,0,1,6.26,1.26,13.05,13.05,0,0,1,4.62,3.52,15.54,15.54,0,0,1,2.86,5.41,23.28,23.28,0,0,1,1,6.92,20.56,20.56,0,0,1-1.17,7.14,14.83,14.83,0,0,1-3.3,5.37,14.52,14.52,0,0,1-5.15,3.4,18.5,18.5,0,0,1-6.79,1.19,42,42,0,0,1-7.24-.56q-3.13-.57-5.15-1.14V1l5.84-1Zm0,26.16a19,19,0,0,0,2.49.48,31.35,31.35,0,0,0,4,.22,9.7,9.7,0,0,0,7.55-3.12c1.89-2.07,2.83-5,2.83-8.83a20.89,20.89,0,0,0-.51-4.72,10.57,10.57,0,0,0-1.63-3.8,8,8,0,0,0-2.92-2.52,9.42,9.42,0,0,0-4.31-.91,11.45,11.45,0,0,0-4.4.82A11.85,11.85,0,0,0,808.1,23Z"/><path class="cls-1" d="M865.33,47.85q-2,.51-5.31,1.07a45.49,45.49,0,0,1-7.65.57,16.28,16.28,0,0,1-6.35-1.1,10.23,10.23,0,0,1-4.15-3.11,12.61,12.61,0,0,1-2.26-4.75,24.82,24.82,0,0,1-.69-6.07V16.1h5.85V33.2q0,6,1.88,8.55T853,44.33q.94,0,2-.06c.67,0,1.3-.09,1.89-.16s1.12-.12,1.6-.19a4.29,4.29,0,0,0,1-.22V16.1h5.85Z"/><path class="cls-1" d="M883,44.58a11.48,11.48,0,0,0,5.31-.94,3.19,3.19,0,0,0,1.73-3,4,4,0,0,0-1.7-3.39,26.77,26.77,0,0,0-5.59-2.83c-1.26-.51-2.47-1-3.62-1.54a13.1,13.1,0,0,1-3-1.86,7.7,7.7,0,0,1-2.76-6.29,8.34,8.34,0,0,1,3.2-6.88q3.21-2.55,8.75-2.55a23.22,23.22,0,0,1,2.76.16c.92.1,1.78.23,2.58.37s1.5.31,2.11.48a13.79,13.79,0,0,1,1.41.44l-1.07,5a14.66,14.66,0,0,0-3-1,19,19,0,0,0-4.84-.53,8.92,8.92,0,0,0-4.28,1,3.22,3.22,0,0,0-1.82,3.05,4.23,4.23,0,0,0,.4,1.89,4.54,4.54,0,0,0,1.26,1.47A10.58,10.58,0,0,0,883,28.8c.84.38,1.84.78,3,1.2,1.55.58,2.93,1.16,4.15,1.72a13.08,13.08,0,0,1,3.11,2,7.5,7.5,0,0,1,2,2.73,10,10,0,0,1,.69,3.93,7.81,7.81,0,0,1-3.36,6.86q-3.36,2.33-9.59,2.32a25.14,25.14,0,0,1-6.79-.72c-1.64-.48-2.75-.85-3.34-1.1l1.07-5c.67.25,1.74.63,3.21,1.13A18.64,18.64,0,0,0,883,44.58Z"/><path class="cls-1" d="M906.33,10.19a3.75,3.75,0,0,1-2.67-1,3.63,3.63,0,0,1-1.1-2.8,3.65,3.65,0,0,1,1.1-2.8,4,4,0,0,1,5.34,0,3.68,3.68,0,0,1,1.1,2.8,3.67,3.67,0,0,1-1.1,2.8A3.75,3.75,0,0,1,906.33,10.19Zm2.95,38.61h-5.84V16.1h5.84Z"/><path class="cls-1" d="M919.35,17q2-.49,5.34-1.07a47.08,47.08,0,0,1,7.67-.56,16.47,16.47,0,0,1,6.48,1.1A10.12,10.12,0,0,1,943,19.59a11.86,11.86,0,0,1,2.17,4.75,27.42,27.42,0,0,1,.63,6.1V48.8h-5.85V31.69a28,28,0,0,0-.41-5.15,8.64,8.64,0,0,0-1.35-3.46,5.38,5.38,0,0,0-2.52-1.92,11,11,0,0,0-3.9-.6c-.63,0-1.28,0-2,.07s-1.31.09-1.91.15-1.16.14-1.64.22l-1,.19V48.8h-5.84Z"/><path class="cls-1" d="M953.62,32.51a21.09,21.09,0,0,1,1.25-7.58,15.68,15.68,0,0,1,3.34-5.37A13.35,13.35,0,0,1,963,16.35a14.94,14.94,0,0,1,5.53-1.07q6.6,0,10.13,4.12t3.52,12.54v1a9.12,9.12,0,0,1-.07,1.1H959.72c.25,3.4,1.23,6,2.95,7.73s4.4,2.65,8.05,2.65a21.31,21.31,0,0,0,5.19-.54,17.69,17.69,0,0,0,3.17-1l.82,4.91a17.29,17.29,0,0,1-3.74,1.19,26.52,26.52,0,0,1-6.07.63,19.26,19.26,0,0,1-7.39-1.29,13.79,13.79,0,0,1-5.12-3.55,14.51,14.51,0,0,1-3-5.38A22.71,22.71,0,0,1,953.62,32.51Zm22.45-3.21a9.8,9.8,0,0,0-2-6.5,6.83,6.83,0,0,0-5.63-2.55,7.78,7.78,0,0,0-3.56.78,8.64,8.64,0,0,0-2.61,2A9.49,9.49,0,0,0,960.63,26a14.41,14.41,0,0,0-.79,3.33Z"/><path class="cls-1" d="M998.2,44.58a11.48,11.48,0,0,0,5.31-.94,3.18,3.18,0,0,0,1.73-3,4,4,0,0,0-1.69-3.39A27.17,27.17,0,0,0,998,34.4c-1.26-.51-2.46-1-3.62-1.54a12.81,12.81,0,0,1-3-1.86,8.13,8.13,0,0,1-2-2.58,8.26,8.26,0,0,1-.75-3.71,8.32,8.32,0,0,1,3.21-6.88c2.13-1.7,5.05-2.55,8.74-2.55a23.22,23.22,0,0,1,2.76.16c.93.1,1.79.23,2.58.37s1.5.31,2.11.48a13,13,0,0,1,1.41.44l-1.07,5a14.43,14.43,0,0,0-3-1,18.93,18.93,0,0,0-4.84-.53,9,9,0,0,0-4.28,1,3.22,3.22,0,0,0-1.82,3.05,4.11,4.11,0,0,0,.41,1.89,4.39,4.39,0,0,0,1.25,1.47,10.58,10.58,0,0,0,2.11,1.23c.84.38,1.85.78,3,1.2,1.55.58,2.93,1.16,4.15,1.72a13.08,13.08,0,0,1,3.11,2,7.5,7.5,0,0,1,2,2.73,10,10,0,0,1,.69,3.93,7.81,7.81,0,0,1-3.36,6.86q-3.36,2.33-9.59,2.32a25.14,25.14,0,0,1-6.79-.72,34,34,0,0,1-3.33-1.1l1.07-5c.67.25,1.73.63,3.2,1.13A18.64,18.64,0,0,0,998.2,44.58Z"/><path class="cls-1" d="M1026.25,44.58a11.48,11.48,0,0,0,5.31-.94,3.19,3.19,0,0,0,1.73-3,4,4,0,0,0-1.7-3.39,26.91,26.91,0,0,0-5.6-2.83c-1.25-.51-2.46-1-3.61-1.54a13.1,13.1,0,0,1-3-1.86,8,8,0,0,1-2-2.58,8.26,8.26,0,0,1-.75-3.71,8.31,8.31,0,0,1,3.2-6.88q3.21-2.55,8.74-2.55a23.39,23.39,0,0,1,2.77.16c.92.1,1.78.23,2.58.37s1.5.31,2.1.48a14.12,14.12,0,0,1,1.42.44l-1.07,5a14.66,14.66,0,0,0-2.95-1,19,19,0,0,0-4.85-.53,8.91,8.91,0,0,0-4.27,1,3.23,3.23,0,0,0-1.83,3.05,4.24,4.24,0,0,0,.41,1.89,4.31,4.31,0,0,0,1.26,1.47,10.58,10.58,0,0,0,2.11,1.23c.83.38,1.84.78,3,1.2,1.55.58,2.93,1.16,4.15,1.72a13.08,13.08,0,0,1,3.11,2,7.5,7.5,0,0,1,2,2.73,10,10,0,0,1,.69,3.93,7.81,7.81,0,0,1-3.36,6.86c-2.25,1.55-5.44,2.32-9.59,2.32a25.09,25.09,0,0,1-6.79-.72c-1.64-.48-2.75-.85-3.34-1.1l1.07-5c.67.25,1.74.63,3.21,1.13A18.6,18.6,0,0,0,1026.25,44.58Z"/><path class="cls-1" d="M1044.86,32.51a20.87,20.87,0,0,1,1.26-7.58,15.81,15.81,0,0,1,3.33-5.37,13.44,13.44,0,0,1,4.78-3.21,15,15,0,0,1,5.53-1.07q6.62,0,10.13,4.12t3.52,12.54v1a9.23,9.23,0,0,1-.06,1.1H1051c.25,3.4,1.24,6,3,7.73s4.4,2.65,8,2.65a21.17,21.17,0,0,0,5.18-.54,17.57,17.57,0,0,0,3.18-1l.82,4.91a17.43,17.43,0,0,1-3.75,1.19,26.49,26.49,0,0,1-6.06.63,19.19,19.19,0,0,1-7.39-1.29,13.74,13.74,0,0,1-5.13-3.55,14.35,14.35,0,0,1-3-5.38A22.7,22.7,0,0,1,1044.86,32.51Zm22.45-3.21a9.8,9.8,0,0,0-2-6.5,6.82,6.82,0,0,0-5.63-2.55,7.76,7.76,0,0,0-3.55.78,8.4,8.4,0,0,0-2.61,2,9.51,9.51,0,0,0-1.67,2.89,13.89,13.89,0,0,0-.78,3.33Z"/><path class="cls-1" d="M1089.44,44.58a11.55,11.55,0,0,0,5.32-.94,3.19,3.19,0,0,0,1.73-3,4,4,0,0,0-1.7-3.39,26.91,26.91,0,0,0-5.6-2.83c-1.25-.51-2.46-1-3.61-1.54a12.88,12.88,0,0,1-3-1.86,8,8,0,0,1-2-2.58,8.12,8.12,0,0,1-.76-3.71,8.32,8.32,0,0,1,3.21-6.88q3.21-2.55,8.74-2.55a23.39,23.39,0,0,1,2.77.16c.92.1,1.78.23,2.58.37s1.49.31,2.1.48a14.12,14.12,0,0,1,1.42.44l-1.07,5a14.8,14.8,0,0,0-3-1,18.88,18.88,0,0,0-4.84-.53,8.91,8.91,0,0,0-4.27,1,3.23,3.23,0,0,0-1.83,3.05,4.24,4.24,0,0,0,.41,1.89,4.31,4.31,0,0,0,1.26,1.47,10.48,10.48,0,0,0,2.1,1.23c.84.38,1.85.78,3,1.2,1.55.58,2.94,1.16,4.15,1.72a13,13,0,0,1,3.12,2,7.5,7.5,0,0,1,2,2.73,10,10,0,0,1,.69,3.93,7.79,7.79,0,0,1-3.37,6.86c-2.24,1.55-5.43,2.32-9.59,2.32a25.19,25.19,0,0,1-6.79-.72c-1.63-.48-2.74-.85-3.33-1.1l1.07-5c.67.25,1.74.63,3.21,1.13A18.53,18.53,0,0,0,1089.44,44.58Z"/></g></g></svg>