<?xml version="1.0" encoding="utf-8"?>
<!-- Generator: Adobe Illustrator 26.0.2, SVG Export Plug-In . SVG Version: 6.00 Build 0)  -->
<svg version="1.1" id="Layer_1" xmlns="http://www.w3.org/2000/svg" xmlns:xlink="http://www.w3.org/1999/xlink" x="0px" y="0px"
	 viewBox="0 0 1090.12 169.81" style="enable-background:new 0 0 1090.12 169.81;" xml:space="preserve">
<style type="text/css">
	.st0{fill:#A8A8A8;}
	.st1{fill:#555555;}
</style>
<g id="DAAC_Hermes_00000034805758836773082370000004611455442343204252_">
	<path id="D_00000057108401819926470520000006247785190087898753_" class="st0" d="M110.17,38.91c-6.84-2.84-14.79-3.72-22.3-4.05
		c-15.11-0.65-30.27-0.31-45.41-0.39c0,33.22,0,66.44,0,99.66c17.3-0.07,34.62,0.29,51.9-0.31c19.58-0.68,36.07-14.24,39.14-32.95
		c1.6-9.78,1.62-20.19,0.23-30.01C131.67,56.47,123.99,44.65,110.17,38.91z M107.62,96.38c-1.7,10.83-9.4,17.51-20.33,18.67
		c-5.71,0.61-11.52,0.23-17.28,0.42c-2.84,0.1-2.82-1.68-2.82-3.67c0.02-9.23,0.01-18.45,0.01-27.68c0-8.94,0.11-17.88-0.06-26.81
		c-0.06-3.07,1.04-4.05,4-3.91c4.32,0.2,8.65-0.06,12.97,0.12c13.02,0.52,22.08,7.79,23.86,20.6
		C109,81.39,108.76,89.09,107.62,96.38z"/>
	<path id="AA_00000106121604756892887080000000497405267062194858_" class="st0" d="M301.4,37.49c-0.48-1.26-2.57-2.61-3.96-2.68
		c-6.05-0.29-12.13,0.05-18.18-0.2c-2.9-0.12-4.04,1.16-4.94,3.59c-8.54,23.12-17.14,46.22-25.76,69.32
		c-2.84,7.62-5.78,15.21-9.13,24.03c-1.56-3.8-2.7-6.39-3.69-9.03c-10.57-28.22-21.15-56.43-31.63-84.68
		c-0.91-2.44-2.21-3.28-4.77-3.2c-5.91,0.17-11.84,0.15-17.75,0.01c-2.49-0.06-3.84,0.63-4.77,3.14
		c-11.33,30.55-22.78,61.05-34.19,91.57c-0.52,1.4-0.85,2.88-1.43,4.89c8.16,0,15.65,0.12,23.13-0.13c1.06-0.04,2.53-1.69,3.01-2.91
		c1.65-4.14,2.74-8.52,4.51-12.6c0.56-1.29,2.56-2.73,3.93-2.76c9.81-0.24,19.63-0.24,29.45,0.01c1.33,0.03,3.24,1.59,3.81,2.9
		c1.78,4.09,2.94,8.44,4.58,12.59c0.45,1.13,1.71,2.72,2.65,2.75c6.63,0.24,13.28,0.24,19.91,0.05c1.17-0.03,2.31-1.28,2.83-1.59
		c1.79,0.68,3.15,1.61,4.54,1.64c5.91,0.17,11.84,0.23,17.75-0.06c1.27-0.06,3.09-1.44,3.6-2.66c1.78-4.25,2.92-8.76,4.69-13
		c0.5-1.21,2.32-2.62,3.57-2.65c9.96-0.22,19.92-0.21,29.88,0c1.27,0.03,3.14,1.37,3.65,2.57c1.79,4.24,2.98,8.73,4.71,13.01
		c0.48,1.18,2.01,2.69,3.1,2.73c7.47,0.24,14.96,0.13,23.08,0.13c-0.67-2.19-1.02-3.57-1.52-4.9
		C324.55,98.7,313.06,68.06,301.4,37.49z M177.77,98.83c4.21-12.31,8.16-23.85,12.1-35.39c0.38-0.06,0.75-0.12,1.13-0.18
		c3.97,11.68,7.95,23.36,12.1,35.57C194.5,98.83,186.56,98.83,177.77,98.83z M275.48,98.9c4.15-12.16,8.15-23.87,12.15-35.59
		c0.36-0.02,0.72-0.04,1.08-0.06c3.95,11.63,7.91,23.26,12.12,35.65C292.12,98.9,284.26,98.9,275.48,98.9z"/>
	<path id="C_00000156559263909814147320000004521048636996092044_" class="st0" d="M413.87,102.6c-2.44,8.42-7.31,14.38-16.45,15.68
		c-9.1,1.3-16.31-1.67-21.62-9.46c-8.47-12.43-8.13-38.14,0.9-50.23c8.01-10.71,26.3-10.43,33.65,0.68c1.7,2.56,2.54,5.69,3.79,8.61
		c7.62,0,15.23,0,23.08,0c-0.55-16.22-11.95-30.72-27.79-33.88c-8.49-1.69-17.5-1.9-26.18-1.34c-17.47,1.13-28.99,10.94-35.16,27.08
		c-5.74,15.01-5.85,30.42-2.61,45.98c2.25,10.82,8.33,18.67,17.86,24.28c12.74,7.51,26.38,8.28,40.59,6.73
		c12.05-1.31,21.08-7.33,27.86-16.99c4.11-5.86,6.08-12.52,6.49-19.9c-8.17,0-15.9,0-23.58,0
		C414.37,100.95,414.11,101.77,413.87,102.6z"/>
	<path id="H_00000110442640715474212620000010666079521475137707_" class="st1" d="M562.19,71.74c-11.94,0-23.39,0-35.37,0
		c0-12.53,0-24.71,0-36.97c-8.4,0-16.26,0-24.18,0c0,33.35,0,66.42,0,99.49c8.28,0,16.12,0,24.28,0c0-1.95,0-3.52,0-5.09
		c0-11.26,0.09-22.51-0.06-33.77c-0.04-3,0.86-4.08,3.92-3.96c5.19,0.21,10.39,0.06,15.58,0.06c5.15,0,10.3,0,15.84,0
		c0,14.52,0,28.46,0,42.83c8.57,0,16.43,0,24.42,0c0-33.38,0-66.45,0-99.54c-8.26,0-16.12,0-24.45,0
		C562.19,47.29,562.19,59.49,562.19,71.74z"/>
	<path id="e_00000151510286357303457400000013714366767967662475_" class="st1" d="M649.32,59.79c-3.59-0.25-7.23-0.27-10.81,0.03
		c-15.48,1.33-27.74,8.02-32.72,23.36c-4.92,15.17-4.42,29.94,7.01,43c12.18,13.91,49.11,14.9,61.31-0.31
		c2.69-3.36,4.66-7.29,6.96-10.95c-0.42-0.43-0.83-0.85-1.25-1.28c-5.61,0-11.23,0.16-16.84-0.06c-3.28-0.13-5.72,0.2-7.07,3.83
		c-0.57,1.53-2.49,2.79-4.08,3.66c-5.58,3.05-11.48,3.49-16.84-0.12c-6.1-4.11-7.95-10.56-8.31-18.19c18.53,0,36.77,0,54.89,0
		C685.69,80.63,670.97,61.27,649.32,59.79z M658.28,91.37c-10.49,0-20.67,0-30.84,0c-0.85-9.6,6.69-17.91,16.17-18.03
		C653.29,73.21,659.1,80.16,658.28,91.37z"/>
	<path id="r_00000021828362427321470130000012547084095334534823_" class="st1" d="M718.26,69.96c0-2.44,0-5.08,0-7.65
		c-7.47,0-14.43,0-21.3,0c0,24.26,0,48.11,0,72.09c7.53,0,14.68,0,22.4,0c0-2.28-0.03-3.99,0-5.71c0.18-10.66-0.16-21.37,0.69-31.98
		c1.09-13.59,11.04-20.98,24.53-19.25c0.92,0.12,1.87,0.02,2.8,0.02c0-5.74,0-11.14,0-17.37c-5.51,0.78-10.83,0.79-15.62,2.4
		C727.08,64.08,722.95,67.29,718.26,69.96z"/>
	<path id="m_00000130638931073649869220000002201396778460852659_" class="st1" d="M873.2,110c-0.13-9.23,0.19-18.53-0.78-27.68
		c-1.02-9.71-4.75-18.7-15.36-21.43c-11.92-3.07-22.97-1.04-31.52,8.86c-0.63,0.73-1.39,1.35-2.46,2.37
		c-4.59-8.22-11.33-12.2-20.53-12.46c-9.08-0.26-15.92,3.95-22.43,10.78c-0.24-3.36-0.41-5.71-0.58-8.17c-7.11,0-13.93,0-20.94,0
		c0,24.16,0,47.93,0,72.02c7.59,0,14.99,0,22.81,0c0-1.89,0-3.45,0-5.01c0-11.84-0.06-23.69,0.05-35.53
		c0.03-2.86,0.3-5.81,1.09-8.54c1.98-6.84,9.17-10.74,15.23-8.35c5.78,2.27,6.2,7.71,6.39,12.69c0.36,9.66,0.14,19.35,0.15,29.03
		c0.01,5.16,0,10.33,0,16.06c6.28,0,12.18-0.28,18.05,0.09c4.19,0.26,5.03-1.34,4.97-5.17c-0.21-12.42-0.07-24.84-0.07-37.26
		c0-5.43,1.32-10.29,5.86-13.8c6.01-4.65,13.73-2.44,15.88,4.78c0.85,2.85,1.13,5.96,1.16,8.96c0.13,12.42,0.06,24.84,0.06,37.26
		c0,1.54,0,3.07,0,5.13c6.72,0,12.9-0.12,19.07,0.05c2.95,0.08,4.09-0.78,4-3.89C873.08,123.87,873.3,116.93,873.2,110z"/>
	<path id="e_00000131334251297676746160000017967749320765358493_" class="st1" d="M966.69,102.59c-0.87-6.35-1.06-12.19-2.54-17.68
		c-2.81-10.34-8.57-18.85-19.14-22.49c-13.33-4.59-26.76-4.25-39.52,2.12c-3.63,1.81-6.97,4.72-9.69,7.79
		c-8.24,9.3-9.64,20.59-8.55,32.48c1.39,15.16,9.35,25.37,23.71,29.82c11.97,3.71,24.33,3.61,36.1-1.13
		c8.62-3.48,14.74-9.8,17.53-19.86c-6.58,0-12.49,0.16-18.39-0.07c-3.08-0.12-5.08,0.51-6.39,3.63c-0.65,1.56-2.41,2.91-3.99,3.77
		c-5.88,3.24-12.12,3.71-17.57-0.4c-5.58-4.21-7.81-10.35-7.49-17.98C929.36,102.59,947.6,102.59,966.69,102.59z M927.65,73.33
		c9.47-0.03,14.59,6.12,14.53,17.85c-10.37,0-20.75,0-31.13,0C910.86,81.06,918.09,73.36,927.65,73.33z"/>
	<path id="s_00000179648176888779510830000003189354469094796694_" class="st1" d="M1031.58,92.93c-3.29-1-6.77-1.4-10.15-2.11
		c-5.35-1.12-10.81-1.89-16.01-3.5c-4.42-1.37-6.26-7.29-3.54-10.66c3.23-4.01,8.02-4.38,12.67-3.94c4.16,0.4,7.85,1.92,9.06,6.72
		c0.24,0.96,1.48,2.34,2.29,2.37c6.15,0.2,12.32,0.11,18.46,0.11c0.07-9.45-6.53-17.85-16.22-20.44
		c-11.38-3.04-22.91-2.9-34.23,0.25c-10.09,2.81-15.47,10.12-15.49,19.91c-0.01,10.35,5.09,17.05,15.59,20.2
		c2.89,0.87,5.9,1.32,8.86,1.95c5.07,1.08,10.18,1.98,15.2,3.28c4.24,1.1,6.61,3.9,6.29,8.56c-0.32,4.63-3.58,6.34-7.39,7.28
		c-8.8,2.19-14.2-1.09-18.32-10.95c-7.47-0.01-14.94-0.01-22.62-0.01c0.06,1.21-0.01,2.21,0.18,3.16
		c1.77,8.76,7.14,14.6,15.08,18.24c8.85,4.05,18.26,3.67,27.66,3.34c13.46-0.48,24.14-5.13,28.72-19.01c0-3.18,0-6.35,0-9.53
		C1045.6,99.58,1039.4,95.3,1031.58,92.93z"/>
</g>
</svg>
