<?xml version="1.0" encoding="utf-8"?>
<!-- Generator: Adobe Illustrator 26.0.2, SVG Export Plug-In . SVG Version: 6.00 Build 0)  -->
<svg version="1.1" id="Layer_1" xmlns="http://www.w3.org/2000/svg" xmlns:xlink="http://www.w3.org/1999/xlink" x="0px" y="0px"
	 viewBox="0 0 680.83 341.94" style="enable-background:new 0 0 680.83 341.94;" xml:space="preserve">
<style type="text/css">
	.st0{fill:#4E4E4E;}
	.st1{fill:#656565;}
	.st2{fill:#666666;}
</style>
<g id="Healthity_00000027585775649328643810000016851781276517926335_">
	<path class="st0" d="M425.21,162.49c0,9.55,0,19.11,0,28.66c-8.76,0-17.52,0-26.28,0c0-9.55,0-19.11,0-28.66
		c-5.97,0-11.94,0-17.92,0c0,23.89,0,47.78,0,71.66c5.97,0,11.94,0,17.92,0c0-9.16,0-18.31,0-27.47c8.76,0,17.52,0,26.28,0v27.47
		c5.97,0,11.94,0,17.92,0c0-0.8,0-1.59,0-2.39v-69.27C437.16,162.49,431.19,162.49,425.21,162.49z"/>
	<path class="st0" d="M378.63,278.34c-1.19,3.58-2.39,7.17-3.58,10.75c-0.4,0-0.8,0-1.19,0c-1.59-3.58-3.19-7.17-4.78-10.75
		c-2.79,0-5.57,0-8.36,0l9.55,17.92c0,4.38,0,8.76,0,13.14c2.79,0,5.14,0,7.93,0l0.28-13.14l9.7-17.92
		C385,278.34,381.82,278.34,378.63,278.34z"/>
	<path class="st0" d="M333.25,290.28c-3.98,0-7.96,0-11.94,0c0-3.98,0-7.96,0-11.94c-2.39,0-4.78,0-7.17,0c0,10.35,0,20.7,0,31.05
		c2.39,0,4.78,0,7.17,0c0-3.98,0-7.96,0-11.94c3.98,0,7.96,0,11.94,0c0,3.98,0,7.96,0,11.94c2.39,0,4.78,0,7.17,0
		c0-10.35,0-20.7,0-31.05c-2.39,0-4.78,0-7.17,0C333.25,282.32,333.25,286.3,333.25,290.28z"/>
	<path class="st0" d="M441.94,278.34c-2.79,0-5.57,0-8.36,0c0,10.35,0,20.7,0,31.05c6.77,0,13.54,0,20.3,0c0-2.39,0-4.78,0-7.17
		c-3.98,0-7.96,0-11.94,0C441.94,294.27,441.94,286.3,441.94,278.34z"/>
	<path class="st0" d="M372.66,162.49c-20.3,0-40.61,0-60.91,0c0,5.18,0,10.35,0,15.53c7.17,0,14.33,0,21.5,0
		c0,18.71,0,37.43,0,56.14c5.97,0,11.94,0,17.92,0c0-18.71,0-37.43,0-56.14c7.17,0,14.33,0,21.5,0
		C372.66,172.84,372.66,167.66,372.66,162.49z"/>
	<path class="st0" d="M553.01,302.23c0-1.59,0-3.19,0-4.78c3.18,0,6.37,0,9.55,0c0-2.39,0-4.78,0-7.17c-3.18,0-6.37,0-9.55,0v-5.97
		c3.58,0,8.36,0,11.94,0c0-1.99,0-3.98,0-5.97c-6.77,0-13.54,0-20.3,0c0,10.35,0,20.7,0,31.05c7.17,0,14.33,0,21.5,0
		c0-2.39,0-4.78,0-7.17C561.77,302.23,557.39,302.23,553.01,302.23z"/>
	<path class="st1" d="M588.84,162.49l-10.75,26.28c-0.8,0-1.59,0-2.39,0l-10.75-26.28c-27.07,0-54.15,0-81.22,0
		c0,5.18,0,10.35,0,15.53c7.17,0,14.33,0,21.5,0c0,18.71,0,37.43,0,56.14c5.97,0,11.94,0,17.92,0c0-18.71,0-37.43,0-56.14
		c7.17,0,14.33,0,21.5,0c0-4.78,0-9.56,0-14.33c0.4,0,0.8,0,1.19,0l22.69,40.61l-0.15,29.86c5.97,0,10.9,0,16.87,0
		c0-9.55,0-20.31,0-29.86l13.14-22.69c3.58-5.97,7.17-11.94,10.75-17.92c0-0.4,0-0.8,0-1.19
		C602.38,162.49,595.61,162.49,588.84,162.49z"/>
	<ellipse class="st1" cx="466.42" cy="198.32" rx="12.67" ry="50.67"/>
	<path class="st0" d="M266.36,284.31c3.18,0,6.37,0,9.55,0c0,8.36,0,16.72,0,25.08c2.79,0,5.57,0,8.36,0c0-8.36,0-16.72,0-25.08
		c3.18,0,6.37,0,9.55,0c0-1.99,0-3.98,0-5.97c-9.16,0-18.31,0-27.47,0C266.36,280.33,266.36,282.32,266.36,284.31z"/>
	<path class="st0" d="M505.24,309.39c2.79,0,5.57,0,8.36,0c0-3.98,0-7.96,0-11.94c3.18,0,6.37,0,9.55,0c0-1.99,0-3.98,0-5.97
		c-3.18,0-6.37,0-9.55,0c0-2.39,0-4.78,0-7.17c3.58,0,7.17,0,10.75,0c0-1.99,0-3.98,0-5.97c-6.37,0-12.74,0-19.11,0
		C505.24,288.69,505.24,299.04,505.24,309.39z"/>
	<path class="st0" d="M474.18,309.39c2.79,0,5.57,0,8.36,0c0-10.35,0-20.7,0-31.05c-2.79,0-5.57,0-8.36,0
		C474.18,288.69,474.18,299.04,474.18,309.39z"/>
	<path class="st0" d="M317.72,218.62c-9.55,0-19.11,0-28.66,0c0-18.71,0-37.43,0-56.14c-5.97,0-11.94,0-17.92,0
		c0,23.89,0,47.78,0,71.66c15.53,0,31.06,0,46.58,0C317.72,228.97,317.72,223.8,317.72,218.62z"/>
	<path class="st0" d="M193.51,218.62c-9.55,0-19.11,0-28.66,0c0-4.38,0-8.76,0-13.14c7.17,0,14.33,0,21.5,0c0-5.18,0-10.35,0-15.53
		c-7.17,0-14.33,0-21.5,0c0-3.98,0-7.96,0-11.94c9.16,0,18.31,0,27.47,0c0-5.18,0-10.35,0-15.53c-15.13,0-30.26,0-45.39,0
		c0,23.89,0,47.78,0,71.66c15.53,0,31.06,0,46.58,0C193.51,228.97,193.51,223.8,193.51,218.62z"/>
	<path class="st0" d="M240.09,162.49c-6.37,0-12.74,0-19.11,0c-7.96,23.89-15.93,47.78-23.89,71.66h17.19l5.51-14.33h20.86
		l4.42,14.33h18.9C256.01,210.26,248.05,186.37,240.09,162.49z M223.37,205.48l5.97-22.69c0.8,0,1.59,0,2.39,0
		c1.59,7.56,3.19,15.13,4.78,22.69C232.13,205.48,227.74,205.48,223.37,205.48z"/>
	<path class="st0" d="M201.87,278.34c-2.79,0-5.57,0-8.36,0l-10.75,31.05h8.43l1.32-5.97c3.58,0,6.98,0,10.56,0
		c0.4,1.99,0.8,3.98,1.19,5.97c2.79,0,5.57,0,8.36,0L201.87,278.34z M194.7,296.26l2.99-9.55l2.99,9.55
		C198.68,296.26,196.69,296.26,194.7,296.26z"/>
	<path class="st0" d="M239.89,303.37l0.2-25.03c-2.79,0-5.57,0-8.36,0c0,10.35,0,20.7,0,31.05c7.17,0,14.33,0,21.5,0
		c0-1.99,0-3.98,0-5.97L239.89,303.37z"/>
	<path class="st0" d="M113.48,290.28c-3.58,0-7.17,0-10.75,0c0-3.98,0-7.96,0-11.94c-2.79,0-5.57,0-8.36,0c0,10.35,0,20.7,0,31.05
		c2.79,0,5.57,0,8.36,0c0-3.98,0-7.96,0-11.94c3.58,0,7.17,0,10.75,0c0,3.98,0,7.96,0,11.94c2.79,0,5.57,0,8.36,0
		c0-10.35,0-20.7,0-31.05c-2.79,0-5.57,0-8.36,0C113.48,282.32,113.48,286.3,113.48,290.28z"/>
	<path class="st0" d="M114.68,191.15c-8.36,0-16.72,0-25.08,0c0-9.55,0-19.11,0-28.66c-5.97,0-11.94,0-17.92,0
		c0,23.89,0,47.78,0,71.66c5.97,0,11.94,0,17.92,0c0-9.16,0-18.31,0-27.47c8.36,0,16.72,0,25.08,0c0,9.16,0,18.31,0,27.47
		c5.97,0,11.94,0,17.92,0c0-23.89,0-47.78,0-71.66c-5.97,0-11.94,0-17.92,0C114.68,172.04,114.68,181.6,114.68,191.15z"/>
	<path class="st0" d="M144.54,309.39c6.77,0,13.54,0,20.3,0c0-2.39,0-4.78,0-7.17c-3.98,0-7.96,0-11.94,0c0-1.59,0-3.19,0-4.78
		c3.18,0,6.37,0,9.55,0c0-2.39,0-4.78,0-7.17c-3.18,0-6.37,0-9.55,0c0-1.99,0-3.98,0-5.97c3.98,0,7.96,0,11.94,0
		c0-1.99,0-3.98,0-5.97c-6.77,0-13.54,0-20.3,0C144.54,288.69,144.54,299.04,144.54,309.39z"/>
	<g>
		<g>
			<path class="st2" d="M389.14,105.57c-14.8-38.21-59.64-46.65-70.99-45.64c-9.01,0.72-16.47,2.78-22.46,4.44
				c-1.42,0.39-2.74,0.76-3.98,1.07c-6.09,1.56-17.78-0.01-17.89-0.03l-1.5-0.2l0.11,1.51c1.13,15.88,30.58,45.78,31.83,47.05
				l0.19,0.15c14.71,9.92,28.04,13.43,39.55,13.43c27.64,0,44.72-20.26,44.96-20.55l0.45-0.55L389.14,105.57z M292.32,67.83
				c1.25-0.32,2.59-0.69,4.02-1.09c5.9-1.63,13.23-3.65,22.02-4.36c10.78-0.95,52.77,6.93,67.74,42.29l-34.31-4.76
				c-0.42-0.12-42.45-12.18-51.12-15.9l-23.63-15.78C281.15,68.61,287.91,68.96,292.32,67.83z M305.92,111.95
				c-1.67-1.7-27-27.75-30.63-42.9l24.6,16.41c8.9,3.83,49.72,15.54,51.56,16.06l34.64,4.81
				C380.32,112.61,350.03,141.61,305.92,111.95z"/>
			<path class="st2" d="M386.88,102.77l0.31-0.34c0.16-0.18,11.38-12.82,8.83-30.27c-1.06-7.26-4.5-15.35-12.12-23.73l-0.11-0.1
				c-0.91-0.67-22.5-16.51-32.63-15.76l-0.96,0.07l0.27,0.93c0.02,0.07,2.09,7.31,1.67,11.29c-0.09,0.81-0.2,1.68-0.31,2.61
				c-0.49,3.94-1.11,8.84-0.73,14.59c0.41,7.26,9.87,34.79,35.35,40.61L386.88,102.77z M352.54,35.34l12.14,13.46
				c3.15,5.13,14.63,30.55,14.74,30.81l6.16,21.22c-23.7-6.2-32.54-31.97-32.94-38.87c-0.36-5.61,0.24-10.43,0.72-14.3
				c0.12-0.94,0.23-1.82,0.31-2.64C354,42.14,353.15,37.9,352.54,35.34z M386.63,100.67l-6.23-21.42
				c-0.5-1.12-11.65-25.81-14.89-31.07l-12.62-14.01c9.9,0.89,28.68,14.48,29.9,15.38C405.58,74.66,390.06,96.45,386.63,100.67z"/>
		</g>
	</g>
</g>
</svg>
