<?xml version="1.0" encoding="utf-8"?>
<!-- Generator: Adobe Illustrator 26.0.2, SVG Export Plug-In . SVG Version: 6.00 Build 0)  -->
<svg version="1.1" id="Layer_1" xmlns="http://www.w3.org/2000/svg" xmlns:xlink="http://www.w3.org/1999/xlink" x="0px" y="0px"
	 viewBox="0 0 899.15 325.44" style="enable-background:new 0 0 899.15 325.44;" xml:space="preserve">
<style type="text/css">
	.st0{fill:url(#I_00000101077326228867827470000001011308098676547760_);}
	.st1{fill:url(#C_00000080164331939414040070000010272995012528513152_);}
	.st2{fill:url(#stars_00000121243810643245511370000016100322611176808101_);}
	.st3{fill:url(#SVGID_1_);}
	.st4{fill:url(#SVGID_00000102528198208792058650000008376304295768914600_);}
	.st5{fill:url(#SVGID_00000173158236029916427210000017031727686618262964_);}
	.st6{fill:url(#SVGID_00000090995833224917287070000000153557699555818891_);}
	.st7{fill:url(#SVGID_00000016768224824929479550000009517453163342651792_);}
	.st8{fill:url(#SVGID_00000010279264860357821410000001025688755485595065_);}
	.st9{fill:url(#SVGID_00000032608133305501038780000016845047764430636704_);}
	.st10{fill:url(#SVGID_00000121971591896341031150000001123570769291083446_);}
	.st11{fill:url(#SVGID_00000034805033108503660140000002991719161896570808_);}
	.st12{fill:url(#SVGID_00000114040014497266722500000007672779302085719476_);}
	.st13{fill:url(#SVGID_00000122692619198839633130000016698754023227169709_);}
	.st14{fill:url(#SVGID_00000006666765353639760140000009330505378109213090_);}
	.st15{fill:url(#SVGID_00000036214344661072034460000010420016058357312685_);}
	.st16{fill:url(#SVGID_00000136374894605947815560000017689042769146556318_);}
	.st17{fill:url(#SVGID_00000182494105615771177920000007396210016783578043_);}
	.st18{fill:url(#SVGID_00000148630954106449326680000000789430818534244001_);}
	.st19{fill:url(#SVGID_00000070836270305209774480000009664315587544142477_);}
	.st20{fill:url(#SVGID_00000114776877345525891010000015687693403557383309_);}
	.st21{fill:url(#SVGID_00000081626397001872605780000016590576210898176422_);}
	.st22{fill:url(#SVGID_00000011006746041511246260000014898579533998371969_);}
	.st23{fill:url(#SVGID_00000142172371499484399130000016931951739371011736_);}
	.st24{fill:url(#SVGID_00000026854063934822198560000003543967207439718069_);}
	.st25{fill:url(#SVGID_00000072261507789038811880000003014808090531016632_);}
	.st26{fill:url(#SVGID_00000069357158443920023010000005426791988301994930_);}
	.st27{fill:url(#D_00000105414633506389990930000004007340702397507517_);}
</style>
<g id="ICOD_00000036228207043136663090000002321170523474269110_">
	
		<linearGradient id="I_00000157277924044485394950000000620579564569855630_" gradientUnits="userSpaceOnUse" x1="32.5662" y1="-189.1636" x2="32.5662" y2="223.2155">
		<stop  offset="0" style="stop-color:#FFFFFF"/>
		<stop  offset="1" style="stop-color:#474747"/>
	</linearGradient>
	
		<path id="I_00000109748719909463319240000002531213701226634684_" style="fill:url(#I_00000157277924044485394950000000620579564569855630_);" d="
		M32.58,33.4c-12.37,0-13.03,0.49-13.05,12.13l-0.26,232.48c0.01,10.79,0.74,11.34,12.79,11.38c13.04,0.04,13.8-0.46,13.8-11.33
		c-0.05-77.49-0.14-154.99-0.27-232.48C45.57,33.92,44.9,33.41,32.58,33.4z"/>
	
		<linearGradient id="C_00000180337383646265263090000002060618813622051461_" gradientUnits="userSpaceOnUse" x1="216.8102" y1="-189.1636" x2="216.8102" y2="223.2155">
		<stop  offset="0" style="stop-color:#FFFFFF"/>
		<stop  offset="1" style="stop-color:#474747"/>
	</linearGradient>
	
		<path id="C_00000040543399270379850640000012115209323257404310_" style="fill:url(#C_00000180337383646265263090000002060618813622051461_);" d="
		M198.85,56.88c41.67-11.98,79.85-3.1,111.97,26.88c13.78,12.87,13.33,13.06,27.49,1.32c4.44-3.68,4.75-6.83,0.92-10.7
		c-6.5-6.56-12.36-14.02-19.72-19.42c-31.59-23.17-67.04-30.67-106.13-27.53C146.86,32.77,88.74,89.19,91.9,158.87
		c-3.31,61.02,39.67,117.04,92.21,130.91c21.16,5.58,42.46,7.6,64.38,5.33c36.14-3.73,66.74-17.79,90.62-45.39
		c1.45-1.68,3.18-5.62,2.59-6.17c-5.38-4.97-10.84-10.19-17.23-13.56c-1.88-0.99-7.47,3-10.18,5.82
		c-29.08,30.29-65.57,38.04-105.03,31.59c-63.59-10.4-101.41-69.84-85.86-133.47C133.21,93.81,159.86,68.09,198.85,56.88z"/>
	
		<linearGradient id="stars_00000054229739073397287430000008143324514596882605_" gradientUnits="userSpaceOnUse" x1="496.5088" y1="-189.1636" x2="496.5088" y2="223.2155">
		<stop  offset="0" style="stop-color:#FFFFFF"/>
		<stop  offset="1" style="stop-color:#474747"/>
	</linearGradient>
	
		<path id="stars_00000162332010558445929770000005855286105091135165_" style="fill:url(#stars_00000054229739073397287430000008143324514596882605_);" d="
		M600.45,137.86c-2.97-9.29-7.16-18.2-11.36-27.1c-3.34-7.07-7.85-13.49-13.04-19.34c-0.02-0.03-0.04-0.05-0.07-0.08
		c-20.26-23-45.77-34.44-76.41-35.84c-19.13-0.88-36.55,4.79-53.95,11.3l0.04-0.03c-0.01-0.01-0.02-0.01-0.04-0.02
		c0,0.02,0,0.03,0,0.05c-2.42,1.85-4.75,3.83-7.28,5.52c-46.27,30.8-64.29,89.97-36.43,140.85c10.36,18.92,25.79,32.93,43.73,44.47
		c2.31,0.87,4.65,1.66,6.91,2.62c18.49,7.84,37.54,12.58,57.69,8.58c11.67-2.32,23.14-5.68,36.26-8.97l0.54-2.32
		c7.99-5.27,13.77-9.09,19.56-12.91l-0.04,0.04c0.01,0,0.02,0,0.04,0c0-0.01,0-0.03,0-0.04c5.57-6.17,11.14-12.33,16.72-18.5
		c4.35-7.41,8.69-14.82,13.04-22.23c0.01,0,0.02-0.01,0.03-0.01c0-0.01-0.01-0.02-0.01-0.03c0,0,0,0,0,0v0c0,0-0.04,0.04-0.04,0.04
		c0.73-2.98,1.21-6.05,2.22-8.93C605.19,176.13,606.5,156.79,600.45,137.86z M414.83,100.19c25.45-36.87,80.41-51.58,121.27-32.79
		c15.93,7.32,30.41,16.46,40.96,30.98c3.44,4.73,3.48,8.33,0.63,13.36c-10.52,18.53-25.09,33.07-43.79,42.9
		c-6.47,3.4-14.75,3.92-22.31,4.57c-7.1,0.61-13.12-0.52-9.96-11.01c1.12-3.71-2.55-8.85-4.03-13.33c-1.48,0.03-2.96,0.06-4.43,0.09
		c-0.85,5.36-2.78,10.83-2.24,16.05c0.58,5.64-1.83,8.32-6.2,7.86c-9.63-1.02-20.15-1.2-28.47-5.36
		c-18.66-9.33-32.15-24.91-42.3-42.98C412.52,107.98,413.07,102.74,414.83,100.19z M572.07,232.48
		c-35.76,39.38-100.06,43.53-140.78,9.8c-44.04-36.49-46.29-97.36-23.38-130.67c3.51,8.86,6.65,16.78,10.12,25.53
		c-2.61-1.64-4.74-2.98-6.88-4.33c-0.67,0.47-1.35,0.94-2.02,1.41c3.95,6.5,7.91,13,12.1,19.89c-2.19,0-4.16,0-7.95,0
		c9.99,28.7,31.84,37.14,60.46,37.77c-4.07,5.2-6.75,8.63-9.44,12.07c0.32,0.63,0.64,1.25,0.96,1.88c5.88-1.8,11.77-3.61,19.7-6.04
		c-4.63,5.44-7.91,9.28-11.18,13.12c0.32,0.68,0.65,1.37,0.97,2.05c4.42-1.73,8.85-3.46,15.63-6.11c-3.35,5.46-5.7,9.29-8.22,13.38
		c4.35,5.18,8.64,10.3,13.62,16.24c4.87-5.65,9.36-10.86,14.08-16.33c-2.67-3.96-5.16-7.64-9.22-13.66
		c7.12,2.97,11.63,4.85,16.14,6.73c0.46-0.6,0.92-1.2,1.38-1.8c-3.3-4.04-6.61-8.08-11.09-13.55c7.69,2.37,13.58,4.18,19.47,5.99
		c0.32-0.61,0.63-1.21,0.95-1.82c-2.67-3.45-5.34-6.91-9.25-11.97c28.09-0.87,50.07-8.98,60.11-37.31
		c-3.22-0.33-5.38-0.55-7.71-0.79c4.05-6.64,7.99-13.1,11.93-19.56c-0.42-0.43-0.83-0.86-1.25-1.29c-2.43,1.16-4.86,2.31-7.2,3.42
		c3.29-8.62,6.55-17.14,9.8-25.65C605.49,140.02,606.16,194.94,572.07,232.48z"/>
	<linearGradient id="SVGID_1_" gradientUnits="userSpaceOnUse" x1="496.3286" y1="-189.1636" x2="496.3286" y2="223.2155">
		<stop  offset="0" style="stop-color:#FFFFFF"/>
		<stop  offset="1" style="stop-color:#474747"/>
	</linearGradient>
	<path class="st3" d="M495.76,26.68c-76.77,0.67-136.41,56.24-136.81,135.67c-0.4,78.54,63.44,137.85,138,136.39
		c76.04-0.02,136.46-60.16,136.76-135.61C634.01,89.19,575.73,25.98,495.76,26.68z M628.47,163.2
		c-1.38,76.8-60.24,133.25-138.42,131.16c-67.2-1.8-128.96-58.82-126.23-137.88c2.21-64.18,58.96-132.5,142.27-126.96
		C574.44,34.06,629.83,95.19,628.47,163.2z"/>
	<g id="Stars_00000097481835242167019000000015155976531424151464_">
		
			<linearGradient id="SVGID_00000121274214444479592070000018280782431569797792_" gradientUnits="userSpaceOnUse" x1="494.6364" y1="-189.1636" x2="494.6364" y2="223.2155">
			<stop  offset="0" style="stop-color:#FFFFFF"/>
			<stop  offset="1" style="stop-color:#474747"/>
		</linearGradient>
		<path style="fill:url(#SVGID_00000121274214444479592070000018280782431569797792_);" d="M494.54,46.46l-4.26,2.24
			c-0.15,0.08-0.32-0.05-0.3-0.21l0.81-4.74c0.01-0.07-0.01-0.13-0.06-0.18l-3.45-3.36c-0.12-0.12-0.05-0.32,0.11-0.35l4.76-0.69
			c0.07-0.01,0.12-0.05,0.15-0.11l2.13-4.31c0.07-0.15,0.29-0.15,0.37,0l2.13,4.31c0.03,0.06,0.09,0.1,0.15,0.11l4.76,0.69
			c0.17,0.02,0.23,0.23,0.11,0.35l-3.45,3.36c-0.05,0.05-0.07,0.11-0.06,0.18l0.81,4.74c0.03,0.17-0.15,0.29-0.3,0.21l-4.26-2.24
			C494.67,46.43,494.6,46.43,494.54,46.46z"/>
		
			<linearGradient id="SVGID_00000003820770473384686930000009209395032868080513_" gradientUnits="userSpaceOnUse" x1="494.6364" y1="-189.1636" x2="494.6364" y2="223.2155">
			<stop  offset="0" style="stop-color:#FFFFFF"/>
			<stop  offset="1" style="stop-color:#474747"/>
		</linearGradient>
		<path style="fill:url(#SVGID_00000003820770473384686930000009209395032868080513_);" d="M494.51,104.63l-5.66,2.98
			c-0.2,0.1-0.43-0.06-0.39-0.29l1.08-6.31c0.02-0.09-0.01-0.18-0.08-0.24l-4.58-4.47c-0.16-0.16-0.07-0.43,0.15-0.46l6.33-0.92
			c0.09-0.01,0.16-0.07,0.2-0.15l2.83-5.74c0.1-0.2,0.39-0.2,0.49,0l2.83,5.74c0.04,0.08,0.12,0.14,0.2,0.15l6.33,0.92
			c0.22,0.03,0.31,0.31,0.15,0.46l-4.58,4.47c-0.06,0.06-0.09,0.15-0.08,0.24l1.08,6.31c0.04,0.22-0.19,0.39-0.39,0.29l-5.66-2.98
			C494.68,104.59,494.59,104.59,494.51,104.63z"/>
		
			<linearGradient id="SVGID_00000047780766681725382410000006319885097611320467_" gradientUnits="userSpaceOnUse" x1="494.6364" y1="-189.1636" x2="494.6364" y2="223.2155">
			<stop  offset="0" style="stop-color:#FFFFFF"/>
			<stop  offset="1" style="stop-color:#474747"/>
		</linearGradient>
		<path style="fill:url(#SVGID_00000047780766681725382410000006319885097611320467_);" d="M494.53,287.59l-4.64,2.44
			c-0.16,0.09-0.35-0.05-0.32-0.23l0.89-5.16c0.01-0.07-0.01-0.15-0.06-0.2l-3.75-3.66c-0.13-0.13-0.06-0.35,0.12-0.38l5.18-0.75
			c0.07-0.01,0.13-0.06,0.17-0.12l2.32-4.7c0.08-0.16,0.32-0.16,0.4,0l2.32,4.7c0.03,0.07,0.09,0.11,0.17,0.12l5.18,0.75
			c0.18,0.03,0.25,0.25,0.12,0.38l-3.75,3.66c-0.05,0.05-0.08,0.12-0.06,0.2l0.89,5.16c0.03,0.18-0.16,0.32-0.32,0.23l-4.63-2.44
			C494.67,287.55,494.6,287.55,494.53,287.59z"/>
		
			<linearGradient id="SVGID_00000004542761789004493350000013821682385585618314_" gradientUnits="userSpaceOnUse" x1="551.1335" y1="-189.1636" x2="551.1335" y2="223.2155">
			<stop  offset="0" style="stop-color:#FFFFFF"/>
			<stop  offset="1" style="stop-color:#474747"/>
		</linearGradient>
		<path style="fill:url(#SVGID_00000004542761789004493350000013821682385585618314_);" d="M551.04,58.97l-4.42,2.32
			c-0.16,0.08-0.34-0.05-0.31-0.22l0.84-4.92c0.01-0.07-0.01-0.14-0.06-0.19l-3.58-3.49c-0.13-0.12-0.06-0.34,0.12-0.36l4.94-0.72
			c0.07-0.01,0.13-0.05,0.16-0.12l2.21-4.48c0.08-0.16,0.3-0.16,0.38,0l2.21,4.48c0.03,0.06,0.09,0.11,0.16,0.12l4.94,0.72
			c0.17,0.03,0.24,0.24,0.12,0.36l-3.58,3.49c-0.05,0.05-0.07,0.12-0.06,0.19l0.84,4.92c0.03,0.17-0.15,0.3-0.31,0.22l-4.42-2.32
			C551.17,58.94,551.1,58.94,551.04,58.97z"/>
		
			<linearGradient id="SVGID_00000062174221261482387270000000589606448066917552_" gradientUnits="userSpaceOnUse" x1="574.294" y1="-189.1636" x2="574.294" y2="223.2155">
			<stop  offset="0" style="stop-color:#FFFFFF"/>
			<stop  offset="1" style="stop-color:#474747"/>
		</linearGradient>
		<path style="fill:url(#SVGID_00000062174221261482387270000000589606448066917552_);" d="M574.2,75.49l-4.36,2.29
			c-0.15,0.08-0.33-0.05-0.3-0.22l0.83-4.85c0.01-0.07-0.01-0.14-0.06-0.18l-3.53-3.44c-0.12-0.12-0.06-0.33,0.12-0.36l4.87-0.71
			c0.07-0.01,0.13-0.05,0.16-0.11l2.18-4.42c0.08-0.15,0.3-0.15,0.37,0l2.18,4.42c0.03,0.06,0.09,0.1,0.16,0.11l4.87,0.71
			c0.17,0.02,0.24,0.23,0.12,0.36l-3.53,3.44c-0.05,0.05-0.07,0.12-0.06,0.18l0.83,4.85c0.03,0.17-0.15,0.3-0.3,0.22l-4.36-2.29
			C574.33,75.46,574.26,75.46,574.2,75.49z"/>
		
			<linearGradient id="SVGID_00000014606365065026413440000016177435337401828487_" gradientUnits="userSpaceOnUse" x1="592.6491" y1="-189.1636" x2="592.6491" y2="223.2155">
			<stop  offset="0" style="stop-color:#FFFFFF"/>
			<stop  offset="1" style="stop-color:#474747"/>
		</linearGradient>
		<path style="fill:url(#SVGID_00000014606365065026413440000016177435337401828487_);" d="M595.67,92.94l-0.27,4.96
			c-0.01,0.17-0.21,0.26-0.35,0.15l-3.77-3.23c-0.05-0.04-0.12-0.06-0.19-0.04l-4.8,1.28c-0.17,0.04-0.31-0.12-0.25-0.28l1.9-4.59
			c0.03-0.06,0.02-0.14-0.02-0.19l-2.7-4.17c-0.09-0.15,0.02-0.34,0.19-0.32l4.95,0.39c0.07,0.01,0.14-0.02,0.18-0.08l3.13-3.86
			c0.11-0.14,0.33-0.09,0.37,0.08l1.16,4.83c0.02,0.07,0.06,0.12,0.13,0.15l4.63,1.79c0.16,0.06,0.18,0.28,0.03,0.38l-4.24,2.59
			C595.71,92.8,595.67,92.87,595.67,92.94z"/>
		
			<linearGradient id="SVGID_00000104706034604003486820000006489548319792121533_" gradientUnits="userSpaceOnUse" x1="605.8698" y1="-189.1636" x2="605.8698" y2="223.2155">
			<stop  offset="0" style="stop-color:#FFFFFF"/>
			<stop  offset="1" style="stop-color:#474747"/>
		</linearGradient>
		<path style="fill:url(#SVGID_00000104706034604003486820000006489548319792121533_);" d="M608.37,119.24l-2.06,4.67
			c-0.07,0.16-0.3,0.17-0.39,0.02l-2.46-4.48c-0.03-0.06-0.1-0.1-0.17-0.11l-5.08-0.52c-0.18-0.02-0.26-0.23-0.14-0.36l3.5-3.72
			c0.05-0.05,0.07-0.12,0.05-0.19l-1.08-4.99c-0.04-0.18,0.14-0.32,0.3-0.24l4.62,2.18c0.06,0.03,0.14,0.03,0.2-0.01l4.41-2.57
			c0.15-0.09,0.35,0.04,0.32,0.21l-0.64,5.07c-0.01,0.07,0.02,0.14,0.07,0.19l3.81,3.4c0.13,0.12,0.07,0.34-0.1,0.37l-5.02,0.95
			C608.46,119.13,608.4,119.18,608.37,119.24z"/>
		
			<linearGradient id="SVGID_00000126290009020031416830000013243382393779602109_" gradientUnits="userSpaceOnUse" x1="612.3278" y1="-189.1636" x2="612.3278" y2="223.2155">
			<stop  offset="0" style="stop-color:#FFFFFF"/>
			<stop  offset="1" style="stop-color:#474747"/>
		</linearGradient>
		<path style="fill:url(#SVGID_00000126290009020031416830000013243382393779602109_);" d="M614.47,143.74l-2.84,3.96
			c-0.1,0.14-0.32,0.1-0.37-0.06l-1.42-4.67c-0.02-0.07-0.07-0.12-0.13-0.14l-4.65-1.48c-0.16-0.05-0.2-0.27-0.06-0.37l4-2.79
			c0.06-0.04,0.09-0.1,0.09-0.17l-0.03-4.88c0-0.17,0.19-0.27,0.33-0.17l3.89,2.94c0.05,0.04,0.13,0.05,0.19,0.03l4.63-1.54
			c0.16-0.05,0.32,0.1,0.26,0.26l-1.6,4.61c-0.02,0.06-0.01,0.14,0.03,0.19l2.89,3.93c0.1,0.14,0,0.33-0.17,0.33l-4.88-0.09
			C614.58,143.65,614.51,143.68,614.47,143.74z"/>
		
			<linearGradient id="SVGID_00000100345969453963867350000007984725789749678497_" gradientUnits="userSpaceOnUse" x1="614.0665" y1="-189.1636" x2="614.0665" y2="223.2155">
			<stop  offset="0" style="stop-color:#FFFFFF"/>
			<stop  offset="1" style="stop-color:#474747"/>
		</linearGradient>
		<path style="fill:url(#SVGID_00000100345969453963867350000007984725789749678497_);" d="M615.36,186.32l-3.69,3.12
			c-0.13,0.11-0.33,0.02-0.34-0.15l-0.23-4.82c0-0.07-0.04-0.13-0.1-0.16l-4.11-2.54c-0.14-0.09-0.12-0.3,0.04-0.36l4.52-1.71
			c0.06-0.02,0.11-0.08,0.13-0.14l1.15-4.69c0.04-0.16,0.25-0.21,0.36-0.08l3.02,3.77c0.04,0.05,0.11,0.08,0.17,0.08l4.82-0.36
			c0.17-0.01,0.28,0.17,0.19,0.32l-2.65,4.04c-0.04,0.06-0.04,0.13-0.02,0.19l1.83,4.47c0.06,0.16-0.08,0.32-0.24,0.27l-4.66-1.27
			C615.48,186.26,615.42,186.28,615.36,186.32z"/>
		
			<linearGradient id="SVGID_00000044863668271260615670000006959801530441874064_" gradientUnits="userSpaceOnUse" x1="605.9484" y1="-189.1636" x2="605.9484" y2="223.2155">
			<stop  offset="0" style="stop-color:#FFFFFF"/>
			<stop  offset="1" style="stop-color:#474747"/>
		</linearGradient>
		<path style="fill:url(#SVGID_00000044863668271260615670000006959801530441874064_);" d="M605.3,211.03l-3.99,1.62
			c-0.14,0.06-0.28-0.07-0.24-0.22l1.14-4.15c0.02-0.06,0-0.12-0.04-0.17l-2.77-3.29c-0.1-0.12-0.02-0.29,0.13-0.3l4.3-0.2
			c0.06,0,0.11-0.03,0.15-0.09l2.28-3.65c0.08-0.13,0.27-0.11,0.33,0.03l1.52,4.03c0.02,0.06,0.07,0.1,0.13,0.11l4.18,1.04
			c0.15,0.04,0.19,0.22,0.07,0.32l-3.36,2.69c-0.05,0.04-0.07,0.1-0.07,0.16l0.31,4.29c0.01,0.15-0.16,0.25-0.28,0.16l-3.59-2.37
			C605.42,211.02,605.36,211.01,605.3,211.03z"/>
		
			<linearGradient id="SVGID_00000107553056000760021900000017959850397641493902_" gradientUnits="userSpaceOnUse" x1="593.3711" y1="-189.1636" x2="593.3711" y2="223.2155">
			<stop  offset="0" style="stop-color:#FFFFFF"/>
			<stop  offset="1" style="stop-color:#474747"/>
		</linearGradient>
		<path style="fill:url(#SVGID_00000107553056000760021900000017959850397641493902_);" d="M591.2,235.58l-4.91,0.71
			c-0.17,0.03-0.3-0.16-0.21-0.31l2.42-4.33c0.03-0.06,0.04-0.13,0-0.2l-2.2-4.45c-0.08-0.16,0.06-0.33,0.23-0.3l4.87,0.96
			c0.07,0.01,0.14-0.01,0.19-0.06l3.56-3.47c0.12-0.12,0.33-0.05,0.36,0.13l0.59,4.93c0.01,0.07,0.05,0.13,0.11,0.16l4.39,2.31
			c0.15,0.08,0.15,0.3-0.01,0.38l-4.51,2.08c-0.06,0.03-0.11,0.09-0.12,0.16l-0.84,4.89c-0.03,0.17-0.24,0.24-0.36,0.11l-3.37-3.64
			C591.33,235.59,591.26,235.57,591.2,235.58z"/>
		
			<linearGradient id="SVGID_00000121978961896444992450000005032522107031139753_" gradientUnits="userSpaceOnUse" x1="574.5947" y1="-189.1636" x2="574.5947" y2="223.2155">
			<stop  offset="0" style="stop-color:#FFFFFF"/>
			<stop  offset="1" style="stop-color:#474747"/>
		</linearGradient>
		<path style="fill:url(#SVGID_00000121978961896444992450000005032522107031139753_);" d="M572.22,255.42l-4.71-0.44
			c-0.17-0.02-0.24-0.21-0.13-0.34l3.22-3.47c0.04-0.05,0.06-0.12,0.05-0.18l-1.03-4.61c-0.04-0.16,0.13-0.29,0.28-0.23l4.29,1.99
			c0.06,0.03,0.13,0.02,0.19-0.01l4.07-2.41c0.14-0.08,0.32,0.03,0.3,0.2l-0.56,4.7c-0.01,0.07,0.02,0.13,0.07,0.17l3.55,3.13
			c0.12,0.11,0.07,0.31-0.09,0.35l-4.64,0.91c-0.06,0.01-0.12,0.06-0.15,0.12l-1.88,4.34c-0.07,0.15-0.28,0.16-0.36,0.02l-2.3-4.13
			C572.34,255.47,572.28,255.43,572.22,255.42z"/>
		
			<linearGradient id="SVGID_00000169543506503754443050000005492069586892049063_" gradientUnits="userSpaceOnUse" x1="551.9591" y1="-189.1636" x2="551.9591" y2="223.2155">
			<stop  offset="0" style="stop-color:#FFFFFF"/>
			<stop  offset="1" style="stop-color:#474747"/>
		</linearGradient>
		<path style="fill:url(#SVGID_00000169543506503754443050000005492069586892049063_);" d="M549.16,271.32l-4.82-1.86
			c-0.17-0.07-0.19-0.3-0.04-0.39l4.41-2.69c0.06-0.04,0.1-0.1,0.1-0.17l0.28-5.16c0.01-0.18,0.22-0.27,0.36-0.15l3.92,3.36
			c0.05,0.05,0.13,0.06,0.2,0.05l5-1.33c0.18-0.05,0.33,0.13,0.26,0.3l-1.99,4.77c-0.03,0.07-0.02,0.14,0.02,0.2l2.8,4.34
			c0.1,0.15-0.02,0.35-0.2,0.34l-5.15-0.42c-0.07-0.01-0.14,0.02-0.19,0.08l-3.26,4.01c-0.11,0.14-0.34,0.09-0.38-0.09l-1.2-5.03
			C549.28,271.4,549.23,271.35,549.16,271.32z"/>
		
			<linearGradient id="SVGID_00000175308546900480239350000013306555859307870637_" gradientUnits="userSpaceOnUse" x1="441.8627" y1="-189.1636" x2="441.8627" y2="223.2155">
			<stop  offset="0" style="stop-color:#FFFFFF"/>
			<stop  offset="1" style="stop-color:#474747"/>
		</linearGradient>
		<path style="fill:url(#SVGID_00000175308546900480239350000013306555859307870637_);" d="M441.96,58.97l4.42,2.32
			c0.16,0.08,0.34-0.05,0.31-0.22l-0.84-4.92c-0.01-0.07,0.01-0.14,0.06-0.19l3.58-3.49c0.13-0.12,0.06-0.34-0.12-0.36l-4.94-0.72
			c-0.07-0.01-0.13-0.05-0.16-0.12l-2.21-4.48c-0.08-0.16-0.3-0.16-0.38,0l-2.21,4.48c-0.03,0.06-0.09,0.11-0.16,0.12l-4.94,0.72
			c-0.17,0.03-0.24,0.24-0.12,0.36l3.58,3.49c0.05,0.05,0.07,0.12,0.06,0.19l-0.84,4.92c-0.03,0.17,0.15,0.3,0.31,0.22l4.42-2.32
			C441.83,58.94,441.9,58.94,441.96,58.97z"/>
		
			<linearGradient id="SVGID_00000158002579850388320160000016995748084520020914_" gradientUnits="userSpaceOnUse" x1="418.7021" y1="-189.1636" x2="418.7021" y2="223.2155">
			<stop  offset="0" style="stop-color:#FFFFFF"/>
			<stop  offset="1" style="stop-color:#474747"/>
		</linearGradient>
		<path style="fill:url(#SVGID_00000158002579850388320160000016995748084520020914_);" d="M418.8,75.49l4.36,2.29
			c0.15,0.08,0.33-0.05,0.3-0.22l-0.83-4.85c-0.01-0.07,0.01-0.14,0.06-0.18l3.53-3.44c0.12-0.12,0.06-0.33-0.12-0.36l-4.87-0.71
			c-0.07-0.01-0.13-0.05-0.16-0.11l-2.18-4.42c-0.08-0.15-0.3-0.15-0.37,0l-2.18,4.42c-0.03,0.06-0.09,0.1-0.16,0.11l-4.87,0.71
			c-0.17,0.02-0.24,0.23-0.12,0.36l3.53,3.44c0.05,0.05,0.07,0.12,0.06,0.18l-0.83,4.85c-0.03,0.17,0.15,0.3,0.3,0.22l4.36-2.29
			C418.67,75.46,418.74,75.46,418.8,75.49z"/>
		
			<linearGradient id="SVGID_00000158738944467294439390000007043680768221235625_" gradientUnits="userSpaceOnUse" x1="400.347" y1="-189.1636" x2="400.347" y2="223.2155">
			<stop  offset="0" style="stop-color:#FFFFFF"/>
			<stop  offset="1" style="stop-color:#474747"/>
		</linearGradient>
		<path style="fill:url(#SVGID_00000158738944467294439390000007043680768221235625_);" d="M397.33,92.94l0.27,4.96
			c0.01,0.17,0.21,0.26,0.35,0.15l3.77-3.23c0.05-0.04,0.12-0.06,0.19-0.04l4.8,1.28c0.17,0.04,0.31-0.12,0.25-0.28l-1.9-4.59
			c-0.03-0.06-0.02-0.14,0.02-0.19l2.7-4.17c0.09-0.15-0.02-0.34-0.19-0.32l-4.95,0.39c-0.07,0.01-0.14-0.02-0.18-0.08l-3.13-3.86
			c-0.11-0.14-0.33-0.09-0.37,0.08l-1.16,4.83c-0.02,0.07-0.06,0.12-0.13,0.15l-4.63,1.79c-0.16,0.06-0.18,0.28-0.03,0.38l4.24,2.59
			C397.29,92.8,397.33,92.87,397.33,92.94z"/>
		
			<linearGradient id="SVGID_00000140733665997644211750000015977989969962209432_" gradientUnits="userSpaceOnUse" x1="387.1264" y1="-189.1636" x2="387.1264" y2="223.2155">
			<stop  offset="0" style="stop-color:#FFFFFF"/>
			<stop  offset="1" style="stop-color:#474747"/>
		</linearGradient>
		<path style="fill:url(#SVGID_00000140733665997644211750000015977989969962209432_);" d="M384.63,119.24l2.06,4.67
			c0.07,0.16,0.3,0.17,0.39,0.02l2.46-4.48c0.03-0.06,0.1-0.1,0.17-0.11l5.08-0.52c0.18-0.02,0.26-0.23,0.14-0.36l-3.5-3.72
			c-0.05-0.05-0.07-0.12-0.05-0.19l1.08-4.99c0.04-0.18-0.14-0.32-0.3-0.24l-4.62,2.18c-0.06,0.03-0.14,0.03-0.2-0.01l-4.41-2.57
			c-0.15-0.09-0.35,0.04-0.32,0.21l0.64,5.07c0.01,0.07-0.02,0.14-0.07,0.19l-3.81,3.4c-0.13,0.12-0.07,0.34,0.1,0.37l5.02,0.95
			C384.54,119.13,384.6,119.18,384.63,119.24z"/>
		
			<linearGradient id="SVGID_00000160888048093311592530000014139154220478768041_" gradientUnits="userSpaceOnUse" x1="380.6684" y1="-189.1636" x2="380.6684" y2="223.2155">
			<stop  offset="0" style="stop-color:#FFFFFF"/>
			<stop  offset="1" style="stop-color:#474747"/>
		</linearGradient>
		<path style="fill:url(#SVGID_00000160888048093311592530000014139154220478768041_);" d="M378.52,143.74l2.84,3.96
			c0.1,0.14,0.32,0.1,0.37-0.06l1.42-4.67c0.02-0.07,0.07-0.12,0.13-0.14l4.65-1.48c0.16-0.05,0.2-0.27,0.06-0.37l-4-2.79
			c-0.06-0.04-0.09-0.1-0.09-0.17l0.03-4.88c0-0.17-0.19-0.27-0.33-0.17l-3.89,2.94c-0.05,0.04-0.13,0.05-0.19,0.03l-4.63-1.54
			c-0.16-0.05-0.32,0.1-0.26,0.26l1.6,4.61c0.02,0.06,0.01,0.14-0.03,0.19l-2.89,3.93c-0.1,0.14,0,0.33,0.17,0.33l4.88-0.09
			C378.42,143.65,378.48,143.68,378.52,143.74z"/>
		
			<linearGradient id="SVGID_00000160170945120202672800000000038658117549742258_" gradientUnits="userSpaceOnUse" x1="378.9296" y1="-189.1636" x2="378.9296" y2="223.2155">
			<stop  offset="0" style="stop-color:#FFFFFF"/>
			<stop  offset="1" style="stop-color:#474747"/>
		</linearGradient>
		<path style="fill:url(#SVGID_00000160170945120202672800000000038658117549742258_);" d="M377.63,186.32l3.69,3.12
			c0.13,0.11,0.33,0.02,0.34-0.15l0.23-4.82c0-0.07,0.04-0.13,0.1-0.16l4.11-2.54c0.14-0.09,0.12-0.3-0.04-0.36l-4.52-1.71
			c-0.06-0.02-0.11-0.08-0.13-0.14l-1.15-4.69c-0.04-0.16-0.25-0.21-0.36-0.08l-3.02,3.77c-0.04,0.05-0.11,0.08-0.17,0.08
			l-4.82-0.36c-0.17-0.01-0.28,0.17-0.19,0.32l2.65,4.04c0.04,0.06,0.04,0.13,0.02,0.19l-1.83,4.47c-0.06,0.16,0.08,0.32,0.24,0.27
			l4.66-1.27C377.51,186.26,377.58,186.28,377.63,186.32z"/>
		
			<linearGradient id="SVGID_00000176737841532654989120000014581239221403850901_" gradientUnits="userSpaceOnUse" x1="387.0478" y1="-189.1636" x2="387.0478" y2="223.2155">
			<stop  offset="0" style="stop-color:#FFFFFF"/>
			<stop  offset="1" style="stop-color:#474747"/>
		</linearGradient>
		<path style="fill:url(#SVGID_00000176737841532654989120000014581239221403850901_);" d="M387.7,211.03l3.99,1.62
			c0.14,0.06,0.28-0.07,0.24-0.22l-1.14-4.15c-0.02-0.06,0-0.12,0.04-0.17l2.77-3.29c0.1-0.12,0.02-0.29-0.13-0.3l-4.3-0.2
			c-0.06,0-0.11-0.03-0.15-0.09l-2.27-3.65c-0.08-0.13-0.27-0.11-0.32,0.03l-1.52,4.03c-0.02,0.06-0.07,0.1-0.13,0.11l-4.18,1.04
			c-0.15,0.04-0.19,0.22-0.07,0.32l3.36,2.69c0.05,0.04,0.07,0.1,0.07,0.16l-0.31,4.29c-0.01,0.15,0.16,0.25,0.28,0.16l3.59-2.37
			C387.58,211.02,387.64,211.01,387.7,211.03z"/>
		
			<linearGradient id="SVGID_00000098932169873691102800000013431192896166148757_" gradientUnits="userSpaceOnUse" x1="399.6251" y1="-189.1636" x2="399.6251" y2="223.2155">
			<stop  offset="0" style="stop-color:#FFFFFF"/>
			<stop  offset="1" style="stop-color:#474747"/>
		</linearGradient>
		<path style="fill:url(#SVGID_00000098932169873691102800000013431192896166148757_);" d="M401.8,235.58l4.91,0.71
			c0.17,0.03,0.3-0.16,0.21-0.31l-2.42-4.33c-0.03-0.06-0.04-0.13-0.01-0.2l2.2-4.45c0.08-0.16-0.06-0.33-0.23-0.3l-4.87,0.96
			c-0.07,0.01-0.14-0.01-0.19-0.06l-3.56-3.47c-0.12-0.12-0.33-0.05-0.36,0.13l-0.59,4.93c-0.01,0.07-0.05,0.13-0.11,0.16
			l-4.39,2.31c-0.15,0.08-0.15,0.3,0.01,0.38l4.51,2.08c0.06,0.03,0.11,0.09,0.12,0.16l0.84,4.89c0.03,0.17,0.24,0.24,0.36,0.11
			l3.37-3.64C401.66,235.59,401.73,235.57,401.8,235.58z"/>
		
			<linearGradient id="SVGID_00000166647156219133416410000012011047445987776691_" gradientUnits="userSpaceOnUse" x1="418.4014" y1="-189.1636" x2="418.4014" y2="223.2155">
			<stop  offset="0" style="stop-color:#FFFFFF"/>
			<stop  offset="1" style="stop-color:#474747"/>
		</linearGradient>
		<path style="fill:url(#SVGID_00000166647156219133416410000012011047445987776691_);" d="M420.78,255.42l4.71-0.44
			c0.17-0.02,0.24-0.21,0.13-0.34l-3.22-3.47c-0.04-0.05-0.06-0.12-0.05-0.18l1.03-4.61c0.04-0.16-0.13-0.29-0.28-0.23l-4.29,1.99
			c-0.06,0.03-0.13,0.02-0.19-0.01l-4.07-2.41c-0.14-0.08-0.32,0.03-0.3,0.2l0.56,4.7c0.01,0.07-0.02,0.13-0.07,0.17l-3.55,3.13
			c-0.12,0.11-0.07,0.31,0.09,0.35l4.64,0.91c0.06,0.01,0.12,0.06,0.14,0.12l1.88,4.34c0.07,0.15,0.28,0.16,0.36,0.02l2.3-4.13
			C420.65,255.47,420.71,255.43,420.78,255.42z"/>
		
			<linearGradient id="SVGID_00000090272524414616527260000013109411895565984140_" gradientUnits="userSpaceOnUse" x1="441.037" y1="-189.1636" x2="441.037" y2="223.2155">
			<stop  offset="0" style="stop-color:#FFFFFF"/>
			<stop  offset="1" style="stop-color:#474747"/>
		</linearGradient>
		<path style="fill:url(#SVGID_00000090272524414616527260000013109411895565984140_);" d="M443.83,271.32l4.82-1.86
			c0.17-0.07,0.19-0.3,0.04-0.39l-4.41-2.69c-0.06-0.04-0.1-0.1-0.1-0.17l-0.28-5.16c-0.01-0.18-0.22-0.27-0.36-0.15l-3.92,3.36
			c-0.05,0.05-0.13,0.06-0.2,0.05l-5-1.33c-0.18-0.05-0.33,0.13-0.26,0.3l1.99,4.77c0.03,0.07,0.02,0.14-0.02,0.2l-2.8,4.34
			c-0.1,0.15,0.02,0.35,0.2,0.34l5.15-0.42c0.07-0.01,0.14,0.02,0.19,0.08l3.26,4.01c0.11,0.14,0.34,0.09,0.38-0.09l1.2-5.03
			C443.72,271.4,443.77,271.35,443.83,271.32z"/>
	</g>
	
		<linearGradient id="D_00000101101442821840003160000014921333484393375159_" gradientUnits="userSpaceOnUse" x1="771.5267" y1="-189.1636" x2="771.5267" y2="223.2155">
		<stop  offset="0" style="stop-color:#FFFFFF"/>
		<stop  offset="1" style="stop-color:#474747"/>
	</linearGradient>
	
		<path id="D_00000091007748044957439400000004187388796177505193_" style="fill:url(#D_00000101101442821840003160000014921333484393375159_);" d="
		M879.1,147.61c-4.92-56.58-38.75-102.19-98.55-109.86c-36.03-4.62-72.86-3.07-109.34-4.29c-6.2-0.21-7.79,3.44-7.92,8.87v235.97
		c-0.01,5.98-1.54,11.26,6.74,11.09c36.52-0.76,73.11-0.31,109.56-2.31c33.65-1.85,59.46-18.72,78.4-46.56
		C877.26,212.18,881.97,180.54,879.1,147.61z M840.59,215.44c-15.43,29.11-41.15,42.97-73.08,45.46
		c-22.2,1.73-44.56,1.32-66.82,2.29c-8.42,0.37-11.52-2.6-11.41-11.15l-0.03-181.53c-0.1-8.45,2.87-11.78,11.36-11.25
		c24.07,1.49,48.5,0.53,72.17,4.38c47.24,7.68,75.9,42.26,78.65,89.79C852.67,175.1,850.87,196.05,840.59,215.44z"/>
</g>
</svg>
