<svg xmlns="http://www.w3.org/2000/svg" width="51.913" height="46.31" viewBox="0 0 51.913 46.31">
  <path id="Logo" d="M1819.978,62.215c-1.977-1.555-4.087-3.046-5.528-5.146a41.758,41.758,0,0,1-6.966-12.5c-.965-2.93-1.3-6.072-2.541-8.888-1.3-2.046.224-4.282,2.465-4.932,1-.192,2.752-1.134.634-.46-1.9,1.392-2.082-1.265-.135-1.434a1.543,1.543,0,0,0,1.363-2.242c-1.427-.931,3.458-1.952,1-3.341-2.559-2.762,3.581-3.294,2.066-.156-.362,2.412,4.292-.443,3.211,2.343,1.1,1.338,4.111.305,4.035,2.181,1.6.11,2.148,1.455,3.648,1.558,1.557.7,4.376,1.256,4.905,3.009-1.543,1.221-5.115-2.523-5.288.858.467,5,.348,10.143,2.175,14.9.864,2.88,2.961,5.148,4.853,7.392a21.233,21.233,0,0,0,6.765,5.047,27.91,27.91,0,0,0,6.948,2.151c.969-.742,2.681-3.5,4.193-2.337.073,1.308-3,2.732-.144,2.587,1.679-.507,2.842,1.3,4.223-.33,1.273,1.508,5.291-.963,4.385,2.119-1.225.79-3.012.313-4.238,1.4-2.022-1.011-3.632.9-5.872.662a43.127,43.127,0,0,1-7.537.628c-4.136-.326-8.359-.464-12.294-1.9a24.922,24.922,0,0,1-6.328-3.169Zm3.493,1.514a24.6,24.6,0,0,0,6.653,2.22c3.764.523,7.65,1.329,11.426.594-1.709-.772-3.477.3-5.179-.552-2.042.439-4.234-.113-6.311-.385-2.36-1.051-4.909-1.774-7.119-3.14-2.764-1.009,1.428,1.294,2.175,1.481,1.727.979-1.9-.5-2.411-.91-1.446-.811-1.63-.642-.143.182.3.175.6.36.91.509Zm-4.118-2.911c2.1.777-.009-1.475-.969-1.344-.426-.739-1.627-1.206-.78-1.6-1.523.529-1.6-2.012-2.312-1.648-1.613-.509-.628-2.313-2.549-3.421-.175-1.167-1.908-2.179-2.46-3.939-.244-.9-1.958-3.488-.906-1.081a33.983,33.983,0,0,0,3.786,6.287,12.973,12.973,0,0,0,4.078,5.04c.626.6,1.229,1.52,2.112,1.708Zm-6.041-6.634,8.554,7.565,1.138.415,1.425.594,2.443,1.361-4.69-3.269,1.069.533,5.343,3.335c.859.542,5.016,1.188,2.413.223C1830.569,65.033,1826.178,63.7,1828.592,64.719Zm-8.481-6.606,2.486,1.451,2.092,1.282-5.592-3.835c1.008.773,4.066.1,1.543-.461-1.147-.611-3.733-1.03-1.97.369Zm7.009,4.278-2.13-1.692c2.464.7-2.072-1.56-.608-.257l.325.147Zm4.27,2.468-10.047-6.4,13.995,8.618M1822.183,58.1m-3.762-2.712-4.457-2.88,11.7,7.425,7.281,4.469-7.925-5.135-5.425-3.438,9.176,5.7M1824,58.291c1.79.23-2.131-1.219-.394-.13Zm6.221,3.825c1.672-1,1.121,2.34,2.837.282,1.692-1.236-1.462,1.528.623.22,1.509-1.009,3.736.479,5.144.963,1.011-.049,2,.875,3.034.313,2-.538-3.906-.8-2.359-1.752-1.827.532-3.177-.634-4.076-1.8-2.05-.474-4.42-1.521-5.443-3.336-.418-.68.6.1-.361-1.017a14.878,14.878,0,0,1-2.68-3.681c-.99-.528-1.107-2.083-1.207-.051.008-1.282-1.2-2.146-1.49-1.788-.005-1.235,1.289-.615.383-1.529-.195-1.28-.837-2.614-1.029-4.059-.3-.7-.043-2.188-1.024-.611-.357,1.667-.118-2.047.438-.823.729-1.249-.263-1.1-.3-.929.475-1.054.3-2.55-.124-1.98.253-1.118.4-4.113-.378-3.582.472-1.169.9-5.349-1.155-3.755a8.7,8.7,0,0,0-2.948.639c2.131,1.175-.215.424-1.083.237-.113,1.087-.972.618-2.046.628,1.716.212-.835,1.754-1.818,1.155-1.278.61,1.1,2.135.025,2.607.133.71-1.957-.257-1.794,1.385-1.24-.523-.17,1.947.451,1.111,2.11.571,1.485,1.872,1.538,3.109-.343.72-1.7-1.693-.3-1.582-1.1-1.789-1.218-.647-2.133.184-.212.06,2.334,1.183.736,1.737,1.406.218,1.447,1.448,1.733,2.226.844.88.671-.972,1.683.086-.641-.943-3.39-2.656-1.177-2.107-.012-.948-.4-1.714.279-1.7.672-1.216-.7,3,.81,1.454.419-.183.524-1.217,1.277.1,1.094,1.077.4,1.856-1.148.87.276.937,2.065,1.271,1.728,2.737.356,1.289.855.814,1.29.74.34,1.252.535.332.551-.265,1.561.335,1.195,1.257,1.684,1.9,1.075.485-1.539-3.29.307-1.135,1.942,1.754.729,2.486-1.014,2.205,1.1-.089,1.458,1.492,2.839,1.436,1.258.6,2.111,2.9-.058,1.941-.752-.679-3.416-1.515-1.24-.225a51.447,51.447,0,0,1,5.541,2.655c1.386.989,1.985,2.122,2.51,2.347-1.165.557-3.511-.444-1.769-.75-1.087-.2-2.31-.748-1.269.606.886.74,3.136.661,3.541.745-.342.753-.929.813.013.871-1.052.561.338.648.435.968Zm-2.151-6.075c-.64-.67-.806-1.923-.114-.833C1828.311,55.352,1829.092,57.258,1828.069,56.041Zm7.006,4.45-8.016-6.092-.7-.936-8.439-5.824,6.716,3.64-4.745-3.3,4.071,1.3c-.762-1.708.541-.934.169.28Zm-7.021-4.682a5.425,5.425,0,0,1-.723-2.707c.163.818,1.739,3.519.771,1.119-1.067-2.012,1.277.652,1.519,1.155.113.5-.659-.136-.137,1.034C1817.423,43.871,1817.814,45.94,1816.946,44.6Zm-2.17-1.5.976.337-2.348-1.816c-.808-.8-1.393-1.544.038-.5.55.021-1.225-1.683.133-.541,1.427.26.7,2.341-.171,1.04Zm1.233-.032.76.243-1.509-1.441c-2.348-2.092,2.95,1.092.383.387Zm6.729,3.909c-1.017-.609-.271-4.29.077-1.773.988-.32-.055,1.3.681,1.285C1821.26,44.84,1820.93,45.208,1820.617,44.306Zm2.489,1.472-.432-.428-8.327-5.639c-1.508-2.082,4.385,2.106.967.528C1814.958,40.144,1814.527,40.111,1814.348,39.71Zm4.794,2.541,3.639,2.335-8.2-5.67c.9-.192,3.716,1.574,1.127.5-.287-.318-.9-.174-1.127-.5Zm7.7,3.837c.1-1.793.536-1.07,0,.257l0-.258Zm-7.033-4.462c.366-.536-.971-2.423.192-.676.5.4,1.455.668.614.837C1817.375,39.618,1815.731,38.768,1815.247,38.292Zm6.652,3.9-7.416-5.788,1.736,1.033,4.894,2.722-.284-.627-.417-1.1.679-1.1c-.467-.821.589-3.62.707-1.884-.492,1.352-.142,2.109.2.294.634-1.427-.137,2.818-.907,1.59Zm.7-4.162-1.165,22.957,2.4,1.213c1.335.343,1.329-.207.122-.372-.649-.6-2.7-1.244-.863-.074C1822.4,57.2,1822.786,57.194,1823.024,57.34Zm-4.739-3.148c.734.549,2.77,1.554,1.047.21.581-.675-1.111-1.034-.55-1.486-1.428-.874-1.127-.8-.126-.768-1.716-.768.248-.71.155-1.1-.662-.13-3.287-1.167-1.743.085-1.57-.8-.374.3-.849.183-1.606-.438,1.43,1.223-.255.81.92.729,2.479,1.87.389.771-.274.4,1.5,1,1.931,1.3Zm2.51,1.443,12.849,7.784,1.321.556c.7-.681.029,1.087,1.167-.167.012-.9-.035-1.428-1.307-.337-.352.2-.508,1.021.14.5ZM1814,50.808m1.409.924,8.024,4.839c.784.7,3.6.511.951.086C1823.993,56.077,1821.9,56.217,1823.434,56.571Zm11.028,6.812,2.508,1.722,0-.455M1810.531,47.9c-1.138-1.623-.707-2.352-1.8-3.678-.209-1.014-1.883-3.314-.866-.878.931,1.426,1.207,3.632,2.671,4.556Zm26.023,16.3,1.875.734-24.847-15.922,24.456,15.42c1.191-.767-.274-.65-.216.07Zm-16.161-10.186,1,.574,17.074,10.131c1.526-1.1-.924-.211-.32.21Zm-.585-.282,2.986,1.988-28-18.022c1.118.251,4.47,2.754,2.493.174-1.013-.3-.406-2.776-1.439-2.338.693,1.159.57,1.651-.886.922-1.828-.894-1.028.442-.669.81-.488.111.644.423.5.432Zm-5.1-4.024c.2-.829-1.844-4.556-.965-1.868C1808.6,43.306,1808.571,44.374,1809.252,44.611Zm9.354,5.767,1.417.331,12.292,7.748.59.431,4.872,3.07-25.98-16.7,19.436,12.244-19.966-13.479,2.5,1.211,30.478,18.69c1.107-.224,3.631.564,4.038-.293-1.344-.033-4.65-.95-4.807.217l.295.047.475.029Zm-29.684-18.49-6.569-4.558,1.566.394.895.44,5.634,3.614-6.229-4.605-3.213-2.085.479-.36,2.639,1.575c1.117-.438-2.033-.907-.228-.082Zm35.33,21.824,4.268,2.212-39.329-25.418-3.756-2.517c-.2-1.156-.174-3.187,1.756-2.5-2.576.512,1.783,3.2,1.233,1.078,1.083.053,2.119-.64,1.55.411,2.135-.235,3.614-2.086,5.675-1.826a22.485,22.485,0,0,0,5.092-1.021c1.423-.1,2.792-1.634,2.013-2.542a22.012,22.012,0,0,0-6.116.505c-2.376.493-4.535,1.432-6.932,1.835-2.338.314.469.864-.2.988-1.219.423,1.455.708-.158,1.155-1-.189-2.033-.531-1.607-1.582-2.238.292-4.206,1.22-2.437,3.5h.131Zm5.4-2.748c.524-1.933,2.811,1.591.859.257A1.217,1.217,0,0,0,1811.67,33.2Zm.1-.938.961.016c.069-.89,2.2.471.351.32l-.351-.32Zm1.316-.529.337-.225c.8-.961,4.531-.614,1.8-.095-.732-.552-1.293.325-1.8.095Zm4.869-.751,1.382-.008c.505-1.323,1.961-.532.235-.267C1820.909,30.646,1820.82,31.188,1820.637,30.77Zm-11.151,7.02,1.117.309-3.288-2.332,44.565,27.879-4.528-3.091,5.774,3.39c1.205,0,3.653-.376,1.03-.374C1853.742,63.634,1851.756,63.621,1853.125,63.945Zm-41.54-26.388c.976-.066,1.526-1.076-.19-1.018-2.658-.274,2.346.911-.341.572C1810.693,37.348,1811.563,37.623,1811.584,37.556Zm.859.435,1.02-2.719-3.246-5.425c1.743-.591,4.124-1.257,4.947.292-.837-1.006-.338-2,.452-.525,1.118,1.489,1.677-.677.951-1.177.829,1.029,1.77,1.516.554.065,1.322-1.59-2.645.208-3.547.19-.433.195-4.479,1.032-3.356,1.156Zm1.021-1.954c.993-.749,3.436.447,1.868-.745C1812.953,27.014,1809.675,28.053,1811.238,27.894Zm3.621.15c1.162.029-.5-1.562.883-.841-.227-.742-1.612-.882-2.29-1.179C1813.069,26.7,1814.232,28.053,1814.859,28.044Zm-2.986-3.287,1.48.354c1.873-.248-.478-.806-.379-.02l.378.02Zm-2.764-2.161c-1.319-1.722,2.481.289,1.14-1.514-1.128-.9-2.212,1.012-1.14,1.514Zm16.926,9.117c.605-1.072-2.5-1.445-.407-.38.192.064.149.454.407.38Z" transform="translate(-1804.464 -20.979)" fill="#555"/>
</svg>
