<?xml version="1.0" encoding="utf-8"?>
<!-- Generator: Adobe Illustrator 26.0.2, SVG Export Plug-In . SVG Version: 6.00 Build 0)  -->
<svg version="1.1" id="Layer_1" xmlns="http://www.w3.org/2000/svg" xmlns:xlink="http://www.w3.org/1999/xlink" x="0px" y="0px"
	 viewBox="0 0 362.55 466" style="enable-background:new 0 0 362.55 466;" xml:space="preserve">
<style type="text/css">
	.st0{fill:#555555;}
</style>
<path class="st0" d="M115.76,284.02c-12.61-9.92-26.07-19.43-35.26-32.83c-19.35-23.62-34.25-50.97-44.43-79.71
	c-6.16-18.69-8.27-38.73-16.21-56.7c-8.3-13.05,1.43-27.31,15.73-31.46c6.36-1.23,17.55-7.23,4.04-2.93
	c-12.11,8.88-13.28-8.07-0.86-9.15c8.48-1.12,11.6-8.06,8.69-14.3c-9.1-5.94,22.06-12.45,6.38-21.31
	c-16.32-17.62,22.84-21.01,13.18-1C64.7,50.03,94.39,31.81,87.5,49.58c7,8.54,26.22,1.95,25.74,13.91c10.2,0.7,13.7,9.28,23.27,9.94
	c9.93,4.48,27.91,8.01,31.29,19.19c-9.84,7.79-32.63-16.1-33.73,5.47c2.98,31.87,2.22,64.7,13.87,95.05
	c5.51,18.37,18.89,32.84,30.96,47.15c11.56,14.01,27.2,23.89,43.16,32.19c13.99,6.6,29.07,10.97,44.32,13.72
	c6.18-4.73,17.1-22.31,26.74-14.9c0.47,8.34-19.14,17.43-0.92,16.5c10.71-3.23,18.13,8.27,26.94-2.11
	c8.12,9.62,33.75-6.14,27.97,13.52c-7.82,5.04-19.21,2-27.03,8.93c-12.9-6.45-23.17,5.76-37.46,4.22c-15.86,2.84-32,3.98-48.08,4.01
	c-26.38-2.08-53.32-2.96-78.42-12.15C141.98,300.12,128.18,292.07,115.76,284.02L115.76,284.02z M138.04,293.68
	c13.8,5.96,27.3,12.26,42.44,14.16c24.01,3.33,48.8,8.48,72.88,3.79c-10.9-4.92-22.18,1.91-33.04-3.52
	c-13.03,2.8-27.01-0.72-40.25-2.45c-15.06-6.71-31.31-11.32-45.41-20.03c-17.63-6.44,9.11,8.26,13.87,9.45
	c11.01,6.25-12.11-3.21-15.38-5.8c-9.23-5.18-10.4-4.09-0.91,1.16C134.15,291.55,136.03,292.72,138.04,293.68L138.04,293.68z
	 M111.76,275.11c13.38,4.96-0.06-9.41-6.18-8.58c-2.72-4.71-10.38-7.69-4.97-10.22c-9.72,3.38-10.18-12.83-14.75-10.51
	c-10.29-3.25-4-14.75-16.26-21.82c-1.12-7.45-12.17-13.9-15.69-25.12c-1.56-5.75-12.49-22.25-5.78-6.89
	c5.72,14.78,15.77,27.46,24.15,40.1c6.5,12.04,14.18,24.64,26.01,32.15C102.28,268.05,106.13,273.91,111.76,275.11L111.76,275.11z
	 M73.23,232.79 M127.79,281.05 M135.05,283.7 M144.14,287.49 M159.72,296.17 M129.81,275.32 M136.62,278.72 M170.7,299.99
	c5.48,3.46,32,7.58,15.4,1.42C183.31,301.99,155.31,293.48,170.7,299.99z M116.6,257.85 M132.46,267.1 M145.81,275.28
	 M110.14,250.82c6.43,4.93,25.94,0.63,9.85-2.94c-7.32-3.9-23.81-6.57-12.57,2.35L110.14,250.82z M154.85,278.11 M141.27,267.31
	c15.72,4.44-13.22-9.95-3.88-1.64l2.07,0.94L141.27,267.31z M168.51,283.05 M104.42,242.21 M193.69,297.18 M129.82,257.76
	 M105.83,240.47 M77.4,222.09 M152.03,269.45 M198.47,297.96 M147.92,265.21 M113.31,243.27 M171.85,279.65 M141.4,258.98
	c11.42,1.47-13.59-7.77-2.51-0.83L141.4,258.98z M181.09,283.38c10.67-6.37,7.15,14.93,18.1,1.8c10.79-7.88-9.32,9.74,3.97,1.4
	c9.63-6.44,23.83,3.05,32.81,6.14c6.45-0.31,12.73,5.58,19.35,1.99c12.74-3.43-24.92-5.09-15.05-11.17
	c-11.65,3.39-20.26-4.04-26-11.51c-13.08-3.02-28.19-9.7-34.72-21.28c-2.66-4.34,3.84,0.62-2.3-6.49c-7.87-7-11.81-14.96-17.1-23.48
	c-6.32-3.37-7.06-13.29-7.7-0.33c0.05-8.18-7.63-13.69-9.51-11.4c-0.03-7.88,8.22-3.93,2.44-9.75c-1.24-8.16-5.34-16.67-6.56-25.89
	c-1.91-4.44-0.27-13.96-6.53-3.9c-2.28,10.63-0.75-13.06,2.79-5.25c4.65-7.97-1.68-7.03-1.93-5.93c3.03-6.72,1.92-16.27-0.79-12.63
	c1.62-7.13,2.55-26.24-2.41-22.85c3.01-7.46,5.71-34.12-7.37-23.95c-5.29,0.08-14.47,1.92-18.8,4.08c13.59,7.49-1.37,2.71-6.91,1.51
	c-0.72,6.94-6.2,3.94-13.05,4.01c10.95,1.35-5.33,11.19-11.6,7.37c-8.15,3.89,7.03,13.62,0.16,16.63
	c0.85,4.53-12.49-1.64-11.44,8.83c-7.91-3.33-1.08,12.42,2.88,7.09c13.46,3.65,9.47,11.94,9.81,19.83
	c-2.19,4.59-10.83-10.8-1.92-10.09c-7.03-11.41-7.77-4.13-13.61,1.17c-1.35,0.38,14.89,7.54,4.7,11.08
	c8.97,1.39,9.23,9.24,11.06,14.2c5.39,5.61,4.28-6.2,10.73,0.55c-4.09-6.01-21.62-16.95-7.5-13.44c-0.08-6.05-2.56-10.93,1.77-10.81
	c4.29-7.76-4.49,19.13,5.17,9.27c2.67-1.17,3.34-7.77,8.15,0.63c6.98,6.87,2.52,11.84-7.33,5.55c1.76,5.98,13.17,8.11,11.02,17.46
	c2.27,8.22,5.46,5.19,8.23,4.72c2.17,7.98,3.41,2.11,3.51-1.69c9.95,2.13,7.62,8.02,10.74,12.13c6.86,3.09-9.82-20.99,1.96-7.24
	c12.39,11.19,4.65,15.86-6.47,14.07c7.04-0.57,9.3,9.52,18.11,9.16c8.03,3.82,13.47,18.49-0.37,12.38
	c-4.8-4.33-21.79-9.67-7.91-1.44c12.81,5.94,22.99,9.48,35.35,16.93c8.84,6.31,12.66,13.54,16.01,14.97
	c-7.43,3.55-22.4-2.83-11.28-4.79c-6.94-1.26-14.73-4.77-8.09,3.87c5.65,4.72,20,4.22,22.58,4.75c-2.18,4.81-5.93,5.19,0.08,5.56
	C171.61,280.79,180.47,281.35,181.09,283.38L181.09,283.38z M167.37,244.64c-4.08-4.27-5.14-12.26-0.73-5.31
	C168.91,240.24,173.89,252.39,167.37,244.64z M212.06,273.02 M160.93,234.17 M156.49,228.19 M102.66,191.04 M145.5,214.26
	 M115.23,193.22 M141.2,201.54c-4.86-10.89,3.45-5.96,1.08,1.79L141.2,201.54z M96.41,171.67c-2.17-3.58-5.77-14.07-4.61-17.27
	c1.04,5.22,11.09,22.45,4.92,7.14c-6.81-12.83,8.15,4.16,9.69,7.37c0.72,3.18-4.2-0.87-0.87,6.6
	C99.46,167,101.95,180.2,96.41,171.67z M82.58,162.13 M88.8,164.28 M73.82,152.69c-5.15-5.13-8.88-9.85,0.24-3.18
	c3.51,0.14-7.81-10.73,0.85-3.45C84.01,147.72,79.4,160.99,73.82,152.69L73.82,152.69z M81.69,152.49 M86.53,154.04 M76.91,144.84
	c-14.98-13.34,18.82,6.97,2.44,2.47L76.91,144.84z M119.83,169.78c-6.49-3.88-1.73-27.36,0.49-11.31c6.3-2.04-0.35,8.3,4.35,8.2
	C123.94,173.19,121.83,175.53,119.83,169.78z M135.71,179.17 M132.96,176.44 M79.84,140.46c-9.62-13.28,27.97,13.43,6.17,3.37
	C83.73,143.23,80.99,143.02,79.84,140.46z M110.42,156.67 M133.63,171.56 M81.32,135.4c5.72-1.23,23.7,10.04,7.19,3.21
	C86.68,136.58,82.76,137.5,81.32,135.4L81.32,135.4z M130.44,159.87c0.61-11.43,3.42-6.83,0.03,1.64L130.44,159.87L130.44,159.87z
	 M85.58,131.41c2.33-3.42-6.19-15.45,1.22-4.32c3.21,2.55,9.28,4.26,3.92,5.34C99.15,139.87,88.67,134.45,85.58,131.41z
	 M128.01,156.31 M80.71,119.38 M91.78,125.97 M123,143.34 M121.19,139.34 M118.53,132.32 M122.86,125.29
	c-2.98-5.24,3.76-23.09,4.51-12.02c-3.14,8.63-0.91,13.45,1.28,1.88C132.69,106.05,127.78,133.12,122.86,125.29L122.86,125.29z
	 M127.31,98.74 M119.88,245.18 M135.19,252.92c8.52,2.19,8.48-1.32,0.78-2.37c-4.14-3.85-17.2-7.93-5.51-0.47
	C131.23,252.04,133.67,251.99,135.19,252.92z M104.96,232.84c4.69,3.5,17.67,9.91,6.68,1.34c3.7-4.31-7.09-6.6-3.51-9.48
	c-9.11-5.58-7.19-5.08-0.8-4.9c-10.95-4.9,1.58-4.53,0.99-7.04c-4.22-0.83-20.97-7.45-11.12,0.54c-10.01-5.1-2.39,1.9-5.41,1.17
	c-10.24-2.79,9.12,7.8-1.62,5.17c5.87,4.65,15.81,11.93,2.48,4.92C90.89,227.08,102.18,230.92,104.96,232.84L104.96,232.84z
	 M120.97,242.04 M202.93,291.69 M211.35,295.23c4.49-4.35,0.19,6.94,7.44-1.06c0.08-5.73-0.22-9.11-8.34-2.15
	C208.21,293.26,207.22,298.53,211.35,295.23L211.35,295.23z M77.63,211.25 M86.62,217.15 M137.8,248.01c5,4.44,22.95,3.26,6.07,0.55
	C141.37,244.87,128,245.75,137.8,248.01z M208.15,291.46 M224.14,302.45 M224.17,299.55 M55.5,192.73
	c-7.26-10.35-4.51-15.01-11.51-23.46c-1.33-6.47-12.01-21.14-5.52-5.6C44.4,172.76,46.16,186.83,55.5,192.73L55.5,192.73z
	 M221.5,296.68 M233.46,301.37 M74.96,199.81 M230.96,298.17c7.6-4.9-1.75-4.14-1.38,0.45L230.96,298.17z M127.87,233.19
	 M134.24,236.85 M243.15,301.48c9.74-7.02-5.89-1.35-2.04,1.34L243.15,301.48z M239.42,299.68 M258.47,312.35 M79.84,197.4
	c7.13,1.6,28.51,17.57,15.9,1.11c-6.46-1.91-2.59-17.7-9.18-14.91c4.42,7.39,3.63,10.53-5.65,5.88c-11.66-5.7-6.55,2.82-4.27,5.17
	C73.53,195.35,80.76,197.34,79.84,197.4L79.84,197.4z M47.34,171.73c1.28-5.29-11.77-29.06-6.16-11.92
	C43.2,163.4,42.99,170.21,47.34,171.73z M107,208.51 M116.04,210.62 M194.45,260.04 M198.22,262.79 M229.29,282.37 M63.57,175.87
	 M187.55,253.97 M60.19,167.99 M76.13,175.72 M270.55,294.94c7.06-1.43,23.16,3.6,25.76-1.87c-8.58-0.21-29.66-6.06-30.66,1.39
	l1.88,0.3L270.55,294.94L270.55,294.94z M81.19,176.99 M39.3,147.92 M49.28,150.43 M54.99,153.24 M90.93,176.29 M51.2,146.92
	 M30.7,133.62 M33.75,131.32 M50.59,141.37c7.12-2.79-12.97-5.79-1.46-0.52L50.59,141.37z M275.95,280.58 M303.18,294.68
	 M52.31,132.54 M28.35,116.49c-1.29-7.38-1.11-20.33,11.2-15.95c-16.43,3.26,11.38,20.42,7.87,6.88c6.91,0.34,13.52-4.08,9.89,2.62
	c13.62-1.5,23.05-13.3,36.2-11.65c10.24-1.36,21.44-2.39,32.48-6.51c9.08-0.65,17.81-10.42,12.84-16.22
	c-12.38-1.05-25.33,0.5-39.01,3.22c-15.16,3.15-28.93,9.13-44.22,11.71c-14.91,2,2.99,5.51-1.28,6.3c-7.77,2.7,9.28,4.52-1.01,7.37
	c-6.35-1.21-12.97-3.39-10.25-10.09c-14.28,1.86-26.83,7.78-15.55,22.31L28.35,116.49L28.35,116.49z M62.77,98.96
	c3.34-12.33,17.93,10.15,5.48,1.64C66.77,99.49,64.31,98.58,62.77,98.96z M63.42,92.98 M69.55,93.09c0.44-5.68,14.05,3,2.24,2.04
	L69.55,93.09L69.55,93.09z M77.94,89.71 M80.09,88.28c5.11-6.13,28.9-3.92,11.49-0.6C86.9,84.15,83.33,89.74,80.09,88.28
	L80.09,88.28z M111.15,83.49 M119.96,83.43c3.22-8.44,12.51-3.39,1.5-1.7C121.69,82.64,121.13,86.1,119.96,83.43z M48.83,128.21
	 M55.96,130.19 M34.98,115.31 M319.25,293.14 M290.36,273.43 M327.19,295.05c7.69,0.03,23.3-2.4,6.57-2.39
	C331.13,293.07,318.46,292.99,327.19,295.05z M62.22,126.72c6.23-0.42,9.74-6.86-1.21-6.5c-16.96-1.75,14.96,5.81-2.17,3.65
	C56.53,125.4,62.08,127.15,62.22,126.72z M67.7,129.5 M74.2,112.16 M53.49,77.56c11.12-3.77,26.31-8.02,31.55,1.86
	c-5.34-6.42-2.16-12.75,2.88-3.35c7.13,9.5,10.7-4.32,6.06-7.51c5.29,6.56,11.29,9.67,3.54,0.42c8.43-10.14-16.87,1.33-22.62,1.21
	C72.14,71.42,46.33,76.76,53.49,77.56L53.49,77.56z M60.01,65.09c6.34-4.78,21.92,2.85,11.92-4.75
	C70.94,59.47,50.04,66.11,60.01,65.09z M83.11,66.05c7.41,0.19-3.2-9.96,5.63-5.36c-1.45-4.74-10.28-5.62-14.61-7.52
	C71.69,57.5,79.11,66.11,83.11,66.05z M64.06,45.08 M73.5,47.33c11.95-1.58-3.05-5.14-2.41-0.13L73.5,47.33L73.5,47.33z
	 M55.87,33.55c-8.42-10.99,15.83,1.84,7.27-9.66C55.95,18.16,49.04,30.34,55.87,33.55L55.87,33.55z M163.84,91.7
	c3.86-6.84-15.93-9.22-2.6-2.42C162.47,89.69,162.19,92.17,163.84,91.7L163.84,91.7z M85.5,346.29c-0.85,3.37-1.38,9.03-1.58,16.97
	c0,1.56-0.7,2.34-2.11,2.34c-1.41,0-2.39-0.68-2.94-2.04c-1.51-3.67-2.94-6.23-4.3-7.69c-1.61-1.71-3.74-2.74-6.41-3.09
	c-2.87-0.45-10-0.68-21.41-0.68c-2.61,0-4.32,0.28-5.13,0.83c-0.5,0.35-0.75,1.1-0.75,2.26v34.16c0,1.16,0.73,1.71,2.18,1.66
	c4.48-0.05,10.96-0.36,19.45-0.91c1.66-0.2,2.78-0.74,3.36-1.62c0.58-0.88,1.15-3.15,1.7-6.82c0.35-2.01,1.53-2.79,3.54-2.34
	c1.71,0.35,2.44,1.13,2.19,2.34c-1.41,6.84-1.87,15.74-1.36,26.7c0.05,1.3-0.78,2.01-2.49,2.11c-1.41,0.15-2.29-0.6-2.64-2.26
	c-1.3-6.28-3.73-9.64-7.27-10.07c-3.54-0.42-9.32-0.64-17.31-0.64c-0.91,0-1.36,0.32-1.36,0.98v33.94c0,2.51,0.93,4.23,2.79,5.13
	c1.46,0.75,4.6,1.43,9.43,2.04c2.47,0.25,3.54,1.33,3.25,3.24c-0.3,1.66-2.51,2.31-6.64,1.96c-11.91-0.96-21.74-0.91-29.48,0.15
	c-2.16,0.3-3.24-0.58-3.24-2.64c0-1.31,1.08-2.06,3.24-2.26c4.93-0.55,7.39-4.88,7.39-12.97V362.5c0-3.31-0.59-5.86-1.77-7.65
	c-1.18-1.79-3.38-3.41-6.6-4.86c-2.01-0.91-2.77-2.14-2.26-3.7c0.25-0.95,0.65-1.48,1.2-1.58c0.5-0.15,1.84-0.05,4,0.3
	c3.17,0.5,10.64,0.75,22.4,0.75c13.88,0,25.87-0.3,35.97-0.91c3.37-0.2,5.05,0.07,5.05,0.83C85.58,345.89,85.55,346.09,85.5,346.29
	L85.5,346.29z M134.4,442.02c0,2.01-1.13,2.89-3.39,2.64c-6.93-0.65-15.53-0.56-25.79,0.3c-2.06,0.2-3.33,0.15-3.81-0.15
	c-0.48-0.3-0.71-1.13-0.71-2.49c0-1.2,1.37-2.22,4.11-3.05c2.74-0.83,4.11-3.3,4.11-7.42v-68.25c0-4.07-0.59-7.07-1.77-8.98
	c-1.18-1.91-3.26-3.39-6.22-4.45c-1.56-0.56-2.34-1.33-2.34-2.34c0-1.51,1.13-2.64,3.39-3.39c3.42-1.11,6.97-2.81,10.64-5.13
	c3.02-1.81,4.93-2.71,5.73-2.71c1.86,0,2.79,1.28,2.79,3.84c0-0.2-0.1,2.32-0.31,7.54c-0.15,4.98-0.2,9.88-0.15,14.71l0.3,67.34
	c0,3.07,0.76,5.29,2.26,6.68c1.51,1.38,4.1,2.3,7.77,2.75C133.27,439.71,134.4,440.56,134.4,442.02L134.4,442.02z M202.61,437.58
	c0,1.06-1.92,2.65-5.77,4.79c-3.85,2.14-6.93,3.21-9.24,3.21c-1.96,0-3.7-0.95-5.2-2.87c-1.51-1.91-2.57-2.86-3.17-2.86
	c-0.45,0-2.84,1.03-7.17,3.09c-4.32,2.06-8.67,3.1-13.04,3.1c-4.12,0-7.57-1.21-10.33-3.62c-3.02-2.67-4.52-6.29-4.52-10.86
	c0-8.7,9.95-14.93,29.86-18.7c3.41-0.65,5.15-2.04,5.2-4.15l0.15-4.83c0.3-8.24-3.34-12.36-10.94-12.36c-2.16,0-4.21,1.93-6.15,5.8
	c-1.93,3.88-4.71,5.96-8.33,6.26c-4.12,0.4-6.18-1.33-6.18-5.21c0-2.42,3.07-5.23,9.2-8.45c6.44-3.37,12.62-5.05,18.55-5.05
	c10.2,0,15.26,4.85,15.16,14.56l-0.3,31.07c-0.05,3.27,1.34,4.9,4.15,4.9c0.55,0,1.61-0.12,3.17-0.38c1.56-0.25,2.47-0.38,2.72-0.38
	C201.88,434.63,202.61,435.62,202.61,437.58L202.61,437.58z M179.38,420.38c0.05-1.26-0.24-2.09-0.87-2.49
	c-0.63-0.4-1.62-0.48-2.98-0.23c-12.12,2.16-18.18,6.11-18.18,11.84c0,5.78,3.14,8.67,9.43,8.67c2.51,0,5.11-0.48,7.77-1.43
	c3.12-1.11,4.68-2.44,4.68-4L179.38,420.38L179.38,420.38z M258.67,428.9c0,5.33-2.05,9.57-6.15,12.71
	c-4.1,3.14-9.69,4.71-16.78,4.71c-4.72,0-9.45-0.5-14.18-1.51c-4.07-0.91-6.44-1.73-7.09-2.49c-0.4-0.71-0.6-4.15-0.6-10.33
	c0-2.66,0.6-4.05,1.81-4.15c1.21-0.15,2.24,0.5,3.09,1.96c3.77,6.59,9.85,9.88,18.25,9.88c7.08,0,10.63-2.47,10.63-7.4
	c0-2.16-0.8-3.97-2.41-5.43c-1.76-1.66-5.17-3.6-10.25-5.81c-7.34-3.27-12.24-6.13-14.71-8.6c-2.67-2.61-4-6.13-4-10.56
	c0-5.43,2.09-9.65,6.26-12.67c3.87-2.92,9.05-4.37,15.53-4.37c4.07,0,7.79,0.32,11.17,0.98c3.62,0.65,5.5,1.46,5.66,2.41
	c0.4,2.81,1.23,6.89,2.49,12.22c0.15,0.65-0.56,1.18-2.11,1.58c-1.66,0.35-2.77,0.07-3.32-0.83c-3.97-6.49-9-9.73-15.08-9.73
	c-6.89,0-10.33,2.21-10.33,6.64c0,2.47,0.93,4.42,2.79,5.88c1.66,1.26,5.56,3.22,11.69,5.89c6.44,2.76,10.81,5.25,13.12,7.46
	C257.17,420.23,258.67,424.08,258.67,428.9L258.67,428.9z M347.39,442.1c0,1.76-1.18,2.69-3.55,2.79c-3.52,0.05-8.12,0.3-13.8,0.75
	c-2.82,0.55-4.83,0.2-6.03-1.05c-7.94-8.55-14.68-17.5-20.22-26.85c-0.45-0.8-1.03-1.2-1.73-1.2c-0.85,0-2.33,0.75-4.45,2.26
	c-2.37,1.3-3.55,3.17-3.55,5.58c0,1.71,0.05,4.17,0.15,7.4c0.1,3.21,0.9,5.32,2.41,6.33c1.06,0.71,3.5,1.26,7.31,1.66
	c2.36,0.3,3.55,1.18,3.55,2.64c0,1.16-0.19,1.88-0.57,2.15c-0.38,0.28-1.37,0.34-2.98,0.19c-5.03-0.45-13.52-0.2-25.49,0.75
	c-3.02,0.25-4.65-0.13-4.9-1.13c-0.1-0.35-0.15-0.85-0.15-1.51c0-1.55,1.54-2.74,4.6-3.54c2.76-0.71,4.15-3.95,4.15-9.73v-65.91
	c0-4.12-0.4-6.99-1.21-8.59c-1.1-2.06-3.42-3.67-6.94-4.83c-1.66-0.55-2.49-1.33-2.49-2.34c0-1.46,1.18-2.59,3.54-3.39
	c3.8-1.27,7.42-3.02,10.78-5.21c2.77-1.81,4.48-2.71,5.13-2.71c2.06,0,3.1,1.3,3.1,3.92c0-0.36-0.03,2.14-0.08,7.46
	c-0.05,4.93-0.08,9.85-0.07,14.78l0.15,47.21c0,1.31,0.35,1.96,1.05,1.96c0.75,0,1.91-0.65,3.47-1.96
	c4.17-3.27,9.3-7.54,15.38-12.82c1.21-1.26,1.81-2.26,1.81-3.02c0-1.36-2.04-2.32-6.11-2.86c-1.76-0.21-2.59-1.18-2.49-2.94
	c0.15-1.76,1.03-2.51,2.64-2.26c3.62,0.5,8.9,0.78,15.84,0.83c4.83,0.05,9.63,0.07,14.41,0.07c1.55,0.05,2.34,0.98,2.34,2.79
	c0,1.71-1.23,2.64-3.69,2.79c-3.88,0.15-7.52,1.03-10.93,2.64c-4.78,2.16-9.88,5.95-15.31,11.39c-0.4,0.3-0.6,0.68-0.6,1.13
	c0,0.7,0.85,2.39,2.57,5.05c6.28,9.55,12.22,16.76,17.79,21.64c3.57,3.07,6.91,4.6,10.03,4.6c2.32,0,3.75,0.16,4.3,0.49
	C347.11,439.82,347.39,440.69,347.39,442.1L347.39,442.1z"/>
</svg>
