<svg xmlns="http://www.w3.org/2000/svg" xmlns:xlink="http://www.w3.org/1999/xlink" width="620.41" height="444.631" viewBox="0 0 620.41 444.631">
  <defs>
    <clipPath id="clip-path">
      <rect id="Rectangle_692" data-name="Rectangle 692" width="620.41" height="444.631" fill="none"/>
    </clipPath>
    <clipPath id="clip-path-2">
      <rect id="Rectangle_691" data-name="Rectangle 691" width="620.409" height="444.631" fill="none"/>
    </clipPath>
    <clipPath id="clip-path-3">
      <rect id="Rectangle_662" data-name="Rectangle 662" width="41.296" height="319.638" fill="none"/>
    </clipPath>
    <clipPath id="clip-path-4">
      <rect id="Rectangle_664" data-name="Rectangle 664" width="41.296" height="222.141" fill="none"/>
    </clipPath>
    <clipPath id="clip-path-5">
      <rect id="Rectangle_666" data-name="Rectangle 666" width="41.293" height="250.386" fill="none"/>
    </clipPath>
    <clipPath id="clip-path-6">
      <rect id="Rectangle_668" data-name="Rectangle 668" width="41.296" height="260.233" fill="none"/>
    </clipPath>
    <clipPath id="clip-path-7">
      <rect id="Rectangle_670" data-name="Rectangle 670" width="41.295" height="183.075" fill="none"/>
    </clipPath>
    <clipPath id="clip-path-8">
      <rect id="Rectangle_672" data-name="Rectangle 672" width="41.296" height="245.971" fill="none"/>
    </clipPath>
    <clipPath id="clip-path-9">
      <rect id="Rectangle_674" data-name="Rectangle 674" width="41.296" height="170.944" fill="none"/>
    </clipPath>
    <clipPath id="clip-path-10">
      <rect id="Rectangle_676" data-name="Rectangle 676" width="41.293" height="192.679" fill="none"/>
    </clipPath>
    <clipPath id="clip-path-11">
      <rect id="Rectangle_678" data-name="Rectangle 678" width="41.296" height="200.257" fill="none"/>
    </clipPath>
    <clipPath id="clip-path-12">
      <rect id="Rectangle_680" data-name="Rectangle 680" width="41.295" height="140.882" fill="none"/>
    </clipPath>
    <clipPath id="clip-path-13">
      <rect id="Rectangle_688" data-name="Rectangle 688" width="91.259" height="27.05" fill="none"/>
    </clipPath>
    <clipPath id="clip-path-14">
      <rect id="Rectangle_689" data-name="Rectangle 689" width="69.063" height="20.47" fill="none"/>
    </clipPath>
    <clipPath id="clip-path-15">
      <rect id="Rectangle_690" data-name="Rectangle 690" width="60.222" height="17.85" fill="none"/>
    </clipPath>
  </defs>
  <g id="Illustration" clip-path="url(#clip-path)">
    <g id="Group_963" data-name="Group 963" transform="translate(0 -0.001)">
      <g id="Group_962" data-name="Group 962" clip-path="url(#clip-path-2)">
        <path id="Path_2025" data-name="Path 2025" d="M128.337,396c-17.326-23.775-15.4-33.76-43.334-53.824-27.194-19.531-40.1-20.1-65.91-37.264-38.289-25.462-17.75-113.3,50.486-159.751,20.521-13.969,36.58-18.222,46.027-36.036,20.283-38.252-26.712-69.657-14.176-88.209,28.226-41.772,366.612-30.73,480.388,123.9,53.138,72.218,49.129,164.675-16.736,225.7C446.063,480.774,167.212,449.348,128.337,396" transform="translate(0 0.002)" fill="#e7f3fd"/>
        <g id="Group_925" data-name="Group 925" transform="translate(432.039 77.915)" opacity="0.6">
          <g id="Group_924" data-name="Group 924">
            <g id="Group_923" data-name="Group 923" clip-path="url(#clip-path-3)">
              <rect id="Rectangle_661" data-name="Rectangle 661" width="41.296" height="319.639" transform="translate(0.001 -0.001)" fill="#9bc1f9"/>
            </g>
          </g>
        </g>
        <g id="Group_928" data-name="Group 928" transform="translate(374.369 175.411)" opacity="0.6">
          <g id="Group_927" data-name="Group 927">
            <g id="Group_926" data-name="Group 926" clip-path="url(#clip-path-4)">
              <rect id="Rectangle_663" data-name="Rectangle 663" width="41.295" height="222.142" transform="translate(-0.001 0)" fill="#9bc1f9"/>
            </g>
          </g>
        </g>
        <g id="Group_931" data-name="Group 931" transform="translate(490.542 147.167)" opacity="0.6">
          <g id="Group_930" data-name="Group 930">
            <g id="Group_929" data-name="Group 929" clip-path="url(#clip-path-5)">
              <rect id="Rectangle_665" data-name="Rectangle 665" width="41.295" height="250.386" transform="translate(-0.001 -0.001)" fill="#9bc1f9"/>
            </g>
          </g>
        </g>
        <g id="Group_934" data-name="Group 934" transform="translate(316.697 137.319)" opacity="0.6">
          <g id="Group_933" data-name="Group 933">
            <g id="Group_932" data-name="Group 932" clip-path="url(#clip-path-6)">
              <rect id="Rectangle_667" data-name="Rectangle 667" width="41.296" height="260.233" transform="translate(0 0.001)" fill="#9bc1f9"/>
            </g>
          </g>
        </g>
        <g id="Group_937" data-name="Group 937" transform="translate(259.026 214.477)" opacity="0.6">
          <g id="Group_936" data-name="Group 936">
            <g id="Group_935" data-name="Group 935" clip-path="url(#clip-path-7)">
              <rect id="Rectangle_669" data-name="Rectangle 669" width="41.296" height="183.075" fill="#9bc1f9"/>
            </g>
          </g>
        </g>
        <g id="Group_940" data-name="Group 940" transform="translate(432.039 151.581)" opacity="0.3" style="mix-blend-mode: multiply;isolation: isolate">
          <g id="Group_939" data-name="Group 939">
            <g id="Group_938" data-name="Group 938" clip-path="url(#clip-path-8)">
              <rect id="Rectangle_671" data-name="Rectangle 671" width="41.296" height="245.971" transform="translate(0.001 0.001)" fill="#88c9f7"/>
            </g>
          </g>
        </g>
        <g id="Group_943" data-name="Group 943" transform="translate(374.369 226.608)" opacity="0.3" style="mix-blend-mode: multiply;isolation: isolate">
          <g id="Group_942" data-name="Group 942">
            <g id="Group_941" data-name="Group 941" clip-path="url(#clip-path-9)">
              <rect id="Rectangle_673" data-name="Rectangle 673" width="41.295" height="170.944" transform="translate(-0.001 0)" fill="#88c9f7"/>
            </g>
          </g>
        </g>
        <g id="Group_946" data-name="Group 946" transform="translate(490.542 204.873)" opacity="0.3" style="mix-blend-mode: multiply;isolation: isolate">
          <g id="Group_945" data-name="Group 945">
            <g id="Group_944" data-name="Group 944" clip-path="url(#clip-path-10)">
              <rect id="Rectangle_675" data-name="Rectangle 675" width="41.295" height="192.679" transform="translate(-0.001)" fill="#88c9f7"/>
            </g>
          </g>
        </g>
        <g id="Group_949" data-name="Group 949" transform="translate(316.697 197.296)" opacity="0.3" style="mix-blend-mode: multiply;isolation: isolate">
          <g id="Group_948" data-name="Group 948">
            <g id="Group_947" data-name="Group 947" clip-path="url(#clip-path-11)">
              <rect id="Rectangle_677" data-name="Rectangle 677" width="41.296" height="200.257" transform="translate(0 0)" fill="#88c9f7"/>
            </g>
          </g>
        </g>
        <g id="Group_952" data-name="Group 952" transform="translate(259.026 256.671)" opacity="0.3" style="mix-blend-mode: multiply;isolation: isolate">
          <g id="Group_951" data-name="Group 951">
            <g id="Group_950" data-name="Group 950" clip-path="url(#clip-path-12)">
              <rect id="Rectangle_679" data-name="Rectangle 679" width="41.296" height="140.882" transform="translate(0 0)" fill="#88c9f7"/>
            </g>
          </g>
        </g>
        <path id="Path_2026" data-name="Path 2026" d="M1256,298.739l-32.906,24.887,12.552.8L1157.1,462.673,1113.6,397.467l-61.525,143.51L1012.5,484.768,963.18,554.491l3.1,12.479,46.2-64.99,41.832,59.416,61.3-142.983,42.2,63.266,86.964-153.055,8.073,8.683Z" transform="translate(-704.091 -218.379)" fill="#3868ad"/>
        <path id="Path_2027" data-name="Path 2027" d="M329.032,744.775c-47.221-37.6-86.9-86.239-116.938-143.347L147.146,653.6c34.734,66.03,80.609,122.264,135.207,165.742l46.68-74.568" transform="translate(-107.565 -439.647)" fill="#4979b8"/>
        <path id="Path_2028" data-name="Path 2028" d="M233.73,652.121l-40.344,32.926c3.2,5.971,2.041,14.026-2.731,18.112,30.534,53.99,68.8,100.9,113.363,138.965a10.335,10.335,0,0,1,15.445-2.525L348.9,793.3c-4.541-3.685-5.189-11.217-1.548-16.681C308.218,743.191,274.614,702,247.8,654.586c-4.768,4.083-11.123,3.029-14.07-2.465" transform="translate(-139.37 -476.704)" fill="#67b8ee"/>
        <path id="Path_2029" data-name="Path 2029" d="M428.636,968.176c10.082-13.011,9.986-32.207.475-43.69-9.536-11.453-25.829-11.993-37.1-.414-11.253,11.555-12.329,32.095-1.608,44.99s28.172,12.1,38.233-.886" transform="translate(-279.928 -669.337)" fill="#86c6ea"/>
        <path id="Path_2030" data-name="Path 2030" d="M458.75,960.96l-3.8,4.219c3.031,5.556,2.389,11.3-.878,15.047-3.3,3.777-6.993,4.127-12.624.79-4.09-2.31-6.055-2.993-7.3-1.642-1.054,1.139-1.4,3.209.831,6.034a15.412,15.412,0,0,0,3.5,3.278,3.786,3.786,0,0,1,1,4.808,2.718,2.718,0,0,1-4.034,1.17,21.535,21.535,0,0,1-3.688-3.422l-3.288,3.628q-1.722-2.159-3.423-4.341l3.579-3.88c-2.895-5.591-2.319-11.149,1.041-14.675,3.709-3.9,8-2.7,12.914.385,3.409,2.127,5.385,2.463,6.8.892,1.488-1.659,1-4.187-.871-6.578a16.715,16.715,0,0,0-4.253-3.821,3.627,3.627,0,0,1-.867-4.806l.106-.183a2.73,2.73,0,0,1,3.855-1.185,22.691,22.691,0,0,1,4.665,4.151l3.57-3.892q1.575,2.021,3.17,4.021" transform="translate(-310.711 -699.044)" fill="#4979b8"/>
        <path id="Path_2031" data-name="Path 2031" d="M592.75,1155.894q-16.141-13.821-31.084-29.264l-5.117,6.655q15.141,15.645,31.519,29.674l4.682-7.065" transform="translate(-406.841 -823.573)" fill="#50bfa5"/>
        <path id="Path_2032" data-name="Path 2032" d="M237.991,919.022C178.68,911.5,120.511,891.656,66.55,860.534l-30.775,72.1C98.166,968.623,165.422,991.568,234,1000.264q2-40.621,3.992-81.242" transform="translate(-26.152 -629.055)" fill="#4979b8"/>
        <path id="Path_2033" data-name="Path 2033" d="M90.944,905.877l-18.864,45.2c5.7,3.225,8.627,10.166,6.49,15.664,52.864,28.415,108.967,47.555,166.2,56.7.484-6.062,5.917-10.15,12.151-9.3q1.435-25.329,2.869-50.657c-5.737-.779-9.983-6.449-9.5-12.507a462.619,462.619,0,0,1-145.948-49.791,9.145,9.145,0,0,1-13.4,4.694" transform="translate(-52.691 -658.769)" fill="#67b8ee"/>
        <path id="Path_2034" data-name="Path 2034" d="M394.136,1088.726c2.375-15.091-7.1-30.28-20.952-34.9a24.9,24.9,0,0,0-32.356,17.208c-4.1,14.489,5.01,31.3,20.607,36.465,15.593,5.184,30.334-3.71,32.7-18.775" transform="translate(-248.429 -769.358)" fill="#86c6ea"/>
        <path id="Path_2035" data-name="Path 2035" d="M417.686,1074.9q-.615,2.572-1.231,5.145c5.344,2.977,7.595,7.835,6.6,12.358-1.012,4.557-4.043,6.58-10.555,6.594-4.674.1-6.711.487-7.13,2.148-.357,1.4.352,3.21,3.67,4.4a16.122,16.122,0,0,0,4.637.946,3.5,3.5,0,0,1,3.219,3.343,2.677,2.677,0,0,1-2.924,2.835,22.493,22.493,0,0,1-4.869-.973q-.538,2.218-1.076,4.434-2.549-.9-5.09-1.827.6-2.385,1.205-4.771c-5.243-3.069-7.462-7.751-6.274-12.138,1.309-4.844,5.611-5.922,11.38-5.8,3.995.077,5.871-.591,6.327-2.505.479-2.02-1.178-3.8-3.972-4.809a17.531,17.531,0,0,0-5.554-1.021,3.343,3.343,0,0,1-3.1-3.4c0-.065,0-.13,0-.195a2.686,2.686,0,0,1,2.761-2.763,23.8,23.8,0,0,1,6.073,1.089q.6-2.388,1.19-4.776,2.354.859,4.714,1.693" transform="translate(-290.613 -784.523)" fill="#4979b8"/>
        <path id="Path_2036" data-name="Path 2036" d="M614.082,623.086a36.58,36.58,0,0,1-4.222-1.685,21.225,21.225,0,0,0-4.814-1.807c-2.664-.41-7.239-.137-9.766,2.6-3.148,3.4-8.742.615-7.615,18.44,1.276,20.176,12.532,17.962,12.806,17.62s10.04-12.908,10.04-12.908,3.415,7.444,3.415,7.171,17.436-23.627.158-29.427" transform="translate(-429.478 -452.815)" fill="#062d66"/>
        <path id="Path_2037" data-name="Path 2037" d="M317.992,1127.475c-46.665,18.437-98.153,26.865-151.751,24.841l10.672,68.42c61.972,2.342,121.5-7.4,175.458-28.721l-34.379-64.54" transform="translate(-121.523 -824.191)" fill="#4979b8"/>
        <path id="Path_2038" data-name="Path 2038" d="M187.1,1185.831l7,42.716c5.629.167,10.951,4.343,11.918,9.474,51.556.378,101.216-7.751,147.112-24.081a8.59,8.59,0,0,1,4.582-12.175l-21.159-40.4c-4.537,1.744-10.233-.91-12.66-5.8-40.3,14.34-83.912,21.479-129.186,21.147.966,5.128-2.427,9.269-7.607,9.116" transform="translate(-136.768 -844.727)" fill="#67b8ee"/>
        <path id="Path_2039" data-name="Path 2039" d="M471.194,1261.622c-5.2-12.657-19.067-20.544-31.282-18.45-12.2,2.123-19.347,13.639-15.676,26.56,3.661,12.9,18.015,22.186,31.749,19.806,13.74-2.365,20.4-15.281,15.208-27.915" transform="translate(-309.414 -908.52)" fill="#50bfa5"/>
        <path id="Path_2040" data-name="Path 2040" d="M477.206,1257.569q.733,2.244,1.464,4.488c5.259.119,9.129,2.96,10.478,6.87,1.354,3.942.075,6.749-4.663,9.423-3.36,1.989-4.666,3.123-4.209,4.58.384,1.232,1.73,2.342,4.692,1.9a12.815,12.815,0,0,0,3.813-1.164,3.147,3.147,0,0,1,3.88,1.271,2.259,2.259,0,0,1-.829,3.391,17.887,17.887,0,0,1-3.994,1.239q.626,1.937,1.251,3.873-2.27.346-4.547.667-.655-2.094-1.312-4.187c-5.228-.232-8.994-2.95-10.142-6.832-1.27-4.287,1.37-6.881,5.63-9.145,2.945-1.574,4.006-2.859,3.46-4.528-.579-1.76-2.6-2.459-5.1-2.1a13.893,13.893,0,0,0-4.516,1.481,3.015,3.015,0,0,1-3.822-1.367l-.087-.152a2.269,2.269,0,0,1,.744-3.268,18.837,18.837,0,0,1,4.924-1.641q-.662-2.092-1.325-4.185,2.109-.3,4.211-.617" transform="translate(-342.307 -919.29)" fill="#3c8f7c"/>
        <path id="Path_2041" data-name="Path 2041" d="M656.119,1264.618q-16.648,5.9-33.969,10.267l2.674,6.445q17.547-4.424,34.444-10.411l-3.149-6.3" transform="translate(-454.796 -924.443)" fill="#50bfa5"/>
        <path id="Path_2042" data-name="Path 2042" d="M444.16,1407.1V1423.8c0,2.7,30.132,4.891,67.3,4.891s67.3-2.19,67.3-4.891V1407.1Z" transform="translate(-324.684 -1028.595)" fill="#f4932a"/>
        <path id="Path_2043" data-name="Path 2043" d="M492.865,1428.5V1407.1h-48.7V1423.8c0,2.232,20.58,4.115,48.7,4.7" transform="translate(-324.684 -1028.595)" fill="#ffaa45"/>
        <path id="Path_2044" data-name="Path 2044" d="M633.649,1428.548c5.228.095,10.7.145,16.33.145,8.392,0,16.424-.112,23.833-.316V1407.1H633.649Z" transform="translate(-463.201 -1028.595)" fill="#ffaa45"/>
        <path id="Path_2045" data-name="Path 2045" d="M792.979,1428.3c23.978-.748,40.772-2.479,40.772-4.5V1407.1H792.979Z" transform="translate(-579.673 -1028.595)" fill="#ffaa45"/>
        <path id="Path_2046" data-name="Path 2046" d="M578.762,1393.146c0,2.7-30.132,4.891-67.3,4.891s-67.3-2.19-67.3-4.891,30.132-4.891,67.3-4.891,67.3,2.19,67.3,4.891" transform="translate(-324.684 -1014.823)" fill="#f4932a"/>
        <path id="Path_2047" data-name="Path 2047" d="M599.167,1397.222c0,1.873-24.813,3.391-55.421,3.391s-55.421-1.518-55.421-3.391,24.813-3.391,55.421-3.391,55.421,1.518,55.421,3.391" transform="translate(-356.969 -1018.899)" fill="#f7cc7f"/>
        <path id="Path_2048" data-name="Path 2048" d="M401.354,1341.37v16.708c0,2.7,30.132,4.891,67.3,4.891s67.3-2.19,67.3-4.891V1341.37Z" transform="translate(-293.392 -980.549)" fill="#f4932a"/>
        <path id="Path_2049" data-name="Path 2049" d="M450.059,1362.779V1341.37h-48.7v16.708c0,2.232,20.58,4.115,48.7,4.7" transform="translate(-293.392 -980.549)" fill="#ffaa45"/>
        <path id="Path_2050" data-name="Path 2050" d="M590.843,1362.823c5.228.095,10.7.145,16.329.145,8.392,0,16.424-.112,23.833-.316V1341.37H590.843Z" transform="translate(-431.91 -980.549)" fill="#ffaa45"/>
        <path id="Path_2051" data-name="Path 2051" d="M750.173,1362.573c23.978-.748,40.772-2.479,40.772-4.5V1341.37H750.173Z" transform="translate(-548.381 -980.549)" fill="#ffaa45"/>
        <path id="Path_2052" data-name="Path 2052" d="M535.956,1327.421c0,2.7-30.132,4.891-67.3,4.891s-67.3-2.19-67.3-4.891,30.132-4.891,67.3-4.891,67.3,2.19,67.3,4.891" transform="translate(-293.392 -966.777)" fill="#f4932a"/>
        <path id="Path_2053" data-name="Path 2053" d="M556.361,1331.5c0,1.872-24.813,3.391-55.421,3.391s-55.421-1.518-55.421-3.391,24.813-3.391,55.421-3.391,55.421,1.518,55.421,3.391" transform="translate(-325.677 -970.853)" fill="#f7cc7f"/>
        <path id="Path_2054" data-name="Path 2054" d="M429.875,1273.9v16.708c0,2.7,30.132,4.89,67.3,4.89s67.3-2.189,67.3-4.89V1273.9Z" transform="translate(-314.241 -931.228)" fill="#f4932a"/>
        <path id="Path_2055" data-name="Path 2055" d="M478.579,1295.308V1273.9h-48.7v16.707c0,2.232,20.58,4.115,48.7,4.7" transform="translate(-314.241 -931.228)" fill="#ffaa45"/>
        <path id="Path_2056" data-name="Path 2056" d="M619.364,1295.351c5.228.095,10.7.145,16.329.145,8.392,0,16.424-.112,23.833-.315V1273.9H619.364Z" transform="translate(-452.759 -931.227)" fill="#ffaa45"/>
        <path id="Path_2057" data-name="Path 2057" d="M778.693,1295.1c23.978-.748,40.772-2.479,40.772-4.5V1273.9H778.693Z" transform="translate(-569.229 -931.228)" fill="#ffaa45"/>
        <path id="Path_2058" data-name="Path 2058" d="M564.476,1259.949c0,2.7-30.132,4.891-67.3,4.891s-67.3-2.19-67.3-4.891,30.132-4.891,67.3-4.891,67.3,2.19,67.3,4.891" transform="translate(-314.241 -917.455)" fill="#f4932a"/>
        <path id="Path_2059" data-name="Path 2059" d="M584.882,1264.024c0,1.873-24.813,3.391-55.421,3.391s-55.421-1.518-55.421-3.391,24.813-3.391,55.421-3.391,55.421,1.518,55.421,3.391" transform="translate(-346.526 -921.53)" fill="#f7cc7f"/>
        <path id="Path_2060" data-name="Path 2060" d="M401.354,1207.351v16.708c0,2.7,30.132,4.891,67.3,4.891s67.3-2.189,67.3-4.891v-16.708Z" transform="translate(-293.392 -882.581)" fill="#f4932a"/>
        <path id="Path_2061" data-name="Path 2061" d="M450.059,1228.76v-21.409h-48.7v16.708c0,2.232,20.58,4.115,48.7,4.7" transform="translate(-293.392 -882.581)" fill="#ffaa45"/>
        <path id="Path_2062" data-name="Path 2062" d="M590.843,1228.8c5.228.095,10.7.145,16.329.145,8.392,0,16.424-.111,23.833-.315v-21.283H590.843Z" transform="translate(-431.91 -882.581)" fill="#ffaa45"/>
        <path id="Path_2063" data-name="Path 2063" d="M750.173,1228.554c23.978-.748,40.772-2.48,40.772-4.5v-16.707H750.173Z" transform="translate(-548.381 -882.581)" fill="#ffaa45"/>
        <path id="Path_2064" data-name="Path 2064" d="M535.956,1193.4c0,2.7-30.132,4.891-67.3,4.891s-67.3-2.19-67.3-4.891,30.132-4.891,67.3-4.891,67.3,2.19,67.3,4.891" transform="translate(-293.392 -868.808)" fill="#f4932a"/>
        <path id="Path_2065" data-name="Path 2065" d="M556.361,1197.477c0,1.873-24.813,3.391-55.421,3.391s-55.421-1.518-55.421-3.391,24.813-3.391,55.421-3.391,55.421,1.518,55.421,3.391" transform="translate(-325.677 -872.884)" fill="#f7cc7f"/>
        <path id="Path_2066" data-name="Path 2066" d="M1801.331,1401.788v16.067c0,2.6-28.976,4.7-64.721,4.7s-64.72-2.106-64.72-4.7v-16.067Z" transform="translate(-1222.162 -1024.715)" fill="#f4932a"/>
        <path id="Path_2067" data-name="Path 2067" d="M1978.975,1422.377v-20.588h46.837v16.067c0,2.146-19.791,3.957-46.837,4.521" transform="translate(-1446.643 -1024.716)" fill="#ffaa45"/>
        <path id="Path_2068" data-name="Path 2068" d="M1866.215,1422.42c-5.027.091-10.288.139-15.7.139-8.07,0-15.795-.107-22.919-.3v-20.466h38.622Z" transform="translate(-1335.982 -1024.716)" fill="#ffaa45"/>
        <path id="Path_2069" data-name="Path 2069" d="M1711.1,1422.179c-23.059-.719-39.208-2.384-39.208-4.323v-16.067H1711.1Z" transform="translate(-1222.163 -1024.715)" fill="#eab054"/>
        <path id="Path_2070" data-name="Path 2070" d="M1671.89,1388.373c0,2.6,28.976,4.7,64.721,4.7s64.72-2.106,64.72-4.7-28.976-4.7-64.72-4.7-64.721,2.106-64.721,4.7" transform="translate(-1222.162 -1011.471)" fill="#f4932a"/>
        <path id="Path_2071" data-name="Path 2071" d="M1714.362,1392.293c0,1.8,23.861,3.261,53.3,3.261s53.3-1.46,53.3-3.261-23.861-3.261-53.3-3.261-53.3,1.46-53.3,3.261" transform="translate(-1253.209 -1015.391)" fill="#f7cc7f"/>
        <path id="Path_2072" data-name="Path 2072" d="M1842.8,1338.583v16.067c0,2.6-28.976,4.7-64.721,4.7s-64.72-2.106-64.72-4.7v-16.067Z" transform="translate(-1252.475 -978.512)" fill="#f4932a"/>
        <path id="Path_2073" data-name="Path 2073" d="M2020.14,1359.172v-20.588h46.837v16.067c0,2.146-19.791,3.958-46.837,4.521" transform="translate(-1476.735 -978.513)" fill="#ffaa45"/>
        <path id="Path_2074" data-name="Path 2074" d="M1907.077,1359.215c-5.028.091-10.288.139-15.7.139-8.07,0-15.794-.107-22.918-.3v-20.467h38.622Z" transform="translate(-1365.852 -978.513)" fill="#ffaa45"/>
        <path id="Path_2075" data-name="Path 2075" d="M1752.264,1358.974c-23.059-.72-39.208-2.384-39.208-4.324v-16.067h39.208Z" transform="translate(-1252.254 -978.512)" fill="#eab054"/>
        <path id="Path_2076" data-name="Path 2076" d="M1713.357,1325.168c0,2.6,28.976,4.7,64.721,4.7s64.72-2.106,64.72-4.7-28.976-4.7-64.72-4.7-64.721,2.106-64.721,4.7" transform="translate(-1252.475 -965.268)" fill="#f4932a"/>
        <path id="Path_2077" data-name="Path 2077" d="M1755.526,1329.088c0,1.8,23.861,3.261,53.3,3.261s53.3-1.46,53.3-3.261-23.861-3.261-53.3-3.261-53.3,1.46-53.3,3.261" transform="translate(-1283.301 -969.187)" fill="#f7cc7f"/>
        <path id="Path_2078" data-name="Path 2078" d="M1815.371,1273.7v16.067c0,2.6-28.976,4.7-64.72,4.7s-64.721-2.106-64.721-4.7V1273.7Z" transform="translate(-1232.425 -931.081)" fill="#f4932a"/>
        <path id="Path_2079" data-name="Path 2079" d="M1992.714,1294.286V1273.7h46.837v16.067c0,2.147-19.791,3.957-46.837,4.521" transform="translate(-1456.686 -931.081)" fill="#ffaa45"/>
        <path id="Path_2080" data-name="Path 2080" d="M1879.65,1294.328c-5.028.091-10.288.14-15.7.14-8.07,0-15.794-.107-22.919-.3V1273.7h38.622Z" transform="translate(-1345.803 -931.081)" fill="#ffaa45"/>
        <path id="Path_2081" data-name="Path 2081" d="M1724.837,1294.089c-23.059-.72-39.208-2.385-39.208-4.323V1273.7h39.208Z" transform="translate(-1232.205 -931.081)" fill="#ffaa45"/>
        <path id="Path_2082" data-name="Path 2082" d="M1685.93,1260.283c0,2.6,28.977,4.7,64.721,4.7s64.72-2.106,64.72-4.7-28.976-4.7-64.72-4.7-64.721,2.106-64.721,4.7" transform="translate(-1232.425 -917.836)" fill="#f4932a"/>
        <path id="Path_2083" data-name="Path 2083" d="M1728.1,1264.2c0,1.8,23.862,3.261,53.3,3.261s53.3-1.46,53.3-3.261-23.862-3.261-53.3-3.261-53.3,1.46-53.3,3.261" transform="translate(-1263.252 -921.756)" fill="#f7cc7f"/>
        <path id="Path_2084" data-name="Path 2084" d="M1842.8,1209.7v16.067c0,2.6-28.976,4.7-64.721,4.7s-64.72-2.106-64.72-4.7V1209.7Z" transform="translate(-1252.475 -884.299)" fill="#f4932a"/>
        <path id="Path_2085" data-name="Path 2085" d="M2020.14,1230.291V1209.7h46.837v16.067c0,2.147-19.791,3.958-46.837,4.521" transform="translate(-1476.735 -884.3)" fill="#ffaa45"/>
        <path id="Path_2086" data-name="Path 2086" d="M1907.077,1230.334c-5.028.091-10.288.139-15.7.139-8.07,0-15.794-.107-22.918-.3V1209.7h38.622Z" transform="translate(-1365.852 -884.3)" fill="#ffaa45"/>
        <path id="Path_2087" data-name="Path 2087" d="M1752.264,1230.093c-23.059-.719-39.208-2.384-39.208-4.324V1209.7h39.208Z" transform="translate(-1252.254 -884.299)" fill="#ffaa45"/>
        <path id="Path_2088" data-name="Path 2088" d="M1713.055,1196.287c0,2.6,28.976,4.7,64.721,4.7s64.721-2.106,64.721-4.7-28.976-4.7-64.721-4.7c-35.528,0-64.721,2.106-64.721,4.7" transform="translate(-1252.254 -871.055)" fill="#f4932a"/>
        <path id="Path_2089" data-name="Path 2089" d="M1755.526,1200.207c0,1.8,23.861,3.261,53.3,3.261s53.3-1.46,53.3-3.261-23.861-3.261-53.3-3.261-53.3,1.46-53.3,3.261" transform="translate(-1283.301 -874.974)" fill="#f7cc7f"/>
        <path id="Path_2090" data-name="Path 2090" d="M1998.444,1052l-3.888,13.573c-.629,2.194-25.617-3.038-55.813-11.688s-54.166-17.44-53.537-19.634l3.888-13.573Z" transform="translate(-1378.088 -746.123)" fill="#f4932a"/>
        <path id="Path_2091" data-name="Path 2091" d="M2140.594,1112.381l4.982-17.393,39.568,11.333-3.888,13.573c-.52,1.814-17.677-1.446-40.662-7.514" transform="translate(-1564.788 -800.443)" fill="#ffaa45"/>
        <path id="Path_2092" data-name="Path 2092" d="M2045.149,1085.058c-4.269-1.14-8.725-2.372-13.3-3.682-6.817-1.953-13.317-3.913-19.288-5.8l4.952-17.29,32.628,9.346Z" transform="translate(-1471.195 -773.612)" fill="#ffaa45"/>
        <path id="Path_2093" data-name="Path 2093" d="M1917.282,1047.394c-19.306-6.187-32.546-11.5-32.077-13.14l3.888-13.573,33.123,9.487Z" transform="translate(-1378.088 -746.124)" fill="#ffaa45"/>
        <path id="Path_2094" data-name="Path 2094" d="M1899.812,1018.786c-.628,2.194,23.341,10.985,53.537,19.634s55.185,13.882,55.813,11.688-23.341-10.985-53.537-19.634-55.185-13.882-55.813-11.688" transform="translate(-1388.766 -744.373)" fill="#f4932a"/>
        <path id="Path_2095" data-name="Path 2095" d="M1935.706,1029.623c-.436,1.522,19.369,8.529,44.235,15.651s45.377,11.663,45.813,10.142-19.369-8.529-44.235-15.651-45.377-11.663-45.813-10.142" transform="translate(-1415.008 -752.446)" fill="#f7cc7f"/>
        <path id="Path_2096" data-name="Path 2096" d="M1879.216,789.837l4.139,13.5c.669,2.182-23.133,11.417-53.163,20.626s-54.917,14.906-55.586,12.724l-4.14-13.5Z" transform="translate(-1294.223 -577.375)" fill="#f4932a"/>
        <path id="Path_2097" data-name="Path 2097" d="M2033.766,819.2l-5.3-17.3,39.35-12.067,4.14,13.5c.552,1.8-15.608,8.424-38.185,15.866" transform="translate(-1482.818 -577.376)" fill="#ffaa45"/>
        <path id="Path_2098" data-name="Path 2098" d="M1938.788,854.12c-4.2,1.372-8.607,2.768-13.157,4.163-6.78,2.079-13.3,3.979-19.333,5.65l-5.273-17.195,32.448-9.951Z" transform="translate(-1389.661 -611.696)" fill="#ffaa45"/>
        <path id="Path_2099" data-name="Path 2099" d="M1808.66,893.395c-19.558,5.337-33.555,8.1-34.055,6.47l-4.139-13.5,32.941-10.1Z" transform="translate(-1294.222 -640.554)" fill="#ffaa45"/>
        <path id="Path_2100" data-name="Path 2100" d="M1770.266,821.39c.669,2.182,25.556-3.515,55.586-12.724s53.832-18.444,53.162-20.626-25.556,3.515-55.586,12.724-53.832,18.444-53.162,20.626" transform="translate(-1294.065 -575.72)" fill="#f4932a"/>
        <path id="Path_2101" data-name="Path 2101" d="M1805.963,826.968c.464,1.513,20.887-3.408,45.616-10.992s44.4-14.958,43.936-16.471-20.887,3.408-45.616,10.992-44.4,14.958-43.936,16.471" transform="translate(-1320.165 -584.242)" fill="#f7cc7f"/>
        <path id="Path_2102" data-name="Path 2102" d="M855.553,1408.778s1.6,8.489,1.6,8.507c.089,1.106.056,3.9.295,4.868.9,3.63,16.166-5.192,12.161-5.9a16.622,16.622,0,0,1-3.592-3.849,33.688,33.688,0,0,1-2.009-5.608Z" transform="translate(-625.415 -1028.375)" fill="#f7a491"/>
        <path id="Path_2103" data-name="Path 2103" d="M865.83,1436.654a59.628,59.628,0,0,1-5.948,1.176c-2.006.2-4.58-2.915-6.018-2.326-1.583.649-2.446,10.535-2.446,10.535s25.184,1.147,31.136-.5c2.358-.651-8.888-5.885-16.724-8.887" transform="translate(-622.392 -1049.308)" fill="#063992"/>
        <path id="Path_2104" data-name="Path 2104" d="M986.1,1407.339s1.6,8.489,1.6,8.507c.089,1.106.056,3.9.295,4.868.9,3.63,15.885-4.612,11.88-5.321-.363-.064-2.709-3.3-3.311-4.429a33.693,33.693,0,0,1-2.009-5.608Z" transform="translate(-720.844 -1027.323)" fill="#f7a491"/>
        <path id="Path_2105" data-name="Path 2105" d="M994.937,1436.654a59.627,59.627,0,0,1-5.947,1.176c-2.006.2-4.58-2.915-6.018-2.326-1.584.649-2.446,10.535-2.446,10.535s25.184,1.147,31.136-.5c2.358-.651-8.888-5.885-16.724-8.887" transform="translate(-716.77 -1049.308)" fill="#062d66"/>
        <path id="Path_2106" data-name="Path 2106" d="M659.279,1062.081l45.815-10.627s20.546-5.432,25.505.944,26.02,94.377,26.02,94.377-10.863.944-11.572.472l-25.429-45.135a39.368,39.368,0,0,1-4.691-13.883l-1.8-12.924-18.657,5.432s-21.491,4.723-30.228-.709-4.959-17.948-4.959-17.948" transform="translate(-481.343 -767.042)" fill="#062d66"/>
        <path id="Path_2107" data-name="Path 2107" d="M708.068,803.186c.724.03,2.707.691,5.606,6.153,3.7,6.974,9.115,28.044,9.115,28.044l-16.155,6-2.076-4.4-3.418-33.856s6.727-1.948,6.927-1.939" transform="translate(-512.538 -587.133)" fill="#f4932a"/>
        <path id="Path_2108" data-name="Path 2108" d="M569.639,791.9c4.619.006,16.05,1.35,21.355,3.039,0,0,3.9,33.384-3.509,58.751-1.658,5.678,1.371,23.54,1.371,23.54l-47.87-.63s5.671-43.18,3.535-50.155-2.187-31.282-2.187-31.282.328-.051,10.755-1.847a108.707,108.707,0,0,1,16.55-1.416" transform="translate(-395.465 -578.88)" fill="#f4932a"/>
        <path id="Path_2109" data-name="Path 2109" d="M523.772,817.684c4.476-1.673,6.665,38.517,7.269,55.06,7.926.76,21.741.006,25.181-.252,1.618-.121,5.348-1.483,6.957-1.693a16.163,16.163,0,0,1,3.954-.187c.3.052,8.559,3.419,9.266,4.157.877.916,3.246,3.226,2.846,4.225s-4.557-2.783-4.557-2.783l-2.032-1.136c2.529,2.462,7.353,5.705,6.659,6.886-.678,1.152-5.03-2.139-8.131-4.382,2.66,2.395,5.965,6.68,5.2,7.348-.684.6-4.444-4.361-8.461-5.789-1.489-.529-2.973.937-4.144,1.114a8.448,8.448,0,0,1-3.034.169l-4.035-.389a21.036,21.036,0,0,0-3.33.484c-1.737.368-4.587.756-6.8,1.295-12.74,3.1-16.989,4.543-20.889,4.541-11.815-.007-12.5-64.712-1.922-68.667" transform="translate(-377.424 -597.695)" fill="#ffb27d"/>
        <path id="Path_2110" data-name="Path 2110" d="M511.6,845.211c-.838-16.945-.716-37.83,8.815-41.394,3.761-1.406,10.39,7.048,9.2,41.738-5.088.419-12.558.756-18.013-.344" transform="translate(-373.747 -587.489)" fill="#f4932a"/>
        <path id="Path_2111" data-name="Path 2111" d="M675,919.579l-45.1,2.946a2.946,2.946,0,0,0-2.6,2L615.625,959.3l-24.864,1.624a1.261,1.261,0,1,0,.164,2.516l70.766-4.622a4.951,4.951,0,0,0,4.316-3.211l11.948-32.062a2.947,2.947,0,0,0-2.954-3.97" transform="translate(-430.988 -672.213)" fill="#3868ad"/>
        <path id="Path_2112" data-name="Path 2112" d="M810.2,991.454a2.487,2.487,0,1,1-2.3-2.952,2.659,2.659,0,0,1,2.3,2.952" transform="translate(-588.66 -722.598)" fill="#fff"/>
        <path id="Path_2113" data-name="Path 2113" d="M539.966,1076.99l49.926-8.62s21.586-3.288,26.545,3.088S635.8,1160.49,635.8,1160.49s-10.863.945-11.572.473c-.549-.366-13.7-27.922-19.608-40.338A47.192,47.192,0,0,1,600.7,1108.2l-1.9-11.25-6.283,2.163a76.682,76.682,0,0,1-34.391,3.68c-4.851-.6-9.379-1.639-12.188-3.385-8.738-5.432-5.977-22.421-5.977-22.421" transform="translate(-394.416 -780.365)" fill="#063992"/>
        <path id="Path_2114" data-name="Path 2114" d="M623.087,738.4l.972,7.209s2.177,10.387-.624,12.389-11.91-12.685-11.91-12.685l.962-18.268Z" transform="translate(-447.029 -531.471)" fill="#ffb27d"/>
        <path id="Path_2115" data-name="Path 2115" d="M613.946,732.962a20.724,20.724,0,0,0,11.734,11.547l-.824-6.112-10.6-11.355Z" transform="translate(-448.798 -531.471)" fill="#fca56b"/>
        <path id="Path_2116" data-name="Path 2116" d="M619.129,652.8a9.634,9.634,0,0,1,11.109,9.722,72.808,72.808,0,0,1-.813,9.247c-1.29,8.322-6.988,15.651-10.755,15s-13.246-7.833-11.577-19.677c1.03-7.312,5.808-13.287,12.036-14.289" transform="translate(-443.647 -477.114)" fill="#ffb27d"/>
        <path id="Path_2117" data-name="Path 2117" d="M602.449,701.135c-.318,1.83-1.789,3.1-3.285,2.843s-2.452-1.954-2.134-3.785,1.789-3.1,3.285-2.843,2.452,1.954,2.134,3.784" transform="translate(-436.387 -509.742)" fill="#ffb27d"/>
        <path id="Path_2118" data-name="Path 2118" d="M605.5,657.217s4.555,1.128,6.245-1.792,7.734-9.22,15.418-6.608-6.761-6.352-7.376-6.352-7.991-.051-7.991-.051-5.685,4.661-5.89,5.174-1.844,6.1-1.844,6.1Z" transform="translate(-441.573 -469.609)" fill="#062d66"/>
        <rect id="Rectangle_681" data-name="Rectangle 681" width="113.381" height="41.266" transform="translate(387.121 355.845)" fill="#4979b8"/>
        <rect id="Rectangle_682" data-name="Rectangle 682" width="113.381" height="5.309" transform="translate(387.121 361.858)" fill="#67b8ee"/>
        <rect id="Rectangle_683" data-name="Rectangle 683" width="113.381" height="5.309" transform="translate(387.121 372.228)" fill="#67b8ee"/>
        <rect id="Rectangle_684" data-name="Rectangle 684" width="113.381" height="5.309" transform="translate(387.121 382.597)" fill="#67b8ee"/>
        <rect id="Rectangle_685" data-name="Rectangle 685" width="113.381" height="5.309" transform="translate(387.121 391.802)" fill="#67b8ee"/>
        <rect id="Rectangle_686" data-name="Rectangle 686" width="23.581" height="41.266" transform="translate(429.328 355.845)" fill="#f7cc7f"/>
        <rect id="Rectangle_687" data-name="Rectangle 687" width="17.123" height="41.266" transform="translate(499.126 355.845)" fill="#3868ad"/>
        <g id="Group_955" data-name="Group 955" transform="translate(174.842 59.639)" opacity="0.8">
          <g id="Group_954" data-name="Group 954">
            <g id="Group_953" data-name="Group 953" clip-path="url(#clip-path-13)">
              <path id="Path_2119" data-name="Path 2119" d="M741.243,248.757a11.265,11.265,0,0,0-13.81-8.365,16.581,16.581,0,0,0-19.937-8.807,20.425,20.425,0,0,0-36.689,3.569A14.011,14.011,0,0,0,649.984,247.4c0,.459.024.912.067,1.359Z" transform="translate(-649.984 -221.706)" fill="#fff"/>
            </g>
          </g>
        </g>
        <g id="Group_958" data-name="Group 958" transform="translate(238.133 121.831)" opacity="0.8">
          <g id="Group_957" data-name="Group 957">
            <g id="Group_956" data-name="Group 956" clip-path="url(#clip-path-14)">
              <path id="Path_2120" data-name="Path 2120" d="M954.337,473.378a8.525,8.525,0,0,0-10.45-6.331,12.55,12.55,0,0,0-15.088-6.665,15.457,15.457,0,0,0-27.765,2.7,10.6,10.6,0,0,0-15.758,9.266c0,.347.018.69.051,1.029Z" transform="translate(-885.275 -452.907)" fill="#fff"/>
            </g>
          </g>
        </g>
        <g id="Group_961" data-name="Group 961" transform="translate(115.025 116.634)" opacity="0.8">
          <g id="Group_960" data-name="Group 960">
            <g id="Group_959" data-name="Group 959" clip-path="url(#clip-path-15)">
              <path id="Path_2121" data-name="Path 2121" d="M427.613,451.438a7.433,7.433,0,0,1,9.113-5.52,10.942,10.942,0,0,1,13.157-5.812,13.479,13.479,0,0,1,24.211,2.355,9.246,9.246,0,0,1,13.742,8.08c0,.3-.016.6-.044.9Z" transform="translate(-427.613 -433.588)" fill="#fff"/>
            </g>
          </g>
        </g>
        <path id="Path_2122" data-name="Path 2122" d="M901.22,643.256l.8,9.778,5.679-6.4,18.368-15.044-15.663,4.935s-7.712,3.746-8.066,4.241a20.269,20.269,0,0,0-1.122,2.486" transform="translate(-658.797 -461.699)" fill="#4979b8"/>
        <path id="Path_2123" data-name="Path 2123" d="M870.278,639.055l33.174-7.461L878.6,643.256Z" transform="translate(-636.178 -461.699)" fill="#67b8ee"/>
        <path id="Path_2124" data-name="Path 2124" d="M920.862,650.5l-10.225-5.1,22.318-13.8Z" transform="translate(-665.681 -461.698)" fill="#67b8ee"/>
        <path id="Path_2125" data-name="Path 2125" d="M886.14,691.292a12.121,12.121,0,0,1,2.672-.7l-.075-.711a12.651,12.651,0,0,0-2.848.743Z" transform="translate(-647.59 -504.306)" fill="#67b8ee"/>
        <path id="Path_2126" data-name="Path 2126" d="M825.959,758.968a29.064,29.064,0,0,0,3.6-3.933l.57.431a29.736,29.736,0,0,1-3.685,4.03Zm6.36-8.482c.351-.736.673-1.5.958-2.279.323-.879.61-1.8.851-2.731l.692.179c-.247.956-.54,1.9-.872,2.8-.293.8-.624,1.584-.984,2.339Zm2.887-15.632.714-.016a46.253,46.253,0,0,1-.176,5.441l-.712-.067a45.415,45.415,0,0,0,.173-5.357m-1.017-10.714.707-.1c.3,2.091.513,3.8.672,5.378l-.711.072c-.158-1.568-.371-3.267-.669-5.349m-.8-5.382a26.335,26.335,0,0,1-.27-5.426l.713.045a25.62,25.62,0,0,0,.264,5.275l.006.042-.708.1Zm.9-10.8a12.982,12.982,0,0,1,3.1-4.559l.491.519a12.269,12.269,0,0,0-2.932,4.31Z" transform="translate(-603.781 -514.191)" fill="#67b8ee"/>
      </g>
    </g>
  </g>
</svg>
