<svg xmlns="http://www.w3.org/2000/svg" xmlns:xlink="http://www.w3.org/1999/xlink" width="200.735" height="130.533" viewBox="0 0 200.735 130.533">
  <defs>
    <clipPath id="clip-path">
      <rect id="Rectangle_469" data-name="Rectangle 469" width="200.735" height="130.533" fill="#1f1f1f"/>
    </clipPath>
  </defs>
  <g id="CFM_Logo" data-name="CFM Logo" clip-path="url(#clip-path)">
    <path id="Path_1480" data-name="Path 1480" d="M68.446,172.2c-11.681,10.873-29.265,13.649-42.9,5.409A32.547,32.547,0,0,1,17,128.873c.222-.284.871-1.052,1.077-1.326.308-.288,1.657-1.715,2.007-2.029a38.514,38.514,0,0,1,3.577-2.876c.3-.2,1.14-.814,1.42-1a35.816,35.816,0,0,1,6.826-3.283c9.5-3.488,19.566-2.659,29.067,1.71a.369.369,0,0,0,.422-.6c-11.643-9.98-29.85-10.657-42.788-2.331A38.473,38.473,0,0,0,1.745,141a27.283,27.283,0,0,0-.52,2.818c-3.729,24.024,15.6,45.673,39.959,44.314a36.347,36.347,0,0,0,27.835-15.479.369.369,0,0,0-.573-.459" transform="translate(-0.397 -58.028)" fill="#525252"/>
    <path id="Path_1481" data-name="Path 1481" d="M38.639,188.108A38.83,38.83,0,0,1,.465,143.31c.037-.216.074-.456.113-.71A17.236,17.236,0,0,1,1,140.442a38.3,38.3,0,0,1,2.863-8.155,39.221,39.221,0,0,1,14.15-15.912c13.4-8.62,31.575-7.627,43.226,2.36a.738.738,0,0,1,.114.989.724.724,0,0,1-.945.217c-9.69-4.455-19.645-5.043-28.771-1.69a35.577,35.577,0,0,0-6.77,3.256c-.129.086-.438.306-.737.52-.264.189-.522.372-.661.466a31.783,31.783,0,0,0-3.046,2.422l-.5.43c-.179.16-.689.686-1.138,1.148-.373.385-.719.741-.858.87-.075.109-.334.424-.58.722-.185.225-.363.44-.458.562a32.18,32.18,0,0,0,8.444,48.191c13.1,7.914,30.552,5.715,42.45-5.35a.736.736,0,0,1,1.134.931A36.548,36.548,0,0,1,40.8,188.047c-.723.041-1.447.061-2.165.061m-.432-76.858a36.654,36.654,0,0,0-19.8,5.742,38.1,38.1,0,0,0-16.7,23.645,16.7,16.7,0,0,0-.4,2.073c-.04.259-.077.5-.114.719a38.08,38.08,0,0,0,39.577,43.885A35.809,35.809,0,0,0,68.318,172l-.015.018,0,0c-12.137,11.3-29.961,13.541-43.343,5.454a32.913,32.913,0,0,1-8.639-49.279c.093-.119.274-.339.465-.57.238-.287.489-.593.6-.744.177-.173.513-.519.875-.892.48-.494.976-1.006,1.181-1.189l.5-.433a32.33,32.33,0,0,1,3.116-2.475c.134-.091.385-.27.643-.455.308-.219.626-.446.778-.547a36.234,36.234,0,0,1,6.917-3.327c9.3-3.415,19.446-2.821,29.333,1.726a34.56,34.56,0,0,0-22.522-8.031" transform="translate(0 -57.575)" fill="#525252"/>
    <path id="Path_1482" data-name="Path 1482" d="M184.312,79.858l-.693-.337a.576.576,0,0,0-.739.21,45.268,45.268,0,0,1-7.21,8.536,50.992,50.992,0,0,1-9.222,6.864,51.731,51.731,0,0,1-17.174,6.235,230.43,230.43,0,0,0-13.349-40.89c20.722-4.376,45.577-6.508,65.989-1.07a1.363,1.363,0,0,0,1.635-.84l.073-.2a1.372,1.372,0,0,0-.78-1.755c-20.66-8.044-44.7-8.523-66.557-6.906-1.592.14-3.266.319-4.941.536q-1.191-2.544-2.419-5.063a1.973,1.973,0,0,0-2.679-.883l-7.982,4.129a1.961,1.961,0,0,0-.793,2.735c1.675,2.855,3.663,6.257,5.075,8.813,13.186,23.823,23.367,49.933,25.344,77.282a2.634,2.634,0,0,0,5.263-.161,154.757,154.757,0,0,0-2-25.789,67.256,67.256,0,0,0,8.408-3.713c10.973-6,20.249-15.41,25.032-26.986a.589.589,0,0,0-.288-.752" transform="translate(-61.056 -22.963)" fill="#525252"/>
    <path id="Path_1483" data-name="Path 1483" d="M150.117,139.692a3.024,3.024,0,0,1-2.993-2.807c-1.758-24.32-10.033-49.549-25.3-77.13-1.4-2.54-3.353-5.877-5.07-8.805A2.327,2.327,0,0,1,117.7,47.7l7.981-4.129a2.339,2.339,0,0,1,3.178,1.049q1.171,2.4,2.308,4.825c1.529-.195,3.106-.364,4.69-.5,28.048-2.076,49.249.126,66.722,6.93a1.743,1.743,0,0,1,.991,2.224l-.072.2a1.73,1.73,0,0,1-2.075,1.067c-23.136-6.164-50.715-2.081-65.382.983a228.491,228.491,0,0,1,13.119,40.2,51.184,51.184,0,0,0,16.706-6.127,50.6,50.6,0,0,0,9.158-6.815,44.912,44.912,0,0,0,7.152-8.467.944.944,0,0,1,1.207-.342l.694.338a.954.954,0,0,1,.466,1.222c-4.608,11.151-13.556,20.8-25.2,27.168a66.541,66.541,0,0,1-8.175,3.631,155.619,155.619,0,0,1,1.953,25.552,3.021,3.021,0,0,1-3,2.992M126.752,44.046a1.6,1.6,0,0,0-.738.181l-7.981,4.129a1.594,1.594,0,0,0-.645,2.224c1.72,2.932,3.672,6.274,5.08,8.821,15.318,27.675,23.623,53,25.389,77.432a2.267,2.267,0,0,0,4.53-.138,155.062,155.062,0,0,0-1.991-25.727l-.047-.3.284-.1a66.271,66.271,0,0,0,8.363-3.693c11.489-6.286,20.321-15.806,24.865-26.8a.223.223,0,0,0-.109-.28h0l-.694-.338a.209.209,0,0,0-.269.079,45.711,45.711,0,0,1-7.268,8.607,51.436,51.436,0,0,1-9.289,6.913,52.069,52.069,0,0,1-17.294,6.279l-.348.062-.075-.345a227.957,227.957,0,0,0-13.328-40.825l-.175-.411.437-.092c14.616-3.088,42.645-7.329,66.16-1.065a.993.993,0,0,0,1.2-.612l.072-.2a1,1,0,0,0-.569-1.284c-17.367-6.763-38.465-8.949-66.4-6.882-1.661.146-3.318.326-4.92.533l-.266.034L130.611,50q-1.19-2.54-2.416-5.057a1.587,1.587,0,0,0-.934-.816,1.625,1.625,0,0,0-.509-.082" transform="translate(-60.655 -22.562)" fill="#525252"/>
    <path id="Path_1484" data-name="Path 1484" d="M325.474,129.141a46.432,46.432,0,0,0-10.983-14.494c-1.345-1.235-2.76-2.357-4.194-3.459a4.579,4.579,0,0,0-3.087-1.392,3.579,3.579,0,0,0-3.52,3.638c-.037.3-.117.744-.187,1.126a62.648,62.648,0,0,1-2.218,8.424c-2.079,6.063-5.172,12.249-9.8,16.747a5.162,5.162,0,0,1-8.465-1.8l-.023-.063c-2.71-7.812-2.241-16.38-.608-24.4.25-1.185.547-2.439.875-3.611.157-.58.335-1.052.428-1.585a3.9,3.9,0,0,0-5.044-4.433c-36.984,11.857-39.183,37.838-22.446,68.924a.827.827,0,0,0,1.555-.391,1.631,1.631,0,0,0,.842-2.013c-.977-2.777-1.967-5.51-2.792-8.275-3.576-11.578-5.928-25.6,1.942-35.823,3.776-4.775,8.768-8.072,14.265-10.782.892-.466,1.808-.9,2.732-1.318-1.043,10.609-.012,21.854,6.186,30.752q.6.828,1.266,1.612a5.246,5.246,0,0,0,6.179,1.382c10.63-4.778,17.238-15.614,21.164-26.524.82.819,1.621,1.651,2.37,2.521,19.115,21.168,5.627,40.511-12.649,55.815a1.659,1.659,0,0,0-.423,2.085,1.6,1.6,0,0,0,2.257.54,85.441,85.441,0,0,0,15.32-12.306c11.049-11.232,15.945-25.949,9.052-40.905" transform="translate(-128.256 -53.984)" fill="#525252"/>
    <path id="Path_1485" data-name="Path 1485" d="M299.839,182.575a1.967,1.967,0,0,1-1.7-.977,2.034,2.034,0,0,1,.5-2.554c13.907-11.644,21.019-22.347,21.742-32.718.535-7.674-2.536-15.268-9.129-22.568-.559-.65-1.171-1.309-1.95-2.1-3.407,9.25-9.809,21.087-21.16,26.19a5.588,5.588,0,0,1-6.611-1.479c-.445-.526-.876-1.075-1.283-1.633-5.321-7.639-7.443-17.853-6.314-30.369-.649.3-1.4.659-2.136,1.044-6.373,3.142-10.867,6.536-14.147,10.684-8.213,10.667-5.006,25.362-1.878,35.487.7,2.356,1.544,4.74,2.358,7.046l.429,1.216a1.991,1.991,0,0,1-.843,2.365,1.2,1.2,0,0,1-2.223.334c-9.922-18.427-12.51-33.828-7.692-45.774,4.285-10.626,14.5-18.591,30.348-23.673a4.086,4.086,0,0,1,4.132.847,4.154,4.154,0,0,1,1.382,4.016,8.8,8.8,0,0,1-.271,1.046c-.053.176-.108.358-.161.553-.3,1.08-.6,2.287-.871,3.591-1.94,9.535-1.745,17.452.6,24.2a4.606,4.606,0,0,0,3.366,2.989,4.9,4.9,0,0,0,4.519-1.273c4-3.888,7.26-9.474,9.7-16.6a62.367,62.367,0,0,0,2.2-8.373c.069-.374.147-.813.183-1.1a3.875,3.875,0,0,1,1.107-2.757,3.923,3.923,0,0,1,2.771-1.2,5.007,5.007,0,0,1,3.326,1.475c1.362,1.048,2.822,2.2,4.209,3.473a47.094,47.094,0,0,1,11.066,14.606l0,.005c6.392,13.867,3.066,28.926-9.124,41.316a84.981,84.981,0,0,1-15.381,12.356,1.968,1.968,0,0,1-1.072.317M309,120.321l.41.409c.992.991,1.729,1.775,2.389,2.541,6.725,7.448,9.86,15.224,9.311,23.1-.737,10.58-7.935,21.451-22,33.231a1.292,1.292,0,0,0-.342,1.618,1.24,1.24,0,0,0,.79.584,1.213,1.213,0,0,0,.949-.167,84.242,84.242,0,0,0,15.256-12.251c11.966-12.163,15.24-26.923,8.985-40.5a46.355,46.355,0,0,0-10.9-14.376c-1.369-1.258-2.814-2.4-4.173-3.442a4.292,4.292,0,0,0-2.842-1.317,3.214,3.214,0,0,0-3.173,3.266c-.041.354-.122.81-.193,1.2a63.123,63.123,0,0,1-2.231,8.476c-2.482,7.24-5.808,12.924-9.887,16.893a5.621,5.621,0,0,1-5.194,1.462,5.3,5.3,0,0,1-3.872-3.395c-2.412-6.948-2.614-14.992-.647-24.661.28-1.322.576-2.544.882-3.637.054-.2.111-.388.166-.571a8.284,8.284,0,0,0,.254-.978,3.429,3.429,0,0,0-1.147-3.32,3.365,3.365,0,0,0-3.409-.7c-15.65,5.018-25.706,12.84-29.906,23.253-4.732,11.736-2.156,26.927,7.658,45.153a.46.46,0,0,0,.863-.217v-.232l.21-.1a1.259,1.259,0,0,0,.652-1.559l-.429-1.216c-.817-2.314-1.661-4.707-2.368-7.077-3.175-10.278-6.422-25.211,2-36.152,3.354-4.24,7.927-7.7,14.394-10.887.977-.511,1.978-.975,2.741-1.323l.58-.264-.062.635c-1.242,12.628.818,22.892,6.121,30.506.392.537.812,1.073,1.246,1.585a4.856,4.856,0,0,0,5.749,1.284c11.339-5.1,17.662-17.123,20.968-26.313Z" transform="translate(-127.865 -53.582)" fill="#525252"/>
    <path id="Path_1486" data-name="Path 1486" d="M290.5,28.316a17.543,17.543,0,0,0,17.9-4.747.794.794,0,0,0-.041-1.1l-.013-.012a.8.8,0,0,0-1.036-.071c-4.2,2.974-10.417,3.466-14.677.929-3.177-1.854-4.232-5.062-4.154-8.374a4.1,4.1,0,0,0-3.629-4.239l-.344-.036a4.061,4.061,0,0,0-4.428,4.789c1.127,5.763,4.479,11.039,10.425,12.862" transform="translate(-145.861 -5.544)" fill="#1f1f1f"/>
    <path id="Path_1487" data-name="Path 1487" d="M290.5,28.316a17.543,17.543,0,0,0,17.9-4.747.794.794,0,0,0-.041-1.1l-.013-.012a.8.8,0,0,0-1.036-.071,14.38,14.38,0,0,1-4.73,2.127,13.314,13.314,0,0,1-9.947-1.2c-3.177-1.854-4.232-5.062-4.154-8.374a4.1,4.1,0,0,0-3.629-4.239l-.344-.036a4.061,4.061,0,0,0-4.428,4.789C281.2,21.216,284.549,26.493,290.5,28.316Z" transform="translate(-145.861 -5.544)" fill="none" stroke="#1f1f1f" stroke-miterlimit="10" stroke-width="1"/>
    <path id="Path_1488" data-name="Path 1488" d="M100.217,12.622A13.868,13.868,0,0,0,112.7,4.981a.628.628,0,0,0-.279-.824l-.012-.007a.636.636,0,0,0-.8.18A11.172,11.172,0,0,1,100.7,8.352c-2.825-.687-4.349-2.879-5.04-5.406A3.244,3.244,0,0,0,91.954.555l-.269.05a3.21,3.21,0,0,0-2.273,4.629c2.156,4.111,5.888,7.351,10.8,7.388" transform="translate(-46.389 -0.261)" fill="#1f1f1f"/>
    <path id="Path_1489" data-name="Path 1489" d="M100.217,12.622A13.868,13.868,0,0,0,112.7,4.981a.628.628,0,0,0-.279-.824l-.012-.007a.636.636,0,0,0-.8.18A11.172,11.172,0,0,1,100.7,8.352c-2.825-.687-4.349-2.879-5.04-5.406A3.244,3.244,0,0,0,91.954.555l-.269.05a3.21,3.21,0,0,0-2.273,4.629C91.568,9.345,95.3,12.585,100.217,12.622Z" transform="translate(-46.389 -0.261)" fill="#1f1f1f" stroke="#1f1f1f" stroke-miterlimit="10" stroke-width="1"/>
  </g>
</svg>
