<svg xmlns="http://www.w3.org/2000/svg" xmlns:xlink="http://www.w3.org/1999/xlink" width="209.464" height="153.825" viewBox="0 0 209.464 153.825">
  <defs>
    <clipPath id="clip-path">
      <rect id="Rectangle_468" data-name="Rectangle 468" width="209.464" height="153.825" fill="none"/>
    </clipPath>
  </defs>
  <g id="Pc_Logo" data-name="Pc Logo" clip-path="url(#clip-path)">
    <path id="Path_1477" data-name="Path 1477" d="M94.283,1.225C79.208-2.22,58.634,1.595,39.235,12.732,8.776,30.207-7.287,59.127,3.216,77.279c6.734,11.63,22.736,16,41.333,13.168-8.526-1.969-15.26-6.215-19.029-12.737-10.5-18.152,5.56-47.072,35.957-64.547A96.285,96.285,0,0,1,94.283,1.225" transform="translate(0 0)" fill="#a3a3a3"/>
    <path id="Path_1478" data-name="Path 1478" d="M171.624,131.494c4.51,14.706,18.1,30.582,37.564,41.72,30.4,17.475,63.574,16.921,74.139-1.232,6.734-11.629,2.595-27.628-9.206-42.21,2.533,8.307,2.224,16.244-1.544,22.828-10.5,18.153-43.742,18.706-74.14,1.231a95.433,95.433,0,0,1-26.813-22.336" transform="translate(-77.094 -58.583)" fill="#1f1f1f"/>
    <path id="Path_1479" data-name="Path 1479" d="M120.012,67.853c-10.565,11.26-17.485,30.889-17.485,53.287,0,34.95,17.052,63.317,38.12,63.317,13.468,0,25.269-11.568,32.065-29.043-5.931,6.338-13.036,10.029-20.635,10.029-21.068,0-38.12-28.366-38.12-63.317a93.159,93.159,0,0,1,6.055-34.273" transform="translate(-46.055 -30.631)" fill="#525252"/>
  </g>
</svg>
