<svg id="Logo" xmlns="http://www.w3.org/2000/svg" width="57.331" height="28.662" viewBox="0 0 57.331 28.662">
  <path id="path8" d="M2812.7,1078.84h8.5q3.743.031,5.425,2.146t1.111,5.777a11.045,11.045,0,0,1-.984,3.283,9.763,9.763,0,0,1-2.03,2.9,7.088,7.088,0,0,1-3.395,2.083,15.716,15.716,0,0,1-3.743.442h-3.807l-1.206,6h-4.41l4.536-22.635m3.712,3.6-1.9,9.471a2.33,2.33,0,0,0,.381.032h.445a16.768,16.768,0,0,0,5.076-.6q2.03-.663,2.728-4.609.571-3.315-1.142-3.82a14.286,14.286,0,0,0-4.219-.474q-.381.031-.73.032h-.667l.032-.032" transform="translate(-2808.164 -1072.812)" fill="#555"/>
  <path id="path10" d="M3092.242,994.723h4.378l-1.237,6.03h3.934a7.927,7.927,0,0,1,4.823,1.326q1.618,1.263.951,4.8l-2.125,10.513h-4.441l2.03-10.039a2.834,2.834,0,0,0-.19-2.241,2.7,2.7,0,0,0-2.189-.663l-3.521-.032-2.6,12.975h-4.378l4.568-22.667" transform="translate(-3067.644 -994.723)" fill="#555"/>
  <path id="path12" d="M3337.558,1078.84h8.5q3.743.031,5.425,2.146t1.111,5.777a11.066,11.066,0,0,1-.983,3.283,9.758,9.758,0,0,1-2.031,2.9,7.084,7.084,0,0,1-3.394,2.083,15.712,15.712,0,0,1-3.743.442h-3.807l-1.205,6h-4.41l4.537-22.635m3.712,3.6-1.9,9.471a2.322,2.322,0,0,0,.38.032h.445a16.769,16.769,0,0,0,5.076-.6q2.03-.663,2.728-4.609.571-3.315-1.142-3.82a14.291,14.291,0,0,0-4.219-.474c-.254.021-.5.032-.73.032h-.666l.032-.032" transform="translate(-3295.409 -1072.812)" fill="#555"/>
</svg>
