<svg xmlns="http://www.w3.org/2000/svg" xmlns:xlink="http://www.w3.org/1999/xlink" width="427.414" height="427.048" viewBox="0 0 427.414 427.048">
  <defs>
    <clipPath id="clip-path">
      <rect id="Rectangle_4536" data-name="Rectangle 4536" width="427.414" height="427.048" fill="none"/>
    </clipPath>
    <clipPath id="clip-path-3">
      <rect id="Rectangle_4510" data-name="Rectangle 4510" width="39.81" height="207.03" fill="none"/>
    </clipPath>
    <clipPath id="clip-path-4">
      <rect id="Rectangle_4511" data-name="Rectangle 4511" width="38.07" height="117.599" fill="none"/>
    </clipPath>
    <clipPath id="clip-path-5">
      <rect id="Rectangle_4512" data-name="Rectangle 4512" width="357.333" height="48.995" fill="none"/>
    </clipPath>
    <clipPath id="clip-path-6">
      <rect id="Rectangle_4513" data-name="Rectangle 4513" width="126.098" height="119.734" fill="none"/>
    </clipPath>
    <clipPath id="clip-path-7">
      <rect id="Rectangle_4514" data-name="Rectangle 4514" width="245.289" height="20.887" fill="none"/>
    </clipPath>
    <clipPath id="clip-path-8">
      <rect id="Rectangle_4515" data-name="Rectangle 4515" width="109.707" height="120.392" fill="none"/>
    </clipPath>
    <clipPath id="clip-path-9">
      <rect id="Rectangle_4516" data-name="Rectangle 4516" width="106.623" height="152.898" fill="none"/>
    </clipPath>
    <clipPath id="clip-path-10">
      <path id="Path_9118" data-name="Path 9118" d="M6.722,251.574a17.621,17.621,0,0,0-3.244,6.318c-.325,1.023-.044,7.848,2.293,8.08,3.8.377,6.756-5.413,7.366-7.711l.589-4.835a1.653,1.653,0,0,0-1.64-1.852Z" transform="translate(-3.366 -251.574)" fill="none"/>
    </clipPath>
    <linearGradient id="linear-gradient" x1="-0.496" y1="0.974" x2="-0.343" y2="0.974" gradientUnits="objectBoundingBox">
      <stop offset="0" stop-color="#09005d"/>
      <stop offset="1" stop-color="#1a0f91"/>
    </linearGradient>
    <clipPath id="clip-path-12">
      <path id="Path_9120" data-name="Path 9120" d="M28.837,254.047,30.1,261.9h1s-.226-6.32,1.55-6.2c1.322.089,4.082,3.467,5.416,5.2a2.572,2.572,0,0,0,2.042,1H44.38a1.131,1.131,0,0,0,.21-2.242,6.11,6.11,0,0,0-1.737-.046s-6.763-4.76-8.967-6.088-2.61-4.335-2.61-4.335a4.65,4.65,0,0,0-2.439,4.858" transform="translate(-28.778 -249.189)" fill="none"/>
    </clipPath>
    <linearGradient id="linear-gradient-2" x1="-2.695" y1="1.442" x2="-2.601" y2="1.442" xlink:href="#linear-gradient"/>
    <clipPath id="clip-path-14">
      <path id="Path_9128" data-name="Path 9128" d="M32.324,145.845c-1.771,4.05,2.375,11.2,2.375,11.2l1.589-7.489c1.8-.049,8.245-1.655,7.7-3.528s-4.638-2.926-4.638-2.926a8.672,8.672,0,0,0-1.9-.2,5.2,5.2,0,0,0-5.129,2.944" transform="translate(-31.884 -142.901)" fill="none"/>
    </clipPath>
    <linearGradient id="linear-gradient-3" x1="-2.691" y1="10.666" x2="-2.601" y2="10.666" xlink:href="#linear-gradient"/>
    <clipPath id="clip-path-16">
      <path id="Path_9144" data-name="Path 9144" d="M201.867,149.9c-.372,3.02.823,6.909,2.226,4.778s.476-5.293.476-5.293-.905-.974-1.678-.974c-.466,0-.882.354-1.024,1.489" transform="translate(-201.798 -148.409)" fill="none"/>
    </clipPath>
    <linearGradient id="linear-gradient-4" x1="-69.444" y1="21.052" x2="-69.099" y2="21.052" gradientUnits="objectBoundingBox">
      <stop offset="0" stop-color="#febbba"/>
      <stop offset="1" stop-color="#ff928e"/>
    </linearGradient>
    <clipPath id="clip-path-18">
      <rect id="Rectangle_4525" data-name="Rectangle 4525" width="5.363" height="5.674" fill="none"/>
    </clipPath>
    <clipPath id="clip-path-19">
      <rect id="Rectangle_4527" data-name="Rectangle 4527" width="118.493" height="57.025" fill="none"/>
    </clipPath>
    <clipPath id="clip-path-20">
      <rect id="Rectangle_4528" data-name="Rectangle 4528" width="121.162" height="63.184" fill="none"/>
    </clipPath>
    <clipPath id="clip-path-21">
      <rect id="Rectangle_4529" data-name="Rectangle 4529" width="23.015" height="23.014" fill="none"/>
    </clipPath>
    <clipPath id="clip-path-22">
      <rect id="Rectangle_4530" data-name="Rectangle 4530" width="56.603" height="56.599" fill="none"/>
    </clipPath>
    <clipPath id="clip-path-23">
      <rect id="Rectangle_4531" data-name="Rectangle 4531" width="65.265" height="45.783" fill="none"/>
    </clipPath>
    <clipPath id="clip-path-24">
      <rect id="Rectangle_4532" data-name="Rectangle 4532" width="69.318" height="19.951" fill="none"/>
    </clipPath>
    <clipPath id="clip-path-25">
      <rect id="Rectangle_4533" data-name="Rectangle 4533" width="15.677" height="15.677" fill="none"/>
    </clipPath>
    <clipPath id="clip-path-26">
      <rect id="Rectangle_4534" data-name="Rectangle 4534" width="39.05" height="39.05" fill="none"/>
    </clipPath>
  </defs>
  <g id="Illustration" clip-path="url(#clip-path)">
    <g id="Group_1398" data-name="Group 1398">
      <g id="Group_1397" data-name="Group 1397" clip-path="url(#clip-path)">
        <path id="Path_9094" data-name="Path 9094" d="M373.61,364.238c-8.664,9.12-16.86,15-23.337,19.648-76.127,54.622-166.205,38.7-185.35,34.812-28.269-5.742-82.914-16.84-122.422-63.3-59.772-70.289-50.464-181.031-4.1-254.132C46.881,87.9,91.677,13.681,182.726,1.778c55.1-7.2,119.331,7.325,165.846,46.295,97.638,81.8,90.687,247.052,25.038,316.166" transform="translate(0.401 0)" fill="#e7f3fd"/>
        <path id="Path_9095" data-name="Path 9095" d="M14.459,17.947c-.236-1.712,2.226-2.606,3.559-1.3C31.564,29.906,63.453,68.8,48.852,130.185,30.533,207.2,46.7,237.442,68.507,257.008c0,0-31.421-11.183-48.967-41.976C-23.537,139.427,18.669,48.4,14.459,17.947" transform="translate(0 10.258)" fill="#b0d4ea"/>
        <g id="Group_1378" data-name="Group 1378" transform="translate(19.032 53.133)" style="mix-blend-mode: soft-light;isolation: isolate">
          <g id="Group_1377" data-name="Group 1377">
            <g id="Group_1376" data-name="Group 1376" clip-path="url(#clip-path-3)">
              <path id="Path_9096" data-name="Path 9096" d="M15.9,32.888c1.02,8.86,1.839,17.729,2.283,26.6q.745,13.305.551,26.6c-.172,8.855-.536,17.7-1.335,26.511-.753,8.813-1.942,17.576-3.172,26.373-1.173,8.8-2.411,17.652-2.6,26.67a79.464,79.464,0,0,0,3.777,26.993c.736,2.193,1.522,4.386,2.447,6.518.879,2.149,1.868,4.266,2.9,6.369A95.674,95.674,0,0,0,28,217.737a105.311,105.311,0,0,0,20.1,21.211,2.2,2.2,0,0,0,2.8-.056,1.559,1.559,0,0,0-.1-2.391l-.007,0c-1.829-1.558-3.636-3.133-5.359-4.77-.876-.807-1.709-1.645-2.56-2.468-.815-.851-1.668-1.676-2.452-2.546A95.588,95.588,0,0,1,19.6,191.7a77.53,77.53,0,0,1-2.98-12.835,85.414,85.414,0,0,1-.794-13.077c.11-8.759,1.251-17.534,2.352-26.34s2.108-17.672,2.7-26.565q.467-6.667.659-13.351c.079-2.227.108-4.456.141-6.684q.015-3.344-.023-6.689-.187-13.374-1.329-26.735c-.814-8.9-1.9-17.781-3.376-26.624a.541.541,0,0,0-.6-.4.466.466,0,0,0-.453.49" transform="translate(-11.603 -32.394)" fill="#fff"/>
            </g>
          </g>
        </g>
        <path id="Path_9097" data-name="Path 9097" d="M19.916,196.551a3.706,3.706,0,0,1-5.942-1.594C9.24,181.228-.633,141.2,25.845,98.626,48.2,62.676,56.911,41.056,60.183,30.969a2.325,2.325,0,0,1,4.417-.016c7.834,23.47,26.914,102.593-44.684,165.6" transform="translate(5.245 18.798)" fill="#bfdbef"/>
        <g id="Group_1381" data-name="Group 1381" transform="translate(20.91 96.059)" style="mix-blend-mode: soft-light;isolation: isolate">
          <g id="Group_1380" data-name="Group 1380">
            <g id="Group_1379" data-name="Group 1379" clip-path="url(#clip-path-4)">
              <path id="Path_9098" data-name="Path 9098" d="M13.863,176.16a1,1,0,0,1-.2,0,1.027,1.027,0,0,1-.91-1.132c.071-.64,7.309-64.544,36.14-115.936A1.028,1.028,0,0,1,50.687,60.1C22.066,111.113,14.867,174.612,14.8,175.249a1.028,1.028,0,0,1-.935.912" transform="translate(-12.749 -58.564)" fill="#fff"/>
            </g>
          </g>
        </g>
        <path id="Path_9099" data-name="Path 9099" d="M402.587,292.772a6.911,6.911,0,0,1-6.894,6.887H22.942a6.911,6.911,0,0,1-6.892-6.887l-3.1-214.209c0-3.789,4.461-11.183,12.639-10.627L389.882,58.51a17.37,17.37,0,0,1,17.824,17.767Z" transform="translate(8.289 37.455)" fill="#063992"/>
        <path id="Path_9100" data-name="Path 9100" d="M392.059,282.977a6.54,6.54,0,0,1-6.521,6.521H28.21a6.54,6.54,0,0,1-6.521-6.521L18.762,88.517c.344-11.7,10.6-15.908,16.824-15.661l349.152-9.367a12.194,12.194,0,0,1,12.515,12.493Z" transform="translate(12.012 40.643)" fill="#67b8ee"/>
        <path id="Path_9101" data-name="Path 9101" d="M23.231,147.409a.615.615,0,0,1-.615-.607l-.231-15.771a.615.615,0,0,1,1.23-.018l.231,15.771a.614.614,0,0,1-.605.625Z" transform="translate(14.331 83.487)" fill="#fff"/>
        <path id="Path_9102" data-name="Path 9102" d="M23.141,147.537a.615.615,0,0,1-.615-.607l-.887-60.4c.018-4.061,1.271-7.3,3.722-9.653,4.453-4.266,11.414-4.053,11.709-4.041l111.491-2.992a.6.6,0,0,1,.631.6.616.616,0,0,1-.6.631L37.067,74.066c-.317-.011-6.774-.21-10.855,3.7-2.2,2.108-3.325,5.055-3.343,8.757l.887,60.389a.614.614,0,0,1-.605.625Z" transform="translate(13.853 44.713)" fill="#fff"/>
        <path id="Path_9103" data-name="Path 9103" d="M417.65,223.719H10.128a9.415,9.415,0,0,1,0-18.821H417.65a9.415,9.415,0,0,1,0,18.821" transform="translate(0.647 131.176)" fill="#063992"/>
        <g id="Group_1384" data-name="Group 1384" transform="translate(41.192 114.417)" opacity="0.42">
          <g id="Group_1383" data-name="Group 1383">
            <g id="Group_1382" data-name="Group 1382" clip-path="url(#clip-path-5)">
              <path id="Path_9104" data-name="Path 9104" d="M376.319,116.414,31.352,118.751c-3.436.023-6.238-2.1-6.238-4.727V84.436c0-2.542,2.628-4.63,5.951-4.725l344.966-9.949c3.505-.1,6.416,2.044,6.416,4.725v37.2c0,2.595-2.734,4.7-6.128,4.727" transform="translate(-25.114 -69.758)" fill="#fff"/>
            </g>
          </g>
        </g>
        <g id="Group_1387" data-name="Group 1387" transform="translate(155.777 173.885)" opacity="0.55">
          <g id="Group_1386" data-name="Group 1386">
            <g id="Group_1385" data-name="Group 1385" clip-path="url(#clip-path-6)">
              <path id="Path_9105" data-name="Path 9105" d="M200.391,225.749H141.173a46.2,46.2,0,0,1-46.2-46.2V152.212a46.2,46.2,0,0,1,46.2-46.2H187.35a33.724,33.724,0,0,1,33.723,33.724v65.329a20.681,20.681,0,0,1-20.681,20.681" transform="translate(-94.974 -106.014)" fill="#fff"/>
            </g>
          </g>
        </g>
        <g id="Group_1390" data-name="Group 1390" transform="translate(38.741 301.122)" opacity="0.28">
          <g id="Group_1389" data-name="Group 1389">
            <g id="Group_1388" data-name="Group 1388" clip-path="url(#clip-path-7)">
              <path id="Path_9106" data-name="Path 9106" d="M268.384,196.322a7.053,7.053,0,0,1-7,6.682L28.823,204.475a5.248,5.248,0,0,1-5.2-5.247v-8.383a7.255,7.255,0,0,1,7.256-7.256H266.108a2.8,2.8,0,0,1,2.8,2.8Z" transform="translate(-23.619 -183.588)" fill="#fff"/>
            </g>
          </g>
        </g>
        <g id="Group_1393" data-name="Group 1393" transform="translate(38.741 170.465)" opacity="0.55">
          <g id="Group_1392" data-name="Group 1392">
            <g id="Group_1391" data-name="Group 1391" clip-path="url(#clip-path-8)">
              <path id="Path_9107" data-name="Path 9107" d="M91.615,224.322H65.329a41.71,41.71,0,0,1-41.71-41.71V145.639a41.71,41.71,0,0,1,41.71-41.71H91.615a41.71,41.71,0,0,1,41.71,41.71v36.972a41.71,41.71,0,0,1-41.71,41.71" transform="translate(-23.62 -103.929)" fill="#fff"/>
            </g>
          </g>
        </g>
        <g id="Group_1396" data-name="Group 1396" transform="translate(290.246 169.305)" opacity="0.55">
          <g id="Group_1395" data-name="Group 1395">
            <g id="Group_1394" data-name="Group 1394" clip-path="url(#clip-path-9)">
              <path id="Path_9108" data-name="Path 9108" d="M261.172,256.12H198.977a22.02,22.02,0,0,1-22.02-22.021V169.434a66.212,66.212,0,0,1,66.212-66.212h24.065a16.346,16.346,0,0,1,16.346,16.346V233.712a22.409,22.409,0,0,1-22.409,22.408" transform="translate(-176.957 -103.222)" fill="#fff"/>
            </g>
          </g>
        </g>
        <path id="Path_9109" data-name="Path 9109" d="M174.4,100.712,61.848,99.7a3.954,3.954,0,0,0-3.991,3.977l.492,86.367a3.953,3.953,0,0,0,4.069,3.932c20.35-.607,110.7-3.284,114.686-3.116,3.941.164,1.8-69.215,1.21-86.334a3.952,3.952,0,0,0-3.917-3.817" transform="translate(37.04 63.83)" fill="#063992"/>
        <path id="Path_9110" data-name="Path 9110" d="M61.041,189.47a.714.714,0,0,1-.715-.709L59.834,102.4a.693.693,0,0,1,.207-.505.7.7,0,0,1,.51-.21L173.1,102.69a.709.709,0,0,1,.705.686c1.455,42.324,1.483,74.813.072,82.773l-.038.208-.212,0c-14.975.21-96.4,2.628-112.575,3.11Zm-.494-87.277a.19.19,0,0,0-.143.061.176.176,0,0,0-.056.139l.492,86.367a.2.2,0,0,0,.192.2l.015.256-.008-.256c16.1-.481,96.851-2.879,112.37-3.111,1.37-8.272,1.325-40.523-.115-82.455a.2.2,0,0,0-.2-.189Z" transform="translate(38.306 65.097)" fill="#fff"/>
        <path id="Path_9111" data-name="Path 9111" d="M150.588,170.126H76.808a2.969,2.969,0,0,1-2.56-4.474L103.457,116a2.97,2.97,0,0,1,5.262.272l14.1,30.9a2.969,2.969,0,0,0,4.707.956l5.7-5.229a2.97,2.97,0,0,1,4.445.494l15.346,22.069a2.969,2.969,0,0,1-2.437,4.665" transform="translate(47.268 73.323)" fill="#fff"/>
        <path id="Path_9112" data-name="Path 9112" d="M69.791,118.65A10.606,10.606,0,1,0,80.4,108.044,10.606,10.606,0,0,0,69.791,118.65" transform="translate(44.68 69.17)" fill="#fff"/>
        <path id="Path_9113" data-name="Path 9113" d="M13.211,179.179c2.88-10.651,11.778-19.4,21.693-21.613a3.339,3.339,0,0,0,2.449-4.079l-.008-.038c-1.437-6.2,2.534-11.13,8.522-12.518s11.726,1.294,13.163,7.488a13.726,13.726,0,0,1-3.021,11.929,3.33,3.33,0,0,0-.126,4.414c6.041,7.079,8.5,17.883,5.887,27.547-3.848,14.234-17.234,20.593-30.642,16.966s-21.764-15.862-17.916-30.1" transform="translate(7.856 89.995)" fill="#062d66"/>
        <path id="Path_9114" data-name="Path 9114" d="M16.206,190.286l.261-.182c-2.4-3.408-2.71-8.326-.8-12.835,1.512-3.582,4.219-6.858,8.518-10.307,1.6-1.286,3.3-2.506,4.944-3.686,1.976-1.42,4.022-2.89,5.916-4.486,1.706-1.437,3.5-3.22,3.876-5.552a12.28,12.28,0,0,0-.157-3.6c-.266-1.873-.517-3.645.582-5l-.248-.2c-1.186,1.463-.914,3.385-.651,5.244a11.956,11.956,0,0,1,.159,3.5c-.359,2.229-2.106,3.959-3.766,5.359-1.885,1.589-3.925,3.054-5.9,4.471-1.645,1.183-3.348,2.4-4.955,3.7-4.343,3.485-7.079,6.8-8.613,10.432-1.947,4.611-1.627,9.646.837,13.141" transform="translate(9.03 92.472)" fill="#91b3fa"/>
        <path id="Path_9115" data-name="Path 9115" d="M19.653,184.543l.3-.108c-1.632-4.517-1.155-10.068,1.312-15.231,2.447-5.116,6.444-9.287,9.654-12.351l-.22-.23c-3.23,3.08-7.253,7.281-9.721,12.444-2.5,5.237-2.987,10.878-1.324,15.475" transform="translate(11.959 100.271)" fill="#91b3fa"/>
        <path id="Path_9116" data-name="Path 9116" d="M60.142,147.6l.11-3.679-3.845-7.635a4.971,4.971,0,0,1-.015-4.443l4.356-8.795s2.514,19.089,3.177,20.676-1.794,4.437-1.794,4.437Z" transform="translate(35.772 78.778)" fill="#ffb27d"/>
        <path id="Path_9117" data-name="Path 9117" d="M70.887,135.777s-11.695,31.882-31.623,41.847c0,0,6.633,10.822,10.094,11.48,0,0,21.288-27.247,23.458-49.57Z" transform="translate(25.137 86.925)" fill="#ffb27d"/>
      </g>
    </g>
    <g id="Group_1400" data-name="Group 1400" transform="translate(5.521 412.633)">
      <g id="Group_1399" data-name="Group 1399" clip-path="url(#clip-path-10)">
        <rect id="Rectangle_4518" data-name="Rectangle 4518" width="10.692" height="14.775" transform="translate(-0.214)" fill="url(#linear-gradient)"/>
      </g>
    </g>
    <g id="Group_1402" data-name="Group 1402">
      <g id="Group_1401" data-name="Group 1401" clip-path="url(#clip-path)">
        <path id="Path_9119" data-name="Path 9119" d="M39.335,218.17l.905,5.326S37.209,254.2,36.67,266.487a9.618,9.618,0,0,0,1.424,5.47l5.272,8.562-13.4-7.906-.267-1.635,2.195-3.016-2.874-34.4a10.553,10.553,0,0,1,1.2-5.837l2.772-5.206Z" transform="translate(18.556 139.673)" fill="#ffb27d"/>
      </g>
    </g>
    <g id="Group_1404" data-name="Group 1404" transform="translate(47.202 408.721)">
      <g id="Group_1403" data-name="Group 1403" clip-path="url(#clip-path-12)">
        <rect id="Rectangle_4520" data-name="Rectangle 4520" width="17.419" height="12.712" transform="translate(-0.258 0)" fill="url(#linear-gradient-2)"/>
      </g>
    </g>
    <g id="Group_1406" data-name="Group 1406">
      <g id="Group_1405" data-name="Group 1405" clip-path="url(#clip-path)">
        <path id="Path_9121" data-name="Path 9121" d="M36.64,220.576s-17.76,33.69-20.585,41.382a73.916,73.916,0,0,0-3.85,14.716c-.059.95-1.24,1.86-4.5,1.86a3.119,3.119,0,0,1-2.9-1.325,1.892,1.892,0,0,1-.072-1.837c1.027-2.08,4.287-8.724,5.495-11.737,1.442-3.6,4.543-19.906,6.244-25.574S20.1,226.241,27.5,220.576c0,0,5.085-4.98,9.139,0" transform="translate(2.9 139.797)" fill="#ffb27d"/>
        <path id="Path_9122" data-name="Path 9122" d="M32.415,201.911c2.6-11.022-.016-19.327-2.764-24.446a8.261,8.261,0,0,1,3.461-11.271,64.085,64.085,0,0,1,12.944-4.9s12.731,9.308,11.222,16.594c-.886,4.269-8.951,25.577-8.951,25.577a17.715,17.715,0,0,1-15.913-1.55" transform="translate(18.344 103.258)" fill="#ffa412"/>
        <path id="Path_9123" data-name="Path 9123" d="M28.956,195.668c1.865-5.618,10.158-9.612,10.158-9.612a17.715,17.715,0,0,0,15.913,1.55,31.908,31.908,0,0,1,.518,12.333c-1.155,5.941-8.4,44.117-8.4,44.117-11.409,2.313-28.958-2.326-28.958-2.326,7.268-12.9,8.9-40.446,10.765-46.062" transform="translate(11.646 119.114)" fill="#062d66"/>
        <path id="Path_9124" data-name="Path 9124" d="M35.666,154.092l-3.725,16.732c-.356,1.473.987,1.232,2.477.951,2.441-.461,5.585-1.407,6.636-3.307a1.8,1.8,0,0,0,.19-.63l1.6-11.6a2.085,2.085,0,0,0-1.22-2.19l-3.089-1.37a2.084,2.084,0,0,0-2.87,1.415" transform="translate(20.412 97.629)" fill="#ffb27d"/>
        <path id="Path_9125" data-name="Path 9125" d="M83.811,146.731s-9.8,34.056-49.336,30.856a4.58,4.58,0,0,0-4.948,4.2l-.1,1.366a6.094,6.094,0,0,0,6.375,6.569c13.15-.666,41.386-5.829,51.064-37.07Z" transform="translate(18.824 93.938)" fill="#ffb27d"/>
        <path id="Path_9126" data-name="Path 9126" d="M65.625,159.3a63.78,63.78,0,0,0,2.357-9.008c.474-3.466-1.27-11.244-2.765-13.43s-1.748,3.174-2.423,5.693.467,6.115.467,6.115l-.687,4.711Z" transform="translate(40.06 87.29)" fill="#ffb27d"/>
        <path id="Path_9127" data-name="Path 9127" d="M42.693,145.1s9.418,13.72,3.561,17.544-12.561-5.928-12.561-5.928-2.106-7.451.289-9.922,8.711-1.694,8.711-1.694" transform="translate(21.022 92.819)" fill="#ffb27d"/>
      </g>
    </g>
    <g id="Group_1408" data-name="Group 1408" transform="translate(52.296 234.387)">
      <g id="Group_1407" data-name="Group 1407" clip-path="url(#clip-path-14)">
        <rect id="Rectangle_4522" data-name="Rectangle 4522" width="18.162" height="18.255" transform="translate(-6.115 1.864) rotate(-21.283)" fill="url(#linear-gradient-3)"/>
      </g>
    </g>
    <g id="Group_1410" data-name="Group 1410">
      <g id="Group_1409" data-name="Group 1409" clip-path="url(#clip-path)">
        <path id="Path_9129" data-name="Path 9129" d="M36.675,152.546s-3.682-4.432-5.234-1.617,3.3,5.042,5.012,3.677Z" transform="translate(19.935 96.026)" fill="#ffb27d"/>
        <path id="Path_9130" data-name="Path 9130" d="M205.052,144.269c-.089.169-5.711,4.307-5.711,4.307s1.242,8.882,6.284,12.39c5.542,3.856,13.373-3.177,13.373-3.177s6.23,1.481,9.543-11.488c.761-2.975-3.628-3.226-8.923-2.678-6.83.707-14.565.646-14.565.646" transform="translate(127.619 91.799)" fill="#062d66"/>
        <path id="Path_9131" data-name="Path 9131" d="M200.106,163.815a23.735,23.735,0,0,1,7.21-3.354c.968-.264,6.2,1.256,9.43,1.183,4.437-.1,8.954-2.122,12.61-1.21a26.414,26.414,0,0,1,8.324,3.308c5.139,3.656,8.157,10.471,10,17.222a23.525,23.525,0,0,1-7.863,5.162L239,218.939l-19.4,9.928-22.146-11.119.792-32.068s-7.033-3.274-7.548-4.466,3.2-13.133,9.41-17.4" transform="translate(122.054 102.559)" fill="#ffa412"/>
        <path id="Path_9132" data-name="Path 9132" d="M191.681,172.924s-9.425,26.128,12.067,36.867c4.461-.594,2.746-8,2.746-8s-9.338-2.067-6.533-23.862a60.478,60.478,0,0,0-8.28-5" transform="translate(121.398 110.707)" fill="#ffb27d"/>
        <path id="Path_9133" data-name="Path 9133" d="M231.049,172.924s6.485,27.273-12.067,36.867c-4.461-.594-2.746-8-2.746-8s7.525-3.707,6.533-23.862a60.479,60.479,0,0,1,8.28-5" transform="translate(138.228 110.707)" fill="#ffb27d"/>
        <path id="Path_9134" data-name="Path 9134" d="M223.52,207.735H208.31a13.709,13.709,0,0,1-13.669-13.669v-1.4A13.709,13.709,0,0,1,208.31,179h15.21a13.709,13.709,0,0,1,13.669,13.669v1.4a13.709,13.709,0,0,1-13.669,13.669" transform="translate(124.61 114.597)" fill="#063992"/>
        <path id="Path_9135" data-name="Path 9135" d="M238.729,201.978c-4.87-1.117-16.125-.517-16.125-.517l-.458,1.24-.758,6.161s10.719,1.932,16,1.927a4.941,4.941,0,0,0,1.483-.221c.161-.144.318-.294.467-.456a5.809,5.809,0,0,0-.612-8.134" transform="translate(141.734 128.873)" fill="#062d66"/>
        <path id="Path_9136" data-name="Path 9136" d="M220.4,201.186l1.906.082a3.662,3.662,0,0,1,2.677,1.384,4.511,4.511,0,0,1,.982,3.089,3.555,3.555,0,0,1-1.032,2.35,2.888,2.888,0,0,1-2.229.848l-2.916-.208Z" transform="translate(140.708 128.8)" fill="#ffb27d"/>
        <path id="Path_9137" data-name="Path 9137" d="M181.918,201.522c4.9-.968,16.131-.021,16.131-.021l.426,1.253.6,6.182s-10.761,1.6-16.043,1.435a5,5,0,0,1-1.476-.266,6.555,6.555,0,0,1-.456-.472,5.8,5.8,0,0,1,.814-8.111" transform="translate(115.107 128.736)" fill="#062d66"/>
        <path id="Path_9138" data-name="Path 9138" d="M195.117,201.187l-1.908.023a3.641,3.641,0,0,0-2.71,1.3,4.5,4.5,0,0,0-1.06,3.059,3.574,3.574,0,0,0,.973,2.382,2.9,2.9,0,0,0,2.208.915l2.92-.118Z" transform="translate(121.28 128.801)" fill="#ffb27d"/>
        <path id="Path_9139" data-name="Path 9139" d="M258.971,191.811c-2.208-5.083-7.609-5.908-12.206-3.531-.08.1-29.194,15.026-54.868,21.565a27.9,27.9,0,0,1,1.2,7.328c.015.549,0,1.091-.026,1.625,19.687-1.012,41.056-7.578,59.418-13.348a10.151,10.151,0,0,0,6.487-13.64" transform="translate(122.853 119.722)" fill="#062d66"/>
        <path id="Path_9140" data-name="Path 9140" d="M244.649,217.83a16.938,16.938,0,0,1,1.657-7.934c.034-.112.074-.22.11-.33-1.466-.454-3.359-1.069-5.847-1.914a280.718,280.718,0,0,1-45.416-19.791c-5.157-2.818-11.019-.93-12.671,5.172-1.473,5.447,1.763,10.1,6.674,11.732,14.695,4.889,7.043,3.531,11.842,5.076,12.889,3.986,28.927,7.615,43.682,8.606-.011-.207-.025-.413-.031-.618" transform="translate(116.596 119.451)" fill="#062d66"/>
        <path id="Path_9141" data-name="Path 9141" d="M200.811,163.652a11.245,11.245,0,0,0,11.48,8.321c9.7-.177,10.561-8.349,10.561-8.349l-6.334-1.355-.528-7.058-9.528.705-.177,6.705Z" transform="translate(128.56 99.367)" fill="#ffb27d"/>
        <path id="Path_9142" data-name="Path 9142" d="M206.75,143.021s-10.919,21.149,2.034,26.279c9.134,3.62,14.862-14.043,13.154-18.828-2.642-7.4-4.381-6.52-4.381-6.52Z" transform="translate(129.608 91.563)" fill="#ffb27d"/>
        <path id="Path_9143" data-name="Path 9143" d="M226.591,144.505c5.393,1.483.784,13.181-7.337,10.414s-11.312-2.726-12.577-.5-1.537,10.148-4.283,6.234c-3.01-4.291-4.689-12.9-1-15.68,3.3-2.482,4.069-6.33,8.025-6.2,5.25.176,9.311-2.152,11.682-.472,2.723,1.927,1.519,5.1,5.488,6.2" transform="translate(127.583 88.155)" fill="#062d66"/>
      </g>
    </g>
    <g id="Group_1412" data-name="Group 1412" transform="translate(330.99 243.421)">
      <g id="Group_1411" data-name="Group 1411" clip-path="url(#clip-path-16)">
        <rect id="Rectangle_4524" data-name="Rectangle 4524" width="4.756" height="8.73" transform="translate(-1.073 0.071) rotate(-5.281)" fill="url(#linear-gradient-4)"/>
      </g>
    </g>
    <g id="Group_1441" data-name="Group 1441">
      <g id="Group_1440" data-name="Group 1440" clip-path="url(#clip-path)">
        <g id="Group_1415" data-name="Group 1415" transform="translate(337.71 298.868)" opacity="0.55">
          <g id="Group_1414" data-name="Group 1414">
            <g id="Group_1413" data-name="Group 1413" clip-path="url(#clip-path-18)">
              <path id="Path_9145" data-name="Path 9145" d="M211.221,184.723a2.6,2.6,0,0,1-2.116,3.134,2.793,2.793,0,0,1-3.169-2.352c-.225-1.525.472-3.039,2-3.264a3,3,0,0,1,3.289,2.482" transform="translate(-205.895 -182.214)" fill="#fff"/>
            </g>
          </g>
        </g>
        <path id="Path_9146" data-name="Path 9146" d="M221.36,168.95a42.534,42.534,0,1,1-42.534-42.534A42.533,42.533,0,0,1,221.36,168.95" transform="translate(87.255 80.932)" fill="#fff"/>
        <path id="Path_9147" data-name="Path 9147" d="M138.988,152.948l9.7-5.06v2.157a.852.852,0,0,1-.123.448,1,1,0,0,1-.4.348l-4.448,2.28a4.271,4.271,0,0,1-.594.251c-.208.069-.431.133-.668.189.236.057.459.121.668.19a4.271,4.271,0,0,1,.594.251l4.448,2.291a1,1,0,0,1,.4.349.843.843,0,0,1,.123.448v2.155l-9.7-5.072Z" transform="translate(88.981 94.678)" fill="#063992"/>
        <path id="Path_9148" data-name="Path 9148" d="M147.6,163.486v-18.2h3.026v7a6.425,6.425,0,0,1,1.617-1.128,4.688,4.688,0,0,1,2.07-.428,4.508,4.508,0,0,1,1.826.349,3.619,3.619,0,0,1,1.33.979,4.362,4.362,0,0,1,.809,1.507,6.406,6.406,0,0,1,.276,1.931v8h-3.026v-8a2.69,2.69,0,0,0-.533-1.783,1.975,1.975,0,0,0-1.6-.631,3.137,3.137,0,0,0-1.47.356,5.248,5.248,0,0,0-1.3.968v9.09Z" transform="translate(94.494 93.009)" fill="#063992"/>
        <path id="Path_9149" data-name="Path 9149" d="M160.666,162.985a3.3,3.3,0,0,1-2.511-.925,3.547,3.547,0,0,1-.882-2.554v-7.02H156a.616.616,0,0,1-.422-.159.607.607,0,0,1-.179-.479v-1.2l2.022-.33.636-3.431a.609.609,0,0,1,.226-.379.717.717,0,0,1,.448-.136H160.3v3.958h3.308v2.157H160.3V159.3a1.34,1.34,0,0,0,.294.919,1,1,0,0,0,.784.33,1.445,1.445,0,0,0,.472-.066,2.96,2.96,0,0,0,.33-.141c.1-.049.179-.1.253-.141a.4.4,0,0,1,.22-.067.343.343,0,0,1,.221.067,1.042,1.042,0,0,1,.184.2l.905,1.47a4.561,4.561,0,0,1-1.519.833,5.632,5.632,0,0,1-1.776.282" transform="translate(99.486 93.707)" fill="#063992"/>
        <path id="Path_9150" data-name="Path 9150" d="M161.874,161.363V148.794h1.85a.74.74,0,0,1,.771.551l.2.93a7.235,7.235,0,0,1,.692-.674,4.576,4.576,0,0,1,.771-.527,4.24,4.24,0,0,1,.882-.348,3.882,3.882,0,0,1,1.037-.13,2.938,2.938,0,0,1,1.953.643,3.878,3.878,0,0,1,1.145,1.709,3.837,3.837,0,0,1,.735-1.071,4.059,4.059,0,0,1,.968-.73,4.518,4.518,0,0,1,1.122-.417,5.45,5.45,0,0,1,1.194-.135,5.039,5.039,0,0,1,1.85.318,3.553,3.553,0,0,1,1.36.932,4.112,4.112,0,0,1,.84,1.494,6.515,6.515,0,0,1,.287,2.022v8H176.5v-8a2.69,2.69,0,0,0-.527-1.808,1.932,1.932,0,0,0-1.543-.607,2.319,2.319,0,0,0-.863.159,2.062,2.062,0,0,0-.7.459,2.1,2.1,0,0,0-.472.754,2.92,2.92,0,0,0-.171,1.042v8h-3.039v-8a2.737,2.737,0,0,0-.508-1.839,1.894,1.894,0,0,0-1.5-.576,2.422,2.422,0,0,0-1.219.325,4.122,4.122,0,0,0-1.06.889v9.2Z" transform="translate(103.632 95.132)" fill="#063992"/>
        <rect id="Rectangle_4526" data-name="Rectangle 4526" width="3.026" height="18.205" transform="translate(286.334 238.29)" fill="#063992"/>
        <path id="Path_9151" data-name="Path 9151" d="M179.225,159.245v-2.157a.842.842,0,0,1,.123-.446.991.991,0,0,1,.4-.349L184.2,154a5.944,5.944,0,0,1,1.263-.441c-.238-.057-.459-.12-.668-.189a4.183,4.183,0,0,1-.6-.253l-4.447-2.278a.99.99,0,0,1-.4-.349.843.843,0,0,1-.123-.448v-2.155l9.7,5.06v1.225Z" transform="translate(114.741 94.678)" fill="#063992"/>
        <path id="Path_9152" data-name="Path 9152" d="M278.246,118.85A32.886,32.886,0,1,1,245.36,85.964a32.887,32.887,0,0,1,32.886,32.886" transform="translate(136.027 55.034)" fill="#fff"/>
        <path id="Path_9153" data-name="Path 9153" d="M223.118,113.752l-7.092-4.388V107.8l7.092-4.368v2.265l-4.9,2.887,4.9,2.908Z" transform="translate(138.301 66.215)" fill="#063992"/>
        <path id="Path_9154" data-name="Path 9154" d="M229.957,104.3a2.067,2.067,0,0,0-1.857,1.379,8.825,8.825,0,0,0-.679,3.833q0,5.11,2.667,5.111a4.876,4.876,0,0,0,2.444-.745v2.434a4.881,4.881,0,0,1-2.755.715,4.328,4.328,0,0,1-3.818-1.978,9.872,9.872,0,0,1-1.333-5.559A9.78,9.78,0,0,1,226,103.91a4.376,4.376,0,0,1,3.818-2,5.365,5.365,0,0,1,1.545.221,6.254,6.254,0,0,1,1.584.774l-.905,2.224a8.21,8.21,0,0,0-.966-.569,2.472,2.472,0,0,0-1.117-.256" transform="translate(143.806 65.241)" fill="#063992"/>
        <path id="Path_9155" data-name="Path 9155" d="M237.657,112.773a4.417,4.417,0,0,1-1.042,3.159,3.942,3.942,0,0,1-3,1.1,6.594,6.594,0,0,1-3.269-.754v-2.706a5.663,5.663,0,0,0,3.028,1.076,1.528,1.528,0,0,0,1.183-.433,1.676,1.676,0,0,0,.4-1.176,2.138,2.138,0,0,0-.472-1.343,7.075,7.075,0,0,0-1.56-1.355,6.923,6.923,0,0,1-1.434-1.251,4.47,4.47,0,0,1-.754-1.343,5.1,5.1,0,0,1-.267-1.73,4.177,4.177,0,0,1,1.051-3,3.711,3.711,0,0,1,2.823-1.107,6.17,6.17,0,0,1,3.249.946l-.905,2.193a8.786,8.786,0,0,0-1.01-.5,2.9,2.9,0,0,0-1.132-.221,1.243,1.243,0,0,0-1.022.438,1.833,1.833,0,0,0-.358,1.192,2.054,2.054,0,0,0,.428,1.3,6.314,6.314,0,0,0,1.494,1.258,6.223,6.223,0,0,1,2.006,1.972,4.587,4.587,0,0,1,.569,2.295" transform="translate(147.466 65.241)" fill="#063992"/>
        <path id="Path_9156" data-name="Path 9156" d="M242.846,112.773a4.417,4.417,0,0,1-1.042,3.159,3.942,3.942,0,0,1-3,1.1,6.594,6.594,0,0,1-3.269-.754v-2.706a5.663,5.663,0,0,0,3.028,1.076,1.528,1.528,0,0,0,1.183-.433,1.676,1.676,0,0,0,.4-1.176,2.138,2.138,0,0,0-.472-1.343,7.075,7.075,0,0,0-1.56-1.355,6.923,6.923,0,0,1-1.434-1.251,4.47,4.47,0,0,1-.754-1.343,5.1,5.1,0,0,1-.267-1.73,4.177,4.177,0,0,1,1.051-3,3.711,3.711,0,0,1,2.823-1.107,6.17,6.17,0,0,1,3.249.946l-.905,2.193a8.786,8.786,0,0,0-1.01-.5,2.9,2.9,0,0,0-1.132-.221,1.243,1.243,0,0,0-1.022.438,1.833,1.833,0,0,0-.358,1.192,2.054,2.054,0,0,0,.428,1.3,6.314,6.314,0,0,0,1.494,1.258,6.223,6.223,0,0,1,2.006,1.972,4.588,4.588,0,0,1,.569,2.295" transform="translate(150.788 65.241)" fill="#063992"/>
        <path id="Path_9157" data-name="Path 9157" d="M244.058,111.488l4.93-2.908-4.93-2.887v-2.265l7.092,4.368v1.57l-7.092,4.386Z" transform="translate(156.247 66.215)" fill="#063992"/>
        <path id="Path_9158" data-name="Path 9158" d="M222.256,120.534a23.97,23.97,0,1,1-23.97-23.97,23.97,23.97,0,0,1,23.97,23.97" transform="translate(111.598 61.821)" fill="#fff"/>
        <path id="Path_9159" data-name="Path 9159" d="M181.2,112.612,188.132,109v1.539a.6.6,0,0,1-.089.32.7.7,0,0,1-.289.249l-3.175,1.627a2.872,2.872,0,0,1-.423.179c-.149.049-.308.1-.477.136.169.039.328.085.477.135a2.877,2.877,0,0,1,.423.18L187.755,115a.7.7,0,0,1,.289.249.592.592,0,0,1,.089.318v1.54l-6.928-3.622Z" transform="translate(116.007 69.782)" fill="#063992"/>
        <path id="Path_9160" data-name="Path 9160" d="M188.617,120.162a1.284,1.284,0,0,1-.2.351,1.142,1.142,0,0,1-.279.248,1.363,1.363,0,0,1-.333.154,1.2,1.2,0,0,1-.341.052h-.91l5.109-13.068a1.219,1.219,0,0,1,.428-.564,1.144,1.144,0,0,1,.674-.2h.919Z" transform="translate(119.431 68.591)" fill="#063992"/>
        <path id="Path_9161" data-name="Path 9161" d="M192,117.108v-1.54a.606.606,0,0,1,.087-.318.7.7,0,0,1,.289-.249l3.175-1.637a4.18,4.18,0,0,1,.9-.315c-.169-.039-.328-.085-.476-.135a2.971,2.971,0,0,1-.425-.179l-3.175-1.627a.722.722,0,0,1-.289-.249.616.616,0,0,1-.087-.32V109l6.927,3.613v.874Z" transform="translate(122.917 69.782)" fill="#063992"/>
        <g id="Group_1418" data-name="Group 1418" transform="translate(283.155 23.081)" opacity="0.25">
          <g id="Group_1417" data-name="Group 1417">
            <g id="Group_1416" data-name="Group 1416" clip-path="url(#clip-path-19)">
              <path id="Path_9162" data-name="Path 9162" d="M173.838,71.028a1.677,1.677,0,0,1-1.176-1.911c.341-1.863.768-3.741,1.27-5.578a1.677,1.677,0,0,1,2.058-1.178l.033.01a1.677,1.677,0,0,1,1.145,2.05c-.476,1.745-.881,3.528-1.206,5.3a1.676,1.676,0,0,1-1.952,1.348,1.463,1.463,0,0,1-.172-.041m4.217-13.993a1.981,1.981,0,0,1-.189-.067,1.68,1.68,0,0,1-.886-2.2c.748-1.752,1.576-3.487,2.464-5.16a1.678,1.678,0,1,1,2.964,1.573c-.843,1.589-1.63,3.239-2.341,4.9a1.677,1.677,0,0,1-2.013.953m7.192-12.718a1.675,1.675,0,0,1-.886-2.595c1.114-1.537,2.309-3.046,3.553-4.483a1.678,1.678,0,1,1,2.537,2.2c-1.181,1.365-2.316,2.8-3.374,4.256a1.676,1.676,0,0,1-1.83.625M195.1,33.526a1.678,1.678,0,0,1-.63-2.874c1.432-1.25,2.934-2.452,4.466-3.576a1.678,1.678,0,0,1,1.983,2.706c-1.455,1.066-2.883,2.209-4.243,3.4a1.673,1.673,0,0,1-1.576.346M207.121,25.2a1.678,1.678,0,0,1-.325-3.087c1.67-.9,3.4-1.74,5.145-2.5a1.677,1.677,0,1,1,1.337,3.077c-1.658.72-3.305,1.519-4.891,2.373a1.676,1.676,0,0,1-1.266.133m13.556-5.457a1.677,1.677,0,0,1,.021-3.226c1.829-.508,3.7-.946,5.57-1.3a1.678,1.678,0,0,1,.622,3.3c-1.775.333-3.554.748-5.293,1.23a1.654,1.654,0,0,1-.92,0m60.113,13.464a1.684,1.684,0,0,1-.623-.34c-1.365-1.178-2.8-2.311-4.265-3.369a1.678,1.678,0,0,1,1.965-2.719c1.542,1.114,3.054,2.308,4.491,3.546a1.678,1.678,0,0,1-1.568,2.882M235.1,17.431a1.677,1.677,0,0,1,.394-3.285c1.9-.089,3.82-.1,5.718-.023a1.678,1.678,0,1,1-.131,3.353c-1.8-.071-3.628-.062-5.431.021a1.7,1.7,0,0,1-.549-.066m33.621,7.543a1.649,1.649,0,0,1-.313-.126c-1.594-.843-3.248-1.627-4.911-2.332a1.678,1.678,0,0,1,1.311-3.089c1.75.741,3.489,1.568,5.167,2.454a1.677,1.677,0,0,1-1.253,3.093M249.673,18.4a1.678,1.678,0,0,1,.773-3.261c1.867.338,3.745.761,5.58,1.258l.034.01a1.677,1.677,0,0,1-.912,3.228c-1.744-.471-3.526-.873-5.3-1.194a1.6,1.6,0,0,1-.176-.041" transform="translate(-172.634 -14.072)" fill="#ffa412"/>
              <path id="Path_9163" data-name="Path 9163" d="M244.709,32.989a1.675,1.675,0,0,1-.833-.558c-.543-.672-1.107-1.347-1.681-2a1.677,1.677,0,1,1,2.526-2.208c.6.689,1.2,1.4,1.768,2.106a1.678,1.678,0,0,1-1.78,2.662" transform="translate(-128.366 -5.381)" fill="#ffa412"/>
            </g>
          </g>
        </g>
        <g id="Group_1421" data-name="Group 1421" transform="translate(294.745 93.933)" opacity="0.25">
          <g id="Group_1420" data-name="Group 1420">
            <g id="Group_1419" data-name="Group 1419" clip-path="url(#clip-path-20)">
              <path id="Path_9164" data-name="Path 9164" d="M252.556,63.224a1.678,1.678,0,0,1-1.191-1.821c.11-.858.2-1.732.276-2.6a1.678,1.678,0,0,1,3.344.285c-.079.912-.176,1.834-.29,2.737a1.68,1.68,0,0,1-1.876,1.453,1.733,1.733,0,0,1-.262-.056" transform="translate(-133.828 -57.269)" fill="#ffa412"/>
              <path id="Path_9165" data-name="Path 9165" d="M212.288,113.3q-1.112-.325-2.221-.692a1.678,1.678,0,0,1,1.053-3.187c1.7.564,3.428,1.056,5.144,1.468a1.678,1.678,0,1,1-.786,3.262c-1.061-.254-2.134-.541-3.19-.851m-10.42-4.037a1.663,1.663,0,0,1-.267-.1c-1.681-.822-3.348-1.724-4.95-2.682a1.677,1.677,0,1,1,1.721-2.88c1.522.91,3.1,1.766,4.7,2.547a1.678,1.678,0,0,1-1.206,3.118m22.317,6.354a1.678,1.678,0,0,1,.64-3.279c1.763.176,3.559.277,5.336.3a1.677,1.677,0,1,1-.048,3.354c-1.871-.026-3.763-.134-5.621-.32a1.718,1.718,0,0,1-.307-.059m-34.467-14.055a1.7,1.7,0,0,1-.577-.3c-1.458-1.169-2.885-2.416-4.24-3.705a1.677,1.677,0,0,1,2.313-2.429c1.286,1.222,2.641,2.406,4.027,3.517a1.678,1.678,0,0,1-1.522,2.92m48.839,13.884a1.678,1.678,0,0,1,.267-3.275c1.757-.216,3.531-.512,5.272-.878a1.678,1.678,0,1,1,.689,3.284c-1.832.385-3.7.7-5.55.923a1.668,1.668,0,0,1-.677-.054m13.988-3.32a1.677,1.677,0,0,1-.094-3.189c1.673-.6,3.341-1.274,4.957-2.008a1.677,1.677,0,1,1,1.388,3.054c-1.7.773-3.456,1.483-5.216,2.113a1.671,1.671,0,0,1-1.035.03m12.93-6.29a1.677,1.677,0,0,1-.422-3.028c1.5-.948,2.985-1.97,4.4-3.038a1.677,1.677,0,1,1,2.019,2.678c-1.491,1.124-3.049,2.2-4.632,3.2a1.672,1.672,0,0,1-1.368.19m11.252-8.959a1.677,1.677,0,0,1-.71-2.8c1.26-1.253,2.48-2.575,3.626-3.928a1.678,1.678,0,0,1,2.56,2.17c-1.209,1.425-2.495,2.816-3.82,4.137a1.678,1.678,0,0,1-1.657.42m9.011-11.216a1.631,1.631,0,0,1-.426-.194,1.68,1.68,0,0,1-.518-2.316c.951-1.5,1.849-3.052,2.672-4.629a1.677,1.677,0,0,1,2.974,1.553c-.866,1.658-1.812,3.3-2.813,4.873a1.678,1.678,0,0,1-1.888.712m6.325-12.912c-.033-.01-.066-.021-.1-.033a1.677,1.677,0,0,1-1.009-2.147c.443-1.23.855-2.488,1.222-3.741q.2-.679.382-1.361a1.678,1.678,0,0,1,2.057-1.183,1.66,1.66,0,0,1,1.183,2.057q-.192.716-.4,1.432c-.387,1.317-.82,2.641-1.286,3.935a1.676,1.676,0,0,1-2.049,1.042" transform="translate(-176.704 -52.814)" fill="#ffa412"/>
              <path id="Path_9166" data-name="Path 9166" d="M182.532,82.875a1.666,1.666,0,0,1-.838-.564c-.566-.71-1.128-1.445-1.67-2.186a1.677,1.677,0,0,1,2.706-1.981c.515.7,1.05,1.4,1.586,2.076a1.677,1.677,0,0,1-1.785,2.655" transform="translate(-179.701 -44.345)" fill="#ffa412"/>
            </g>
          </g>
        </g>
        <path id="Path_9167" data-name="Path 9167" d="M187.919,98.484a.782.782,0,0,0,.774.477l9.521-.64a41.634,41.634,0,0,0,9.582,9.464l-.515,9.523a.783.783,0,0,0,.487.768l10.6,4.312a.785.785,0,0,0,.886-.21L225.534,115A41.573,41.573,0,0,0,239,114.9l6.372,7.1a.786.786,0,0,0,.889.2l10.547-4.448a.786.786,0,0,0,.477-.776l-.64-9.521a41.569,41.569,0,0,0,9.464-9.582l9.523.517a.785.785,0,0,0,.768-.489l4.312-10.6a.785.785,0,0,0-.21-.886l-7.181-6.275a41.573,41.573,0,0,0-.094-13.468l7.1-6.374a.783.783,0,0,0,.2-.887l-4.45-10.547a.786.786,0,0,0-.774-.479l-9.521.641a41.536,41.536,0,0,0-9.582-9.464l.517-9.523a.785.785,0,0,0-.489-.769l-10.6-4.31a.782.782,0,0,0-.886.21l-6.277,7.181A41.563,41.563,0,0,0,225,32.446l-6.374-7.1a.784.784,0,0,0-.887-.2l-10.547,4.45a.787.787,0,0,0-.479.776l.641,9.52a41.6,41.6,0,0,0-9.464,9.582l-9.523-.515a.784.784,0,0,0-.769.487l-4.31,10.6a.782.782,0,0,0,.21.886l7.181,6.275a41.573,41.573,0,0,0,.092,13.468l-7.1,6.372a.786.786,0,0,0-.2.889Z" transform="translate(117.305 15.945)" fill="#ffa412"/>
        <g id="Group_1424" data-name="Group 1424" transform="translate(337.798 78.113)" opacity="0.5">
          <g id="Group_1423" data-name="Group 1423">
            <g id="Group_1422" data-name="Group 1422" clip-path="url(#clip-path-21)">
              <path id="Path_9168" data-name="Path 9168" d="M214.211,70.17a11.508,11.508,0,1,1,1.652.356,11.361,11.361,0,0,1-1.652-.356m5.746-19.5a8.958,8.958,0,0,0-1.279-.276,8.8,8.8,0,1,0,1.279.276" transform="translate(-205.949 -47.624)" fill="#fff"/>
            </g>
          </g>
        </g>
        <g id="Group_1427" data-name="Group 1427" transform="translate(321.224 61.216)" opacity="0.5">
          <g id="Group_1426" data-name="Group 1426">
            <g id="Group_1425" data-name="Group 1425" clip-path="url(#clip-path-22)">
              <path id="Path_9169" data-name="Path 9169" d="M216.23,92.779a28.824,28.824,0,0,1-2.746-.958c-.284-.115-.568-.236-.848-.361a28.438,28.438,0,0,1-3.981-2.163l-.051-.034-.146-.1-.282-.19a.672.672,0,0,1-.267-.743.7.7,0,0,1,.09-.19.67.67,0,0,1,.932-.176,26.987,26.987,0,0,0,30.836-.307,26.785,26.785,0,0,0,9.338-11.8,27.679,27.679,0,0,0,.915-2.618,26.951,26.951,0,0,0-50.843-17.683q-.517,1.274-.9,2.585a26.877,26.877,0,0,0-.773,11.673.639.639,0,0,1-.02.29.67.67,0,0,1-1.306-.085,28.293,28.293,0,1,1,55.13,3.594,28.735,28.735,0,0,1-.958,2.749,28.3,28.3,0,0,1-34.12,16.51" transform="translate(-195.844 -37.322)" fill="#fff"/>
            </g>
          </g>
        </g>
        <g id="Group_1430" data-name="Group 1430" transform="translate(216.241 60.61)" opacity="0.25">
          <g id="Group_1429" data-name="Group 1429">
            <g id="Group_1428" data-name="Group 1428" clip-path="url(#clip-path-23)">
              <path id="Path_9170" data-name="Path 9170" d="M132.582,66.642a1.034,1.034,0,0,1-.745-.992c0-.879.026-1.771.079-2.651a1.036,1.036,0,1,1,2.068.125c-.049.837-.074,1.686-.074,2.526a1.038,1.038,0,0,1-1.037,1.037.961.961,0,0,1-.292-.044" transform="translate(-131.839 -20.902)" fill="#ffa412"/>
              <path id="Path_9171" data-name="Path 9171" d="M133.026,74.758a1.035,1.035,0,0,1-.725-1.183,44.55,44.55,0,0,1,1.058-4.433c.09-.307.184-.612.279-.919a1.073,1.073,0,0,1,1.3-.676,1.038,1.038,0,0,1,.677,1.3c-.094.292-.182.584-.269.876a42.942,42.942,0,0,0-1.009,4.228,1.037,1.037,0,0,1-1.209.83q-.052-.01-.1-.025M136.272,64.5a.907.907,0,0,1-.141-.051,1.037,1.037,0,0,1-.512-1.373,44.455,44.455,0,0,1,2.593-4.868,1.036,1.036,0,0,1,1.765,1.086,42.9,42.9,0,0,0-2.473,4.642,1.036,1.036,0,0,1-1.232.564m5.634-9.164a1.035,1.035,0,0,1-.515-1.642A44.626,44.626,0,0,1,145.1,49.61a1.036,1.036,0,0,1,1.443,1.486,42.766,42.766,0,0,0-3.54,3.894,1.035,1.035,0,0,1-1.1.346m7.717-7.5a1.036,1.036,0,0,1-.333-1.821,44.751,44.751,0,0,1,4.6-3.051,1.036,1.036,0,0,1,1.037,1.794,42.64,42.64,0,0,0-4.384,2.908,1.034,1.034,0,0,1-.917.169m9.313-5.386a1.037,1.037,0,0,1-.115-1.949,45.5,45.5,0,0,1,5.2-1.842,1.036,1.036,0,0,1,.571,1.993,43.307,43.307,0,0,0-4.958,1.757,1.041,1.041,0,0,1-.7.041m10.337-2.962a1.037,1.037,0,0,1,.13-2.019,44.366,44.366,0,0,1,5.488-.517,1.036,1.036,0,1,1,.067,2.072,42.419,42.419,0,0,0-5.232.492,1.045,1.045,0,0,1-.453-.028m10.745-.346a1.036,1.036,0,0,1,.387-2.026,44.951,44.951,0,0,1,5.45.846,1.036,1.036,0,0,1-.443,2.024,42.768,42.768,0,0,0-5.2-.807.971.971,0,0,1-.2-.038m15.474,4.4a1,1,0,0,1-.171-.067,43.083,43.083,0,0,0-4.2-1.811c-.218-.082-.431-.159-.646-.235a1.037,1.037,0,0,1,.686-1.957c.228.082.456.162.684.248a45.344,45.344,0,0,1,4.4,1.9,1.036,1.036,0,0,1-.751,1.922" transform="translate(-131.553 -36.953)" fill="#ffa412"/>
            </g>
          </g>
        </g>
        <g id="Group_1433" data-name="Group 1433" transform="translate(224.703 130.158)" opacity="0.25">
          <g id="Group_1432" data-name="Group 1432">
            <g id="Group_1431" data-name="Group 1431" clip-path="url(#clip-path-24)">
              <path id="Path_9172" data-name="Path 9172" d="M159.243,96.108a1.036,1.036,0,0,1,.569-1.993A42.537,42.537,0,0,0,164.87,95.2a1.036,1.036,0,0,1-.312,2.049,44.885,44.885,0,0,1-5.3-1.14l-.013,0m-5.011-1.73a.823.823,0,0,1-.107-.038,45.218,45.218,0,0,1-4.88-2.37,1.036,1.036,0,0,1,1.015-1.806,43.227,43.227,0,0,0,4.657,2.262,1.036,1.036,0,0,1-.686,1.952M169.7,97.7a1.037,1.037,0,0,1,.321-2.031A43.183,43.183,0,0,0,175.2,95.5a1.036,1.036,0,0,1,.192,2.063,44.958,44.958,0,0,1-5.423.175,1.153,1.153,0,0,1-.264-.041m-24.692-8.516a1.028,1.028,0,0,1-.323-.161,44,44,0,0,1-4.166-3.481,1.036,1.036,0,1,1,1.424-1.506,42.419,42.419,0,0,0,3.971,3.318,1.036,1.036,0,0,1-.905,1.829m35.225,7.53a1.037,1.037,0,0,1,.069-2.008,42.585,42.585,0,0,0,4.98-1.406,1.036,1.036,0,1,1,.684,1.957,45.108,45.108,0,0,1-5.221,1.475,1.035,1.035,0,0,1-.512-.018m9.989-3.482a1.037,1.037,0,0,1-.166-1.926,43.369,43.369,0,0,0,4.5-2.555,1.035,1.035,0,1,1,1.13,1.735,44.95,44.95,0,0,1-4.717,2.68,1.027,1.027,0,0,1-.748.066m8.869-5.777a1.037,1.037,0,0,1-.374-1.788,42.373,42.373,0,0,0,3.756-3.563,1.036,1.036,0,0,1,1.514,1.415,44.628,44.628,0,0,1-3.938,3.735,1.036,1.036,0,0,1-.958.2" transform="translate(-134.95 -77.805)" fill="#ffa412"/>
              <path id="Path_9173" data-name="Path 9173" d="M139.331,83.426a1.034,1.034,0,0,1-.507-.335c-.564-.682-1.112-1.386-1.627-2.09a1.036,1.036,0,1,1,1.673-1.224c.49.671,1.014,1.342,1.552,1.994a1.035,1.035,0,0,1-1.091,1.653" transform="translate(-136.997 -79.355)" fill="#ffa412"/>
            </g>
          </g>
        </g>
        <path id="Path_9174" data-name="Path 9174" d="M142.445,93.372a.524.524,0,0,0,.518.32l6.372-.428a27.851,27.851,0,0,0,6.412,6.333l-.346,6.372a.525.525,0,0,0,.326.513l7.1,2.885a.522.522,0,0,0,.592-.141l4.2-4.8a27.809,27.809,0,0,0,9.011-.062l4.265,4.753a.523.523,0,0,0,.594.133l7.058-2.977a.524.524,0,0,0,.32-.518l-.428-6.372a27.852,27.852,0,0,0,6.333-6.412l6.372.346a.525.525,0,0,0,.513-.326l2.885-7.1a.521.521,0,0,0-.141-.592l-4.8-4.2a27.809,27.809,0,0,0-.062-9.011l4.753-4.265a.523.523,0,0,0,.133-.594l-2.977-7.058a.524.524,0,0,0-.518-.32l-6.372.428a27.819,27.819,0,0,0-6.412-6.333l.346-6.372a.529.529,0,0,0-.326-.515l-7.1-2.883a.523.523,0,0,0-.592.139l-4.2,4.806a27.809,27.809,0,0,0-9.011.062l-4.265-4.753a.523.523,0,0,0-.594-.133l-7.058,2.977a.524.524,0,0,0-.32.518l.428,6.371a27.858,27.858,0,0,0-6.333,6.413l-6.372-.346a.525.525,0,0,0-.513.326l-2.885,7.1a.522.522,0,0,0,.141.592l4.8,4.2a27.809,27.809,0,0,0,.062,9.011L139.6,85.72a.523.523,0,0,0-.133.594Z" transform="translate(89.185 28.256)" fill="#ffa412"/>
        <g id="Group_1436" data-name="Group 1436" transform="translate(253.288 97.189)" opacity="0.5">
          <g id="Group_1435" data-name="Group 1435">
            <g id="Group_1434" data-name="Group 1434" clip-path="url(#clip-path-25)">
              <path id="Path_9175" data-name="Path 9175" d="M160.043,74.61a7.854,7.854,0,1,1,1.135.244,7.883,7.883,0,0,1-1.135-.244m3.846-13.049a5.893,5.893,0,0,0-.828-.179,5.767,5.767,0,1,0,.828.179" transform="translate(-154.425 -59.254)" fill="#fff"/>
            </g>
          </g>
        </g>
        <g id="Group_1439" data-name="Group 1439" transform="translate(241.75 85.42)" opacity="0.5">
          <g id="Group_1438" data-name="Group 1438">
            <g id="Group_1437" data-name="Group 1437" clip-path="url(#clip-path-26)">
              <path id="Path_9176" data-name="Path 9176" d="M161.434,90.345a19.412,19.412,0,0,1-1.875-.654,19.668,19.668,0,0,1-3.513-1.862c-.049-.034-.1-.067-.148-.1a1.036,1.036,0,0,1-.412-1.147,1.038,1.038,0,0,1,1.58-.566,17.5,17.5,0,0,0,3.274,1.755l.19.075A17.272,17.272,0,0,0,169,88.937a17.506,17.506,0,0,0,4.543-1.192l.036-.015c.038-.016.074-.03.11-.046a17.443,17.443,0,1,0-24.026-13.417,1.064,1.064,0,0,1-.03.451,1.037,1.037,0,0,1-2.019-.133,19.467,19.467,0,0,1,.559-8.455,19.753,19.753,0,0,1,.653-1.871,19.52,19.52,0,0,1,36.824,12.807,19.845,19.845,0,0,1-.663,1.9,19.546,19.546,0,0,1-23.558,11.383" transform="translate(-147.39 -52.079)" fill="#fff"/>
            </g>
          </g>
        </g>
      </g>
    </g>
  </g>
</svg>
