<svg xmlns="http://www.w3.org/2000/svg" width="115.749" height="28.442" viewBox="0 0 115.749 28.442">
  <g id="Logo" transform="translate(0 0)">
    <path id="Path_10764" data-name="Path 10764" d="M4243.5,998.9h-5.95v18.428h-2.416V998.9h-5.937V996.71h14.3Z" transform="translate(-4229.193 -995.811)" fill="#555"/>
    <path id="Path_10765" data-name="Path 10765" d="M4267.035,1011.13l-6.771,17.075q-1.808,4.569-5.091,4.571a5.3,5.3,0,0,1-1.536-.188v-2.114a4.384,4.384,0,0,0,1.394.258,2.885,2.885,0,0,0,2.674-2.126l1.177-2.788-5.749-14.687h2.618l3.982,11.326c.048.143.147.519.3,1.12h.086q.073-.343.286-1.092l4.183-11.355Z" transform="translate(-4243.345 -1004.335)" fill="#555"/>
    <path id="Path_10766" data-name="Path 10766" d="M4293.069,1023.227h-.058v8.9h-2.359v-21.491h2.359v2.588h.058a5.574,5.574,0,0,1,5.09-2.932,5.39,5.39,0,0,1,4.44,1.975,8.19,8.19,0,0,1,1.595,5.3,9.129,9.129,0,0,1-1.795,5.916,5.983,5.983,0,0,1-4.916,2.22A4.934,4.934,0,0,1,4293.069,1023.227Zm-.058-5.937v2.057a4.388,4.388,0,0,0,1.187,3.1,4.232,4.232,0,0,0,6.369-.368,7.523,7.523,0,0,0,1.215-4.555,5.935,5.935,0,0,0-1.137-3.852,3.76,3.76,0,0,0-3.075-1.394,4.187,4.187,0,0,0-3.309,1.431A5.229,5.229,0,0,0,4293.011,1017.29Z" transform="translate(-4265.524 -1003.838)" fill="#555"/>
    <path id="Path_10767" data-name="Path 10767" d="M4340.192,1018.582H4329.8a5.5,5.5,0,0,0,1.321,3.794,4.56,4.56,0,0,0,3.48,1.337,7.243,7.243,0,0,0,4.571-1.64v2.212a8.533,8.533,0,0,1-5.132,1.411,6.219,6.219,0,0,1-4.9-2,8.2,8.2,0,0,1-1.783-5.642,8.052,8.052,0,0,1,1.946-5.6,6.245,6.245,0,0,1,4.837-2.163,5.528,5.528,0,0,1,4.469,1.869,7.785,7.785,0,0,1,1.583,5.189v1.235Zm-2.417-2a4.8,4.8,0,0,0-.985-3.177,3.36,3.36,0,0,0-2.7-1.137,3.805,3.805,0,0,0-2.833,1.194,5.423,5.423,0,0,0-1.439,3.12Z" transform="translate(-4287.218 -1003.838)" fill="#555"/>
    <path id="Path_10768" data-name="Path 10768" d="M4363.792,1016.007v-2.846a5.046,5.046,0,0,0,1.072.777,8.059,8.059,0,0,0,1.316.581,10.209,10.209,0,0,0,1.386.368,7.154,7.154,0,0,0,1.288.131,4.727,4.727,0,0,0,3.046-.826,2.908,2.908,0,0,0,1.006-2.38,2.976,2.976,0,0,0-.336-1.451,3.974,3.974,0,0,0-.927-1.129,9.287,9.287,0,0,0-1.4-.977q-.81-.466-1.742-.986-.988-.546-1.84-1.108a7.97,7.97,0,0,1-1.484-1.235,5.179,5.179,0,0,1-.993-1.529,5.165,5.165,0,0,1,1.692-6.17,6.474,6.474,0,0,1,2.1-1.006,8.83,8.83,0,0,1,2.4-.331,8.531,8.531,0,0,1,4.063.732v2.715a6.909,6.909,0,0,0-4.289-1.263,6.718,6.718,0,0,0-1.448.164,3.877,3.877,0,0,0-1.288.54,2.977,2.977,0,0,0-.919.965,2.735,2.735,0,0,0-.355,1.439,3.187,3.187,0,0,0,.27,1.366,3.315,3.315,0,0,0,.8,1.051,8.015,8.015,0,0,0,1.284.92c.5.3,1.083.621,1.742.977q1.011.546,1.921,1.149a8.705,8.705,0,0,1,1.591,1.337,6,6,0,0,1,1.083,1.623,4.953,4.953,0,0,1,.4,2.04,5.61,5.61,0,0,1-.543,2.58,4.76,4.76,0,0,1-1.472,1.717,6.079,6.079,0,0,1-2.138.957,10.733,10.733,0,0,1-2.551.294,9.364,9.364,0,0,1-1.1-.078c-.437-.053-.886-.131-1.34-.229a10.649,10.649,0,0,1-1.3-.372A4.41,4.41,0,0,1,4363.792,1016.007Z" transform="translate(-4308.758 -995.326)" fill="#555"/>
    <path id="Path_10769" data-name="Path 10769" d="M4406.483,1024.679a7.683,7.683,0,0,1-4.024,1.022,6.663,6.663,0,0,1-5.081-2.048,7.424,7.424,0,0,1-1.935-5.311,8.161,8.161,0,0,1,2.085-5.843,7.291,7.291,0,0,1,5.565-2.208,7.766,7.766,0,0,1,3.422.72v2.416a5.977,5.977,0,0,0-3.508-1.149,4.734,4.734,0,0,0-3.7,1.619,6.154,6.154,0,0,0-1.442,4.248,5.842,5.842,0,0,0,1.357,4.08,4.692,4.692,0,0,0,3.643,1.5,5.9,5.9,0,0,0,3.622-1.28v2.237Z" transform="translate(-4327.468 -1003.838)" fill="#555"/>
    <path id="Path_10770" data-name="Path 10770" d="M4433.651,1013.135a2.891,2.891,0,0,0-1.782-.474,3.007,3.007,0,0,0-2.522,1.423,6.58,6.58,0,0,0-1.015,3.88v7.5h-2.359v-14.72h2.359v3.034h.058a5.1,5.1,0,0,1,1.537-2.421,3.5,3.5,0,0,1,2.314-.871,3.846,3.846,0,0,1,1.41.2Z" transform="translate(-4345.515 -1003.956)" fill="#555"/>
    <path id="Path_10771" data-name="Path 10771" d="M4449.169,997.569a1.5,1.5,0,0,1-1.08-.429,1.446,1.446,0,0,1-.445-1.092,1.477,1.477,0,0,1,.445-1.1,1.494,1.494,0,0,1,1.08-.437,1.531,1.531,0,0,1,1.1.437,1.534,1.534,0,0,1,0,2.179A1.536,1.536,0,0,1,4449.169,997.569Zm1.148,18.457h-2.359v-14.72h2.359Z" transform="translate(-4358.324 -994.51)" fill="#555"/>
    <path id="Path_10772" data-name="Path 10772" d="M4459.989,1023.227h-.057v8.9h-2.359v-21.491h2.359v2.588h.057a5.575,5.575,0,0,1,5.091-2.932,5.387,5.387,0,0,1,4.439,1.975,8.184,8.184,0,0,1,1.6,5.3,9.129,9.129,0,0,1-1.795,5.916,5.984,5.984,0,0,1-4.915,2.22A4.936,4.936,0,0,1,4459.989,1023.227Zm-.057-5.937v2.057a4.387,4.387,0,0,0,1.187,3.1,4.232,4.232,0,0,0,6.37-.368,7.519,7.519,0,0,0,1.215-4.555,5.935,5.935,0,0,0-1.137-3.852,3.759,3.759,0,0,0-3.074-1.394,4.189,4.189,0,0,0-3.309,1.431A5.226,5.226,0,0,0,4459.932,1017.29Z" transform="translate(-4364.193 -1003.838)" fill="#555"/>
    <path id="Path_10773" data-name="Path 10773" d="M4499.852,1019.411a4.544,4.544,0,0,1-2.2.458q-3.863,0-3.867-4.314v-8.709h-2.531v-2.012h2.531v-3.594l2.36-.76v4.354h3.708v2.012h-3.708v8.292a3.448,3.448,0,0,0,.5,2.114,2.012,2.012,0,0,0,1.669.634,2.467,2.467,0,0,0,1.537-.491Z" transform="translate(-4384.103 -998.039)" fill="#555"/>
  </g>
</svg>
