<svg xmlns="http://www.w3.org/2000/svg" width="135.399" height="29.163" viewBox="0 0 135.399 29.163">
  <g id="Finhub" transform="translate(-27.883 -546.982)">
    <path id="F" d="M36.729,547.079c-.111,0-.219-.022-.33-.022-4.35-.02-8.218,2.9-8.516,7.316v.187h0v2.6h0v18.779h4.855V555.468c.131-1.928,1.955-3.512,4.458-3.512h7.1v-4.89H36.729Z" fill="#1f1f1f"/>
    <rect id="f-2" data-name="f" width="6.45" height="4.069" transform="translate(37.616 559.416)" fill="#1f1f1f"/>
    <rect id="i" width="4.795" height="19.702" transform="translate(50.599 556.235)" fill="#1f1f1f"/>
    <rect id="i-2" data-name="i" width="4.818" height="4.897" transform="translate(50.501 547.037)" fill="#1f1f1f"/>
    <path id="n" d="M64.058,558.694a10.268,10.268,0,0,0-2.145,6.148v11.091l4.6-.014.074-11.077a5.46,5.46,0,0,1,.789-2.756,5.358,5.358,0,0,1,2.067-1.956v-4.991A9.982,9.982,0,0,0,64.058,558.694Z" fill="#1f1f1f"/>
    <path id="n-2" data-name="n" d="M79.648,558.735a10,10,0,0,0-5.315-3.571v4.987a5.334,5.334,0,0,1,2.043,1.952,5.451,5.451,0,0,1,.777,2.739c0,11.077.036,11.077.036,11.077h4.67l-.093-11.077A10.282,10.282,0,0,0,79.648,558.735Z" fill="#1f1f1f"/>
    <path id="h" d="M108.122,566.906v-1.639h-.014a10.4,10.4,0,0,0-10.217-9.916A8.2,8.2,0,0,0,93,556.863v-9.881H88.327v28.937H93v-10.4c-.153-3.332,1.888-5.3,4.9-5.143a6.375,6.375,0,0,1,3.643,1.478,5.562,5.562,0,0,1,1.662,3.529v1.522Z" fill="#1f1f1f"/>
    <rect id="h-2" data-name="h" width="4.798" height="4.16" transform="translate(103.334 571.624)" fill="#1f1f1f"/>
    <path id="u" d="M119.453,568.762a5.459,5.459,0,0,1-.788-2.736c-.042-11.077-.078-11.077-.078-11.077l-4.671.018.143,11.075a10.268,10.268,0,0,0,2.135,6.1,9.983,9.983,0,0,0,5.327,3.55l-.018-4.987A5.331,5.331,0,0,1,119.453,568.762Z" fill="#1f1f1f"/>
    <path id="u-2" data-name="u" d="M129.268,554.9l-.029,11.077a5.468,5.468,0,0,1-.778,2.76,5.357,5.357,0,0,1-2.06,1.963l.013,5a9.99,9.99,0,0,0,5.367-3.57,10.269,10.269,0,0,0,2.126-6.151l-.042-11.1Z" fill="#1f1f1f"/>
    <path id="n-3" data-name="n" d="M152.063,555.227a13.338,13.338,0,0,0-2.569.226v4.069a9.181,9.181,0,0,1,2.131-.284,6.941,6.941,0,0,1,5.187,1.917,6.264,6.264,0,0,1,1.675,4.539,6.031,6.031,0,0,1-.466,2.457A5.929,5.929,0,0,1,156.6,570.2a7.122,7.122,0,0,1-5.187,1.917,6.766,6.766,0,0,1-5.02-2.034,5.866,5.866,0,0,1-1.882-4.244v-18.8h-4.8v19.109a9.014,9.014,0,0,0,3.421,7.047,12.22,12.22,0,0,0,8.258,2.952,12.077,12.077,0,0,0,8.487-3.117,10.071,10.071,0,0,0,3.4-7.734,9.269,9.269,0,0,0-3.045-6.931A11.218,11.218,0,0,0,152.063,555.227Z" fill="#1f1f1f"/>
  </g>
</svg>
