<svg xmlns="http://www.w3.org/2000/svg" width="122.914" height="106.239" viewBox="0 0 122.914 106.239">
  <g id="Andy_s" data-name="Andy&apos;s" transform="translate(-620.511 -19.694)">
    <path id="Din_Suflet" data-name="Din Suflet" d="M694.4,262.911l1.573-7.764a5.213,5.213,0,0,1,.376-1.265.91.91,0,0,1,.342-.376v-.034l-.1.034a2.976,2.976,0,0,0-.992.445,4.831,4.831,0,0,1-1.163.479.259.259,0,0,1-.239-.034.289.289,0,0,1-.068-.205,2.108,2.108,0,0,1,.171-.855,4.065,4.065,0,0,1,.445-.855,2.45,2.45,0,0,1,.616-.582,7.838,7.838,0,0,1,1.949-.718,19.5,19.5,0,0,1,2.736-.513,5.868,5.868,0,0,1,2.736.239,3.361,3.361,0,0,1,1.778,1.436,5.668,5.668,0,0,1,.753,2.565,8.675,8.675,0,0,1-.41,3.181,9.066,9.066,0,0,1-1.334,2.838,7.754,7.754,0,0,1-5.541,3.215,10.892,10.892,0,0,1-2.086.068,2.1,2.1,0,0,1-1.265-.376.647.647,0,0,1-.239-.479A2.45,2.45,0,0,1,694.4,262.911Zm5.609,8.174c.171.034-.376.239-.034.171l.308-.205c-.034.068.171.068.239.137.1-.171-.479-.068-.137-.308.068-.1.376-.171.513-.205-.342.068-.034-.1.137-.205a5.271,5.271,0,0,1,.65-.068,1.159,1.159,0,0,1,.274-.1l.034.034c.239-.068-.1,0-.034-.068.171-.034.444-.068.752-.137-.274.068-.513.205-.718.274.513-.068-.068.205-.137.342a6.741,6.741,0,0,0,.855-.41c.445-.034.034.274-.068.342.342-.137.718-.376.924-.445a4.853,4.853,0,0,0-.411.445c.342,0,.342-.1.513-.205-.068.034-.205.068-.239.034.342-.068.239-.274.41-.445.274,0,.786-.1.786.034l-.068-.137c.308-.1.171.034.239.068.068-.137-.068-.239.411-.41-.034.239.479-.1.513.137.24-.068.342-.239.582-.239.308.068-.308.376-.479.41-.342.1,0-.1-.137-.068l-.308.137c.205,0,.581-.034.581.068.308-.137-.308-.034.068-.171h.239c.342-.136-.137-.136.376-.307-.307.171.547-.137.547.034,0-.205.889-.239.924-.41h-.274l.1.068a5.758,5.758,0,0,1-.821.239c.205-.1-.137-.137.137-.274.479-.239.171.068.239.068l.376-.205-.308-.034c.308-.1.753-.239,1.163-.342.65-.034-.034.137.444.1.171-.068.1-.137.445-.205-.171-.034-.274.1-.376.1-.171-.068.513-.205.445-.308.137,0,.137.068.034.137a2.372,2.372,0,0,1,1.2-.171l.2-.171c.855-.171-.547.274.171.205a1.942,1.942,0,0,0,.684-.239l-.239.034c.171-.1.171-.205.445-.308.205-.034.137.068.376-.068.684-.068.239.205.171.342.513-.034-.171.376.137.171h-.1l.445-.342c-.513-.068-.171.205-.376.068l-.274.034c.068-.1.752-.205.786-.308.034.034-.034.171-.307.239l.239.171c.171,0,.273-.171.342-.1.274.068-.342.274.342.171s.581-.308,1.026-.41a.345.345,0,0,0-.308.034c.137-.1-.137-.068.1-.205a2.771,2.771,0,0,0,.992-.1c-.068.1.171.068.034.171a.922.922,0,0,0,.41-.2c-.752.1.684-.274.1-.274a6.873,6.873,0,0,1,1.095-.068c0,.034-.65.239-.1.171.547-.239-.171-.137.274-.41l-.376.034c-.1-.137.65-.171.718-.239.239,0-.307.1-.068.171.342-.034.513-.205.753-.171-.171.137-.068.1-.308.239.821-.205,0,.137.616.068.171-.034.034-.137.376-.171-.205-.1-.205-.137-.684,0,.137-.205.65-.1.992-.274-.274.034-.1,0-.376.1-.1-.137-.205-.137.068-.342-.308.1-.445.308-.889.342-.171-.1.547-.239.513-.445a2.835,2.835,0,0,1,1.095-.205,12.077,12.077,0,0,0,1.3-.581c.342-.034,1.128-.376,1.778-.444.1.034.753-.137.41.068.034-.034.582-.137.411-.205-.034.034-.1.034-.205.034l.068-.137a8.959,8.959,0,0,1,.923-.205c.1.034-.547.137-.342.239a5.776,5.776,0,0,1,1.744-.547c.239-.034.308.1.411.068l.41-.1c.068.034.068.068.171.1a.856.856,0,0,0,.445-.137c.547,0,.308.137.034.274l-.308.034c-.205.1-.547.137-.342.205.137-.068.137-.1.171-.1l.205.034c.171-.068.65-.205.582-.274.376,0,.787-.171,1.128-.171-.239-.034.034-.1-.034-.171l-.376.068a5.911,5.911,0,0,1,1.06-.239c-.034.068-.034.1.137.1-.239-.034.547-.205.068-.239a1.809,1.809,0,0,1-.547.137c-.171-.068.171-.205.342-.274.24-.068.718-.205.992-.308.205,0,.308.137.615-.034-.479-.034.376-.273.445-.444.342,0,.547-.205.821-.171a4.883,4.883,0,0,0-.753.274c0,.1.137.205-.342.342.616-.068.342-.136.616-.2l-.205.034c.068-.068-.1-.068.068-.137a6.023,6.023,0,0,1,1.368,0c-.137-.034.068-.171.2-.171.479,0,0,.205.342.274.137-.137.479-.171.376-.205.171-.034.1,0,.239.034.1-.1.205-.137.513-.205,0,.034-.034.1-.274.137.274,0,.41.1.274.205l-.445.034c-.171.1.41-.034.41.034-.171.034-.342.034-.479.068.137.068.513-.068.753-.137.342-.034.239.068.274.137.581-.239-.718-.034-.171-.308a3.772,3.772,0,0,1,1.128-.308c-.342-.068.034-.171.41-.308-.513.068-.171-.1-.718.068l-.034-.1a7.691,7.691,0,0,0,.821-.1c-.034.034.034.034-.068.1l.787-.171-.068.1c.479-.068,1.06-.1,1.368-.171-.205.034-.445,0-.205-.1a1.463,1.463,0,0,1,.616-.171c.137.068.923-.034.479.137.684-.171.376-.137,1.026-.308l-.41.1c-.068-.068.274-.274-.137-.274.445-.137.137-.273.787-.376.274.034-.068.2-.41.273a1.329,1.329,0,0,0,.513-.068c.137.034-.342.171-.308.205.342-.034-.034-.034.274-.1.547-.171.376.1.889-.034-.1.034-.308,0-.205-.068.684-.1.376-.136.889-.239.308.1.205.273.65.239l-.513.137a1.713,1.713,0,0,0,.581.034c.958-.239,1.71-.547,2.7-.786l-.342.068c-.137-.034.274-.1.274-.137l.239.034c.034-.1-.513-.034-.41-.137a.206.206,0,0,0,.137-.034l-.205-.034c.479-.034.821-.239,1.2-.137-.889.1-.1.308-.957.445.445-.1.1.068.171.1.24,0,.1-.1.376-.1,0,.068-.581.205-.342.205,0-.1.239-.1.376-.205.2.034,0,.068.1.1a.8.8,0,0,1,.273-.068l-.068.068c.581.034.137-.137.821-.171,0-.1-.205-.068-.445,0-.137-.171.821-.308.753-.513.616-.1-.137.1.376.1.308.1-.376.205-.479.308l.547.034c-.171.205-.513.205-.582.342a2.065,2.065,0,0,0,.753-.205c-.684-.068.274-.137-.1-.239a2.04,2.04,0,0,0,.649,0c-.273.068,0,.137-.376.205.581-.068.41-.1,1.06-.171.171-.137-.616-.1.1-.274.171,0,.137.034.034.034.513,0-.137-.137.205-.205.205-.034.308,0,.239.068.308-.1.1-.171.376-.205h-.1c.1-.068-.171-.205.308-.239.342-.034.273.068.273.1a1.587,1.587,0,0,1,.684-.034c-.034-.034,0-.034.068-.068.445-.1.274.068.479.068.684,0-.1-.205.65-.274l-.855.034c.034-.068.068-.171-.171-.137,0,.1-.342.205-.616.205-.1-.1.787-.205.274-.239a4.234,4.234,0,0,0,.616-.068c-.205.1.684-.034.342.1.923-.1,1.094-.068,1.984-.171a2.428,2.428,0,0,1-1.095.274l-.034-.068c-.547.1.445.034.376.137a16.883,16.883,0,0,1,2.428-.171c-.171-.068,0-.1.068-.171a1.461,1.461,0,0,1-.547,0c.034-.068.239-.068.342-.137.068-.1-.274,0-.376,0a1.8,1.8,0,0,0,.513-.171,1.068,1.068,0,0,1,.342.171c.821-.034.718-.171,1.368-.205-.376,0,.171.068-.205.068h.205c-.581.137-1.539.205-1.4.41a7.237,7.237,0,0,1,1.368-.205l-.034.034c.41-.034,0-.068.068-.1.445-.1.616.171.889,0h-.479c.342-.1-.1,0-.034-.137.65-.137,1.71-.137,2.6-.239a2.109,2.109,0,0,0-.684-.068c.171-.2.308-.171.1-.342h-.41v-.171a.923.923,0,0,1,.308,0c.034-.1.616,0,.616-.1l-.342.034c-.171-.068.239-.068.479-.137a4.038,4.038,0,0,0-1.231.068c.034.068-.445.205.034.205,0,.068-.274.1-.479.137.1-.068-.41-.171.068-.239-.411.1-.171,0-.65.068.068-.068-.821.068-.787-.1-.137.1,0,.205-.547.239.137.068.752.068.342.205l.239-.068c.376.034-.1.137.411.137-.137,0-.445.068-.513,0,.137.2-.752.137-.752.307a1.22,1.22,0,0,0-.547-.034c.034-.068-.137-.1.068-.171.171.034.308-.034.513.034-.1-.205-.718-.034-1.163-.034.068,0,.1.034-.034.068-.274-.034-.889-.034-.752-.1l-1.4.136c0-.034.205-.034.274-.068l-.787.068c-.2-.068.239-.068.342-.171l-.547.034.068-.068a1.794,1.794,0,0,1-.958.034c-.616.068-.582.307-1.436.307,0-.1.444-.1.684-.171-.171-.034-.65.1-.752,0-.581.1-.513.342-.787.445-.479.068-.068-.068-.1-.1-.137.034-.376.239-.513.068-.205.1-.376.205,0,.205a1.93,1.93,0,0,0-.684.171c.2-.171-.308-.034-.376-.171a5.115,5.115,0,0,0-1.608.274l.1-.205-.444.1c-.376-.068.41-.171.615-.205-.615.034-1.026.1-1.607.171.171.034.068.068.171.1a1.992,1.992,0,0,1-.65.1c-.068-.034-.034-.068.1-.137l-.376.068c0-.1-.171-.068.205-.205l-.342.068c-.41.034,0-.1.068-.137l-.615.068c-.205.068.137.068-.308.171a13.713,13.713,0,0,0-1.984.171l.479.034c-.376.034-.308.171-.41.274-.376.034-.821.137-1.2.137.308-.137.171-.239-.171-.274-.718.1-.547.239-.923.376.308-.274-.513,0-.479-.1-.034,0-.1.034-.137.034h0q.1-1.026.1-2.668l-.034-.445c.034,0,.068-.034.1-.034a.267.267,0,0,1,.171,0,2.085,2.085,0,0,0,.821-.274,1.1,1.1,0,0,0,.479-.41,1.96,1.96,0,0,0,.342-.65,1.833,1.833,0,0,0,.137-.65c-.034-.342-.342-.479-.889-.41a3.039,3.039,0,0,0-.479.1c-.1.034-.171,0-.205.034-.034,0-.1.034-.171,0l-.1.034a.435.435,0,0,1,.034-.205c0-.068.034-.171.034-.205.1-1.2.137-2.052.205-2.6s.1-1.129.171-1.813c.034-.171.034-.307.068-.444.068.034.1.137.137.239a4.3,4.3,0,0,1,.068.889v.1l.034.137c.034.445.1.65.2.684.137-.034.239-.171.376-.513a8.963,8.963,0,0,0,.239-1.3,7.155,7.155,0,0,0,.034-1.471,1.02,1.02,0,0,0-.205-.684.645.645,0,0,0-.513-.205c-.479.068-.957.479-1.4,1.265a14.123,14.123,0,0,0-1.2,3.147,30.423,30.423,0,0,0-.753,4.309,32.025,32.025,0,0,0-.137,4.412c-.1.034-.239.034-.342.068.034.034.308.034.137.068a.754.754,0,0,1-.581,0,2.512,2.512,0,0,0-.855.308c.205-.034.205,0,.205.068-.445.1-.342-.068-.753.1-.137-.068.479-.171.41-.239a4.5,4.5,0,0,0-.924.239c-.1-.068.274-.068.034-.1-.615.171-1.334.376-1.812.513l-.137-.068c-.274.068-.479.137-.65.171-.171-.034-.034-.034.1-.1a9.218,9.218,0,0,0-1.094.308c0-.068.205-.034.274-.1a7.139,7.139,0,0,1-1.437.342c.034-.034.068-.034.137-.068-.752.137-1.368.342-2.189.513-.752.034-.205.171-.923.308-.034-.239-.992.171-1.3.205h.1a2.281,2.281,0,0,1-1.128.171,10.277,10.277,0,0,0-1.881.513l.1-.1c-.445.171-.753.137-1.163.308,0-.034.171-.068,0-.068-2.189.41-4.309,1.06-6.464,1.539-4.1.889-9.2,2.12-13.133,3.351C701.238,269.17,699.6,270.743,700.006,271.085Zm63.612-14.877c-.342.034-.547-.068-.547-.342,0-.068.034-.205.034-.376a3.548,3.548,0,0,1,.1-.41,2.765,2.765,0,0,1,.274-.616,1.933,1.933,0,0,1,.479-.376,1.388,1.388,0,0,1,.581-.171c.239,0,.376.1.376.41a3.719,3.719,0,0,1-.171,1.095.648.648,0,0,1-.136.308.345.345,0,0,1-.274.171A1.823,1.823,0,0,1,763.618,256.208Zm-2.326.273c-.342.034-.547-.068-.547-.342,0-.068.034-.205.034-.376a3.562,3.562,0,0,1,.1-.41,2.771,2.771,0,0,1,.274-.616,1.943,1.943,0,0,1,.479-.376,1.388,1.388,0,0,1,.581-.171c.239-.034.376.1.376.41a3.731,3.731,0,0,1-.171,1.095.645.645,0,0,1-.137.308.345.345,0,0,1-.274.171A2.052,2.052,0,0,1,761.293,256.481Zm-2.36.274c-.342.034-.547-.068-.547-.342,0-.068.034-.205.034-.376a3.547,3.547,0,0,1,.1-.41,2.772,2.772,0,0,1,.274-.616,1.944,1.944,0,0,1,.479-.376,1.388,1.388,0,0,1,.581-.171c.239-.034.376.1.376.41a3.729,3.729,0,0,1-.171,1.095.645.645,0,0,1-.137.308.344.344,0,0,1-.274.171A1.432,1.432,0,0,1,758.933,256.755ZM755,249.949v-.1a12.735,12.735,0,0,1,.65-2.018,2.84,2.84,0,0,1,.41-.547,1.942,1.942,0,0,1,.958-.479.74.74,0,0,1,.41.068c.1.068.137.171.171.376a1.731,1.731,0,0,1-.171.752,8.817,8.817,0,0,0-.41,1.71.668.668,0,0,1,.239.034,1.535,1.535,0,0,1,.547.1c.1.034.137.137.137.274a1.841,1.841,0,0,1-.137.753,1.176,1.176,0,0,1-.445.547,2.175,2.175,0,0,1-.718.239c-.068.205-.068.479-.137.821-.034.308-.034.718-.068,1.266-.034.205,0,.376-.034.547.068.786.411,1.128,1.095,1.026h.068c.068-.034.137,0,.137.034a.877.877,0,0,1-.205.41c-.171.205-.308.376-.479.581a2.143,2.143,0,0,1-.616.41,1.6,1.6,0,0,1-.649.205,1.309,1.309,0,0,1-1.163-.41,2.073,2.073,0,0,1-.513-1.368c0-.239.034-.581.068-.992a14.737,14.737,0,0,1,.274-1.642,8.154,8.154,0,0,0,.1-.615.741.741,0,0,1-.41-.068c-.1-.068-.1-.171-.137-.376A1.645,1.645,0,0,1,755,249.949Zm-4.617,5.643a.483.483,0,0,0,.581.41,2.955,2.955,0,0,0,1.334-.821c.308-.308.513-.479.616-.445a.589.589,0,0,1,.41.068c.137.068.205.171.171.239a.948.948,0,0,1-.171.41,9.721,9.721,0,0,1-.821.889c-.308.307-.616.547-.855.786a3.775,3.775,0,0,1-.889.479,2.565,2.565,0,0,1-.787.239,1.724,1.724,0,0,1-1.4-.376,1.863,1.863,0,0,1-.616-1.4,4.806,4.806,0,0,1,.205-1.608,8.455,8.455,0,0,1,.65-1.71,5.531,5.531,0,0,1,1.265-1.641,3.852,3.852,0,0,1,1.847-.958,1.025,1.025,0,0,1,1.026.342,1.734,1.734,0,0,1,.41,1.2,3.844,3.844,0,0,1-.205,1.334,5.216,5.216,0,0,1-.787,1.4,4.6,4.6,0,0,1-.889.924,2.386,2.386,0,0,1-.752.41A3.167,3.167,0,0,0,750.383,255.592Zm-.034-.239a3.432,3.432,0,0,0,.479-.547,5.113,5.113,0,0,0,.513-1.231,4.238,4.238,0,0,0,.205-.992c.034-.342.034-.684.034-.992q0-.41-.205-.41c-.136.034-.342.41-.615,1.163-.137.479-.274.889-.376,1.368a7.616,7.616,0,0,0-.1,1.128A2.643,2.643,0,0,0,750.349,255.353Zm-5.027-2.907a15.8,15.8,0,0,0,.376-1.915,9.32,9.32,0,0,0,.1-1.5c0-.1-.034-.137-.1-.137a1.383,1.383,0,0,0-.376.616,8.233,8.233,0,0,0-.41,1.2c-.239.889-.41,1.607-.513,2.223a9.922,9.922,0,0,0-.205,1.47c-.034.376-.034.787-.034,1.2a2.972,2.972,0,0,0,.137.753c.1.136.171.239.342.2a1.455,1.455,0,0,0,.855-.513,3.159,3.159,0,0,0,.787-1.129c.171-.342.342-.513.479-.547s.239.1.239.376a3.185,3.185,0,0,1-.376,1.71,4.438,4.438,0,0,1-1.163,1.471,2.851,2.851,0,0,1-1.5.684,1.943,1.943,0,0,1-1.608-.479,2.289,2.289,0,0,1-.684-1.676,8.311,8.311,0,0,1,.205-2.12,14.993,14.993,0,0,1,.786-2.5,18.35,18.35,0,0,1,1.129-2.326,6.833,6.833,0,0,1,1.265-1.642,1.829,1.829,0,0,1,.889-.444.947.947,0,0,1,.718.171,1.309,1.309,0,0,1,.513.684,3.018,3.018,0,0,1,.239,1.026,7.883,7.883,0,0,1-.274,2.5,7,7,0,0,1-1.128,2.189,4.82,4.82,0,0,1-.65.718c-.239.171-.41.308-.581.308s-.239-.034-.239-.205a4.045,4.045,0,0,1,.137-.479,13.5,13.5,0,0,0,.513-1.4.487.487,0,0,1,.068-.205C745.287,252.651,745.287,252.548,745.321,252.446ZM733.078,257.2l-.1.137a3.377,3.377,0,0,0-.445.479c-.581.581-1.026,1.06-1.4,1.4a7.552,7.552,0,0,1-.958.787,1.453,1.453,0,0,1-.616.274.6.6,0,0,1-.65-.308,1.559,1.559,0,0,1-.273-.924,11.953,11.953,0,0,1,.137-2.36,18.036,18.036,0,0,1,.581-2.7,3.163,3.163,0,0,1,1.129-1.915,1.094,1.094,0,0,1,.616-.171.819.819,0,0,1,.752.239,1.133,1.133,0,0,1,.342.821,6.672,6.672,0,0,1-.068.787,7.951,7.951,0,0,1-.308.992l-.068.274a9.194,9.194,0,0,0-.547,1.915c.034.137.034.171.1.171a.92.92,0,0,0,.308-.205c.1-.137.274-.342.513-.718.137-.239.376-.513.616-.855l.274-.342.239-.308a11.512,11.512,0,0,1,1.163-1.368,2.014,2.014,0,0,1,.787-.479c.376-.068.615.308.684,1.095a3.974,3.974,0,0,1-.034.855c0,.787,0,1.471.034,2.018.034.1,0,.205.034.308a1.284,1.284,0,0,0,.034.342c.068.376.1.65.137.821l.1.444c0,.171-.1.342-.376.479a3.244,3.244,0,0,1-.923.308,1.423,1.423,0,0,1-.855-.137,1.14,1.14,0,0,1-.547-.581,2.646,2.646,0,0,1-.239-.992v-.274C733.078,257.576,733.112,257.4,733.078,257.2Zm-10.158-1.641a5.043,5.043,0,0,1-1.026-1.2,2.308,2.308,0,0,1-.308-1.2,3.513,3.513,0,0,1,.445-1.915,4.241,4.241,0,0,1,1.368-1.539,3.983,3.983,0,0,1,1.915-.718,2.425,2.425,0,0,1,1.847.342,1.813,1.813,0,0,1,.718,1.47,2.928,2.928,0,0,1-.171,1.026,3.441,3.441,0,0,1-.582,1.026,2.679,2.679,0,0,1-.513.547.917.917,0,0,1-.41.205c-.137.034-.205-.1-.205-.342a2.034,2.034,0,0,1,.034-.274,2.516,2.516,0,0,0,0-.718,2.729,2.729,0,0,0-.171-.889,2.815,2.815,0,0,0-.342-.718c-.137-.171-.24-.274-.376-.239-.068,0-.1.068-.171.137a3.447,3.447,0,0,0-.308.616,2.442,2.442,0,0,0-.068.684,2.664,2.664,0,0,0,.137.718,1.666,1.666,0,0,0,.376.616c.171.171.411.41.684.65.445.376.821.752,1.06.992a2.865,2.865,0,0,1,.547.924,2.5,2.5,0,0,1,.205,1.026,4.311,4.311,0,0,1-.376,1.949,4.768,4.768,0,0,1-1.163,1.642,2.714,2.714,0,0,1-1.573.752,3.642,3.642,0,0,1-1.573-.205,5.113,5.113,0,0,1-1.47-.889,1.637,1.637,0,0,1-.718-1.231,1.2,1.2,0,0,1,.239-.718,3.446,3.446,0,0,1,.718-.684,1.99,1.99,0,0,1,.752-.342c.1-.034.205.034.308.068s.171.137.239.308a1.833,1.833,0,0,1,.205.616,3.952,3.952,0,0,0,.342.821,1.64,1.64,0,0,0,.376.513.754.754,0,0,0,.513.205c.2,0,.342-.137.479-.342a1.3,1.3,0,0,0,.137-.753,2.785,2.785,0,0,0-.547-1.436,1.971,1.971,0,0,0-.342-.41c-.137-.1-.376-.342-.752-.65A3.372,3.372,0,0,0,722.92,255.558Zm-10.362,2.086.445-.684a14.837,14.837,0,0,1,1.094-1.47,4.681,4.681,0,0,1,.718-.718,1.321,1.321,0,0,1,.684-.274.878.878,0,0,1,.786.205,2.665,2.665,0,0,1,.308,1.129v1.026c-.034.581,0,1.163,0,1.676a11.185,11.185,0,0,0,.171,1.4c.034.205.137.41.205.65.034.205.1.342.1.41a.311.311,0,0,1-.1.239,1.613,1.613,0,0,1-.65.479,1.5,1.5,0,0,1-.684.239,1.05,1.05,0,0,1-.821-.274,1.966,1.966,0,0,1-.616-.889,3.443,3.443,0,0,1-.274-1.334,7.281,7.281,0,0,1,.034-1.2l-.034-.034c-.205.308-.376.547-.513.752s-.239.342-.376.513c-.513.821-1.026,1.539-1.4,2.189a6.027,6.027,0,0,1-.41.684,1.155,1.155,0,0,1-.615.41.846.846,0,0,1-.821-.342,1.952,1.952,0,0,1-.376-1.026c0-.274,0-.615.034-1.026s.1-.855.171-1.3c.068-.479.171-.957.274-1.436.137-.513.239-.958.342-1.4a5.362,5.362,0,0,1,.787-1.779,1.253,1.253,0,0,1,.855-.513c.547-.034.821.308.889,1.094a16.749,16.749,0,0,1-.205,2.6Zm-5.13-3.488c-.479.068-.753-.239-.787-.924a5.289,5.289,0,0,1,.137-1.163,2.23,2.23,0,0,1,.445-.992c.068-.137.205-.205.274-.274a1,1,0,0,1,.342-.1.645.645,0,0,1,.616.171,1.066,1.066,0,0,1,.239.684,2.814,2.814,0,0,1-.137,1.2,2.521,2.521,0,0,1-.479.958.915.915,0,0,1-.65.445Zm-.445,8.892a.808.808,0,0,1-.65-.274,1.686,1.686,0,0,1-.445-.684,3.789,3.789,0,0,1-.171-1.06,13.286,13.286,0,0,1,.308-3.317,9.91,9.91,0,0,1,.923-2.77.813.813,0,0,1,.65-.41.794.794,0,0,1,.753.376,2.744,2.744,0,0,1,.376,1.163,14.876,14.876,0,0,1-.137,2.633,24.35,24.35,0,0,1-.65,3.215,1.926,1.926,0,0,1-.445.958,1.3,1.3,0,0,1-.513.171ZM699.6,252.89l-1.3,7.319a2.643,2.643,0,0,0-.034.342,4.583,4.583,0,0,1-.308,1.163,7.753,7.753,0,0,1-.376.753c.171,0,.342-.034.547-.034a7.853,7.853,0,0,0,1.231-.239,3.208,3.208,0,0,0,.889-.479,4.144,4.144,0,0,0,.753-.787,5.761,5.761,0,0,0,.958-1.949,6.5,6.5,0,0,0,.239-2.326,6.046,6.046,0,0,0-.41-2.018,3.086,3.086,0,0,0-.924-1.334A2.006,2.006,0,0,0,699.6,252.89Z" transform="translate(-47.108 -145.337)" fill="#a8a8a8" fill-rule="evenodd"/>
    <g id="Andy_s-2" data-name="Andy&apos;s" transform="translate(620.511 68.053)">
      <path id="A" d="M639.868,158.277h-6.327c-5.745,7.25-9.644,16.177-13.03,24.624h6.259c.581-1.607,1.231-3.215,1.915-4.856h7.387a46.037,46.037,0,0,1-.137,4.856h6.224a62.446,62.446,0,0,0-2.291-24.624Zm-8.96,14.911a53.709,53.709,0,0,1,4.1-7.045,32.278,32.278,0,0,1,1.129,7.045Z" transform="translate(-620.511 -156.738)" fill="#a8a8a8"/>
      <path id="N" d="M707.566,158.216l-1.573,6.737a22.833,22.833,0,0,0-6.806-6.737h-7.011L686.43,182.84h7.148l3.864-17.1a16.929,16.929,0,0,1,5.814,10.636v.1l-1.471,6.327h7.148l5.575-24.624-6.943.034Z" transform="translate(-662.695 -156.677)" fill="#a8a8a8"/>
      <path id="D" d="M767.614,158.277h-6.5L755.2,182.9h6.6c14.227,0,17-4.549,18.3-12.62,1.2-7.592-2.223-12-12.483-12Zm5.574,11.149c-.376,2.462-.547,7.968-9.713,7.319l3.078-12.517c4.685.137,7.353.445,6.635,5.2Z" transform="translate(-706.704 -156.738)" fill="#a8a8a8"/>
      <path id="Y" d="M845.811,158.182h-6.259v.034h-.205A27.787,27.787,0,0,1,836,169.468c-.274.41-.547.787-.821,1.163a15.171,15.171,0,0,1-2.531-12.244.372.372,0,0,0,.034-.171l-6.84-.034h0c0,.068-.034.137-.034.205a20.428,20.428,0,0,0,3.728,17c-.274.137-.445.205-.445.205a15.983,15.983,0,0,1-6.293,1.026l-1.676,6.156a3.715,3.715,0,0,0,.615-.034h.205a29.348,29.348,0,0,0,9.131-1.334,23,23,0,0,0,3.967-1.779,16.108,16.108,0,0,0,2.12-1.436,7.175,7.175,0,0,1,.581-.479c4.412-3.8,7.422-9.952,8.037-19.425v-.034h0a.106.106,0,0,0,.034-.068Z" transform="translate(-748.889 -156.677)" fill="#a8a8a8"/>
      <path id="_" data-name="&apos;" d="M902.023,157.047a2.987,2.987,0,0,0-2.8-3.044,3.049,3.049,0,0,0,0,6.087,2.865,2.865,0,0,1-.992,1.641c1.5.137,3.933-2.5,3.8-4.685Z" transform="translate(-797.03 -154.003)" fill="#a8a8a8"/>
      <path id="S" d="M906.773,169.341c.787,1.368,2.975,3.147,4.036,4.378,1.915,1.813,1.334,3.557-.205,3.591H902.43l-1.334,5.745h9.234c5.027,0,10.568-3.9,8.584-9.644-.581-1.71-3.283-4.241-4.446-5.54-1.915-1.813-1.2-3.557.342-3.557h6.942l1.231-5.848h-8c-5.506-.068-11.97,4.138-8.208,10.876Z" transform="translate(-800.069 -156.858)" fill="#a8a8a8"/>
    </g>
    <g id="Lines" transform="translate(649.673 19.694)">
      <path id="_01" data-name="01" d="M787.026,89.808c8.926-4.754,13-14.364,11.491-19.392-2.462,4.412-7.7,8.687-12.654,11.389-18.3,9.884-49.9,1.915-61.115,9.029-2.462,1.539-3.967,4.07-4.788,7.319,1.47-2.12,4.685-3.83,11.491-4.446,7.045-.65,43.776,3.488,55.575-3.9Z" transform="translate(-713.315 -52.153)" fill="#555" fill-rule="evenodd"/>
      <path id="_02" data-name="02" d="M773.1,42.505c13-11.081,5.951-21.306,0-22.811,5.574,11.252-8.482,18.6-19.494,20.554-12.175,2.155-31.977,2.565-40.253,5.506-11.833,4.207-13.475,12.791-10.636,18.844,3.112-21.785,54.1-8.174,70.384-22.093Z" transform="translate(-701.505 -19.694)" fill="#555" fill-rule="evenodd"/>
    </g>
  </g>
</svg>
