<svg width="151" height="36" viewBox="0 0 151 36" fill="none" xmlns="http://www.w3.org/2000/svg">
<g clip-path="url(#clip0_1908_176)">
<path d="M32.3518 0C32.3518 4.53518 28.7301 8.21051 24.2638 8.21051H8.08794V0H0V16.421H24.2638C33.1976 16.421 40.4397 9.06916 40.4397 0H32.3518Z" fill="#D33F79"/>
<path d="M24.2638 19.579H0V36H8.08794V27.7895H24.2638C28.7313 27.7895 32.3518 31.466 32.3518 36H40.4397C40.4397 26.9308 33.1976 19.579 24.2638 19.579Z" fill="#D33F79"/>
<path d="M46.6615 27.338V8.38538H50.6088V16.742H50.8541L57.5725 8.38538H62.303L55.3747 16.8713L62.3844 27.338H57.6621L52.5482 19.5467L50.6064 21.9526V27.338H46.6592H46.6615Z" fill="#292929"/>
<path d="M69.2633 27.6147C67.8465 27.6147 66.6244 27.3081 65.5945 26.6938C64.5646 26.0794 63.7695 25.222 63.2103 24.1214C62.6512 23.0208 62.3716 21.7418 62.3716 20.2856C62.3716 18.8294 62.6512 17.5324 63.2103 16.4318C63.7695 15.3313 64.5646 14.4738 65.5945 13.8595C66.6244 13.2451 67.8477 12.9385 69.2633 12.9385C70.6789 12.9385 71.9023 13.2451 72.9321 13.8595C73.962 14.4738 74.7559 15.3313 75.3163 16.4318C75.8755 17.5336 76.155 18.8186 76.155 20.2856C76.155 21.7526 75.8755 23.0208 75.3163 24.1214C74.7571 25.2232 73.962 26.0806 72.9321 26.6938C71.9023 27.3081 70.6789 27.6147 69.2633 27.6147ZM69.281 24.5609C69.9251 24.5609 70.4631 24.3741 70.8948 24.0004C71.3266 23.6268 71.6534 23.1166 71.8751 22.4688C72.0969 21.8209 72.2078 21.0832 72.2078 20.2569C72.2078 19.4305 72.0969 18.6928 71.8751 18.045C71.6534 17.3971 71.3266 16.8857 70.8948 16.5085C70.4631 16.1324 69.9251 15.9444 69.281 15.9444C68.6369 15.9444 68.0848 16.1324 67.6448 16.5085C67.2036 16.8845 66.8733 17.3971 66.6515 18.045C66.4297 18.6928 66.3188 19.4305 66.3188 20.2569C66.3188 21.0832 66.4297 21.8209 66.6515 22.4688C66.8733 23.1166 67.2048 23.6268 67.6448 24.0004C68.0848 24.3741 68.631 24.5609 69.281 24.5609Z" fill="#292929"/>
<path d="M83.4324 27.5691C82.3695 27.5691 81.4069 27.2901 80.5469 26.732C79.6869 26.1739 79.0062 25.35 78.5049 24.2614C78.0035 23.1728 77.7534 21.8352 77.7534 20.2496C77.7534 18.664 78.0118 17.2652 78.5285 16.1826C79.0452 15.1 79.7329 14.2893 80.5929 13.7492C81.4529 13.2091 82.3967 12.9396 83.423 12.9396C84.2063 12.9396 84.8622 13.0738 85.3872 13.342C85.9133 13.6103 86.338 13.9432 86.6636 14.342C86.9892 14.7396 87.2357 15.13 87.4068 15.5132H87.5248V8.3877H91.3989V27.338H87.5696V25.0614H87.4056C87.2228 25.4566 86.9668 25.847 86.6353 26.2314C86.3038 26.617 85.8756 26.9368 85.3506 27.1895C84.8245 27.4422 84.1851 27.5691 83.4313 27.5691H83.4324ZM84.6628 24.4315C85.2881 24.4315 85.8189 24.2566 86.2531 23.9081C86.6872 23.5596 87.0222 23.071 87.2558 22.4411C87.4894 21.8124 87.6074 21.0747 87.6074 20.2292C87.6074 19.3837 87.4917 18.6496 87.2605 18.0269C87.0293 17.4042 86.6955 16.9227 86.2578 16.5838C85.8201 16.2449 85.2881 16.0749 84.6628 16.0749C84.0376 16.0749 83.4867 16.2509 83.049 16.6018C82.6114 16.9539 82.2799 17.4413 82.0557 18.064C81.8304 18.6868 81.7184 19.4089 81.7184 20.2292C81.7184 21.0495 81.8328 21.7861 82.0605 22.4184C82.2881 23.0507 82.6196 23.5441 83.0538 23.8986C83.4879 24.253 84.0246 24.4303 84.6628 24.4303V24.4315Z" fill="#292929"/>
<path d="M100.409 27.6147C98.9687 27.6147 97.73 27.3177 96.6943 26.7213C95.6585 26.1261 94.8598 25.2806 94.3007 24.186C93.7415 23.0915 93.4619 21.7933 93.4619 20.2952C93.4619 18.797 93.7415 17.5491 94.3007 16.445C94.8598 15.3408 95.6479 14.4798 96.6659 13.863C97.684 13.2463 98.8802 12.9373 100.253 12.9373C101.177 12.9373 102.038 13.087 102.838 13.3864C103.637 13.6858 104.336 14.1349 104.934 14.7325C105.532 15.3312 106 16.0821 106.333 16.9863C106.667 17.8904 106.835 18.9467 106.835 20.1562V21.2388H95.012V18.7958H103.18C103.18 18.2282 103.059 17.7252 102.816 17.2869C102.573 16.8486 102.236 16.5049 101.808 16.2546C101.38 16.0043 100.883 15.8797 100.318 15.8797C99.7532 15.8797 99.2082 16.0175 98.7552 16.2917C98.3022 16.5659 97.9483 16.9336 97.6935 17.3935C97.4386 17.8533 97.3077 18.3635 97.3018 18.9251V21.2484C97.3018 21.9514 97.4304 22.5598 97.6899 23.0711C97.9483 23.5837 98.314 23.9777 98.7882 24.2555C99.2624 24.5333 99.824 24.6723 100.475 24.6723C100.907 24.6723 101.302 24.61 101.661 24.4866C102.019 24.3633 102.326 24.1777 102.581 23.931C102.836 23.6843 103.03 23.3825 103.165 23.0244L106.756 23.2651C106.573 24.1417 106.201 24.9046 105.639 25.5549C105.076 26.2051 104.354 26.7117 103.469 27.0722C102.584 27.4326 101.565 27.6135 100.41 27.6135L100.409 27.6147Z" fill="#292929"/>
<path d="M120.467 17.1767L116.912 17.3995C116.851 17.0905 116.721 16.8115 116.52 16.5624C116.32 16.3121 116.057 16.1121 115.732 15.9612C115.407 15.8103 115.02 15.7348 114.57 15.7348C113.969 15.7348 113.461 15.863 113.048 16.1193C112.636 16.3755 112.429 16.7168 112.429 17.142C112.429 17.4809 112.562 17.7683 112.83 18.003C113.098 18.2378 113.557 18.4258 114.207 18.5671L116.741 19.0856C118.102 19.3695 119.117 19.8257 119.786 20.4556C120.455 21.0844 120.788 21.9119 120.788 22.9358C120.788 23.8675 120.519 24.6854 119.981 25.3884C119.444 26.0914 118.709 26.6399 117.775 27.0315C116.842 27.4231 115.769 27.6195 114.553 27.6195C112.699 27.6195 111.223 27.2267 110.126 26.4399C109.029 25.6531 108.386 24.5813 108.199 23.2244L112.019 23.0208C112.134 23.5945 112.414 24.0316 112.857 24.3298C113.301 24.6292 113.869 24.7789 114.562 24.7789C115.254 24.7789 115.791 24.6447 116.208 24.3765C116.624 24.1082 116.835 23.7609 116.841 23.3358C116.835 22.9777 116.687 22.6831 116.394 22.452C116.103 22.2209 115.652 22.0436 115.044 21.9203L112.62 21.4293C111.253 21.1514 110.236 20.67 109.571 19.9862C108.905 19.3012 108.573 18.4282 108.573 17.3671C108.573 16.4546 108.817 15.6678 109.306 15.0079C109.796 14.3481 110.485 13.8391 111.376 13.481C112.266 13.123 113.309 12.9445 114.507 12.9445C116.275 12.9445 117.668 13.3241 118.686 14.0822C119.704 14.8415 120.298 15.875 120.469 17.1827L120.467 17.1767Z" fill="#292929"/>
<path d="M129.052 27.6147C127.635 27.6147 126.413 27.3081 125.383 26.6938C124.353 26.0794 123.558 25.222 122.999 24.1214C122.44 23.0208 122.16 21.7418 122.16 20.2856C122.16 18.8294 122.44 17.5324 122.999 16.4318C123.558 15.3313 124.353 14.4738 125.383 13.8595C126.413 13.2451 127.636 12.9385 129.052 12.9385C130.468 12.9385 131.691 13.2451 132.721 13.8595C133.751 14.4738 134.545 15.3313 135.105 16.4318C135.664 17.5336 135.944 18.8186 135.944 20.2856C135.944 21.7526 135.664 23.0208 135.105 24.1214C134.546 25.2232 133.751 26.0806 132.721 26.6938C131.691 27.3081 130.468 27.6147 129.052 27.6147ZM129.07 24.5609C129.714 24.5609 130.252 24.3741 130.683 24.0004C131.115 23.6268 131.442 23.1166 131.664 22.4688C131.885 21.8209 131.996 21.0832 131.996 20.2569C131.996 19.4305 131.885 18.6928 131.664 18.045C131.442 17.3971 131.115 16.8857 130.683 16.5085C130.252 16.1324 129.714 15.9444 129.07 15.9444C128.425 15.9444 127.873 16.1324 127.433 16.5085C126.992 16.8845 126.662 17.3971 126.44 18.045C126.218 18.6928 126.107 19.4305 126.107 20.2569C126.107 21.0832 126.218 21.8209 126.44 22.4688C126.662 23.1166 126.993 23.6268 127.433 24.0004C127.873 24.3741 128.42 24.5609 129.07 24.5609Z" fill="#292929"/>
<path d="M141.975 19.1203V27.338H138.092V13.1229H141.792V15.6306H141.956C142.267 14.8043 142.786 14.1481 143.515 13.6642C144.244 13.1804 145.129 12.9373 146.168 12.9373C147.14 12.9373 147.988 13.1529 148.711 13.5852C149.434 14.0175 149.996 14.6331 150.398 15.4318C150.799 16.2306 151 17.1827 151 18.2868V27.3368H147.116V18.9898C147.122 18.1204 146.904 17.4402 146.461 16.9492C146.017 16.4582 145.406 16.2139 144.628 16.2139C144.106 16.2139 143.646 16.3276 143.247 16.5564C142.848 16.7851 142.539 17.1168 142.317 17.5515C142.096 17.9863 141.981 18.5096 141.975 19.1203Z" fill="#292929"/>
</g>
<defs>
<clipPath id="clip0_1908_176">
<rect width="151" height="36" fill="white"/>
</clipPath>
</defs>
</svg>
