<svg xmlns="http://www.w3.org/2000/svg" xmlns:xlink="http://www.w3.org/1999/xlink" width="318.219" height="179.701" viewBox="0 0 318.219 179.701">
  <defs>
    <clipPath id="clip-path">
      <rect id="Rectangle_147" data-name="Rectangle 147" width="318.219" height="179.701" fill="none"/>
    </clipPath>
    <clipPath id="clip-path-2">
      <rect id="Rectangle_143" data-name="Rectangle 143" width="14.445" height="28.741" fill="none"/>
    </clipPath>
    <clipPath id="clip-path-3">
      <rect id="Rectangle_145" data-name="Rectangle 145" width="44.14" height="40.661" fill="none"/>
    </clipPath>
  </defs>
  <g id="Illustration" clip-path="url(#clip-path)">
    <path id="Path_23" data-name="Path 23" d="M12.226,178.956c.075-1.308-30.71-40.575,5.14-76.83,16.184-16.366,43.559-7.5,39.228-55.308C52.855,5.54,117.432-18.716,157.566,18.14c25.929,23.811,52.18-7.954,93.316,10.07S264.93,95.22,281.81,99.836c33.251,9.093,49.766,49.107,23.255,78.676Z" transform="translate(0 -0.005)" fill="#e6f4ff"/>
    <path id="Path_24" data-name="Path 24" d="M590.333,338.271c-.174-.36-.367-.725-.572-1.085l.579-.329c.212.373.411.751.592,1.124Zm-1.211-2.134c-.22-.338-.456-.678-.7-1.011l.537-.394c.252.343.494.693.721,1.042Zm-66.163,7.343c-.421.045-.845.081-1.259.1l-.039-.665c.4-.024.817-.058,1.227-.1Zm1.252-.165-.1-.658c.4-.062.809-.135,1.214-.216l.131.653c-.415.083-.833.157-1.243.221m-3.776.312c-.424,0-.849,0-1.265-.024l.031-.665c.4.019.817.026,1.229.023Zm6.251-.807-.158-.647c.395-.1.8-.2,1.193-.317l.184.64c-.405.116-.815.225-1.219.324m-8.779.69c-.421-.043-.844-.1-1.256-.166l.107-.657c.4.065.809.119,1.217.161Zm11.2-1.384-.208-.633c.386-.127.779-.264,1.167-.407l.23.625c-.4.146-.8.286-1.19.415m2.363-.871-.252-.617c.377-.154.76-.318,1.137-.487l.272.608c-.384.172-.773.338-1.157.5M515.407,343.1c-.414-.094-.828-.2-1.228-.32l.189-.639c.386.114.786.218,1.186.309Zm72.259-8.948c-.258-.315-.529-.628-.8-.932l.493-.448c.284.312.562.634.827.957Zm-53.9,6.073-.291-.6c.367-.178.739-.365,1.106-.557l.309.59c-.373.195-.751.385-1.123.566m-20.8,2.155c-.4-.147-.793-.309-1.176-.481l.274-.607c.368.166.749.322,1.133.464ZM536,339.063l-.325-.581c.356-.2.717-.408,1.073-.62l.341.572c-.361.215-.727.426-1.088.629m50.01-6.731c-.289-.288-.59-.573-.894-.848l.446-.495c.312.282.62.574.917.87Zm-75.351,9.005c-.373-.2-.742-.419-1.1-.645l.359-.561c.341.218.695.427,1.054.62Zm27.5-3.56-.356-.563c.344-.217.694-.444,1.04-.675l.37.554c-.35.234-.7.464-1.054.684m2.09-1.393-.383-.545c.334-.235.673-.478,1.007-.724l.395.536c-.338.249-.681.5-1.019.733m-31.732,3.582c-.339-.255-.67-.526-.987-.8l.441-.5c.3.268.622.527.947.772Zm75.663-9.285c-.316-.259-.643-.514-.971-.758l.4-.535c.337.25.673.512,1,.778ZM542.273,334.9l-.406-.528.1-.076q.449-.348.9-.683l.4.533q-.443.332-.89.677Zm39.931-5.684c-.339-.228-.689-.451-1.039-.662l.344-.57c.359.217.718.446,1.066.679Zm-75.592,9.07c-.294-.3-.58-.624-.848-.949l.514-.423c.257.312.531.618.813.91Zm37.65-4.875-.389-.541c.34-.245.685-.488,1.025-.723l.378.548c-.337.233-.678.473-1.015.715m35.833-5.47c-.359-.195-.728-.383-1.1-.561l.289-.6c.378.182.757.376,1.125.575ZM546.306,332l-.367-.556c.351-.232.706-.461,1.055-.68l.355.564c-.344.217-.7.443-1.043.672m-41.312,4.321c-.242-.346-.473-.708-.687-1.073l.575-.336c.2.351.427.7.658,1.028Zm43.411-5.642-.342-.571c.359-.215.724-.428,1.085-.633l.329.579c-.356.2-.717.413-1.071.625m29.471-3.807c-.377-.16-.762-.312-1.145-.454l.231-.625c.393.145.788.3,1.174.466Zm-27.314,2.584-.315-.587c.369-.2.744-.392,1.115-.579l.3.6c-.366.184-.736.376-1.1.571m25-3.437c-.39-.123-.788-.238-1.183-.343l.171-.644c.406.107.814.226,1.213.352Zm-22.789,2.323-.283-.6c.38-.179.765-.353,1.145-.519l.266.611c-.374.163-.754.335-1.128.511m-49.069,5.781c-.184-.38-.354-.773-.508-1.167l.62-.242c.148.379.311.755.487,1.12Zm69.477-8.734c-.4-.086-.806-.163-1.21-.231l.109-.657c.415.069.832.149,1.241.236Zm-18.138,1.964-.248-.618c.39-.157.785-.309,1.175-.451l.229.625c-.383.141-.772.29-1.156.444m15.708-2.369c-.406-.048-.819-.088-1.227-.118l.049-.664c.418.031.841.071,1.257.121ZM557.37,326.5l-.209-.632c.4-.132.8-.258,1.2-.375l.188.639c-.391.115-.788.239-1.181.369m10.927-1.7c-.407-.012-.821-.015-1.233-.008l-.01-.666c.421-.006.846,0,1.262.008Zm-8.554,1-.166-.645c.406-.1.818-.2,1.226-.292l.142.65c-.4.088-.8.184-1.2.286m6.089-.965c-.407.024-.821.056-1.23.1l-.066-.663c.418-.041.841-.074,1.257-.1Zm-3.675.438-.118-.656c.414-.075.833-.142,1.245-.2l.092.66c-.4.056-.814.122-1.219.195m-59.373,6.476c-.122-.4-.231-.816-.323-1.231l.65-.145c.089.4.193.8.31,1.182Zm-.554-2.481q-.034-.229-.062-.46c-.032-.266-.059-.537-.079-.8l.664-.05c.019.257.045.518.076.774q.027.222.06.443Zm.473-2.538-.666.005c0-.418.008-.845.033-1.27l.665.039c-.024.41-.034.822-.031,1.226m.141-2.448-.661-.08c.05-.409.113-.825.187-1.236l.659.1,0,.026c-.071.391-.132.794-.18,1.19m.431-2.423-.65-.147c.093-.41.2-.822.3-1.224l.643.174c-.107.394-.207.8-.3,1.2m22.786-3.37a9.184,9.184,0,0,1-1.294.033l.031-.665a8.539,8.539,0,0,0,1.2-.031Zm1.272-.2-.143-.651a11.206,11.206,0,0,0,1.167-.325l.213.631a11.9,11.9,0,0,1-1.237.345m-3.858.068a6.627,6.627,0,0,1-1.248-.4l.268-.61a5.979,5.979,0,0,0,1.123.362Zm6.286-.882-.274-.607c.366-.166.73-.352,1.083-.554l.331.578c-.371.212-.754.408-1.139.582m2.218-1.268-.383-.545c.332-.233.655-.484.961-.745l.433.506c-.322.275-.662.538-1.011.784m-28.058,3.276-.634-.2c.128-.4.266-.8.411-1.193l.625.231c-.141.382-.276.774-.4,1.165m17.163-2.188a5.691,5.691,0,0,1-.962-.906l.51-.429a5.05,5.05,0,0,0,.85.8Zm12.838-2.747-.479-.463a12.115,12.115,0,0,0,.8-.914l.523.413c-.261.331-.545.656-.843.964m-29.146,2.624-.614-.259c.163-.387.337-.774.518-1.152l.6.287c-.176.368-.346.746-.505,1.124m14.615-1.877a7.2,7.2,0,0,1-.5-1.208l.636-.2a6.537,6.537,0,0,0,.449,1.1Zm16.115-2.758-.564-.355a10.828,10.828,0,0,0,.586-1.058l.6.29a11.5,11.5,0,0,1-.623,1.123m-29.669,2.412-.587-.314c.2-.369.407-.74.621-1.1l.572.341c-.209.351-.413.712-.606,1.073m12.769-2.124c-.018-.116-.034-.234-.049-.354-.036-.3-.061-.609-.073-.926l.666-.026c.012.3.035.592.068.872.013.112.029.222.046.331Zm18.013-2.6-.63-.217a9.929,9.929,0,0,0,.323-1.162l.651.139a10.526,10.526,0,0,1-.345,1.24M507.1,312.83l-.556-.367c.23-.349.473-.7.72-1.037l.538.392c-.242.331-.478.672-.7,1.012m12.056-2.535-.666-.026c.017-.426.048-.852.093-1.266l.662.072c-.044.4-.074.809-.09,1.22m18-2.587-.664-.057a9.919,9.919,0,0,0,.03-1.2l.666-.024a10.627,10.627,0,0,1-.032,1.286m-28.6,3.131-.519-.417c.262-.326.535-.652.812-.967l.5.44c-.271.308-.537.625-.793.944m1.628-1.851-.48-.462c.291-.3.593-.6.9-.89l.459.483c-.3.281-.591.574-.875.868m9.243-1.12-.655-.121c.077-.418.171-.835.279-1.24l.643.172c-.1.388-.194.789-.268,1.189m16.951-2.593a5.042,5.042,0,0,0-.393-1.1l.6-.3a5.7,5.7,0,0,1,.445,1.243Zm-24.405,2.016-.437-.5c.316-.274.643-.545.972-.807l.414.522c-.321.255-.641.52-.949.788m8.083-1.775-.628-.223c.142-.4.3-.8.474-1.181l.607.274c-.166.368-.319.748-.454,1.13m15.289-2.311a5.46,5.46,0,0,0-.85-.808l.406-.528a6.15,6.15,0,0,1,.954.907ZM513.9,305.758l-.391-.539c.34-.246.689-.488,1.038-.718l.367.556c-.341.225-.682.461-1.015.7m2.059-1.359-.343-.571c.36-.216.729-.426,1.1-.626l.317.586c-.36.195-.72.4-1.072.611m5.092-1.1-.583-.322c.18-.326.375-.651.58-.967-.219.077-.439.157-.656.239l-.236-.623c.394-.149.795-.291,1.192-.421l.207.633-.334.112.462.306c-.224.34-.437.691-.631,1.043m12.436-1.531a8.278,8.278,0,0,0-1.1-.467l.216-.63a8.986,8.986,0,0,1,1.193.5Zm-15.359,1.46-.291-.6c.377-.184.764-.361,1.148-.527l.264.611c-.375.162-.752.336-1.121.515m13.091-2.248c-.383-.083-.786-.149-1.2-.2l.077-.662c.435.05.86.12,1.263.207Zm-8.485.5L522.6,301q-.106.13-.208.262l-.526-.409c.256-.329.531-.657.817-.974l.495.446q-.2.222-.393.451c.333-.088.668-.169,1-.242l.144.65c-.4.087-.8.187-1.2.3m6.068-.788c-.4-.013-.809-.011-1.224.006l-.027-.666c.431-.017.859-.019,1.272-.006Zm-3.665.26-.108-.657c.423-.069.845-.126,1.256-.17l.069.662c-.4.042-.808.1-1.218.164m-1.107-1.506-.463-.479c.3-.289.615-.575.939-.851l.432.507c-.313.267-.618.543-.907.822m1.865-1.589-.4-.532c.33-.249.677-.5,1.03-.733l.372.553c-.343.231-.68.47-1,.712m2.038-1.372-.344-.57c.354-.213.723-.424,1.1-.627l.317.586c-.366.2-.726.4-1.071.612m2.17-1.176-.292-.6c.371-.181.756-.36,1.145-.531l.268.609c-.381.168-.758.343-1.122.52m2.263-1-.246-.619c.384-.153.781-.3,1.18-.446l.225.627c-.392.141-.782.288-1.159.438m2.332-.837-.2-.634c.4-.128.8-.252,1.205-.369l.186.64c-.4.116-.8.238-1.186.363m2.383-.691-.167-.645c.4-.1.815-.2,1.225-.3l.149.649c-.4.092-.81.191-1.206.294m2.421-.554-.131-.653c.414-.083.832-.16,1.24-.23l.112.657c-.4.069-.813.145-1.221.226m3.672-.56s-.457.037-1.224.143l-.092-.66c.791-.11,1.248-.146,1.262-.148Z" transform="translate(-439.503 -254.757)" fill="#8c9df4"/>
    <rect id="Rectangle_18" data-name="Rectangle 18" width="26.496" height="68.04" transform="translate(80.411 110.266)" fill="#88c9f7"/>
    <rect id="Rectangle_19" data-name="Rectangle 19" width="26.496" height="90.28" transform="translate(121.631 88.027)" fill="#88c9f7"/>
    <rect id="Rectangle_20" data-name="Rectangle 20" width="29.012" height="114.281" transform="translate(159.11 64.025)" fill="#88c9f7"/>
    <rect id="Rectangle_21" data-name="Rectangle 21" width="26.496" height="130.102" transform="translate(198.459 48.204)" fill="#88c9f7"/>
    <path id="Path_25" data-name="Path 25" d="M1510.3,630.3l55.688-26.958-24.836,52.939-4.2-24.018Z" transform="translate(-1322.178 -528.194)" fill="#3868ad"/>
    <path id="Path_26" data-name="Path 26" d="M1405.35,584.192a10.435,10.435,0,1,1,12.606,7.672,10.435,10.435,0,0,1-12.606-7.672" transform="translate(-1230.039 -500.129)" fill="#ffb93e"/>
    <path id="Path_27" data-name="Path 27" d="M1424.48,598.435a9.507,9.507,0,1,1,5.873-4.3,9.445,9.445,0,0,1-5.873,4.3m-4.362-17.924a8.94,8.94,0,1,0,10.8,6.573,8.95,8.95,0,0,0-10.8-6.573" transform="translate(-1236.754 -507.482)" fill="#ffa412"/>
    <path id="Path_28" data-name="Path 28" d="M1464.456,608.582a1.564,1.564,0,0,0-.152-.531,1.147,1.147,0,0,0-.335-.39,2.172,2.172,0,0,0-.551-.29,5.69,5.69,0,0,0-.8-.222,14.971,14.971,0,0,1-1.471-.4,4.731,4.731,0,0,1-1.163-.554,2.784,2.784,0,0,1-.807-.823,3.142,3.142,0,0,1-.315-2.368,2.643,2.643,0,0,1,.522-.969,3.3,3.3,0,0,1,.906-.738,4.4,4.4,0,0,1,1.244-.459l-.19-1.566,1.261-.153.192,1.588a3.944,3.944,0,0,1,1.273.21,2.982,2.982,0,0,1,1.742,1.538,3.971,3.971,0,0,1,.369,1.3l-2.278.276a1.933,1.933,0,0,0-.549-1.267,1.343,1.343,0,0,0-1.1-.309,1.706,1.706,0,0,0-.6.173,1.154,1.154,0,0,0-.389.322,1.078,1.078,0,0,0-.195.436,1.591,1.591,0,0,0-.018.515,1.459,1.459,0,0,0,.138.481,1.075,1.075,0,0,0,.321.373,2.166,2.166,0,0,0,.555.289,7.417,7.417,0,0,0,.833.245q.8.193,1.462.417a4.786,4.786,0,0,1,1.159.561,2.688,2.688,0,0,1,1.205,2.027,2.879,2.879,0,0,1-.084,1.184,2.608,2.608,0,0,1-.527.963,3.188,3.188,0,0,1-.916.72,4.746,4.746,0,0,1-1.253.449l.177,1.457-1.253.152-.176-1.449a5.319,5.319,0,0,1-1.3-.132,3.374,3.374,0,0,1-1.16-.5,3.022,3.022,0,0,1-.883-.952,3.675,3.675,0,0,1-.466-1.474l2.277-.276a2.261,2.261,0,0,0,.251.849,1.46,1.46,0,0,0,.457.509,1.423,1.423,0,0,0,.591.225,2.436,2.436,0,0,0,.645.007,2.036,2.036,0,0,0,.639-.174,1.356,1.356,0,0,0,.437-.32,1.082,1.082,0,0,0,.235-.433,1.315,1.315,0,0,0,.034-.513" transform="translate(-1277.054 -524.495)" fill="#ffa412"/>
    <path id="Path_29" data-name="Path 29" d="M1848.114,363.2a10.162,10.162,0,1,1,10.554,9.755,10.162,10.162,0,0,1-10.554-9.755" transform="translate(-1617.907 -308.712)" fill="#ffb93e"/>
    <path id="Path_30" data-name="Path 30" d="M1865.019,379.363a9.259,9.259,0,1,1,6.435-2.967,9.2,9.2,0,0,1-6.435,2.967m-.706-17.952a8.707,8.707,0,1,0,9.042,8.358,8.716,8.716,0,0,0-9.042-8.358" transform="translate(-1624.289 -315.905)" fill="#ffa412"/>
    <path id="Path_31" data-name="Path 31" d="M1903.181,389.669a1.523,1.523,0,0,0-.043-.536,1.117,1.117,0,0,0-.245-.437,2.11,2.11,0,0,0-.47-.383,5.612,5.612,0,0,0-.719-.366,14.545,14.545,0,0,1-1.328-.663,4.616,4.616,0,0,1-1-.753,2.715,2.715,0,0,1-.612-.942,3.059,3.059,0,0,1,.156-2.322,2.579,2.579,0,0,1,.685-.825,3.213,3.213,0,0,1,1.007-.529,4.279,4.279,0,0,1,1.276-.2l.121-1.532,1.233.1-.123,1.553a3.843,3.843,0,0,1,1.174.446,2.9,2.9,0,0,1,1.366,1.8,3.864,3.864,0,0,1,.1,1.308l-2.227-.176a1.883,1.883,0,0,0-.28-1.315,1.308,1.308,0,0,0-.988-.507,1.668,1.668,0,0,0-.6.049,1.129,1.129,0,0,0-.433.232,1.052,1.052,0,0,0-.27.379,1.545,1.545,0,0,0-.116.488,1.42,1.42,0,0,0,.039.486,1.046,1.046,0,0,0,.235.419,2.111,2.111,0,0,0,.474.383,7.2,7.2,0,0,0,.748.394q.725.338,1.315.68a4.66,4.66,0,0,1,1,.759,2.617,2.617,0,0,1,.76,2.167,2.8,2.8,0,0,1-.309,1.114,2.544,2.544,0,0,1-.689.817,3.1,3.1,0,0,1-1.014.511,4.614,4.614,0,0,1-1.283.187l-.113,1.425-1.225-.1.112-1.417a5.19,5.19,0,0,1-1.215-.377,3.284,3.284,0,0,1-1.011-.7,2.938,2.938,0,0,1-.659-1.078,3.581,3.581,0,0,1-.161-1.5l2.227.176a2.205,2.205,0,0,0,.076.859,1.43,1.43,0,0,0,.338.574,1.384,1.384,0,0,0,.521.329,2.372,2.372,0,0,0,.614.131,1.982,1.982,0,0,0,.643-.043,1.32,1.32,0,0,0,.479-.221,1.052,1.052,0,0,0,.308-.368,1.284,1.284,0,0,0,.131-.483" transform="translate(-1661.435 -332.828)" fill="#ffa412"/>
    <path id="Path_32" data-name="Path 32" d="M1733.042,532.015a7.009,7.009,0,1,1,7.132,6.885,7.01,7.01,0,0,1-7.132-6.885" transform="translate(-1517.175 -459.503)" fill="#ffb93e"/>
    <path id="Path_33" data-name="Path 33" d="M1744.554,543.321a6.387,6.387,0,1,1,4.482-1.95,6.344,6.344,0,0,1-4.482,1.95m-.219-12.39a6.005,6.005,0,1,0,6.111,5.9,6.012,6.012,0,0,0-6.111-5.9" transform="translate(-1521.564 -464.465)" fill="#ffa412"/>
    <path id="Path_34" data-name="Path 34" d="M1770.757,550.474a1.052,1.052,0,0,0-.022-.37.769.769,0,0,0-.162-.305,1.457,1.457,0,0,0-.318-.271,3.894,3.894,0,0,0-.491-.264,10.06,10.06,0,0,1-.906-.477,3.166,3.166,0,0,1-.68-.534,1.869,1.869,0,0,1-.408-.658,2.11,2.11,0,0,1,.142-1.6,1.778,1.778,0,0,1,.485-.559,2.218,2.218,0,0,1,.7-.35,2.956,2.956,0,0,1,.883-.118l.106-1.055.849.085-.108,1.07a2.651,2.651,0,0,1,.8.325,2,2,0,0,1,.915,1.265,2.669,2.669,0,0,1,.051.9l-1.533-.154a1.3,1.3,0,0,0-.173-.911.9.9,0,0,0-.673-.364,1.153,1.153,0,0,0-.418.025.779.779,0,0,0-.3.154.723.723,0,0,0-.192.257,1.067,1.067,0,0,0-.087.335.982.982,0,0,0,.02.335.724.724,0,0,0,.156.292,1.468,1.468,0,0,0,.321.271,4.965,4.965,0,0,0,.51.283q.5.244.9.488a3.23,3.23,0,0,1,.677.539,1.806,1.806,0,0,1,.491,1.506,1.93,1.93,0,0,1-.229.763,1.754,1.754,0,0,1-.487.553,2.138,2.138,0,0,1-.707.337,3.191,3.191,0,0,1-.887.11l-.1.981-.844-.085.1-.976a3.565,3.565,0,0,1-.832-.278,2.271,2.271,0,0,1-.687-.5,2.032,2.032,0,0,1-.438-.754,2.471,2.471,0,0,1-.089-1.034l1.533.154a1.529,1.529,0,0,0,.039.594.986.986,0,0,0,.225.4.957.957,0,0,0,.354.235,1.637,1.637,0,0,0,.421.1,1.368,1.368,0,0,0,.444-.02.912.912,0,0,0,.334-.146.728.728,0,0,0,.218-.249.889.889,0,0,0,.1-.331" transform="translate(-1546.968 -476.166)" fill="#ffa412"/>
    <path id="Path_35" data-name="Path 35" d="M1489.948,250.417a17.1,17.1,0,1,1,21.614,10.861,17.1,17.1,0,0,1-21.614-10.861" transform="translate(-1303.598 -199.541)" fill="#ffb93e"/>
    <path id="Path_36" data-name="Path 36" d="M1522.258,272.038a15.583,15.583,0,1,1,9.026-7.8,15.482,15.482,0,0,1-9.026,7.8m-9.505-28.705a14.654,14.654,0,1,0,18.518,9.305,14.671,14.671,0,0,0-18.518-9.305" transform="translate(-1314.708 -211.553)" fill="#ffa412"/>
    <path id="Path_37" data-name="Path 37" d="M1584.648,288.965a2.569,2.569,0,0,0-.319-.848,1.879,1.879,0,0,0-.6-.593,3.544,3.544,0,0,0-.938-.4,9.37,9.37,0,0,0-1.334-.258,24.529,24.529,0,0,1-2.457-.454,7.765,7.765,0,0,1-1.973-.75,4.562,4.562,0,0,1-1.428-1.238,5.149,5.149,0,0,1-.829-3.828,4.329,4.329,0,0,1,.725-1.653,5.4,5.4,0,0,1,1.383-1.325,7.209,7.209,0,0,1,1.971-.915l-.518-2.534,2.04-.417.525,2.57a6.468,6.468,0,0,1,2.107.174,4.889,4.889,0,0,1,3.05,2.282,6.513,6.513,0,0,1,.774,2.068l-3.684.753a3.168,3.168,0,0,0-1.066-2,2.2,2.2,0,0,0-1.833-.359,2.8,2.8,0,0,0-.955.362,1.9,1.9,0,0,0-.593.577,1.767,1.767,0,0,0-.261.738,2.6,2.6,0,0,0,.04.843,2.383,2.383,0,0,0,.29.767,1.76,1.76,0,0,0,.574.567,3.551,3.551,0,0,0,.945.4,12.044,12.044,0,0,0,1.394.289q1.331.209,2.444.487a7.837,7.837,0,0,1,1.969.763,4.4,4.4,0,0,1,2.238,3.151,4.706,4.706,0,0,1,.019,1.945,4.278,4.278,0,0,1-.733,1.643,5.226,5.226,0,0,1-1.4,1.3,7.791,7.791,0,0,1-1.987.9l.482,2.356-2.027.415-.479-2.345a8.734,8.734,0,0,1-2.141-.043,5.53,5.53,0,0,1-1.962-.666,4.952,4.952,0,0,1-1.569-1.437,6.026,6.026,0,0,1-.958-2.346l3.684-.753a3.715,3.715,0,0,0,.523,1.355,2.4,2.4,0,0,0,.815.771,2.329,2.329,0,0,0,1,.29,3.993,3.993,0,0,0,1.054-.074,3.327,3.327,0,0,0,1.02-.369,2.226,2.226,0,0,0,.671-.581,1.774,1.774,0,0,0,.327-.739,2.164,2.164,0,0,0-.013-.842" transform="translate(-1378.539 -239.654)" fill="#ffa412"/>
    <path id="Path_38" data-name="Path 38" d="M985.071,215.313c-1.537.384-3.005.751-4.378.986-4.445.76-7.88.133-9.36-5.793s1.256-8.095,5.536-9.514c1.322-.438,2.79-.8,4.327-1.189a18.336,18.336,0,0,1,9.819.492c2.849.936,4.981,2.442,5.359,3.956.431,1.723-.743,4.057-2.83,6.17a18.727,18.727,0,0,1-8.474,4.892" transform="translate(-849.99 -174.517)" fill="#88c9f7"/>
    <path id="Path_39" data-name="Path 39" d="M927.12,189.375l-5.049-3.3-7.971,1.7,8.28,5.817Z" transform="translate(-800.24 -162.9)" fill="#3868ad"/>
    <path id="Path_40" data-name="Path 40" d="M973.751,324.56l-2.906,5.285-7.834,2.249,4.572-9.027Z" transform="translate(-843.059 -282.826)" fill="#3868ad"/>
    <path id="Path_41" data-name="Path 41" d="M980.694,227.857c-4.445.76-7.88.133-9.36-5.793s1.256-8.1,5.537-9.514Z" transform="translate(-849.99 -186.076)" fill="#3868ad"/>
    <path id="Path_42" data-name="Path 42" d="M890.856,278.417s2.219-5.17,6.1-4.374c3.963.812,3.463,5.082.49,5.473s-4.858-1.533-6.593-1.1" transform="translate(-779.892 -239.836)" fill="#ffaa45"/>
    <path id="Path_43" data-name="Path 43" d="M1060.16,227.9a3.831,3.831,0,1,1-2.789,4.646,3.831,3.831,0,0,1,2.789-4.646" transform="translate(-925.565 -199.41)" fill="#062d66"/>
    <path id="Path_44" data-name="Path 44" d="M1059.3,233.91a4.09,4.09,0,1,1,.99-.122,4.094,4.094,0,0,1-.99.122m0-7.664a3.576,3.576,0,1,0,3.47,2.71,3.564,3.564,0,0,0-3.47-2.71" transform="translate(-923.772 -197.618)" fill="#bdd1f9"/>
    <path id="Path_45" data-name="Path 45" d="M1134.734,217.087l-2.529-10.126c2.849.936,4.981,2.442,5.359,3.956.431,1.723-.743,4.057-2.83,6.17" transform="translate(-991.178 -181.183)" fill="#ffaa45"/>
    <path id="Path_46" data-name="Path 46" d="M2072.35,734.637s7.742,8.027,8.108,11.048-3.709,7.737-3.709,7.737Z" transform="translate(-1814.219 -643.132)" fill="#f4932a"/>
    <path id="Path_47" data-name="Path 47" d="M1970.68,1392.832s-.273,4.258-1.1,4.317c-.109.008-4.178,0-4.178,0l-5.194-.041a1.685,1.685,0,0,1,1.556-1.513c1.519-.261,4.063-1.323,4.987-3.328.972-2.109,3.928.566,3.928.566" transform="translate(-1716.047 -1218.138)" fill="#2e5a99"/>
    <path id="Path_48" data-name="Path 48" d="M2063.561,1393.033s-.273,4.258-1.1,4.317c-.11.008-4.178,0-4.178,0l-5.194-.042a1.686,1.686,0,0,1,1.556-1.513c1.519-.261,4.063-1.323,4.987-3.328.972-2.109,3.927.566,3.927.566" transform="translate(-1797.359 -1218.314)" fill="#18417c"/>
    <path id="Path_49" data-name="Path 49" d="M1998.882,989.451s1.339,8.691,6.374,24.126,5.71,22.115,5.71,22.115l5.437-.141s.083-16.856-2.235-24.617-.444-27.962-.444-27.962Z" transform="translate(-1749.902 -860.534)" fill="#062d66"/>
    <path id="Path_50" data-name="Path 50" d="M1977.706,986.489a210.905,210.905,0,0,0,2.01,29.173c2.23,16.081,1.448,22.9,1.448,22.9l5.425.192s3.277-16.075,2.365-24.123,4.5-27.6,4.5-27.6Z" transform="translate(-1731.359 -863.613)" fill="#063992"/>
    <path id="Path_51" data-name="Path 51" d="M2012.907,695.188l-2.895,1.889-4.176-.788c.059-.337.337-1.734.591-3,.015-.075.031-.149.045-.222.218-1.077.405-2,.405-2l3.906-1.713,1.456-.638c0,.023-.115,1.2-.131,1.366a9.95,9.95,0,0,0,.8,5.108" transform="translate(-1755.99 -602.929)" fill="#ffb27d"/>
    <path id="Path_52" data-name="Path 52" d="M2002.689,723.63c.081-.034,5.034-1.484,5.571-1.305s.853,1.22.853,1.22l-8.1,1.813a4.019,4.019,0,0,1,1.675-1.727" transform="translate(-1751.769 -632.34)" fill="#f4932a"/>
    <path id="Path_53" data-name="Path 53" d="M1989.022,765.243c-.847,3.826-14.812,4.249-18.4.767-.409-.4-.425-2.239-.265-4.723.313-4.853,1.3-12.152,1.344-15.882a29.531,29.531,0,0,1,.607-5.315,43.155,43.155,0,0,1,1.785-6.36s6.825-2.19,8.1-1.812c6.144,1.82,7.679,29.5,6.832,33.326" transform="translate(-1724.845 -640.712)" fill="#ffaa45"/>
    <path id="Path_54" data-name="Path 54" d="M1971.015,814.006c.313-4.853,1.3-12.152,1.344-15.882a29.534,29.534,0,0,1,.607-5.316l4.1-.715s3.976,16.393-6.056,21.913" transform="translate(-1725.507 -693.431)" fill="#f4932a"/>
    <path id="Path_55" data-name="Path 55" d="M1980.718,909.27a.966.966,0,0,1-.31,1.117,1.872,1.872,0,0,0-.838,1.705c.133.532,1.42,1.4,1.867,1.263s1.358-.837,1.26-1.117.617-2.458-.47-3.3a.878.878,0,0,0-1.509.332" transform="translate(-1732.973 -795.455)" fill="#ffb27d"/>
    <path id="Path_56" data-name="Path 56" d="M1941.712,738.946s-4,.74-7.2,5.432-5.3,8.18-4.72,9.875,5.924,7.579,6.847,7.581a2.475,2.475,0,0,0,2.5-2.176s-3.757-5.657-3.013-6.5c.318-.361,4.9-4.066,5.552-2.386,1.075,2.779.034-11.824.034-11.824" transform="translate(-1689.332 -646.904)" fill="#ffaa45"/>
    <path id="Path_57" data-name="Path 57" d="M2015.971,694.619c-.86,1.45-4.056,2.7-5.388,3.156.015-.075.031-.149.045-.222.218-1.077.405-2,.405-2l3.906-1.713c.862-.01,1.387.184,1.032.781" transform="translate(-1760.146 -607.414)" fill="#fca56b"/>
    <path id="Path_58" data-name="Path 58" d="M1996.911,633.008s6.281,1.974,7.45-1.956,2.767-6.323-1.193-7.75-5.19-.16-5.9,1.057-1.962,8.034-.358,8.649" transform="translate(-1747.494 -545.111)" fill="#ffb27d"/>
    <path id="Path_59" data-name="Path 59" d="M2003.128,608.892s.391,4.577,1.338,4.381,1.806-.342,1.664,1.037-1.458,2.97,1.459,3.22,7.126-7.263,6.328-8.689c-2.3-4.115-14.119-4.97-10.788.051" transform="translate(-1753.105 -530.022)" fill="#062d66"/>
    <path id="Path_60" data-name="Path 60" d="M1532.622,1411.5v1.647a.562.562,0,0,1-.13.354.751.751,0,0,1-.354.237.712.712,0,0,1-.139.033.86.86,0,0,1-.134.01h-31.229a.731.731,0,0,1-.748-.54.615.615,0,0,1-.007-.062c0-.011,0-.021,0-.032V1411.5c0-.011,0-.021,0-.032a.608.608,0,0,1,.007-.062.731.731,0,0,1,.748-.54h31.229a.86.86,0,0,1,.134.01.813.813,0,0,1,.139.033.754.754,0,0,1,.354.237.562.562,0,0,1,.13.354" transform="translate(-1313.057 -1235.125)" fill="#ffb93e"/>
    <path id="Path_61" data-name="Path 61" d="M1517.287,1413.776h-16.731a.67.67,0,0,1-.649-.47.524.524,0,0,1-.018-.07.571.571,0,0,1-.007-.062c0-.011,0-.021,0-.032v-1.647c0-.01,0-.021,0-.032a.576.576,0,0,1,.007-.062.528.528,0,0,1,.018-.07.67.67,0,0,1,.649-.469h14.677a5.108,5.108,0,0,0,2.054,2.915" transform="translate(-1313.057 -1235.125)" fill="#ffa412"/>
    <rect id="Rectangle_22" data-name="Rectangle 22" width="0.355" height="2.915" transform="translate(215.41 175.735)" fill="#ffa412"/>
    <rect id="Rectangle_23" data-name="Rectangle 23" width="0.355" height="2.915" transform="translate(214.209 175.735)" fill="#ffa412"/>
    <rect id="Rectangle_24" data-name="Rectangle 24" width="0.355" height="2.915" transform="translate(212.768 175.735)" fill="#ffa412"/>
    <rect id="Rectangle_25" data-name="Rectangle 25" width="0.355" height="2.915" transform="translate(210.56 175.735)" fill="#ffa412"/>
    <rect id="Rectangle_26" data-name="Rectangle 26" width="0.355" height="2.915" transform="translate(208.224 175.735)" fill="#ffa412"/>
    <rect id="Rectangle_27" data-name="Rectangle 27" width="0.355" height="2.915" transform="translate(204.644 175.735)" fill="#ffa412"/>
    <rect id="Rectangle_28" data-name="Rectangle 28" width="0.355" height="2.915" transform="translate(201.292 175.735)" fill="#ffa412"/>
    <rect id="Rectangle_29" data-name="Rectangle 29" width="0.355" height="2.915" transform="translate(198.299 175.735)" fill="#ffa412"/>
    <rect id="Rectangle_30" data-name="Rectangle 30" width="0.355" height="2.915" transform="translate(216.554 175.735)" fill="#ffa412"/>
    <rect id="Rectangle_31" data-name="Rectangle 31" width="0.355" height="2.915" transform="translate(217.309 175.735)" fill="#ffa412"/>
    <rect id="Rectangle_32" data-name="Rectangle 32" width="0.355" height="2.915" transform="translate(218.039 175.735)" fill="#ffa412"/>
    <path id="Path_62" data-name="Path 62" d="M1755.244,1410.869v2.9a.889.889,0,0,1-.133.01h-.222v-2.916h.222a.889.889,0,0,1,.133.01" transform="translate(-1536.301 -1235.124)" fill="#ffa412"/>
    <path id="Path_63" data-name="Path 63" d="M1759.2,1411.44v2.355a.749.749,0,0,1-.355.237v-2.83a.752.752,0,0,1,.355.237" transform="translate(-1539.768 -1235.425)" fill="#ffa412"/>
    <path id="Path_64" data-name="Path 64" d="M1505.817,1388.085v1.646a.567.567,0,0,1-.129.355.738.738,0,0,1-.071.075.815.815,0,0,1-.422.194.865.865,0,0,1-.133.011h-31.23a.731.731,0,0,1-.747-.541c0-.02-.006-.041-.007-.061s0-.022,0-.033v-1.646c0-.011,0-.022,0-.033s0-.041.007-.062a.731.731,0,0,1,.747-.54h31.23l.06,0,.022,0h0l.028,0,.02,0a.832.832,0,0,1,.138.032c.026.009.052.019.076.029h0l.049.024.027.016a.2.2,0,0,1,.025.016.575.575,0,0,1,.092.067c.01.008.018.017.026.024l.016.015.008.009.007.007a.306.306,0,0,1,.028.032.564.564,0,0,1,.129.354" transform="translate(-1289.591 -1214.631)" fill="#ffb93e"/>
    <path id="Path_65" data-name="Path 65" d="M1490.483,1390.366h-16.731a.669.669,0,0,1-.648-.471.509.509,0,0,1-.018-.07c0-.02-.006-.041-.007-.061s0-.021,0-.033v-1.646c0-.011,0-.022,0-.033s0-.041.007-.062a.512.512,0,0,1,.018-.07.669.669,0,0,1,.648-.471h14.677c.006.024.013.048.021.072a5.1,5.1,0,0,0,2.034,2.844" transform="translate(-1289.592 -1214.631)" fill="#ffa412"/>
    <rect id="Rectangle_33" data-name="Rectangle 33" width="0.355" height="2.915" transform="translate(212.071 172.82)" fill="#ffa412"/>
    <rect id="Rectangle_34" data-name="Rectangle 34" width="0.355" height="2.915" transform="translate(210.87 172.82)" fill="#ffa412"/>
    <rect id="Rectangle_35" data-name="Rectangle 35" width="0.355" height="2.915" transform="translate(209.429 172.82)" fill="#ffa412"/>
    <rect id="Rectangle_36" data-name="Rectangle 36" width="0.355" height="2.915" transform="translate(207.221 172.82)" fill="#ffa412"/>
    <rect id="Rectangle_37" data-name="Rectangle 37" width="0.355" height="2.915" transform="translate(204.885 172.82)" fill="#ffa412"/>
    <rect id="Rectangle_38" data-name="Rectangle 38" width="0.355" height="2.915" transform="translate(201.305 172.82)" fill="#ffa412"/>
    <rect id="Rectangle_39" data-name="Rectangle 39" width="0.355" height="2.915" transform="translate(197.953 172.82)" fill="#ffa412"/>
    <rect id="Rectangle_40" data-name="Rectangle 40" width="0.355" height="2.915" transform="translate(194.96 172.82)" fill="#ffa412"/>
    <rect id="Rectangle_41" data-name="Rectangle 41" width="0.355" height="2.915" transform="translate(213.215 172.82)" fill="#ffa412"/>
    <rect id="Rectangle_42" data-name="Rectangle 42" width="0.355" height="2.915" transform="translate(213.97 172.82)" fill="#ffa412"/>
    <rect id="Rectangle_43" data-name="Rectangle 43" width="0.355" height="2.915" transform="translate(214.7 172.82)" fill="#ffa412"/>
    <path id="Path_66" data-name="Path 66" d="M1728.436,1387.462v2.9a.871.871,0,0,1-.133.01h-.222v-2.916h.222a.871.871,0,0,1,.133.01" transform="translate(-1512.832 -1214.633)" fill="#ffa412"/>
    <path id="Path_67" data-name="Path 67" d="M1732.4,1388.033v2.355a.752.752,0,0,1-.355.238v-2.83a.756.756,0,0,1,.355.238" transform="translate(-1516.3 -1214.934)" fill="#ffa412"/>
    <path id="Path_68" data-name="Path 68" d="M1518.773,1365.261v1.647a.56.56,0,0,1-.13.354.747.747,0,0,1-.354.237.868.868,0,0,1-.138.033,1,1,0,0,1-.133.01h-31.23a.867.867,0,0,1-.348-.072.659.659,0,0,1-.4-.461c0-.014,0-.027-.006-.041a.226.226,0,0,1,0-.028.286.286,0,0,1,0-.032v-1.647a.287.287,0,0,1,0-.032.391.391,0,0,1,.007-.061.73.73,0,0,1,.747-.541h31.23a.862.862,0,0,1,.133.01.806.806,0,0,1,.138.032.757.757,0,0,1,.354.238.56.56,0,0,1,.13.354" transform="translate(-1300.933 -1194.65)" fill="#ffb93e"/>
    <path id="Path_69" data-name="Path 69" d="M1503.438,1367.542h-16.731a.7.7,0,0,1-.31-.072.639.639,0,0,1-.355-.461c0-.014,0-.027-.006-.041a.257.257,0,0,1,0-.028c0-.011,0-.021,0-.032v-1.647c0-.011,0-.021,0-.032a.459.459,0,0,1,.007-.061.58.58,0,0,1,.018-.068.668.668,0,0,1,.649-.473h14.677a5.118,5.118,0,0,0,1.952,2.843c.033.024.067.049.1.072" transform="translate(-1300.934 -1194.65)" fill="#ffa412"/>
    <rect id="Rectangle_44" data-name="Rectangle 44" width="0.355" height="2.915" transform="translate(213.685 169.976)" fill="#ffa412"/>
    <rect id="Rectangle_45" data-name="Rectangle 45" width="0.355" height="2.915" transform="translate(212.483 169.976)" fill="#ffa412"/>
    <rect id="Rectangle_46" data-name="Rectangle 46" width="0.355" height="2.915" transform="translate(211.043 169.976)" fill="#ffa412"/>
    <rect id="Rectangle_47" data-name="Rectangle 47" width="0.355" height="2.915" transform="translate(208.834 169.976)" fill="#ffa412"/>
    <rect id="Rectangle_48" data-name="Rectangle 48" width="0.355" height="2.915" transform="translate(206.499 169.976)" fill="#ffa412"/>
    <rect id="Rectangle_49" data-name="Rectangle 49" width="0.355" height="2.915" transform="translate(202.919 169.976)" fill="#ffa412"/>
    <rect id="Rectangle_50" data-name="Rectangle 50" width="0.355" height="2.915" transform="translate(199.567 169.976)" fill="#ffa412"/>
    <rect id="Rectangle_51" data-name="Rectangle 51" width="0.355" height="2.915" transform="translate(196.573 169.976)" fill="#ffa412"/>
    <rect id="Rectangle_52" data-name="Rectangle 52" width="0.355" height="2.915" transform="translate(214.828 169.976)" fill="#ffa412"/>
    <rect id="Rectangle_53" data-name="Rectangle 53" width="0.355" height="2.915" transform="translate(215.584 169.976)" fill="#ffa412"/>
    <rect id="Rectangle_54" data-name="Rectangle 54" width="0.355" height="2.915" transform="translate(216.314 169.976)" fill="#ffa412"/>
    <path id="Path_70" data-name="Path 70" d="M1741.391,1364.634v2.9a.873.873,0,0,1-.133.01h-.222v-2.915h.222a.873.873,0,0,1,.133.01" transform="translate(-1524.173 -1194.648)" fill="#ffa412"/>
    <path id="Path_71" data-name="Path 71" d="M1745.351,1365.2v2.355a.753.753,0,0,1-.355.238v-2.83a.754.754,0,0,1,.355.237" transform="translate(-1527.641 -1194.948)" fill="#ffa412"/>
    <path id="Path_72" data-name="Path 72" d="M1524.781,1341.851v1.646a.56.56,0,0,1-.13.354c-.01.014-.022.026-.034.039a.738.738,0,0,1-.216.157.9.9,0,0,1-.1.042.805.805,0,0,1-.139.032l-.065.008-.068,0H1492.8a.732.732,0,0,1-.748-.541c0-.021-.006-.041-.007-.061v-1.712a.7.7,0,0,1,.665-.6c.029,0,.06,0,.09,0h31.229l.068,0c.022,0,.044,0,.065.008a.841.841,0,0,1,.139.032.754.754,0,0,1,.354.237.562.562,0,0,1,.13.355" transform="translate(-1306.193 -1174.156)" fill="#ffb93e"/>
    <path id="Path_73" data-name="Path 73" d="M1509.446,1344.133h-16.731a.671.671,0,0,1-.649-.471.545.545,0,0,1-.018-.07c0-.021-.006-.041-.007-.061v-1.712a.656.656,0,0,1,.594-.6.716.716,0,0,1,.08,0h14.677s0,0,0,0a5.114,5.114,0,0,0,2.053,2.911" transform="translate(-1306.193 -1174.157)" fill="#ffa412"/>
    <rect id="Rectangle_55" data-name="Rectangle 55" width="0.355" height="2.915" transform="translate(214.433 167.061)" fill="#ffa412"/>
    <rect id="Rectangle_56" data-name="Rectangle 56" width="0.355" height="2.915" transform="translate(213.231 167.061)" fill="#ffa412"/>
    <rect id="Rectangle_57" data-name="Rectangle 57" width="0.355" height="2.915" transform="translate(211.791 167.061)" fill="#ffa412"/>
    <rect id="Rectangle_58" data-name="Rectangle 58" width="0.355" height="2.915" transform="translate(209.582 167.061)" fill="#ffa412"/>
    <rect id="Rectangle_59" data-name="Rectangle 59" width="0.355" height="2.915" transform="translate(207.247 167.061)" fill="#ffa412"/>
    <rect id="Rectangle_60" data-name="Rectangle 60" width="0.355" height="2.915" transform="translate(203.667 167.061)" fill="#ffa412"/>
    <rect id="Rectangle_61" data-name="Rectangle 61" width="0.355" height="2.915" transform="translate(200.314 167.061)" fill="#ffa412"/>
    <rect id="Rectangle_62" data-name="Rectangle 62" width="0.355" height="2.915" transform="translate(197.321 167.061)" fill="#ffa412"/>
    <rect id="Rectangle_63" data-name="Rectangle 63" width="0.355" height="2.915" transform="translate(215.577 167.061)" fill="#ffa412"/>
    <rect id="Rectangle_64" data-name="Rectangle 64" width="0.355" height="2.915" transform="translate(216.332 167.061)" fill="#ffa412"/>
    <rect id="Rectangle_65" data-name="Rectangle 65" width="0.355" height="2.915" transform="translate(217.062 167.061)" fill="#ffa412"/>
    <path id="Path_74" data-name="Path 74" d="M1747.4,1341.227v2.9a.866.866,0,0,1-.133.01h-.222v-2.915h.222a.851.851,0,0,1,.133.01" transform="translate(-1529.431 -1174.157)" fill="#ffa412"/>
    <path id="Path_75" data-name="Path 75" d="M1751.358,1341.8v2.355a.75.75,0,0,1-.355.237v-2.83a.753.753,0,0,1,.355.238" transform="translate(-1532.899 -1174.457)" fill="#ffa412"/>
    <path id="Path_76" data-name="Path 76" d="M1506.343,1318.479v1.646a.558.558,0,0,1-.129.354.746.746,0,0,1-.355.238.782.782,0,0,1-.138.032.3.3,0,0,1-.044.006h-.006l-.023,0-.02,0h-31.269a.714.714,0,0,1-.755-.6.328.328,0,0,1,0-.033v-1.646c0-.011,0-.023,0-.033a.242.242,0,0,1,0-.026.684.684,0,0,1,.567-.555l.022,0a.9.9,0,0,1,.164-.016h31.229c.023,0,.045,0,.067,0l.028,0h0l.035,0a.828.828,0,0,1,.138.032.747.747,0,0,1,.355.238.558.558,0,0,1,.129.354" transform="translate(-1290.051 -1153.695)" fill="#ffb93e"/>
    <path id="Path_77" data-name="Path 77" d="M1491.008,1320.761h-16.73a.661.661,0,0,1-.674-.6c0-.011,0-.021,0-.033v-1.646c0-.011,0-.023,0-.033s0-.018,0-.026a.651.651,0,0,1,.524-.559.135.135,0,0,1,.028-.006.7.7,0,0,1,.12-.011h14.676l.006.022a5.111,5.111,0,0,0,2.042,2.89l.007,0" transform="translate(-1290.052 -1153.696)" fill="#ffa412"/>
    <rect id="Rectangle_66" data-name="Rectangle 66" width="0.355" height="2.915" transform="translate(212.137 164.15)" fill="#ffa412"/>
    <rect id="Rectangle_67" data-name="Rectangle 67" width="0.355" height="2.915" transform="translate(210.935 164.15)" fill="#ffa412"/>
    <rect id="Rectangle_68" data-name="Rectangle 68" width="0.355" height="2.915" transform="translate(209.495 164.15)" fill="#ffa412"/>
    <rect id="Rectangle_69" data-name="Rectangle 69" width="0.355" height="2.915" transform="translate(207.286 164.15)" fill="#ffa412"/>
    <rect id="Rectangle_70" data-name="Rectangle 70" width="0.355" height="2.915" transform="translate(204.951 164.15)" fill="#ffa412"/>
    <rect id="Rectangle_71" data-name="Rectangle 71" width="0.355" height="2.915" transform="translate(201.371 164.15)" fill="#ffa412"/>
    <rect id="Rectangle_72" data-name="Rectangle 72" width="0.355" height="2.915" transform="translate(198.019 164.15)" fill="#ffa412"/>
    <rect id="Rectangle_73" data-name="Rectangle 73" width="0.355" height="2.915" transform="translate(195.025 164.15)" fill="#ffa412"/>
    <rect id="Rectangle_74" data-name="Rectangle 74" width="0.355" height="2.915" transform="translate(213.281 164.15)" fill="#ffa412"/>
    <rect id="Rectangle_75" data-name="Rectangle 75" width="0.355" height="2.915" transform="translate(214.036 164.15)" fill="#ffa412"/>
    <rect id="Rectangle_76" data-name="Rectangle 76" width="0.355" height="2.915" transform="translate(214.766 164.15)" fill="#ffa412"/>
    <path id="Path_78" data-name="Path 78" d="M1728.965,1317.858v2.9a.869.869,0,0,1-.133.01h-.222v-2.916h.222a.869.869,0,0,1,.133.01" transform="translate(-1513.295 -1153.698)" fill="#ffa412"/>
    <path id="Path_79" data-name="Path 79" d="M1732.924,1318.427v2.355a.752.752,0,0,1-.355.237v-2.83a.755.755,0,0,1,.355.237" transform="translate(-1516.762 -1153.998)" fill="#ffa412"/>
    <path id="Path_80" data-name="Path 80" d="M1505.817,1295.241v1.646a.565.565,0,0,1-.129.354.882.882,0,0,1-.071.076.82.82,0,0,1-.391.189h0l-.028,0a.85.85,0,0,1-.133.011h-31.23a.814.814,0,0,1-.1-.006l-.037,0a.7.7,0,0,1-.614-.536c0-.019,0-.036-.006-.055s0-.022,0-.033v-1.646c0-.011,0-.022,0-.033s0-.041.007-.062a.731.731,0,0,1,.747-.541h31.23l.06,0h.025l.028,0,.02,0a.8.8,0,0,1,.138.032c.026.009.052.019.076.029h0a.766.766,0,0,1,.25.176l.028.032a.567.567,0,0,1,.129.355" transform="translate(-1289.591 -1133.351)" fill="#ffb93e"/>
    <path id="Path_81" data-name="Path 81" d="M1490.483,1297.522h-16.77l-.043,0a.66.66,0,0,1-.586-.542c0-.019,0-.036-.006-.055s0-.022,0-.033v-1.646c0-.011,0-.022,0-.033s0-.041.007-.062a.515.515,0,0,1,.018-.07.669.669,0,0,1,.648-.471h14.677c.006.024.013.048.021.072a5.1,5.1,0,0,0,2,2.823l.03.021" transform="translate(-1289.592 -1133.351)" fill="#ffa412"/>
    <rect id="Rectangle_77" data-name="Rectangle 77" width="0.355" height="2.915" transform="translate(212.071 161.255)" fill="#ffa412"/>
    <rect id="Rectangle_78" data-name="Rectangle 78" width="0.355" height="2.915" transform="translate(210.87 161.255)" fill="#ffa412"/>
    <rect id="Rectangle_79" data-name="Rectangle 79" width="0.355" height="2.915" transform="translate(209.429 161.255)" fill="#ffa412"/>
    <rect id="Rectangle_80" data-name="Rectangle 80" width="0.355" height="2.915" transform="translate(207.221 161.255)" fill="#ffa412"/>
    <rect id="Rectangle_81" data-name="Rectangle 81" width="0.355" height="2.915" transform="translate(204.885 161.255)" fill="#ffa412"/>
    <rect id="Rectangle_82" data-name="Rectangle 82" width="0.355" height="2.915" transform="translate(201.305 161.255)" fill="#ffa412"/>
    <rect id="Rectangle_83" data-name="Rectangle 83" width="0.355" height="2.915" transform="translate(197.953 161.255)" fill="#ffa412"/>
    <rect id="Rectangle_84" data-name="Rectangle 84" width="0.355" height="2.915" transform="translate(194.96 161.255)" fill="#ffa412"/>
    <rect id="Rectangle_85" data-name="Rectangle 85" width="0.355" height="2.915" transform="translate(213.215 161.255)" fill="#ffa412"/>
    <rect id="Rectangle_86" data-name="Rectangle 86" width="0.355" height="2.915" transform="translate(213.97 161.255)" fill="#ffa412"/>
    <rect id="Rectangle_87" data-name="Rectangle 87" width="0.355" height="2.915" transform="translate(214.7 161.255)" fill="#ffa412"/>
    <path id="Path_82" data-name="Path 82" d="M1728.436,1294.618v2.9a.871.871,0,0,1-.133.01h-.222v-2.915h.222a.871.871,0,0,1,.133.01" transform="translate(-1512.832 -1133.353)" fill="#ffa412"/>
    <path id="Path_83" data-name="Path 83" d="M1732.4,1295.189v2.355a.752.752,0,0,1-.355.237v-2.83a.754.754,0,0,1,.355.238" transform="translate(-1516.3 -1133.653)" fill="#ffa412"/>
    <path id="Path_84" data-name="Path 84" d="M1518.773,1272.41v1.646a.561.561,0,0,1-.13.355.748.748,0,0,1-.354.237.784.784,0,0,1-.138.032.878.878,0,0,1-.133.01h-31.23a.867.867,0,0,1-.348-.072.659.659,0,0,1-.4-.46c0-.014,0-.027-.006-.041a.24.24,0,0,1,0-.028.293.293,0,0,1,0-.033v-1.646a.305.305,0,0,1,0-.033.4.4,0,0,1,.007-.061.731.731,0,0,1,.747-.541h31.23a.862.862,0,0,1,.133.011.8.8,0,0,1,.138.032.743.743,0,0,1,.354.238.559.559,0,0,1,.13.354" transform="translate(-1300.933 -1113.364)" fill="#ffb93e"/>
    <path id="Path_85" data-name="Path 85" d="M1503.438,1274.691h-16.731a.7.7,0,0,1-.31-.072.639.639,0,0,1-.355-.46c0-.014,0-.027-.006-.041a.274.274,0,0,1,0-.028c0-.011,0-.022,0-.033v-1.646c0-.01,0-.022,0-.033a.477.477,0,0,1,.007-.061.566.566,0,0,1,.018-.068.669.669,0,0,1,.649-.473h14.677a5.116,5.116,0,0,0,1.952,2.844c.033.024.067.048.1.072" transform="translate(-1300.934 -1113.364)" fill="#ffa412"/>
    <rect id="Rectangle_88" data-name="Rectangle 88" width="0.355" height="2.915" transform="translate(213.685 158.411)" fill="#ffa412"/>
    <rect id="Rectangle_89" data-name="Rectangle 89" width="0.355" height="2.915" transform="translate(212.483 158.411)" fill="#ffa412"/>
    <rect id="Rectangle_90" data-name="Rectangle 90" width="0.355" height="2.915" transform="translate(211.043 158.411)" fill="#ffa412"/>
    <rect id="Rectangle_91" data-name="Rectangle 91" width="0.355" height="2.915" transform="translate(208.834 158.411)" fill="#ffa412"/>
    <rect id="Rectangle_92" data-name="Rectangle 92" width="0.355" height="2.915" transform="translate(206.499 158.411)" fill="#ffa412"/>
    <rect id="Rectangle_93" data-name="Rectangle 93" width="0.355" height="2.915" transform="translate(202.919 158.411)" fill="#ffa412"/>
    <rect id="Rectangle_94" data-name="Rectangle 94" width="0.355" height="2.915" transform="translate(199.567 158.411)" fill="#ffa412"/>
    <rect id="Rectangle_95" data-name="Rectangle 95" width="0.355" height="2.915" transform="translate(196.573 158.411)" fill="#ffa412"/>
    <rect id="Rectangle_96" data-name="Rectangle 96" width="0.355" height="2.915" transform="translate(214.828 158.411)" fill="#ffa412"/>
    <rect id="Rectangle_97" data-name="Rectangle 97" width="0.355" height="2.915" transform="translate(215.584 158.411)" fill="#ffa412"/>
    <rect id="Rectangle_98" data-name="Rectangle 98" width="0.355" height="2.915" transform="translate(216.314 158.411)" fill="#ffa412"/>
    <path id="Path_86" data-name="Path 86" d="M1741.391,1271.789v2.9a.873.873,0,0,1-.133.01h-.222v-2.915h.222a.873.873,0,0,1,.133.01" transform="translate(-1524.173 -1113.368)" fill="#ffa412"/>
    <path id="Path_87" data-name="Path 87" d="M1745.351,1272.36v2.355a.75.75,0,0,1-.355.237v-2.83a.754.754,0,0,1,.355.237" transform="translate(-1527.641 -1113.669)" fill="#ffa412"/>
    <path id="Path_88" data-name="Path 88" d="M1539.261,1249.007v1.647a.564.564,0,0,1-.129.353h0c-.011.014-.022.026-.034.039a.711.711,0,0,1-.167.131.814.814,0,0,1-.1.048h0c-.017.007-.034.014-.052.02a.782.782,0,0,1-.139.032.848.848,0,0,1-.133.01h-31.23a.731.731,0,0,1-.747-.539.46.46,0,0,1-.007-.062c0-.011,0-.021,0-.032v-1.647c0-.011,0-.021,0-.032a.7.7,0,0,1,.665-.6.671.671,0,0,1,.089,0h31.23a.967.967,0,0,1,.133.01.907.907,0,0,1,.139.033.766.766,0,0,1,.32.2c.012.013.023.025.034.039h0a.563.563,0,0,1,.129.353" transform="translate(-1318.87 -1092.877)" fill="#ffb93e"/>
    <path id="Path_89" data-name="Path 89" d="M1523.927,1251.288H1507.2a.668.668,0,0,1-.649-.472.585.585,0,0,1-.018-.068.424.424,0,0,1-.007-.063.313.313,0,0,1,0-.032v-1.647a.316.316,0,0,1,0-.032.654.654,0,0,1,.593-.6.543.543,0,0,1,.08,0h14.677a.035.035,0,0,1,0,0,5.106,5.106,0,0,0,2.054,2.91" transform="translate(-1318.87 -1092.877)" fill="#ffa412"/>
    <rect id="Rectangle_99" data-name="Rectangle 99" width="0.355" height="2.915" transform="translate(216.237 155.496)" fill="#ffa412"/>
    <rect id="Rectangle_100" data-name="Rectangle 100" width="0.355" height="2.915" transform="translate(215.035 155.496)" fill="#ffa412"/>
    <rect id="Rectangle_101" data-name="Rectangle 101" width="0.355" height="2.915" transform="translate(213.595 155.496)" fill="#ffa412"/>
    <rect id="Rectangle_102" data-name="Rectangle 102" width="0.355" height="2.915" transform="translate(211.386 155.496)" fill="#ffa412"/>
    <rect id="Rectangle_103" data-name="Rectangle 103" width="0.355" height="2.915" transform="translate(209.051 155.496)" fill="#ffa412"/>
    <rect id="Rectangle_104" data-name="Rectangle 104" width="0.355" height="2.915" transform="translate(205.471 155.496)" fill="#ffa412"/>
    <rect id="Rectangle_105" data-name="Rectangle 105" width="0.355" height="2.915" transform="translate(202.119 155.496)" fill="#ffa412"/>
    <rect id="Rectangle_106" data-name="Rectangle 106" width="0.355" height="2.915" transform="translate(199.126 155.496)" fill="#ffa412"/>
    <rect id="Rectangle_107" data-name="Rectangle 107" width="0.355" height="2.915" transform="translate(217.381 155.496)" fill="#ffa412"/>
    <rect id="Rectangle_108" data-name="Rectangle 108" width="0.355" height="2.915" transform="translate(218.136 155.496)" fill="#ffa412"/>
    <rect id="Rectangle_109" data-name="Rectangle 109" width="0.355" height="2.915" transform="translate(218.866 155.496)" fill="#ffa412"/>
    <path id="Path_90" data-name="Path 90" d="M1761.882,1248.382v2.9a.888.888,0,0,1-.133.01h-.222v-2.916h.222a.872.872,0,0,1,.133.01" transform="translate(-1542.112 -1092.876)" fill="#ffa412"/>
    <path id="Path_91" data-name="Path 91" d="M1765.842,1248.953v2.355a.75.75,0,0,1-.355.237v-2.83a.753.753,0,0,1,.355.238" transform="translate(-1545.579 -1093.177)" fill="#ffa412"/>
    <path id="Path_92" data-name="Path 92" d="M1506.343,1225.636v1.646a.558.558,0,0,1-.129.354.745.745,0,0,1-.355.238.8.8,0,0,1-.138.032l-.044.006h-.006a.267.267,0,0,1-.029,0h-31.284a.793.793,0,0,1-.643-.3.558.558,0,0,1-.112-.3c0-.012,0-.023,0-.033v-1.646a.323.323,0,0,1,0-.033.669.669,0,0,1,.536-.574.844.844,0,0,1,.219-.028h31.269l.019,0a.638.638,0,0,1,.074.008.828.828,0,0,1,.138.032.47.47,0,0,1,.064.024h0a.741.741,0,0,1,.219.138l0,0,.009.008a.61.61,0,0,1,.059.063.56.56,0,0,1,.129.355" transform="translate(-1290.051 -1072.416)" fill="#ffb93e"/>
    <path id="Path_93" data-name="Path 93" d="M1491.008,1227.918h-16.73a.686.686,0,0,1-.564-.288.6.6,0,0,1-.11-.314c0-.012,0-.022,0-.033v-1.646c0-.012,0-.022,0-.033a.651.651,0,0,1,.538-.589.716.716,0,0,1,.137-.013h14.676c.006.022.013.045.02.067a5.1,5.1,0,0,0,2.028,2.844l.007,0" transform="translate(-1290.052 -1072.417)" fill="#ffa412"/>
    <rect id="Rectangle_110" data-name="Rectangle 110" width="0.355" height="2.915" transform="translate(212.137 152.585)" fill="#ffa412"/>
    <rect id="Rectangle_111" data-name="Rectangle 111" width="0.355" height="2.915" transform="translate(210.935 152.585)" fill="#ffa412"/>
    <rect id="Rectangle_112" data-name="Rectangle 112" width="0.355" height="2.915" transform="translate(209.495 152.585)" fill="#ffa412"/>
    <rect id="Rectangle_113" data-name="Rectangle 113" width="0.355" height="2.915" transform="translate(207.286 152.585)" fill="#ffa412"/>
    <rect id="Rectangle_114" data-name="Rectangle 114" width="0.355" height="2.915" transform="translate(204.951 152.585)" fill="#ffa412"/>
    <rect id="Rectangle_115" data-name="Rectangle 115" width="0.355" height="2.915" transform="translate(201.371 152.585)" fill="#ffa412"/>
    <rect id="Rectangle_116" data-name="Rectangle 116" width="0.355" height="2.915" transform="translate(198.019 152.585)" fill="#ffa412"/>
    <rect id="Rectangle_117" data-name="Rectangle 117" width="0.355" height="2.915" transform="translate(195.025 152.585)" fill="#ffa412"/>
    <rect id="Rectangle_118" data-name="Rectangle 118" width="0.355" height="2.915" transform="translate(213.281 152.585)" fill="#ffa412"/>
    <rect id="Rectangle_119" data-name="Rectangle 119" width="0.355" height="2.915" transform="translate(214.036 152.585)" fill="#ffa412"/>
    <rect id="Rectangle_120" data-name="Rectangle 120" width="0.355" height="2.915" transform="translate(214.766 152.585)" fill="#ffa412"/>
    <path id="Path_94" data-name="Path 94" d="M1728.965,1225.013v2.9a.869.869,0,0,1-.133.01h-.222V1225h.222a.854.854,0,0,1,.133.01" transform="translate(-1513.295 -1072.418)" fill="#ffa412"/>
    <path id="Path_95" data-name="Path 95" d="M1732.924,1225.583v2.355a.749.749,0,0,1-.355.237v-2.83a.754.754,0,0,1,.355.238" transform="translate(-1516.762 -1072.718)" fill="#ffa412"/>
    <path id="Path_96" data-name="Path 96" d="M1524.777,1202.771v1.646a.56.56,0,0,1-.13.354.749.749,0,0,1-.355.238.8.8,0,0,1-.138.032.866.866,0,0,1-.133.01h-31.229a.862.862,0,0,1-.338-.067.649.649,0,0,1-.415-.508c0-.009,0-.017,0-.026s0-.022,0-.033v-1.646c0-.011,0-.022,0-.033a.7.7,0,0,1,.665-.6.829.829,0,0,1,.09,0h31.229a.866.866,0,0,1,.133.01.821.821,0,0,1,.138.032.752.752,0,0,1,.355.238.559.559,0,0,1,.13.354" transform="translate(-1306.189 -1052.4)" fill="#ffb93e"/>
    <path id="Path_97" data-name="Path 97" d="M1509.442,1205.053h-16.731a.7.7,0,0,1-.3-.067.639.639,0,0,1-.37-.509c0-.008,0-.017,0-.026s0-.022,0-.033v-1.646c0-.011,0-.022,0-.033a.677.677,0,0,1,.674-.6h14.676v0a5.113,5.113,0,0,0,1.957,2.844c.031.023.063.045.1.067" transform="translate(-1306.19 -1052.401)" fill="#ffa412"/>
    <rect id="Rectangle_121" data-name="Rectangle 121" width="0.355" height="2.915" transform="translate(214.433 149.737)" fill="#ffa412"/>
    <rect id="Rectangle_122" data-name="Rectangle 122" width="0.355" height="2.915" transform="translate(213.231 149.737)" fill="#ffa412"/>
    <rect id="Rectangle_123" data-name="Rectangle 123" width="0.355" height="2.915" transform="translate(211.791 149.737)" fill="#ffa412"/>
    <rect id="Rectangle_124" data-name="Rectangle 124" width="0.355" height="2.915" transform="translate(209.582 149.737)" fill="#ffa412"/>
    <rect id="Rectangle_125" data-name="Rectangle 125" width="0.355" height="2.915" transform="translate(207.247 149.737)" fill="#ffa412"/>
    <rect id="Rectangle_126" data-name="Rectangle 126" width="0.355" height="2.915" transform="translate(203.667 149.737)" fill="#ffa412"/>
    <rect id="Rectangle_127" data-name="Rectangle 127" width="0.355" height="2.915" transform="translate(200.314 149.737)" fill="#ffa412"/>
    <rect id="Rectangle_128" data-name="Rectangle 128" width="0.355" height="2.915" transform="translate(197.321 149.737)" fill="#ffa412"/>
    <rect id="Rectangle_129" data-name="Rectangle 129" width="0.355" height="2.915" transform="translate(215.577 149.737)" fill="#ffa412"/>
    <rect id="Rectangle_130" data-name="Rectangle 130" width="0.355" height="2.915" transform="translate(216.332 149.737)" fill="#ffa412"/>
    <rect id="Rectangle_131" data-name="Rectangle 131" width="0.355" height="2.915" transform="translate(217.062 149.737)" fill="#ffa412"/>
    <path id="Path_98" data-name="Path 98" d="M1747.4,1202.147v2.9a.866.866,0,0,1-.133.01h-.222v-2.915h.222a.851.851,0,0,1,.133.01" transform="translate(-1529.431 -1052.4)" fill="#ffa412"/>
    <path id="Path_99" data-name="Path 99" d="M1751.358,1202.718v2.355a.748.748,0,0,1-.355.237v-2.83a.753.753,0,0,1,.355.238" transform="translate(-1532.899 -1052.7)" fill="#ffa412"/>
    <path id="Path_100" data-name="Path 100" d="M1532.624,1179.4v1.646a.56.56,0,0,1-.13.354.749.749,0,0,1-.355.238.793.793,0,0,1-.138.033l-.044.006-.024,0h-31.295a.713.713,0,0,1-.755-.6c0-.011,0-.022,0-.033V1179.4c0-.011,0-.022,0-.033a.713.713,0,0,1,.755-.6h31.23a.888.888,0,0,1,.133.01.827.827,0,0,1,.138.033.753.753,0,0,1,.355.237.56.56,0,0,1,.13.354" transform="translate(-1313.058 -1031.941)" fill="#ffb93e"/>
    <path id="Path_101" data-name="Path 101" d="M1517.289,1181.683h-16.731a.66.66,0,0,1-.674-.6c0-.011,0-.022,0-.033V1179.4c0-.011,0-.022,0-.033a.66.66,0,0,1,.674-.6h14.676a5.11,5.11,0,0,0,2.048,2.911l.007,0" transform="translate(-1313.059 -1031.942)" fill="#ffa412"/>
    <rect id="Rectangle_132" data-name="Rectangle 132" width="0.355" height="2.915" transform="translate(215.41 146.826)" fill="#ffa412"/>
    <rect id="Rectangle_133" data-name="Rectangle 133" width="0.355" height="2.915" transform="translate(214.209 146.826)" fill="#ffa412"/>
    <rect id="Rectangle_134" data-name="Rectangle 134" width="0.355" height="2.915" transform="translate(212.768 146.826)" fill="#ffa412"/>
    <rect id="Rectangle_135" data-name="Rectangle 135" width="0.355" height="2.915" transform="translate(210.56 146.826)" fill="#ffa412"/>
    <rect id="Rectangle_136" data-name="Rectangle 136" width="0.355" height="2.915" transform="translate(208.224 146.826)" fill="#ffa412"/>
    <rect id="Rectangle_137" data-name="Rectangle 137" width="0.355" height="2.915" transform="translate(204.644 146.826)" fill="#ffa412"/>
    <rect id="Rectangle_138" data-name="Rectangle 138" width="0.355" height="2.915" transform="translate(201.292 146.826)" fill="#ffa412"/>
    <rect id="Rectangle_139" data-name="Rectangle 139" width="0.355" height="2.915" transform="translate(198.299 146.826)" fill="#ffa412"/>
    <rect id="Rectangle_140" data-name="Rectangle 140" width="0.355" height="2.915" transform="translate(216.554 146.826)" fill="#ffa412"/>
    <rect id="Rectangle_141" data-name="Rectangle 141" width="0.355" height="2.915" transform="translate(217.309 146.826)" fill="#ffa412"/>
    <rect id="Rectangle_142" data-name="Rectangle 142" width="0.355" height="2.915" transform="translate(218.039 146.826)" fill="#ffa412"/>
    <path id="Path_102" data-name="Path 102" d="M1755.245,1178.777v2.9a.855.855,0,0,1-.133.01h-.222v-2.916h.222a.87.87,0,0,1,.133.01" transform="translate(-1536.302 -1031.941)" fill="#ffa412"/>
    <path id="Path_103" data-name="Path 103" d="M1759.2,1179.347v2.355a.749.749,0,0,1-.355.237v-2.83a.753.753,0,0,1,.355.238" transform="translate(-1539.768 -1032.241)" fill="#ffa412"/>
    <path id="Path_104" data-name="Path 104" d="M1629.1,1023.408s-1.64,2.309-3.144,2.341a10.984,10.984,0,0,1-3.792-1.07s-1.381-3.077-.444-4.281a2.011,2.011,0,0,1,1.921.316,2.953,2.953,0,0,1,.509.487,1.61,1.61,0,0,0,.789.535c1.073.327,2.347-.441,2.823.3a5.016,5.016,0,0,0,.83.982,3.794,3.794,0,0,0,.508.391" transform="translate(-1419.439 -893.197)" fill="#ffeddc"/>
    <path id="Path_105" data-name="Path 105" d="M1511.582,1078.495s5.8-14.048,16.234-14.316c0,0,9.633,1.07,10.168,14.316Z" transform="translate(-1323.3 -931.626)" fill="#ffeddc"/>
    <path id="Path_106" data-name="Path 106" d="M1618.813,1054.845s4.183.93,5.473.384a1.292,1.292,0,0,0-1.566-1.5,3.7,3.7,0,0,1-2.453-.647c-.654-.333-1.628,1.035-1.454,1.767" transform="translate(-1417.157 -921.863)" fill="#db6a1d"/>
    <path id="Path_107" data-name="Path 107" d="M1640.528,1026.577c-.268.2-1.089-2.828-1.089-2.828a2.966,2.966,0,0,1,.508.487,1.611,1.611,0,0,0,.789.535c0,.088.051,1.611-.209,1.806" transform="translate(-1435.231 -896.232)" fill="#e5c1a1"/>
    <path id="Path_108" data-name="Path 108" d="M1663.125,1035.343a17.272,17.272,0,0,1-2.256,1.193c-.268,0,1.426-2.176,1.426-2.176a5.022,5.022,0,0,0,.829.982" transform="translate(-1453.968 -905.522)" fill="#e5c1a1"/>
    <path id="Path_109" data-name="Path 109" d="M1557.039,1103.713c-.107-.092,4.1-6.2,5.262-6.244s3.765,1.338,5.651,1.516,3.715-.357,4.071.758,1.338,5.068.736,5.7-13.405.247-15.72-1.731" transform="translate(-1363.093 -960.769)" fill="#f9ddbf"/>
    <g id="Group_10" data-name="Group 10" transform="translate(183.486 148.91)" opacity="0.5">
      <g id="Group_9" data-name="Group 9">
        <g id="Group_8" data-name="Group 8" clip-path="url(#clip-path-2)">
          <path id="Path_110" data-name="Path 110" d="M1487.5,1210.738c0,.008,0,.015,0,.022a13.97,13.97,0,0,1-.468,2.89.048.048,0,0,0,0,0q-.056.205-.118.409a14.282,14.282,0,0,1-1.029,2.5,14.5,14.5,0,0,1-1.962,2.843c-.021.025-.042.049-.063.072a15.033,15.033,0,0,1-3.431,2.844q-.415.253-.853.483c-.2.1-.395.2-.594.3-.19.11-.391.2-.58.321a8.108,8.108,0,0,1-1.984.816v-1.282c0-.011,0-.021,0-.032a.606.606,0,0,1,.007-.062.528.528,0,0,1,.018-.07.67.67,0,0,1,.649-.469h-3.339a.669.669,0,0,1-.648-.471.545.545,0,0,1-.018-.07c0-.02-.006-.041-.007-.061s0-.022,0-.033v-1.646c0-.011,0-.022,0-.033s0-.041.007-.062a.545.545,0,0,1,.018-.07.669.669,0,0,1,.648-.471h1.3a.639.639,0,0,1-.355-.46c0-.014,0-.027-.006-.041s0-.018,0-.028,0-.021,0-.032V1217.2c0-.011,0-.021,0-.032a.456.456,0,0,1,.007-.061.575.575,0,0,1,.018-.068.668.668,0,0,1,.649-.472h.748a.671.671,0,0,1-.649-.471.56.56,0,0,1-.018-.07c0-.021-.006-.041-.007-.061v-1.712a.656.656,0,0,1,.594-.6h-2.215a.661.661,0,0,1-.674-.6.327.327,0,0,1,0-.033v-1.646c0-.011,0-.023,0-.033a.244.244,0,0,1,0-.026.65.65,0,0,1,.524-.559.66.66,0,0,1-.585-.542c0-.019,0-.036-.006-.055s0-.022,0-.033v-1.646c0-.012,0-.022,0-.033s0-.041.007-.061a.548.548,0,0,1,.018-.07.669.669,0,0,1,.648-.471h1.3a.639.639,0,0,1-.355-.46c0-.014,0-.027-.006-.041s0-.018,0-.028,0-.022,0-.033v-1.646c0-.011,0-.022,0-.033a.473.473,0,0,1,.007-.061.548.548,0,0,1,.018-.068.668.668,0,0,1,.649-.473h2.552a.668.668,0,0,1-.649-.472.559.559,0,0,1-.017-.068.424.424,0,0,1-.007-.063.313.313,0,0,1,0-.032v-1.647a.316.316,0,0,1,0-.032.654.654,0,0,1,.593-.6h-4.019a.687.687,0,0,1-.564-.288l0-.015.423-2.585,0-.015.6-3.689a16.092,16.092,0,0,1,2.069.417l.119.032.008,0q.593.165,1.17.376l.011,0a15.468,15.468,0,0,1,4.849,2.844c.025.021.051.044.075.067a14.612,14.612,0,0,1,2.033,2.19q.183.24.354.489c.038.055.076.109.112.165a.005.005,0,0,1,0,0q.276.408.525.838a14.329,14.329,0,0,1,.988,2.072,13.851,13.851,0,0,1,.757,2.844c0,.024.008.048.012.072a13.931,13.931,0,0,1,.134,2.822" transform="translate(-1473.077 -1195.498)" fill="#e2810e"/>
        </g>
      </g>
    </g>
    <path id="Path_111" data-name="Path 111" d="M1316.467,1205.2a15.361,15.361,0,1,1,20.868,6.037,15.361,15.361,0,0,1-20.868-6.037" transform="translate(-1150.816 -1035.14)" fill="#e2810e"/>
    <path id="Path_112" data-name="Path 112" d="M1328.49,1216.094q-.284.173-.577.335l-.2.107c-.151.081-.3.158-.455.234a15.361,15.361,0,0,1-14.177-27.247q.3-.163.595-.311t.586-.276a15.327,15.327,0,0,1,4.61-1.24,15.364,15.364,0,0,1,9.617,28.4" transform="translate(-1142.567 -1039.685)" fill="#ffb93e"/>
    <path id="Path_113" data-name="Path 113" d="M1332.424,1229.285a13.818,13.818,0,0,1-3.844-.549,13.677,13.677,0,1,1,3.844.549m-.042-27.161a13.391,13.391,0,1,0,11.751,6.925,13.31,13.31,0,0,0-11.751-6.925" transform="translate(-1154.386 -1052.064)" fill="#ffa412"/>
    <path id="Path_114" data-name="Path 114" d="M1390.62,1242.579c-.03-.076-.062-.149-.1-.221a4.029,4.029,0,0,0-.932-1.331,4.162,4.162,0,0,0-1.467-.863,7.02,7.02,0,0,0-1.863-.35q-1.029-.063-2.238-.029a10.817,10.817,0,0,1-1.278-.026,3.2,3.2,0,0,1-.9-.2,1.576,1.576,0,0,1-.6-.407,2.14,2.14,0,0,1-.382-.629,2.327,2.327,0,0,1-.173-.738,1.587,1.587,0,0,1,.109-.694,1.7,1.7,0,0,1,.428-.607,2.5,2.5,0,0,1,.784-.477,1.976,1.976,0,0,1,1.678.016,2.846,2.846,0,0,1,1.269,1.588l3.13-1.27a5.859,5.859,0,0,0-1.024-1.7,4.39,4.39,0,0,0-3.068-1.513,5.8,5.8,0,0,0-1.889.193l-.886-2.183-1.732.7.874,2.152a6.5,6.5,0,0,0-1.59,1.132,4.857,4.857,0,0,0-1,1.4,3.892,3.892,0,0,0-.369,1.579,4.623,4.623,0,0,0,1.361,3.243,4.1,4.1,0,0,0,1.465.858,6.938,6.938,0,0,0,1.865.338,22.015,22.015,0,0,0,2.244,0,8.31,8.31,0,0,1,1.221.008,3.189,3.189,0,0,1,.894.2,1.691,1.691,0,0,1,.626.425,2.3,2.3,0,0,1,.421.7,1.927,1.927,0,0,1,.149.742,1.58,1.58,0,0,1-.167.706,1.99,1.99,0,0,1-.5.624,3,3,0,0,1-.84.493,3.6,3.6,0,0,1-.919.239,2.1,2.1,0,0,1-.927-.093,2.153,2.153,0,0,1-.846-.547,3.319,3.319,0,0,1-.684-1.11l-3.129,1.271a5.406,5.406,0,0,0,1.231,1.913,4.443,4.443,0,0,0,1.621,1.011,4.953,4.953,0,0,0,1.842.266,7.8,7.8,0,0,0,1.9-.314l.808,1.992,1.722-.7-.812-2a7,7,0,0,0,1.607-1.122,4.741,4.741,0,0,0,.97-1.266c.019-.037.037-.073.055-.11a3.847,3.847,0,0,0,.377-1.571,4.224,4.224,0,0,0-.337-1.714" transform="translate(-1205.832 -1077.792)" fill="#ffa412"/>
    <g id="Group_13" data-name="Group 13" transform="translate(267.809 137.699)" opacity="0.7">
      <g id="Group_12" data-name="Group 12">
        <g id="Group_11" data-name="Group 11" clip-path="url(#clip-path-3)">
          <path id="Path_115" data-name="Path 115" d="M2194.714,1247.875s2.952-3.444.182-5.631a7.857,7.857,0,0,0-3.673-1.125s2.337,3.92,1.581,4.31-2.29-4.556-2.29-4.556-4.6-.447-6.085.266c0,0,3.936,3.221,3.107,3.413s-5.08-2.97-5.08-2.97-4.285.729-4.057,3.343,1.7,3.421,2.354,3.352,4.445-1.519,4.528-.987-2.2,2.27-3.8,2.351c0,0,3.021,3.332,5.029,2.37s2.179-2.486,3.431-3.057,2.32-.57,1.8.013-2.782,1.15-3.5,2.416-1.358,2.12.719,1.807,5.454-1.833,5.6-3.573Z" transform="translate(-2174.86 -1223.889)" fill="#88c9f7"/>
          <path id="Path_116" data-name="Path 116" d="M2195.365,1274.8s11.639-.448,14.209,2.88a8.419,8.419,0,0,0,2.318,3.253l.273.743s-2.017-2.126-2.739-2.255c0,0,1.129-4.124-14.061-4.621" transform="translate(-2189.721 -1253.692)" fill="#88c9f7"/>
          <path id="Path_117" data-name="Path 117" d="M2323.431,1322.119a7.308,7.308,0,0,1,2.671,5.149l-.453.041s-.8-3.413-2.24-4.748.022-.441.022-.441" transform="translate(-2301.259 -1294.88)" fill="#88c9f7"/>
          <path id="Path_118" data-name="Path 118" d="M2363.392,1200.1s-4.139-2.318-2.208-5.464a8.218,8.218,0,0,1,3.2-2.429s-.883,4.691,0,4.8.607-5.3.607-5.3,4.36-2.1,6.071-1.932c0,0-2.7,4.581-1.821,4.47s3.918-4.746,3.918-4.746,4.471-.828,5.188,1.821-.442,3.974-1.1,4.14-4.912.11-4.8.662,2.98,1.435,4.581.938c0,0-1.766,4.36-4.084,4.139s-3.035-1.656-4.471-1.766-2.483.276-1.766.662,3.146.127,4.3,1.112,2.1,1.593-.055,2.034-6.016.166-6.789-1.49Z" transform="translate(-2334.436 -1178.934)" fill="#88c9f7"/>
          <path id="Path_119" data-name="Path 119" d="M2387.675,1211.636s-11.59,3.753-12.915,7.948a8.805,8.805,0,0,1-1.1,4.029v.828s1.214-2.815,1.877-3.2c0,0-2.594-3.643,12.142-9.6" transform="translate(-2345.804 -1198.415)" fill="#88c9f7"/>
          <path id="Path_120" data-name="Path 120" d="M2366.049,1304.167a7.643,7.643,0,0,0-.768,6.018l.46-.124s-.447-3.639.489-5.469-.18-.425-.18-.425" transform="translate(-2338.197 -1278.969)" fill="#88c9f7"/>
          <path id="Path_121" data-name="Path 121" d="M2172.751,1121.521s6.19-3.466,3.3-8.171c0,0-2.311-2.889-4.787-3.631,0,0,1.321,7.015,0,7.18s-.908-7.923-.908-7.923-6.52-3.136-9.078-2.889c0,0,4.044,6.85,2.724,6.685s-5.86-7.1-5.86-7.1-6.685-1.238-7.758,2.724.66,5.942,1.651,6.19,7.345.165,7.18.99-4.457,2.146-6.85,1.4c0,0,2.641,6.52,6.107,6.19s4.539-2.476,6.685-2.641,3.714.412,2.641.99-4.7.189-6.438,1.663-3.136,2.381.083,3.042,9,.248,10.151-2.228Z" transform="translate(-2150.047 -1105.492)" fill="#88c9f7"/>
          <path id="Path_122" data-name="Path 122" d="M2177.281,1138.766s17.332,5.612,19.312,11.884a13.169,13.169,0,0,0,1.651,6.025v1.238s-1.816-4.209-2.806-4.787c0,0,3.879-5.447-18.157-14.36" transform="translate(-2173.889 -1134.621)" fill="#88c9f7"/>
          <path id="Path_123" data-name="Path 123" d="M2339.757,1277.132a11.432,11.432,0,0,1,1.149,9l-.687-.185s.667-5.442-.731-8.179.27-.636.27-.636" transform="translate(-2315.402 -1255.078)" fill="#88c9f7"/>
          <path id="Path_124" data-name="Path 124" d="M2256,1356.808a10.688,10.688,0,0,1-10.689-10.688h21.377A10.688,10.688,0,0,1,2256,1356.808" transform="translate(-2233.448 -1316.147)" fill="#479bff"/>
          <rect id="Rectangle_144" data-name="Rectangle 144" width="21.971" height="0.328" transform="translate(11.623 29.972)" fill="#77a4e5"/>
          <path id="Path_125" data-name="Path 125" d="M2297.435,1425.906h-10.008a.857.857,0,0,1,.857-.857h8.293a.857.857,0,0,1,.857.857" transform="translate(-2270.315 -1385.245)" fill="#479bff"/>
        </g>
      </g>
    </g>
    <path id="Path_126" data-name="Path 126" d="M832.137,774.666c-13.753,11.2-30.229,19.805-48.973,25.584a209.149,209.149,0,0,1-50.137,8.547c-4.921.267-9.713.384-14.326.384-9.328,0-17.93-.474-25.426-1.134l3.033-14.35a267.578,267.578,0,0,0,36.018.561,196.069,196.069,0,0,0,47-7.986c17.095-5.271,32.047-13.058,44.437-23.149Z" transform="translate(-606.921 -668.069)" fill="#3868ad"/>
    <path id="Path_127" data-name="Path 127" d="M877.814,622.124a4.357,4.357,0,0,0-3.445-.369c-5.851-.687-7.559,6.137-7.479,8.485s.347,4.87-2.266,7.92c-7.548,8.811,8.261,9.2,8.261,9.2.133-7.04,8.573-4.471,8.2-3.758,10.818,2.6,1.076-19.223-3.273-21.479" transform="translate(-755.14 -544.141)" fill="#062d66"/>
    <path id="Path_128" data-name="Path 128" d="M760.148,848.625s-1.029-1.567-1.858-1.6-2.365-.461-2.242-.154,1.075.338,1.167.522-1.413.461-1.843.491-1.444,0-1.413.215a4.88,4.88,0,0,0,3.094.983,8.6,8.6,0,0,1,2.834.369Z" transform="translate(-660.045 -741.292)" fill="#ffb27d"/>
    <path id="Path_129" data-name="Path 129" d="M814.144,777.853a15.422,15.422,0,0,1-1.574,2.38c-1.223,1.532-3.108,3.3-5.476,3.65a5.876,5.876,0,0,1-3.253-.528h0a14.834,14.834,0,0,1-5.037-4.211,2.364,2.364,0,0,1,.323-2.319s5.806,1.306,6.358,1.029,3.778-9.568,4.546-10.736,3.386-1.774,3.386-1.774Z" transform="translate(-699.159 -670.013)" fill="#ffaa45"/>
    <path id="Path_130" data-name="Path 130" d="M849.151,863.258c-1.223,1.532-3.108,3.3-5.476,3.65a5.878,5.878,0,0,1-3.253-.528c.112.015,2.984.369,4.128-1.678,1.167-2.089,2.43-5.406,4.164-4.3.748.477.715,1.663.436,2.857" transform="translate(-735.74 -753.038)" fill="#f4932a"/>
    <path id="Path_131" data-name="Path 131" d="M1051.914,1363.5s1.771,1.617,1.426,2.765-1.944,1.914-2.16,3.318-1.08,2.17-1.858,2.17h-3.708s-.573-.988.81-1.286,1.9-1.947,1.818-3.479a26.991,26.991,0,0,1,.129-3.574l2.938-.681Z" transform="translate(-915.27 -1192.993)" fill="#36599e"/>
    <path id="Path_132" data-name="Path 132" d="M905.706,1374.392s.637,6.849-.141,7.231l-9.953-.02s0-1.149,1.6-1.4,4.407-1.191,4.882-3.276,3.612-2.531,3.612-2.531" transform="translate(-784.056 -1203.199)" fill="#2b478b"/>
    <path id="Path_133" data-name="Path 133" d="M915.883,747.053c-2.048-4.593-3.3-5.912-3.062-7.337.178-1.061-.542-19.784-.542-19.784-.243-.075-.73-.143-1-.2a2.5,2.5,0,0,1-1.825-1.587,12.74,12.74,0,0,1-.619-4.224l-.262.052-4.411.874s.1,1.388.1,2.7c0,.011,0,.022,0,.032a2.538,2.538,0,0,1-1.831,2.454c-.557.161-1.042.3-1.042.3a40.45,40.45,0,0,0-1.929,9.376c-.309,4.751,2.946,6.815-.025,16.309-3.032,9.7,17.574,3.582,16.442,1.044" transform="translate(-787.14 -624.994)" fill="#ffb27d"/>
    <path id="Path_134" data-name="Path 134" d="M939.506,715.206s.1,1.388.1,2.7c2.469-.07,3.773-2.322,4.308-3.57Z" transform="translate(-822.482 -625.357)" fill="#e8945b"/>
    <path id="Path_135" data-name="Path 135" d="M919.214,662.023s5.841.1,5.845-3.542.761-6.076-2.968-6.291-4.455,1.172-4.752,2.386.356,7.328,1.875,7.447" transform="translate(-803.015 -570.934)" fill="#ffb27d"/>
    <path id="Path_136" data-name="Path 136" d="M934.623,646.433s1.6,4.268,4.053,4.9,3.519-.027,3.519-.027a6.951,6.951,0,0,1-2.273-4.106s-4.092-2.8-5.3-.767" transform="translate(-818.207 -565.267)" fill="#062d66"/>
    <path id="Path_137" data-name="Path 137" d="M917.019,649.521a3.623,3.623,0,0,0-1.674,1.308,5.88,5.88,0,0,0-.79,3.34s-1.2-2.9.149-4.542c1.436-1.74,2.314-.106,2.314-.106" transform="translate(-800.207 -568.008)" fill="#062d66"/>
    <path id="Path_138" data-name="Path 138" d="M928.265,711.736a1.468,1.468,0,0,1-1.209.492,1.074,1.074,0,0,1-.9-.594,3.925,3.925,0,0,1,2.109.1" transform="translate(-810.795 -622.905)" fill="#ebf3fa"/>
    <path id="Path_139" data-name="Path 139" d="M911.728,770.474a39.66,39.66,0,0,1,0,4.6c-.1,1.663-1.781,3.891-2.02,4.442-.6,1.382-1.274,1.607-1.274,1.607l-5.226,1.281-1.837.45-5.794-1.731s-2.639-7.367-1.579-11.513a31.872,31.872,0,0,1,2.679-7.026s4.728,4.63,10.885-.392Z" transform="translate(-782.421 -667.254)" fill="#ffaa45"/>
    <path id="Path_140" data-name="Path 140" d="M889.9,923.163s-2.869,8.932-3.054,11.973,5.485,43.2,5.714,44.6c.215,1.321,1.855,2.163,1.855,2.163a2.482,2.482,0,0,0,1.831.141,4.528,4.528,0,0,0,1.966-.927s2.233-28.641.851-38.872a162.034,162.034,0,0,1-1.4-19.078Z" transform="translate(-776.381 -808.175)" fill="#062d66"/>
    <path id="Path_141" data-name="Path 141" d="M930.2,921.025s4.377,5.873,4.785,9.843.64,17.916,1.51,21.786,4.063,11.318,4.063,23.39a2.408,2.408,0,0,1-1.357,1.06,11.19,11.19,0,0,1-1.193.33,1.876,1.876,0,0,1-2.1-1c-2.16-4.348-9.038-18.371-9.391-21.282-.25-2.06-2.422-15.694-7.159-23.694-1.137-1.921.7-9.559.7-9.559Z" transform="translate(-804.516 -806.303)" fill="#063992"/>
    <path id="Path_142" data-name="Path 142" d="M927.736,712.024s-.1.429-1.168.363c0,0-.9-.055-.868-.526a2.881,2.881,0,0,1,2.036.164" transform="translate(-810.396 -623.096)" fill="#fff"/>
    <path id="Path_143" data-name="Path 143" d="M906.575,912.094a6.015,6.015,0,0,0,3.44.957c2.734.055,9.507-.7,9.507-.7a5.6,5.6,0,0,1,.289,1.729s-8.272,2.087-13.066.3a3.029,3.029,0,0,1-.17-2.294" transform="translate(-793.51 -798.485)" fill="#233862"/>
    <path id="Path_144" data-name="Path 144" d="M921.308,918.847a1.423,1.423,0,1,1,1.247-1.412,1.339,1.339,0,0,1-1.247,1.412m0-2.41a1.014,1.014,0,1,0,.834,1,.928.928,0,0,0-.834-1" transform="translate(-805.459 -801.925)" fill="#fff"/>
    <rect id="Rectangle_146" data-name="Rectangle 146" width="11.238" height="15.383" transform="matrix(0.754, -0.657, 0.657, 0.754, 116.34, 111.004)" fill="#b5453c"/>
    <path id="Path_145" data-name="Path 145" d="M974.559,925.282s-3.105.363-3.1,1.1.774,2.252,1.157,2.319,2.527-2.048,2.527-2.048Z" transform="translate(-850.459 -810.03)" fill="#ffb27d"/>
    <path id="Path_146" data-name="Path 146" d="M991.429,762.192a7.071,7.071,0,0,1,5.735,4.154c1.589,3.863,4.6,10.35,4.6,11.441s-1.685,4.455-10.731,6.389c0,0-.936-.984-.879-1.763,0,0,5.647-4.85,5.631-5.417-.029-1.072-.926-2.488-5.883-7.447-1.348-1.348,1.521-7.358,1.521-7.358" transform="translate(-866.29 -667.254)" fill="#ffaa45"/>
    <path id="Path_147" data-name="Path 147" d="M281.343,1231.8H281.3a.43.43,0,0,1-.43-.44l.652-28.258,1.92-.224-1.638,28.484a.465.465,0,0,1-.464.438" transform="translate(-245.887 -1053.045)" fill="#95c0f4"/>
    <path id="Path_148" data-name="Path 148" d="M517.812,1231.8h.041a.43.43,0,0,0,.43-.44l-.652-28.258-1.921-.224,1.638,28.484a.465.465,0,0,0,.464.438" transform="translate(-451.474 -1053.045)" fill="#b0d4ff"/>
    <path id="Path_149" data-name="Path 149" d="M274.437,1011.148V991.784a6.169,6.169,0,0,1,6.169-6.169h13.951a6.169,6.169,0,0,1,6.169,6.169v20.1Z" transform="translate(-240.253 -862.848)" fill="#b0d4ff"/>
    <path id="Path_150" data-name="Path 150" d="M303.226,1193.659H276.289a1.852,1.852,0,0,1-1.852-1.852v-1.2h28.789Z" transform="translate(-240.253 -1042.302)" fill="#95c0f4"/>
    <path id="Path_151" data-name="Path 151" d="M378.626,1193.659H358.247a1.37,1.37,0,0,1-1.37-1.37v-.318a1.37,1.37,0,0,1,1.37-1.37h20.379a1.37,1.37,0,0,1,1.37,1.37v.318a1.37,1.37,0,0,1-1.37,1.37" transform="translate(-312.425 -1042.302)" fill="#b0d4ff"/>
    <path id="Path_152" data-name="Path 152" d="M419.914,1147.861a12.977,12.977,0,0,1-4.512,4.821H404.944s16.495-7.475,14.97-4.821" transform="translate(-354.504 -1004.386)" fill="#233862"/>
    <path id="Path_153" data-name="Path 153" d="M458.9,1306.971a.967.967,0,0,0-.172,1.034.009.009,0,0,0,0,.005,6.428,6.428,0,0,0,2.031,2.228c.123.1.231.188.326.272.025.022.05.044.073.066l.056.051c.892.823.557,1.011,2.16,2.681,1.829,1.9,3.087,1.937,3.446,1.764.3-.148-.313-1.157-.995-2.291-.033-.055-.065-.11-.1-.165-.091-.151-.181-.3-.271-.455-.8-1.365-.594-2.006-.4-4.037.154-1.651,2.568-9.222,2.568-9.222l-3.5-.6s-1.055,6.029-2.218,6.957c-.622.495-1.318.5-1.915.868-.042.026-.084.052-.124.079a4.6,4.6,0,0,0-.959.771" transform="translate(-401.518 -1136.583)" fill="#ffb27d"/>
    <path id="Path_154" data-name="Path 154" d="M458.9,1361.97a.967.967,0,0,0-.172,1.034.009.009,0,0,0,0,.005,7.443,7.443,0,0,0,2.034,2.221c.121.1.228.193.323.279l.073.066.056.051c.892.823.557,1.011,2.16,2.681,1.829,1.9,3.087,1.937,3.446,1.764.3-.148-.313-1.157-.995-2.291a7.8,7.8,0,0,1-3.259-2.4c-1.1-1.405-1.835-3.21-2.585-4.256-.042.026-.084.052-.124.079a4.6,4.6,0,0,0-.959.771" transform="translate(-401.518 -1191.581)" fill="#233862"/>
    <path id="Path_155" data-name="Path 155" d="M667.787,1297.289c.216,1.082,1.758.9,3.481.48s1.313.079,3.765-.192,3.194-1.186,3.269-1.55c.067-.323-1.144-.437-2.444-.587-.163-.018-.327-.038-.492-.059-1.467-.184-2.541-1.131-3.874-1.908-1.262-.737-3.146-3.737-3.146-3.737l-3.362.266s1.764,2.68,2.447,3.845a4.063,4.063,0,0,1,.33,2.291,4.315,4.315,0,0,0,.026,1.15" transform="translate(-582.154 -1129.089)" fill="#ffb27d"/>
    <path id="Path_156" data-name="Path 156" d="M690.6,1337.854c1.722-.421,1.313.079,3.765-.192s3.194-1.186,3.269-1.55c.067-.323-1.144-.437-2.444-.587l-.012.025a6.912,6.912,0,0,1-3.511,1.091c-1.663.04-3.425-.436-4.573-.418a4.311,4.311,0,0,0,.026,1.15c.216,1.082,1.758.9,3.481.48" transform="translate(-601.489 -1169.173)" fill="#233862"/>
    <path id="Path_157" data-name="Path 157" d="M502.98,1139.9l-3.143,8.457-4.1,11.043a6.651,6.651,0,0,1-2.18-.2,9.449,9.449,0,0,1-2.108-1.026s1.139-11.857,3.265-18.663a12.121,12.121,0,0,1,1.829-3.956c3.295-3.894,6.441,4.344,6.441,4.344" transform="translate(-430.232 -993.197)" fill="#062d66"/>
    <path id="Path_158" data-name="Path 158" d="M344.731,1058.078c-2.059-.664-7.932.189-13.831,1.344l-1.235-2.037-12.742-1s-4.2,9.324-1.9,15.266a2.154,2.154,0,0,0,2.157,1.452h.186s7.584,0,10.046,0c6.337,0,13.411-4.356,14.326-4.539,1.5-.3,2.1,2.7,3.6,5.842s14.08,13.93,14.08,13.93a11.074,11.074,0,0,0,2.733-.281,2.692,2.692,0,0,0,1.173-.74s-13.942-27.738-18.585-29.236" transform="translate(-275.178 -924.807)" fill="#063992"/>
    <path id="Path_159" data-name="Path 159" d="M281.611,758.989a13.437,13.437,0,0,0-4.52-1.027c-4.828-.649-7.734,6.367-7.905,8.493-.315,3.919-2.388,4.516-5.306,6.97-5.851,4.921-4.135,10.639-.936,12.763,1.919,1.275,5.3,0,5.3,0,.048.034,9.253-5.146,13.79-7.644,6.8-.967,3.733-17.371-.426-19.555" transform="translate(-227.626 -663.514)" fill="#062d66"/>
    <path id="Path_160" data-name="Path 160" d="M362.67,856.284a6,6,0,0,1-3.739.115c-1.417-.626-2.49-2.958-2.469-2.959.645-.03,1.352-.593,1.9-4.291l.275.1,4.615,1.661s-.334,1.481-.551,2.891c-.182,1.184-.28,2.318-.028,2.485" transform="translate(-312.061 -743.38)" fill="#ffb27d"/>
    <path id="Path_161" data-name="Path 161" d="M378.513,851.6s-.334,1.481-.551,2.891c-2.651-.477-3.691-3.118-4.064-4.551Z" transform="translate(-327.326 -744.072)" fill="#ed975d"/>
    <path id="Path_162" data-name="Path 162" d="M375.952,797.011s-6.314-.847-5.726-4.771.169-6.676,4.226-6.3,4.613,1.99,4.735,3.347-1.578,7.844-3.235,7.725" transform="translate(-324.077 -688.013)" fill="#ffb27d"/>
    <path id="Path_163" data-name="Path 163" d="M366.224,784.7s-4.042,3.483-6.791,3.764-3.79-.6-3.79-.6a10.737,10.737,0,0,0,2.6-3.517,1.933,1.933,0,0,1,1.594-1.14c1.963-.169,5.685-.247,6.392,1.494" transform="translate(-311.344 -685.576)" fill="#062d66"/>
    <path id="Path_164" data-name="Path 164" d="M420.306,787.971a9.952,9.952,0,0,1,1.778,2.277,7.642,7.642,0,0,1,.207,4.063s2.107-4.1.914-6.087c-1.265-2.11-2.9-.253-2.9-.253" transform="translate(-367.953 -689.161)" fill="#062d66"/>
    <path id="Path_165" data-name="Path 165" d="M329.9,894.695c-.191,12.781-.053,10.11-1.451,11.323a5.369,5.369,0,0,1-2.53.548c-3.919.26-10.808-.386-11.07-1.11-.9-2.506-.266-3.285-1.02-7.121-.079-.408-.176-.85-.29-1.331-.629-2.635-1.241-3.531.99-7.765,2.023-3.835,4.125-6.947,4.314-6.835,5.338,3.169,5.768.505,5.768.505s5.383,5.551,5.289,11.785" transform="translate(-273.978 -772.491)" fill="#479bff"/>
    <path id="Path_166" data-name="Path 166" d="M499.837,1183.506l-4.1,11.042a6.647,6.647,0,0,1-2.18-.2,9.453,9.453,0,0,1-2.108-1.026s1.139-11.857,3.265-18.663Z" transform="translate(-430.232 -1028.346)" fill="#063992"/>
    <path id="Path_167" data-name="Path 167" d="M406.526,886.476s5.492.931,6.137,3.3,4.44,16.267,4.44,16.267-2.792.5-4.082-.788-4.488-11.967-4.488-11.967Z" transform="translate(-355.889 -776.058)" fill="#479bff"/>
    <path id="Path_168" data-name="Path 168" d="M332.053,981.144c-3.919.26-10.808-.386-11.07-1.11-.9-2.506-.266-3.284-1.02-7.121l1.89-5.323s-.312,5.927,1.436,7.486,7.157,3.009,8.006,4.312a4.767,4.767,0,0,1,.758,1.756" transform="translate(-280.109 -847.068)" fill="#458fd8"/>
    <path id="Path_169" data-name="Path 169" d="M380.978,1052.183s3.866-.861,4.49-.518a9.08,9.08,0,0,1,2.339,2.027c.191.435-1.389-.33-1.9-.468a4.571,4.571,0,0,0-1.642.36,5.459,5.459,0,0,1-2.943.3Z" transform="translate(-333.524 -920.6)" fill="#ffb27d"/>
    <path id="Path_170" data-name="Path 170" d="M272.162,882.4s-5.192.32-6.989,2.826c-2.53,3.529-7.549,18.566-4.672,20.572,3.239,2.259,14.742.591,14.742.591a4.67,4.67,0,0,0-.15-2.655c-.532-.865-9.187-2.264-9.587-2.663s4.993-7.789,4.993-8.988,1.663-9.684,1.663-9.684" transform="translate(-227.297 -772.492)" fill="#479bff"/>
    <path id="Path_171" data-name="Path 171" d="M418.53,1060.873a7.473,7.473,0,0,0,1.076,1.17.791.791,0,0,0,.437.094l-.546-.983Z" transform="translate(-366.398 -928.732)" fill="#ffb27d"/>
    <path id="Path_172" data-name="Path 172" d="M417.027,1052.233l2.355,1.144a.42.42,0,0,1-.39.151,5.626,5.626,0,0,1-1.021-.281Z" transform="translate(-365.082 -921.168)" fill="#ffb27d"/>
    <path id="Path_173" data-name="Path 173" d="M420.326,985.159H440.2l5.978-13.937H426.334Z" transform="translate(-367.97 -850.247)" fill="#ffaa45"/>
    <path id="Path_174" data-name="Path 174" d="M397.3,1075.865h-26.24v.88h26.008Z" transform="translate(-324.844 -941.857)" fill="#ffaa45"/>
    <path id="Path_175" data-name="Path 175" d="M526.019,1020.934a.654.654,0,0,0-.675-.887,1.345,1.345,0,0,0-1.218.887.654.654,0,0,0,.675.887,1.344,1.344,0,0,0,1.217-.887" transform="translate(-458.808 -892.991)" fill="#ebf3fa"/>
    <path id="Path_176" data-name="Path 176" d="M796.213,1141.595h.054a.6.6,0,0,0,.569-.642l-.862-41.231-2.54-.327,2.166,41.561a.644.644,0,0,0,.613.639" transform="translate(-694.604 -962.456)" fill="#233862"/>
    <path id="Path_177" data-name="Path 177" d="M381.557,1141.595H381.5a.6.6,0,0,1-.568-.642l.862-41.231,2.54-.327-2.166,41.561a.644.644,0,0,1-.613.639" transform="translate(-333.485 -962.456)" fill="#233862"/>
    <path id="Path_178" data-name="Path 178" d="M410.645,1086.066H352.789a.925.925,0,0,1-.925-.926v-1.1a.925.925,0,0,1,.925-.925h57.856a.925.925,0,0,1,.925.925v1.1a.925.925,0,0,1-.925.926" transform="translate(-308.036 -948.204)" fill="#233862"/>
    <path id="Path_179" data-name="Path 179" d="M314.378,1433.271H.763a.453.453,0,0,1-.452-.452v-.438a.453.453,0,0,1,.452-.452H314.378a.453.453,0,0,1,.452.452v.438a.453.453,0,0,1-.452.452" transform="translate(-0.272 -1253.57)" fill="#2a63c9"/>
  </g>
</svg>
