<svg xmlns="http://www.w3.org/2000/svg" xmlns:xlink="http://www.w3.org/1999/xlink" width="38.779" height="52.589" viewBox="0 0 38.779 52.589">
  <defs>
    <clipPath id="clip-path">
      <rect id="Rectangle_4756" data-name="Rectangle 4756" width="38.779" height="52.589" fill="none"/>
    </clipPath>
  </defs>
  <g id="Logo" clip-path="url(#clip-path)">
    <path id="Path_10934" data-name="Path 10934" d="M12.536,46.831s-2.021,1.229,1.405,1.581a28.811,28.811,0,0,0,10.888-.439,16.452,16.452,0,0,0,2.9,1.405c-10.272,4.391-23.271-.263-15.192-2.547Zm-1.315-5.708s-2.2,1.668,1.229,2.021a41.59,41.59,0,0,0,14.051-.7,5.356,5.356,0,0,0,2.107,1.316c-12.382,3.688-26.256.352-17.388-2.634ZM35.457,51.132s1.492,1.229-1.668,2.2c-5.884,1.758-24.675,2.284-29.944,0C2,52.538,5.514,51.4,6.64,51.22A8.781,8.781,0,0,1,8.4,50.957c-2.021-1.405-13.435,2.9-5.795,4.125,20.987,3.425,38.286-1.492,32.841-3.951ZM13.486,35.151s-9.571,2.284-3.425,3.073a76.436,76.436,0,0,0,12.645-.087c3.951-.352,7.9-1.052,7.9-1.052a21.163,21.163,0,0,0-2.371,1.229C18.494,40.862-.212,39.72,5.146,37.085a18.2,18.2,0,0,1,8.342-1.931Zm17.125,9.571c9.834-5.095,5.269-10.009,2.107-9.4a5.551,5.551,0,0,0-1.142.352,1.505,1.505,0,0,1,.878-.7c6.235-2.2,11.152,6.585-2.021,10.009a1.1,1.1,0,0,0,.176-.263ZM14.456,58.6c9.483.615,23.973-.352,24.323-4.832,0,0-.7,1.758-7.815,3.073a79.157,79.157,0,0,1-23.973.352s1.229,1.052,7.465,1.405Z" transform="translate(0 -6.174)" fill="#555"/>
    <path id="Path_10935" data-name="Path 10935" d="M27.375,0s5.445,5.532-5.18,13.874c-8.518,6.761-1.931,10.625,0,15.016-5.006-4.478-8.605-8.431-6.146-12.117C19.647,11.327,29.57,8.709,27.375,0M24.581,25.2c2.547,2.9-.7,5.532-.7,5.532s6.5-3.336,3.512-7.465c-2.722-3.951-4.832-5.884,6.585-12.469,0,0-18,4.478-9.4,14.4" transform="translate(-2.72 0)" fill="#a8a8a8"/>
  </g>
</svg>
