<svg xmlns="http://www.w3.org/2000/svg" width="42.774" height="45.627" viewBox="0 0 42.774 45.627">
  <g id="Logo" transform="translate(-2239.524 -1034.969)">
    <path id="Path_10775" data-name="Path 10775" d="M2445.613,1256a3.519,3.519,0,0,1-1.754-.469l-5.581-3.3c-.834-.466-.427-.631-.152-.726a11.25,11.25,0,0,0,2.523-1.151.421.421,0,0,1,.415.029l4.288,2.545a.568.568,0,0,0,.519,0l16.719-9.651a.526.526,0,0,0,.255-.452V1223.53a.537.537,0,0,0-.258-.461l-16.713-9.642a.516.516,0,0,0-.515,0l-16.709,9.642a.533.533,0,0,0-.265.456v19.293a.515.515,0,0,0,.26.448l4.578,2.645c2.486,1.243,4.005-.222,4.005-1.7v-19.042a.477.477,0,0,1,.485-.481h2.118a.478.478,0,0,1,.481.481v19.05c0,3.314-1.808,5.219-4.95,5.219a7.165,7.165,0,0,1-3.855-1.047l-4.385-2.528a3.534,3.534,0,0,1-1.754-3.051v-19.293a3.512,3.512,0,0,1,1.754-3.047l16.736-9.655a3.664,3.664,0,0,1,3.515,0l16.715,9.659a3.528,3.528,0,0,1,1.753,3.047v19.293a3.538,3.538,0,0,1-1.753,3.047l-16.715,9.655a3.512,3.512,0,0,1-1.762.469" transform="translate(-183.544 -175.406)" fill="gray"/>
    <path id="Path_10776" data-name="Path 10776" d="M2486.977,1262.624c-7.316,0-8.85-3.358-8.85-6.175a.481.481,0,0,1,.484-.481h2.159a.484.484,0,0,1,.478.409c.326,2.2,1.3,3.311,5.721,3.311,3.524,0,5.022-.8,5.022-2.664,0-1.076-.427-1.875-5.9-2.411-4.578-.452-7.407-1.46-7.407-5.123,0-3.373,2.846-5.382,7.612-5.382,5.354,0,8.006,1.858,8.342,5.851a.489.489,0,0,1-.13.372.5.5,0,0,1-.355.155h-2.173a.479.479,0,0,1-.468-.377c-.523-2.314-1.787-3.055-5.223-3.055-3.846,0-4.294,1.339-4.294,2.344,0,1.218.528,1.573,5.717,2.26,5.14.682,7.58,1.645,7.58,5.256,0,3.641-3.039,5.729-8.337,5.729" transform="translate(-219.743 -195.323)" fill="gray"/>
    <path id="Path_10785" data-name="Path 10785" d="M2418.991,1219.61l-.188.345a2.106,2.106,0,0,1-.418.079,1.8,1.8,0,0,1-.345,0,2.118,2.118,0,0,0,.631-.235Z" transform="translate(-178.516 -181.742)" fill="gray"/>
  </g>
</svg>
