<svg xmlns="http://www.w3.org/2000/svg" xmlns:xlink="http://www.w3.org/1999/xlink" width="422.885" height="427.129" viewBox="0 0 422.885 427.129">
  <defs>
    <clipPath id="clip-path">
      <rect id="Rectangle_4628" data-name="Rectangle 4628" width="422.885" height="427.129" fill="none"/>
    </clipPath>
    <clipPath id="clip-path-3">
      <rect id="Rectangle_4612" data-name="Rectangle 4612" width="50.812" height="122.952" fill="none"/>
    </clipPath>
    <clipPath id="clip-path-4">
      <rect id="Rectangle_4613" data-name="Rectangle 4613" width="57.068" height="126.061" fill="none"/>
    </clipPath>
    <clipPath id="clip-path-5">
      <rect id="Rectangle_4614" data-name="Rectangle 4614" width="41.732" height="70.252" fill="none"/>
    </clipPath>
    <clipPath id="clip-path-6">
      <rect id="Rectangle_4615" data-name="Rectangle 4615" width="24.305" height="69.6" fill="none"/>
    </clipPath>
    <clipPath id="clip-path-7">
      <rect id="Rectangle_4616" data-name="Rectangle 4616" width="15.933" height="15.932" fill="none"/>
    </clipPath>
    <clipPath id="clip-path-8">
      <rect id="Rectangle_4617" data-name="Rectangle 4617" width="47.377" height="9.405" fill="none"/>
    </clipPath>
    <clipPath id="clip-path-9">
      <rect id="Rectangle_4618" data-name="Rectangle 4618" width="209.27" height="248.688" fill="none"/>
    </clipPath>
    <clipPath id="clip-path-10">
      <rect id="Rectangle_4621" data-name="Rectangle 4621" width="6.897" height="10.129" fill="none"/>
    </clipPath>
    <clipPath id="clip-path-11">
      <path id="Path_10286" data-name="Path 10286" d="M40.628,98.641V114.43h2.623v-7.883a4.594,4.594,0,0,1,1.127-.84,2.743,2.743,0,0,1,1.275-.307,1.708,1.708,0,0,1,1.386.548,2.33,2.33,0,0,1,.462,1.546v6.937h2.625v-6.937a5.55,5.55,0,0,0-.239-1.675,3.729,3.729,0,0,0-.7-1.306,3.114,3.114,0,0,0-1.151-.85,3.923,3.923,0,0,0-1.584-.3,4.078,4.078,0,0,0-1.8.373,5.553,5.553,0,0,0-1.4.977V98.641Z" transform="translate(-40.628 -98.641)" fill="none"/>
    </clipPath>
    <clipPath id="clip-path-13">
      <rect id="Rectangle_4624" data-name="Rectangle 4624" width="2.623" height="15.789" fill="none"/>
    </clipPath>
    <clipPath id="clip-path-15">
      <path id="Path_10303" data-name="Path 10303" d="M200.007,141.428c3.063,4.042,12.475,2.142,12.475,2.142l-2.345-14.257-6.007-.543s-4.193,12.566-4.123,12.657" transform="translate(-200.007 -128.771)" fill="none"/>
    </clipPath>
    <linearGradient id="linear-gradient" x1="-27.381" y1="12.325" x2="-27.244" y2="12.325" gradientUnits="objectBoundingBox">
      <stop offset="0" stop-color="#febbba"/>
      <stop offset="1" stop-color="#ff928e"/>
    </linearGradient>
  </defs>
  <g id="Illustration" clip-path="url(#clip-path)">
    <g id="Group_1630" data-name="Group 1630">
      <g id="Group_1629" data-name="Group 1629" clip-path="url(#clip-path)">
        <path id="Path_10171" data-name="Path 10171" d="M405.161,288.387c-41.03,96.606-150.321,150.726-245.1,136.128-15.421-2.376-57.7-9.452-95.136-42.835-72.063-64.264-87.474-191.517-29.343-281.2C77.892,35.213,153.734-1.784,225.8.066c15.523.4,75.014,2.855,127.3,45.965a196.083,196.083,0,0,1,39.88,45.251c35.843,56.052,38.924,134.145,12.185,197.105" transform="translate(0 0)" fill="#e7f3fd"/>
        <g id="Group_1607" data-name="Group 1607" transform="translate(2.36 10.86)" opacity="0.3">
          <g id="Group_1606" data-name="Group 1606">
            <g id="Group_1605" data-name="Group 1605" clip-path="url(#clip-path-3)">
              <path id="Path_10172" data-name="Path 10172" d="M52.053,125.157a1.705,1.705,0,0,1-2.06.979c-1.847-.55-3.7-1.189-5.5-1.9a1.7,1.7,0,0,1-.964-2.209l.012-.031a1.707,1.707,0,0,1,2.2-.933c1.711.673,3.467,1.28,5.221,1.8a1.705,1.705,0,0,1,1.148,2.12,1.617,1.617,0,0,1-.06.168m-13.673-5.8c-.026.06-.055.122-.088.182a1.705,1.705,0,0,1-2.323.651c-1.685-.947-3.348-1.974-4.941-3.056a1.7,1.7,0,1,1,1.915-2.821c1.513,1.029,3.092,2,4.695,2.9a1.705,1.705,0,0,1,.74,2.139m-12.054-8.667a1.791,1.791,0,0,1-.309.491,1.708,1.708,0,0,1-2.41.119c-1.431-1.3-2.821-2.67-4.137-4.083a1.7,1.7,0,0,1,2.5-2.321c1.251,1.343,2.572,2.647,3.929,3.877a1.7,1.7,0,0,1,.431,1.917M16.508,99.547a1.671,1.671,0,0,1-.6.742,1.7,1.7,0,0,1-2.374-.421c-1.1-1.584-2.154-3.235-3.12-4.906a1.7,1.7,0,1,1,2.95-1.706c.919,1.587,1.914,3.156,2.965,4.661a1.7,1.7,0,0,1,.175,1.63M9.426,86.493a1.705,1.705,0,0,1-3.154-.012c-.725-1.787-1.383-3.626-1.955-5.473A1.7,1.7,0,0,1,7.572,80c.545,1.756,1.168,3.506,1.857,5.2a1.7,1.7,0,0,1,0,1.3M5.406,72.2a1.7,1.7,0,0,1-3.257-.376c-.313-1.9-.548-3.845-.7-5.77a1.7,1.7,0,0,1,3.4-.263c.143,1.828.364,3.673.661,5.482a1.706,1.706,0,0,1-.107.928M25.623,12.954a1.734,1.734,0,0,1-.414.591c-1.338,1.249-2.64,2.573-3.872,3.937A1.7,1.7,0,1,1,18.809,15.2c1.294-1.434,2.666-2.831,4.077-4.145a1.706,1.706,0,0,1,2.738,1.9M4.653,57.375a1.7,1.7,0,0,1-3.276-.759c.119-1.926.323-3.87.606-5.779a1.705,1.705,0,0,1,3.374.5c-.271,1.812-.464,3.659-.577,5.489a1.7,1.7,0,0,1-.127.548M15.974,24.242a1.915,1.915,0,0,1-.163.3c-1.026,1.517-2,3.1-2.9,4.7a1.705,1.705,0,0,1-2.977-1.663c.945-1.687,1.967-3.353,3.049-4.951a1.705,1.705,0,0,1,2.987,1.608M7.232,42.758a1.705,1.705,0,0,1-3.209-1.139c.546-1.848,1.18-3.7,1.883-5.5l.015-.034A1.7,1.7,0,0,1,9.08,37.362c-.668,1.709-1.268,3.467-1.788,5.224-.019.058-.04.117-.06.172" transform="translate(-1.373 -3.255)" fill="#91b3fa"/>
              <path id="Path_10173" data-name="Path 10173" d="M23.311,8.682a1.7,1.7,0,0,1-.655.78c-.74.474-1.483.971-2.207,1.477A1.7,1.7,0,1,1,18.5,8.146c.763-.534,1.543-1.056,2.323-1.555a1.7,1.7,0,0,1,2.493,2.091" transform="translate(10.394 -6.322)" fill="#91b3fa"/>
            </g>
          </g>
        </g>
        <g id="Group_1610" data-name="Group 1610" transform="translate(81.362 1.579)" opacity="0.3">
          <g id="Group_1609" data-name="Group 1609">
            <g id="Group_1608" data-name="Group 1608" clip-path="url(#clip-path-4)">
              <path id="Path_10174" data-name="Path 10174" d="M53.3,3.86a1.705,1.705,0,0,1-1.97,1c-.854-.2-1.728-.393-2.6-.563A1.705,1.705,0,0,1,49.395.952c.914.179,1.833.38,2.733.594A1.7,1.7,0,0,1,53.389,3.6a1.578,1.578,0,0,1-.084.259" transform="translate(-47.362 -0.919)" fill="#91b3fa"/>
              <path id="Path_10175" data-name="Path 10175" d="M94.514,92.48q-.451,1.085-.943,2.165a1.7,1.7,0,1,1-3.1-1.412c.756-1.661,1.443-3.348,2.049-5.035a1.7,1.7,0,1,1,3.209,1.153c-.374,1.043-.783,2.1-1.213,3.13M89.29,102.562a1.676,1.676,0,0,1-.134.258c-1.015,1.608-2.11,3.192-3.254,4.705a1.7,1.7,0,1,1-2.719-2.055c1.086-1.438,2.125-2.943,3.09-4.472a1.705,1.705,0,0,1,3.017,1.563m8.875-21.846a1.7,1.7,0,0,1-3.242-1.007c.373-1.763.673-3.565.9-5.358a1.705,1.705,0,0,1,3.384.419c-.234,1.888-.551,3.786-.941,5.641a1.745,1.745,0,0,1-.1.3M80.173,113.988a1.7,1.7,0,0,1-.368.55c-1.343,1.345-2.759,2.649-4.209,3.876a1.7,1.7,0,0,1-2.2-2.6c1.376-1.165,2.721-2.4,4-3.68a1.7,1.7,0,0,1,2.781,1.859m19.4-47.808a1.7,1.7,0,0,1-3.279-.63c-.024-1.8-.127-3.623-.306-5.422a1.7,1.7,0,0,1,3.393-.335c.187,1.893.3,3.814.323,5.708a1.683,1.683,0,0,1-.131.679m-1.814-14.5a1.7,1.7,0,0,1-3.231-.256c-.421-1.756-.919-3.515-1.483-5.227a1.7,1.7,0,1,1,3.238-1.067c.593,1.8,1.118,3.654,1.56,5.5a1.685,1.685,0,0,1-.084,1.048M92.83,37.929a1.7,1.7,0,0,1-3.106.093c-.792-1.623-1.661-3.231-2.584-4.779A1.7,1.7,0,1,1,90.068,31.5c.972,1.629,1.886,3.321,2.721,5.03a1.7,1.7,0,0,1,.041,1.4m-7.813-12.35a1.7,1.7,0,0,1-2.9.409c-1.127-1.412-2.328-2.79-3.568-4.1a1.7,1.7,0,0,1,2.474-2.347c1.306,1.378,2.57,2.829,3.757,4.314a1.7,1.7,0,0,1,.242,1.721M74.681,15.239a1.671,1.671,0,0,1-.244.411,1.7,1.7,0,0,1-2.395.268c-1.409-1.125-2.883-2.2-4.382-3.207a1.705,1.705,0,1,1,1.9-2.834c1.579,1.058,3.132,2.194,4.612,3.377a1.707,1.707,0,0,1,.512,1.986M62.333,7.43c-.014.033-.027.064-.043.1a1.708,1.708,0,0,1-2.281.783c-1.194-.584-2.419-1.137-3.644-1.647q-.665-.276-1.333-.536a1.7,1.7,0,0,1-.969-2.207A1.686,1.686,0,0,1,56.27,2.95q.7.273,1.4.565c1.288.534,2.579,1.117,3.834,1.732a1.7,1.7,0,0,1,.826,2.183" transform="translate(-42.636 0.453)" fill="#91b3fa"/>
              <path id="Path_10176" data-name="Path 10176" d="M64.9,73.856a1.7,1.7,0,0,1-.661.785c-.78.493-1.586.981-2.393,1.446a1.7,1.7,0,0,1-1.7-2.953c.768-.443,1.532-.905,2.273-1.374a1.705,1.705,0,0,1,2.486,2.1" transform="translate(-38.803 49.746)" fill="#91b3fa"/>
            </g>
          </g>
        </g>
        <path id="Path_10177" data-name="Path 10177" d="M82.038,108.124a.794.794,0,0,0,.567-.73l.4-9.689a42.223,42.223,0,0,0,10.615-8.637l9.563,1.568a.8.8,0,0,0,.83-.407l5.523-10.237a.8.8,0,0,0-.115-.919l-6.562-7.129a42.255,42.255,0,0,0,1.388-13.616l7.876-5.655a.8.8,0,0,0,.3-.876l-3.333-11.144a.8.8,0,0,0-.732-.567l-9.689-.4a42.246,42.246,0,0,0-8.637-10.615l1.57-9.563a.8.8,0,0,0-.409-.83L80.957,13.153a.8.8,0,0,0-.917.115l-7.131,6.564A42.2,42.2,0,0,0,59.3,18.442l-5.657-7.876a.794.794,0,0,0-.874-.3L41.62,13.6a.8.8,0,0,0-.569.73l-.4,9.689a42.186,42.186,0,0,0-10.615,8.637l-9.563-1.568a.8.8,0,0,0-.831.407L14.12,41.733a.8.8,0,0,0,.115.917L20.8,49.782A42.251,42.251,0,0,0,19.409,63.4l-7.876,5.655a.8.8,0,0,0-.3.876l3.333,11.142a.8.8,0,0,0,.73.569l9.689.4a42.268,42.268,0,0,0,8.639,10.616l-1.57,9.563a.8.8,0,0,0,.409.83L42.7,108.571a.8.8,0,0,0,.917-.113l7.131-6.564a42.3,42.3,0,0,0,13.614,1.39l5.655,7.876a.8.8,0,0,0,.876.3Z" transform="translate(8.04 7.346)" fill="#bfdbef"/>
        <path id="Path_10178" data-name="Path 10178" d="M56.352,49.087a11.693,11.693,0,1,1,.541-1.629,11.707,11.707,0,0,1-.541,1.629m-19.067-7.95a9.214,9.214,0,0,0-.419,1.263,8.937,8.937,0,1,0,.419-1.263" transform="translate(24.311 23.616)" fill="#fff"/>
        <path id="Path_10179" data-name="Path 10179" d="M79.2,62.572q-.564,1.355-1.27,2.668c-.148.275-.3.546-.459.818a28.865,28.865,0,0,1-2.623,3.783l-.04.048-.113.137-.223.265a.683.683,0,0,1-.78.187.73.73,0,0,1-.182-.113.682.682,0,0,1-.076-.96,27.413,27.413,0,0,0,3.085-31.183A27.212,27.212,0,0,0,65.633,27.49a27.993,27.993,0,0,0-2.546-1.213A27.386,27.386,0,0,0,39.629,75.692a27.372,27.372,0,0,0,14.219,3.261A.7.7,0,0,1,54.14,79a.682.682,0,0,1-.232,1.311,28.751,28.751,0,1,1,9.7-55.3,29.134,29.134,0,0,1,2.67,1.273A28.754,28.754,0,0,1,79.2,62.572" transform="translate(17.148 16.388)" fill="#fff"/>
        <g id="Group_1613" data-name="Group 1613" transform="translate(30.556 134.116)" opacity="0.3">
          <g id="Group_1612" data-name="Group 1612">
            <g id="Group_1611" data-name="Group 1611" clip-path="url(#clip-path-5)">
              <path id="Path_10180" data-name="Path 10180" d="M43.968,119.349a1.053,1.053,0,0,1-1.086.642c-.89-.1-1.787-.222-2.67-.371a1.053,1.053,0,0,1,.354-2.077c.84.143,1.7.263,2.544.354a1.055,1.055,0,0,1,.933,1.161,1.078,1.078,0,0,1-.076.29" transform="translate(-2.317 -49.746)" fill="#91b3fa"/>
              <path id="Path_10181" data-name="Path 10181" d="M51.5,146.064a1.051,1.051,0,0,1-1.275.6,45.544,45.544,0,0,1-4.362-1.556c-.3-.124-.6-.253-.9-.383a1.091,1.091,0,0,1-.539-1.39,1.054,1.054,0,0,1,1.388-.539c.285.125.57.249.856.368a43.573,43.573,0,0,0,4.161,1.486,1.053,1.053,0,0,1,.706,1.311c-.012.034-.024.069-.038.1m-10-4.406a1.436,1.436,0,0,1-.069.136,1.052,1.052,0,0,1-1.443.366,45.6,45.6,0,0,1-4.631-3.154,1.053,1.053,0,1,1,1.29-1.665,43.587,43.587,0,0,0,4.418,3.01,1.053,1.053,0,0,1,.435,1.307m-8.637-6.7a1.073,1.073,0,0,1-.227.34,1.054,1.054,0,0,1-1.489,0,45.4,45.4,0,0,1-3.717-4.2,1.053,1.053,0,0,1,1.661-1.3,43.567,43.567,0,0,0,3.544,4,1.054,1.054,0,0,1,.228,1.149m-6.725-8.62a1.054,1.054,0,0,1-1.876.136,45.521,45.521,0,0,1-2.575-4.98,1.053,1.053,0,1,1,1.927-.849,43.25,43.25,0,0,0,2.455,4.748,1.048,1.048,0,0,1,.069.945m-4.417-10a1.053,1.053,0,0,1-1.981-.1,46.132,46.132,0,0,1-1.287-5.454,1.052,1.052,0,1,1,2.073-.357,43.99,43.99,0,0,0,1.23,5.2,1.049,1.049,0,0,1-.036.708m-1.855-10.768a1.053,1.053,0,0,1-2.024-.354,45.453,45.453,0,0,1,.081-5.6,1.054,1.054,0,1,1,2.1.16,42.947,42.947,0,0,0-.077,5.341,1.054,1.054,0,0,1-.081.454M20.7,94.674a1.052,1.052,0,0,1-2-.613,45.519,45.519,0,0,1,1.453-5.413,1.054,1.054,0,0,1,2,.67,43.041,43.041,0,0,0-1.388,5.162,1.021,1.021,0,0,1-.06.194m6.148-15.146a1.076,1.076,0,0,1-.086.165,43.732,43.732,0,0,0-2.293,4.044c-.107.211-.208.419-.307.627a1.053,1.053,0,0,1-1.9-.907c.107-.223.213-.443.325-.663a45.915,45.915,0,0,1,2.4-4.236,1.053,1.053,0,0,1,1.859.971" transform="translate(-17.787 -78.071)" fill="#91b3fa"/>
            </g>
          </g>
        </g>
        <g id="Group_1616" data-name="Group 1616" transform="translate(97.213 129.064)" opacity="0.3">
          <g id="Group_1615" data-name="Group 1615">
            <g id="Group_1614" data-name="Group 1614" clip-path="url(#clip-path-6)">
              <path id="Path_10182" data-name="Path 10182" d="M74.891,122.084a1.053,1.053,0,0,1-1.95-.8A43.648,43.648,0,0,0,74.6,116.3a1.053,1.053,0,0,1,2.036.541,45.944,45.944,0,0,1-1.735,5.231l-.007.014m-2.3,4.87a.716.716,0,0,1-.05.1,45.868,45.868,0,0,1-2.931,4.669A1.054,1.054,0,0,1,67.9,130.5a43.928,43.928,0,0,0,2.8-4.454,1.053,1.053,0,0,1,1.9.907m5.057-15.262a1.053,1.053,0,0,1-2.015-.548,43.649,43.649,0,0,0,.4-5.243,1.053,1.053,0,0,1,2.106.033,45.381,45.381,0,0,1-.419,5.5.991.991,0,0,1-.07.261M66.329,135.7a1.062,1.062,0,0,1-.2.309,44.923,44.923,0,0,1-3.975,3.824,1.052,1.052,0,1,1-1.364-1.6,42.92,42.92,0,0,0,3.79-3.647,1.053,1.053,0,0,1,1.747,1.117m11.486-34.756a1.053,1.053,0,0,1-2.02-.29,43.369,43.369,0,0,0-.873-5.185,1.054,1.054,0,1,1,2.053-.476,45.859,45.859,0,0,1,.914,5.437,1.048,1.048,0,0,1-.074.514M75.394,90.47a1.053,1.053,0,0,1-1.962-.045A43.843,43.843,0,0,0,71.345,85.6a1.053,1.053,0,0,1,1.879-.952,46.5,46.5,0,0,1,2.189,5.061,1.051,1.051,0,0,1-.019.763m-4.858-9.594a1.052,1.052,0,0,1-1.847.18A43.444,43.444,0,0,0,65.5,76.872,1.053,1.053,0,1,1,67.1,75.5a45.475,45.475,0,0,1,3.341,4.391,1.052,1.052,0,0,1,.1.989" transform="translate(-53.837 -75.13)" fill="#91b3fa"/>
              <path id="Path_10183" data-name="Path 10183" d="M60.851,115.072a1.048,1.048,0,0,1-.393.474c-.752.5-1.524.971-2.29,1.414a1.053,1.053,0,1,1-1.053-1.824c.732-.421,1.467-.876,2.185-1.349a1.053,1.053,0,0,1,1.551,1.285" transform="translate(-56.589 -47.503)" fill="#91b3fa"/>
            </g>
          </g>
        </g>
        <path id="Path_10184" data-name="Path 10184" d="M71.762,138.328a.531.531,0,0,0,.38-.488l.268-6.485a28.227,28.227,0,0,0,7.1-5.779l6.4,1.05a.532.532,0,0,0,.557-.273l3.7-6.849a.533.533,0,0,0-.077-.615L85.7,114.118a28.349,28.349,0,0,0,.929-9.112l5.27-3.784a.534.534,0,0,0,.2-.586l-2.23-7.456a.539.539,0,0,0-.49-.381l-6.483-.268a28.3,28.3,0,0,0-5.781-7.1l1.051-6.4a.536.536,0,0,0-.273-.555l-6.851-3.7a.533.533,0,0,0-.613.076l-4.772,4.393a28.242,28.242,0,0,0-9.11-.929l-3.784-5.27a.532.532,0,0,0-.586-.2l-7.457,2.232a.531.531,0,0,0-.38.488l-.268,6.485a28.2,28.2,0,0,0-7.1,5.779l-6.4-1.05a.532.532,0,0,0-.557.273l-3.7,6.849a.533.533,0,0,0,.077.615l4.391,4.771a28.3,28.3,0,0,0-.929,9.112l-5.27,3.784a.534.534,0,0,0-.2.586l2.23,7.456a.537.537,0,0,0,.49.381l6.483.268a28.3,28.3,0,0,0,5.781,7.1l-1.051,6.4a.536.536,0,0,0,.273.555l6.851,3.7a.533.533,0,0,0,.613-.076l4.772-4.393a28.243,28.243,0,0,0,9.11.929l3.784,5.27a.535.535,0,0,0,.586.2Z" transform="translate(17.488 52.278)" fill="#bfdbef"/>
        <g id="Group_1619" data-name="Group 1619" transform="translate(67.762 151.017)" opacity="0.56">
          <g id="Group_1618" data-name="Group 1618">
            <g id="Group_1617" data-name="Group 1617" clip-path="url(#clip-path-7)">
              <path id="Path_10185" data-name="Path 10185" d="M54.76,98.945a7.994,7.994,0,1,1,.371-1.12,8,8,0,0,1-.371,1.12M42,93.623a6.058,6.058,0,0,0-.271.816A5.86,5.86,0,1,0,42,93.623" transform="translate(-39.445 -87.909)" fill="#91b3fa"/>
            </g>
          </g>
        </g>
        <path id="Path_10186" data-name="Path 10186" d="M70.662,108.343a20.061,20.061,0,0,1-3.135,5.166c-.04.046-.079.093-.117.139a1.054,1.054,0,0,1-1.2.289,1.076,1.076,0,0,1-.282-.174,1.052,1.052,0,0,1-.115-1.483,17.823,17.823,0,0,0,2.132-3.116c.034-.06.065-.122.1-.184a17.548,17.548,0,0,0,2.036-8.44,17.821,17.821,0,0,0-.706-4.721l-.01-.038c-.012-.04-.022-.077-.034-.115a17.613,17.613,0,0,0-8.567-10.522,17.8,17.8,0,0,0-1.647-.785,17.73,17.73,0,1,0-5.983,34.1,1.052,1.052,0,1,1,.094,2.1,19.764,19.764,0,0,1-8.478-1.495,20.01,20.01,0,0,1-1.819-.866,19.835,19.835,0,0,1,16.99-35.79q.935.389,1.842.878a19.863,19.863,0,0,1,8.907,25.052" transform="translate(23.328 58.079)" fill="#fff"/>
        <path id="Path_10187" data-name="Path 10187" d="M46.407,25.632c-.388,62.708-1.45,279,1.757,355.6.338,8.114,6,14.547,12.942,14.708,34.339.8,160.2,2.24,216.3-1.357,11.683-.751,20.814-11.968,20.852-25.66.179-65.815-.024-250.919-7.414-335.605-.885-10.147-7.822-18.134-16.507-19.019-37.441-3.814-163.957-12.609-212.4-8.2-8.737.8-15.464,9.28-15.528,19.534" transform="translate(32.968 3.51)" fill="#063992"/>
        <path id="Path_10188" data-name="Path 10188" d="M56.413,35.242c-1.087,50.626-4.387,219.039-1.6,281.255.407,9.094,6.646,16.358,14.423,16.773,32.016,1.709,141.211,4.9,188.059-.2,8.435-.917,14.944-9.009,15.251-18.916,1.6-51.656,6.076-208.495,3.379-270.014-.429-9.814-7.052-17.735-15.428-18.488-34.656-3.116-150.742-10.024-190.569-6.88-7.476.589-13.322,7.7-13.511,16.468" transform="translate(38.563 12.903)" fill="#67b8ee"/>
        <g id="Group_1622" data-name="Group 1622" transform="translate(164.066 15.669)" opacity="0.78">
          <g id="Group_1621" data-name="Group 1621">
            <g id="Group_1620" data-name="Group 1620" clip-path="url(#clip-path-8)">
              <path id="Path_10189" data-name="Path 10189" d="M95.506,12.978h0a3.415,3.415,0,0,0,2.977,3.566c8.114.376,30.97,1.438,41.186,1.977,2.013.107,3.561-2.034,3.145-4.343l-.072-.393a3.316,3.316,0,0,0-2.793-2.874c-6.909-.637-27.756-2.374-41.536-1.592a3.4,3.4,0,0,0-2.907,3.659" transform="translate(-95.505 -9.121)" fill="#fff"/>
            </g>
          </g>
        </g>
        <g id="Group_1625" data-name="Group 1625" transform="translate(99.464 65.703)" opacity="0.5">
          <g id="Group_1624" data-name="Group 1624">
            <g id="Group_1623" data-name="Group 1623" clip-path="url(#clip-path-9)">
              <path id="Path_10190" data-name="Path 10190" d="M162.719,96.616l.084-8.181L78.612,87.57c-.024,2.312-.06,5.892-.084,8.181l.555.005,83.636.861" transform="translate(-43.091 -2.839)" fill="#fff"/>
              <path id="Path_10191" data-name="Path 10191" d="M143.878,96.422c.021-2.037.064-6.143.084-8.181l-.095,0-14.306-.146c-.021,2.037-.064,6.143-.084,8.181l4.09.041,10.311.107" transform="translate(-6.516 -2.463)" fill="#fff"/>
              <path id="Path_10192" data-name="Path 10192" d="M140.44,88.206c-.017,1.647-.069,6.616-.084,8.181l.667.007q21.573.222,43.148.445l.084-8.182c-.143,0-.435,0-.577-.005l-43.237-.445" transform="translate(1.294 -2.383)" fill="#fff"/>
              <path id="Path_10193" data-name="Path 10193" d="M137.547,88.346l.667.007c.01-.905.076-7.275.084-8.181l-.667-.007-58.937-.606c-.009.905-.074,7.273-.084,8.181l.393,0,58.543.6" transform="translate(-43.032 -8.59)" fill="#fff"/>
              <path id="Path_10194" data-name="Path 10194" d="M114.722,84.02l-.043,4.09h.067q2.012.023,4.023.043l6.105.062.084-8.181-4.09-.041q-3.051-.034-6.105-.064Z" transform="translate(-17.139 -8.324)" fill="#fff"/>
              <path id="Path_10195" data-name="Path 10195" d="M152.733,88.5l.667.007c.024-2.2.062-6,.084-8.181l-.667-.007-30.351-.313c-.009.905-.076,7.275-.084,8.181l.2,0,30.147.311" transform="translate(-11.609 -8.267)" fill="#fff"/>
              <path id="Path_10196" data-name="Path 10196" d="M176.528,77.439c.024-2.312.06-5.894.084-8.181-.536-.005-1.233-.012-1.769-.019l-82.422-.847-.084,8.181,49.3.507,34.9.359" transform="translate(-33.178 -16.606)" fill="#fff"/>
              <path id="Path_10197" data-name="Path 10197" d="M143.286,77.1l.095,0,14.306.146.084-8.181-14.4-.148c-.021,2.037-.064,6.143-.084,8.181" transform="translate(3.397 -16.23)" fill="#fff"/>
              <path id="Path_10198" data-name="Path 10198" d="M197.4,69.472c-14.351-.148-28.8-.3-43.148-.443l-.084,8.181,43.814.45c.021-1.866.058-5.664.077-7.514l.007-.667-.667-.007" transform="translate(11.207 -16.149)" fill="#fff"/>
              <path id="Path_10199" data-name="Path 10199" d="M92.747,60.381l-.084,8.18,59.6.613.084-8.181q-19.138-.2-38.279-.393-10.658-.111-21.324-.22" transform="translate(-32.944 -22.358)" fill="#fff"/>
              <path id="Path_10200" data-name="Path 10200" d="M138.928,69.038l.084-8.181q-5.1-.054-10.2-.1c-.021,2.037-.064,6.143-.084,8.181h.067l10.129.1" transform="translate(-7.051 -22.091)" fill="#fff"/>
              <path id="Path_10201" data-name="Path 10201" d="M167.538,61.151l-30.071-.309-.948-.01-.084,8.181,31.02.32Z" transform="translate(-1.522 -22.035)" fill="#fff"/>
              <path id="Path_10202" data-name="Path 10202" d="M82.541,60.076l.247,0c12.224.127,24.492.253,36.718.378.194,0,.472.005.667.007.022-2.194.062-6,.084-8.181L82.625,51.9c-.009.905-.076,7.273-.084,8.181" transform="translate(-40.21 -28.449)" fill="#fff"/>
              <path id="Path_10203" data-name="Path 10203" d="M111.836,52.2l-3.219-.033-3.218-.034c-.022,2.19-.062,5.975-.084,8.182h.127q3.154.033,6.31.065c.022-2.19.062-5.973.084-8.181" transform="translate(-23.861 -28.281)" fill="#fff"/>
              <path id="Path_10204" data-name="Path 10204" d="M129.846,52.38l-.129,0-8.761-.089q-5.347-.057-10.7-.11l-.082,8.181,4.09.041,15.494.16c.021-2.037.064-6.143.084-8.181" transform="translate(-20.37 -28.246)" fill="#fff"/>
              <path id="Path_10205" data-name="Path 10205" d="M163.226,47.294c.024-2.312.06-5.894.084-8.181l-84.191-.866c-.024,2.288-.06,5.868-.084,8.181l.555.005,83.636.861" transform="translate(-42.727 -38.246)" fill="#3868ad"/>
              <path id="Path_10206" data-name="Path 10206" d="M144.385,47.1l.084-8.181q-7.2-.075-14.4-.148c-.021,2.037-.064,6.143-.084,8.181h.094l14.306.148" transform="translate(-6.152 -37.87)" fill="#fff"/>
              <path id="Path_10207" data-name="Path 10207" d="M184.677,47.515c.022-2.192.062-6.006.084-8.181l-43.814-.452c-.01.907-.076,7.275-.084,8.182l.289,0,43.526.448" transform="translate(1.658 -37.79)" fill="#fff"/>
              <path id="Path_10208" data-name="Path 10208" d="M170.468,141.968l.084-8.181-84.191-.866c-.022,2.312-.06,5.892-.084,8.181l37.111.381,47.08.484" transform="translate(-37.528 29.718)" fill="#fff"/>
              <path id="Path_10209" data-name="Path 10209" d="M151.627,141.775l.084-8.18q-7.2-.075-14.4-.148l-.084,8.18,6.537.067,7.864.081" transform="translate(-0.953 30.095)" fill="#fff"/>
              <path id="Path_10210" data-name="Path 10210" d="M191.337,134l-43.148-.443c-.009.905-.074,7.273-.084,8.181l43.814.45c.022-2.171.062-5.994.084-8.18l-.289,0-.378,0" transform="translate(6.856 30.175)" fill="#fff"/>
              <path id="Path_10211" data-name="Path 10211" d="M85.957,124.912c-.009.905-.074,7.273-.084,8.181l59.6.613c.01-.905.076-7.275.084-8.181l-.392,0-58.545-.6-.667-.007" transform="translate(-37.818 23.967)" fill="#3868ad"/>
              <path id="Path_10212" data-name="Path 10212" d="M121.943,133.464l10.2.1.084-8.181-.2,0-9.995-.1Z" transform="translate(-11.925 24.234)" fill="#fff"/>
              <path id="Path_10213" data-name="Path 10213" d="M130.4,125.369l-.667-.007c-.024,2.2-.062,6-.084,8.181l30.351.313.667.007c.022-2.2.062-6,.084-8.18l-.2,0c-10.032-.1-20.113-.208-30.147-.311" transform="translate(-6.396 24.291)" fill="#fff"/>
              <path id="Path_10214" data-name="Path 10214" d="M83.4,113.775c-.022,2.221-.062,5.94-.084,8.181l84.191.866c.022-2.235.06-5.927.084-8.18q-17.442-.178-34.9-.359l-49.3-.507" transform="translate(-39.655 15.973)" fill="#fff"/>
              <path id="Path_10215" data-name="Path 10215" d="M134.263,122.48l14.4.148.084-8.181-.189,0q-1.951-.021-3.9-.04-5.154-.054-10.311-.106c-.021,2.037-.064,6.143-.084,8.18" transform="translate(-3.08 16.349)" fill="#fff"/>
              <path id="Path_10216" data-name="Path 10216" d="M188.956,123.043l.084-8.181-43.814-.452c-.022,2.2-.062,6-.084,8.182.186,0,.483,0,.667.007l4.81.048,38.338.4" transform="translate(4.729 16.429)" fill="#fff"/>
              <path id="Path_10217" data-name="Path 10217" d="M137.409,114.567c.009-.9.074-7.273.084-8.179l-.667-.007-58.937-.606c-.01.9-.076,7.272-.084,8.179l.392,0q29.6.309,59.212.61" transform="translate(-43.609 10.23)" fill="#fff"/>
              <path id="Path_10218" data-name="Path 10218" d="M124.113,110.341h0l.041-4.09-7.981-.082-2.213-.022-.084,8.18,10.2.1Z" transform="translate(-17.716 10.496)" fill="#fff"/>
              <path id="Path_10219" data-name="Path 10219" d="M121.661,106.225c-.009.905-.076,7.273-.084,8.181l31.02.32c.009-.905.074-7.275.084-8.181q-10.426-.108-20.853-.215l-10.166-.1" transform="translate(-12.187 10.553)" fill="#fff"/>
              <path id="Path_10220" data-name="Path 10220" d="M60.6,87.617c-.021,2.037-.064,6.143-.084,8.181q11.714.121,23.434.241l.084-8.181-.309,0L60.6,87.617" transform="translate(-56.024 -2.806)" fill="#3868ad"/>
              <path id="Path_10221" data-name="Path 10221" d="M80.022,79.805l-19.343-.2-.041,4.09-.043,4.09,4.09.043q9.671.1,19.343.2c.021-2.039.064-6.143.084-8.182h-.155l-3.936-.041" transform="translate(-55.965 -8.556)" fill="#3868ad"/>
              <path id="Path_10222" data-name="Path 10222" d="M60.794,68.464c-.021,2.037-.064,6.143-.084,8.181,7.8.081,15.636.161,23.433.241.021-2.037.064-6.143.084-8.181l-.155,0-23.279-.239" transform="translate(-55.882 -16.555)" fill="#fff"/>
              <path id="Path_10223" data-name="Path 10223" d="M80.219,60.652l-19.343-.2-.084,8.181,23.434.242.084-8.182-.307,0-3.783-.04" transform="translate(-55.823 -22.306)" fill="#fff"/>
              <path id="Path_10224" data-name="Path 10224" d="M60.964,51.949c-.021,2.037-.064,6.143-.084,8.181l4.09.043,19.343.2.084-8.181-.309,0-23.124-.237" transform="translate(-55.76 -28.411)" fill="#fff"/>
              <path id="Path_10225" data-name="Path 10225" d="M80.447,38.494l-19.343-.2c-.021,2.037-.064,6.143-.084,8.181l4.09.043q9.671.1,19.343.2c.021-2.039.064-6.143.084-8.182h-.155l-3.936-.041" transform="translate(-55.66 -38.213)" fill="#3868ad"/>
              <path id="Path_10226" data-name="Path 10226" d="M79.193,133.187l-19.343-.2-.084,8.18,23.433.242.084-8.182-.307,0-3.783-.04" transform="translate(-56.56 29.765)" fill="#fff"/>
              <path id="Path_10227" data-name="Path 10227" d="M79.275,125.176l-19.343-.2c-.021,2.037-.064,6.143-.084,8.181l4.09.043q9.671.1,19.343.2c.021-2.039.064-6.143.084-8.182h-.155l-3.936-.041" transform="translate(-56.501 24.014)" fill="#3868ad"/>
              <path id="Path_10228" data-name="Path 10228" d="M60.047,113.835c-.021,2.037-.064,6.143-.084,8.181,1.362.014,2.728.027,4.09.043l19.343.2c.021-2.037.064-6.143.084-8.181l-.155,0-23.279-.239" transform="translate(-56.418 16.016)" fill="#fff"/>
              <path id="Path_10229" data-name="Path 10229" d="M60.13,105.824,60.046,114q2.043.021,4.09.043c6.322.065,13.015.134,19.343.2l.084-8.181-.309,0-23.124-.237" transform="translate(-56.359 10.265)" fill="#fff"/>
              <path id="Path_10230" data-name="Path 10230" d="M60.217,97.32l-.084,8.181c1.362.014,2.728.027,4.09.043l19.343.2.084-8.181-.309,0L60.217,97.32" transform="translate(-56.296 4.16)" fill="#fff"/>
              <path id="Path_10231" data-name="Path 10231" d="M87.616,105.433l.667.007,36.3.373.667.007c.01-.905.076-7.273.084-8.181l-.247,0q-18.679-.193-37.384-.385c-.022,2.194-.062,6-.084,8.181" transform="translate(-36.567 4.111)" fill="#fff"/>
              <path id="Path_10232" data-name="Path 10232" d="M116.911,97.553l-3.218-.033-3.219-.034c-.024,2.378-.06,5.8-.084,8.182h.043l6.394.065c.022-2.226.062-5.971.084-8.181" transform="translate(-20.218 4.279)" fill="#fff"/>
              <path id="Path_10233" data-name="Path 10233" d="M129.638,97.684l-14.3-.148c-.022,2.039-.064,6.143-.084,8.181l.129,0,19.455.2.084-8.181q-2.043-.023-4.09-.043l-1.192-.012" transform="translate(-16.727 4.315)" fill="#fff"/>
              <path id="Path_10234" data-name="Path 10234" d="M166.916,178.2l-82.422-.849c-.024,2.309-.06,5.9-.084,8.181q42.082.435,84.191.868c.024-2.393.06-5.789.084-8.18l-.553-.007-1.216-.012" transform="translate(-38.868 61.612)" fill="#3868ad"/>
              <path id="Path_10235" data-name="Path 10235" d="M135.443,177.875l-.043,4.09-.041,4.09q7.2.075,14.4.148c.021-2.037.064-6.143.084-8.181h-.095l-14.306-.148" transform="translate(-2.294 61.988)" fill="#fff"/>
              <path id="Path_10236" data-name="Path 10236" d="M146.322,177.987c-.022,2.171-.062,6-.084,8.18l43.814.45c.009-.905.076-7.273.084-8.181l-.289,0-43.526-.448" transform="translate(5.516 62.069)" fill="#fff"/>
              <path id="Path_10237" data-name="Path 10237" d="M143.61,178.135l.084-8.181-59.6-.613-.084,8.181,1.142.012,58.461.6" transform="translate(-39.158 55.862)" fill="#fff"/>
              <path id="Path_10238" data-name="Path 10238" d="M120.16,169.712l-.043,4.09-.041,4.09,10.2.1c.021-2.037.064-6.143.084-8.181h-.067l-4.023-.041q-3.053-.033-6.105-.064" transform="translate(-13.265 56.128)" fill="#fff"/>
              <path id="Path_10239" data-name="Path 10239" d="M127.862,169.792c-.022,2.168-.062,6-.084,8.18l31.018.32.084-8.181-.407-.005-30.611-.314" transform="translate(-7.736 56.186)" fill="#fff"/>
              <path id="Path_10240" data-name="Path 10240" d="M165.722,159.071l-84.191-.866c-.022,2.221-.06,5.939-.084,8.181l4.319.045,79.872.821c.024-2.235.062-5.927.084-8.181" transform="translate(-40.996 47.868)" fill="#fff"/>
              <path id="Path_10241" data-name="Path 10241" d="M146.881,158.877l-.094,0-14.306-.146-.084,8.18,14.4.148c.021-2.037.064-6.143.084-8.18" transform="translate(-4.421 48.244)" fill="#fff"/>
              <path id="Path_10242" data-name="Path 10242" d="M187.174,159.291l-.289,0q-21.748-.224-43.526-.447c-.009.905-.076,7.273-.084,8.181l43.814.45c.022-2.194.062-6,.084-8.181" transform="translate(3.389 48.324)" fill="#fff"/>
              <path id="Path_10243" data-name="Path 10243" d="M135.627,150.817l-59.6-.613c-.009.905-.076,7.275-.084,8.181l9.411.1,50.193.515c.022-2.171.062-5.994.084-8.181" transform="translate(-44.95 42.124)" fill="#fff"/>
              <path id="Path_10244" data-name="Path 10244" d="M122.2,158.86l.084-8.18-10.2-.1-.084,8.181.134,0,10.062.1" transform="translate(-19.057 42.39)" fill="#fff"/>
              <path id="Path_10245" data-name="Path 10245" d="M120.378,158.841l30.351.313.084-8.181-31.018-.319c-.01.905-.076,7.273-.084,8.18l.2,0,.464.005" transform="translate(-13.527 42.447)" fill="#fff"/>
              <path id="Path_10246" data-name="Path 10246" d="M57.985,177.417l-.043,4.09L57.9,185.6l23.434.24c.021-2.037.064-6.143.086-8.18l-.156,0-23.277-.239" transform="translate(-57.9 61.659)" fill="#fff"/>
              <path id="Path_10247" data-name="Path 10247" d="M77.409,169.605l-19.343-.2-.084,8.181,4.09.043q9.671.1,19.343.2l.084-8.182-.308,0-3.783-.04" transform="translate(-57.84 55.909)" fill="#fff"/>
              <path id="Path_10248" data-name="Path 10248" d="M58.181,158.264l-.084,8.181c1.362.014,2.728.027,4.09.043l19.343.2.084-8.18-.309,0-23.124-.237" transform="translate(-57.758 47.91)" fill="#fff"/>
              <path id="Path_10249" data-name="Path 10249" d="M58.263,150.253c-.021,2.037-.064,6.143-.084,8.181l4.09.043,19.343.2c.021-2.037.064-6.143.084-8.18l-.155,0q-11.637-.119-23.279-.239" transform="translate(-57.699 42.159)" fill="#fff"/>
              <path id="Path_10250" data-name="Path 10250" d="M77.693,141.947l-19.343-.2-.084,8.181,4.09.043q9.671.1,19.343.2l.084-8.182-.308,0c-1.259-.014-2.524-.027-3.783-.04" transform="translate(-57.637 36.054)" fill="#fff"/>
              <path id="Path_10251" data-name="Path 10251" d="M123.382,150.249c.022-2.175.062-5.992.084-8.18L86.5,141.687l-.667-.005c-.022,2.171-.062,5.994-.084,8.181l.247,0,37.384.385" transform="translate(-37.907 36.006)" fill="#fff"/>
              <path id="Path_10252" data-name="Path 10252" d="M114.96,150.163c.022-2.192.062-5.971.084-8.181l-6.437-.067-.084,8.181c.019,0,.065,0,.084,0l6.353.065" transform="translate(-21.558 36.174)" fill="#fff"/>
              <path id="Path_10253" data-name="Path 10253" d="M132.971,150.348c.021-2.037.064-6.143.084-8.181l-4.09-.043-3-.031-12.5-.127-.084,8.18,8.088.082,11.5.119" transform="translate(-18.067 36.21)" fill="#fff"/>
            </g>
          </g>
        </g>
        <rect id="Rectangle_4619" data-name="Rectangle 4619" width="5.264" height="56.927" transform="translate(87.017 357.495)" fill="#3868ad"/>
        <path id="Path_10254" data-name="Path 10254" d="M38.767,243.312h46.1v-2.475a.952.952,0,0,0-.952-.952H39.793a1.026,1.026,0,0,0-1.026,1.026Z" transform="translate(27.83 172.207)" fill="#3868ad"/>
        <rect id="Rectangle_4620" data-name="Rectangle 4620" width="61.605" height="17.472" rx="3.502" transform="translate(57.878 343.938)" fill="#f4932a"/>
        <path id="Path_10255" data-name="Path 10255" d="M72.1,236.469S87.133,247.3,84.523,254.582c0,0-16.447-7.095-18.435-12.685s.337-8.059.337-8.059Z" transform="translate(46.867 167.867)" fill="#062d66"/>
        <path id="Path_10256" data-name="Path 10256" d="M69.024,230.084l-2.458,7.105a2.47,2.47,0,0,0,.96,2.9,6.4,6.4,0,0,0,2.034.787,2.876,2.876,0,0,0,3.181-1.443l2.939-5.537Z" transform="translate(47.684 165.171)" fill="#ffb27d"/>
        <path id="Path_10257" data-name="Path 10257" d="M56.76,192.855s30.874,5.351,44.118,17.586S88.721,261.7,88.721,261.7s-4.161-.026-9.2-4.348c0,0,15.061-29.352,2.082-37.91-14.592-9.624-31.408-11.792-31.408-11.792l6.27-13.853Z" transform="translate(36.031 138.445)" fill="#062d66"/>
        <path id="Path_10258" data-name="Path 10258" d="M82.838,247.082c-3.309-1.531-12.668-8.081-14.245-8.371s-4.315,1.565-4.315,1.565a4.268,4.268,0,0,0,.048,3.286c2.2,2.658,7.072,7.725,13.631,9.613,4.824,1.39,8.2.095,10.3-1.421a13.935,13.935,0,0,0-5.418-4.673" transform="translate(45.941 171.342)" fill="#062d66"/>
        <path id="Path_10259" data-name="Path 10259" d="M77.82,251.135c-6.557-1.888-11.436-6.956-13.633-9.613a13.282,13.282,0,0,0,3.961,5.358c5.88,5.284,17.108,7.189,19.5,6.823,1.917-.3,1.735-2.063.471-3.989-2.1,1.515-5.475,2.81-10.3,1.421" transform="translate(46.078 173.382)" fill="#062d66"/>
        <path id="Path_10260" data-name="Path 10260" d="M62.528,238.028c.038.91,1.9,4.035,2.987,5.788a2.838,2.838,0,0,0,2.4,1.345,7.4,7.4,0,0,0,1.986-.239,1.842,1.842,0,0,0,1.235-2.292l-2.125-7.26Z" transform="translate(44.887 168.966)" fill="#ffb27d"/>
        <path id="Path_10261" data-name="Path 10261" d="M37.988,187.46s-6.856,18.335,0,23.909S61.2,223.223,64.856,234.327s9.854,32.688,18.153,40.331c0,0,5.83-.565,8.012-2.888,0,0-4.726-32.219-7.844-40.485-2.7-7.16-6.676-17.493-14.3-23.269-2.182-1.654-1.8-4.272-.79-6.817l1.843-4.631Z" transform="translate(25.083 134.573)" fill="#062d66"/>
        <path id="Path_10262" data-name="Path 10262" d="M88.855,186.786c-11.5.694-7.914-17.672-7.706-18.4L63.7,180.708s.924,9.821,15.432,14.973a18.043,18.043,0,0,0,9.991.723,15.873,15.873,0,0,1-.266-9.618" transform="translate(45.727 120.877)" fill="#f4932a"/>
        <path id="Path_10263" data-name="Path 10263" d="M100.83,176.432c-4.284-2.98-9.137,0-9.137,0-5.729,3.747-9.965,5.339-13.092,5.528a15.86,15.86,0,0,0,.266,9.618c6.416-1.379,11.006-6.023,13-8.407a2.07,2.07,0,0,1,2.867-.313c.893.7,1.759,1.668,1.6,2.683-.311,2,2.013,2.639,2.189,1.912s-.8-5.03-.8-5.03,4.647,4.673,6.459,6.468,4.1,0,4.1,0-3.173-9.479-7.457-12.46" transform="translate(55.981 125.705)" fill="#ffb27d"/>
        <path id="Path_10264" data-name="Path 10264" d="M54.956,152.2s16.725-6.7,47.851,19c0,0,2.6,5.38-.235,10.172S72.71,209.5,69,222.445c0,0-16.1,5.233-32.751-7.174,0,0,1.469-36.022,18.711-63.072" transform="translate(26.019 108.696)" fill="#f4932a"/>
        <path id="Path_10265" data-name="Path 10265" d="M70.142,148.392l-8.234,9.981a3.274,3.274,0,0,0-.431,3.523c1.142,2.331,3.853,5.726,9.867,5.257a5.055,5.055,0,0,0,4.154-2.835l5.758-11.9Z" transform="translate(43.897 106.527)" fill="#ffb27d"/>
        <path id="Path_10266" data-name="Path 10266" d="M48.149,194.619c-1.941-7.907,17.725-25.536,17.725-25.536L61.1,151.87s-42.468,28.271-31.645,51.005a16.534,16.534,0,0,0,6,7.069c3.42-9.2,8.869-13.425,12.7-15.325" transform="translate(19.877 109.023)" fill="#f4932a"/>
        <path id="Path_10267" data-name="Path 10267" d="M39.84,187.145a.462.462,0,0,1-.45-.354C37.4,178.706,56.445,161.526,57.256,160.8a.465.465,0,1,1,.62.692c-.194.174-19.438,17.533-17.584,25.079a.463.463,0,0,1-.34.562.424.424,0,0,1-.112.014" transform="translate(28.173 115.347)" fill="#d8873d"/>
        <path id="Path_10268" data-name="Path 10268" d="M74.692,176.514s-23.318,9.053-29.01,2.244a3.83,3.83,0,0,1-.778-1.563c-3.826,1.9-9.275,6.121-12.7,15.325,12.264,7.837,33.225-4.358,38.894-7.954a4.229,4.229,0,0,1,3.132-.575c2.187.454,5.963,1.12,8,.807,2.979-.46,7.26,10.051,12.089,6.81,0,0-4.137-18.271-19.632-15.093" transform="translate(23.122 126.448)" fill="#ffb27d"/>
        <path id="Path_10269" data-name="Path 10269" d="M83.3,140.881c.082.321-1.929,22.14-1.929,22.14l-12.434-1.414-1.165-20.963s14.142-5.135,15.528.237" transform="translate(48.653 99.376)" fill="#ffb27d"/>
        <path id="Path_10270" data-name="Path 10270" d="M74.371,148.194l-.251,11.084a1.549,1.549,0,0,0,.046.417c.216.844,1.173,3.688,4.025,2.532,2.587-1.05,4.965-1.969,6.713-1.637a1.547,1.547,0,0,1,1.252,1.663,66.7,66.7,0,0,1-1.7,10.251,1.544,1.544,0,0,1-1.764,1.113,50,50,0,0,1-11.175-3.2,1.549,1.549,0,0,1-.9-1.3c-.187-2.771-.785-11.189-1.314-13.509-.5-2.178-3.348-3.2-4.576-3.547a1.511,1.511,0,0,1-.935-.752c-.7-1.306-1.792-4.381,2.046-6.112a1.55,1.55,0,0,0,.758-2.1c-.77-1.577-1.294-4.054,1.634-5.772a5.675,5.675,0,0,1,6.908.883,1.547,1.547,0,0,0,1.988.015,1.227,1.227,0,0,1,1.39-.1,1.526,1.526,0,0,0,2.077-.886,4.624,4.624,0,0,1,5.049-3.247c5.538.335,6.815,6.291,5.769,9.979s-7.031,2.984-10.154,1.525c-2.376-1.108-5.107.627-6.281,1.522a1.532,1.532,0,0,0-.6,1.189" transform="translate(45.294 96.17)" fill="#062d66"/>
        <path id="Path_10271" data-name="Path 10271" d="M69.068,152.367s1.548-6.5-.916-7.785-5.779-.112-4.532,4.341c1.55,5.537,5.447,3.444,5.447,3.444" transform="translate(45.476 103.441)" fill="#ffb27d"/>
        <path id="Path_10272" data-name="Path 10272" d="M64.762,188.6c.038,0,.076,0,.113,0l48.923-.053a2.189,2.189,0,1,0-.005-4.379l-48.923.053a2.19,2.19,0,0,0-.108,4.377" transform="translate(44.998 132.212)" fill="#063992"/>
        <path id="Path_10273" data-name="Path 10273" d="M145.872,160.894H105.127a7.766,7.766,0,0,0-7.023,4.453L79.268,205.287H129.9a4.722,4.722,0,0,0,4.389-2.984l14.607-36.96a3.254,3.254,0,0,0-3.027-4.449" transform="translate(56.904 115.501)" fill="#063992"/>
        <g id="Group_1628" data-name="Group 1628" transform="translate(173.679 292.793)" opacity="0.78">
          <g id="Group_1627" data-name="Group 1627">
            <g id="Group_1626" data-name="Group 1626" clip-path="url(#clip-path-10)">
              <path id="Path_10274" data-name="Path 10274" d="M101.494,174.52c-.883,2.743-.23,5.408,1.457,5.951s3.771-1.24,4.654-3.984.232-5.408-1.457-5.951-3.771,1.24-4.654,3.984" transform="translate(-101.101 -170.439)" fill="#fff"/>
            </g>
          </g>
        </g>
        <path id="Path_10275" data-name="Path 10275" d="M133.072,290.049a2.109,2.109,0,0,0,.811-.163,1.968,1.968,0,0,0,1.077-2.615L91.843,190.232a2.083,2.083,0,0,0-2.7-1.041,1.967,1.967,0,0,0-1.075,2.615l43.117,97.039a2.061,2.061,0,0,0,1.89,1.2" transform="translate(63.099 135.698)" fill="#bfdbef"/>
        <path id="Path_10276" data-name="Path 10276" d="M86.778,290.049a2.058,2.058,0,0,0,1.89-1.2l43.117-97.039a1.967,1.967,0,0,0-1.075-2.615,2.083,2.083,0,0,0-2.7,1.041L84.89,287.271a1.968,1.968,0,0,0,1.077,2.615,2.109,2.109,0,0,0,.811.163" transform="translate(60.82 135.698)" fill="#bfdbef"/>
        <path id="Path_10277" data-name="Path 10277" d="M55.379,290.049a2.109,2.109,0,0,0,.811-.163,1.968,1.968,0,0,0,1.077-2.615L14.15,190.232a2.084,2.084,0,0,0-2.7-1.041,1.967,1.967,0,0,0-1.075,2.615l43.117,97.039a2.061,2.061,0,0,0,1.89,1.2" transform="translate(7.325 135.698)" fill="#bfdbef"/>
        <path id="Path_10278" data-name="Path 10278" d="M9.085,290.049a2.058,2.058,0,0,0,1.89-1.2l43.117-97.039a1.967,1.967,0,0,0-1.075-2.615,2.083,2.083,0,0,0-2.7,1.041L7.2,287.271a1.968,1.968,0,0,0,1.077,2.615,2.109,2.109,0,0,0,.811.163" transform="translate(5.046 135.698)" fill="#bfdbef"/>
        <path id="Path_10279" data-name="Path 10279" d="M5.3,189.065a2.364,2.364,0,0,1,.409-1.8,1.864,1.864,0,0,1,1.5-.789H203.354a2.184,2.184,0,0,1,1.881,1.153,2.769,2.769,0,0,1,.146,2.395l-2.127,5.15a2.973,2.973,0,0,1-2.7,1.934h-192a2.338,2.338,0,0,1-2.213-2.044Z" transform="translate(3.777 133.87)" fill="#bfdbef"/>
        <path id="Path_10280" data-name="Path 10280" d="M105.042,119.909a36.89,36.89,0,1,1-36.89-36.89,36.889,36.889,0,0,1,36.89,36.89" transform="translate(22.443 59.597)" fill="#fff"/>
        <path id="Path_10281" data-name="Path 10281" d="M33.5,105.187l8.416-4.387v1.869a.737.737,0,0,1-.107.388.848.848,0,0,1-.35.3L37.6,105.337a3.622,3.622,0,0,1-.515.216c-.182.06-.374.115-.581.165.206.05.4.1.581.165a3.437,3.437,0,0,1,.515.218l3.857,1.988a.848.848,0,0,1,.35.3.737.737,0,0,1,.107.388v1.869l-8.416-4.4Z" transform="translate(24.046 72.362)" fill="#233862"/>
        <path id="Path_10282" data-name="Path 10282" d="M40.627,114.431V98.642h2.625v6.066a5.566,5.566,0,0,1,1.4-.977,4.076,4.076,0,0,1,1.8-.371,3.923,3.923,0,0,1,1.584.3,3.139,3.139,0,0,1,1.153.85,3.706,3.706,0,0,1,.7,1.307,5.546,5.546,0,0,1,.241,1.673v6.939H47.5v-6.939a2.33,2.33,0,0,0-.462-1.546,1.717,1.717,0,0,0-1.386-.546,2.729,2.729,0,0,0-1.276.308,4.542,4.542,0,0,0-1.125.84v7.883Z" transform="translate(29.165 70.812)" fill="#233862"/>
      </g>
    </g>
    <g id="Group_1632" data-name="Group 1632" transform="translate(69.794 169.453)">
      <g id="Group_1631" data-name="Group 1631" clip-path="url(#clip-path-11)">
        <path id="Path_10283" data-name="Path 10283" d="M50.127,109.645l-9.5-4.633V98.641h9.5Z" transform="translate(-40.629 -98.641)" fill="#4749ef"/>
        <path id="Path_10284" data-name="Path 10284" d="M40.627,102.35l9.5,4.633v4.784h-9.5Z" transform="translate(-40.628 -95.978)" fill="#4649ee"/>
        <path id="Path_10285" data-name="Path 10285" d="M40.627,114.431V98.642h2.625v6.066a5.566,5.566,0,0,1,1.4-.977,4.076,4.076,0,0,1,1.8-.371,3.923,3.923,0,0,1,1.584.3,3.139,3.139,0,0,1,1.153.85,3.706,3.706,0,0,1,.7,1.307,5.546,5.546,0,0,1,.241,1.673v6.939H47.5v-6.939a2.33,2.33,0,0,0-.462-1.546,1.717,1.717,0,0,0-1.386-.546,2.729,2.729,0,0,0-1.276.308,4.542,4.542,0,0,0-1.125.84v7.883Z" transform="translate(-40.629 -98.64)" fill="#233862"/>
      </g>
    </g>
    <g id="Group_1634" data-name="Group 1634">
      <g id="Group_1633" data-name="Group 1633" clip-path="url(#clip-path)">
        <path id="Path_10287" data-name="Path 10287" d="M51.654,113.953a2.871,2.871,0,0,1-2.178-.8,3.077,3.077,0,0,1-.764-2.216v-6.088H47.6a.535.535,0,0,1-.366-.137.528.528,0,0,1-.155-.414v-1.043l1.754-.287.553-2.974a.517.517,0,0,1,.2-.33.618.618,0,0,1,.388-.117h1.359v3.432H54.2v1.869H51.334v5.908a1.157,1.157,0,0,0,.256.8.867.867,0,0,0,.68.287,1.219,1.219,0,0,0,.409-.058,2.325,2.325,0,0,0,.287-.122c.081-.043.155-.082.218-.122a.357.357,0,0,1,.191-.058.294.294,0,0,1,.191.058.913.913,0,0,1,.16.175l.787,1.275a3.966,3.966,0,0,1-1.318.723,4.952,4.952,0,0,1-1.541.244" transform="translate(33.8 71.461)" fill="#233862"/>
        <path id="Path_10288" data-name="Path 10288" d="M52.447,112.46v-10.9h1.6a.646.646,0,0,1,.67.478l.17.807a6.188,6.188,0,0,1,.6-.584,3.981,3.981,0,0,1,.67-.457,3.6,3.6,0,0,1,.764-.3,3.432,3.432,0,0,1,.9-.112,2.536,2.536,0,0,1,1.694.558,3.353,3.353,0,0,1,.995,1.483,3.31,3.31,0,0,1,.637-.931,3.5,3.5,0,0,1,.838-.632,3.98,3.98,0,0,1,.972-.361A4.706,4.706,0,0,1,64,101.388a4.356,4.356,0,0,1,1.6.277,3.087,3.087,0,0,1,1.18.807,3.582,3.582,0,0,1,.728,1.3,5.7,5.7,0,0,1,.249,1.754v6.938H65.133v-6.938a2.333,2.333,0,0,0-.457-1.567,1.677,1.677,0,0,0-1.338-.526,2.016,2.016,0,0,0-.749.137,1.8,1.8,0,0,0-.606.4,1.831,1.831,0,0,0-.409.653,2.537,2.537,0,0,0-.148.9v6.938H58.791v-6.938a2.376,2.376,0,0,0-.441-1.594,1.65,1.65,0,0,0-1.3-.5,2.105,2.105,0,0,0-1.056.28,3.574,3.574,0,0,0-.919.771v7.98Z" transform="translate(37.65 72.784)" fill="#233862"/>
      </g>
    </g>
    <g id="Group_1636" data-name="Group 1636" transform="translate(108.161 169.453)">
      <g id="Group_1635" data-name="Group 1635" clip-path="url(#clip-path-13)">
        <path id="Path_10289" data-name="Path 10289" d="M65.587,107.624l-2.625-1.28v-7.7h2.625Z" transform="translate(-62.962 -98.641)" fill="#233862"/>
        <path id="Path_10290" data-name="Path 10290" d="M62.962,103.125l2.625,1.28v6.806H62.962Z" transform="translate(-62.962 -95.422)" fill="#233862"/>
      </g>
    </g>
    <g id="Group_1638" data-name="Group 1638">
      <g id="Group_1637" data-name="Group 1637" clip-path="url(#clip-path)">
        <path id="Path_10291" data-name="Path 10291" d="M66.815,110.65V108.78a.735.735,0,0,1,.107-.387.863.863,0,0,1,.35-.3l3.857-1.986a5.086,5.086,0,0,1,1.094-.383c-.2-.05-.4-.1-.579-.165a3.441,3.441,0,0,1-.515-.218l-3.857-1.976a.86.86,0,0,1-.35-.3.741.741,0,0,1-.107-.388V100.8l8.416,4.389v1.062Z" transform="translate(47.965 72.362)" fill="#233862"/>
        <path id="Path_10292" data-name="Path 10292" d="M193.179,188.884a32.967,32.967,0,1,1-32.968-32.968,32.968,32.968,0,0,1,32.968,32.968" transform="translate(91.346 111.928)" fill="#fff"/>
        <path id="Path_10293" data-name="Path 10293" d="M137.754,182.981l-7.11-4.4v-1.574l7.11-4.377V174.9l-4.911,2.895,4.911,2.915Z" transform="translate(93.785 123.928)" fill="#233862"/>
        <path id="Path_10294" data-name="Path 10294" d="M144.221,173.576a2.07,2.07,0,0,0-1.86,1.383,8.844,8.844,0,0,0-.682,3.841q0,5.125,2.673,5.124a4.892,4.892,0,0,0,2.451-.746v2.439a4.9,4.9,0,0,1-2.764.716,4.34,4.34,0,0,1-3.827-1.982,9.906,9.906,0,0,1-1.336-5.571,9.805,9.805,0,0,1,1.378-5.6,4.386,4.386,0,0,1,3.827-2.006,5.377,5.377,0,0,1,1.548.222,6.2,6.2,0,0,1,1.589.776l-.909,2.228a8.209,8.209,0,0,0-.967-.569,2.467,2.467,0,0,0-1.12-.258" transform="translate(99.695 122.883)" fill="#233862"/>
        <path id="Path_10295" data-name="Path 10295" d="M151.679,182.069a4.427,4.427,0,0,1-1.044,3.168,3.957,3.957,0,0,1-3.01,1.1,6.605,6.605,0,0,1-3.278-.758v-2.712a5.671,5.671,0,0,0,3.035,1.079,1.534,1.534,0,0,0,1.185-.433,1.686,1.686,0,0,0,.4-1.18,2.145,2.145,0,0,0-.474-1.347,7.08,7.08,0,0,0-1.563-1.357,6.946,6.946,0,0,1-1.438-1.256,4.494,4.494,0,0,1-.756-1.347,5.116,5.116,0,0,1-.268-1.733,4.187,4.187,0,0,1,1.055-3.006,3.716,3.716,0,0,1,2.829-1.11,6.2,6.2,0,0,1,3.257.948l-.907,2.2a8.57,8.57,0,0,0-1.014-.505,2.916,2.916,0,0,0-1.135-.222,1.244,1.244,0,0,0-1.024.44,1.833,1.833,0,0,0-.357,1.194,2.074,2.074,0,0,0,.428,1.3,6.35,6.35,0,0,0,1.5,1.261,6.209,6.209,0,0,1,2.012,1.976,4.6,4.6,0,0,1,.57,2.3" transform="translate(103.623 122.883)" fill="#233862"/>
        <path id="Path_10296" data-name="Path 10296" d="M156.646,182.069a4.428,4.428,0,0,1-1.044,3.168,3.957,3.957,0,0,1-3.01,1.1,6.605,6.605,0,0,1-3.278-.758v-2.712a5.671,5.671,0,0,0,3.035,1.079,1.534,1.534,0,0,0,1.185-.433,1.686,1.686,0,0,0,.4-1.18,2.145,2.145,0,0,0-.474-1.347,7.079,7.079,0,0,0-1.563-1.357,6.947,6.947,0,0,1-1.438-1.256,4.494,4.494,0,0,1-.756-1.347,5.118,5.118,0,0,1-.268-1.733,4.188,4.188,0,0,1,1.055-3.006,3.716,3.716,0,0,1,2.829-1.11,6.2,6.2,0,0,1,3.257.948l-.907,2.2a8.572,8.572,0,0,0-1.014-.505,2.916,2.916,0,0,0-1.136-.222,1.244,1.244,0,0,0-1.024.44,1.832,1.832,0,0,0-.357,1.194,2.074,2.074,0,0,0,.428,1.3,6.351,6.351,0,0,0,1.5,1.261,6.208,6.208,0,0,1,2.012,1.976,4.6,4.6,0,0,1,.57,2.3" transform="translate(107.188 122.883)" fill="#233862"/>
        <path id="Path_10297" data-name="Path 10297" d="M157.475,180.711l4.942-2.915-4.942-2.895v-2.269l7.11,4.377v1.574l-7.11,4.4Z" transform="translate(113.047 123.928)" fill="#233862"/>
        <path id="Path_10298" data-name="Path 10298" d="M161.3,136.4a24.029,24.029,0,1,1-24.03-24.03A24.03,24.03,0,0,1,161.3,136.4" transform="translate(81.294 80.665)" fill="#fff"/>
        <path id="Path_10299" data-name="Path 10299" d="M119.836,127.891l6.945-3.621v1.543a.626.626,0,0,1-.088.321.729.729,0,0,1-.29.249l-3.183,1.632a3.022,3.022,0,0,1-.424.179c-.149.05-.309.094-.478.136.168.041.328.088.478.136a2.838,2.838,0,0,1,.424.18l3.183,1.641a.716.716,0,0,1,.29.249.62.62,0,0,1,.088.32V132.4l-6.945-3.632Z" transform="translate(86.027 89.21)" fill="#233862"/>
        <path id="Path_10300" data-name="Path 10300" d="M127.025,135.545a1.335,1.335,0,0,1-.2.35,1.183,1.183,0,0,1-.282.251,1.3,1.3,0,0,1-.333.153,1.151,1.151,0,0,1-.342.053h-.912l5.121-13.1a1.229,1.229,0,0,1,.429-.565,1.141,1.141,0,0,1,.677-.2h.921Z" transform="translate(89.702 87.932)" fill="#233862"/>
        <path id="Path_10301" data-name="Path 10301" d="M130.167,132.4v-1.544a.6.6,0,0,1,.088-.32.712.712,0,0,1,.289-.249l3.183-1.641a4.2,4.2,0,0,1,.9-.316c-.17-.04-.328-.086-.478-.136a2.684,2.684,0,0,1-.426-.179l-3.183-1.632a.7.7,0,0,1-.289-.249.6.6,0,0,1-.088-.32V124.27l6.945,3.621v.878Z" transform="translate(93.443 89.21)" fill="#233862"/>
        <path id="Path_10302" data-name="Path 10302" d="M205.372,105.721s-23.245,29.762,3.276,60.031l9.971-.929S199.425,134,207.975,109.438l14.123,1.031,7.811-5.09Z" transform="translate(140.666 75.649)" fill="#ffb27d"/>
      </g>
    </g>
    <g id="Group_1640" data-name="Group 1640" transform="translate(343.586 221.212)">
      <g id="Group_1639" data-name="Group 1639" clip-path="url(#clip-path-15)">
        <rect id="Rectangle_4626" data-name="Rectangle 4626" width="12.546" height="16.699" transform="translate(-0.07 0)" fill="url(#linear-gradient)"/>
      </g>
    </g>
    <g id="Group_1642" data-name="Group 1642">
      <g id="Group_1641" data-name="Group 1641" clip-path="url(#clip-path)">
        <path id="Path_10304" data-name="Path 10304" d="M209.469,117.49c-.4.249-12.833,5.387-10.161,18.3a2.42,2.42,0,0,0,1.378,1.726,21.074,21.074,0,0,0,10.45,1.73c6.512-.663,10.781-12.029,10.6-15.335s-8.3-8.888-12.266-6.416" transform="translate(142.808 83.903)" fill="#ffb27d"/>
        <path id="Path_10305" data-name="Path 10305" d="M153.9,39.209l144.336-1.294a5.072,5.072,0,0,1,5.118,5.1l-.632,110.756a5.069,5.069,0,0,1-5.217,5.042c-26.1-.778-141.96-4.212-147.074-4-5.054.211-2.307-88.761-1.553-110.713a5.068,5.068,0,0,1,5.023-4.894" transform="translate(105.854 27.218)" fill="#ffa412"/>
        <path id="Path_10306" data-name="Path 10306" d="M295.893,152.816h-.026c-20.748-.62-125.209-3.721-144.37-3.991l-.211,0-.038-.21c-1.809-10.2-1.773-51.863.093-106.132a.838.838,0,0,1,.833-.809l144.334-1.294a.836.836,0,0,1,.849.845l-.63,110.756a.838.838,0,0,1-.833.837m-144.174-4.5c19.716.29,123.493,3.37,144.162,3.987l.022,0a.321.321,0,0,0,.308-.325l.63-110.758a.3.3,0,0,0-.093-.23.32.32,0,0,0-.237-.1L152.179,42.187a.324.324,0,0,0-.323.311c-1.852,53.873-1.9,95.3-.137,105.816" transform="translate(107.62 28.986)" fill="#fff"/>
        <path id="Path_10307" data-name="Path 10307" d="M162.942,127.365h94.615a3.809,3.809,0,0,0,3.283-5.739L223.382,57.949a3.807,3.807,0,0,0-6.746.349L198.548,97.929a3.807,3.807,0,0,1-6.037,1.225L185.2,92.447a3.808,3.808,0,0,0-5.7.634l-19.68,28.3a3.808,3.808,0,0,0,3.127,5.982" transform="translate(114.233 40.252)" fill="#fff"/>
        <path id="Path_10308" data-name="Path 10308" d="M234.962,61.728a13.6,13.6,0,1,1-13.6-13.6,13.6,13.6,0,0,1,13.6,13.6" transform="translate(149.145 34.548)" fill="#fff"/>
        <path id="Path_10309" data-name="Path 10309" d="M208.845,193.681s18.833,41.049,28.714,58.05c0,0,1.964,10.7,0,14.061l-1.671.744,7.8-.232s.694-14.391.153-15.195a1.993,1.993,0,0,0-1.625-.751s-3.346-26.517-13.04-32.176l-9.393-32.356Z" transform="translate(149.924 133.4)" fill="#ffb27d"/>
        <path id="Path_10310" data-name="Path 10310" d="M222.646,241.617c-.012.189,6.1.1,9.412.041a2.639,2.639,0,0,0,2.53-2.08l2.5-13.161a2.366,2.366,0,0,0-1.8-2.75l-1.4-.32s-1.994,2.737-1.367,5.313,1.187,9.249-.4,10.027-6.152.914-6.152.914-3.23.319-3.334,2.015" transform="translate(159.832 160.335)" fill="#062d66"/>
        <path id="Path_10311" data-name="Path 10311" d="M198.6,236.988a.689.689,0,0,0,.347,1.288c5.55-.057,17.99-.232,19.1-.692,1.428-.593-.522-5.721-2.57-7.457l-11.317,3.693Z" transform="translate(142.319 165.202)" fill="#062d66"/>
        <path id="Path_10312" data-name="Path 10312" d="M196.409,188.875s12.171,58.877,15.614,70.362l-8.144,5.111s4.082-.694,7.107-.914,5.812-3.693,5.812-3.693l-.976-1.555s-3.053-58.557-2.309-65.207Z" transform="translate(140.997 135.588)" fill="#ffb27d"/>
        <path id="Path_10313" data-name="Path 10313" d="M184.55,116.192s-1.678,30.628,26.206,46.278l-6.713,15.311s-25.246-15.27-24.313-56.917a4.84,4.84,0,0,0-1.184-3.262l-5.367-6.224a9.632,9.632,0,0,1-2.048-8.625l.706-2.824a1.464,1.464,0,0,1,2.156-.91l.56.326a9.848,9.848,0,0,1,4.046,4.5l2.633,5.889c.984,2.2,3.315,2.049,5.717,1.842l3.85.91Z" transform="translate(122.644 70.94)" fill="#ffb27d"/>
        <path id="Path_10314" data-name="Path 10314" d="M196.324,134.558c4.666,1.294,20.468,5.451,30.336,5.281L220.6,174.024l.481,5.574-19.75-.088s-5.561-12.913-9.946-19.35c-1.268-1.859-.325-4.077.393-6.21l-.986-.656a2.685,2.685,0,0,1-1.065-3.07l4.81-14.715a1.468,1.468,0,0,1,1.785-.952" transform="translate(136.106 96.557)" fill="#ffa412"/>
        <path id="Path_10315" data-name="Path 10315" d="M196.106,159.291l.388,3.377s-5.581,16.717,2.792,55.757c0,0,18.132,5.136,33.035-7.155,0,0-4.2-36.848-5.351-38.565-5.721-8.55-9.529-10.409-9.529-10.409l-.174-3.69s-15.938,2.881-21.161.684" transform="translate(139.75 113.86)" fill="#123b8c"/>
        <path id="Path_10316" data-name="Path 10316" d="M212.463,114.438c-.326.043-7.184,2.431-3.785,7.4s4.678,7.9,3.068,10.077c-1.465,1.988-4.712.855-4.429,4.992a2.32,2.32,0,0,1-.988,2.1c-3.06,2.072-10.524,8.445-3.128,17.534a2.314,2.314,0,0,1,.261,2.591c-2.166,3.886-6.715,15.265,9.756,21.578,16.275,6.238,22.15-4.4,23.793-8.653a2.269,2.269,0,0,1,2.245-1.436c1.788.084,4.322-.213,4.207-2.6a5.978,5.978,0,0,0-2.048-3.795,2.266,2.266,0,0,1,.436-3.57,4.446,4.446,0,0,0,2.194-2.759c.986-3.656-.983-14.583-11.458-16.435a2.474,2.474,0,0,1-1.915-1.852l-.007-.04a2.268,2.268,0,0,1,.842-2.226,5.879,5.879,0,0,0,2.075-7.658,8.582,8.582,0,0,0-6.71-5.078A2.28,2.28,0,0,1,225,121.875c.742-3.5.094-9.093-12.54-7.437" transform="translate(143.599 81.937)" fill="#062d66"/>
      </g>
    </g>
  </g>
</svg>
