<svg xmlns="http://www.w3.org/2000/svg" width="40.875" height="40.662" viewBox="0 0 40.875 40.662">
  <g id="Logo" transform="translate(-3672.368 -994.5)">
    <g id="g1894" transform="translate(3672.368 994.5)">
      <path id="path8615" d="M3692.658,994.5c-10.377,0-9.729,4.5-9.729,4.5l.011,4.662h9.9v1.4h-13.835s-6.64-.753-6.64,9.717,5.8,10.1,5.8,10.1h3.459v-4.859s-.187-5.8,5.7-5.8h9.821s5.518.089,5.518-5.333v-8.965S3703.5,994.5,3692.658,994.5Zm-5.46,3.135a1.781,1.781,0,1,1-1.781,1.781A1.78,1.78,0,0,1,3687.2,997.635Z" transform="translate(-3672.368 -994.5)" fill="#555"/>
      <path id="path8620" d="M3747.374,1088.138c10.377,0,9.729-4.5,9.729-4.5l-.011-4.662h-9.9v-1.4h13.835s6.64.753,6.64-9.717-5.8-10.1-5.8-10.1h-3.459v4.859s.186,5.8-5.7,5.8h-9.822s-5.518-.089-5.518,5.333v8.965S3736.53,1088.138,3747.374,1088.138Zm5.46-3.135a1.782,1.782,0,1,1,1.782-1.781A1.78,1.78,0,0,1,3752.834,1085Z" transform="translate(-3726.789 -1047.476)" fill="#a8a8a8"/>
    </g>
  </g>
</svg>
