<?xml version="1.0" encoding="utf-8"?>
<!-- Generator: Adobe Illustrator 26.0.2, SVG Export Plug-In . SVG Version: 6.00 Build 0)  -->
<svg version="1.1" id="Layer_1" xmlns="http://www.w3.org/2000/svg" xmlns:xlink="http://www.w3.org/1999/xlink" x="0px" y="0px"
	 viewBox="0 0 415.25 341.94" style="enable-background:new 0 0 415.25 341.94;" xml:space="preserve">
<style type="text/css">
	.st0{fill-rule:evenodd;clip-rule:evenodd;fill:#A8A8A8;}
	.st1{fill:#A8A8A8;}
	.st2{fill-rule:evenodd;clip-rule:evenodd;fill:#555555;}
</style>
<g id="Andy_x27_s_00000079470877969987242920000013512492090617157015_">
	<path id="Din_Suflet_00000052792625604246635940000016046933704452254859_" class="st0" d="M103.1,305.88l4.74-23.4
		c0.41-1.86,0.72-3.09,1.13-3.81c0.21-0.52,0.62-0.82,1.03-1.13v-0.1l-0.31,0.1c-0.52,0-1.55,0.52-2.99,1.34
		c-1.65,0.82-2.78,1.34-3.5,1.44c-0.31,0.1-0.62,0-0.72-0.1c-0.1-0.1-0.21-0.31-0.21-0.62c0-0.72,0.1-1.65,0.52-2.58
		c0.31-0.93,0.82-1.75,1.34-2.58c0.62-0.72,1.13-1.34,1.86-1.75c1.44-0.82,3.4-1.55,5.88-2.16c2.58-0.72,5.15-1.13,8.25-1.55
		c3.2-0.41,5.88-0.1,8.25,0.72c2.27,0.82,4.12,2.27,5.36,4.33c1.24,2.06,2.06,4.64,2.27,7.73c0.21,3.09-0.21,6.29-1.24,9.59
		c-0.93,3.3-2.27,6.08-4.02,8.56c-4.02,5.57-9.59,8.76-16.7,9.69c-2.27,0.31-4.33,0.31-6.29,0.21c-1.96-0.21-3.3-0.52-3.81-1.13
		c-0.41-0.21-0.62-0.82-0.72-1.44C103.1,306.49,103.1,306.29,103.1,305.88z M120.01,330.51c0.52,0.1-1.13,0.72-0.1,0.52l0.93-0.62
		c-0.1,0.21,0.52,0.21,0.72,0.41c0.31-0.52-1.44-0.21-0.41-0.93c0.21-0.31,1.13-0.52,1.55-0.62c-1.03,0.21-0.1-0.31,0.41-0.62
		c0.62,0,1.55-0.31,1.96-0.21c0.1-0.1,0.52-0.21,0.82-0.31l0.1,0.1c0.72-0.21-0.31,0-0.1-0.21c0.52-0.1,1.34-0.21,2.27-0.41
		c-0.82,0.21-1.55,0.62-2.16,0.82c1.55-0.21-0.21,0.62-0.41,1.03c1.24-0.52,1.65-0.72,2.58-1.24c1.34-0.1,0.1,0.82-0.21,1.03
		c1.03-0.41,2.16-1.13,2.78-1.34c-0.72,0.62-0.62,0.72-1.24,1.34c1.03,0,1.03-0.31,1.55-0.62c-0.21,0.1-0.62,0.21-0.72,0.1
		c1.03-0.21,0.72-0.82,1.24-1.34c0.82,0,2.37-0.31,2.37,0.1l-0.21-0.41c0.93-0.31,0.52,0.1,0.72,0.21c0.21-0.41-0.21-0.72,1.24-1.24
		c-0.1,0.72,1.44-0.31,1.55,0.41c0.72-0.21,1.03-0.72,1.75-0.72c0.93,0.21-0.93,1.13-1.44,1.24c-1.03,0.31,0-0.31-0.41-0.21
		l-0.93,0.41c0.62,0,1.75-0.1,1.75,0.21c0.93-0.41-0.93-0.1,0.21-0.52h0.72c1.03-0.41-0.41-0.41,1.13-0.93
		c-0.93,0.52,1.65-0.41,1.65,0.1c0-0.62,2.68-0.72,2.78-1.24h-0.82l0.31,0.21c-0.82,0.21-1.55,0.62-2.47,0.72
		c0.62-0.31-0.41-0.41,0.41-0.82c1.44-0.72,0.52,0.21,0.72,0.21l1.13-0.62l-0.93-0.1c0.93-0.31,2.27-0.72,3.5-1.03
		c1.96-0.1-0.1,0.41,1.34,0.31c0.52-0.21,0.31-0.41,1.34-0.62c-0.52-0.1-0.82,0.31-1.13,0.31c-0.52-0.21,1.55-0.62,1.34-0.93
		c0.41,0,0.41,0.21,0.1,0.41c1.44-0.52,2.89-0.72,3.61-0.52l0.62-0.52c2.58-0.52-1.65,0.82,0.52,0.62c0.82-0.21,1.75-0.41,2.06-0.72
		l-0.72,0.1c0.52-0.31,0.52-0.62,1.34-0.93c0.62-0.1,0.41,0.21,1.13-0.21c2.06-0.21,0.72,0.62,0.52,1.03
		c1.55-0.1-0.52,1.13,0.41,0.52h-0.31l1.34-1.03c-1.55-0.21-0.52,0.62-1.13,0.21l-0.82,0.1c0.21-0.31,2.27-0.62,2.37-0.93
		c0.1,0.1-0.1,0.52-0.93,0.72l0.72,0.52c0.52,0,0.82-0.52,1.03-0.31c0.82,0.21-1.03,0.82,1.03,0.52c2.06-0.31,1.75-0.93,3.09-1.24
		c-0.21-0.1-0.52-0.1-0.93,0.1c0.41-0.31-0.41-0.21,0.31-0.62c0.52,0.21,1.96-0.1,2.99-0.31c-0.21,0.31,0.52,0.21,0.1,0.52
		c0.52-0.1,1.03-0.41,1.24-0.62c-2.27,0.31,2.06-0.82,0.31-0.82c1.65-0.31,2.16-0.1,3.3-0.21c0,0.1-1.96,0.72-0.31,0.52
		c1.65-0.72-0.52-0.41,0.82-1.24l-1.13,0.1c-0.31-0.41,1.96-0.52,2.16-0.72c0.72,0-0.93,0.31-0.21,0.52
		c1.03-0.1,1.55-0.62,2.27-0.52c-0.52,0.41-0.21,0.31-0.93,0.72c2.47-0.62,0,0.41,1.86,0.21c0.52-0.1,0.1-0.41,1.13-0.52
		c-0.62-0.31-0.62-0.41-2.06,0c0.41-0.62,1.96-0.31,2.99-0.82c-0.82,0.1-0.31,0-1.13,0.31c-0.31-0.41-0.62-0.41,0.21-1.03
		c-0.93,0.31-1.34,0.93-2.68,1.03c-0.52-0.31,1.65-0.72,1.55-1.34c0.62-0.41,2.47-0.62,3.3-0.62c1.34-0.72,2.99-1.03,3.92-1.75
		c1.03-0.1,3.4-1.13,5.36-1.34c0.31,0.1,2.27-0.41,1.24,0.21c0.1-0.1,1.75-0.41,1.24-0.62c-0.1,0.1-0.31,0.1-0.62,0.1l0.21-0.41
		c0.93-0.1,1.86-0.62,2.78-0.62c0.31,0.1-1.65,0.41-1.03,0.72c0.82-0.62,4.12-1.55,5.26-1.65c0.72-0.1,0.93,0.31,1.24,0.21
		l1.24-0.31c0.21,0.1,0.21,0.21,0.52,0.31c0.62,0,0.93-0.21,1.34-0.41c1.65,0,0.93,0.41,0.1,0.82l-0.93,0.1
		c-0.62,0.31-1.65,0.41-1.03,0.62c0.41-0.21,0.41-0.31,0.52-0.31l0.62,0.1c0.52-0.21,1.96-0.62,1.75-0.82c1.13,0,2.37-0.52,3.4-0.52
		c-0.72-0.1,0.1-0.31-0.1-0.52l-1.13,0.21c0.93-0.21,2.27-0.72,3.2-0.72c-0.1,0.21-0.1,0.31,0.41,0.31
		c-0.72-0.1,1.65-0.62,0.21-0.72c-0.41,0.21-0.93,0.31-1.65,0.41c-0.52-0.21,0.52-0.62,1.03-0.82c0.72-0.21,2.16-0.62,2.99-0.93
		c0.62,0,0.93,0.41,1.86-0.1c-1.44-0.1,1.13-0.82,1.34-1.34c1.03,0,1.65-0.62,2.47-0.52c-0.41,0.21-1.96,0.52-2.27,0.82
		c0,0.31,0.41,0.62-1.03,1.03c1.86-0.21,1.03-0.41,1.86-0.62l-0.62,0.1c0.21-0.21-0.31-0.21,0.21-0.41c2.16-0.31,2.58,0,4.12,0
		c-0.41-0.1,0.21-0.52,0.62-0.52c1.44,0,0,0.62,1.03,0.82c0.41-0.41,1.44-0.52,1.13-0.62c0.52-0.1,0.31,0,0.72,0.1
		c0.31-0.31,0.62-0.41,1.55-0.62c0,0.1-0.1,0.31-0.82,0.41c0.82,0,1.24,0.31,0.82,0.62l-1.34,0.1c-0.52,0.31,1.24-0.1,1.24,0.1
		c-0.52,0.1-1.03,0.1-1.44,0.21c0.41,0.21,1.55-0.21,2.27-0.41c1.03-0.1,0.72,0.21,0.82,0.41c1.75-0.72-2.16-0.1-0.52-0.93
		c0.52-0.41,2.27-0.72,3.4-0.93c-1.03-0.21,0.1-0.52,1.24-0.93c-1.55,0.21-0.52-0.31-2.16,0.21l-0.1-0.31
		c0.72-0.1,1.65-0.1,2.47-0.31c-0.1,0.1,0.1,0.1-0.21,0.31l2.37-0.52l-0.21,0.31c1.44-0.21,3.2-0.31,4.12-0.52
		c-0.62,0.1-1.34,0-0.62-0.31c0.41-0.21,1.13-0.52,1.86-0.52c0.41,0.21,2.78-0.1,1.44,0.41c2.06-0.52,1.13-0.41,3.09-0.93
		l-1.24,0.31c-0.21-0.21,0.82-0.82-0.41-0.82c1.34-0.41,0.41-0.82,2.37-1.13c0.82,0.1-0.21,0.62-1.24,0.82c0.52,0,1.03,0,1.55-0.21
		c0.41,0.1-1.03,0.52-0.93,0.62c1.03-0.1-0.1-0.1,0.82-0.31c1.65-0.52,1.13,0.31,2.68-0.1c-0.31,0.1-0.93,0-0.62-0.21
		c2.06-0.31,1.13-0.41,2.68-0.72c0.93,0.31,0.62,0.82,1.96,0.72l-1.55,0.41c0.62,0.21,1.24,0.1,1.75,0.1
		c2.89-0.72,5.15-1.65,8.14-2.37l-1.03,0.21c-0.41-0.1,0.82-0.31,0.82-0.41l0.72,0.1c0.1-0.31-1.55-0.1-1.24-0.41
		c0.1,0,0.31,0,0.41-0.1l-0.62-0.1c1.44-0.1,2.47-0.72,3.61-0.41c-2.68,0.31-0.31,0.93-2.89,1.34c1.34-0.31,0.31,0.21,0.52,0.31
		c0.72,0,0.31-0.31,1.13-0.31c0,0.21-1.75,0.62-1.03,0.62c0-0.31,0.72-0.31,1.13-0.62c0.62,0.1,0,0.21,0.31,0.31
		c0.31-0.1,0.52-0.21,0.82-0.21l-0.21,0.21c1.75,0.1,0.41-0.41,2.47-0.52c0-0.31-0.62-0.21-1.34,0c-0.41-0.52,2.47-0.93,2.27-1.55
		c1.86-0.31-0.41,0.31,1.13,0.31c0.93,0.31-1.13,0.62-1.44,0.93l1.65,0.1c-0.52,0.62-1.55,0.62-1.75,1.03
		c1.24-0.1,1.03-0.21,2.27-0.62c-2.06-0.21,0.82-0.41-0.31-0.72c0.93,0,0.72,0.21,1.96,0c-0.82,0.21,0,0.41-1.13,0.62
		c1.75-0.21,1.24-0.31,3.2-0.52c0.52-0.41-1.86-0.31,0.31-0.82c0.52,0,0.41,0.1,0.1,0.1c1.55,0-0.41-0.41,0.62-0.62
		c0.62-0.1,0.93,0,0.72,0.21c0.93-0.31,0.31-0.52,1.13-0.62h-0.31c0.31-0.21-0.52-0.62,0.93-0.72c1.03-0.1,0.82,0.21,0.82,0.31
		c0.82-0.21,1.44-0.21,2.06-0.1c-0.1-0.1,0-0.1,0.21-0.21c1.34-0.31,0.82,0.21,1.44,0.21c2.06,0-0.31-0.62,1.96-0.82l-2.58,0.1
		c0.1-0.21,0.21-0.52-0.52-0.41c0,0.31-1.03,0.62-1.86,0.62c-0.31-0.31,2.37-0.62,0.82-0.72c0.52,0.1,1.24-0.21,1.86-0.21
		c-0.62,0.31,2.06-0.1,1.03,0.31c2.78-0.31,3.3-0.21,5.98-0.52c-0.21,0.21-1.86,0.82-3.3,0.82l-0.1-0.21
		c-1.65,0.31,1.34,0.1,1.13,0.41c2.06-0.72,4.64-0.1,7.32-0.52c-0.52-0.21,0-0.31,0.21-0.52c-1.03,0.1-0.82,0.1-1.65,0
		c0.1-0.21,0.72-0.21,1.03-0.41c0.21-0.31-0.82,0-1.13,0c0.93-0.21,0.82-0.21,1.55-0.52c0.62,0.21,0.52,0.21,1.03,0.52
		c2.47-0.1,2.16-0.52,4.12-0.62c-1.13,0,0.52,0.21-0.62,0.21h0.62c-1.75,0.41-4.64,0.62-4.23,1.24c1.34-0.21,2.37-0.62,4.12-0.62
		l-0.1,0.1c1.24-0.1,0-0.21,0.21-0.31c1.34-0.31,1.86,0.52,2.68,0h-1.44c1.03-0.31-0.31,0-0.1-0.41c1.96-0.41,5.15-0.41,7.83-0.72
		c-0.82-0.21-1.03-0.21-2.06-0.21c0.52-0.62,0.93-0.52,0.31-1.03h-1.24v-0.52c0.31-0.1,0.72,0,0.93,0c0.1-0.31,1.86,0,1.86-0.31
		l-1.03,0.1c-0.52-0.21,0.72-0.21,1.44-0.41c-0.72-0.31-2.27,0.1-3.71,0.21c0.1,0.21-1.34,0.62,0.1,0.62c0,0.21-0.82,0.31-1.44,0.41
		c0.31-0.21-1.24-0.52,0.21-0.72c-1.24,0.31-0.52,0-1.96,0.21c0.21-0.21-2.47,0.21-2.37-0.31c-0.41,0.31,0,0.62-1.65,0.72
		c0.41,0.21,2.27,0.21,1.03,0.62l0.72-0.21c1.13,0.1-0.31,0.41,1.24,0.41c-0.41,0-1.34,0.21-1.55,0c0.41,0.62-2.27,0.41-2.27,0.93
		c-0.31-0.1-0.82-0.21-1.65-0.1c0.1-0.21-0.41-0.31,0.21-0.52c0.52,0.1,0.93-0.1,1.55,0.1c-0.31-0.62-2.16-0.1-3.5-0.1
		c0.21,0,0.31,0.1-0.1,0.21c-0.82-0.1-2.68-0.1-2.27-0.31l-4.23,0.41c0-0.1,0.62-0.1,0.82-0.21l-2.37,0.21
		c-0.62-0.21,0.72-0.21,1.03-0.52l-1.65,0.1l0.21-0.21c-0.41,0.21-2.27,0.41-2.89,0.1c-1.86,0.21-1.75,0.93-4.33,0.93
		c0-0.31,1.34-0.31,2.06-0.52c-0.52-0.1-1.96,0.31-2.27,0c-1.75,0.31-1.55,1.03-2.37,1.34c-1.44,0.21-0.21-0.21-0.31-0.31
		c-0.41,0.1-1.13,0.72-1.55,0.21c-0.62,0.31-1.13,0.62,0,0.62c-0.82,0.1-1.86,0.31-2.06,0.52c0.62-0.52-0.93-0.1-1.13-0.52
		c-1.13,0.1-3.81,0.21-4.84,0.82l0.31-0.62l-1.34,0.31c-1.13-0.21,1.24-0.52,1.86-0.62c-1.86,0.1-3.09,0.31-4.84,0.52
		c0.52,0.1,0.21,0.21,0.52,0.31c-0.52,0.21-1.34,0.31-1.96,0.31c-0.21-0.1-0.1-0.21,0.31-0.41l-1.13,0.21
		c0-0.31-0.52-0.21,0.62-0.62l-1.03,0.21c-1.24,0.1,0-0.31,0.21-0.41l-1.86,0.21c-0.62,0.21,0.41,0.21-0.93,0.52
		c-1.75-0.1-4.02,0.31-5.98,0.52l1.44,0.1c-1.13,0.1-0.93,0.52-1.24,0.82c-1.13,0.1-2.47,0.41-3.61,0.41
		c0.93-0.41,0.52-0.72-0.52-0.82c-2.16,0.31-1.65,0.72-2.78,1.13c0.93-0.82-1.55,0-1.44-0.31c-0.1,0-0.31,0.1-0.41,0.1l0,0
		c0.21-2.06,0.31-4.74,0.31-8.04l-0.1-1.34c0.1,0,0.21-0.1,0.31-0.1s0.21-0.1,0.52,0c1.03-0.21,1.96-0.41,2.47-0.82
		c0.52-0.21,1.13-0.72,1.44-1.24c0.52-0.62,0.72-1.13,1.03-1.96c0.31-0.82,0.41-1.44,0.41-1.96c-0.1-1.03-1.03-1.44-2.68-1.24
		c-0.41,0.1-0.93,0.1-1.44,0.31c-0.31,0.1-0.52,0-0.62,0.1c-0.1,0-0.31,0.1-0.52,0l-0.31,0.1c0-0.21,0-0.41,0.1-0.62
		c0-0.21,0.1-0.52,0.1-0.62c0.31-3.61,0.41-6.18,0.62-7.83c0.21-1.65,0.31-3.4,0.52-5.46c0.1-0.52,0.1-0.93,0.21-1.34
		c0.21,0.1,0.31,0.41,0.41,0.72c0.1,0.41,0.21,1.34,0.21,2.68v0.31l0.1,0.41c0.1,1.34,0.31,1.96,0.62,2.06
		c0.41-0.1,0.72-0.52,1.13-1.55c0.31-1.03,0.52-2.37,0.72-3.92c0.21-1.55,0.21-3.09,0.1-4.43c0-0.93-0.21-1.55-0.62-2.06
		c-0.41-0.41-0.82-0.62-1.55-0.62c-1.44,0.21-2.89,1.44-4.23,3.81c-1.34,2.47-2.58,5.57-3.61,9.48c-1.03,3.92-1.75,8.35-2.27,12.99
		c-0.41,4.54-0.62,8.97-0.41,13.3c-0.31,0.1-0.72,0.1-1.03,0.21c0.1,0.1,0.93,0.1,0.41,0.21c-1.03,0.31-1.55,0.1-1.75,0
		c-1.34,0.31-2.16,0.62-2.58,0.93c0.62-0.1,0.62,0,0.62,0.21c-1.34,0.31-1.03-0.21-2.27,0.31c-0.41-0.21,1.44-0.52,1.24-0.72
		c-1.24,0.21-1.96,0.41-2.78,0.72c-0.31-0.21,0.82-0.21,0.1-0.31c-1.86,0.52-4.02,1.13-5.46,1.55l-0.41-0.21
		c-0.82,0.21-1.44,0.41-1.96,0.52c-0.52-0.1-0.1-0.1,0.31-0.31c-1.13,0.21-2.68,0.72-3.3,0.93c0-0.21,0.62-0.1,0.82-0.31
		c-1.44,0.31-3.3,1.13-4.33,1.03c0.1-0.1,0.21-0.1,0.41-0.21c-2.27,0.41-4.12,1.03-6.6,1.55c-2.27,0.1-0.62,0.52-2.78,0.93
		c-0.1-0.72-2.99,0.52-3.92,0.62h0.31c-1.03,0.52-2.58,0.62-3.4,0.52c-1.55,0.31-4.02,0.82-5.67,1.55l0.31-0.31
		c-1.34,0.52-2.27,0.41-3.5,0.93c0-0.1,0.52-0.21,0-0.21c-6.6,1.24-12.99,3.2-19.48,4.64c-12.37,2.68-27.73,6.39-39.58,10.1
		C123.72,324.74,118.77,329.48,120.01,330.51z M311.73,285.67c-1.03,0.1-1.65-0.21-1.65-1.03c0-0.21,0.1-0.62,0.1-1.13
		c0.1-0.52,0.21-0.93,0.31-1.24c0.31-0.93,0.62-1.55,0.82-1.86c0.31-0.41,0.82-0.72,1.44-1.13c0.62-0.31,1.24-0.52,1.75-0.52
		c0.72,0,1.13,0.31,1.13,1.24c0,0.82-0.1,1.96-0.52,3.3c-0.1,0.41-0.21,0.72-0.41,0.93c-0.1,0.21-0.31,0.41-0.82,0.52
		C313.18,285.26,312.35,285.57,311.73,285.67z M304.72,286.5c-1.03,0.1-1.65-0.21-1.65-1.03c0-0.21,0.1-0.62,0.1-1.13
		c0.1-0.52,0.21-0.93,0.31-1.24c0.31-0.93,0.62-1.55,0.82-1.86c0.31-0.41,0.82-0.72,1.44-1.13c0.62-0.31,1.24-0.52,1.75-0.52
		c0.72-0.1,1.13,0.31,1.13,1.24c0,0.82-0.1,1.96-0.52,3.3c-0.1,0.41-0.21,0.72-0.41,0.93c-0.1,0.21-0.31,0.41-0.82,0.52
		C306.06,286.09,305.34,286.39,304.72,286.5z M297.61,287.32c-1.03,0.1-1.65-0.21-1.65-1.03c0-0.21,0.1-0.62,0.1-1.13
		c0.1-0.52,0.21-0.93,0.31-1.24c0.31-0.93,0.62-1.55,0.82-1.86c0.31-0.41,0.82-0.72,1.44-1.13c0.62-0.31,1.24-0.52,1.75-0.52
		c0.72-0.1,1.13,0.31,1.13,1.24c0,0.82-0.1,1.96-0.52,3.3c-0.1,0.41-0.21,0.72-0.41,0.93c-0.1,0.21-0.31,0.41-0.82,0.52
		C299.05,286.91,298.23,287.32,297.61,287.32z M285.76,266.81v-0.31c0.72-2.89,1.44-4.95,1.96-6.08c0.31-0.62,0.72-1.03,1.24-1.65
		c1.03-0.82,1.96-1.34,2.89-1.44c0.52,0,0.93,0,1.24,0.21c0.31,0.21,0.41,0.52,0.52,1.13c0.1,0.31-0.1,1.13-0.52,2.27
		c-0.62,1.86-1.03,3.5-1.24,5.15c0.21,0,0.41,0,0.72,0.1c0.82,0.1,1.34,0.1,1.65,0.31c0.31,0.1,0.41,0.41,0.41,0.82
		c0,0.82-0.1,1.55-0.41,2.27c-0.31,0.72-0.72,1.24-1.34,1.65c-0.41,0.31-1.24,0.52-2.16,0.72c-0.21,0.62-0.21,1.44-0.41,2.47
		c-0.1,0.93-0.1,2.16-0.21,3.81c-0.1,0.62,0,1.13-0.1,1.65c0.21,2.37,1.24,3.4,3.3,3.09h0.1h0.1c0.21-0.1,0.41,0,0.41,0.1
		c0,0.21-0.21,0.72-0.62,1.24c-0.52,0.62-0.93,1.13-1.44,1.75c-0.62,0.52-1.24,1.03-1.86,1.24c-0.62,0.31-1.34,0.62-1.96,0.62
		c-1.44,0.21-2.58-0.31-3.5-1.24c-0.93-0.93-1.44-2.37-1.55-4.12c0-0.72,0.1-1.75,0.21-2.99c0.1-1.24,0.41-2.99,0.82-4.95
		c0-0.41,0.1-0.82,0.21-1.13c0-0.41,0.1-0.62,0.1-0.72c-0.52,0-0.93,0-1.24-0.21c-0.31-0.21-0.31-0.52-0.41-1.13
		c0-0.93,0.21-1.86,0.82-2.78C284.11,267.74,284.93,267.12,285.76,266.81z M271.84,283.82c0.21,0.93,0.82,1.34,1.75,1.24
		c1.03-0.1,2.37-1.03,4.02-2.47c0.93-0.93,1.55-1.44,1.86-1.34c0.41-0.1,0.82,0,1.24,0.21c0.41,0.21,0.62,0.52,0.52,0.72
		c0,0.31-0.21,0.72-0.52,1.24c-0.72,0.82-1.55,1.86-2.47,2.68c-0.93,0.93-1.86,1.65-2.58,2.37c-0.93,0.62-1.75,1.13-2.68,1.44
		c-0.82,0.41-1.65,0.62-2.37,0.72c-1.75,0.21-3.2-0.21-4.23-1.13c-1.13-0.93-1.75-2.37-1.86-4.23c-0.1-1.34,0.1-2.99,0.62-4.84
		c0.52-1.86,1.13-3.61,1.96-5.15c1.03-1.96,2.27-3.61,3.81-4.95c1.96-1.65,3.71-2.58,5.57-2.89c1.24-0.21,2.37,0.1,3.09,1.03
		c0.72,0.82,1.24,1.96,1.24,3.61c0.1,1.24-0.21,2.58-0.62,4.02c-0.52,1.44-1.34,2.89-2.37,4.23c-0.82,1.13-1.75,2.06-2.68,2.78
		c-0.93,0.72-1.65,1.03-2.27,1.24C272.46,284.02,272.15,284.02,271.84,283.82z M271.74,283.1c0.62-0.52,1.03-1.13,1.44-1.65
		c0.62-1.03,1.13-2.27,1.55-3.71c0.31-0.93,0.52-1.86,0.62-2.99c0.1-1.03,0.1-2.06,0.1-2.99c0-0.82-0.21-1.24-0.62-1.24
		c-0.41,0.1-1.03,1.24-1.86,3.5c-0.41,1.44-0.82,2.68-1.13,4.12c-0.21,1.34-0.31,2.47-0.31,3.4
		C271.53,282.07,271.64,282.58,271.74,283.1z M256.59,274.33c0.52-1.86,0.82-3.71,1.13-5.77s0.31-3.5,0.31-4.54
		c0-0.31-0.1-0.41-0.31-0.41c-0.21,0.1-0.62,0.62-1.13,1.86c-0.52,1.24-0.93,2.37-1.24,3.61c-0.72,2.68-1.24,4.84-1.55,6.7
		c-0.41,1.75-0.52,3.3-0.62,4.43c-0.1,1.13-0.1,2.37-0.1,3.61c0.1,1.03,0.21,1.75,0.41,2.27c0.31,0.41,0.52,0.72,1.03,0.62
		c0.72-0.1,1.65-0.52,2.58-1.55c0.93-0.82,1.75-1.96,2.37-3.4c0.52-1.03,1.03-1.55,1.44-1.65s0.72,0.31,0.72,1.13
		c0.1,1.65-0.21,3.4-1.13,5.15c-0.93,1.75-1.96,3.2-3.5,4.43c-1.44,1.24-2.99,1.86-4.54,2.06c-1.86,0.21-3.5-0.21-4.84-1.44
		c-1.34-1.24-1.96-2.89-2.06-5.05c-0.1-1.75,0.1-3.92,0.62-6.39c0.52-2.47,1.34-4.95,2.37-7.52c1.03-2.58,2.16-4.84,3.4-7.01
		c1.24-2.16,2.58-3.81,3.81-4.95c0.82-0.72,1.65-1.13,2.68-1.34c0.72-0.1,1.44,0,2.16,0.52c0.72,0.52,1.24,1.13,1.55,2.06
		c0.41,0.82,0.62,1.96,0.72,3.09c0.21,2.47-0.21,4.95-0.82,7.52c-0.82,2.47-1.86,4.64-3.4,6.6c-0.72,0.93-1.44,1.75-1.96,2.16
		c-0.72,0.52-1.24,0.93-1.75,0.93s-0.72-0.1-0.72-0.62c0-0.21,0.21-0.72,0.41-1.44c0.41-0.93,0.93-2.27,1.55-4.23
		c0-0.21,0.1-0.41,0.21-0.62C256.48,274.95,256.48,274.64,256.59,274.33z M219.69,288.66l-0.31,0.41c-0.1,0.1-0.62,0.52-1.34,1.44
		c-1.75,1.75-3.09,3.2-4.23,4.23c-1.13,1.03-2.06,1.86-2.89,2.37c-0.82,0.52-1.44,0.82-1.86,0.82c-0.82,0.1-1.44-0.1-1.96-0.93
		c-0.52-0.72-0.82-1.65-0.82-2.78c-0.1-1.96,0-4.33,0.41-7.11s0.93-5.46,1.75-8.14c0.82-2.99,1.96-4.84,3.4-5.77
		c0.41-0.31,1.13-0.52,1.86-0.52c0.93-0.1,1.75,0.1,2.27,0.72c0.62,0.62,1.03,1.44,1.03,2.47c0,0.72-0.1,1.55-0.21,2.37
		c-0.21,0.82-0.52,1.96-0.93,2.99l-0.21,0.82c-1.13,3.2-1.65,5.15-1.65,5.77c0.1,0.41,0.1,0.52,0.31,0.52
		c0.21-0.1,0.52-0.21,0.93-0.62c0.31-0.41,0.82-1.03,1.55-2.16c0.41-0.72,1.13-1.55,1.86-2.58l0.82-1.03l0.72-0.93
		c1.44-1.86,2.58-3.3,3.5-4.12c0.93-0.82,1.65-1.24,2.37-1.44c1.13-0.21,1.86,0.93,2.06,3.3c0,0.52,0.1,1.34-0.1,2.58
		c0,2.37,0,4.43,0.1,6.08c0.1,0.31,0,0.62,0.1,0.93c0,0.31,0,0.62,0.1,1.03c0.21,1.13,0.31,1.96,0.41,2.47l0.31,1.34
		c0,0.52-0.31,1.03-1.13,1.44c-0.72,0.41-1.75,0.72-2.78,0.93c-0.93,0.1-1.86,0-2.58-0.41c-0.72-0.41-1.24-0.82-1.65-1.75
		c-0.41-0.72-0.62-1.86-0.72-2.99c0-0.1,0-0.41,0-0.82C219.69,289.8,219.79,289.28,219.69,288.66z M189.07,283.71
		c-1.44-1.24-2.47-2.58-3.09-3.61c-0.62-1.03-0.93-2.27-0.93-3.61c-0.1-1.96,0.31-3.92,1.34-5.77c1.03-1.86,2.37-3.5,4.12-4.64
		c1.75-1.24,3.71-1.96,5.77-2.16c2.37-0.31,4.23,0,5.57,1.03c1.34,1.03,2.06,2.37,2.16,4.43c0,0.93-0.1,1.96-0.52,3.09
		c-0.41,1.13-0.93,2.06-1.75,3.09c-0.52,0.72-1.03,1.24-1.55,1.65c-0.41,0.41-0.93,0.52-1.24,0.62c-0.41,0.1-0.62-0.31-0.62-1.03
		c0,0,0-0.21,0.1-0.82c0.1-0.82,0.1-1.55,0-2.16c0-0.93-0.21-1.75-0.52-2.68c-0.31-0.82-0.62-1.65-1.03-2.16
		c-0.41-0.52-0.72-0.82-1.13-0.72c-0.21,0-0.31,0.21-0.52,0.41c-0.41,0.62-0.62,1.13-0.93,1.86c-0.21,0.72-0.21,1.44-0.21,2.06
		c0,0.72,0.21,1.44,0.41,2.16c0.21,0.62,0.62,1.34,1.13,1.86c0.52,0.52,1.24,1.24,2.06,1.96c1.34,1.13,2.47,2.27,3.2,2.99
		c0.72,0.93,1.34,1.75,1.65,2.78c0.41,0.93,0.62,1.96,0.62,3.09c0.1,1.96-0.31,4.02-1.13,5.88c-0.82,1.96-2.06,3.61-3.5,4.95
		s-2.99,2.06-4.74,2.27c-1.55,0.1-3.09,0-4.74-0.62c-1.55-0.62-2.99-1.44-4.43-2.68c-1.44-1.24-2.27-2.58-2.16-3.71
		c0-0.72,0.21-1.44,0.72-2.16c0.62-0.72,1.24-1.44,2.16-2.06c0.93-0.62,1.65-0.93,2.27-1.03c0.31-0.1,0.62,0.1,0.93,0.21
		c0.31,0.1,0.52,0.41,0.72,0.93c0.31,0.41,0.41,1.03,0.62,1.86c0.41,1.03,0.62,1.96,1.03,2.47c0.21,0.52,0.62,1.03,1.13,1.55
		c0.52,0.41,0.93,0.62,1.55,0.62s1.03-0.41,1.44-1.03s0.41-1.34,0.41-2.27c-0.1-1.44-0.62-2.89-1.65-4.33
		c-0.31-0.41-0.62-0.93-1.03-1.24c-0.41-0.31-1.13-1.03-2.27-1.96C190.41,284.85,189.9,284.44,189.07,283.71z M157.84,290l1.34-2.06
		c1.34-1.96,2.37-3.4,3.3-4.43c0.82-0.93,1.55-1.75,2.16-2.16c0.62-0.41,1.34-0.82,2.06-0.82c1.13-0.1,1.96,0.1,2.37,0.62
		s0.72,1.75,0.93,3.4c0,0.72,0,1.65,0,3.09c-0.1,1.75,0,3.5,0,5.05c0.1,1.75,0.31,3.09,0.52,4.23c0.1,0.62,0.41,1.24,0.62,1.96
		c0.1,0.62,0.31,1.03,0.31,1.24c0,0.31-0.1,0.52-0.31,0.72c-0.52,0.62-1.03,1.03-1.96,1.44c-0.72,0.41-1.44,0.72-2.06,0.72
		c-0.93,0.1-1.75-0.21-2.47-0.82c-0.72-0.62-1.44-1.44-1.86-2.68c-0.52-1.24-0.82-2.58-0.82-4.02c-0.1-1.03,0-2.27,0.1-3.61
		l-0.1-0.1c-0.62,0.93-1.13,1.65-1.55,2.27c-0.41,0.62-0.72,1.03-1.13,1.55c-1.55,2.47-3.09,4.64-4.23,6.6
		c-0.41,0.82-0.82,1.44-1.24,2.06c-0.62,0.62-1.13,1.13-1.86,1.24c-1.03,0.1-1.86-0.21-2.47-1.03s-1.03-1.86-1.13-3.09
		c0-0.82,0-1.86,0.1-3.09s0.31-2.58,0.52-3.92c0.21-1.44,0.52-2.89,0.82-4.33c0.41-1.55,0.72-2.89,1.03-4.23
		c0.62-2.16,1.34-4.02,2.37-5.36c0.72-0.82,1.44-1.44,2.58-1.55c1.65-0.1,2.47,0.93,2.68,3.3C158.56,284.13,158.25,286.6,157.84,290
		L157.84,290z M142.38,279.49c-1.44,0.21-2.27-0.72-2.37-2.78c0-0.93,0.1-2.16,0.41-3.5c0.31-1.34,0.72-2.27,1.34-2.99
		c0.21-0.41,0.62-0.62,0.82-0.82c0.31-0.21,0.62-0.21,1.03-0.31c0.82-0.1,1.34,0,1.86,0.52c0.41,0.31,0.62,1.13,0.72,2.06
		c0.1,1.24,0,2.47-0.41,3.61c-0.31,1.24-0.82,2.06-1.44,2.89C143.82,278.97,143.1,279.39,142.38,279.49L142.38,279.49z
		 M141.04,306.29c-0.72,0-1.44-0.21-1.96-0.82c-0.62-0.62-1.13-1.34-1.34-2.06c-0.31-0.72-0.41-1.86-0.52-3.2
		c-0.1-2.89,0.1-6.18,0.93-10s1.75-6.6,2.78-8.35c0.52-0.82,1.13-1.13,1.96-1.24c0.93-0.1,1.65,0.31,2.27,1.13
		c0.62,0.93,0.93,2.06,1.13,3.5c0.1,2.16,0,4.84-0.41,7.94s-1.03,6.29-1.96,9.69c-0.31,1.34-0.72,2.27-1.34,2.89
		C142.07,306.08,141.66,306.19,141.04,306.29L141.04,306.29z M118.77,275.67l-3.92,22.06c0,0.1-0.1,0.52-0.1,1.03
		c-0.31,1.55-0.52,2.78-0.93,3.5c-0.31,0.72-0.62,1.34-1.13,2.27c0.52,0,1.03-0.1,1.65-0.1c1.44-0.21,2.78-0.41,3.71-0.72
		c0.93-0.31,1.86-0.82,2.68-1.44c0.82-0.62,1.55-1.44,2.27-2.37c1.34-1.75,2.27-3.71,2.89-5.88c0.62-2.16,0.93-4.54,0.72-7.01
		c-0.1-2.27-0.52-4.33-1.24-6.08s-1.65-3.2-2.78-4.02C121.56,276.09,120.22,275.67,118.77,275.67z"/>
	<g id="Andy_x27_s_00000027582631761278859460000016283411065688136360_">
		<path id="A_00000116225611727520473590000017198647672878626212_" class="st1" d="M80.74,161.26H61.67
			c-17.32,21.85-29.07,48.76-39.27,74.22h18.86c1.75-4.84,3.71-9.69,5.77-14.64H69.3c0.1,4.02,0,10.62-0.41,14.64h18.76
			C90.43,209.19,87.54,183.42,80.74,161.26L80.74,161.26z M53.73,206.2c3.81-7.63,7.83-14.84,12.37-21.23
			c1.86,6.6,2.99,13.61,3.4,21.23H53.73L53.73,206.2z"/>
		<path id="N_00000109726296403434464450000006442527539207136181_" class="st1" d="M157.63,161.26l-4.74,20.31
			c-5.36-8.14-12.27-15.05-20.51-20.31l0,0l0,0h-21.13l-17.32,74.22h21.54l11.65-51.54c9.48,8.04,15.67,19.17,17.52,32.06
			c0,0.1,0,0.21,0,0.31l-4.43,19.07h21.54l16.8-74.22L157.63,161.26L157.63,161.26z"/>
		<path id="D_00000005247313770031357760000009459465710898663344_" class="st1" d="M205.98,161.26h-19.58l-17.83,74.22h19.89
			c42.88,0,51.23-13.71,55.15-38.04C247.21,174.56,236.9,161.26,205.98,161.26L205.98,161.26z M222.78,194.86
			c-1.13,7.42-1.65,24.02-29.27,22.06l9.28-37.73C216.9,179.61,224.94,180.53,222.78,194.86L222.78,194.86z"/>
		<path id="Y_00000028300698270655682960000014947400233769458828_" class="st1" d="M314.52,161.16h-18.86v0.1h-0.62
			c-0.41,4.12-1.86,20.1-10.1,33.91c-0.82,1.24-1.65,2.37-2.47,3.5c-7.63-10.2-10.31-23.09-7.63-36.9c0.1-0.21,0.1-0.41,0.1-0.52
			l-20.62-0.1l0,0c0,0.21-0.1,0.41-0.1,0.62c-3.81,19.28,0.21,37.21,11.24,51.23c-0.82,0.41-1.34,0.62-1.34,0.62
			c-5.36,2.06-11.54,3.3-18.97,3.09l-5.05,18.55c0.62,0,1.24,0,1.86-0.1c0.21,0,0.41,0,0.62,0c9.69,0,19.07-1.24,27.52-4.02
			c4.23-1.44,8.14-3.2,11.96-5.36c0.21-0.1,4.12-2.37,6.39-4.33c0.31-0.31,1.44-1.24,1.75-1.44c13.3-11.44,22.37-30,24.22-58.55
			c0,0,0,0,0-0.1l0,0C314.52,161.26,314.52,161.16,314.52,161.16L314.52,161.16z"/>
		<path id="_x27__00000027577524368846902040000004146766529165377714_" class="st1" d="M338.84,165.79
			c-0.31-5.05-3.71-9.17-8.45-9.17c-4.84,0-8.66,4.12-8.66,9.17s3.92,9.17,8.66,9.17c0.21,0-0.82,3.3-2.99,4.95
			C331.94,180.33,339.25,172.39,338.84,165.79L338.84,165.79z"/>
		<path id="S_00000170250737446151224810000015139420284968469157_" class="st1" d="M344,194.24c2.37,4.12,8.97,9.48,12.16,13.19
			c5.77,5.46,4.02,10.72-0.62,10.82h-24.64l-4.02,17.32h27.83c15.15,0,31.85-11.75,25.87-29.07c-1.75-5.15-9.9-12.78-13.4-16.7
			c-5.77-5.46-3.61-10.72,1.03-10.72h20.92l3.71-17.63h-24.12C352.14,161.26,332.66,173.94,344,194.24L344,194.24z"/>
	</g>
	<g id="Lines_00000085961956497608967660000017741458029486642863_">
		<path id="_x30_1_00000003786694253887242710000002432575901186136977_" class="st2" d="M332.45,124.36
			c26.9-14.33,39.17-43.29,34.63-58.44c-7.42,13.3-23.19,26.18-38.14,34.32c-55.15,29.79-150.39,5.77-184.2,27.21
			c-7.42,4.64-11.96,12.27-14.43,22.06c4.43-6.39,14.12-11.54,34.63-13.4C186.18,134.15,296.89,146.62,332.45,124.36L332.45,124.36z
			"/>
		<path id="_x30_2_00000078021929183789051260000012577813401173964419_" class="st2" d="M326.06,79.62
			c39.17-33.4,17.94-64.22,0-68.75c16.8,33.91-25.56,56.07-58.75,61.95c-36.7,6.49-96.38,7.73-121.32,16.6
			c-35.66,12.68-40.61,38.55-32.06,56.8C123.31,80.55,277,121.57,326.06,79.62L326.06,79.62z"/>
	</g>
</g>
</svg>
