<?xml version="1.0" encoding="utf-8"?>
<!-- Generator: Adobe Illustrator 26.0.2, SVG Export Plug-In . SVG Version: 6.00 Build 0)  -->
<svg version="1.1" id="Layer_1" xmlns="http://www.w3.org/2000/svg" xmlns:xlink="http://www.w3.org/1999/xlink" x="0px" y="0px"
	 viewBox="0 0 680.83 341.94" style="enable-background:new 0 0 680.83 341.94;" xml:space="preserve">
<style type="text/css">
	.st0{fill:url(#SVGID_1_);}
	.st1{fill:url(#SVGID_00000140002212424029954640000004723188891083979905_);}
	.st2{fill:url(#SVGID_00000106839911385770305230000012460541678515392663_);}
	.st3{fill:url(#SVGID_00000150797885783652797960000013401112022993888670_);}
	.st4{fill:url(#SVGID_00000000913766618192262690000011272423323764229291_);}
	.st5{fill:url(#SVGID_00000039821163030996894960000016660548349646332807_);}
	.st6{fill:url(#SVGID_00000012448286600195106170000000065516893148183985_);}
	.st7{fill:url(#SVGID_00000035500946715401228260000015569415379898949540_);}
	.st8{fill:url(#SVGID_00000065050545959851018620000016479183974795218104_);}
	.st9{fill:url(#SVGID_00000052785770929099356270000006446762898519971223_);}
	.st10{fill:url(#SVGID_00000053528678270266860140000005190301928532474786_);}
	.st11{fill:url(#SVGID_00000096751150233659214190000008165046590957062331_);}
	.st12{fill:url(#SVGID_00000129914287608300307670000013711161239032233600_);}
	.st13{fill:url(#SVGID_00000169552411016694189330000012313618486467340931_);}
	.st14{fill:url(#SVGID_00000123441226080383453390000010278522235106386863_);}
	.st15{fill:url(#SVGID_00000135650284739765701590000011844930613339586983_);}
	.st16{fill:url(#SVGID_00000060715074955101281290000018251626895981876371_);}
	.st17{fill:url(#SVGID_00000002367008240917193060000010950832033218398884_);}
	.st18{fill:url(#SVGID_00000119820573128652928220000006885337125914953111_);}
</style>
<g id="EKSON_00000104683849095454903260000015646760701406926502_">
	<g>
		<g>
			<linearGradient id="SVGID_1_" gradientUnits="userSpaceOnUse" x1="-133.8751" y1="165.5202" x2="726.3059" y2="189.0868">
				<stop  offset="0" style="stop-color:#FFFFFF"/>
				<stop  offset="7.124663e-03" style="stop-color:#FCFCFC"/>
				<stop  offset="0.1469" style="stop-color:#BCBCBC"/>
				<stop  offset="0.2741" style="stop-color:#898989"/>
				<stop  offset="0.3844" style="stop-color:#646464"/>
				<stop  offset="0.4737" style="stop-color:#4E4E4E"/>
				<stop  offset="0.5307" style="stop-color:#464646"/>
				<stop  offset="0.5974" style="stop-color:#4A4A4A"/>
				<stop  offset="0.6665" style="stop-color:#575757"/>
				<stop  offset="0.7368" style="stop-color:#6B6B6B"/>
				<stop  offset="0.8078" style="stop-color:#888888"/>
				<stop  offset="0.8795" style="stop-color:#AEAEAE"/>
				<stop  offset="0.9507" style="stop-color:#DBDBDB"/>
				<stop  offset="1" style="stop-color:#FFFFFF"/>
			</linearGradient>
			<path class="st0" d="M117.93,45.54C117.27,44.89,117.57,45.19,117.93,45.54L15.15,172.26c11.81,0,21.69,0,33.86,0L12.45,296.78
				c33.93-42.17,64.98-84.19,99.98-127.68l-27.31,0.28L117.93,45.54C118.35,45.96,118.84,46.45,117.93,45.54z"/>
			
				<linearGradient id="SVGID_00000174589827895577982790000011120726754504161458_" gradientUnits="userSpaceOnUse" x1="661.5305" y1="129.236" x2="661.5305" y2="129.236">
				<stop  offset="0" style="stop-color:#FFFFFF"/>
				<stop  offset="7.124663e-03" style="stop-color:#FCFCFC"/>
				<stop  offset="0.1469" style="stop-color:#BCBCBC"/>
				<stop  offset="0.2741" style="stop-color:#898989"/>
				<stop  offset="0.3844" style="stop-color:#646464"/>
				<stop  offset="0.4737" style="stop-color:#4E4E4E"/>
				<stop  offset="0.5307" style="stop-color:#464646"/>
				<stop  offset="0.5974" style="stop-color:#4A4A4A"/>
				<stop  offset="0.6665" style="stop-color:#575757"/>
				<stop  offset="0.7368" style="stop-color:#6B6B6B"/>
				<stop  offset="0.8078" style="stop-color:#888888"/>
				<stop  offset="0.8795" style="stop-color:#AEAEAE"/>
				<stop  offset="0.9507" style="stop-color:#DBDBDB"/>
				<stop  offset="1" style="stop-color:#FFFFFF"/>
			</linearGradient>
			<path style="fill:url(#SVGID_00000174589827895577982790000011120726754504161458_);" d="M661.53,129.24"/>
			<g>
				
					<linearGradient id="SVGID_00000115500428812373809320000006054254288454989442_" gradientUnits="userSpaceOnUse" x1="-133.0107" y1="133.9691" x2="727.1703" y2="157.5358">
					<stop  offset="0" style="stop-color:#FFFFFF"/>
					<stop  offset="7.124663e-03" style="stop-color:#FCFCFC"/>
					<stop  offset="0.1469" style="stop-color:#BCBCBC"/>
					<stop  offset="0.2741" style="stop-color:#898989"/>
					<stop  offset="0.3844" style="stop-color:#646464"/>
					<stop  offset="0.4737" style="stop-color:#4E4E4E"/>
					<stop  offset="0.5307" style="stop-color:#464646"/>
					<stop  offset="0.5974" style="stop-color:#4A4A4A"/>
					<stop  offset="0.6665" style="stop-color:#575757"/>
					<stop  offset="0.7368" style="stop-color:#6B6B6B"/>
					<stop  offset="0.8078" style="stop-color:#888888"/>
					<stop  offset="0.8795" style="stop-color:#AEAEAE"/>
					<stop  offset="0.9507" style="stop-color:#DBDBDB"/>
					<stop  offset="1" style="stop-color:#FFFFFF"/>
				</linearGradient>
				<path style="fill:url(#SVGID_00000115500428812373809320000006054254288454989442_);" d="M639.43,100.42
					c-4.72,19.49-9.26,38.26-14.14,58.43l-27.11-58.69c-9.88,0-19.38,0-28.75,0l-25.26,108.13c9.6,0,18.08,0,26.05,0
					c4.95-20.85,9.77-41.13,15.05-63.35c-0.22,0.22,1.21-1.2,2.49-2.47c9.28,21.74,18.58,43.54,27.98,65.54l26.37,0.28l26.27-108.13
					C658.89,100.16,647.09,100.42,639.43,100.42z"/>
				
					<linearGradient id="SVGID_00000174570608193855803710000000042568128481960381_" gradientUnits="userSpaceOnUse" x1="-131.558" y1="80.9436" x2="728.6231" y2="104.5102">
					<stop  offset="0" style="stop-color:#FFFFFF"/>
					<stop  offset="7.124663e-03" style="stop-color:#FCFCFC"/>
					<stop  offset="0.1469" style="stop-color:#BCBCBC"/>
					<stop  offset="0.2741" style="stop-color:#898989"/>
					<stop  offset="0.3844" style="stop-color:#646464"/>
					<stop  offset="0.4737" style="stop-color:#4E4E4E"/>
					<stop  offset="0.5307" style="stop-color:#464646"/>
					<stop  offset="0.5974" style="stop-color:#4A4A4A"/>
					<stop  offset="0.6665" style="stop-color:#575757"/>
					<stop  offset="0.7368" style="stop-color:#6B6B6B"/>
					<stop  offset="0.8078" style="stop-color:#888888"/>
					<stop  offset="0.8795" style="stop-color:#AEAEAE"/>
					<stop  offset="0.9507" style="stop-color:#DBDBDB"/>
					<stop  offset="1" style="stop-color:#FFFFFF"/>
				</linearGradient>
				<path style="fill:url(#SVGID_00000174570608193855803710000000042568128481960381_);" d="M569.44,100.16
					C569.77,98.9,568.23,101.35,569.44,100.16L569.44,100.16z"/>
			</g>
			
				<linearGradient id="SVGID_00000142134371574855506390000004904535162470689200_" gradientUnits="userSpaceOnUse" x1="-133.1416" y1="138.7485" x2="727.0394" y2="162.3151">
				<stop  offset="0" style="stop-color:#FFFFFF"/>
				<stop  offset="7.124663e-03" style="stop-color:#FCFCFC"/>
				<stop  offset="0.1469" style="stop-color:#BCBCBC"/>
				<stop  offset="0.2741" style="stop-color:#898989"/>
				<stop  offset="0.3844" style="stop-color:#646464"/>
				<stop  offset="0.4737" style="stop-color:#4E4E4E"/>
				<stop  offset="0.5307" style="stop-color:#464646"/>
				<stop  offset="0.5974" style="stop-color:#4A4A4A"/>
				<stop  offset="0.6665" style="stop-color:#575757"/>
				<stop  offset="0.7368" style="stop-color:#6B6B6B"/>
				<stop  offset="0.8078" style="stop-color:#888888"/>
				<stop  offset="0.8795" style="stop-color:#AEAEAE"/>
				<stop  offset="0.9507" style="stop-color:#DBDBDB"/>
				<stop  offset="1" style="stop-color:#FFFFFF"/>
			</linearGradient>
			<path style="fill:url(#SVGID_00000142134371574855506390000004904535162470689200_);" d="M537.76,129.53
				c14.52,62.65-75.13,116.56-112.7,58.6C396.08,121.99,504.91,58.29,537.76,129.53z M493.53,122.67
				c-32.59-15.41-65.26,68.97-15.97,66.28c22.38-4.36,29.34-28.46,28.13-47.53C505.18,133.46,500.74,126.08,493.53,122.67z"/>
			
				<linearGradient id="SVGID_00000171707548144073710960000012012333707256708528_" gradientUnits="userSpaceOnUse" x1="-133.3073" y1="144.7934" x2="726.8738" y2="168.36">
				<stop  offset="0" style="stop-color:#FFFFFF"/>
				<stop  offset="7.124663e-03" style="stop-color:#FCFCFC"/>
				<stop  offset="0.1469" style="stop-color:#BCBCBC"/>
				<stop  offset="0.2741" style="stop-color:#898989"/>
				<stop  offset="0.3844" style="stop-color:#646464"/>
				<stop  offset="0.4737" style="stop-color:#4E4E4E"/>
				<stop  offset="0.5307" style="stop-color:#464646"/>
				<stop  offset="0.5974" style="stop-color:#4A4A4A"/>
				<stop  offset="0.6665" style="stop-color:#575757"/>
				<stop  offset="0.7368" style="stop-color:#6B6B6B"/>
				<stop  offset="0.8078" style="stop-color:#888888"/>
				<stop  offset="0.8795" style="stop-color:#AEAEAE"/>
				<stop  offset="0.9507" style="stop-color:#DBDBDB"/>
				<stop  offset="1" style="stop-color:#FFFFFF"/>
			</linearGradient>
			<path style="fill:url(#SVGID_00000171707548144073710960000012012333707256708528_);" d="M327.24,99.85l-38.14,0.26l-44.01,40.83
				c3.96-13.5,6.73-27.1,9.39-41.03c-10.53,0-19.65,0-30.47,0l-23.75,111.59c8.8,0,17.28,0,27.01,0l9.56-35.35
				c2.75-2.41,5.65-4.96,8.62-7.57l28.23,42.68c10.14,0,19.65,0,31.01,0c-11.83-20.52-22.97-39.84-34.34-59.56
				C288.45,135.43,307.48,119.43,327.24,99.85z"/>
			
				<linearGradient id="SVGID_00000092414684523161119670000014599003453260353694_" gradientUnits="userSpaceOnUse" x1="-133.2381" y1="142.2695" x2="726.9429" y2="165.8361">
				<stop  offset="0" style="stop-color:#FFFFFF"/>
				<stop  offset="7.124663e-03" style="stop-color:#FCFCFC"/>
				<stop  offset="0.1469" style="stop-color:#BCBCBC"/>
				<stop  offset="0.2741" style="stop-color:#898989"/>
				<stop  offset="0.3844" style="stop-color:#646464"/>
				<stop  offset="0.4737" style="stop-color:#4E4E4E"/>
				<stop  offset="0.5307" style="stop-color:#464646"/>
				<stop  offset="0.5974" style="stop-color:#4A4A4A"/>
				<stop  offset="0.6665" style="stop-color:#575757"/>
				<stop  offset="0.7368" style="stop-color:#6B6B6B"/>
				<stop  offset="0.8078" style="stop-color:#888888"/>
				<stop  offset="0.8795" style="stop-color:#AEAEAE"/>
				<stop  offset="0.9507" style="stop-color:#DBDBDB"/>
				<stop  offset="1" style="stop-color:#FFFFFF"/>
			</linearGradient>
			<path style="fill:url(#SVGID_00000092414684523161119670000014599003453260353694_);" d="M361.75,123.51
				c12.53-6.43,25.65,1.02,36.36,4.9c9.64,3.49,20.14-3.9,19.2-14.11c-1.55-16.8-30.2-16.12-46.46-16.07
				c-29.38-4.6-69.21,36.71-38.56,58.51c8.86,9.01,58.42,12.24,42.75,26.81c-3.63,3.37-8.26,5.59-13.16,6.26
				c-22.58,3.08-43.07-16.45-49.23-8.92l-6.93,21.94c41.41,27.17,137.65-0.39,92.45-49.21c-7.88-10.35-52.56-9.64-42.05-25.25
				C357.52,126.28,359.52,124.66,361.75,123.51z"/>
			
				<linearGradient id="SVGID_00000093174292829234168760000017678352530753924274_" gradientUnits="userSpaceOnUse" x1="-136.159" y1="248.8825" x2="724.022" y2="272.4491">
				<stop  offset="0" style="stop-color:#FFFFFF"/>
				<stop  offset="7.124663e-03" style="stop-color:#FCFCFC"/>
				<stop  offset="0.1469" style="stop-color:#BCBCBC"/>
				<stop  offset="0.2741" style="stop-color:#898989"/>
				<stop  offset="0.3844" style="stop-color:#646464"/>
				<stop  offset="0.4737" style="stop-color:#4E4E4E"/>
				<stop  offset="0.5307" style="stop-color:#464646"/>
				<stop  offset="0.5974" style="stop-color:#4A4A4A"/>
				<stop  offset="0.6665" style="stop-color:#575757"/>
				<stop  offset="0.7368" style="stop-color:#6B6B6B"/>
				<stop  offset="0.8078" style="stop-color:#888888"/>
				<stop  offset="0.8795" style="stop-color:#AEAEAE"/>
				<stop  offset="0.9507" style="stop-color:#DBDBDB"/>
				<stop  offset="1" style="stop-color:#FFFFFF"/>
			</linearGradient>
			<path style="fill:url(#SVGID_00000093174292829234168760000017678352530753924274_);" d="M76.56,233.24l-36.63,44.72h127.09
				l11.23-44.72C143.31,233.24,109.52,233.24,76.56,233.24z"/>
			
				<linearGradient id="SVGID_00000114060821584643184190000010621566697542935942_" gradientUnits="userSpaceOnUse" x1="-132.478" y1="114.5271" x2="727.703" y2="138.0937">
				<stop  offset="0" style="stop-color:#FFFFFF"/>
				<stop  offset="7.124663e-03" style="stop-color:#FCFCFC"/>
				<stop  offset="0.1469" style="stop-color:#BCBCBC"/>
				<stop  offset="0.2741" style="stop-color:#898989"/>
				<stop  offset="0.3844" style="stop-color:#646464"/>
				<stop  offset="0.4737" style="stop-color:#4E4E4E"/>
				<stop  offset="0.5307" style="stop-color:#464646"/>
				<stop  offset="0.5974" style="stop-color:#4A4A4A"/>
				<stop  offset="0.6665" style="stop-color:#575757"/>
				<stop  offset="0.7368" style="stop-color:#6B6B6B"/>
				<stop  offset="0.8078" style="stop-color:#888888"/>
				<stop  offset="0.8795" style="stop-color:#AEAEAE"/>
				<stop  offset="0.9507" style="stop-color:#DBDBDB"/>
				<stop  offset="1" style="stop-color:#FFFFFF"/>
			</linearGradient>
			<path style="fill:url(#SVGID_00000114060821584643184190000010621566697542935942_);" d="M118.1,100.11l-16.54,44.62
				c33.38,0,65.49,0,96.92,0c3.68-15.11,7.21-29.59,10.87-44.62C178.07,100.11,148.34,100.11,118.1,100.11z"/>
			
				<linearGradient id="SVGID_00000016074162277726006080000004561576640199494796_" gradientUnits="userSpaceOnUse" x1="-134.3153" y1="181.5859" x2="725.8658" y2="205.1525">
				<stop  offset="0" style="stop-color:#FFFFFF"/>
				<stop  offset="7.124663e-03" style="stop-color:#FCFCFC"/>
				<stop  offset="0.1469" style="stop-color:#BCBCBC"/>
				<stop  offset="0.2741" style="stop-color:#898989"/>
				<stop  offset="0.3844" style="stop-color:#646464"/>
				<stop  offset="0.4737" style="stop-color:#4E4E4E"/>
				<stop  offset="0.5307" style="stop-color:#464646"/>
				<stop  offset="0.5974" style="stop-color:#4A4A4A"/>
				<stop  offset="0.6665" style="stop-color:#575757"/>
				<stop  offset="0.7368" style="stop-color:#6B6B6B"/>
				<stop  offset="0.8078" style="stop-color:#888888"/>
				<stop  offset="0.8795" style="stop-color:#AEAEAE"/>
				<stop  offset="0.9507" style="stop-color:#DBDBDB"/>
				<stop  offset="1" style="stop-color:#FFFFFF"/>
			</linearGradient>
			<path style="fill:url(#SVGID_00000016074162277726006080000004561576640199494796_);" d="M128.8,166.49l-32.06,45.31
				c2.37,0,4.33,0,6.28,0c21.67,0,43.34,0,64.63,0L186,166.49C170.65,166.49,144.99,166.49,128.8,166.49z"/>
		</g>
	</g>
	<g>
		
			<linearGradient id="SVGID_00000119093111929321129670000004397521140347106209_" gradientUnits="userSpaceOnUse" x1="-136.1318" y1="247.8891" x2="724.0493" y2="271.4557">
			<stop  offset="0" style="stop-color:#FFFFFF"/>
			<stop  offset="7.124663e-03" style="stop-color:#FCFCFC"/>
			<stop  offset="0.1469" style="stop-color:#BCBCBC"/>
			<stop  offset="0.2741" style="stop-color:#898989"/>
			<stop  offset="0.3844" style="stop-color:#646464"/>
			<stop  offset="0.4737" style="stop-color:#4E4E4E"/>
			<stop  offset="0.5307" style="stop-color:#464646"/>
			<stop  offset="0.5974" style="stop-color:#4A4A4A"/>
			<stop  offset="0.6665" style="stop-color:#575757"/>
			<stop  offset="0.7368" style="stop-color:#6B6B6B"/>
			<stop  offset="0.8078" style="stop-color:#888888"/>
			<stop  offset="0.8795" style="stop-color:#AEAEAE"/>
			<stop  offset="0.9507" style="stop-color:#DBDBDB"/>
			<stop  offset="1" style="stop-color:#FFFFFF"/>
		</linearGradient>
		<path style="fill:url(#SVGID_00000119093111929321129670000004397521140347106209_);" d="M220.66,278.44H210.1l-6.76-18.66
			c-0.87-2.39-1.62-5.3-2.24-8.72c-0.02,2.72-0.28,5.03-0.77,6.93l-5.27,20.45h-10.52l10.89-42.24h12.25l5.85,15.47
			c1.17,3.07,1.96,5.78,2.36,8.11c0.27-3.61,0.89-7.3,1.87-11.08l3.22-12.5h10.55L220.66,278.44z"/>
		
			<linearGradient id="SVGID_00000147918535673564986510000004273892450348024468_" gradientUnits="userSpaceOnUse" x1="-136.101" y1="246.7663" x2="724.08" y2="270.3329">
			<stop  offset="0" style="stop-color:#FFFFFF"/>
			<stop  offset="7.124663e-03" style="stop-color:#FCFCFC"/>
			<stop  offset="0.1469" style="stop-color:#BCBCBC"/>
			<stop  offset="0.2741" style="stop-color:#898989"/>
			<stop  offset="0.3844" style="stop-color:#646464"/>
			<stop  offset="0.4737" style="stop-color:#4E4E4E"/>
			<stop  offset="0.5307" style="stop-color:#464646"/>
			<stop  offset="0.5974" style="stop-color:#4A4A4A"/>
			<stop  offset="0.6665" style="stop-color:#575757"/>
			<stop  offset="0.7368" style="stop-color:#6B6B6B"/>
			<stop  offset="0.8078" style="stop-color:#888888"/>
			<stop  offset="0.8795" style="stop-color:#AEAEAE"/>
			<stop  offset="0.9507" style="stop-color:#DBDBDB"/>
			<stop  offset="1" style="stop-color:#FFFFFF"/>
		</linearGradient>
		<path style="fill:url(#SVGID_00000147918535673564986510000004273892450348024468_);" d="M253.66,246.32l-8.28,32.12H233.1
			l8.28-32.12h-8.76l2.61-10.12h29.8l-2.61,10.12H253.66z"/>
		
			<linearGradient id="SVGID_00000111889366821212767990000007606397245812899968_" gradientUnits="userSpaceOnUse" x1="-136.0785" y1="245.9424" x2="724.1026" y2="269.509">
			<stop  offset="0" style="stop-color:#FFFFFF"/>
			<stop  offset="7.124663e-03" style="stop-color:#FCFCFC"/>
			<stop  offset="0.1469" style="stop-color:#BCBCBC"/>
			<stop  offset="0.2741" style="stop-color:#898989"/>
			<stop  offset="0.3844" style="stop-color:#646464"/>
			<stop  offset="0.4737" style="stop-color:#4E4E4E"/>
			<stop  offset="0.5307" style="stop-color:#464646"/>
			<stop  offset="0.5974" style="stop-color:#4A4A4A"/>
			<stop  offset="0.6665" style="stop-color:#575757"/>
			<stop  offset="0.7368" style="stop-color:#6B6B6B"/>
			<stop  offset="0.8078" style="stop-color:#888888"/>
			<stop  offset="0.8795" style="stop-color:#AEAEAE"/>
			<stop  offset="0.9507" style="stop-color:#DBDBDB"/>
			<stop  offset="1" style="stop-color:#FFFFFF"/>
		</linearGradient>
		<path style="fill:url(#SVGID_00000111889366821212767990000007606397245812899968_);" d="M292.2,268.35l-2.6,10.09h-31.78
			l10.89-42.24h31.78l-2.51,9.75h-19.06l-1.58,6.13h15.41l-2.42,9.38h-15.41l-1.78,6.9H292.2z"/>
		
			<linearGradient id="SVGID_00000029009297119113535810000000231854140964500127_" gradientUnits="userSpaceOnUse" x1="-136.0543" y1="245.0591" x2="724.1268" y2="268.6257">
			<stop  offset="0" style="stop-color:#FFFFFF"/>
			<stop  offset="7.124663e-03" style="stop-color:#FCFCFC"/>
			<stop  offset="0.1469" style="stop-color:#BCBCBC"/>
			<stop  offset="0.2741" style="stop-color:#898989"/>
			<stop  offset="0.3844" style="stop-color:#646464"/>
			<stop  offset="0.4737" style="stop-color:#4E4E4E"/>
			<stop  offset="0.5307" style="stop-color:#464646"/>
			<stop  offset="0.5974" style="stop-color:#4A4A4A"/>
			<stop  offset="0.6665" style="stop-color:#575757"/>
			<stop  offset="0.7368" style="stop-color:#6B6B6B"/>
			<stop  offset="0.8078" style="stop-color:#888888"/>
			<stop  offset="0.8795" style="stop-color:#AEAEAE"/>
			<stop  offset="0.9507" style="stop-color:#DBDBDB"/>
			<stop  offset="1" style="stop-color:#FFFFFF"/>
		</linearGradient>
		<path style="fill:url(#SVGID_00000029009297119113535810000000231854140964500127_);" d="M332.33,278.44h-14.37l-2.01-16.15h-4.09
			l-4.16,16.15h-12.97l10.89-42.24h22.06c4.87,0,8.35,1.14,10.46,3.42c2.1,2.28,2.68,5.29,1.71,9.02c-0.63,2.43-1.68,4.58-3.15,6.45
			c-1.47,1.87-3.9,3.51-7.28,4.94L332.33,278.44z M314.19,253.25h5.54c1.63,0,3.03-0.34,4.19-1.02c1.17-0.68,1.92-1.68,2.26-3
			c0.7-2.7-0.61-4.05-3.94-4.05h-5.97L314.19,253.25z"/>
		
			<linearGradient id="SVGID_00000070818687022156869780000001673947113651548574_" gradientUnits="userSpaceOnUse" x1="-136.0229" y1="243.9125" x2="724.1582" y2="267.4791">
			<stop  offset="0" style="stop-color:#FFFFFF"/>
			<stop  offset="7.124663e-03" style="stop-color:#FCFCFC"/>
			<stop  offset="0.1469" style="stop-color:#BCBCBC"/>
			<stop  offset="0.2741" style="stop-color:#898989"/>
			<stop  offset="0.3844" style="stop-color:#646464"/>
			<stop  offset="0.4737" style="stop-color:#4E4E4E"/>
			<stop  offset="0.5307" style="stop-color:#464646"/>
			<stop  offset="0.5974" style="stop-color:#4A4A4A"/>
			<stop  offset="0.6665" style="stop-color:#575757"/>
			<stop  offset="0.7368" style="stop-color:#6B6B6B"/>
			<stop  offset="0.8078" style="stop-color:#888888"/>
			<stop  offset="0.8795" style="stop-color:#AEAEAE"/>
			<stop  offset="0.9507" style="stop-color:#DBDBDB"/>
			<stop  offset="1" style="stop-color:#FFFFFF"/>
		</linearGradient>
		<path style="fill:url(#SVGID_00000070818687022156869780000001673947113651548574_);" d="M355.57,263.09l-3.96,15.35h-13.15
			l10.89-42.24h18.04c4.5,0,7.78,0.52,9.86,1.55c2.07,1.03,3.52,2.61,4.35,4.73c0.82,2.13,0.9,4.51,0.22,7.15
			c-1.04,4.02-3.28,7.27-6.72,9.75c-3.44,2.48-7.51,3.71-12.19,3.71H355.57z M357.72,254.02h4.33c3.82,0,6.09-1.4,6.81-4.21
			c0.68-2.64-0.74-3.96-4.27-3.96h-4.77L357.72,254.02z"/>
		
			<linearGradient id="SVGID_00000145757337388043169920000014633075980063098778_" gradientUnits="userSpaceOnUse" x1="-135.9945" y1="242.8766" x2="724.1866" y2="266.4432">
			<stop  offset="0" style="stop-color:#FFFFFF"/>
			<stop  offset="7.124663e-03" style="stop-color:#FCFCFC"/>
			<stop  offset="0.1469" style="stop-color:#BCBCBC"/>
			<stop  offset="0.2741" style="stop-color:#898989"/>
			<stop  offset="0.3844" style="stop-color:#646464"/>
			<stop  offset="0.4737" style="stop-color:#4E4E4E"/>
			<stop  offset="0.5307" style="stop-color:#464646"/>
			<stop  offset="0.5974" style="stop-color:#4A4A4A"/>
			<stop  offset="0.6665" style="stop-color:#575757"/>
			<stop  offset="0.7368" style="stop-color:#6B6B6B"/>
			<stop  offset="0.8078" style="stop-color:#888888"/>
			<stop  offset="0.8795" style="stop-color:#AEAEAE"/>
			<stop  offset="0.9507" style="stop-color:#DBDBDB"/>
			<stop  offset="1" style="stop-color:#FFFFFF"/>
		</linearGradient>
		<path style="fill:url(#SVGID_00000145757337388043169920000014633075980063098778_);" d="M403.07,236.2l-10.89,42.24h-12.97
			l10.89-42.24H403.07z"/>
		
			<linearGradient id="SVGID_00000122689730250420896430000000575137105546101651_" gradientUnits="userSpaceOnUse" x1="-135.9728" y1="242.0871" x2="724.2082" y2="265.6537">
			<stop  offset="0" style="stop-color:#FFFFFF"/>
			<stop  offset="7.124663e-03" style="stop-color:#FCFCFC"/>
			<stop  offset="0.1469" style="stop-color:#BCBCBC"/>
			<stop  offset="0.2741" style="stop-color:#898989"/>
			<stop  offset="0.3844" style="stop-color:#646464"/>
			<stop  offset="0.4737" style="stop-color:#4E4E4E"/>
			<stop  offset="0.5307" style="stop-color:#464646"/>
			<stop  offset="0.5974" style="stop-color:#4A4A4A"/>
			<stop  offset="0.6665" style="stop-color:#575757"/>
			<stop  offset="0.7368" style="stop-color:#6B6B6B"/>
			<stop  offset="0.8078" style="stop-color:#888888"/>
			<stop  offset="0.8795" style="stop-color:#AEAEAE"/>
			<stop  offset="0.9507" style="stop-color:#DBDBDB"/>
			<stop  offset="1" style="stop-color:#FFFFFF"/>
		</linearGradient>
		<path style="fill:url(#SVGID_00000122689730250420896430000000575137105546101651_);" d="M398.33,266.22l12.59-2.17
			c0.13,3.4,2.29,5.11,6.48,5.11c3.26,0,5.11-0.87,5.56-2.6c0.23-0.91,0.04-1.61-0.58-2.12c-0.62-0.5-1.86-0.95-3.69-1.34
			c-7.04-1.42-11.32-3.27-12.83-5.56c-1.51-2.29-1.87-4.98-1.07-8.08c1.03-3.98,3.39-7.29,7.09-9.94c3.7-2.64,8.39-3.96,14.07-3.96
			c8.6,0,13.39,3.46,14.38,10.37l-11.58,3.25c-0.39-2.83-2.28-4.24-5.68-4.24c-2.83,0-4.47,0.88-4.92,2.63
			c-0.2,0.78-0.04,1.39,0.49,1.83c0.53,0.43,1.66,0.84,3.39,1.24c4.78,1.07,8.12,2.01,10.04,2.84c1.91,0.82,3.33,2.23,4.23,4.22
			c0.91,1.99,1.01,4.34,0.32,7.04c-1.1,4.27-3.73,7.74-7.88,10.39c-4.15,2.65-9.04,3.98-14.67,3.98
			C403.78,279.09,398.53,274.8,398.33,266.22z"/>
		
			<linearGradient id="SVGID_00000094609886279569459270000001078203656515596960_" gradientUnits="userSpaceOnUse" x1="-135.9433" y1="241.0087" x2="724.2377" y2="264.5753">
			<stop  offset="0" style="stop-color:#FFFFFF"/>
			<stop  offset="7.124663e-03" style="stop-color:#FCFCFC"/>
			<stop  offset="0.1469" style="stop-color:#BCBCBC"/>
			<stop  offset="0.2741" style="stop-color:#898989"/>
			<stop  offset="0.3844" style="stop-color:#646464"/>
			<stop  offset="0.4737" style="stop-color:#4E4E4E"/>
			<stop  offset="0.5307" style="stop-color:#464646"/>
			<stop  offset="0.5974" style="stop-color:#4A4A4A"/>
			<stop  offset="0.6665" style="stop-color:#575757"/>
			<stop  offset="0.7368" style="stop-color:#6B6B6B"/>
			<stop  offset="0.8078" style="stop-color:#888888"/>
			<stop  offset="0.8795" style="stop-color:#AEAEAE"/>
			<stop  offset="0.9507" style="stop-color:#DBDBDB"/>
			<stop  offset="1" style="stop-color:#FFFFFF"/>
		</linearGradient>
		<path style="fill:url(#SVGID_00000094609886279569459270000001078203656515596960_);" d="M472.42,268.35l-2.6,10.09h-31.78
			l10.89-42.24h31.78l-2.51,9.75h-19.06l-1.58,6.13h15.41l-2.42,9.38h-15.41l-1.78,6.9H472.42z"/>
		
			<linearGradient id="SVGID_00000171713412693809615160000001082747432738240946_" gradientUnits="userSpaceOnUse" x1="-135.9163" y1="240.0226" x2="724.2648" y2="263.5892">
			<stop  offset="0" style="stop-color:#FFFFFF"/>
			<stop  offset="7.124663e-03" style="stop-color:#FCFCFC"/>
			<stop  offset="0.1469" style="stop-color:#BCBCBC"/>
			<stop  offset="0.2741" style="stop-color:#898989"/>
			<stop  offset="0.3844" style="stop-color:#646464"/>
			<stop  offset="0.4737" style="stop-color:#4E4E4E"/>
			<stop  offset="0.5307" style="stop-color:#464646"/>
			<stop  offset="0.5974" style="stop-color:#4A4A4A"/>
			<stop  offset="0.6665" style="stop-color:#575757"/>
			<stop  offset="0.7368" style="stop-color:#6B6B6B"/>
			<stop  offset="0.8078" style="stop-color:#888888"/>
			<stop  offset="0.8795" style="stop-color:#AEAEAE"/>
			<stop  offset="0.9507" style="stop-color:#DBDBDB"/>
			<stop  offset="1" style="stop-color:#FFFFFF"/>
		</linearGradient>
		<path style="fill:url(#SVGID_00000171713412693809615160000001082747432738240946_);" d="M473.74,266.22l12.59-2.17
			c0.13,3.4,2.29,5.11,6.48,5.11c3.26,0,5.11-0.87,5.56-2.6c0.23-0.91,0.04-1.61-0.58-2.12c-0.62-0.5-1.86-0.95-3.69-1.34
			c-7.04-1.42-11.32-3.27-12.83-5.56c-1.51-2.29-1.87-4.98-1.07-8.08c1.03-3.98,3.39-7.29,7.09-9.94c3.7-2.64,8.39-3.96,14.07-3.96
			c8.6,0,13.39,3.46,14.38,10.37l-11.58,3.25c-0.39-2.83-2.28-4.24-5.68-4.24c-2.83,0-4.47,0.88-4.92,2.63
			c-0.2,0.78-0.04,1.39,0.49,1.83c0.53,0.43,1.66,0.84,3.39,1.24c4.78,1.07,8.12,2.01,10.04,2.84c1.91,0.82,3.33,2.23,4.23,4.22
			c0.91,1.99,1.01,4.34,0.32,7.04c-1.1,4.27-3.73,7.74-7.88,10.39c-4.15,2.65-9.04,3.98-14.67,3.98
			C479.19,279.09,473.94,274.8,473.74,266.22z"/>
	</g>
</g>
</svg>
