<?xml version="1.0" encoding="utf-8"?>
<!-- Generator: Adobe Illustrator 26.0.2, SVG Export Plug-In . SVG Version: 6.00 Build 0)  -->
<svg version="1.1" id="Layer_1" xmlns="http://www.w3.org/2000/svg" xmlns:xlink="http://www.w3.org/1999/xlink" x="0px" y="0px"
	 viewBox="0 0 1296.42 155.56" style="enable-background:new 0 0 1296.42 155.56;" xml:space="preserve">
<style type="text/css">
	.st0{fill:#010101;}
	.st1{fill:#030303;}
</style>
<g id="Green_Landscape">
	<g>
		<path class="st0" d="M395.64,54.63c0,11.22,0,22.44,0,33.66c0,8.13-0.09,16.27,0.05,24.4c0.04,2.53-0.58,3.58-3.3,3.39
			c-2.29-0.16-4.1,0.09-4.08-3.27c0.12-23.4,0.06-46.8,0.08-70.2c0-1.24-0.45-2.9,1.55-3.09c2.32-0.22,4.39-0.21,6.16,2.09
			c6.57,8.55,13.39,16.91,20.1,25.36c8.26,10.39,16.5,20.81,24.79,31.18c0.9,1.12,1.61,2.53,3.25,2.92
			c1.45-0.96,0.73-2.42,0.73-3.61c0.06-17.76,0.02-35.52,0.06-53.27c0-2.25-1.05-4.87,3.31-4.87c4.41,0,3.76,2.49,3.76,5.12
			c-0.01,22.07,0.02,44.15-0.07,66.22c-0.01,1.76,1.27,4.35-1.31,5.2c-2.73,0.9-4.88-0.25-6.78-2.67
			c-12.07-15.42-24.3-30.71-36.5-46.04c-3.48-4.37-7-8.7-10.5-13.05C396.52,54.27,396.08,54.45,395.64,54.63z"/>
		<path d="M733.96,100.57c0-7.03,0-13.93,0-20.82c0-12.12,0.07-24.23-0.05-36.35c-0.03-2.74,0.24-4.08,3.64-4.09
			c3.53-0.01,3.56,1.57,3.55,4.18c-0.07,22.74-0.01,45.48-0.1,68.22c-0.01,1.41,1.21,3.63-1.17,4.19c-2.5,0.58-4.57-0.03-6.43-2.42
			c-11.1-14.29-22.42-28.41-33.68-42.56c-4.48-5.63-9.02-11.22-14.69-16.44c0,2.22,0,4.44,0,6.67c0,16.76,0.01,33.53-0.01,50.29
			c0,2.35,0.85,4.79-3.45,4.76c-3.95-0.02-3.71-1.9-3.7-4.54c0.05-22.57,0-45.15,0.09-67.72c0.01-1.48-1.36-3.95,1.48-4.39
			c2.26-0.35,4.18-0.07,5.99,2.23c14.54,18.55,29.31,36.92,44.03,55.34C730.56,98.47,731.31,100.28,733.96,100.57z"/>
		<path d="M308.31,77.75c0-11.44,0.07-22.89-0.05-34.33c-0.03-2.74,0.23-4.1,3.64-4.05c14.8,0.21,29.61,0.13,44.42,0.06
			c2.49-0.01,4,0.2,3.98,3.38c-0.02,2.99-1.17,3.55-3.84,3.53c-12.31-0.11-24.62,0.04-36.93-0.11c-3.02-0.04-4.42,0.4-4.25,3.93
			c0.32,6.62,0.26,13.27,0.02,19.89c-0.12,3.26,0.84,4.23,4.15,4.17c10.64-0.21,21.29-0.06,31.94-0.09c2.21-0.01,4.08-0.4,4.05,3.09
			c-0.03,3.58-2.09,3-4.2,3c-10.48,0-20.96,0.13-31.44-0.08c-3.32-0.06-4.69,0.56-4.51,4.25c0.31,6.78,0.37,13.61-0.05,20.39
			c-0.25,4.01,1.25,4.52,4.73,4.46c12.47-0.2,24.95-0.04,37.43-0.11c2.52-0.01,4.32-0.16,4.23,3.48c-0.09,3.55-1.86,3.42-4.36,3.41
			c-14.81-0.06-29.61-0.15-44.42,0.06c-3.59,0.05-4.82-0.64-4.72-4.52c0.3-11.27,0.11-22.55,0.11-33.83
			C308.26,77.75,308.29,77.75,308.31,77.75z"/>
		<path d="M1200.5,77.45c0-11.28,0.09-22.56-0.06-33.83c-0.04-3,0.41-4.31,3.95-4.25c14.64,0.23,29.28,0.15,43.92,0.05
			c2.76-0.02,4.23,0.31,4.19,3.69c-0.04,3.39-1.86,3.21-4.15,3.2c-12.31-0.04-24.62,0.07-36.93-0.08c-2.91-0.04-4.08,0.48-3.94,3.74
			c0.28,6.79,0.25,13.6,0.01,20.39c-0.11,3.13,0.9,3.92,3.94,3.87c10.48-0.18,20.96-0.12,31.44-0.02c1.91,0.02,4.68-1.42,4.75,2.82
			c0.07,4.47-2.84,3.15-4.99,3.17c-10.48,0.08-20.96,0.12-31.44-0.02c-2.72-0.04-3.77,0.6-3.69,3.53c0.2,7.29,0.25,14.6-0.05,21.88
			c-0.14,3.37,1.23,3.67,4.01,3.64c12.64-0.13,25.29-0.06,37.93-0.05c2.24,0,4.55-0.66,4.43,3.24c-0.1,3.28-1.34,3.67-4.15,3.64
			c-15.14-0.12-30.28-0.15-45.42,0.02c-3.04,0.03-3.95-0.69-3.89-3.81c0.2-11.61,0.08-23.22,0.08-34.82
			C1200.45,77.45,1200.48,77.45,1200.5,77.45z"/>
		<path class="st0" d="M253.96,116.01c-7.49,0-14.98-0.11-22.46,0.06c-2.91,0.07-4.08-0.59-4.04-3.81
			c0.3-23.21,0.46-46.42,0.51-69.63c0.01-2.76,1-3.23,3.46-3.21c14.98,0.1,29.95,0.13,44.93-0.02c2.85-0.03,3.19,1.11,3.19,3.49
			c0,2.38-0.35,3.52-3.2,3.48c-12.48-0.16-24.96,0.04-37.44-0.14c-3.19-0.05-4.35,0.69-4.21,4.07c0.28,6.46,0.33,12.95-0.01,19.4
			c-0.21,3.97,1.32,4.62,4.87,4.54c10.31-0.22,20.63-0.08,30.95-0.08c2.07,0,4.18-0.66,4.19,2.96c0.02,3.45-1.76,3.15-4.02,3.14
			c-10.65-0.05-21.3,0.08-31.95-0.09c-2.96-0.05-4.1,0.59-4.02,3.79c0.19,7.12,0.1,14.26-0.18,21.38c-0.12,3.05,0.72,3.95,3.84,3.91
			c12.98-0.18,25.96-0.08,38.94-0.07c2.07,0,4.33-0.69,4.15,2.97c-0.15,2.95-0.94,4.02-4.05,3.93
			C269.61,115.87,261.78,116.01,253.96,116.01z"/>
		<path d="M110.56,92.99c0,2.32-0.35,4.71,0.07,6.96c1.15,6.21-2.09,9.37-7.21,11.79c-19.73,9.31-45.23,4.54-56.05-15.35
			C33.59,71.05,51.31,40.11,80.2,39.27c9.87-0.28,19.22,1.06,27.14,7.45c1.19,0.96,4.69,1.56,2.01,4.69
			c-2.04,2.38-3.37,2.3-5.95,0.38c-15.63-11.58-43.02-7.24-51.17,13.52c-4.6,11.72-3.28,22.95,4.77,32.75
			c8.02,9.75,18.8,13.04,31.2,11.42c1.15-0.15,2.31-0.2,3.45-0.4c10.06-1.77,12-4.05,12-14.05c0-4.65,0.13-9.3-0.04-13.94
			c-0.11-3.08,1.75-2.87,3.87-3c2.31-0.14,3.29,0.4,3.15,2.96C110.39,85.02,110.56,89.01,110.56,92.99z"/>
		<path d="M867.26,101.61c10.42,7.69,21.98,10.36,34.68,7.54c6.79-1.51,11.2-6.13,11.68-11.9c0.49-5.77-2.64-10.33-9.72-12.78
			c-6.21-2.15-12.69-3.5-19.01-5.34c-2.68-0.78-5.3-1.79-7.85-2.92c-6.84-3.05-10.81-8.34-10.86-15.84
			c-0.05-7.25,2.89-13.48,9.49-16.9c13.25-6.86,26.52-5.39,39.6,0.93c3.08,1.49,0.95,3.26,0.46,4.92c-0.72,2.47-2.1,1.13-3.36,0.5
			c-8.75-4.38-17.91-5.81-27.5-3.5c-7.16,1.72-11.65,6.75-11.81,12.95c-0.14,5.72,3.22,9.89,10.47,12.2
			c6.74,2.15,13.68,3.7,20.43,5.83c11.63,3.67,17.35,10.21,16.82,18.78c-0.62,9.97-7.12,17.1-18.91,19.35
			c-11.17,2.13-22.14,0.95-32.25-4.85C863.95,107.31,863.97,107.28,867.26,101.61z"/>
		<path d="M1006.3,49.65c-2.46,4.8-4.8,3.84-8.47,1.43c-11.73-7.71-24.25-7.6-36.17-0.73c-12.94,7.45-16.96,19.75-14.62,33.76
			c2.11,12.68,10.18,20.98,22.66,24.44c10.8,2.99,21.17,1.69,30.02-5.58c2.9-2.38,3.78-0.55,5.4,0.98c2.78,2.61-0.42,3.48-1.53,4.31
			c-13.01,9.71-27.37,10.65-41.8,4.48c-14.66-6.26-21.83-18.29-22.35-34.14c-0.52-15.94,8.24-29.8,22.61-36.06
			C977.31,35.88,995.49,38.84,1006.3,49.65z"/>
		<path class="st1" d="M527.53,74.11c0,10.12,0.22,20.25-0.11,30.36c-0.13,4.11,1.28,4.86,5.02,4.79
			c11.48-0.23,22.98,0.16,34.45-0.21c4.11-0.13,3.46,2.29,3.87,4.56c0.62,3.45-2.05,2.35-3.52,2.36
			c-14.31,0.08-28.63-0.03-42.94,0.11c-2.82,0.03-3.66-0.73-3.61-3.59c0.18-9.12,0.13-18.25,0.05-27.38
			c-0.11-13.76-0.27-27.52-0.53-41.28c-0.05-2.87,0.18-4.48,3.88-4.53c3.94-0.05,3.25,2.21,3.25,4.44c0.01,10.12,0,20.24,0,30.36
			C527.41,74.11,527.47,74.11,527.53,74.11z"/>
		<path d="M817.8,41.48c-13.69-3.72-27.79-1.47-41.69-2.03c-2.83-0.11-2.2,1.84-2.2,3.36c-0.03,11.62-0.02,23.23-0.02,34.85
			c0,11.62,0.04,23.23-0.03,34.85c-0.01,2.25,0.07,3.71,3.07,3.57c11.78-0.55,23.57,0.53,35.37-0.89
			c18.96-2.29,32.6-16.27,33.23-36.61C846.03,62.41,837.96,46.96,817.8,41.48z M838.44,80.99c-1.88,16.11-13.99,27.74-29.57,28.15
			c-8.14,0.21-16.29-0.09-24.43,0.11c-3,0.08-3.51-1.08-3.47-3.72c0.14-9.28,0.05-18.55,0.05-27.83s-0.03-18.55,0.03-27.83
			c0.01-1.42-0.89-3.67,1.96-3.55c10.92,0.43,21.98-1.41,32.75,1.16C830.62,51.02,840.24,65.57,838.44,80.99z"/>
		<path d="M183.17,89.84c0.83-0.39,1.26-0.59,1.69-0.79c12.08-5.61,16.81-13.76,15.67-26.96c-0.9-10.37-7.71-17.97-19.54-20.95
			c-12.4-3.13-25.12-1.23-37.69-1.67c-2.57-0.09-1.81,1.91-1.81,3.2c-0.04,23.37,0.01,46.74-0.08,70.1
			c-0.01,2.62,0.76,3.41,3.36,3.3c2.37-0.1,4.07,0.05,3.91-3.28c-0.28-5.95,0.05-11.93-0.14-17.89c-0.09-2.79,0.74-3.76,3.62-3.7
			c7.14,0.16,14.3,0.12,21.44-0.09c2.36-0.07,3.57,0.94,4.79,2.7c4.05,5.86,8.51,11.46,12.27,17.49c2.63,4.21,5.69,5.82,10.7,4.14
			C195.28,106.88,189.27,98.43,183.17,89.84z M150.59,85.18c-2.37,0.09-1.96-1.72-1.97-3.14c-0.02-5.46-0.01-10.93-0.01-16.39
			s0.01-10.93-0.01-16.39c-0.01-1.54-0.17-3.05,2.17-2.91c9.57,0.55,19.25-1.24,28.73,1.03c8.97,2.15,13.84,8.37,13.94,17.37
			c0.12,10.37-4.32,16.88-13.61,19.22C170.21,86.39,160.34,84.83,150.59,85.18z"/>
		<path d="M1151.24,40.3c-10.63-1.41-21.25-0.36-31.86-0.9c-3.09-0.16-3.93,0.71-3.88,3.81c0.19,11.44,0.08,22.88,0.08,34.32
			c0,11.61,0.07,23.22-0.05,34.82c-0.03,2.6,0.39,3.75,3.43,3.78c3.15,0.03,3.96-0.88,3.83-3.91c-0.24-5.63,0.13-11.28-0.15-16.91
			c-0.17-3.38,1.04-4.18,4.24-4.11c7.65,0.17,15.31,0.24,22.95-0.12c14.36-0.69,24.52-10.66,24.9-24.01
			C1175.15,52.08,1166.32,42.29,1151.24,40.3z M1153.32,84.09c-9.34,1.99-18.84,0.81-28.26,1.13c-2.66,0.09-2.33-1.67-2.33-3.32
			c0-5.46,0-10.92,0-16.39c0-5.46,0-10.92,0-16.39c0-1.3-0.29-2.85,1.79-2.76c9.74,0.46,19.58-1.25,29.22,1.03
			c9.51,2.25,13.97,8.74,13.82,19.45C1167.44,75.45,1161.94,82.25,1153.32,84.09z"/>
		<path d="M1094.16,114.14c-10.97-23.94-21.99-47.85-32.86-71.83c-1.11-2.45-2.56-2.88-4.96-2.93c-2.5-0.06-3.75,0.68-4.81,3.04
			c-6.27,14.06-12.75,28.04-19.17,42.04c-4.75,10.36-9.52,20.71-14.26,31.03c5.26,1.8,8-0.04,9.59-4.84
			c1.34-4.07,3.63-7.82,5.1-11.85c1.11-3.04,2.89-3.79,5.97-3.69c7.65,0.23,15.31,0.03,22.97,0.09c5.48,0.04,12.19-1.68,16.08,0.86
			c3.88,2.53,5.27,9.26,7.13,14.37c1.68,4.63,4.2,6.8,9.56,5.23C1094.38,115.08,1094.36,114.57,1094.16,114.14z M1072.29,89.3
			c-11.44-0.09-22.88-0.04-35.03-0.04c2.24-5.01,4.24-9.49,6.24-13.97c3.65-8.15,7.28-16.31,10.96-24.45
			c0.44-0.98,0.49-2.49,2.02-2.46c1.27,0.03,1.32,1.37,1.69,2.2c5.33,11.75,10.61,23.53,15.88,35.3
			C1074.87,87.7,1075.54,89.32,1072.29,89.3z"/>
		<path d="M623.76,43.24c-1.09-2.4-2.06-3.93-5.32-3.95c-3.36-0.02-4.21,1.78-5.27,4.09c-10.32,22.57-20.68,45.11-30.99,67.69
			c-0.69,1.52-1.85,2.96-1.72,4.6c5.34,1.67,7.82-0.78,9.43-5.3c1.43-4.04,3.6-7.82,5.13-11.83c0.97-2.54,2.28-3.47,5.1-3.43
			c12.14,0.18,24.28,0.2,36.42-0.01c3.08-0.05,4.42,1.09,5.45,3.72c1.5,3.85,3.67,7.46,4.95,11.37c1.59,4.86,4.19,7.28,9.93,5.38
			C645.77,91.35,634.73,67.31,623.76,43.24z M634.67,89.27c-0.83-0.04-1.66,0-2.49,0c-10.63,0-21.27,0-32.22,0
			c1.51-5.95,16.28-38.31,18.74-41.2c2.55,3.58,3.8,7.7,5.57,11.56c4,8.73,7.88,17.5,11.8,26.27
			C636.77,87.47,638.35,89.44,634.67,89.27z"/>
	</g>
</g>
</svg>
