<?xml version="1.0" encoding="utf-8"?>
<!-- Generator: Adobe Illustrator 26.0.2, SVG Export Plug-In . SVG Version: 6.00 Build 0)  -->
<svg version="1.1" id="Layer_1" xmlns="http://www.w3.org/2000/svg" xmlns:xlink="http://www.w3.org/1999/xlink" x="0px" y="0px"
	 viewBox="0 0 750.06 317.56" style="enable-background:new 0 0 750.06 317.56;" xml:space="preserve">
<style type="text/css">
	.st0{fill:#777373;}
	.st1{fill:#555555;}
</style>
<g id="tecnogen">
	<path class="st0" d="M53.26,154.59v-32.97H30.29v48.32c0,7.66,6.16,13.98,13.82,14.09h47.91v-23.04H59.66
		C56.13,160.99,53.26,158.13,53.26,154.59z"/>
	<path class="st0" d="M30.29,107.62c20.7,0,41.4,0,61.88,0c0-8.18,0-14.81,0-24.5c-21.37,0-41.62,0-61.88,0
		C30.29,91.29,30.29,99.45,30.29,107.62z"/>
	<path class="st0" d="M274.72,84.21c-9.08-0.43-18.2-0.07-28.27-0.07c0,34.63,0,66.95,0,99.9c7.17,0,13.38,0,21.5,0
		c0-12.78,0-24.86,0-36.95c0-12.12,0-24.25,0-36.47c14.71-1.44,17.15,6.45,17.04,17.11c-0.18,18.47-0.05,37.61-0.05,56.31
		c8.47,0,14.92,0,21.99,0c0-23.48,0.62-46.26-0.18-68.32C306.01,95.22,295.25,85.18,274.72,84.21z"/>
	<path class="st0" d="M719.36,115.71c-0.74-20.49-11.51-30.54-32.03-31.51c-9.08-0.43-18.2-0.07-28.27-0.07c0,34.63,0,66.95,0,99.9
		c7.17,0,13.38,0,21.5,0c0-12.78,0-24.86,0-36.95c0-12.12,0-24.25,0-36.47c14.71-1.44,17.15,6.45,17.04,17.11
		c-0.18,18.47-0.05,37.61-0.05,56.31c8.47,0,14.92,0,21.99,0C719.54,160.55,720.16,137.77,719.36,115.71z"/>
	<path class="st0" d="M103.04,184.03c20.66,0,40.2,0,59.63,0c0-8.16,0-15.55,0-23.73L122.12,160v-13.86l41.46-0.35
		c0-9.14,0-15.83,0-23.26c-20.6,0-40.11,0-60.54,0C103.04,143.42,103.04,163.76,103.04,184.03z"/>
	<path class="st0" d="M103.02,107.62c20.8,0,40.72,0,60.79,0c0-8.06,0-17.31,0-24.5c-20.8,0-40.28,0-60.79,0
		C103.02,90.89,103.02,100.17,103.02,107.62z"/>
	<path class="st0" d="M586.94,185.59c20.66,0,40.2,0,59.64,0c0-8.16,0-15.55,0-23.73l-40.55-0.31V147.7l41.46-0.35
		c0-9.14,0-15.83,0-23.26c-20.6,0-40.11,0-60.54,0C586.94,144.98,586.94,165.31,586.94,185.59z"/>
	<path class="st0" d="M586.91,109.18c20.8,0,40.72,0,60.79,0c0-8.06,0-17.31,0-24.5c-20.8,0-40.28,0-60.79,0
		C586.91,92.44,586.91,101.73,586.91,109.18z"/>
	<path class="st0" d="M195.01,134.01c0-15.68,11.9-27.88,26.6-27.88h14.88V83.61h-9.06h-11.34c-23.49,0-42.53,22.58-42.53,50.4
		c0,27.83,19.04,50.4,42.53,50.4h20.51V162.4h-14.98C206.91,162.4,195.01,149.69,195.01,134.01z"/>
	<g>
		<path class="st0" d="M366.3,161.81c-7.61,0-14.49-3.03-19.54-7.96c-5.51,8.03-8.37,17.63-9.93,20.56
			c8.28,6.02,18.44,9.62,29.47,9.62c22.38,0,41.35-14.66,47.83-34.9c-10.74-8.55-20.25-10.63-20.25-10.63
			C391.65,151.72,380.17,161.81,366.3,161.81z"/>
		<path class="st0" d="M366.3,83.62c-27.72,0-50.19,22.47-50.19,50.22c0,10.85,3.47,20.87,9.33,29.08l14.86-18.7
			c-1.29-3.21-2-6.71-2-10.38c0-15.47,12.53-28,28-28c14.22,0,25.96,10.61,27.73,24.35c10.08,0.6,17.78,5.93,22.08,9.76
			c0.25-2,0.41-4.04,0.41-6.11C416.52,106.09,394.02,83.62,366.3,83.62z"/>
	</g>
	<path class="st1" d="M504.4,115.46c3.35,3.23,6.74,3.34,9.94,4.18c15.54,4.09,26.37,25.76,21.31,42.32
		c-5.12,16.74-21.77,24.19-39.43,17.65c-25.99-9.62-41.68-46.94-32.39-77.02c7.77-25.19,33.31-37.39,63.95-30.2
		c0.55,8.3-0.85,16.75,0,29.74c11.71-15.02,22.67-26.59,32.14-38.73c-9.45-11.47-19.94-21.92-30.86-35.19
		c-0.79,13.74,0.55,23.32,0,33.08c-31.76,4.75-67.27,2.4-78.56,40.96c-8.41,28.71,4.92,52.47,25.53,71.89
		c19.06,17.95,40.63,20.9,63.56,6.58c0.54,2.04,1.28,3.24,1.04,4.2c-1.73,7.12-3.69,14.19-5.55,21.28
		c-9.9,37.59-40.52,66.83-78.89,73.05c-43.29,7.01-82.92-1.24-113.52-33.92c-12.34-13.18-13.7-36.71-10.43-54.97
		c0,0,0.02-0.1,0.06-0.3c0.68-3.79,1.57-7.34,2.61-10.52c0.02-0.09,0.05-0.17,0.08-0.27c0.59-1.94,1.22-3.71,1.84-4.86
		c1.56-2.93,4.42-12.53,9.93-20.56c-0.05-0.04-0.09-0.08-0.14-0.13c0.61-0.77,1.23-1.51,1.87-2.22c0.02-0.03,0.04-0.05,0.06-0.07
		c1.81-2.28,3.88-4.35,6.23-5.96c0.04-0.04,0.09-0.07,0.13-0.1c0.56-0.45,1.13-0.87,1.7-1.28c10.37-7.4,22.78-9.23,37.25-5.6
		c0.01,0.01,0.02,0.01,0.02,0.01s9.51,2.08,20.25,10.63c4.46,3.24,8.83,6.82,13.15,10.69c0.11,0.09,0.2,0.18,0.29,0.25
		c0.05,0.04,0.11,0.09,0.16,0.14c0.04,0.04,0.08,0.07,0.12,0.1c0.03,0.03,0.07,0.06,0.1,0.09c0.03,0.03,0.06,0.05,0.08,0.07
		c0.08,0.07,0.13,0.11,0.15,0.13l0.01,0.01c23.86,21.46,45.91,50.7,68.2,74.03c3.27-4.32,10.76-13.12,13.44-16.67l-11.18,5.54
		c-23.75-22.15-48.6-54.63-76.47-77.54c-0.37-0.29-1.18-1.06-2.21-2.06c0,0,0,0-0.01-0.01c-1.14-1.1-2.55-2.49-3.86-3.84
		c0-0.04,0.01-0.07,0.01-0.11c-4.3-3.83-12-9.16-22.08-9.76c0.03,0.16,0.05,0.32,0.07,0.48c-0.66-0.19-1.31-0.37-1.97-0.54
		c-0.01,0-0.01,0-0.02,0c-18.24-4.71-34.26-0.54-46.9,10.21c0,0,0,0-0.01,0.01c-1.62,1.37-3.18,2.85-4.68,4.43
		c-0.08-0.19-0.16-0.37-0.22-0.56c-4.96,4.35-12.39,12.12-15.84,22.1c-0.18,0.59-0.37,1.19-0.56,1.77
		c-0.01,0.04-0.02,0.07-0.03,0.11c-1.02,3.14-2.05,6.03-2.55,7.7c-12.82,43.57,4.23,82.5,45.84,101.05c0,0,26.12,13.43,75.65,12.35
		c94.33-2.07,112.52-96.83,125.67-173.84H504.4z M549.02,142.74c-0.54,1.51-2.61,1.62-3.31,0.19l-10.1-20.85
		c-0.58-1.2,0.29-2.59,1.62-2.59h19.95c1.24,0,2.11,1.23,1.7,2.4L549.02,142.74z"/>
</g>
</svg>
