<?xml version="1.0" encoding="utf-8"?>
<!-- Generator: Adobe Illustrator 26.0.2, SVG Export Plug-In . SVG Version: 6.00 Build 0)  -->
<svg version="1.1" id="Layer_1" xmlns="http://www.w3.org/2000/svg" xmlns:xlink="http://www.w3.org/1999/xlink" x="0px" y="0px"
	 viewBox="0 0 855.57 293.94" style="enable-background:new 0 0 855.57 293.94;" xml:space="preserve">
<style type="text/css">
	.st0{fill:#929292;}
	.st1{fill:#6C6C6C;}
	.st2{fill:#909090;}
	.st3{fill:#686868;}
	.st4{fill:#878787;}
</style>
<g id="Vioinox_00000158018340213682255870000009867967913912516246_">
	<path class="st0" d="M210.67,110.74l-46.8,74.67c-3.2,5.5-8.66,14.1-14.19,14.1l27.42,53l82.73-141.77H210.67z"/>
	<g>
		<path class="st1" d="M371.93,114.45l-22.68,58.86c-7.13-19.51-17.01-43.19-22.86-58.86c-0.18-0.48-0.62-0.77-1.13-0.77h-10.73
			c-0.85,0-1.44,0.85-1.14,1.65l24.45,65.13c1.95,5.17,4,10.27,10.76,10.36c7.49,0.1,10.15-4.94,12.37-11.09l24.26-64.4
			c0.3-0.8-0.29-1.65-1.14-1.65h-11.01C372.57,113.67,372.11,113.98,371.93,114.45z"/>
	</g>
	<path class="st0" d="M219.44,72.96c15.05-28.34,33.42-34.73,70.2-27.18C278.79,85.25,246.62,68.03,219.44,72.96z"/>
	<path class="st1" d="M417.17,115.12c-0.01-1.49-1.22-2.66-2.71-2.66h-9.85c-1.49,0-2.7,1.2-2.71,2.69
		c-0.09,19.22-0.09,53.64-0.1,72.86c0,1.5,1.21,2.71,2.71,2.71h9.95c1.49,0,2.7-1.19,2.71-2.68L417.17,115.12z"/>
	<path class="st2" d="M558.47,115.12c-0.01-1.49-1.22-2.66-2.71-2.66h-9.85c-1.49,0-2.7,1.2-2.71,2.69
		c-0.09,19.22-0.09,53.64-0.1,72.86c0,1.5,1.21,2.71,2.71,2.71h9.95c1.49,0,2.71-1.19,2.71-2.68L558.47,115.12z"/>
	<path class="st2" d="M656.25,115.12c-0.01-1.49-1.22-2.66-2.71-2.66l-9.86,0c-1.49,0-2.7,1.2-2.71,2.69
		c-0.06,13.44-0.08,34.31-0.09,52.23l-33.43-47.68c-3.18-4.54-8.37-7.24-13.92-7.24l-6.38,0c-1.49,0-2.7,1.2-2.71,2.69
		c-0.09,19.22-0.09,53.65-0.1,72.87c0,1.49,1.21,2.7,2.7,2.7l9.97,0c1.49,0,2.71-1.19,2.71-2.68l0-52.76
		c11.31,15.66,26.64,35.64,37.02,50.03c2.46,3.41,6.41,5.41,10.62,5.41l6.17,0c1.49,0,2.71-1.19,2.71-2.68L656.25,115.12z"/>
	<path class="st2" d="M758.6,149.58c-0.5-25.06-14.14-38.19-39.57-38.07c-25.88,0.12-39.01,13.9-38.79,40.72
		c0.2,24.31,15.17,39.88,38.32,39.86C744.27,192.06,759.13,176.28,758.6,149.58z M744.34,153.08c-1.92,14.34-6.48,27.06-24.96,27.23
		c-15.71,0.15-26.29-11.84-25.01-29.53c1.08-15.02,6.11-27.53,24.91-27.43C735.65,123.45,744.76,133.88,744.34,153.08z"/>
	<path class="st1" d="M482.36,111.39c-25.93-0.83-41.02,13.17-41.49,38.48c-0.49,26.03,13.64,41.62,38.19,42.16
		c24.86,0.55,40.24-14.63,40.5-39.97C519.82,126.65,506.58,112.16,482.36,111.39z M505.23,152.74c-0.92,15.32-6.6,27.44-24.95,27.62
		c-15.63,0.15-25.39-11.72-24.91-27.03c1.45-18.2,6.44-30.27,25.1-30.16C496.53,123.26,506.33,134.37,505.23,152.74z"/>
	<path class="st3" d="M149.67,199.52l-21.01-43.28c-0.03-0.03-0.05-0.07-0.08-0.11L79.72,55.57c-15.5-28.49-42.79-34.11-68.02-29.9
		l76.12,154.59l0,0.01h0l20.23,41.08c16.5,33.46,33.91,42.37,69.04,31.17C167.95,234.85,158.81,217.18,149.67,199.52z"/>
	<path class="st2" d="M843.51,184.84l-25.61-35.1l24.82-35.69c0.57-0.83,0.82-1.74,0.79-2.55h-14.97c-1.68,0-3.24,0.8-4.21,2.18
		c-4.82,6.9-10.32,14.78-16,22.94l-16.79-23.01c-0.97-1.33-2.51-2.11-4.16-2.11H772.8c-0.29,0.98-0.09,2.22,0.7,3.31
		c6.8,9.39,16.05,22.1,25.54,35.13c-9.21,13.23-18.19,26.13-24.81,35.65c-1.15,1.65-0.76,5.12,2.43,5.12h9.52
		c2.02,0,3.9-0.99,5.06-2.64l17.38-24.99c6.59,9.04,12.95,17.76,18.32,25.12c1.15,1.58,2.99,2.51,4.95,2.51h6.88
		c2.43,0,4.71-1.65,5.07-4.06C843.93,185.97,843.86,185.33,843.51,184.84z"/>
	<g>
		<polygon class="st4" points="347.62,253.36 347.62,238.76 360.04,238.76 360.04,236.64 347.62,236.64 347.62,223.84 
			364.06,223.84 364.62,220.09 342.2,220.09 342.2,257.1 364.4,257.1 364.96,253.36 		"/>
		<path class="st4" d="M385.95,232.17c1.18-0.67,2.56-1.01,4.17-1.01c1.6,0,3.08,0.64,4.44,1.9c1.36,1.27,2.04,3.45,2.04,6.54v17.5
			h-4.75v-16.94c0-1.83-0.33-3.2-0.98-4.11c-0.65-0.91-1.77-1.37-3.35-1.37c-1.58,0-3.42,1.04-5.51,3.13v19.29h-4.75v-17.56
			c0-2.54-0.95-4.56-2.85-6.09l2.85-2.12l4.58,4.08C383.4,233.92,384.77,232.84,385.95,232.17z"/>
		<path class="st4" d="M412.31,252.07c0,0.71,0.53,1.19,1.59,1.46c1.06,0.26,3.1,0.39,6.12,0.39c3.02,0,5.44,0.33,7.27,1.01
			c1.83,0.67,2.74,1.94,2.74,3.8c0,2.76-1.35,5.25-4.05,7.46c-2.7,2.21-6.01,3.32-9.92,3.32c-2.83,0-5.15-0.53-6.96-1.59
			c-1.81-1.06-2.71-2.58-2.71-4.56c0-2.8,1.53-4.86,4.58-6.21c-1.72-0.63-2.57-1.82-2.57-3.55c0-1.74,1.34-3.63,4.03-5.67
			c-2.8-1.46-4.19-3.83-4.19-7.13c0-3.3,1.03-5.73,3.1-7.29c2.07-1.57,4.39-2.35,6.96-2.35c1.83,0,3.58,0.5,5.26,1.51l4.92-1.4
			l1.12,2.4l-3.47,1.73c0.71,1.23,1.06,2.67,1.06,4.31s-0.33,3.08-0.98,4.33c-0.65,1.25-1.5,2.21-2.54,2.88
			c-2.09,1.34-4.34,2.01-6.76,2.01c-0.37,0-0.9-0.04-1.57-0.11c-0.63,0.19-1.29,0.6-1.98,1.23
			C412.65,250.69,412.31,251.36,412.31,252.07z M416.95,266.94c3.09,0,5.72-0.86,7.88-2.57c2.16-1.72,3.24-3.43,3.24-5.14
			c-1.9-0.78-4.56-1.18-7.97-1.18c-3.41,0-5.77-0.11-7.07-0.33c-1.64,1.38-2.46,2.85-2.46,4.42
			C410.57,265.34,412.7,266.94,416.95,266.94z M421.23,235.16c-1.03-1.43-2.29-2.15-3.8-2.15c-1.51,0-2.71,0.65-3.61,1.96
			c-0.89,1.31-1.34,2.99-1.34,5.06c0,2.07,0.5,3.78,1.51,5.14c1.01,1.36,2.22,2.04,3.63,2.04c3.43,0,5.14-2.33,5.14-6.99
			C422.76,238.28,422.25,236.59,421.23,235.16z"/>
		<path class="st4" d="M440.15,224.03c0-0.8,0.27-1.48,0.81-2.04c0.54-0.56,1.21-0.84,2.01-0.84c0.8,0,1.49,0.28,2.07,0.84
			c0.58,0.56,0.87,1.23,0.87,2.01s-0.29,1.47-0.87,2.07c-0.58,0.6-1.26,0.9-2.04,0.9c-0.78,0-1.45-0.29-2.01-0.87
			C440.43,225.52,440.15,224.84,440.15,224.03z M440.71,257.1v-25.27h4.64v25.27H440.71z"/>
		<path class="st4" d="M466.9,232.17c1.18-0.67,2.56-1.01,4.17-1.01c1.6,0,3.08,0.64,4.45,1.9c1.36,1.27,2.04,3.45,2.04,6.54v17.5
			h-4.76v-16.94c0-1.83-0.33-3.2-0.98-4.11c-0.65-0.91-1.77-1.37-3.35-1.37s-3.42,1.04-5.51,3.13v19.29h-4.76v-17.56
			c0-2.54-0.95-4.56-2.85-6.09l2.85-2.12l4.59,4.08C464.36,233.92,465.73,232.84,466.9,232.17z"/>
		<path class="st4" d="M491.75,243.35c0,4.03,0.9,6.93,2.71,8.69c1.81,1.77,4,2.66,6.6,2.66c2.59,0,4.98-0.5,7.18-1.51v1.96
			c-3.06,1.75-5.99,2.63-8.78,2.63c-3.62,0-6.55-1.1-8.78-3.3c-2.24-2.2-3.35-5.39-3.35-9.56c0-4.17,1.24-7.51,3.72-10.01
			c2.48-2.49,5.47-3.75,8.97-3.75c2.72,0,4.99,1.07,6.82,3.22c1.83,2.14,2.74,5.14,2.74,8.97H491.75z M497.17,233.79
			c-1.3,0.63-2.42,1.65-3.35,3.05c-0.93,1.4-1.55,3.01-1.84,4.84h13.08c-0.11-1.56-0.47-2.91-1.09-4.03
			c-0.61-1.12-1.35-1.94-2.21-2.46C500.23,234.26,498.7,233.79,497.17,233.79z"/>
		<path class="st4" d="M522.16,243.35c0,4.03,0.9,6.93,2.72,8.69c1.81,1.77,4,2.66,6.59,2.66c2.59,0,4.98-0.5,7.18-1.51v1.96
			c-3.05,1.75-5.98,2.63-8.78,2.63c-3.61,0-6.54-1.1-8.78-3.3c-2.24-2.2-3.36-5.39-3.36-9.56c0-4.17,1.24-7.51,3.72-10.01
			c2.48-2.49,5.47-3.75,8.97-3.75c2.72,0,4.99,1.07,6.82,3.22c1.82,2.14,2.74,5.14,2.74,8.97H522.16z M527.59,233.79
			c-1.31,0.63-2.42,1.65-3.36,3.05c-0.93,1.4-1.55,3.01-1.84,4.84h13.09c-0.11-1.56-0.48-2.91-1.09-4.03
			c-0.61-1.12-1.35-1.94-2.21-2.46C530.65,234.26,529.12,233.79,527.59,233.79z"/>
		<path class="st4" d="M554.98,257.1h-4.7v-25.27h3.24l1.28,4.7c0.75-1.3,1.93-2.53,3.55-3.69c1.62-1.16,3.29-1.86,5-2.12l0.56,3.86
			c-1.38,0-2.93,0.43-4.67,1.29c-1.73,0.86-3.16,1.81-4.28,2.85V257.1z"/>
		<path class="st4" d="M572.31,224.03c0-0.8,0.27-1.48,0.81-2.04c0.54-0.56,1.21-0.84,2.01-0.84c0.8,0,1.49,0.28,2.07,0.84
			c0.58,0.56,0.87,1.23,0.87,2.01s-0.29,1.47-0.87,2.07c-0.58,0.6-1.26,0.9-2.04,0.9c-0.78,0-1.45-0.29-2.01-0.87
			C572.6,225.52,572.31,224.84,572.31,224.03z M572.87,257.1v-25.27h4.64v25.27H572.87z"/>
		<path class="st4" d="M599.07,232.17c1.18-0.67,2.56-1.01,4.17-1.01c1.6,0,3.08,0.64,4.45,1.9c1.36,1.27,2.04,3.45,2.04,6.54v17.5
			h-4.76v-16.94c0-1.83-0.33-3.2-0.98-4.11c-0.65-0.91-1.77-1.37-3.35-1.37s-3.42,1.04-5.51,3.13v19.29h-4.76v-17.56
			c0-2.54-0.95-4.56-2.85-6.09l2.85-2.12l4.59,4.08C596.53,233.92,597.89,232.84,599.07,232.17z"/>
		<path class="st4" d="M625.43,252.07c0,0.71,0.53,1.19,1.59,1.46c1.06,0.26,3.1,0.39,6.12,0.39s5.44,0.33,7.27,1.01
			c1.82,0.67,2.74,1.94,2.74,3.8c0,2.76-1.35,5.25-4.05,7.46c-2.7,2.21-6.01,3.32-9.92,3.32c-2.83,0-5.16-0.53-6.96-1.59
			c-1.81-1.06-2.71-2.58-2.71-4.56c0-2.8,1.53-4.86,4.58-6.21c-1.71-0.63-2.57-1.82-2.57-3.55c0-1.74,1.34-3.63,4.03-5.67
			c-2.8-1.46-4.19-3.83-4.19-7.13c0-3.3,1.03-5.73,3.1-7.29c2.07-1.57,4.39-2.35,6.96-2.35c1.82,0,3.57,0.5,5.25,1.51l4.92-1.4
			l1.12,2.4l-3.47,1.73c0.71,1.23,1.06,2.67,1.06,4.31s-0.33,3.08-0.97,4.33c-0.65,1.25-1.5,2.21-2.55,2.88
			c-2.09,1.34-4.34,2.01-6.76,2.01c-0.38,0-0.9-0.04-1.57-0.11c-0.64,0.19-1.29,0.6-1.99,1.23
			C625.77,250.69,625.43,251.36,625.43,252.07z M630.07,266.94c3.09,0,5.72-0.86,7.88-2.57c2.16-1.72,3.24-3.43,3.24-5.14
			c-1.9-0.78-4.56-1.18-7.97-1.18c-3.41,0-5.77-0.11-7.07-0.33c-1.64,1.38-2.46,2.85-2.46,4.42
			C623.7,265.34,625.82,266.94,630.07,266.94z M634.35,235.16c-1.02-1.43-2.29-2.15-3.8-2.15c-1.51,0-2.71,0.65-3.6,1.96
			c-0.9,1.31-1.34,2.99-1.34,5.06c0,2.07,0.5,3.78,1.51,5.14c1.01,1.36,2.22,2.04,3.63,2.04c3.43,0,5.15-2.33,5.15-6.99
			C635.89,238.28,635.37,236.59,634.35,235.16z"/>
	</g>
</g>
</svg>
