<?xml version="1.0" encoding="utf-8"?>
<!-- Generator: Adobe Illustrator 26.0.2, SVG Export Plug-In . SVG Version: 6.00 Build 0)  -->
<svg version="1.1" id="Layer_1" xmlns="http://www.w3.org/2000/svg" xmlns:xlink="http://www.w3.org/1999/xlink" x="0px" y="0px"
	 viewBox="0 0 963 165.69" style="enable-background:new 0 0 963 165.69;" xml:space="preserve">
<style type="text/css">
	.st0{fill:#5A5A5A;}
</style>
<g id="NOVELLO">
	<path id="N_00000013893473740561126890000012219860314697458615_" class="st0" d="M156.44,22.55c-0.45-3.56-3.65-3.53-6.17-3.56
		c-10.72-0.15-21.45-0.13-32.17-0.03c-2.56,0.02-5.86-0.24-6.67,2.98c-1.16,4.59,2.78,5.16,5.78,5.75
		c8.09,1.57,12.06,6.21,12.02,14.5c-0.08,16.02-0.02,32.04-0.02,48.06c-1.61,0.56-1.6,0.56-3.21,1.13
		c-9.25-11.52-19.8-22.32-28.69-34.04L68.34,23.27c-2.38-1.14-4.83-2.03-7.36-2.71H20.77c-0.27,0.41-0.48,0.9-0.61,1.52
		c-0.74,3.58,2.09,4.5,4.74,4.95c9.3,1.59,9.82,8.51,9.84,15.81c0.06,25.22,0.24,50.44,0.14,75.65c-0.03,8.24-0.46,16.63-11.74,17.7
		c-2.89,0.27-5.72,2.1-5.2,4.99c0.69,3.9,4.58,3.8,7.82,3.8c10.19,0.01,20.37,0.04,30.56-0.05c3.58-0.03,8.46,0.96,8.84-4.18
		c0.28-3.74-3.77-4.87-7.05-5.09c-7.83-0.51-12.1-5.03-12.2-12.32c-0.33-24.86-0.13-49.72-0.13-77.72
		c4.53,5.22,6.98,7.84,9.21,10.65c12.34,15.54,24.67,31.09,37,46.65l36.4,44.6h9.32c0.78-0.64,1.3-1.42,1.64-2.27v-10.22
		c-0.03-0.42-0.04-0.84-0.04-1.24c0.02-1.55,0.02-3.09,0.04-4.64V72.67h0.22c-0.01-8.61-0.02-17.21-0.03-25.82
		c-0.01-8.95,0.07-17.54,11.88-19.25C153.94,27.24,156.88,26.04,156.44,22.55z"/>
	<path id="O_00000023282934668916529620000000074063880079701903_" class="st0" d="M239.08,16.53
		c-39.59,0.03-69.99,29.2-69.59,66.79c0.38,36.56,31.23,63.86,72.53,64.19c39.19,0.31,71.05-29.53,70.66-66.17
		C312.28,43.94,281.1,16.5,239.08,16.53z M271.24,119.09c-11.16,24.78-36.15,27.89-51.83,5.77c-18.28-25.81-19.72-54.2-7.05-82.55
		c10.29-23.01,34.9-24.75,50.35-4.74c9.5,12.3,14.69,30.17,14.56,50.14C277.28,98.56,275.71,109.17,271.24,119.09z"/>
	<path id="V" class="st0" d="M437.91,19.23c-9.66-0.07-19.31-0.16-28.97-0.06c-3.05,0.03-7.08-0.56-7.45,3.92
		c-0.27,3.26,2.85,4.17,5.49,4.62c10.01,1.72,10.12,7.85,7.01,15.43c-7.7,18.76-15.44,37.5-24.91,60.5
		c-9.49-22.58-17.35-41.28-25.21-59.96c-3.01-7.15-6.88-14.53,5.61-16.46c2.19-0.34,4.05-1.85,3.9-4.28
		c-0.15-2.45-2.15-3.66-4.42-3.69c-18.23-0.24-36.45-0.47-54.68-0.41c-1.71,0.01-4.22,1.65-4.91,3.18
		c-0.91,2.04,0.71,4.12,3.07,4.67c10.76,2.5,12.83,11.97,16.37,20.24c12.66,29.59,25.23,59.21,38.01,88.75
		c2.03,4.69,2.97,11.3,9.82,11.25c6.95-0.05,7.45-6.76,9.44-11.48c12.73-30.13,25.35-60.32,38.04-90.47
		c3.13-7.44,6-15.12,15.21-17.35c2.54-0.61,5.5-1.66,4.91-5.14C443.65,19.04,440.54,19.25,437.91,19.23z"/>
	<path id="E" class="st0" d="M553.2,113.75c-2.73,3.28-4.69,7.2-7.42,10.47c-9.27,11.11-21.63,14.29-34.9,10.54
		c-13.06-3.69-10.49-15.75-10.97-25.69c-0.21-4.29-0.18-8.6,0.01-12.89c0.22-5.15-1.57-11.87,5.32-13.65
		c7.22-1.87,15.11-2.79,21.13,3.57c2.16,2.29,3.51,5.34,5.25,8.03c1.7,2.64,3.11,6.16,7.15,4.84c3.97-1.3,3.14-5.13,3.19-8.2
		c0.12-7.51,0.16-15.02,0.04-22.53c-0.06-4.06,2.26-9.6-2.47-11.59c-5.78-2.43-6.19,4.11-8.49,7.27c-6.33,8.7-24.4,11.99-29.46,5.37
		c-3.3-4.31-2.06-35.99,1.52-38.99c6.86-5.73,27.89-2.54,35.73,5.59c2.59,2.69,4.61,5.93,7.11,8.73c1.94,2.17,5.47,3.52,6.89,1.01
		c3.91-6.91,1.02-14.68,1.18-22.08c0.1-4.89-3.81-5.98-7.91-5.78l-88.57,1.03c-2.51-0.09-5.76-0.36-6.34,3.23
		c-0.57,3.56,2.51,4.29,4.97,4.96c8.12,2.22,10.67,7.7,10.59,15.71c-0.25,26.31-0.16,52.63-0.11,78.94
		c0.01,7.09-1.77,12.74-9.66,14.54c-3.1,0.71-7.42,1.45-6.64,5.43c0.96,4.9,5.83,3.5,9.44,3.51l86.98-0.42
		c4.72-0.03,10.55,0.78,11.2-6.05c0.8-8.4,5.3-16.69,1.92-25.17C558.66,110.5,555.04,111.55,553.2,113.75z"/>
	<path id="L_00000030465799491937902480000009380516601117628558_" class="st0" d="M677.25,114.33c-7.61-4.28-8.73,6.78-13.35,10.37
		c-2.52,1.96-4.53,4.67-7.21,6.34c-8.12,5.04-17.11,7.16-26.06,3.28c-9.16-3.97-8.03-13.03-8.11-20.99c-0.15-15-0.72-30.04,0-45.01
		c0.72-15.06-5.84-40.84,12.36-42.97c3.57-0.42,2.03-6.48-1.57-6.52l-0.06,0c-18.21-0.11-36.43-0.13-54.64,0.05
		c-1.83,0.02-4.66,0.98-5.28,2.32c-1.49,3.2,1.15,4.97,3.88,5.48c12.3,2.29,12.2,11.31,12.07,20.89l-0.12,57.88
		c-0.12,13.47,4.33,29.22-13.13,33.21c-2.73,0.62-3.53,4.35-1.16,5.85c0.66,0.42,1.4,0.58,2.23,0.54l89.98,0.23
		c9.48,0.42,9.78-6.46,10.22-12.97C677.72,126.13,683.05,117.59,677.25,114.33z"/>
	<path id="L" class="st0" d="M791.37,113.91c-6.31-3.57-8.12,7.94-13.05,11.52c-2.59,1.88-4.73,4.42-7.44,6.08
		c-8.24,5.05-17.29,6.79-26.03,2.25c-8.01-4.16-6.86-12.63-6.88-20.1c-0.06-22.54,0.14-45.08-0.08-67.61
		c-0.09-9.21,0.44-17.42,11.94-19.33c2.77-0.46,5.3-2.15,4.01-5.49c-1.17-3.02-4.29-2.53-6.92-2.52l-54.69,0.18
		c-0.02,0-0.05,0-0.07,0c-3.51,0.06-4.14,5.07-0.8,6.18c13.38,4.45,13.98,16.21,13.39,29.43l-0.08,54.72
		c0.3,12.5,1.08,24.83-13.02,29.19c-2.82,0.87-3.28,4.8-0.63,6.1c1.82,0.89,3.64,0.7,5.36,0.61l82.06,0.08
		c6.91,0.31,13.78-0.01,13.57-9.16C791.82,128.44,799.66,118.61,791.37,113.91z"/>
	<path id="O" class="st0" d="M871.12,16.54c-38.87,0.11-69.01,28.56-69.34,65.46c-0.33,37.31,30.75,65.3,72.79,65.55
		c38.17,0.23,70.35-29.37,70.55-64.87C945.34,44.65,913.75,16.42,871.12,16.54z M899.3,126.63c-11.23,15.75-29,17.37-42.91,3.97
		c-21.32-20.53-26.1-68.48-9.29-93.17c12.08-17.74,33.55-18.08,47.36-0.73c9.49,11.91,15.23,30.83,15.17,51.33
		C909.08,100.77,907.84,114.66,899.3,126.63z"/>
</g>
</svg>
